<svg fill="none" xmlns="http://www.w3.org/2000/svg" viewBox="0 0 55 65"><g clip-path="url(#clip0_1119_33261)"><path d="M48.575 61.327 21.236 59.8c-3.21-.177-5.86-3.309-5.919-6.992L14.55 6.835c-.05-3.132 1.782-5.643 4.294-6.224L5.075 3.79C2.563 4.374.732 6.885.78 10.017l.768 45.973c.059 3.683 2.708 6.815 5.919 6.992l27.34 1.527c.482.03.955-.02 1.398-.118l13.758-3.172a5.04 5.04 0 0 1-1.398.119l.01-.01Z" fill="#368AA5" stroke="#231815" stroke-miterlimit="10"/><path d="M46.872 2.019c3.21.177 5.86 3.309 5.919 6.992l.768 45.973c.059 3.683-2.492 6.52-5.702 6.342L20.517 59.8c-3.21-.177-5.86-3.31-5.919-6.993L13.83 6.835C13.771 3.15 16.322.315 19.532.492l27.34 1.527Z" fill="#fff" stroke="#231815" stroke-linecap="round" stroke-linejoin="round"/><path d="m47.837 61.376-27.34-1.527c-3.21-.177-5.85-3.309-5.908-6.992l-.67-45.993c-.02-1.575.433-2.993 1.201-4.087.78-1.093 1.872-1.87 3.142-2.147l-6.884 1.527c-2.54.561-4.392 3.092-4.353 6.234l.67 45.992c.049 3.684 2.698 6.816 5.909 6.993l27.34 1.526c.472.03.925-.01 1.358-.108l6.884-1.526a4.789 4.789 0 0 1-1.359.108h.01Z" fill="#fff" stroke="#231815" stroke-linecap="round" stroke-linejoin="round"/><path d="M46.98 2.039c3.211.177 5.85 3.309 5.91 6.992l.67 45.992c.048 3.684-2.502 6.52-5.713 6.343l-27.34-1.527c-3.21-.177-5.85-3.309-5.908-6.992l-.67-45.992C13.879 3.17 16.43.325 19.64.512l27.34 1.527Z" fill="#fff" stroke="#231815" stroke-linecap="round" stroke-linejoin="round"/><path d="M24.24 25.764a10.951 10.951 0 0 0 3.23 2.934c1.822 1.084 3.851 1.744 5.644 2.886 2.649 1.694 4.56 4.5 5.18 7.583.532 2.69.207 6.658-1.842 8.716 5.338-2.55 10.765-9.474 8.815-15.659-.769-2.442-2.482-4.776-2.01-7.297.316-1.665 1.527-2.985 2.502-4.383 1.586-2.285 2.236-5.397-1.172-5.79-1.684-.188-3.408-.385-5.102-.415-1.359-.02-2.698-.6-4.067-.807a20.185 20.185 0 0 0-8.873.61c-1.27.385-2.551.926-3.418 1.92-1.96 2.236-.876 6.294.443 8.618.207.365.434.72.68 1.054l-.01.03Z" fill="#E2CCAF" stroke="#231815" stroke-linecap="round" stroke-linejoin="round"/><path d="M34.818 20.554c6.614 0 11.975-1.839 11.975-4.107 0-2.268-5.361-4.107-11.975-4.107s-11.976 1.839-11.976 4.107c0 2.268 5.361 4.107 11.976 4.107Z" fill="#E2CCAF" stroke="#231815" stroke-linecap="round" stroke-linejoin="round"/><path d="M34.443 16.506c-.463.138-2.541.532-2.482-.423.02-.335.374-.542.69-.66a7.263 7.263 0 0 1 3.24-.414c.374.04.797.138.985.463.325.542-.227 1.182-.769 1.497-2.314 1.35-5.19 1.074-7.849.749-.61-.07-1.32-.207-1.615-.749-.217-.394-.128-.906.128-1.27.256-.365.64-.63 1.034-.837 1.596-.838 3.447-1.025 5.24-1.192 2.54-.236 5.308-.414 7.435.995.748.492 1.428 1.339 1.221 2.206-.167.738-.896 1.201-1.585 1.546a17.845 17.845 0 0 1-9.888 1.694" fill="#E2CCAF"/><path d="M34.443 16.506c-.463.138-2.541.532-2.482-.423.02-.335.374-.542.69-.66a7.263 7.263 0 0 1 3.24-.414c.374.04.797.138.985.463.325.542-.227 1.182-.769 1.497-2.314 1.35-5.19 1.074-7.849.749-.61-.07-1.32-.207-1.615-.749-.217-.394-.128-.906.128-1.27.256-.365.64-.63 1.034-.837 1.596-.838 3.447-1.025 5.24-1.192 2.54-.236 5.308-.414 7.435.995.748.492 1.428 1.339 1.221 2.206-.167.738-.896 1.201-1.585 1.546a17.845 17.845 0 0 1-9.888 1.694" stroke="#231815" stroke-linecap="round" stroke-linejoin="round"/><path d="M26.22 42.388a.426.426 0 0 1-.187-.04.488.488 0 0 1-.286-.57l1.753-7.043-1.566-.285a.514.514 0 0 1-.355-.266.501.501 0 0 1 0-.443l5.535-11.277a.504.504 0 0 1 .581-.256.495.495 0 0 1 .345.532l-.896 7.623 1.714.305c.157.03.295.138.364.286a.465.465 0 0 1-.03.453l-6.539 10.735a.5.5 0 0 1-.423.236l-.01.01Z" fill="#E86546"/><path d="m31.538 22.691-.956 8.076 2.167.394-6.54 10.734 1.882-7.553-2.088-.374 5.535-11.277Zm0-.985a.99.99 0 0 0-.887.552l-5.534 11.276a.98.98 0 0 0 0 .877.972.972 0 0 0 .699.522l1.054.187-1.625 6.53a.977.977 0 0 0 .58 1.142.961.961 0 0 0 1.211-.394l6.54-10.735c.168-.276.188-.62.06-.916a.955.955 0 0 0-.72-.561l-1.25-.227.847-7.16a.987.987 0 0 0-.975-1.103v.01Z" fill="#231815"/><path d="M32.73 41c.029.511.118 1.053.393 1.486.276.434.778.72 1.163.542.866-.413.462-1.96.305-2.718-.227-1.083-.542-2.108-.867-3.152 0-.01-.217.325-.226.355-.08.148-.148.295-.217.443a6.45 6.45 0 0 0-.335.955 6.692 6.692 0 0 0-.207 2.078l-.01.01Zm-11.947-8.668c-.088.503-.108 1.054.06 1.566.167.512.6.946 1.004.887.926-.128.867-1.743.877-2.531.01-1.113-.08-2.206-.168-3.32 0-.02-.276.247-.295.276-.109.119-.207.237-.306.355a6.475 6.475 0 0 0-.531.817 6.424 6.424 0 0 0-.64 1.94v.01Zm18.88-5.347c.01.512.089 1.063.355 1.507.265.443.758.748 1.142.58.877-.383.522-1.94.374-2.698-.197-1.093-.492-2.127-.788-3.18 0-.01-.216.314-.236.344a6.457 6.457 0 0 0-.59 1.379 6.933 6.933 0 0 0-.267 2.068h.01Zm-12.38 21.686c.03.512.118 1.054.394 1.487.276.434.778.72 1.162.542.867-.414.463-1.96.306-2.718-.227-1.084-.542-2.108-.867-3.152 0-.01-.217.325-.227.355a6.461 6.461 0 0 0-.552 1.398 6.692 6.692 0 0 0-.206 2.078l-.01.01Z" fill="#368AA5" stroke="#231815" stroke-linecap="round" stroke-linejoin="round"/></g><defs><clipPath id="clip0_1119_33261"><path fill="#fff" transform="translate(.289)" d="M0 0h53.763v65H0z"/></clipPath></defs></svg>