<svg fill="none" xmlns="http://www.w3.org/2000/svg" viewBox="0 0 55 65"><g clip-path="url(#clip0_1119_33100)"><path d="M48.575 61.327 21.236 59.8c-3.21-.177-5.86-3.309-5.919-6.992L14.55 6.835c-.05-3.132 1.782-5.643 4.294-6.224L5.075 3.79C2.563 4.374.732 6.885.78 10.017l.768 45.973c.059 3.683 2.708 6.815 5.919 6.992l27.34 1.527c.482.03.955-.02 1.398-.118l13.758-3.172a5.04 5.04 0 0 1-1.398.119l.01-.01Z" fill="#368AA5" stroke="#231815" stroke-miterlimit="10"/><path d="M46.872 2.019c3.21.177 5.86 3.309 5.919 6.992l.768 45.973c.059 3.683-2.492 6.52-5.702 6.342L20.517 59.8c-3.21-.177-5.86-3.31-5.919-6.993L13.83 6.835C13.771 3.15 16.322.315 19.532.492l27.34 1.527Z" fill="#fff" stroke="#231815" stroke-linecap="round" stroke-linejoin="round"/><path d="m47.837 61.376-27.34-1.527c-3.21-.177-5.85-3.309-5.908-6.992l-.67-45.993c-.02-1.575.433-2.993 1.201-4.087.78-1.093 1.872-1.87 3.142-2.147l-6.884 1.527c-2.54.561-4.392 3.092-4.353 6.234l.67 45.992c.049 3.684 2.698 6.816 5.909 6.993l27.34 1.526c.472.03.925-.01 1.358-.108l6.884-1.526a4.789 4.789 0 0 1-1.359.108h.01Z" fill="#fff" stroke="#231815" stroke-linecap="round" stroke-linejoin="round"/><path d="M46.98 2.039c3.211.177 5.85 3.309 5.91 6.992l.67 45.992c.048 3.684-2.502 6.52-5.713 6.343l-27.34-1.527c-3.21-.177-5.85-3.309-5.908-6.992l-.67-45.992C13.879 3.17 16.43.325 19.64.512l27.34 1.527Z" fill="#fff" stroke="#231815" stroke-linecap="round" stroke-linejoin="round"/><path d="M36.462 18.377a2.466 2.466 0 0 0-1.96.759 2.937 2.937 0 0 0-1.98-1.024c-1.526-.099-2.747 1.132-2.727 2.747.04 2.945 4.776 5.604 4.776 5.604s4.688-2.029 4.668-4.974c-.01-1.615-1.25-3.013-2.777-3.112Z" fill="#E86546" stroke="#231815" stroke-linecap="round" stroke-linejoin="round"/><path d="m48.448 39.729-27.635-1.714 2.738-12.517c.256-1.172 1.25-1.94 2.403-1.862L43.09 24.77c1.143.079 2.147.975 2.423 2.167l2.945 12.793h-.01Z" fill="#E2CCAF" stroke="#231815" stroke-linecap="round" stroke-linejoin="round"/><path d="m49.373 44.19-29.407-1.782c-.66-.04-1.202-.63-1.212-1.32l-.049-2.767c-.01-.69.512-1.222 1.172-1.182l29.506 1.832c.65.039 1.172.63 1.172 1.32v2.737c0 .68-.522 1.202-1.172 1.162h-.01Z" fill="#E2CCAF" stroke="#231815" stroke-linecap="round" stroke-linejoin="round"/><path d="M27.46 35.218a.493.493 0 0 1-.462-.482l-.089-6.077-1.871-.118a.5.5 0 0 1-.463-.483v-.817a.46.46 0 0 1 .138-.364.487.487 0 0 1 .335-.138l5.466.354a.5.5 0 0 1 .463.483v.817a.438.438 0 0 1-.148.365.487.487 0 0 1-.335.138l-1.822-.119.079 5.998c0 .138-.05.266-.158.364a.486.486 0 0 1-.335.138l-.807-.049.01-.01Z" fill="#fff"/><path d="m25.067 27.221 5.427.355v.817l-2.315-.148.089 6.53-.768-.05-.089-6.529-2.324-.148v-.817m-.01-.985a.978.978 0 0 0-.68.276 1.004 1.004 0 0 0-.305.729v.817c.02.512.424.936.936.965l1.418.089.079 5.623a.98.98 0 0 0 .926.966l.768.049h.059a.978.978 0 0 0 .68-.276c.196-.187.305-.453.305-.729l-.07-5.466 1.261.08h.06c.256 0 .492-.1.679-.267a.967.967 0 0 0 .305-.729v-.817a1.012 1.012 0 0 0-.935-.975l-5.427-.354h-.059v.02Z" fill="#231815"/><path d="M34.798 35.681a.493.493 0 0 1-.463-.482v-1.172l-2.876-.178v1.093a.46.46 0 0 1-.138.365.487.487 0 0 1-.335.138l-.797-.05a.493.493 0 0 1-.463-.482l-.02-1.625c0-.138.05-.266.158-.364a.486.486 0 0 1 .334-.138l.276.02-.02-1.911c0-.138.05-.266.158-.365a.486.486 0 0 1 .335-.138l.276.02V29.31a.46.46 0 0 1 .138-.364.486.486 0 0 1 .334-.138l.276.02v-1.104a.46.46 0 0 1 .138-.364.486.486 0 0 1 .335-.138l.807.05a.5.5 0 0 1 .463.482v1.182l.325.02c.256.02.463.226.463.482v1.172l.325.02c.256.02.463.226.463.482l.02 1.99.315.02c.256.02.463.226.463.482v1.625a.43.43 0 0 1-.138.364.487.487 0 0 1-.335.138l-.798-.049h-.02Zm-1.26-3.506v-.64l-.326-.02a.5.5 0 0 1-.374-.207l-.03.03a.486.486 0 0 1-.334.138l-.276-.02v.64l1.34.089v-.01Z" fill="#fff"/><path d="m32.444 27.704.778.05.02 1.634.768.05.02 1.634.767.05.02 2.442-3.85-.246.02 1.625-.77-.05-.019-1.625.768.05-.03-2.443.769.05-.02-1.635.778.049-.02-1.635Zm.04 3.27-.77-.05.02 1.635 2.315.148-.02-1.625-.768-.05-.02-1.634-.768-.05.02 1.636m2.334 2.59.768.049v1.625l-.758-.05-.02-1.624m-2.373-6.845c-.256 0-.493.099-.68.266a.967.967 0 0 0-.305.729v.62a1.03 1.03 0 0 0-.453.246.967.967 0 0 0-.305.73v.61a.949.949 0 0 0-.444.246 1.004 1.004 0 0 0-.305.729l.02 1.428c-.168.04-.325.128-.453.246a1.004 1.004 0 0 0-.306.729l.02 1.625c0 .512.404.935.926.975l.768.049h.06a.978.978 0 0 0 .679-.276c.197-.187.305-.453.305-.728v-.562l1.871.118v.71c.01.511.414.945.926.974l.768.05h.06c.255 0 .492-.099.679-.266a.998.998 0 0 0 .305-.72v-1.624a1.018 1.018 0 0 0-.798-.956v-1.536a1.029 1.029 0 0 0-.797-.955v-.729a1 1 0 0 0-.788-.955v-.73a1.003 1.003 0 0 0-.926-.974l-.778-.05h-.06l.01-.019Z" fill="#231815"/><path d="M40.579 36.045a.495.495 0 0 1-.463-.492V34.39l-.315-.02a.495.495 0 0 1-.463-.492v-1.163l-.561-.039v1.093a.486.486 0 0 1-.483.502l-.276-.02v1.094a.486.486 0 0 1-.483.502l-.797-.049a.493.493 0 0 1-.463-.483V33.69a.46.46 0 0 1 .138-.364.486.486 0 0 1 .335-.138l.276.02v-1.093a.51.51 0 0 1 .147-.365c.02-.02.04-.03.06-.049a.494.494 0 0 1-.217-.404v-1.172l-.325-.02a.495.495 0 0 1-.463-.492V27.98a.46.46 0 0 1 .138-.364.487.487 0 0 1 .335-.138l.807.05a.494.494 0 0 1 .463.492v1.172l.325.02c.256.02.463.226.463.492v1.172l.561.04V29.81a.486.486 0 0 1 .483-.502l.276.02v-1.104a.487.487 0 0 1 .483-.502l.797.05c.256.02.463.226.463.492V29.9a.47.47 0 0 1-.148.364.487.487 0 0 1-.335.138l-.276-.02v1.103a.51.51 0 0 1-.147.365c-.02.02-.04.03-.06.049a.494.494 0 0 1 .217.404v1.172l.316.02c.255.02.462.226.462.492v1.615a.468.468 0 0 1-.147.364.486.486 0 0 1-.335.138l-.798-.049.01-.01Z" fill="#fff"/><path d="m36.708 27.98.768.049v1.635l.788.05v1.634l1.546.098v-1.635l.759.05v-1.635l.758.05v1.634l-.758-.05v1.626l-.759-.05v.818l-1.536-.098v1.625l-.758-.05v-1.625l.758.05v-.818l-.778-.05v-1.634l-.788-.05V27.97m3.102 4.274.769.05v1.624l.778.05v1.615l-.759-.05v-1.625l-.778-.049v-1.625m-3.072 1.428.768.05v1.624l-.759-.049v-1.625m-.059-6.697a1.04 1.04 0 0 0-.68.266.967.967 0 0 0-.304.729v1.635c.02.463.344.857.787.955v.729c0 .148.04.286.099.404a.963.963 0 0 0-.089.404v.61a.933.933 0 0 0-.453.246.998.998 0 0 0-.305.72v1.624c.02.512.423.946.935.975l.769.05h.059c.246 0 .492-.099.68-.266a.998.998 0 0 0 .305-.72v-.61a.906.906 0 0 0 .443-.246l.049-.05a.953.953 0 0 0 .59.395v.718c0 .523.415.946.927.975l.768.05h.059c.246 0 .492-.099.68-.266a.998.998 0 0 0 .305-.72v-1.614a1 1 0 0 0-.778-.956v-.719a.906.906 0 0 0-.099-.403.963.963 0 0 0 .089-.404v-.61a.934.934 0 0 0 .453-.247.961.961 0 0 0 .305-.719v-1.635a.989.989 0 0 0-.925-.975l-.769-.049h-.059a1.04 1.04 0 0 0-.68.266.96.96 0 0 0-.305.719v.62a.935.935 0 0 0-.453.247l-.059.059a1.031 1.031 0 0 0-.6-.404v-.729a.988.988 0 0 0-.926-.975l-.768-.05h-.06l.01-.029Z" fill="#231815"/><path d="M43.277 36.213a.495.495 0 0 1-.463-.492l-.03-7.318c0-.138.06-.266.158-.364a.486.486 0 0 1 .335-.138l.798.05a.494.494 0 0 1 .463.491l.03 7.318a.515.515 0 0 1-.158.364.487.487 0 0 1-.335.138l-.798-.049Z" fill="#fff"/><path d="m43.277 28.403.769.05.03 7.317-.769-.05-.03-7.317Zm0-.985a1.04 1.04 0 0 0-.68.266.96.96 0 0 0-.304.719l.03 7.317c0 .522.403.946.925.975l.768.05h.06c.245 0 .492-.099.679-.266a.946.946 0 0 0 .305-.72l-.03-7.317a.974.974 0 0 0-.925-.975l-.768-.049h-.06Z" fill="#231815"/><path d="m34.443 14.063.02 2.147m-2.896-1.427 1.438 1.605m4.334-1.211-1.409 1.418" stroke="#231815" stroke-linecap="round" stroke-linejoin="round"/></g><defs><clipPath id="clip0_1119_33100"><path fill="#fff" transform="translate(.289)" d="M0 0h53.763v65H0z"/></clipPath></defs></svg>