<svg fill="none" xmlns="http://www.w3.org/2000/svg" viewBox="0 0 54 65"><g clip-path="url(#clip0_1119_33201)" stroke="#231815"><path d="M48.287 61.327 20.947 59.8c-3.21-.177-5.86-3.309-5.918-6.992L14.26 6.835c-.049-3.132 1.783-5.643 4.294-6.224L4.786 3.79C2.275 4.374.443 6.885.492 10.017L1.26 55.99c.06 3.683 2.709 6.815 5.92 6.992l27.339 1.527c.482.03.955-.02 1.398-.118l13.758-3.172a5.04 5.04 0 0 1-1.398.119l.01-.01Z" fill="#368AA5" stroke-miterlimit="10"/><path d="M46.583 2.019c3.21.177 5.86 3.309 5.92 6.992l.767 45.973c.06 3.683-2.491 6.52-5.702 6.342L20.228 59.8c-3.21-.177-5.86-3.31-5.918-6.993l-.77-45.972C13.482 3.15 16.034.315 19.244.492l27.34 1.527Z" fill="#fff" stroke-linecap="round" stroke-linejoin="round"/><path d="m47.549 61.376-27.34-1.527c-3.21-.177-5.85-3.309-5.909-6.992l-.67-45.993c-.02-1.575.434-2.993 1.202-4.087.778-1.093 1.871-1.87 3.142-2.147l-6.885 1.527c-2.54.561-4.392 3.092-4.353 6.234l.67 45.992c.05 3.684 2.699 6.816 5.91 6.993l27.339 1.526c.472.03.925-.01 1.359-.108l6.884-1.526a4.789 4.789 0 0 1-1.36.108h.01Z" fill="#fff" stroke-linecap="round" stroke-linejoin="round"/><path d="M46.692 2.039c3.21.177 5.85 3.309 5.909 6.992l.67 45.992c.049 3.684-2.502 6.52-5.712 6.343l-27.34-1.527c-3.21-.177-5.85-3.309-5.909-6.992l-.67-45.992C13.591 3.17 16.142.325 19.352.512l27.34 1.527Z" fill="#fff" stroke-linecap="round" stroke-linejoin="round"/><path d="M49.637 32.145a4.5 4.5 0 0 0-2.256-3.9c.109-.463.168-.935.168-1.428a6.271 6.271 0 0 0-8.933-5.682 6.268 6.268 0 0 0-5.279-2.886 6.313 6.313 0 0 0-5.347 2.994 6.164 6.164 0 0 0-2.531-.532 6.271 6.271 0 0 0-6.107 7.702 4.487 4.487 0 0 0-2.255 3.9 4.497 4.497 0 0 0 4.255 4.49 6.264 6.264 0 0 0 5.988 4.393c.916 0 1.772-.197 2.56-.542a6.971 6.971 0 0 0 3.428.896c1.32 0 2.56-.364 3.614-1.004a6.285 6.285 0 0 0 8.43-3.9 4.49 4.49 0 0 0 4.255-4.49l.01-.01Z" fill="#00698A" stroke-linecap="round" stroke-linejoin="round"/><path d="M39.857 28.856a1.514 1.514 0 0 0-2.147-.069l-2.906 2.718v-4.254a1.527 1.527 0 0 0-3.052 0v7.07l-2.699-2.806a1.522 1.522 0 0 0-2.147-.04c-.6.582-.62 1.547-.04 2.148l4.895 5.081v9.553c0 .838.68 1.527 1.527 1.527.847 0 1.526-.68 1.526-1.526V35.66s.06-.049.089-.078l4.895-4.58c.61-.571.65-1.537.069-2.147h-.01Z" fill="#E2CCAF" stroke-miterlimit="10"/></g><defs><clipPath id="clip0_1119_33201"><path fill="#fff" d="M0 0h53.763v65H0z"/></clipPath></defs></svg>