<svg fill="none" xmlns="http://www.w3.org/2000/svg" viewBox="0 0 54 65"><g clip-path="url(#clip0_1119_33034)" stroke="#231815"><path d="M48.287 61.327 20.947 59.8c-3.21-.177-5.86-3.309-5.918-6.992L14.26 6.835c-.049-3.132 1.783-5.643 4.294-6.224L4.786 3.79C2.275 4.374.443 6.885.492 10.017L1.26 55.99c.06 3.683 2.709 6.815 5.92 6.992l27.339 1.527c.482.03.955-.02 1.398-.118l13.758-3.172a5.04 5.04 0 0 1-1.398.119l.01-.01Z" fill="#368AA5" stroke-miterlimit="10"/><path d="M46.583 2.019c3.21.177 5.86 3.309 5.92 6.992l.767 45.973c.06 3.683-2.491 6.52-5.702 6.342L20.228 59.8c-3.21-.177-5.86-3.31-5.918-6.993l-.77-45.972C13.482 3.15 16.034.315 19.244.492l27.34 1.527Z" fill="#fff" stroke-linecap="round" stroke-linejoin="round"/><path d="m47.549 61.376-27.34-1.527c-3.21-.177-5.85-3.309-5.909-6.992l-.67-45.993c-.02-1.575.434-2.993 1.202-4.087.778-1.093 1.871-1.87 3.142-2.147l-6.885 1.527c-2.54.561-4.392 3.092-4.353 6.234l.67 45.992c.05 3.684 2.699 6.816 5.91 6.993l27.339 1.526c.472.03.925-.01 1.359-.108l6.884-1.526a4.789 4.789 0 0 1-1.36.108h.01Z" fill="#fff" stroke-linecap="round" stroke-linejoin="round"/><path d="M46.692 2.039c3.21.177 5.85 3.309 5.909 6.992l.67 45.992c.049 3.684-2.502 6.52-5.712 6.343l-27.34-1.527c-3.21-.177-5.85-3.309-5.909-6.992l-.67-45.992C13.591 3.17 16.142.325 19.352.512l27.34 1.527Z" fill="#fff" stroke-linecap="round" stroke-linejoin="round"/><path d="M47.795 11.67s-.158.523-.503 1.36a22.01 22.01 0 0 1-2.55 4.54c-.138.197-.286.384-.444.58-.266.336-.551.67-.847 1.005-2.087 2.285-5.032 4.344-9.09 4.895l-1.97-.719s4.393-1.063 7.83-5.24c.266-.324.522-.659.778-1.023.138-.197.266-.394.394-.591.158-.247.315-.513.463-.778a17.99 17.99 0 0 0 1.615-3.92c.079-.266.148-.542.207-.827 0 0 1.812.709 4.107.738l.01-.02Z" fill="#fff" stroke-linecap="round" stroke-linejoin="round"/><path d="M33.83 44.574c5.896 0 10.675-4.78 10.675-10.676s-4.78-10.675-10.675-10.675c-5.896 0-10.676 4.78-10.676 10.675 0 5.896 4.78 10.676 10.676 10.676Z" fill="#E2CCAF" stroke-linecap="round" stroke-linejoin="round"/><path d="M33.82 40.005a6.106 6.106 0 1 0 0-12.213 6.106 6.106 0 0 0 0 12.213ZM44.298 18.15c-.266.336-.551.67-.847 1.005l-3.22-1.063c.266-.325.522-.66.778-1.025l3.3 1.094-.01-.01Zm2.994-5.13a20.254 20.254 0 0 1-.797 1.713l-3.615-1.201a17.99 17.99 0 0 0 .601-1.783l3.821 1.26-.01.01Z" fill="#fff" stroke-linecap="round" stroke-linejoin="round"/><path d="M49.164 33.357a15.493 15.493 0 0 0-.827-4.452 15.399 15.399 0 0 0-2.68-4.776 15.024 15.024 0 0 0-1.496-1.566 15.399 15.399 0 0 0-7.298-3.703c-.985-.197-2-.296-3.033-.296-8.47 0-15.344 6.875-15.344 15.344 0 .532.03 1.054.079 1.566a15.208 15.208 0 0 0 2.974 7.623 15.01 15.01 0 0 0 1.418 1.645 15.455 15.455 0 0 0 4.5 3.132c1.36.62 2.817 1.043 4.344 1.25.66.089 1.34.128 2.029.128 1.221 0 2.403-.138 3.535-.413a15.34 15.34 0 0 0 10.981-9.977c.532-1.556.818-3.22.818-4.964v-.551.01ZM33.83 21.352h.285a4.145 4.145 0 0 1 3.861 4.136c0 2.196-1.852 4.146-4.146 4.146a4.14 4.14 0 0 1-4.146-4.146v-.118a4.142 4.142 0 0 1 4.146-4.028v.01Zm-11.946 8.676a4.14 4.14 0 0 1 5.22-2.659c.098.03.186.069.275.099a4.143 4.143 0 0 1-2.836 7.78 4.114 4.114 0 0 1-2.689-2.758 4.122 4.122 0 0 1 .03-2.462Zm10.35 13.128a4.144 4.144 0 0 1-7.002-.473 4.127 4.127 0 0 1-.453-2.511 4.06 4.06 0 0 1 .758-1.881 4.132 4.132 0 0 1 3.201-1.704 4.175 4.175 0 0 1 2.59.788 4.144 4.144 0 0 1 .916 5.791l-.01-.01Zm8.972.916a4.135 4.135 0 0 1-4.254.374 4.093 4.093 0 0 1-1.537-1.29 4.235 4.235 0 0 1-.748-1.832 4.144 4.144 0 0 1 5.101-4.628 4.166 4.166 0 0 1 2.886 2.57 4.151 4.151 0 0 1-1.448 4.806Zm1.901-8.814c-.64.206-1.3.256-1.92.157a4.157 4.157 0 0 1-3.3-2.816 4.409 4.409 0 0 1-.206-1.222 4.153 4.153 0 0 1 4.609-4.185 4.132 4.132 0 0 1 3.476 2.836c.108.345.177.69.197 1.034a4.141 4.141 0 0 1-2.856 4.186v.01Z" fill="#E86546" stroke-linecap="round" stroke-linejoin="round"/><path d="M33.83 35.405a1.507 1.507 0 1 0 0-3.013 1.507 1.507 0 0 0 0 3.013Z" fill="#E2CCAF" stroke-linecap="round" stroke-linejoin="round"/><path d="M33.83 31.377a.62.62 0 1 0 0-1.24.62.62 0 0 0 0 1.24Zm-2.807.965a.614.614 0 0 1 .394.778.614.614 0 0 1-.778.394.614.614 0 0 1-.394-.778.614.614 0 0 1 .778-.394Zm.453 3.743a.626.626 0 0 1 .867-.138c.275.197.334.59.137.867a.625.625 0 0 1-.866.138.626.626 0 0 1-.138-.867Zm3.693.729a.627.627 0 0 1 .138-.867.627.627 0 0 1 .866.138.627.627 0 0 1-.138.867.627.627 0 0 1-.866-.138Zm1.841-3.3a.614.614 0 0 1-.777-.394.614.614 0 0 1 .394-.778.614.614 0 0 1 .777.394.614.614 0 0 1-.394.778Z" fill="#fff" stroke-linecap="round" stroke-linejoin="round"/></g><defs><clipPath id="clip0_1119_33034"><path fill="#fff" d="M0 0h53.763v65H0z"/></clipPath></defs></svg>