<svg fill="none" xmlns="http://www.w3.org/2000/svg" viewBox="0 0 55 65"><g clip-path="url(#clip0_1119_33051)"><path d="M49.05 61.327 21.71 59.8c-3.21-.177-5.86-3.309-5.919-6.992l-.768-45.973c-.05-3.132 1.783-5.643 4.294-6.224L5.549 3.79c-2.512.582-4.343 3.093-4.294 6.225l.768 45.973c.06 3.683 2.708 6.815 5.919 6.992l27.34 1.527c.482.03.955-.02 1.398-.118l13.758-3.172a5.04 5.04 0 0 1-1.398.119l.01-.01Z" fill="#368AA5" stroke="#231815" stroke-miterlimit="10"/><path d="M47.346 2.019c3.21.177 5.86 3.309 5.919 6.992l.768 45.973c.06 3.683-2.492 6.52-5.702 6.342L20.99 59.8c-3.21-.177-5.86-3.31-5.919-6.993l-.768-45.972C14.245 3.15 16.796.315 20.006.492l27.34 1.527Z" fill="#fff" stroke="#231815" stroke-linecap="round" stroke-linejoin="round"/><path d="m48.311 61.376-27.34-1.527c-3.21-.177-5.85-3.309-5.908-6.992l-.67-45.993c-.02-1.575.433-2.993 1.202-4.087.778-1.093 1.87-1.87 3.141-2.147l-6.884 1.527C9.312 2.718 7.46 5.249 7.5 8.39l.67 45.992c.05 3.684 2.698 6.816 5.909 6.993l27.34 1.526c.472.03.925-.01 1.358-.108l6.884-1.526a4.789 4.789 0 0 1-1.359.108h.01Z" fill="#fff" stroke="#231815" stroke-linecap="round" stroke-linejoin="round"/><path d="M47.455 2.039c3.21.177 5.85 3.309 5.909 6.992l.67 45.992c.049 3.684-2.502 6.52-5.713 6.343l-27.34-1.527c-3.21-.177-5.85-3.309-5.908-6.992l-.67-45.992c-.05-3.684 2.502-6.53 5.712-6.343l27.34 1.527Z" fill="#fff" stroke="#231815" stroke-linecap="round" stroke-linejoin="round"/><path d="M35.311 50.582c-1.763 0-3.516-.079-4.836-.148-2.166-.108-4.274-.266-6.194-.975-.345-.128-.7-.285-.946-.58-.335-.405-.315-.887-.305-1.202.098-2.295.197-4.895.867-7.416.374-1.409.837-2.551 1.418-3.516.384-.64.866-1.231 1.34-1.793.64-.778 1.24-1.516 1.595-2.334.59-1.398.522-2.935-.217-4.56-.483-1.073-1.143-2.097-1.842-3.17-.335-.523-.68-1.045-.994-1.577a25.063 25.063 0 0 1-2.69-6.175c-.078-.265-.186-.67-.048-1.073.266-.778 1.211-1.014 2.009-1.123a39.354 39.354 0 0 1 4.826-.394c.778-.01 1.487-.03 1.96-.285.305-.158.492-.394.59-.73.187-.61.04-1.447-.088-2.028a.464.464 0 0 1 .108-.433.488.488 0 0 1 .364-.168c.02 0 5.575.572 5.575.572.197.02.364.157.423.354.148.502.089 1.014.05 1.468-.07.728-.09 1.122.305 1.418.226.177.59.266.906.354l4.934 1.3c.916.247 1.94.572 2.432 1.37.434.718.247 1.506.03 2.107-.591 1.664-1.615 3.151-2.6 4.59-.975 1.408-1.98 2.865-2.531 4.46-.6 1.704-.483 3.388.335 4.994.315.62.699 1.23 1.073 1.822.296.463.591.935.857 1.408a13.663 13.663 0 0 1 1.379 3.555c.64 2.689.571 5.516.512 7.79v.237a.513.513 0 0 1-.335.453c-2.777.975-6.027 1.438-10.242 1.438l-.02-.01Z" fill="#E86546"/><path d="M32.229 11.404c1.861.188 3.703.375 5.525.562.305 1.083-.493 2.373.532 3.141.305.227.699.335 1.073.434 1.664.443 3.31.876 4.934 1.3.818.216 1.743.502 2.137 1.152.325.542.178 1.152 0 1.694-1.132 3.23-3.988 5.752-5.14 9.05-.621 1.783-.552 3.595.354 5.378.571 1.113 1.33 2.157 1.94 3.24a13.422 13.422 0 0 1 1.33 3.427c.6 2.532.561 5.112.492 7.663v.226c-3.112 1.093-6.55 1.408-10.085 1.408-1.595 0-3.2-.059-4.816-.147-2.038-.109-4.156-.247-6.047-.946-.275-.098-.561-.226-.738-.433-.207-.246-.207-.571-.187-.867.098-2.452.216-4.914.846-7.307.306-1.162.72-2.334 1.37-3.388.876-1.458 2.314-2.67 2.964-4.196.68-1.605.522-3.309-.217-4.954-.748-1.644-1.9-3.19-2.866-4.796-1.162-1.94-2.058-3.979-2.64-6.057-.068-.256-.137-.531-.058-.778.177-.522.945-.699 1.615-.797a38.411 38.411 0 0 1 4.767-.384c.768-.01 1.575-.02 2.176-.345.443-.236.7-.6.827-1.014.207-.68.089-1.527-.088-2.275m0-.985a.995.995 0 0 0-.965 1.201c.069.306.275 1.221.098 1.773a.633.633 0 0 1-.354.433c-.375.197-1.015.207-1.645.227h-.099c-1.634.03-3.28.167-4.884.403-.552.08-2 .286-2.403 1.458-.188.552-.05 1.064.039 1.37.6 2.156 1.526 4.273 2.738 6.292.325.532.66 1.064 1.004 1.586.69 1.064 1.34 2.058 1.812 3.102.68 1.497.749 2.896.207 4.166-.325.758-.906 1.468-1.516 2.216-.483.581-.975 1.182-1.38 1.852-.61 1.004-1.092 2.196-1.477 3.643-.679 2.57-.787 5.2-.886 7.515-.01.345-.04.985.414 1.536.315.384.758.581 1.152.729 1.98.729 4.127.886 6.343 1.005 1.329.068 3.082.147 4.865.147 4.274 0 7.583-.463 10.41-1.457a.988.988 0 0 0 .66-.906v-.227c.068-2.295.137-5.16-.513-7.908a14.295 14.295 0 0 0-1.428-3.684c-.276-.492-.58-.965-.867-1.428-.384-.61-.748-1.181-1.053-1.782-.749-1.477-.857-3.024-.306-4.61.532-1.536 1.478-2.895 2.472-4.343 1.015-1.457 2.059-2.974 2.66-4.707.157-.453.531-1.527-.08-2.531-.58-.955-1.713-1.33-2.727-1.596l-2.108-.56-2.826-.75c-.256-.068-.581-.157-.739-.265-.158-.119-.187-.247-.108-.975.049-.493.108-1.064-.07-1.655a.981.981 0 0 0-.846-.709l-5.525-.561h-.099.03Z" fill="#231815"/><path d="M36.375 12.774c-.423 0-.906-.03-1.389-.08-2.156-.216-3.25-.659-3.25-1.29 0-.699.975-.797 1.92-.797.434 0 .927.03 1.429.079 3.21.335 3.21 1.053 3.21 1.29 0 .7-.975.798-1.93.798h.01Z" fill="#E2CCAF"/><path d="M33.657 11.1c.403 0 .876.029 1.378.078 1.537.157 2.768.522 2.768.798 0 .197-.581.305-1.438.305-.394 0-.847-.02-1.34-.069-1.546-.158-2.806-.522-2.806-.808 0-.197.58-.305 1.428-.305m0-.985c-.72 0-2.413 0-2.413 1.29 0 1.409 2.501 1.665 3.693 1.783.502.05.995.079 1.438.079.719 0 2.423 0 2.423-1.29 0-.453 0-1.399-3.654-1.783a15.857 15.857 0 0 0-1.477-.079h-.01Z" fill="#231815"/><path d="M34.986 48.405a.151.151 0 0 1-.148-.148v-1.22s.02-.08.04-.109c.03-.03.069-.04.108-.04h.305c.08 0 .148.07.148.148v1.212s-.02.079-.04.108a.148.148 0 0 1-.108.04h-.305v.01Zm0-2.432a.151.151 0 0 1-.148-.148v-1.221s.02-.08.04-.109a.146.146 0 0 1 .108-.039h.305c.08 0 .148.069.148.148v1.22s-.02.08-.04.11a.148.148 0 0 1-.108.039h-.305Zm0-2.433a.151.151 0 0 1-.148-.148v-1.22s.02-.08.04-.11a.144.144 0 0 1 .098-.039h.306c.078 0 .147.07.147.148v1.221s-.02.08-.04.109a.141.141 0 0 1-.098.04h-.305Zm0-2.432a.151.151 0 0 1-.148-.148v-1.221s.02-.08.05-.109a.14.14 0 0 1 .098-.04h.315c.079 0 .148.07.148.149v1.21s-.02.08-.04.11a.141.141 0 0 1-.098.039h-.315l-.01.01Zm0-2.433a.151.151 0 0 1-.148-.148v-1.221s.02-.079.05-.108a.14.14 0 0 1 .098-.04l.315.01c.079 0 .148.07.148.148v1.221s-.02.079-.05.108a.141.141 0 0 1-.098.04h-.315v-.01Zm0-2.433c-.079 0-.138-.069-.138-.147v-1.222s.02-.078.05-.108a.14.14 0 0 1 .098-.04l.315.01c.079 0 .138.07.138.148v1.221s-.02.08-.05.109a.14.14 0 0 1-.098.04l-.315-.01Zm0-2.432c-.079 0-.138-.07-.138-.148v-1.221s.02-.079.05-.108a.124.124 0 0 1 .098-.04l.315.01c.079 0 .138.069.138.148v1.211s-.02.079-.05.108a.141.141 0 0 1-.098.04l-.315-.01v.01Zm0-2.433c-.079 0-.138-.069-.138-.147v-1.222s.02-.078.05-.108a.124.124 0 0 1 .098-.04l.315.02c.079 0 .138.07.138.148v1.211s-.02.08-.05.109a.126.126 0 0 1-.098.04l-.315-.02v.01Zm0-2.432c-.079 0-.138-.07-.138-.148v-1.221s.02-.08.05-.109a.123.123 0 0 1 .098-.039l.315.02c.079 0 .138.069.138.147v1.222s-.02.078-.05.108a.126.126 0 0 1-.098.04l-.315-.02Zm0-2.433c-.079 0-.138-.069-.138-.148v-1.22s.02-.08.05-.11a.127.127 0 0 1 .098-.039l.315.02c.079 0 .138.069.138.148v1.221s-.02.079-.05.108a.126.126 0 0 1-.098.04l-.315-.02Zm0-2.433c-.079 0-.138-.069-.138-.147V22.71s.02-.08.05-.109a.124.124 0 0 1 .098-.04l.315.02c.079 0 .138.07.138.148v1.212s-.02.078-.05.108a.126.126 0 0 1-.098.04l-.315-.02v.01Zm0-2.432c-.079 0-.138-.069-.138-.148v-1.221s.02-.079.05-.108a.124.124 0 0 1 .098-.04l.315.03c.079 0 .138.069.138.148v1.22s-.02.08-.05.11a.126.126 0 0 1-.098.038l-.315-.02v-.01Zm0-2.433c-.079 0-.138-.069-.138-.147v-1.222s.02-.078.05-.108a.124.124 0 0 1 .098-.04l.315.03c.079 0 .138.07.138.148v1.221s-.02.079-.05.108a.126.126 0 0 1-.098.04l-.315-.03Zm0-2.432c-.079 0-.138-.07-.138-.148v-1.221s.02-.079.05-.108a.124.124 0 0 1 .098-.04l.325.03c.079 0 .138.069.138.147v1.212s-.02.079-.05.108a.124.124 0 0 1-.098.04l-.325-.03v.01Zm0-2.433c-.079 0-.138-.069-.138-.148v-1.22s.02-.08.05-.11c.029-.019.059-.039.098-.039l.325.03c.079 0 .128.069.128.148v1.211s-.02.079-.05.108a.126.126 0 0 1-.098.04l-.325-.03.01.01Z" fill="#231815"/><path d="m34.986 12.951.306.03v1.22l-.306-.029v-1.221Zm0 2.433.306.03v1.22l-.306-.03v-1.22Zm0 2.432.306.03v1.22l-.306-.029v-1.22Zm0 2.433.306.02v1.22l-.306-.02v-1.22Zm0 2.432.306.02v1.221l-.306-.02v-1.22Zm0 2.433.306.02v1.22l-.306-.019v-1.221Zm0 2.432.306.02v1.221l-.306-.02v-1.22Zm0 2.433.306.02v1.22l-.306-.019v-1.22Zm0 2.433h.306v1.23h-.306v-1.23Zm0 2.432h.306v1.231h-.306v-1.23Zm0 2.433h.306v1.23h-.306v-1.23Zm0 2.432h.306v1.221h-.306v-1.22Zm0 2.433h.306v1.221h-.306v-1.221Zm0 2.432h.306v1.222h-.306v-1.221Zm0 2.433h.306v1.221h-.306v-1.221Zm0-34.381a.292.292 0 0 0-.197.079.316.316 0 0 0-.098.216v1.222c0 .147.118.275.266.295l.305.03h.03c.069 0 .147-.03.197-.08a.316.316 0 0 0 .098-.216v-1.221a.306.306 0 0 0-.266-.296l-.305-.029h-.03Zm0 2.433a.293.293 0 0 0-.197.078.316.316 0 0 0-.098.217v1.221c0 .158.118.276.266.296l.305.03h.03c.069 0 .147-.03.197-.08a.316.316 0 0 0 .098-.216v-1.221a.306.306 0 0 0-.266-.296l-.305-.03h-.03Zm0 2.432a.293.293 0 0 0-.197.079.316.316 0 0 0-.098.217v1.22c0 .158.118.286.276.296l.305.03h.02c.069 0 .147-.03.197-.079a.316.316 0 0 0 .098-.217v-1.22a.291.291 0 0 0-.266-.296l-.305-.03h-.03Zm0 2.433a.275.275 0 0 0-.197.079.316.316 0 0 0-.098.216v1.221c0 .158.118.286.276.296l.305.02h.02c.078 0 .147-.03.197-.08a.316.316 0 0 0 .098-.216v-1.22a.293.293 0 0 0-.276-.296l-.305-.02h-.02Zm0 2.432a.275.275 0 0 0-.197.08.316.316 0 0 0-.098.216v1.22c0 .159.118.287.276.296l.305.02h.02c.078 0 .147-.03.197-.079a.316.316 0 0 0 .098-.216V22.67a.293.293 0 0 0-.276-.295l-.305-.02h-.02Zm0 2.433a.275.275 0 0 0-.197.079.316.316 0 0 0-.098.216v1.221c0 .158.118.286.276.296l.305.02h.02c.078 0 .147-.03.206-.08a.306.306 0 0 0 .09-.216v-1.221a.292.292 0 0 0-.277-.295l-.305-.02h-.02Zm0 2.432a.318.318 0 0 0-.206.08.306.306 0 0 0-.09.216v1.221c0 .158.12.286.277.296l.305.02h.02c.078 0 .147-.03.206-.08a.306.306 0 0 0 .09-.216v-1.221a.293.293 0 0 0-.277-.296l-.305-.02h-.02Zm0 2.433a.318.318 0 0 0-.206.079.306.306 0 0 0-.09.216v1.222c0 .157.129.285.287.295l.305.02h.01c.078 0 .147-.03.206-.079a.305.305 0 0 0 .09-.217v-1.22a.293.293 0 0 0-.277-.296l-.305-.02h-.02Zm0 2.433a.317.317 0 0 0-.206.078.305.305 0 0 0-.09.217v1.221c0 .158.129.286.287.296h.305s0 .01.01.01c.078 0 .147-.03.206-.08a.29.29 0 0 0 .09-.216v-1.221a.301.301 0 0 0-.287-.296h-.305s0-.01-.01-.01Zm0 2.432a.318.318 0 0 0-.206.079.29.29 0 0 0-.09.217v1.22c0 .158.129.286.287.296h.305s0 .01.01.01c.078 0 .147-.03.206-.079a.29.29 0 0 0 .09-.216v-1.221a.301.301 0 0 0-.287-.296h-.305s0-.01-.01-.01Zm0 2.433a.318.318 0 0 0-.206.079.29.29 0 0 0-.09.216v1.221c0 .158.129.296.287.296h.305a.32.32 0 0 0 .207-.079.29.29 0 0 0 .088-.217v-1.22a.301.301 0 0 0-.285-.296h-.306s0-.01-.01-.01l.01.01Zm0 2.432a.284.284 0 0 0-.206.089.284.284 0 0 0-.09.207v1.22c0 .157.129.295.287.295h.305c.079 0 .148-.03.207-.088a.283.283 0 0 0 .088-.207v-1.22a.294.294 0 0 0-.285-.296h-.306Zm0 2.433a.283.283 0 0 0-.206.089.284.284 0 0 0-.09.206v1.222c0 .157.129.295.287.295h.305c.079 0 .148-.03.207-.089a.284.284 0 0 0 .088-.206v-1.222a.294.294 0 0 0-.285-.295h-.306Zm0 2.432a.283.283 0 0 0-.206.09.283.283 0 0 0-.09.206v1.221c0 .158.129.296.296.296h.306a.28.28 0 0 0 .206-.09.283.283 0 0 0 .09-.206v-1.221a.296.296 0 0 0-.296-.296h-.306Zm0 2.433a.268.268 0 0 0-.206.089.283.283 0 0 0-.09.206V48.2a.29.29 0 0 0 .296.295h.306a.27.27 0 0 0 .206-.088.283.283 0 0 0 .09-.207v-1.221a.296.296 0 0 0-.296-.296h-.306Zm0 3.555s-.079-.02-.108-.04a.148.148 0 0 1-.04-.108v-.62c0-.079.07-.148.148-.148h.305c.08 0 .148.07.148.148v.62a.151.151 0 0 1-.148.148h-.305Z" fill="#231815"/><path d="M34.986 49.469h.306v.62h-.306v-.62Zm0-.296a.268.268 0 0 0-.206.089.283.283 0 0 0-.09.207v.62c0 .079.03.158.09.207a.28.28 0 0 0 .206.089h.306a.29.29 0 0 0 .295-.296v-.62a.29.29 0 0 0-.295-.296h-.306ZM39.23 18.87c-.413 0-.846 0-1.27-.02-.078 0-.138-.059-.148-.138l-.02-.246s.01-.079.04-.118a.16.16 0 0 1 .109-.05c.433.01.866.02 1.29.02h.138a.15.15 0 0 1 .147.128l.03.246s0 .09-.04.119a.159.159 0 0 1-.108.049h-.177l.01.01Zm1.606-.03c-.069 0-.138-.049-.148-.118l-.04-.246s0-.089.03-.118a.24.24 0 0 1 .109-.06c.473-.02.935-.039 1.398-.068.07 0 .128.049.148.118l.05.246s0 .089-.03.118c-.03.03-.07.06-.109.06-.462.029-.935.049-1.418.068h.01Zm-4.353-.049c-.492-.03-.985-.06-1.477-.099-.08 0-.138-.069-.138-.147v-.247s.02-.078.05-.108a.123.123 0 0 1 .098-.04h.01c.492.04.984.07 1.457.1a.14.14 0 0 1 .138.137v.246s0 .08-.03.109a.148.148 0 0 1-.108.04v.009Zm7.15-.138a.16.16 0 0 1-.148-.108l-.059-.247s0-.088.02-.118c.02-.039.059-.059.108-.059.453-.049.916-.098 1.35-.157h.02c.058 0 .117.04.137.108l.079.246s0 .089-.02.118c-.02.04-.059.06-.108.07-.453.058-.906.117-1.379.157h-.02l.02-.01Zm-10.124-.098a41.684 41.684 0 0 1-1.507-.178.143.143 0 0 1-.128-.157l.02-.246s.02-.08.049-.109c.03-.02.059-.03.088-.03h.02c.493.07.995.129 1.487.178.08 0 .138.079.128.148v.246s-.03.079-.059.108c-.03.02-.059.04-.098.04h-.02.02Zm12.842-.266a.148.148 0 0 1-.138-.099l-.088-.236s-.01-.089.01-.128c.02-.04.059-.06.098-.07 0 0 .128-.019.138-.019a.15.15 0 0 1 .138.099l.088.236s.01.089-.01.128c-.02.04-.059.069-.098.069 0 0-.138.02-.148.02h.01Zm-15.856-.119a80.792 80.792 0 0 1-1.517-.256c-.078-.01-.128-.088-.118-.167l.04-.246s.03-.079.059-.099c.03-.02.059-.03.088-.03h.03c.502.09 1.004.178 1.507.247.079.01.128.079.128.158l-.03.246s-.03.079-.059.098a.158.158 0 0 1-.088.03h-.02l-.02.02Zm-3.053-.541c-.512-.109-1.034-.217-1.536-.335-.04 0-.07-.03-.089-.069a.136.136 0 0 1-.02-.108l.06-.247a.157.157 0 0 1 .147-.118h.03c.502.119 1.004.227 1.516.325.08.02.128.089.119.168l-.05.246s-.03.069-.059.098a.11.11 0 0 1-.078.03h-.03l-.01.01Zm-3.073-.71a33.094 33.094 0 0 1-1.546-.433.136.136 0 0 1-.088-.078.126.126 0 0 1 0-.119l.088-.236a.148.148 0 0 1 .138-.098h.05c.019 0 .56.177 1.506.423.04 0 .069.04.089.069.02.03.03.079.01.118l-.07.246a.145.145 0 0 1-.137.109h-.04Z" fill="#231815"/><path d="M22.97 16.112s.552.178 1.518.424l-.07.246c-.974-.256-1.536-.424-1.536-.433l.089-.237Zm3.044.798c.502.118 1.015.226 1.517.325l-.05.246a69.17 69.17 0 0 1-1.526-.335l.06-.246m3.032.62c.503.09 1.005.178 1.507.257l-.03.246a80.792 80.792 0 0 1-1.516-.256l.04-.247Zm17.344.365.088.236-.118.02-.089-.236.119-.02Zm-14.34.098c.493.07.995.128 1.487.178v.246a39.245 39.245 0 0 1-1.506-.177l.02-.247Zm12.892.119.079.246c-.444.059-.906.118-1.37.157l-.068-.246c.463-.05.916-.098 1.359-.157Zm-9.918.187c.493.04.985.069 1.468.098v.246c-.473-.03-.975-.059-1.468-.098v-.246Zm7.18.078.05.247c-.464.03-.936.049-1.41.069l-.038-.247c.472-.02.945-.039 1.398-.069Zm-4.264.08c.443.01.876.019 1.31.019h.128l.029.246h-.167c-.424 0-.847 0-1.28-.02l-.02-.246Zm-14.97-2.65a.287.287 0 0 0-.276.187l-.088.237a.284.284 0 0 0 .01.236.292.292 0 0 0 .177.148c.059.02.62.187 1.556.433h.078a.304.304 0 0 0 .286-.217l.069-.246a.302.302 0 0 0-.03-.226.305.305 0 0 0-.177-.138 37.093 37.093 0 0 1-1.507-.424c-.03 0-.059-.01-.088-.01l-.01.02Zm3.043.798a.285.285 0 0 0-.285.226l-.06.246c-.02.08 0 .158.04.227s.108.118.187.128c.502.118 1.024.227 1.536.335h.06c.058 0 .117-.02.167-.05a.284.284 0 0 0 .128-.187l.05-.246a.293.293 0 0 0-.227-.344c-.503-.099-1.015-.217-1.517-.325h-.07l-.009-.01Zm3.033.62a.314.314 0 0 0-.177.06.28.28 0 0 0-.118.196l-.04.247a.297.297 0 0 0 .237.334c.502.089 1.014.178 1.526.256h.05c.069 0 .128-.02.177-.059a.315.315 0 0 0 .118-.206l.03-.247a.294.294 0 0 0-.247-.325c-.502-.079-1.004-.157-1.497-.246h-.049l-.01-.01Zm17.344.365h-.05l-.118.02a.34.34 0 0 0-.207.137.308.308 0 0 0-.02.246l.09.237a.295.295 0 0 0 .275.197h.05l.117-.02a.317.317 0 0 0 .207-.148.309.309 0 0 0 .02-.246l-.089-.236a.296.296 0 0 0-.275-.197v.01Zm-14.34.098a.26.26 0 0 0-.187.069.328.328 0 0 0-.108.207l-.02.246a.294.294 0 0 0 .256.315 36.8 36.8 0 0 0 1.507.177h.03c.068 0 .137-.03.196-.068a.282.282 0 0 0 .099-.217v-.246a.285.285 0 0 0-.256-.306 39.771 39.771 0 0 1-1.487-.177h-.04.01Zm12.892.118h-.04c-.443.06-.896.109-1.349.158-.088 0-.167.059-.216.128a.27.27 0 0 0-.04.246l.07.246a.286.286 0 0 0 .285.217h.03c.462-.05.925-.099 1.378-.158a.259.259 0 0 0 .207-.137.273.273 0 0 0 .03-.247l-.08-.246a.295.295 0 0 0-.285-.207h.01Zm-9.918.187a.275.275 0 0 0-.197.08.316.316 0 0 0-.098.216v.246c0 .158.118.276.276.296.492.039.994.069 1.487.098h.02c.078 0 .157-.03.206-.089a.312.312 0 0 0 .089-.226v-.246a.325.325 0 0 0-.295-.286c-.483-.03-.975-.06-1.458-.098h-.02l-.01.01Zm7.18.08h-.02c-.453.029-.925.048-1.388.068a.261.261 0 0 0-.217.108.29.29 0 0 0-.06.237l.04.246c.02.138.148.246.296.246h.01c.482-.02.955-.04 1.418-.069a.27.27 0 0 0 .217-.118.293.293 0 0 0 .049-.236l-.05-.246a.294.294 0 0 0-.285-.237h-.01Zm-4.264.078a.306.306 0 0 0-.217.089.281.281 0 0 0-.079.226l.02.246a.29.29 0 0 0 .285.266c.434.01.867.02 1.29.02h.168c.089 0 .167-.04.217-.098a.323.323 0 0 0 .069-.237l-.03-.246a.297.297 0 0 0-.295-.256h-.128c-.424 0-.857 0-1.3-.02v.01ZM35.34 40.812c-.325 0-.66-.02-.984-.04a.145.145 0 0 1-.138-.157v-.246s.03-.079.059-.099c.03-.02.059-.04.098-.04.483.03.965.04 1.458.05.079 0 .148.07.148.148v.246s0 .079-.04.108a.148.148 0 0 1-.108.04h-.512l.02-.01Zm1.98-.02a.15.15 0 0 1-.148-.128l-.03-.246s0-.079.04-.108a.16.16 0 0 1 .108-.05c.473-.02.956-.049 1.428-.098h.01c.07 0 .138.05.148.118l.04.246s0 .08-.03.119c-.03.039-.06.049-.108.059a36.2 36.2 0 0 1-1.458.098v-.01Zm-4.471-.147a26.332 26.332 0 0 1-1.507-.197c-.04 0-.079-.03-.098-.06a.161.161 0 0 1-.02-.118l.05-.246c.009-.069.078-.118.147-.118h.02c.482.079.984.138 1.467.197.04 0 .079.02.098.059.02.03.04.069.03.108l-.03.246c0 .08-.069.129-.147.129h-.02.01Zm7.357-.119a.16.16 0 0 1-.148-.108l-.06-.246s0-.079.02-.118a.11.11 0 0 1 .099-.06 31.08 31.08 0 0 0 1.379-.236h.03c.058 0 .117.04.137.099l.079.236s0 .089-.01.118c-.01.03-.059.06-.098.07-.463.088-.936.167-1.409.236h-.02v.01Zm-10.361-.354a36.815 36.815 0 0 1-1.497-.355c-.04-.01-.079-.04-.089-.078a.126.126 0 0 1 0-.119l.09-.246a.148.148 0 0 1 .137-.098h.04c.472.128.965.246 1.457.344.04 0 .079.03.098.07.02.039.03.078.02.117l-.069.247a.145.145 0 0 1-.138.108h-.03l-.019.01Zm13.128-.187a.148.148 0 0 1-.138-.099l-.088-.236s-.01-.089 0-.118a.156.156 0 0 1 .098-.08 26.83 26.83 0 0 0 1.31-.354h.04c.058 0 .108.03.137.089l.108.227s.02.078 0 .118a.14.14 0 0 1-.088.079 34.01 34.01 0 0 1-1.34.364h-.039v.01Zm-16.102-.61c-.946-.316-1.448-.543-1.458-.552a.136.136 0 0 1-.079-.099c-.01-.04 0-.088.02-.118l.158-.227s.078-.059.118-.059c.02 0 .04 0 .059.01 0 0 .492.227 1.389.522a.14.14 0 0 1 .088.079c.02.04.02.079 0 .118l-.118.236a.154.154 0 0 1-.128.08h-.05v.01Z" fill="#231815"/><path d="M25.64 38.478s.502.227 1.398.532l-.118.236a15.77 15.77 0 0 1-1.438-.541l.158-.227Zm18.564.768.109.227c-.444.128-.887.256-1.33.364l-.088-.236a28.77 28.77 0 0 0 1.32-.355m-15.719.188c.473.128.975.246 1.468.344l-.07.246a32.863 32.863 0 0 1-1.487-.354l.09-.246m13.048.463.08.236a34.35 34.35 0 0 1-1.4.236l-.059-.246c.463-.069.926-.148 1.39-.236m-10.105.157c.492.08.984.148 1.477.197l-.03.246a24.897 24.897 0 0 1-1.497-.196l.05-.247Zm7.307.247.04.246c-.483.049-.966.078-1.458.098l-.03-.246c.483-.02.966-.05 1.438-.098m-4.353.069c.483.029.975.049 1.468.049v.246h-.502c-.325 0-.66-.02-.975-.04v-.246m-8.726-2.196a.308.308 0 0 0-.247.128l-.157.227a.271.271 0 0 0-.04.246c.03.088.08.157.158.187.02 0 .532.246 1.468.551.03.01.059.02.088.02a.29.29 0 0 0 .266-.167l.118-.237a.271.271 0 0 0 0-.246.297.297 0 0 0-.177-.167c-.877-.296-1.369-.512-1.369-.512a.262.262 0 0 0-.118-.03h.01Zm18.564.768s-.059 0-.088.01c-.434.128-.867.246-1.31.355a.312.312 0 0 0-.188.147.307.307 0 0 0-.01.247l.09.236a.295.295 0 0 0 .275.187h.069a30.1 30.1 0 0 0 1.35-.364.296.296 0 0 0 .186-.158.271.271 0 0 0 0-.246l-.108-.227a.29.29 0 0 0-.266-.167v-.02Zm-15.718.187a.287.287 0 0 0-.276.188l-.088.246a.282.282 0 0 0 .01.236.28.28 0 0 0 .186.148c.493.128.995.246 1.497.354h.06a.305.305 0 0 0 .285-.216l.07-.246a.327.327 0 0 0-.03-.237.293.293 0 0 0-.197-.138 22.071 22.071 0 0 1-1.448-.345c-.03 0-.05-.01-.079-.01l.01.02Zm13.05.463h-.06c-.453.089-.916.168-1.369.227a.312.312 0 0 0-.207.128.288.288 0 0 0-.04.236l.06.246c.03.138.148.227.286.227h.039a34.64 34.64 0 0 0 1.418-.237.318.318 0 0 0 .197-.137.328.328 0 0 0 .03-.237l-.08-.236a.295.295 0 0 0-.285-.207l.01-.01Zm-10.105.158a.294.294 0 0 0-.286.236l-.05.246a.27.27 0 0 0 .05.227c.05.069.118.108.197.128a25.46 25.46 0 0 0 1.517.197h.03a.297.297 0 0 0 .295-.256l.03-.246a.282.282 0 0 0-.06-.217.304.304 0 0 0-.197-.108c-.482-.05-.975-.118-1.467-.197h-.05l-.01-.01Zm7.307.246h-.03c-.472.04-.945.079-1.418.099a.277.277 0 0 0-.206.098.3.3 0 0 0-.07.226l.03.247c.02.148.148.266.296.266h.01c.492-.02.984-.06 1.467-.099.079 0 .157-.05.207-.118a.318.318 0 0 0 .059-.227l-.04-.246a.306.306 0 0 0-.295-.246h-.01Zm-4.353.069a.292.292 0 0 0-.197.079.277.277 0 0 0-.098.207v.246a.275.275 0 0 0 .266.305c.325.02.66.03.985.04h.512c.078 0 .157-.03.206-.09a.306.306 0 0 0 .089-.216v-.246a.301.301 0 0 0-.295-.286c-.483 0-.966-.02-1.448-.049h-.02v.01Z" fill="#231815"/></g><defs><clipPath id="clip0_1119_33051"><path fill="#fff" transform="translate(.763)" d="M0 0h53.763v65H0z"/></clipPath></defs></svg>