<svg fill="none" xmlns="http://www.w3.org/2000/svg" viewBox="0 0 55 65"><g clip-path="url(#clip0_1119_33208)"><path d="M49.05 61.327 21.71 59.8c-3.21-.177-5.86-3.309-5.919-6.992l-.768-45.973c-.05-3.132 1.783-5.643 4.294-6.224L5.549 3.79c-2.512.582-4.343 3.093-4.294 6.225l.768 45.973c.06 3.683 2.708 6.815 5.919 6.992l27.34 1.527c.482.03.955-.02 1.398-.118l13.758-3.172a5.04 5.04 0 0 1-1.398.119l.01-.01Z" fill="#368AA5" stroke="#231815" stroke-miterlimit="10"/><path d="M47.346 2.019c3.21.177 5.86 3.309 5.919 6.992l.768 45.973c.06 3.683-2.492 6.52-5.702 6.342L20.99 59.8c-3.21-.177-5.86-3.31-5.919-6.993l-.768-45.972C14.245 3.15 16.796.315 20.006.492l27.34 1.527Z" fill="#fff" stroke="#231815" stroke-linecap="round" stroke-linejoin="round"/><path d="m48.311 61.376-27.34-1.527c-3.21-.177-5.85-3.309-5.908-6.992l-.67-45.993c-.02-1.575.433-2.993 1.202-4.087.778-1.093 1.87-1.87 3.141-2.147l-6.884 1.527C9.312 2.718 7.46 5.249 7.5 8.39l.67 45.992c.05 3.684 2.698 6.816 5.909 6.993l27.34 1.526c.472.03.925-.01 1.358-.108l6.884-1.526a4.789 4.789 0 0 1-1.359.108h.01Z" fill="#fff" stroke="#231815" stroke-linecap="round" stroke-linejoin="round"/><path d="M47.455 2.039c3.21.177 5.85 3.309 5.909 6.992l.67 45.992c.049 3.684-2.502 6.52-5.713 6.343l-27.34-1.527c-3.21-.177-5.85-3.309-5.908-6.992l-.67-45.992c-.05-3.684 2.502-6.53 5.712-6.343l27.34 1.527Z" fill="#fff" stroke="#231815" stroke-linecap="round" stroke-linejoin="round"/><path d="m37.133 25.064-3.831-1.368a.49.49 0 0 0-.59.226c-.149.296-.385.68-.631.827-.414.256-2.709-.906-3.23-.512-.523.394.108 1.093-.158 1.428-.266.335-2.295-.275-2.787.335-.493.61.384 1.822.197 2.226-.178.404-1.783.483-1.881 1.044-.109.561.128 1.014 1.763 3.28.502.748-.818.64-.838 1.191-.02.552 4.137 5.417 9.632 6.323 5.496.906 8.667-1.566 10.115-4.383 1.438-2.816.256-6.647-4.954-9.651a169.085 169.085 0 0 0-1.861-4.018.131.131 0 0 0-.247.029l-.709 3.023h.01Z" fill="#E2CCAF"/><path d="M40.54 27.389c-.187-.443-.393-.906-.59-1.36a168.774 168.774 0 0 0-1.862-4.017c-.049-.109-.216-.099-.246.029l-.709 3.023-.483 2.059" stroke="#231815" stroke-linecap="round" stroke-linejoin="round"/><path d="M39.95 26.03c5.21 2.994 6.391 6.834 4.953 9.651-1.438 2.817-4.609 5.299-10.114 4.383-5.505-.916-9.652-5.772-9.632-6.323.02-.551 1.34-.443.837-1.192-1.644-2.265-1.87-2.718-1.763-3.28.109-.56 1.704-.64 1.881-1.043.178-.404-.689-1.615-.196-2.226.492-.61 2.52 0 2.787-.335.265-.335-.365-1.034.157-1.428.522-.394 2.807.768 3.23.512.247-.147.473-.531.63-.827a.469.469 0 0 1 .592-.226l3.83 1.368" stroke="#231815" stroke-linecap="round" stroke-linejoin="round"/><path d="M36.522 32.589a1.034 1.034 0 1 1 0-2.068 1.034 1.034 0 0 1 0 2.068Z" fill="#231815"/><path d="M36.523 30.777a.79.79 0 0 1 .787.787.79.79 0 0 1-.788.788.79.79 0 0 1-.787-.787.79.79 0 0 1 .788-.788Zm0-.493c-.71 0-1.28.571-1.28 1.28 0 .71.57 1.28 1.28 1.28.709 0 1.28-.57 1.28-1.28 0-.709-.571-1.28-1.28-1.28Zm5.278 2.305a1.034 1.034 0 1 1 0-2.068 1.034 1.034 0 0 1 0 2.068Z" fill="#231815"/><path d="M41.801 30.777a.79.79 0 0 1 .788.787.79.79 0 0 1-.788.788.79.79 0 0 1-.788-.787.79.79 0 0 1 .788-.788Zm0-.493c-.709 0-1.28.571-1.28 1.28 0 .71.571 1.28 1.28 1.28.71 0 1.28-.57 1.28-1.28 0-.709-.57-1.28-1.28-1.28Z" fill="#231815"/><path d="M21.031 41.689c-.069 0-.128 0-.197-.02a.868.868 0 0 1-.65-1.044c.433-1.851 2.364-2.846 4.058-2.856 1.457 0 2.806.532 4.097 1.054l.266.108c1.171.473 2.422.926 3.604.739.64-.099 1.27-.394 1.94-.71.72-.334 1.468-.679 2.315-.827 1.625-.285 3.17.207 4.628.74l.207.078c1.241.463 2.413.896 3.585.827 1.024-.059 2.186-.699 2.354-1.664a.864.864 0 0 1 1.004-.71.864.864 0 0 1 .71 1.005c-.335 1.92-2.246 3.024-3.97 3.112-1.536.089-2.934-.433-4.284-.925l-.206-.08c-1.231-.452-2.522-.876-3.723-.659-.62.108-1.231.394-1.881.7-.749.344-1.527.708-2.403.846-1.625.256-3.191-.305-4.53-.847l-.266-.108c-1.182-.483-2.305-.916-3.418-.926-.995.01-2.166.581-2.373 1.507a.872.872 0 0 1-.847.68l-.02-.02Z" fill="#368AA5" stroke="#231815" stroke-miterlimit="10"/><path d="M21.031 45.175c-.069 0-.128 0-.197-.02a.868.868 0 0 1-.65-1.044c.433-1.851 2.364-2.846 4.058-2.856 1.457 0 2.806.532 4.097 1.054l.266.109c1.171.472 2.422.925 3.604.738.64-.098 1.27-.394 1.94-.709.72-.335 1.468-.68 2.315-.827 1.625-.286 3.17.207 4.628.739l.207.078c1.241.463 2.413.897 3.585.828 1.024-.06 2.186-.7 2.354-1.665a.863.863 0 0 1 1.004-.709.863.863 0 0 1 .71 1.005c-.335 1.92-2.246 3.023-3.97 3.112-1.536.078-2.934-.434-4.284-.926l-.206-.079c-1.231-.453-2.522-.876-3.723-.66-.62.109-1.231.394-1.881.7-.749.344-1.527.709-2.403.846-1.625.257-3.191-.305-4.53-.846l-.266-.109c-1.182-.482-2.305-.925-3.418-.925-.995.01-2.166.58-2.373 1.506a.872.872 0 0 1-.847.68l-.02-.02Z" fill="#368AA5" stroke="#231815" stroke-miterlimit="10"/><path d="M21.031 48.671c-.069 0-.128 0-.197-.02a.868.868 0 0 1-.65-1.043c.433-1.852 2.364-2.847 4.058-2.856 1.457-.01 2.806.531 4.097 1.053l.266.109c1.171.472 2.422.925 3.604.738.64-.098 1.27-.394 1.94-.709.72-.335 1.468-.68 2.315-.827 1.625-.286 3.17.207 4.628.739l.207.078c1.241.463 2.413.897 3.585.828 1.024-.06 2.186-.7 2.354-1.665a.864.864 0 0 1 1.004-.709.864.864 0 0 1 .71 1.005c-.335 1.92-2.246 3.023-3.97 3.112-1.536.089-2.934-.433-4.284-.926l-.206-.079c-1.231-.453-2.522-.876-3.723-.66-.62.109-1.231.394-1.881.7-.749.344-1.527.709-2.403.847-1.625.256-3.191-.306-4.53-.847l-.266-.109c-1.182-.482-2.305-.896-3.418-.925-.995.01-2.166.58-2.373 1.506a.872.872 0 0 1-.847.68l-.02-.02Z" fill="#368AA5" stroke="#231815" stroke-miterlimit="10"/><path d="M25.079 16.674c-.05 0-.099 0-.148-.02l.148-.473-.207.453c-1.113-.354-2.265-.729-3.368-1.23l-.158-.07c-.847-.374-2.6-1.152-2.137-2.669.236-.778 1.113-1.182 1.851-1.182.64.01 1.241.237 1.891.69a6.515 6.515 0 0 1 1.704 1.743 6.263 6.263 0 0 1 .788 1.635c.207.64.148.768.04.916a.51.51 0 0 1-.395.207h-.01Z" fill="#E86546"/><path d="M21.05 11.976h.03c.591.01 1.123.285 1.576.6.62.434 1.162.985 1.585 1.615.207.316.384.64.532.995.07.168.138.345.197.522.01.04.128.473.118.473-1.142-.374-2.275-.729-3.368-1.231-.768-.345-2.393-.975-2.038-2.147.157-.512.788-.827 1.378-.827m0-.985c-.915 0-2.009.522-2.314 1.526-.59 1.93 1.517 2.856 2.413 3.26l.157.069c1.133.512 2.295.886 3.418 1.25l.059.02c.098.03.197.05.305.05a1 1 0 0 0 .798-.404c.295-.404.197-.818.03-1.36a7.213 7.213 0 0 0-.847-1.763 7.342 7.342 0 0 0-1.832-1.87c-.73-.512-1.428-.768-2.128-.778h-.059Z" fill="#231815"/><path d="M24.714 23.341a.506.506 0 0 1-.295-.099 7.336 7.336 0 0 0-.542-.167 1.187 1.187 0 0 1-.246-.079 17.67 17.67 0 0 1-.985-.403c-.571-.256-1.704-.759-1.389-1.773.158-.532.74-.808 1.232-.808.403 0 .778.148 1.171.424a3.823 3.823 0 0 1 1.547 2.294.496.496 0 0 1-.375.591c-.039 0-.068.01-.108.01l-.01.01Z" fill="#E86546"/><path d="M22.478 20.505h.02c.325 0 .62.157.867.335a3.292 3.292 0 0 1 1.349 2.009c-.02-.07-.817-.266-.916-.306-.325-.118-.64-.246-.955-.393-.424-.188-1.32-.532-1.123-1.182.089-.276.433-.453.758-.453m0-.985c-.788 0-1.487.473-1.703 1.152-.296.955.236 1.733 1.566 2.334l.088.04c.335.147.67.295 1.015.413.039.01.147.05.285.089.108.03.335.088.453.138a.973.973 0 0 0 .522.147c.07 0 .148 0 .217-.03a.977.977 0 0 0 .739-1.18 4.306 4.306 0 0 0-1.744-2.591c-.472-.335-.935-.502-1.418-.512h-.03.01Z" fill="#231815"/><path d="M33.125 18.476a.502.502 0 0 1-.305-.109l.305-.384-.345.355c-.916-.729-1.861-1.478-2.718-2.344l-.128-.128c-.66-.65-2.029-2-1.064-3.25.286-.374.788-.591 1.36-.591.275 0 .56.05.817.157.561.227 1.044.65 1.487 1.3.473.69.798 1.438.985 2.226.089.394.148.798.167 1.212v.6c-.03.453-.059.956-.551.956h-.01Z" fill="#E86546"/><path d="M30.23 12.527c.216 0 .433.04.64.118.551.217.955.66 1.26 1.123.424.63.739 1.33.916 2.068a5.3 5.3 0 0 1 .148 1.113v.562c0 .039-.05.482-.06.482-.945-.748-1.87-1.487-2.717-2.334-.591-.59-1.901-1.753-1.153-2.718.207-.276.581-.404.966-.404m0-.985c-.73 0-1.37.286-1.754.788-1.23 1.596.414 3.21 1.113 3.9l.128.118c.877.877 1.832 1.635 2.758 2.374l.05.04c.167.137.383.206.6.216h.02c.965 0 1.024-1.034 1.043-1.418a7.24 7.24 0 0 0-.177-1.95 7.115 7.115 0 0 0-1.053-2.394c-.503-.738-1.064-1.22-1.714-1.477a2.663 2.663 0 0 0-.995-.187l-.02-.01Z" fill="#231815"/></g><defs><clipPath id="clip0_1119_33208"><path fill="#fff" transform="translate(.763)" d="M0 0h53.763v65H0z"/></clipPath></defs></svg>