<svg fill="none" xmlns="http://www.w3.org/2000/svg" viewBox="0 0 55 65"><g clip-path="url(#clip0_1119_33229)"><path d="M48.813 61.327 21.473 59.8c-3.21-.177-5.86-3.309-5.919-6.992l-.768-45.973C14.737 3.703 16.57 1.192 19.08.611L5.312 3.79c-2.511.582-4.343 3.093-4.294 6.225l.768 45.973c.06 3.683 2.709 6.815 5.92 6.992l27.339 1.527c.482.03.955-.02 1.398-.118l13.758-3.172a5.04 5.04 0 0 1-1.398.119l.01-.01Z" fill="#368AA5" stroke="#231815" stroke-miterlimit="10"/><path d="M47.11 2.019c3.21.177 5.859 3.309 5.918 6.992l.768 45.973c.06 3.683-2.492 6.52-5.702 6.342L20.754 59.8c-3.21-.177-5.86-3.31-5.918-6.993l-.769-45.972C14.008 3.15 16.56.315 19.77.492L47.11 2.02Z" fill="#fff" stroke="#231815" stroke-linecap="round" stroke-linejoin="round"/><path d="m48.075 61.376-27.34-1.527c-3.21-.177-5.85-3.309-5.909-6.992l-.67-45.993c-.02-1.575.434-2.993 1.202-4.087C16.136 1.684 17.229.907 18.5.63l-6.885 1.527c-2.54.561-4.392 3.092-4.353 6.234l.67 45.992c.05 3.684 2.698 6.816 5.91 6.993l27.339 1.526c.472.03.925-.01 1.359-.108l6.884-1.526a4.789 4.789 0 0 1-1.36.108h.01Z" fill="#fff" stroke="#231815" stroke-linecap="round" stroke-linejoin="round"/><path d="M47.218 2.039c3.21.177 5.85 3.309 5.909 6.992l.67 45.992c.049 3.684-2.502 6.52-5.713 6.343l-27.339-1.527c-3.21-.177-5.85-3.309-5.91-6.992l-.669-45.992C14.117 3.17 16.668.325 19.878.512l27.34 1.527Z" fill="#fff" stroke="#231815" stroke-linecap="round" stroke-linejoin="round"/><path d="M39.487 20.426c.65-1.871.049-4.146-3.063-4.176-.06-1.782-3.083-3.358-4.57-2.62v.05c-.837-1.753-5.003-1.832-6.096-.04-1.497-.738-4.51.847-4.56 2.63-3.112.04-3.703 2.314-3.043 4.185 0 0-.453.414-.492.463a2.57 2.57 0 0 0-.385.63 3.026 3.026 0 0 0-.265 1.38c.02.443.127.896.374 1.27.246.374.65.926 1.122.965.237.02.483-.03.72-.04.364-.02.64.188.984.188h2.403c1.812 0 3.634-.01 5.447-.01h5.85c1.21-.01 2.422-.06 3.634-.02.325.01.551-.02.837-.177.236-.128.462-.286.728-.305.286-.02.572.098.798-.128.128-.119.266-.355.365-.512.236-.375.354-.828.374-1.271a3.205 3.205 0 0 0-.266-1.389 2.877 2.877 0 0 0-.364-.6c-.04-.05-.513-.493-.513-.493l-.02.02Z" fill="#E2CCAF" stroke="#231815" stroke-linecap="round" stroke-linejoin="round"/><path d="M26.496 18.18a14.986 14.986 0 0 1 2.019-.137c4.737 0 8.214 1.605 9.73 7.16" fill="#E2CCAF"/><path d="M26.496 18.18a14.986 14.986 0 0 1 2.019-.137c4.737 0 8.214 1.605 9.73 7.16" stroke="#231815" stroke-linecap="round" stroke-linejoin="round"/><path d="M19.376 24.907c.414-2.098 1.536-3.752 3.122-4.895l-3.122 4.895Z" fill="#E2CCAF"/><path d="M19.376 24.907c.414-2.098 1.536-3.752 3.122-4.895" stroke="#231815" stroke-linecap="round" stroke-linejoin="round"/><path d="M18.627 20.662a4 4 0 0 1 1.478.896l-1.478-.896Z" fill="#E2CCAF"/><path d="M18.627 20.662a4 4 0 0 1 1.478.896" stroke="#231815" stroke-linecap="round" stroke-linejoin="round"/><path d="M21.621 16.624a3.48 3.48 0 0 1 1.497 1.871l-1.497-1.871Z" fill="#E2CCAF"/><path d="M21.621 16.624a3.48 3.48 0 0 1 1.497 1.871" stroke="#231815" stroke-linecap="round" stroke-linejoin="round"/><path d="M26.093 14.448c.413.827.61 1.723.6 2.62l-.6-2.62Z" fill="#E2CCAF"/><path d="M26.093 14.448c.413.827.61 1.723.6 2.62" stroke="#231815" stroke-linecap="round" stroke-linejoin="round"/><path d="M31.637 14.743a5.053 5.053 0 0 0-.305 2.226l.305-2.226Z" fill="#E2CCAF"/><path d="M31.637 14.743a5.053 5.053 0 0 0-.305 2.226" stroke="#231815" stroke-linecap="round" stroke-linejoin="round"/><path d="M35.212 18.417a12.54 12.54 0 0 1 1.162-1.35l-1.162 1.35Z" fill="#E2CCAF"/><path d="M35.212 18.417a12.54 12.54 0 0 1 1.162-1.35" stroke="#231815" stroke-linecap="round" stroke-linejoin="round"/><path d="M37.3 21.844a6.757 6.757 0 0 1 1.714-1.211L37.3 21.844Z" fill="#E2CCAF"/><path d="M37.3 21.844a6.757 6.757 0 0 1 1.714-1.211" stroke="#231815" stroke-linecap="round" stroke-linejoin="round"/><path d="M44.48 31.761c.65-1.87.05-4.146-3.063-4.175-.06-1.783-3.083-3.359-4.57-2.62v.05c-.837-1.754-5.003-1.833-6.096-.04-1.497-.739-4.51.847-4.56 2.63-3.112.039-3.703 2.314-3.043 4.185 0 0-.453.414-.492.463a2.572 2.572 0 0 0-.384.63 3.027 3.027 0 0 0-.266 1.379c.02.443.128.896.374 1.27.246.375.65.926 1.123.965.236.02.482-.03.718-.039.365-.02.64.187.985.187h2.403c1.813 0 3.634-.01 5.447-.01h5.85c1.211-.01 2.422-.059 3.634-.02.325.01.551-.019.837-.177.236-.128.463-.285.729-.305.285-.02.57.099.797-.128.128-.118.266-.355.365-.512a2.62 2.62 0 0 0 .374-1.27 3.205 3.205 0 0 0-.266-1.39 2.88 2.88 0 0 0-.364-.6 20.07 20.07 0 0 0-.512-.492l-.02.02Z" fill="#fff" stroke="#231815" stroke-linecap="round" stroke-linejoin="round"/><path d="M31.5 29.526a14.987 14.987 0 0 1 2.019-.138c4.737 0 8.213 1.605 9.73 7.16" fill="#fff"/><path d="M31.5 29.526a14.987 14.987 0 0 1 2.019-.138c4.737 0 8.213 1.605 9.73 7.16" stroke="#231815" stroke-linecap="round" stroke-linejoin="round"/><path d="M24.379 36.252c.413-2.098 1.536-3.752 3.122-4.895l-3.122 4.895Z" fill="#fff"/><path d="M24.379 36.252c.413-2.098 1.536-3.752 3.122-4.895" stroke="#231815" stroke-linecap="round" stroke-linejoin="round"/><path d="M23.62 32.008a4.002 4.002 0 0 1 1.478.896l-1.477-.896Z" fill="#fff"/><path d="M23.62 32.008a4.002 4.002 0 0 1 1.478.896" stroke="#231815" stroke-linecap="round" stroke-linejoin="round"/><path d="M26.625 27.97a3.48 3.48 0 0 1 1.497 1.87l-1.497-1.87Z" fill="#fff"/><path d="M26.625 27.97a3.48 3.48 0 0 1 1.497 1.87" stroke="#231815" stroke-linecap="round" stroke-linejoin="round"/><path d="M31.096 25.793a5.71 5.71 0 0 1 .6 2.62l-.6-2.62Z" fill="#fff"/><path d="M31.096 25.793a5.71 5.71 0 0 1 .6 2.62" stroke="#231815" stroke-linecap="round" stroke-linejoin="round"/><path d="M36.64 26.089a5.054 5.054 0 0 0-.305 2.226l.306-2.226Z" fill="#fff"/><path d="M36.64 26.089a5.054 5.054 0 0 0-.305 2.226" stroke="#231815" stroke-linecap="round" stroke-linejoin="round"/><path d="M40.215 29.762a12.77 12.77 0 0 1 1.162-1.349l-1.162 1.35Z" fill="#fff"/><path d="M40.215 29.762a12.77 12.77 0 0 1 1.162-1.349" stroke="#231815" stroke-linecap="round" stroke-linejoin="round"/><path d="M42.303 33.19a6.757 6.757 0 0 1 1.714-1.212l-1.714 1.211Z" fill="#fff"/><path d="M42.303 33.19a6.757 6.757 0 0 1 1.714-1.212" stroke="#231815" stroke-linecap="round" stroke-linejoin="round"/><path d="M49.483 43.107c.65-1.871.049-4.146-3.063-4.176-.06-1.782-3.083-3.358-4.57-2.62v.05c-.837-1.753-5.003-1.832-6.096-.04-1.497-.738-4.51.847-4.56 2.63-3.112.04-3.703 2.314-3.043 4.186 0 0-.453.413-.492.462a2.572 2.572 0 0 0-.384.63 3.025 3.025 0 0 0-.266 1.38c.02.443.128.896.374 1.27s.65.926 1.123.965c.236.02.482-.03.718-.04.365-.019.64.188.985.188h2.403c1.813 0 3.634-.01 5.447-.01 1.95 0 3.9 0 5.85-.01 1.21 0 2.422-.049 3.634 0 .325.01.551-.02.837-.177.236-.128.463-.286.728-.305.286-.02.572.098.798-.128.128-.119.266-.355.365-.513a2.62 2.62 0 0 0 .374-1.27 3.205 3.205 0 0 0-.266-1.389 2.88 2.88 0 0 0-.364-.6c-.04-.05-.513-.493-.513-.493l-.02.01Z" fill="#E2CCAF" stroke="#231815" stroke-linecap="round" stroke-linejoin="round"/><path d="M36.502 40.871a14.987 14.987 0 0 1 2.02-.138c4.736 0 8.213 1.606 9.73 7.16" fill="#E2CCAF"/><path d="M36.502 40.871a14.987 14.987 0 0 1 2.02-.138c4.736 0 8.213 1.606 9.73 7.16" stroke="#231815" stroke-linecap="round" stroke-linejoin="round"/><path d="M29.382 47.588c.413-2.098 1.536-3.752 3.122-4.895l-3.122 4.895Z" fill="#E2CCAF"/><path d="M29.382 47.588c.413-2.098 1.536-3.752 3.122-4.895" stroke="#231815" stroke-linecap="round" stroke-linejoin="round"/><path d="M28.623 43.343a4 4 0 0 1 1.478.896l-1.477-.896Z" fill="#E2CCAF"/><path d="M28.623 43.343a4 4 0 0 1 1.478.896" stroke="#231815" stroke-linecap="round" stroke-linejoin="round"/><path d="M31.627 39.315a3.473 3.473 0 0 1 1.497 1.871l-1.497-1.871Z" fill="#E2CCAF"/><path d="M31.627 39.315a3.473 3.473 0 0 1 1.497 1.871" stroke="#231815" stroke-linecap="round" stroke-linejoin="round"/><path d="M36.099 37.139c.413.827.61 1.723.6 2.62l-.6-2.62Z" fill="#E2CCAF"/><path d="M36.099 37.139c.413.827.61 1.723.6 2.62" stroke="#231815" stroke-linecap="round" stroke-linejoin="round"/><path d="M41.643 37.434a5.055 5.055 0 0 0-.305 2.226l.305-2.226Z" fill="#E2CCAF"/><path d="M41.643 37.434a5.055 5.055 0 0 0-.305 2.226" stroke="#231815" stroke-linecap="round" stroke-linejoin="round"/><path d="M45.218 41.108a12.54 12.54 0 0 1 1.162-1.35l-1.162 1.35Z" fill="#E2CCAF"/><path d="M45.218 41.108a12.54 12.54 0 0 1 1.162-1.35" stroke="#231815" stroke-linecap="round" stroke-linejoin="round"/><path d="M47.306 44.525a6.752 6.752 0 0 1 1.714-1.212l-1.714 1.212Z" fill="#E2CCAF"/><path d="M47.306 44.525a6.752 6.752 0 0 1 1.714-1.212" stroke="#231815" stroke-linecap="round" stroke-linejoin="round"/></g><defs><clipPath id="clip0_1119_33229"><path fill="#fff" transform="translate(.526)" d="M0 0h53.763v65H0z"/></clipPath></defs></svg>