<svg fill="none" xmlns="http://www.w3.org/2000/svg" viewBox="0 0 54 65"><g clip-path="url(#clip0_1119_33138)"><path d="M48.287 61.327 20.947 59.8c-3.21-.177-5.86-3.309-5.918-6.992L14.26 6.835c-.049-3.132 1.783-5.643 4.294-6.224L4.786 3.79C2.275 4.374.443 6.885.492 10.017L1.26 55.99c.06 3.683 2.709 6.815 5.92 6.992l27.339 1.527c.482.03.955-.02 1.398-.118l13.758-3.172a5.04 5.04 0 0 1-1.398.119l.01-.01Z" fill="#368AA5" stroke="#231815" stroke-miterlimit="10"/><path d="M46.583 2.019c3.21.177 5.86 3.309 5.92 6.992l.767 45.973c.06 3.683-2.491 6.52-5.702 6.342L20.228 59.8c-3.21-.177-5.86-3.31-5.918-6.993l-.77-45.972C13.482 3.15 16.034.315 19.244.492l27.34 1.527Z" fill="#fff" stroke="#231815" stroke-linecap="round" stroke-linejoin="round"/><path d="m47.549 61.376-27.34-1.527c-3.21-.177-5.85-3.309-5.909-6.992l-.67-45.993c-.02-1.575.434-2.993 1.202-4.087.778-1.093 1.871-1.87 3.142-2.147l-6.885 1.527c-2.54.561-4.392 3.092-4.353 6.234l.67 45.992c.05 3.684 2.699 6.816 5.91 6.993l27.339 1.526c.472.03.925-.01 1.359-.108l6.884-1.526a4.789 4.789 0 0 1-1.36.108h.01Z" fill="#fff" stroke="#231815" stroke-linecap="round" stroke-linejoin="round"/><path d="M46.692 2.039c3.21.177 5.85 3.309 5.909 6.992l.67 45.992c.049 3.684-2.502 6.52-5.712 6.343l-27.34-1.527c-3.21-.177-5.85-3.309-5.909-6.992l-.67-45.992C13.591 3.17 16.142.325 19.352.512l27.34 1.527Z" fill="#fff" stroke="#231815" stroke-linecap="round" stroke-linejoin="round"/><path d="m39.482 19.52-5.288-.315-5.289.334-3.575 3.585 8.962 9.898 8.775-9.927-3.585-3.575Z" fill="#368AA5"/><path d="m34.194 19.205 5.288.315 3.585 3.575-8.775 9.927-8.962-9.898 3.575-3.585 5.289-.334Zm0-.985h-.06l-5.288.335a1.01 1.01 0 0 0-.63.285l-3.575 3.585a.982.982 0 0 0-.03 1.36l8.962 9.897a.985.985 0 0 0 .73.325.96.96 0 0 0 .728-.335l8.775-9.927a.989.989 0 0 0-.04-1.35l-3.584-3.575a.963.963 0 0 0-.64-.285l-5.29-.315h-.058Z" fill="#231815"/><path d="m25.33 23.124 17.491-.03m-8.529 9.928 5.043-13.345m-5.042 13.345-5.24-13.325m1.024 3.26 4.117-3.625 4.126 3.615" stroke="#231815" stroke-linecap="round" stroke-linejoin="round"/><path d="M34.352 31.614c-4.383 0-7.948 3.565-7.948 7.948 0 4.382 3.565 7.947 7.948 7.947 4.382 0 7.947-3.565 7.947-7.947 0-4.383-3.565-7.948-7.947-7.948Zm0 12.399a4.46 4.46 0 0 1-4.452-4.451c0-2.453 2-4.452 4.452-4.452s4.451 2 4.451 4.452-2 4.451-4.451 4.451Z" fill="#E2CCAF" stroke="#231815" stroke-linecap="round" stroke-linejoin="round"/><path d="m33.83 12.123.03 3.507m-4.738-2.335 2.354 2.63m7.081-1.99-2.295 2.315" stroke="#231815" stroke-linecap="round" stroke-linejoin="round"/></g><defs><clipPath id="clip0_1119_33138"><path fill="#fff" d="M0 0h53.763v65H0z"/></clipPath></defs></svg>