<svg fill="none" xmlns="http://www.w3.org/2000/svg" viewBox="0 0 54 65"><g clip-path="url(#clip0_1119_33486)"><path d="M48.339 61.327 20.999 59.8c-3.21-.177-5.86-3.309-5.919-6.992l-.768-45.973c-.05-3.132 1.783-5.643 4.294-6.224L4.838 3.79C2.327 4.374.495 6.885.544 10.017l.768 45.973c.06 3.683 2.708 6.815 5.92 6.992l27.338 1.527c.483.03.956-.02 1.399-.118l13.758-3.172a5.04 5.04 0 0 1-1.398.119l.01-.01Z" fill="#E68169" stroke="#231815" stroke-miterlimit="10"/><path d="M46.635 2.019c3.21.177 5.86 3.309 5.919 6.992l.768 45.973c.06 3.683-2.492 6.52-5.702 6.342L20.28 59.8c-3.21-.177-5.86-3.31-5.919-6.993l-.768-45.972C13.534 3.15 16.085.315 19.296.492L46.635 2.02Z" fill="#fff" stroke="#231815" stroke-linecap="round" stroke-linejoin="round"/><path d="m47.6 61.376-27.34-1.527c-3.21-.177-5.85-3.309-5.908-6.992l-.67-45.993c-.02-1.575.434-2.993 1.202-4.087.778-1.093 1.87-1.87 3.141-2.147l-6.884 1.527c-2.54.561-4.392 3.092-4.353 6.234l.67 45.992c.05 3.684 2.698 6.816 5.909 6.993l27.34 1.526c.472.03.925-.01 1.358-.108l6.885-1.526a4.789 4.789 0 0 1-1.36.108h.01Z" fill="#fff" stroke="#231815" stroke-linecap="round" stroke-linejoin="round"/><path d="M46.744 2.039c3.21.177 5.85 3.309 5.909 6.992l.67 45.992c.049 3.684-2.502 6.52-5.713 6.343l-27.34-1.527c-3.21-.177-5.85-3.309-5.908-6.992l-.67-45.992c-.05-3.684 2.502-6.53 5.712-6.343l27.34 1.527Z" fill="#fff" stroke="#231815" stroke-linecap="round" stroke-linejoin="round"/><path d="M47.56 16.998c0 .09-.039.168-.117.237a.371.371 0 0 1-.247.108h-1.93c-.167 0-.246-.069-.246-.216v-.08c.069-1.713.098-2.757.098-3.121v-2c0-.127-.03-.187-.088-.187-.089 0-.227.03-.404.08a1.772 1.772 0 0 1-.414.078c-.138 0-.207-.079-.207-.246v-1.38c0-.088.06-.157.168-.206.66-.276 1.182-.64 1.556-1.103.079-.098.138-.138.197-.138 0 0 .04 0 .079.01.167.04.423.089.758.167.177.02.443.06.788.119.059.02.098.069.098.147 0 .03 0 .08-.01.138-.049.394-.078 1.36-.078 2.906 0 .512 0 1.29.01 2.334s.01 1.812.01 2.334l-.02.02Z" fill="#E86546"/><path d="M47.56 16.998c0 .09-.039.168-.117.237a.371.371 0 0 1-.247.108h-1.93c-.167 0-.246-.069-.246-.216v-.08c.069-1.713.098-2.757.098-3.121v-2c0-.127-.03-.187-.088-.187-.089 0-.227.03-.404.08a1.772 1.772 0 0 1-.414.078c-.138 0-.207-.079-.207-.246v-1.38c0-.088.06-.157.168-.206.66-.276 1.182-.64 1.556-1.103.079-.098.138-.138.197-.138 0 0 .04 0 .079.01.167.04.423.089.758.167.177.02.443.06.788.119.059.02.098.069.098.147 0 .03 0 .08-.01.138-.049.394-.078 1.36-.078 2.906 0 .512 0 1.29.01 2.334s.01 1.812.01 2.334l-.02.02Z" fill="#00698A"/><path d="M20.92 13.817c-.531.227-.955.404-1.29.542-.334.138-.521.207-.56.207-.08 0-.227-.079-.444-.246-.217-.168-.325-.286-.325-.365 0-.04.04-.069.118-.069.089 0 .187 0 .305.03.109.02.217.03.306.04.275 0 .57-.06.886-.168.315-.109.581-.256.788-.434 0 0 .079-.118.197-.334.088-.148.187-.227.295-.227.128 0 .345.099.67.286.325.197.483.344.483.453 0 .098-.06.207-.188.335a4.61 4.61 0 0 0-.285.295c-.404.739-.7 1.27-.896 1.586a9.202 9.202 0 0 1-1.074 1.408 6.316 6.316 0 0 1-1.457 1.123c-.05.03-.099.04-.119.049a.504.504 0 0 1-.196.05c-.05 0-.08-.02-.08-.07a.39.39 0 0 1 .07-.197 1.21 1.21 0 0 1 .177-.236 22.38 22.38 0 0 0 1.487-1.92c.522-.779.906-1.498 1.142-2.157l-.01.02Zm2.935-.285v4.57c0 .285-.049.57-.147.846-.138.384-.315.572-.552.572-.098 0-.226-.109-.384-.325-.118-.158-.236-.316-.345-.473a22.455 22.455 0 0 1-.709-.64c-.177-.168-.266-.286-.266-.335 0-.03.03-.05.08-.07 0 0 .029 0 .048-.009l1.054.217c.099 0 .177-.07.237-.197a.879.879 0 0 0 .098-.355v-5.909c0-.256-.089-.384-.256-.384-.128 0-.355.089-.68.256-.325.168-.551.266-.66.266-.118 0-.285-.04-.502-.138-.216-.098-.325-.177-.325-.266 0-.049.05-.088.148-.098.099-.01.207-.02.335-.02.197-.02.473-.098.827-.246a5.31 5.31 0 0 0 .847-.404c.04-.03.099-.108.197-.246.099-.138.187-.207.286-.207.187 0 .473.138.847.414.216.157.325.285.325.374a.52.52 0 0 1-.119.286c-.128.167-.196.265-.196.285a1.929 1.929 0 0 0-.138.61c-.02.247-.03.513-.03.798l.493.62c.462-.314.856-.6 1.162-.846.531-.443.837-.778.906-1.024.02-.099.04-.207.049-.306.04-.059.099-.098.197-.098.197 0 .473.108.827.325.355.216.532.414.532.6 0 .07-.059.129-.187.178-.128.05-.236.079-.345.108-.985.453-1.96.916-2.935 1.37.355.482.837.964 1.448 1.447.443.345 1.015.739 1.714 1.172.502.295.797.473.896.532.492.315.739.532.739.64 0 .05-.05.088-.158.118a1.37 1.37 0 0 1-.266.03h-.098c-.867 0-1.517-.158-1.96-.473-.217-.148-.66-.65-1.34-1.497-.57-.69-1.142-1.379-1.703-2.059l.01-.01Zm.119-4.737c0 .226-.089.334-.266.334-.237 0-.808-.197-1.724-.6-.482-.217-.719-.355-.719-.424 0-.059.197-.108.581-.148.384-.039.65-.049.798-.049.414 0 .719.05.926.158.276.138.413.384.413.738l-.01-.01Zm9.897 3.841-.039.906c.502.177.857.325 1.074.433.384.197.57.502.57.926 0 .187-.068.286-.216.286-.177 0-.463-.138-.847-.414-.187-.148-.404-.315-.64-.522v3.427c0 .571-.04.985-.128 1.25-.089.257-.197.385-.325.385-.158 0-.315-.158-.463-.463a2.206 2.206 0 0 1-.217-.975c0-.197.06-.58.188-1.152.069-.305.098-.532.098-.7v-1.31c-.227.414-.739.976-1.556 1.685-.886.778-1.507 1.162-1.871 1.162.02-.079.04-.167.069-.256.059-.069.157-.177.295-.305.561-.512 1.103-1.153 1.635-1.94a13.84 13.84 0 0 0 1.25-2.256c-.433.128-.767.217-.974.286a8.131 8.131 0 0 0-.965.335c-.02 0-.119.078-.306.216-.128.089-.236.138-.344.138-.099 0-.306-.108-.62-.325-.316-.216-.474-.374-.474-.463 0-.04.03-.069.099-.088a.828.828 0 0 1 .246-.03l.6.04c.424 0 .917-.07 1.498-.217.433-.109.906-.256 1.438-.453v-.788a3.8 3.8 0 0 0-.06-.739c-.039-.197-.117-.325-.236-.374-.6.138-1.201.266-1.792.384-.236 0-.355-.03-.355-.098 0-.04.06-.099.178-.158s.197-.098.246-.118c.325-.118.847-.364 1.576-.749.797-.413 1.29-.709 1.487-.886.04-.04.059-.128.078-.276.02-.147.07-.216.158-.216.177 0 .443.147.788.443.345.295.512.532.512.7 0 .117-.098.186-.295.216-.197.03-.345.04-.444.049a8.356 8.356 0 0 0-.68.217c-.304.118-.531.197-.669.256.207.167.345.325.433.472.08.148.119.316.119.493 0 .059-.01.197-.03.384a5.37 5.37 0 0 0-.03.522c.129 0 .267-.03.434-.079.384-.128.63-.187.729-.187.266 0 .512.079.719.226.207.148.315.296.315.444 0 .147-.108.216-.335.216l-1.034-.039c-.424 0-.71.03-.867.089l-.02-.01Zm6.648 3.24c.178.108.266.236.266.374 0 .177-.138.266-.404.266l-1.526-.03c-.266 0-.502 0-.69.01-.197 0-.393.03-.6.07-.05.157-.08.265-.099.305-.05.138-.128.197-.217.197-.137 0-.285-.148-.453-.454-.167-.305-.246-.531-.246-.699v-.069c0-.531-.069-1.024-.197-1.497a6.064 6.064 0 0 0-.6-1.428c0-.069.049-.108.147-.108.099 0 .237.03.414.098.177.07.335.148.473.237.807-.118 1.438-.207 1.91-.286.473-.079.778-.138.916-.197.05-.02.177-.069.365-.157.187-.089.305-.138.344-.138.148 0 .443.167.887.502.453.335.68.562.68.68 0 .069-.05.147-.158.226-.099.079-.168.128-.178.148-.128.148-.354.551-.68 1.201-.196.384-.324.62-.373.72l.02.029Zm-3.417-2.374c.088.325.167.73.246 1.202.069.473.138.945.187 1.408.64-.069 1.29-.147 1.94-.226.187-.571.384-1.143.572-1.714.157-.492.236-.758.236-.808 0-.187-.108-.285-.335-.285-.414 0-.808.02-1.182.069-.384.05-.935.158-1.664.345v.01Z" fill="#231815"/><path d="M20.92 13.817c-.531.227-.955.404-1.29.542-.334.138-.521.207-.56.207-.08 0-.227-.079-.444-.246-.217-.168-.325-.286-.325-.365 0-.04.04-.069.118-.069.089 0 .187 0 .305.03.109.02.217.03.306.04.275 0 .57-.06.886-.168.315-.109.581-.256.788-.434 0 0 .079-.118.197-.334.088-.148.187-.227.295-.227.128 0 .345.099.67.286.325.197.483.344.483.453 0 .098-.06.207-.188.335a4.61 4.61 0 0 0-.285.295c-.404.739-.7 1.27-.896 1.586a9.202 9.202 0 0 1-1.074 1.408 6.316 6.316 0 0 1-1.457 1.123c-.05.03-.099.04-.119.049a.504.504 0 0 1-.196.05c-.05 0-.08-.02-.08-.07a.39.39 0 0 1 .07-.197 1.21 1.21 0 0 1 .177-.236 22.38 22.38 0 0 0 1.487-1.92c.522-.779.906-1.498 1.142-2.157l-.01.02Zm2.935-.285v4.57c0 .285-.049.57-.147.846-.138.384-.315.572-.552.572-.098 0-.226-.109-.384-.325-.118-.158-.236-.316-.345-.473a22.455 22.455 0 0 1-.709-.64c-.177-.168-.266-.286-.266-.335 0-.03.03-.05.08-.07 0 0 .029 0 .048-.009l1.054.217c.099 0 .177-.07.237-.197a.879.879 0 0 0 .098-.355v-5.909c0-.256-.089-.384-.256-.384-.128 0-.355.089-.68.256-.325.168-.551.266-.66.266-.118 0-.285-.04-.502-.138-.216-.098-.325-.177-.325-.266 0-.049.05-.088.148-.098.099-.01.207-.02.335-.02.197-.02.473-.098.827-.246a5.31 5.31 0 0 0 .847-.404c.04-.03.099-.108.197-.246.099-.138.187-.207.286-.207.187 0 .473.138.847.414.216.157.325.285.325.374a.52.52 0 0 1-.119.286c-.128.167-.196.265-.196.285a1.929 1.929 0 0 0-.138.61c-.02.247-.03.513-.03.798l.493.62c.462-.314.856-.6 1.162-.846.531-.443.837-.778.906-1.024.02-.099.04-.207.049-.306.04-.059.099-.098.197-.098.197 0 .473.108.827.325.355.216.532.414.532.6 0 .07-.059.129-.187.178-.128.05-.236.079-.345.108-.985.453-1.96.916-2.935 1.37.355.482.837.964 1.448 1.447.443.345 1.015.739 1.714 1.172.502.295.797.473.896.532.492.315.739.532.739.64 0 .05-.05.088-.158.118a1.37 1.37 0 0 1-.266.03h-.098c-.867 0-1.517-.158-1.96-.473-.217-.148-.66-.65-1.34-1.497-.57-.69-1.142-1.379-1.703-2.059l.01-.01Zm.119-4.737c0 .226-.089.334-.266.334-.237 0-.808-.197-1.724-.6-.482-.217-.719-.355-.719-.424 0-.059.197-.108.581-.148.384-.039.65-.049.798-.049.414 0 .719.05.926.158.276.138.413.384.413.738l-.01-.01Zm9.897 3.841-.039.906c.502.177.857.325 1.074.433.384.197.57.502.57.926 0 .187-.068.286-.216.286-.177 0-.463-.138-.847-.414-.187-.148-.404-.315-.64-.522v3.427c0 .571-.04.985-.128 1.25-.089.257-.197.385-.325.385-.158 0-.315-.157-.463-.463a2.206 2.206 0 0 1-.217-.975c0-.197.06-.58.188-1.152.069-.305.098-.532.098-.7v-1.31c-.227.414-.739.976-1.556 1.685-.886.778-1.507 1.162-1.871 1.162.02-.079.04-.167.069-.256.059-.069.157-.177.295-.305.561-.512 1.103-1.153 1.635-1.94a13.84 13.84 0 0 0 1.25-2.256c-.433.128-.767.217-.974.286a8.131 8.131 0 0 0-.965.335c-.02 0-.119.078-.306.216-.128.089-.236.138-.344.138-.099 0-.306-.108-.62-.325-.316-.216-.474-.374-.474-.463 0-.04.03-.069.099-.088a.828.828 0 0 1 .246-.03l.6.04c.424 0 .917-.07 1.498-.217.433-.109.906-.256 1.438-.453v-.788a3.8 3.8 0 0 0-.06-.739c-.039-.197-.117-.325-.236-.374-.6.138-1.201.266-1.792.384-.236 0-.355-.03-.355-.098 0-.04.06-.099.178-.158s.197-.098.246-.118c.325-.118.847-.364 1.576-.749.797-.413 1.29-.709 1.487-.886.04-.04.059-.128.078-.276.02-.147.07-.216.158-.216.177 0 .443.147.788.443.345.295.512.532.512.7 0 .117-.098.186-.295.216-.197.03-.345.04-.444.049a8.356 8.356 0 0 0-.68.217c-.304.118-.531.197-.669.256.207.167.345.325.433.472.08.148.119.316.119.493 0 .059-.01.197-.03.384a5.37 5.37 0 0 0-.03.522c.129 0 .267-.03.434-.079.384-.128.63-.187.729-.187.266 0 .512.079.719.226.207.148.315.296.315.444 0 .147-.108.216-.335.216l-1.034-.039c-.424 0-.71.03-.867.089l-.02-.01Zm6.648 3.24c.178.108.266.236.266.374 0 .177-.138.266-.404.266l-1.526-.03c-.266 0-.502 0-.69.01-.197 0-.393.03-.6.07-.05.157-.08.265-.099.305-.05.138-.128.197-.217.197-.137 0-.285-.148-.453-.454-.167-.305-.246-.531-.246-.699v-.069c0-.531-.069-1.024-.197-1.497a6.064 6.064 0 0 0-.6-1.428c0-.069.049-.108.147-.108.099 0 .237.03.414.098.177.07.335.148.473.237.807-.118 1.438-.207 1.91-.286.473-.079.778-.138.916-.197.05-.02.177-.069.365-.157.187-.089.305-.138.344-.138.148 0 .443.167.887.502.453.335.68.562.68.68 0 .069-.05.147-.158.226-.099.079-.168.128-.178.148-.128.148-.354.551-.68 1.201-.196.384-.324.62-.373.72l.02.029Zm-3.417-2.374c.088.325.167.73.246 1.202.069.473.138.945.187 1.408.64-.069 1.29-.147 1.94-.226.187-.571.384-1.143.572-1.714.157-.492.236-.758.236-.808 0-.187-.108-.285-.335-.285-.414 0-.808.02-1.182.069-.384.05-.935.158-1.664.345v.01Z" stroke="#231815" stroke-width="2"/><path d="M20.92 13.817c-.531.227-.955.404-1.29.542-.334.138-.521.207-.56.207-.08 0-.227-.079-.444-.246-.217-.168-.325-.286-.325-.365 0-.04.04-.069.118-.069.089 0 .187 0 .305.03.109.02.217.03.306.04.275 0 .57-.06.886-.168.315-.109.581-.256.788-.434 0 0 .079-.118.197-.334.088-.148.187-.227.295-.227.128 0 .345.099.67.286.325.197.483.344.483.453 0 .098-.06.207-.188.335a4.61 4.61 0 0 0-.285.295c-.404.739-.7 1.27-.896 1.586a9.202 9.202 0 0 1-1.074 1.408 6.316 6.316 0 0 1-1.457 1.123c-.05.03-.099.04-.119.049a.504.504 0 0 1-.196.05c-.05 0-.08-.02-.08-.07a.39.39 0 0 1 .07-.197 1.21 1.21 0 0 1 .177-.236 22.38 22.38 0 0 0 1.487-1.92c.522-.779.906-1.498 1.142-2.157l-.01.02Zm2.935-.285v4.57c0 .285-.049.57-.147.846-.138.384-.315.572-.552.572-.098 0-.226-.109-.384-.325-.118-.158-.236-.316-.345-.473a22.455 22.455 0 0 1-.709-.64c-.177-.168-.266-.286-.266-.335 0-.03.03-.05.08-.07 0 0 .029 0 .048-.009l1.054.217c.099 0 .177-.07.237-.197a.879.879 0 0 0 .098-.355v-5.909c0-.256-.089-.384-.256-.384-.128 0-.355.089-.68.256-.325.168-.551.266-.66.266-.118 0-.285-.04-.502-.138-.216-.098-.325-.177-.325-.266 0-.049.05-.088.148-.098.099-.01.207-.02.335-.02.197-.02.473-.098.827-.246a5.31 5.31 0 0 0 .847-.404c.04-.03.099-.108.197-.246.099-.138.187-.207.286-.207.187 0 .473.138.847.414.216.157.325.285.325.374a.52.52 0 0 1-.119.286c-.128.167-.196.265-.196.285a1.929 1.929 0 0 0-.138.61c-.02.247-.03.513-.03.798l.493.62c.462-.314.856-.6 1.162-.846.531-.443.837-.778.906-1.024.02-.099.04-.207.049-.306.04-.059.099-.098.197-.098.197 0 .473.108.827.325.355.216.532.414.532.6 0 .07-.059.129-.187.178-.128.05-.236.079-.345.108-.985.453-1.96.916-2.935 1.37.355.482.837.964 1.448 1.447.443.345 1.015.739 1.714 1.172.502.295.797.473.896.532.492.315.739.532.739.64 0 .05-.05.088-.158.118a1.37 1.37 0 0 1-.266.03h-.098c-.867 0-1.517-.158-1.96-.473-.217-.148-.66-.65-1.34-1.497-.57-.69-1.142-1.379-1.703-2.059l.01-.01Zm.119-4.737c0 .226-.089.334-.266.334-.237 0-.808-.197-1.724-.6-.482-.217-.719-.355-.719-.424 0-.059.197-.108.581-.148.384-.039.65-.049.798-.049.414 0 .719.05.926.158.276.138.413.384.413.738l-.01-.01Zm9.897 3.841-.039.906c.502.177.857.325 1.074.433.384.197.57.502.57.926 0 .187-.068.286-.216.286-.177 0-.463-.138-.847-.414-.187-.148-.404-.315-.64-.522v3.427c0 .571-.04.985-.128 1.25-.089.257-.197.385-.325.385-.158 0-.315-.158-.463-.463a2.206 2.206 0 0 1-.217-.975c0-.197.06-.58.188-1.152.069-.305.098-.532.098-.7v-1.31c-.227.414-.739.976-1.556 1.685-.886.778-1.507 1.162-1.871 1.162.02-.079.04-.167.069-.256.059-.069.157-.177.295-.305.561-.512 1.103-1.153 1.635-1.94a13.84 13.84 0 0 0 1.25-2.256c-.433.128-.767.217-.974.286a8.131 8.131 0 0 0-.965.335c-.02 0-.119.078-.306.216-.128.089-.236.138-.344.138-.099 0-.306-.108-.62-.325-.316-.216-.474-.374-.474-.463 0-.04.03-.069.099-.088a.828.828 0 0 1 .246-.03l.6.04c.424 0 .917-.07 1.498-.217.433-.109.906-.256 1.438-.453v-.788a3.8 3.8 0 0 0-.06-.739c-.039-.197-.117-.325-.236-.374-.6.138-1.201.266-1.792.384-.236 0-.355-.03-.355-.098 0-.04.06-.099.178-.158s.197-.098.246-.118c.325-.118.847-.364 1.576-.749.797-.413 1.29-.709 1.487-.886.04-.04.059-.128.078-.276.02-.147.07-.216.158-.216.177 0 .443.147.788.443.345.295.512.532.512.7 0 .117-.098.186-.295.216-.197.03-.345.04-.444.049a8.356 8.356 0 0 0-.68.217c-.304.118-.531.197-.669.256.207.167.345.325.433.472.08.148.119.316.119.493 0 .059-.01.197-.03.384a5.37 5.37 0 0 0-.03.522c.129 0 .267-.03.434-.079.384-.128.63-.187.729-.187.266 0 .512.079.719.226.207.148.315.296.315.444 0 .147-.108.216-.335.216l-1.034-.039c-.424 0-.71.03-.867.089l-.02-.01Zm6.648 3.24c.178.108.266.236.266.374 0 .177-.138.266-.404.266l-1.526-.03c-.266 0-.502 0-.69.01-.197 0-.393.03-.6.07-.05.157-.08.265-.099.305-.05.138-.128.197-.217.197-.137 0-.285-.148-.453-.454-.167-.305-.246-.531-.246-.699v-.069c0-.531-.069-1.024-.197-1.497a6.064 6.064 0 0 0-.6-1.428c0-.069.049-.108.147-.108.099 0 .237.03.414.098.177.07.335.148.473.237.807-.118 1.438-.207 1.91-.286.473-.079.778-.138.916-.197.05-.02.177-.069.365-.157.187-.089.305-.138.344-.138.148 0 .443.167.887.502.453.335.68.562.68.68 0 .069-.05.147-.158.226-.099.079-.168.128-.178.148-.128.148-.354.551-.68 1.201-.196.384-.324.62-.373.72l.02.029Zm-3.417-2.374c.088.325.167.73.246 1.202.069.473.138.945.187 1.408.64-.069 1.29-.147 1.94-.226.187-.571.384-1.143.572-1.714.157-.492.236-.758.236-.808 0-.187-.108-.285-.335-.285-.414 0-.808.02-1.182.069-.384.05-.935.158-1.664.345v.01Z" fill="#E68169"/><path d="M29.666 51.36c-1.152-1.152-1.024-2.413-1.152-3.624-.148-1.32-.414-2.63-.66-3.94-.207-1.123-.965-1.723-2.029-1.98-.541-.127-1.073-.324-1.625-.403-.994-.148-1.664-.7-1.93-1.625-.61-2.118-1.152-4.265-1.753-6.5 2.117-1.527 3.85-3.388 5.308-5.535.966-1.418 2.384-2.029 4.088-1.724 1.201.217 2.462.385 3.555.887 2.53 1.172 5.003 2.482 7.455 3.821 1.95 1.064 3.033 2.846 3.87 4.875 1.34 3.22 1.192 6.56 1.104 9.917-.02.916-.64 1.468-1.428 1.665-1.507.384-3.063.916-4.58.886-3.408-.069-6.352 1.034-9.159 2.787-.276.178-.59.276-1.054.493h-.01Z" fill="#368AA5" stroke="#231815" stroke-linecap="round" stroke-linejoin="round"/></g><defs><clipPath id="clip0_1119_33486"><path fill="#fff" transform="translate(.052)" d="M0 0h53.763v65H0z"/></clipPath></defs></svg>