<svg fill="none" xmlns="http://www.w3.org/2000/svg" viewBox="0 0 54 65"><g clip-path="url(#clip0_1119_33416)"><path d="M48.339 61.327 20.999 59.8c-3.21-.177-5.86-3.309-5.919-6.992l-.768-45.973c-.05-3.132 1.783-5.643 4.294-6.224L4.838 3.79C2.327 4.374.495 6.885.544 10.017l.768 45.973c.06 3.683 2.708 6.815 5.92 6.992l27.338 1.527c.483.03.956-.02 1.399-.118l13.758-3.172a5.04 5.04 0 0 1-1.398.119l.01-.01Z" fill="#E68169" stroke="#231815" stroke-miterlimit="10"/><path d="M46.635 2.019c3.21.177 5.86 3.309 5.919 6.992l.768 45.973c.06 3.683-2.492 6.52-5.702 6.342L20.28 59.8c-3.21-.177-5.86-3.31-5.919-6.993l-.768-45.972C13.534 3.15 16.085.315 19.296.492L46.635 2.02Z" fill="#fff" stroke="#231815" stroke-linecap="round" stroke-linejoin="round"/><path d="m47.6 61.376-27.34-1.527c-3.21-.177-5.85-3.309-5.908-6.992l-.67-45.993c-.02-1.575.434-2.993 1.202-4.087.778-1.093 1.87-1.87 3.141-2.147l-6.884 1.527c-2.54.561-4.392 3.092-4.353 6.234l.67 45.992c.05 3.684 2.698 6.816 5.909 6.993l27.34 1.526c.472.03.925-.01 1.358-.108l6.885-1.526a4.789 4.789 0 0 1-1.36.108h.01Z" fill="#fff" stroke="#231815" stroke-linecap="round" stroke-linejoin="round"/><path d="M46.744 2.039c3.21.177 5.85 3.309 5.909 6.992l.67 45.992c.049 3.684-2.502 6.52-5.713 6.343l-27.34-1.527c-3.21-.177-5.85-3.309-5.908-6.992l-.67-45.992c-.05-3.684 2.502-6.53 5.712-6.343l27.34 1.527Z" fill="#fff" stroke="#231815" stroke-linecap="round" stroke-linejoin="round"/><path d="M47.56 16.998c0 .09-.039.168-.117.237a.371.371 0 0 1-.247.108h-1.93c-.167 0-.246-.069-.246-.216v-.08c.069-1.713.098-2.757.098-3.121v-2c0-.127-.03-.187-.088-.187-.089 0-.227.03-.404.08a1.772 1.772 0 0 1-.414.078c-.138 0-.207-.079-.207-.246v-1.38c0-.088.06-.157.168-.206.66-.276 1.182-.64 1.556-1.103.079-.098.138-.138.197-.138 0 0 .04 0 .079.01.167.04.423.089.758.167.177.02.443.06.788.119.059.02.098.069.098.147 0 .03 0 .08-.01.138-.049.394-.078 1.36-.078 2.906 0 .512 0 1.29.01 2.334s.01 1.812.01 2.334l-.02.02Z" fill="#E86546"/><path d="M47.56 16.998c0 .09-.039.168-.117.237a.371.371 0 0 1-.247.108h-1.93c-.167 0-.246-.069-.246-.216v-.08c.069-1.713.098-2.757.098-3.121v-2c0-.127-.03-.187-.088-.187-.089 0-.227.03-.404.08a1.772 1.772 0 0 1-.414.078c-.138 0-.207-.079-.207-.246v-1.38c0-.088.06-.157.168-.206.66-.276 1.182-.64 1.556-1.103.079-.098.138-.138.197-.138 0 0 .04 0 .079.01.167.04.423.089.758.167.177.02.443.06.788.119.059.02.098.069.098.147 0 .03 0 .08-.01.138-.049.394-.078 1.36-.078 2.906 0 .512 0 1.29.01 2.334s.01 1.812.01 2.334l-.02.02Z" fill="#00698A"/><path d="m24.643 12.862-2.038.197c-.483 1.005-1.093 1.812-1.832 2.433-.739.62-1.655 1.103-2.738 1.457a1.162 1.162 0 0 1-.394.099c-.069 0-.098-.02-.108-.05.02-.039.059-.098.128-.167s.128-.118.177-.157c.916-.62 1.586-1.103 2-1.478a7.807 7.807 0 0 0 1.575-1.93c-.345.04-.7.099-1.054.177-.354.08-.68.188-.965.306-.089.04-.187.069-.285.098a.903.903 0 0 1-.247.05c-.118 0-.354-.08-.719-.217-.364-.148-.541-.266-.541-.355 0-.069.118-.108.344-.108l.7.03c.492 0 1.122-.07 1.89-.217.375-.07.749-.138 1.123-.217a4.48 4.48 0 0 0 .296-.551c.108-.237.177-.414.197-.552-.148 0-.375.04-.66.118-.286.079-.493.118-.62.118-.158 0-.385-.059-.68-.187-.187-.079-.286-.147-.286-.197 0-.04.05-.059.158-.078.098-.01.177-.02.216-.02h.08c.255 0 .492 0 .708-.03.739-.059 1.143-.098 1.202-.098.05-.099.108-.286.187-.562.05-.187.108-.374.177-.56h-.443a2.38 2.38 0 0 0-.443.048c-.148.05-.286.08-.404.109-.118.03-.226.04-.325.04-.118 0-.295-.05-.532-.149-.236-.098-.354-.187-.354-.266 0-.039.059-.069.167-.069.108 0 .217-.01.315-.02.552 0 .975-.01 1.27-.029.296-.02.572-.069.848-.128l.118-.778a.859.859 0 0 0-.197-.512 24.927 24.927 0 0 1-.394-.532c0-.059.05-.108.158-.138a.978.978 0 0 1 .275-.039c.227 0 .522.098.887.305.364.207.551.414.551.62 0 .08-.03.188-.079.326-.147.364-.236.58-.236.64.561 0 1.103-.089 1.625-.266.06-.02.197-.04.384-.06a4.93 4.93 0 0 1 .434-.029c.236 0 .413.03.551.08.138.048.207.147.207.265 0 .089-.099.167-.286.217a2.47 2.47 0 0 1-.719.088h-.285c-.335 0-.64.01-.936.03-.286.02-.66.059-1.103.118-.05.138-.118.325-.187.561a9.47 9.47 0 0 1-.148.483c.246 0 .502-.02.768-.05.266-.029.572-.088.916-.157.325-.088.66-.187.995-.285.148 0 .335.039.561.118.227.079.335.177.335.295 0 .03-.02.05-.069.079a.262.262 0 0 1-.118.03c-.266.098-.6.167-.995.216-.394.05-.945.079-1.654.079.079.148.197.325.364.532.138.167.266.335.404.512.7 0 1.458-.04 2.275-.138.246-.05.502-.098.768-.148.266 0 .542.07.827.217.345.187.522.414.522.67 0 .098-.088.147-.265.147h-.188c-.66-.118-1.28-.206-1.861-.275a14.55 14.55 0 0 0-1.723-.099c.423.473 1.063 1.015 1.93 1.635.7.492 1.398.985 2.107 1.477.188.138.286.246.286.335 0 .108-.148.158-.443.158h-.177c-.483 0-.887-.06-1.202-.178-.325-.118-.62-.344-.906-.68a43.066 43.066 0 0 1-1.113-1.348 43.657 43.657 0 0 1-1.073-1.399l.02-.01ZM22.35 16.95c0 .068-.217.344-.67.817-.453.473-.719.709-.778.709-.128 0-.276-.118-.453-.364-.177-.247-.266-.434-.266-.572 0-.098.05-.147.138-.147.03 0 .088 0 .177.03.089.019.158.029.197.029.158 0 .433-.089.827-.286.394-.187.65-.285.768-.285l.07.069h-.01Zm.147-.897c0 .138-.088.197-.256.197-.236 0-.531-.098-.876-.305-.345-.197-.512-.355-.512-.473 0-.05.049-.079.147-.079.355 0 .66.04.916.109.394.118.591.295.591.551h-.01Zm1.537-1.29s-.02.128-.07.246a.782.782 0 0 0-.068.296v1.625c0 .797-.04 1.388-.118 1.763-.109.531-.306.787-.601.787a.229.229 0 0 1-.187-.088.688.688 0 0 1-.109-.207c-.03-.079-.246-.285-.65-.62-.197-.158-.295-.266-.295-.325.04-.04.069-.05.108-.05.07 0 .178.01.306.03.137.02.216.03.256.03.167 0 .285-.07.344-.217a1.29 1.29 0 0 0 .099-.493v-2.422c0-.227-.05-.424-.148-.601a9.2 9.2 0 0 1-.335-.512c0-.06.089-.109.256-.138.197 0 .444.098.749.305.305.197.453.394.453.581l.01.01Zm.413-2.275-.68-.975-.511.05s-.118.265-.286.66c-.059.127-.118.265-.177.393.276 0 .571-.02.896-.05.325-.039.571-.058.748-.078h.01Zm.552 2.58c0-.078 0-.167.02-.256.01-.088.059-.137.128-.137.167 0 .393.088.68.265.285.178.423.355.423.522 0 .05-.306.188-.926.424-.62.236-1.005.354-1.143.354-.088 0-.137-.03-.137-.078 0-.03.088-.138.256-.325.463-.512.689-.769.699-.778v.01Zm1.645 3.004c.03.158-.03.237-.178.237-.256 0-.67-.227-1.25-.69-.581-.463-.877-.738-.887-.827a.26.26 0 0 1 .148-.05c.414 0 .857.119 1.33.365.551.276.837.6.837.965Zm12.457-1.132h-1.034a21.35 21.35 0 0 0-3.28.255c-1.29.207-2.147.483-2.58.818l-.325.325c-.148.148-.266.217-.345.217-.128 0-.285-.188-.492-.552-.197-.364-.305-.62-.305-.758 0-.089.02-.178.049-.266a2.32 2.32 0 0 1 .118-.286c.05-.098.079-.335.099-.699.02-.364.03-.71.03-1.014v-.227c0-.226-.149-.502-.434-.827-.286-.325-.433-.502-.433-.512 0-.06.068-.089.196-.089.227 0 .562.138 1.005.414.443.275.67.512.67.709 0 .098-.02.236-.05.413a1.936 1.936 0 0 0-.049.414c0 .207 0 .542-.03 1.014-.02.473-.029.72-.029.74l3.152-.454v-6.52c0-.226-.08-.463-.237-.719l-.512-.67c0-.058.05-.098.138-.117a.659.659 0 0 1 .236-.01c.266 0 .581.078.936.246.433.197.64.404.64.63 0 .089-.05.276-.138.552a1.064 1.064 0 0 0-.069.344v6.185l3.093-.04c.108-.521.187-.905.226-1.151.089-.463.138-.838.138-1.123 0-.109-.069-.286-.216-.532-.148-.246-.217-.394-.217-.443 0-.06.03-.099.098-.118a.861.861 0 0 1 .237-.03c.226 0 .522.148.896.453.374.306.561.561.561.778a.75.75 0 0 1-.118.375 3.2 3.2 0 0 0-.197.364 41.998 41.998 0 0 1-.345 1.94c-.216.965-.522 1.448-.906 1.448-.098 0-.167-.06-.197-.168-.04-.108-.049-.266-.049-.453 0-.148.01-.305.03-.482.02-.178.03-.296.03-.335l.009-.04Z" fill="#231815"/><path d="m24.643 12.862-2.038.197c-.483 1.005-1.093 1.812-1.832 2.433-.739.62-1.655 1.103-2.738 1.457a1.162 1.162 0 0 1-.394.099c-.069 0-.098-.02-.108-.05.02-.039.059-.098.128-.167s.128-.118.177-.157c.916-.62 1.586-1.103 2-1.478a7.807 7.807 0 0 0 1.575-1.93c-.345.04-.7.099-1.054.177-.354.08-.68.188-.965.306-.089.04-.187.069-.285.098a.903.903 0 0 1-.247.05c-.118 0-.354-.08-.719-.217-.364-.148-.541-.266-.541-.355 0-.069.118-.108.344-.108l.7.03c.492 0 1.122-.07 1.89-.217.375-.07.749-.138 1.123-.217a4.48 4.48 0 0 0 .296-.551c.108-.237.177-.414.197-.552-.148 0-.375.04-.66.118-.286.079-.493.118-.62.118-.158 0-.385-.059-.68-.187-.187-.079-.286-.147-.286-.197 0-.04.05-.059.158-.078.098-.01.177-.02.216-.02h.08c.255 0 .492 0 .708-.03.739-.059 1.143-.098 1.202-.098.05-.099.108-.286.187-.562.05-.187.108-.374.177-.56h-.443a2.38 2.38 0 0 0-.443.048c-.148.05-.286.08-.404.109-.118.03-.226.04-.325.04-.118 0-.295-.05-.532-.149-.236-.098-.354-.187-.354-.266 0-.039.059-.069.167-.069.108 0 .217-.01.315-.02.552 0 .975-.01 1.27-.029.296-.02.572-.069.848-.128l.118-.778a.859.859 0 0 0-.197-.512 24.927 24.927 0 0 1-.394-.532c0-.059.05-.108.158-.138a.978.978 0 0 1 .275-.039c.227 0 .522.098.887.305.364.207.551.414.551.62 0 .08-.03.188-.079.326-.147.364-.236.58-.236.64.561 0 1.103-.089 1.625-.266.06-.02.197-.04.384-.06a4.93 4.93 0 0 1 .434-.029c.236 0 .413.03.551.08.138.048.207.147.207.265 0 .089-.099.167-.286.217a2.47 2.47 0 0 1-.719.088h-.285c-.335 0-.64.01-.936.03-.286.02-.66.059-1.103.118-.05.138-.118.325-.187.561a9.47 9.47 0 0 1-.148.483c.246 0 .502-.02.768-.05.266-.029.572-.088.916-.157.325-.088.66-.187.995-.285.148 0 .335.039.561.118.227.079.335.177.335.295 0 .03-.02.05-.069.079a.262.262 0 0 1-.118.03c-.266.098-.6.167-.995.216-.394.05-.945.079-1.654.079.079.148.197.325.364.532.138.167.266.335.404.512.7 0 1.458-.04 2.275-.138.246-.05.502-.098.768-.148.266 0 .542.07.827.217.345.187.522.414.522.67 0 .098-.088.147-.265.147h-.188c-.66-.118-1.28-.206-1.861-.275a14.55 14.55 0 0 0-1.723-.099c.423.473 1.063 1.015 1.93 1.635.7.492 1.398.985 2.107 1.477.188.138.286.246.286.335 0 .108-.148.158-.443.158h-.177c-.483 0-.887-.06-1.202-.178-.325-.118-.62-.344-.906-.68a43.066 43.066 0 0 1-1.113-1.348 43.657 43.657 0 0 1-1.073-1.399l.02-.01ZM22.35 16.95c0 .068-.217.344-.67.817-.453.473-.719.709-.778.709-.128 0-.276-.118-.453-.364-.177-.247-.266-.434-.266-.572 0-.098.05-.147.138-.147.03 0 .088 0 .177.03.089.019.158.029.197.029.158 0 .433-.089.827-.286.394-.187.65-.285.768-.285l.07.069h-.01Zm.147-.897c0 .138-.088.197-.256.197-.236 0-.531-.098-.876-.305-.345-.197-.512-.355-.512-.473 0-.05.049-.079.147-.079.355 0 .66.04.916.109.394.118.591.295.591.551h-.01Zm1.537-1.29s-.02.128-.07.246a.782.782 0 0 0-.068.296v1.625c0 .797-.04 1.388-.118 1.763-.109.531-.306.787-.601.787a.229.229 0 0 1-.187-.088.688.688 0 0 1-.109-.207c-.03-.079-.246-.285-.65-.62-.197-.158-.295-.266-.295-.325.04-.04.069-.05.108-.05.07 0 .178.01.306.03.137.02.216.03.256.03.167 0 .285-.07.344-.217a1.29 1.29 0 0 0 .099-.493v-2.422c0-.227-.05-.424-.148-.601a9.2 9.2 0 0 1-.335-.512c0-.06.089-.109.256-.138.197 0 .444.098.749.305.305.197.453.394.453.581l.01.01Zm.413-2.275-.68-.975-.511.05s-.118.265-.286.66c-.059.127-.118.265-.177.393.276 0 .571-.02.896-.05.325-.039.571-.058.748-.078h.01Zm.552 2.58c0-.078 0-.167.02-.256.01-.088.059-.137.128-.137.167 0 .393.088.68.265.285.178.423.355.423.522 0 .05-.306.188-.926.424-.62.236-1.005.354-1.143.354-.088 0-.137-.03-.137-.078 0-.03.088-.138.256-.325.463-.512.689-.769.699-.778v.01Zm1.645 3.004c.03.158-.03.237-.178.237-.256 0-.67-.227-1.25-.69-.581-.463-.877-.738-.887-.827a.26.26 0 0 1 .148-.05c.414 0 .857.119 1.33.365.551.276.837.6.837.965Zm12.457-1.132h-1.034a21.35 21.35 0 0 0-3.28.255c-1.29.207-2.147.483-2.58.818l-.325.325c-.148.148-.266.217-.345.217-.128 0-.285-.188-.492-.552-.197-.364-.305-.62-.305-.758 0-.089.02-.178.049-.266a2.32 2.32 0 0 1 .118-.286c.05-.098.079-.335.099-.699.02-.364.03-.71.03-1.014v-.227c0-.226-.149-.502-.434-.827-.286-.325-.433-.502-.433-.512 0-.06.068-.089.196-.089.227 0 .562.138 1.005.414.443.275.67.512.67.709 0 .098-.02.236-.05.413a1.936 1.936 0 0 0-.049.414c0 .207 0 .542-.03 1.014-.02.473-.029.72-.029.74l3.152-.454v-6.52c0-.226-.08-.463-.237-.719l-.512-.67c0-.058.05-.098.138-.117a.659.659 0 0 1 .236-.01c.266 0 .581.078.936.246.433.197.64.404.64.63 0 .089-.05.276-.138.552a1.064 1.064 0 0 0-.069.344v6.185l3.093-.04c.108-.521.187-.905.226-1.151.089-.463.138-.838.138-1.123 0-.109-.069-.286-.216-.532-.148-.246-.217-.394-.217-.443 0-.06.03-.099.098-.118a.861.861 0 0 1 .237-.03c.226 0 .522.148.896.453.374.306.561.561.561.778a.75.75 0 0 1-.118.375 3.2 3.2 0 0 0-.197.364 41.998 41.998 0 0 1-.345 1.94c-.216.965-.522 1.448-.906 1.448-.098 0-.167-.06-.197-.168-.04-.108-.049-.266-.049-.453 0-.148.01-.305.03-.482.02-.178.03-.296.03-.335l.009-.04Z" stroke="#231815" stroke-width="2"/><path d="m24.643 12.862-2.038.197c-.483 1.005-1.093 1.812-1.832 2.433-.739.62-1.655 1.103-2.738 1.457a1.162 1.162 0 0 1-.394.099c-.069 0-.098-.02-.108-.05.02-.039.059-.098.128-.167s.128-.118.177-.157c.916-.62 1.586-1.103 2-1.478a7.807 7.807 0 0 0 1.575-1.93c-.345.04-.7.099-1.054.177-.354.08-.68.188-.965.306-.089.04-.187.069-.285.098a.903.903 0 0 1-.247.05c-.118 0-.354-.08-.719-.217-.364-.148-.541-.266-.541-.355 0-.069.118-.108.344-.108l.7.03c.492 0 1.122-.07 1.89-.217.375-.07.749-.138 1.123-.217a4.48 4.48 0 0 0 .296-.551c.108-.237.177-.414.197-.552-.148 0-.375.04-.66.118-.286.079-.493.118-.62.118-.158 0-.385-.059-.68-.187-.187-.079-.286-.147-.286-.197 0-.04.05-.059.158-.078.098-.01.177-.02.216-.02h.08c.255 0 .492 0 .708-.03.739-.059 1.143-.098 1.202-.098.05-.099.108-.286.187-.562.05-.187.108-.374.177-.56h-.443a2.38 2.38 0 0 0-.443.048c-.148.05-.286.08-.404.109-.118.03-.226.04-.325.04-.118 0-.295-.05-.532-.149-.236-.098-.354-.187-.354-.266 0-.039.059-.069.167-.069.108 0 .217-.01.315-.02.552 0 .975-.01 1.27-.029.296-.02.572-.069.848-.128l.118-.778a.859.859 0 0 0-.197-.512 24.927 24.927 0 0 1-.394-.532c0-.059.05-.108.158-.138a.978.978 0 0 1 .275-.039c.227 0 .522.098.887.305.364.207.551.414.551.62 0 .08-.03.188-.079.326-.147.364-.236.58-.236.64.561 0 1.103-.089 1.625-.266.06-.02.197-.04.384-.06a4.93 4.93 0 0 1 .434-.029c.236 0 .413.03.551.08.138.048.207.147.207.265 0 .089-.099.167-.286.217a2.47 2.47 0 0 1-.719.088h-.285c-.335 0-.64.01-.936.03-.286.02-.66.059-1.103.118-.05.138-.118.325-.187.561a9.47 9.47 0 0 1-.148.483c.246 0 .502-.02.768-.05.266-.029.572-.088.916-.157.325-.088.66-.187.995-.285.148 0 .335.039.561.118.227.079.335.177.335.295 0 .03-.02.05-.069.079a.262.262 0 0 1-.118.03c-.266.098-.6.167-.995.216-.394.05-.945.079-1.654.079.079.148.197.325.364.532.138.167.266.335.404.512.7 0 1.458-.04 2.275-.138.246-.05.502-.098.768-.148.266 0 .542.07.827.217.345.187.522.414.522.67 0 .098-.088.147-.265.147h-.188c-.66-.118-1.28-.206-1.861-.275a14.55 14.55 0 0 0-1.723-.099c.423.473 1.063 1.015 1.93 1.635.7.492 1.398.985 2.107 1.477.188.138.286.246.286.335 0 .108-.148.158-.443.158h-.177c-.483 0-.887-.06-1.202-.178-.325-.118-.62-.344-.906-.68a43.066 43.066 0 0 1-1.113-1.348 43.657 43.657 0 0 1-1.073-1.399l.02-.01ZM22.35 16.95c0 .068-.217.344-.67.817-.453.473-.719.709-.778.709-.128 0-.276-.118-.453-.364-.177-.247-.266-.434-.266-.572 0-.098.05-.147.138-.147.03 0 .088 0 .177.03.089.019.158.029.197.029.158 0 .433-.089.827-.286.394-.187.65-.285.768-.285l.07.069h-.01Zm.147-.897c0 .138-.088.197-.256.197-.236 0-.531-.098-.876-.305-.345-.197-.512-.355-.512-.473 0-.05.049-.079.147-.079.355 0 .66.04.916.109.394.118.591.295.591.551h-.01Zm1.537-1.29s-.02.128-.07.246a.782.782 0 0 0-.068.296v1.625c0 .797-.04 1.388-.118 1.763-.109.531-.306.787-.601.787a.229.229 0 0 1-.187-.088.688.688 0 0 1-.109-.207c-.03-.079-.246-.285-.65-.62-.197-.158-.295-.266-.295-.325.04-.04.069-.05.108-.05.07 0 .178.01.306.03.137.02.216.03.256.03.167 0 .285-.07.344-.217a1.29 1.29 0 0 0 .099-.493v-2.422c0-.227-.05-.424-.148-.601a9.2 9.2 0 0 1-.335-.512c0-.06.089-.109.256-.138.197 0 .444.098.749.305.305.197.453.394.453.581l.01.01Zm.413-2.275-.68-.975-.511.05s-.118.265-.286.66c-.059.127-.118.265-.177.393.276 0 .571-.02.896-.05.325-.039.571-.058.748-.078h.01Zm.552 2.58c0-.078 0-.167.02-.256.01-.088.059-.137.128-.137.167 0 .393.088.68.265.285.178.423.355.423.522 0 .05-.306.188-.926.424-.62.236-1.005.354-1.143.354-.088 0-.137-.03-.137-.078 0-.03.088-.138.256-.325.463-.512.689-.769.699-.778v.01Zm1.645 3.004c.03.158-.03.237-.178.237-.256 0-.67-.227-1.25-.69-.581-.463-.877-.738-.887-.827a.26.26 0 0 1 .148-.05c.414 0 .857.119 1.33.365.551.276.837.6.837.965Zm12.457-1.132h-1.034a21.35 21.35 0 0 0-3.28.255c-1.29.207-2.147.483-2.58.818l-.325.325c-.148.148-.266.217-.345.217-.128 0-.285-.188-.492-.552-.197-.364-.305-.62-.305-.758 0-.089.02-.178.049-.266a2.32 2.32 0 0 1 .118-.286c.05-.098.079-.335.099-.699.02-.364.03-.71.03-1.014v-.227c0-.226-.149-.502-.434-.827-.286-.325-.433-.502-.433-.512 0-.06.068-.089.196-.089.227 0 .562.138 1.005.414.443.275.67.512.67.709 0 .098-.02.236-.05.413a1.936 1.936 0 0 0-.049.414c0 .207 0 .542-.03 1.014-.02.473-.029.72-.029.74l3.152-.454v-6.52c0-.226-.08-.463-.237-.719l-.512-.67c0-.058.05-.098.138-.117a.659.659 0 0 1 .236-.01c.266 0 .581.078.936.246.433.197.64.404.64.63 0 .089-.05.276-.138.552a1.064 1.064 0 0 0-.069.344v6.185l3.093-.04c.108-.521.187-.905.226-1.151.089-.463.138-.838.138-1.123 0-.109-.069-.286-.216-.532-.148-.246-.217-.394-.217-.443 0-.06.03-.099.098-.118a.861.861 0 0 1 .237-.03c.226 0 .522.148.896.453.374.306.561.561.561.778a.75.75 0 0 1-.118.375 3.2 3.2 0 0 0-.197.364 41.998 41.998 0 0 1-.345 1.94c-.216.965-.522 1.448-.906 1.448-.098 0-.167-.06-.197-.168-.04-.108-.049-.266-.049-.453 0-.148.01-.305.03-.482.02-.178.03-.296.03-.335l.009-.04Z" fill="#E68169"/><path d="M27.647 30.806c1.25-.266 1.665-1.36 2.62-1.891.295.089.63.168.955.286 1.615.6 3.21 1.31 4.855 1.792 1.93.561 3.644 1.458 5.23 2.65.236.177.463.383.719.531 2.058 1.152 1.881 1.054 3.595.158a10.354 10.354 0 0 1 2.669-.985c.797-.177 1.526.197 1.615.975.108 1.004.088 2.019.03 3.023-.02.286-.355.61-.631.798-.542.364-1.152.62-1.714.965-.68.414-.965 1.015-.778 1.822.178.749.355 1.507.483 2.265.098.581.167 1.182.138 1.773-.06 1.054-.512 1.861-1.448 2.511-1.536 1.064-3.171 1.32-4.934 1.044-.946-.147-1.871-.325-2.836-.285-.237 0-.503.01-.7-.089-.719-.374-1.398-.177-2.068.079-.63.246-1.23.315-1.9.069-.424-.158-.946-.079-1.419-.099-.473-.01-.945 0-1.448 0-.157-.197-.344-.364-.433-.57-.423-.956-1.073-1.724-1.97-2.256-.502-.296-.787-.7-.925-1.241-.08-.286-.187-.561-.276-.847-.798-2.462-2.373-4.383-4.314-6.027-.886-.749-1.96-1.113-3.112-1.221-.522-.05-1.054-.06-1.644-.09-.345-.915.147-1.673.344-2.442.06-.216.424-.423.69-.492 1.142-.305 2.176-.256 3.102.71 1.024 1.073 2.196 2.008 3.319 2.993.177.158.384.266.63.433 1.231-.374 2.55-.492 3.752-1.28.138-.827.276-1.704.434-2.659-.768-.778-1.606-1.517-2.63-2.374v-.03Z" fill="#368AA5" stroke="#231815" stroke-linecap="round" stroke-linejoin="round"/></g><defs><clipPath id="clip0_1119_33416"><path fill="#fff" transform="translate(.052)" d="M0 0h53.763v65H0z"/></clipPath></defs></svg>