<svg fill="none" xmlns="http://www.w3.org/2000/svg" viewBox="0 0 55 65"><g clip-path="url(#clip0_1119_33332)"><path d="M48.575 61.327 21.236 59.8c-3.21-.177-5.86-3.309-5.919-6.992L14.55 6.835c-.05-3.132 1.782-5.643 4.294-6.224L5.075 3.79C2.563 4.374.732 6.885.78 10.017l.768 45.973c.059 3.683 2.708 6.815 5.919 6.992l27.34 1.527c.482.03.955-.02 1.398-.118l13.758-3.172a5.04 5.04 0 0 1-1.398.119l.01-.01Z" fill="#E68169" stroke="#231815" stroke-miterlimit="10"/><path d="M46.872 2.019c3.21.177 5.86 3.309 5.919 6.992l.768 45.973c.059 3.683-2.492 6.52-5.702 6.342L20.517 59.8c-3.21-.177-5.86-3.31-5.919-6.993L13.83 6.835C13.771 3.15 16.322.315 19.532.492l27.34 1.527Z" fill="#fff" stroke="#231815" stroke-linecap="round" stroke-linejoin="round"/><path d="m47.837 61.376-27.34-1.527c-3.21-.177-5.85-3.309-5.908-6.992l-.67-45.993c-.02-1.575.433-2.993 1.201-4.087.78-1.093 1.872-1.87 3.142-2.147l-6.884 1.527c-2.54.561-4.392 3.092-4.353 6.234l.67 45.992c.049 3.684 2.698 6.816 5.909 6.993l27.34 1.526c.472.03.925-.01 1.358-.108l6.884-1.526a4.789 4.789 0 0 1-1.359.108h.01Z" fill="#fff" stroke="#231815" stroke-linecap="round" stroke-linejoin="round"/><path d="M46.98 2.039c3.211.177 5.85 3.309 5.91 6.992l.67 45.992c.048 3.684-2.502 6.52-5.713 6.343l-27.34-1.527c-3.21-.177-5.85-3.309-5.908-6.992l-.67-45.992C13.879 3.17 16.43.325 19.64.512l27.34 1.527Z" fill="#fff" stroke="#231815" stroke-linecap="round" stroke-linejoin="round"/><path d="M23.698 49.715c.148-.266.207-.443.325-.561.916-1.024 1.182-2.226 1.064-3.565-.04-.463-.01-.936 0-1.399.02-.551-.128-1.044-.532-1.438-.906-.876-1.044-2.058-1.23-3.2-.07-.444.107-.818.521-1.015.847-.404 1.714-.748 2.55-1.162a82.386 82.386 0 0 0 2.788-1.448 2.19 2.19 0 0 0 1.123-1.487c.207-.916.66-1.595 1.625-1.87.787-.227 1.201-.818 1.526-1.567.749-1.723 1.842-3.24 2.945-4.757.404-.561.847-1.093 1.25-1.605.611-.04.966.276 1.31.571 1.084.916 1.95 2.01 2.64 3.25.167.306.305.63.502.926.887 1.31 1.123 2.797 1.143 4.323.039 2.108.039 4.206.078 6.313.01.7.07 1.399.178 2.088.206 1.32.03 2.482-.798 3.624-1.605 2.226-3.21 4.452-5.15 6.402-.247.246-.523.463-.818.719-1.034-.355-2.059-.187-3.103-.06-.916.119-1.87.02-2.806.02h-5.82c-.789-.846-.838-2.008-1.31-3.092v-.01Z" fill="#368AA5" stroke="#231815" stroke-linecap="round" stroke-linejoin="round"/><path d="M49.915 15.826c0 .07-.06.109-.167.138a1.25 1.25 0 0 1-.335 0c-.207-.01-.286-.02-.256-.02-.178 0-.266.09-.266.266 0 .109 0 .266.02.493.019.226.019.384.019.492 0 .158-.069.237-.207.237-1.546 0-2.363-.02-2.442-.06-.079-.039-.118-.088-.118-.147 0-.069.03-.237.088-.502.06-.266.089-.453.089-.581 0-.148-.079-.227-.246-.227-.306 0-.749 0-1.35.03-.6.03-1.053.03-1.349.03-.354 0-.542-.139-.542-.424v-1.28c0-.139.07-.276.207-.424.66-.7 1.133-1.26 1.438-1.684.148-.207.63-.985 1.458-2.364.108-.207.285-.492.522-.847.059-.079.128-.118.207-.118.108 0 .443.079 1.004.246.562.168.936.246 1.142.246.148 0 .217.089.217.276 0 .187-.02.443-.059.788a7.55 7.55 0 0 0-.059.798v2.836c.089 0 .236-.01.443-.04.187-.029.335-.039.434-.039.088 0 .128.05.128.158 0 .098 0 .236-.02.423-.02.188-.02.335-.02.434 0 .098 0 .246.02.443s.02.345.02.443l-.02-.02Zm-3.329-4.254s-.02-.04-.05-.04c-.038 0-.078.03-.117.09-.286.462-.572.925-.867 1.388-.345.532-.68.965-1.014 1.29.246 0 .876-.03 1.88-.099 0-.177.04-.62.1-1.33.038-.55.058-.984.058-1.3h.01Z" fill="#E86546"/><path d="M49.915 15.826c0 .07-.06.109-.167.138a1.25 1.25 0 0 1-.335 0c-.207-.01-.286-.02-.256-.02-.178 0-.266.09-.266.266 0 .109 0 .266.02.493.019.226.019.384.019.492 0 .158-.069.237-.207.237-1.546 0-2.363-.02-2.442-.06-.079-.039-.118-.088-.118-.147 0-.069.03-.237.088-.502.06-.266.089-.453.089-.581 0-.148-.079-.227-.246-.227-.306 0-.749 0-1.35.03-.6.03-1.053.03-1.349.03-.354 0-.542-.139-.542-.424v-1.28c0-.139.07-.276.207-.424.66-.7 1.133-1.26 1.438-1.684.148-.207.63-.985 1.458-2.364.108-.207.285-.492.522-.847.059-.079.128-.118.207-.118.108 0 .443.079 1.004.246.562.168.936.246 1.142.246.148 0 .217.089.217.276 0 .187-.02.443-.059.788a7.55 7.55 0 0 0-.059.798v2.836c.089 0 .236-.01.443-.04.187-.029.335-.039.434-.039.088 0 .128.05.128.158 0 .098 0 .236-.02.423-.02.188-.02.335-.02.434 0 .098 0 .246.02.443s.02.345.02.443l-.02-.02Zm-3.329-4.254s-.02-.04-.05-.04c-.038 0-.078.03-.117.09-.286.462-.572.925-.867 1.388-.345.532-.68.965-1.014 1.29.246 0 .876-.03 1.88-.099 0-.177.04-.62.1-1.33.038-.55.058-.984.058-1.3h.01Z" fill="#00698A"/><path d="M29.824 16.762c0 .118-.03.207-.118.266a.562.562 0 0 1-.305.098c-.316 0-.72-.069-1.222-.216-.6-.168-.994-.266-1.191-.296a16.095 16.095 0 0 0-2.256-.157c-.738 0-1.644.069-2.688.197-1.044.128-1.763.315-2.177.551-.148.07-.226.109-.256.118a.553.553 0 0 1-.197.03c-.157 0-.473-.148-.945-.453-.473-.305-.7-.522-.7-.67 0-.049.05-.079.148-.079.158 0 .306 0 .443.03.473.06.73.098.769.098.443 0 1.546-.098 3.299-.285.827-.089 1.497-.138 2.009-.138.61 0 1.073 0 1.389-.02.325-.01.709-.049 1.152-.098.088 0 .335-.05.738-.138.227-.04.385-.069.473-.069.256 0 .601.148 1.015.433.423.286.63.552.63.798h-.01Zm-2.905-6.697v.04c.01.187-.414.325-1.26.393-.533.04-1.055.07-1.577.109-.65.108-1.3.226-1.94.335-.167 0-.453-.109-.847-.325-.394-.217-.6-.375-.6-.473 0-.05.078-.089.226-.108.099 0 .236.01.404.039.167.03.266.04.285.04.572 0 1.172-.06 1.803-.178a6.477 6.477 0 0 0 1.664-.532c.118-.049.207-.079.286-.098.049 0 .108-.01.187-.01.216 0 .502.089.847.256.354.167.532.345.532.522l-.01-.01Zm-.296 3.004c0 .256-.797.433-2.403.512-.876.05-1.438.108-1.684.197-.049.02-.138.05-.256.089a.888.888 0 0 1-.256.059c-.128 0-.384-.119-.768-.365s-.571-.423-.571-.531c0-.05.079-.07.226-.07.099 0 .256.02.473.05.217.03.374.049.463.049.453 0 .985-.06 1.605-.177.61-.118 1.083-.256 1.428-.414.158-.069.325-.108.493-.108.177 0 .433.079.758.226.325.148.492.315.492.483Zm9.957-1.95v.857c.404 0 .72 0 .956-.03.236-.02.58-.108 1.034-.285.118 0 .384.197.797.6.414.394.62.65.62.769 0 .059-.048.147-.137.246a1.325 1.325 0 0 0-.168.197c-.147.197-.295.433-.472.709-.118.177-.266.433-.443.748a1.062 1.062 0 0 1-.306.355.595.595 0 0 1-.384.138.505.505 0 0 1-.364-.168H36.56v1.192c.157 0 .394-.05.689-.158.295-.098.512-.157.64-.157.177 0 .384.04.61.108.227.07.345.177.345.325 0 .217-.334.364-.994.433-.434.03-.857.06-1.29.08v1.181h.216c.424 0 .739 0 .956-.02.216-.02.423-.039.62-.098.197-.05.325-.079.364-.089.05 0 .119-.01.188-.01.315 0 .62.119.935.345.315.227.473.433.473.61 0 .148-.128.227-.384.227h-.099a6.186 6.186 0 0 0-1.369-.374 9.54 9.54 0 0 0-1.457-.108c-.572 0-1.202.039-1.871.118-.68.079-1.212.197-1.596.364-.128.05-.256.118-.394.177a.97.97 0 0 1-.354.099c-.148 0-.375-.108-.66-.335-.286-.226-.434-.404-.434-.532 0-.049.04-.078.109-.088.04 0 .088-.01.148-.01.147 0 .285 0 .393.03.109.02.247.039.394.068.453 0 1.025-.049 1.714-.138.246-.039.6-.088 1.044-.147v-1.143c-.118 0-.295.03-.532.08a2.39 2.39 0 0 1-.551.078c-.148 0-.365-.07-.66-.217-.296-.138-.443-.276-.443-.404 0-.059.049-.098.147-.098l.847.04c.365 0 .759-.04 1.192-.119v-1.201c-.404.069-.808.147-1.211.216-.04.109-.06.187-.08.227-.049.098-.108.147-.206.147-.394 0-.788-.67-1.172-2.018-.207-.73-.384-1.192-.542-1.37-.069-.098-.108-.167-.108-.196 0-.07.05-.109.148-.109.118 0 .285.04.502.119.089.03.207.078.364.147a49.365 49.365 0 0 0 1.182-.177c.542-.089.906-.177 1.113-.256v-.827c-.266 0-.857.098-1.773.305-.916.207-1.497.364-1.753.473-.049.02-.147.079-.305.177-.157.098-.286.148-.384.148-.138 0-.404-.118-.798-.365-.394-.246-.59-.423-.59-.541 0-.02.039-.04.108-.07l1.083.04h.158c.059 0 .157 0 .285-.03l1.97-.285a29.064 29.064 0 0 0 1.94-.335c0-.217-.03-.423-.098-.64-.06-.207-.158-.345-.296-.414-.414.07-.748.128-1.024.158-.276.04-.552.05-.837.05h-.237c-.078 0-.118-.03-.118-.07 0-.04.07-.079.197-.138a1.85 1.85 0 0 1 .305-.118 33.7 33.7 0 0 0 1.576-.551c.768-.296 1.25-.532 1.448-.71.03-.029.05-.147.069-.364.02-.217.098-.325.236-.325.227 0 .512.148.867.453.354.296.532.562.532.788 0 .158-.099.246-.296.266-.197.01-.345.02-.453.02-.197.039-.472.108-.817.206-.345.099-.601.178-.749.217.316.158.532.266.64.315.109.05.158.197.158.453v.325c.739 0 1.408-.01 2.01-.04.6-.029 1.004-.088 1.21-.186.148-.06.276-.099.394-.099.217 0 .503.099.877.306.364.206.552.413.552.62 0 .089-.04.158-.129.207a.547.547 0 0 1-.275.069l-.197-.03a26.036 26.036 0 0 0-2.216-.335 21.44 21.44 0 0 0-2.216-.118l.04.02Zm-1.053 2.255v-.807l-2 .305c.05.098.099.217.148.364.06.148.089.276.108.394l.266.03c.227 0 .473-.03.739-.089s.512-.128.729-.207l.01.01Zm0 1.537v-.936c-.09 0-.266.02-.513.05a5.56 5.56 0 0 1-.551.048c-.217 0-.394-.03-.522-.098l.285 1.113c.138-.05.355-.079.65-.099.296-.02.513-.049.65-.078Zm1.053-2.482v.748h.138c.325 0 .571.03.749.099.177.069.266.148.266.246s-.099.177-.306.256c-.207.079-.482.108-.847.108v.897h1.202c.069-.158.197-.522.374-1.084.177-.561.266-.886.266-.995 0-.137-.079-.226-.236-.285a1.801 1.801 0 0 0-.62-.089c-.237 0-.444.01-.631.04s-.306.049-.365.049l.01.01Z" fill="#231815"/><path d="M29.824 16.762c0 .118-.03.207-.118.266a.562.562 0 0 1-.305.098c-.316 0-.72-.069-1.222-.216-.6-.168-.994-.266-1.191-.296a16.095 16.095 0 0 0-2.256-.157c-.738 0-1.644.069-2.688.197-1.044.128-1.763.315-2.177.551-.148.07-.226.109-.256.118a.553.553 0 0 1-.197.03c-.157 0-.473-.148-.945-.453-.473-.305-.7-.522-.7-.67 0-.049.05-.079.148-.079.158 0 .306 0 .443.03.473.06.73.098.769.098.443 0 1.546-.098 3.299-.285.827-.089 1.497-.138 2.009-.138.61 0 1.073 0 1.389-.02.325-.01.709-.049 1.152-.098.088 0 .335-.05.738-.138.227-.04.385-.069.473-.069.256 0 .601.148 1.015.433.423.286.63.552.63.798h-.01Zm-2.905-6.697v.04c.01.187-.414.325-1.26.393-.533.04-1.055.07-1.577.109-.65.108-1.3.226-1.94.335-.167 0-.453-.109-.847-.325-.394-.217-.6-.375-.6-.473 0-.05.078-.089.226-.108.099 0 .236.01.404.039.167.03.266.04.285.04.572 0 1.172-.06 1.803-.178a6.477 6.477 0 0 0 1.664-.532c.118-.049.207-.079.286-.098.049 0 .108-.01.187-.01.216 0 .502.089.847.256.354.167.532.345.532.522l-.01-.01Zm-.296 3.004c0 .256-.797.433-2.403.512-.876.05-1.438.108-1.684.197-.049.02-.138.05-.256.089a.888.888 0 0 1-.256.059c-.128 0-.384-.119-.768-.365s-.571-.423-.571-.531c0-.05.079-.07.226-.07.099 0 .256.02.473.05.217.03.374.049.463.049.453 0 .985-.06 1.605-.177.61-.118 1.083-.256 1.428-.414.158-.069.325-.108.493-.108.177 0 .433.079.758.226.325.148.492.315.492.483Zm9.957-1.95v.857c.404 0 .72 0 .956-.03.236-.02.58-.108 1.034-.285.118 0 .384.197.797.6.414.394.62.65.62.769 0 .059-.048.147-.137.246a1.325 1.325 0 0 0-.168.197c-.147.197-.295.433-.472.709-.118.177-.266.433-.443.748a1.062 1.062 0 0 1-.306.355.595.595 0 0 1-.384.138.505.505 0 0 1-.364-.168H36.56v1.192c.157 0 .394-.05.689-.158.295-.098.512-.157.64-.157.177 0 .384.04.61.108.227.07.345.177.345.325 0 .217-.334.364-.994.433-.434.03-.857.06-1.29.08v1.181h.216c.424 0 .739 0 .956-.02.216-.02.423-.039.62-.098.197-.05.325-.079.364-.089.05 0 .119-.01.188-.01.315 0 .62.119.935.345.315.227.473.433.473.61 0 .148-.128.227-.384.227h-.099a6.186 6.186 0 0 0-1.369-.374 9.54 9.54 0 0 0-1.457-.108c-.572 0-1.202.039-1.871.118-.68.079-1.212.197-1.596.364-.128.05-.256.118-.394.177a.97.97 0 0 1-.354.099c-.148 0-.375-.108-.66-.335-.286-.226-.434-.404-.434-.532 0-.049.04-.078.109-.088.04 0 .088-.01.148-.01.147 0 .285 0 .393.03.109.02.247.039.394.068.453 0 1.025-.049 1.714-.138.246-.039.6-.088 1.044-.147v-1.143c-.118 0-.295.03-.532.08a2.39 2.39 0 0 1-.551.078c-.148 0-.365-.07-.66-.217-.296-.138-.443-.276-.443-.404 0-.059.049-.098.147-.098l.847.04c.365 0 .759-.04 1.192-.119v-1.201c-.404.069-.808.147-1.211.216-.04.109-.06.187-.08.227-.049.098-.108.147-.206.147-.394 0-.788-.67-1.172-2.018-.207-.73-.384-1.192-.542-1.37-.069-.098-.108-.167-.108-.196 0-.07.05-.109.148-.109.118 0 .285.04.502.119.089.03.207.078.364.147a49.365 49.365 0 0 0 1.182-.177c.542-.089.906-.177 1.113-.256v-.827c-.266 0-.857.098-1.773.305-.916.207-1.497.364-1.753.473-.049.02-.147.079-.305.177-.157.098-.286.148-.384.148-.138 0-.404-.118-.798-.365-.394-.246-.59-.423-.59-.541 0-.02.039-.04.108-.07l1.083.04h.158c.059 0 .157 0 .285-.03l1.97-.285a29.064 29.064 0 0 0 1.94-.335c0-.217-.03-.423-.098-.64-.06-.207-.158-.345-.296-.414-.414.07-.748.128-1.024.158-.276.04-.552.05-.837.05h-.237c-.078 0-.118-.03-.118-.07 0-.04.07-.079.197-.138a1.85 1.85 0 0 1 .305-.118 33.7 33.7 0 0 0 1.576-.551c.768-.296 1.25-.532 1.448-.71.03-.029.05-.147.069-.364.02-.217.098-.325.236-.325.227 0 .512.148.867.453.354.296.532.562.532.788 0 .158-.099.246-.296.266-.197.01-.345.02-.453.02-.197.039-.472.108-.817.206-.345.099-.601.178-.749.217.316.158.532.266.64.315.109.05.158.197.158.453v.325c.739 0 1.408-.01 2.01-.04.6-.029 1.004-.088 1.21-.186.148-.06.276-.099.394-.099.217 0 .503.099.877.306.364.206.552.413.552.62 0 .089-.04.158-.129.207a.547.547 0 0 1-.275.069l-.197-.03a26.036 26.036 0 0 0-2.216-.335 21.44 21.44 0 0 0-2.216-.118l.04.02Zm-1.053 2.255v-.807l-2 .305c.05.098.099.217.148.364.06.148.089.276.108.394l.266.03c.227 0 .473-.03.739-.089s.512-.128.729-.207l.01.01Zm0 1.537v-.936c-.09 0-.266.02-.513.05a5.56 5.56 0 0 1-.551.048c-.217 0-.394-.03-.522-.098l.285 1.113c.138-.05.355-.079.65-.099.296-.02.513-.049.65-.078Zm1.053-2.482v.748h.138c.325 0 .571.03.749.099.177.069.266.148.266.246s-.099.177-.306.256c-.207.079-.482.108-.847.108v.897h1.202c.069-.158.197-.522.374-1.084.177-.561.266-.886.266-.995 0-.137-.079-.226-.236-.285a1.801 1.801 0 0 0-.62-.089c-.237 0-.444.01-.631.04s-.306.049-.365.049l.01.01Z" stroke="#231815" stroke-width="2"/><path d="M29.824 16.762c0 .118-.03.207-.118.266a.562.562 0 0 1-.305.098c-.316 0-.72-.069-1.222-.216-.6-.168-.994-.266-1.191-.296a16.095 16.095 0 0 0-2.256-.157c-.738 0-1.644.069-2.688.197-1.044.128-1.763.315-2.177.551-.148.07-.226.109-.256.118a.553.553 0 0 1-.197.03c-.157 0-.473-.148-.945-.453-.473-.305-.7-.522-.7-.67 0-.049.05-.079.148-.079.158 0 .306 0 .443.03.473.06.73.098.769.098.443 0 1.546-.098 3.299-.285.827-.089 1.497-.138 2.009-.138.61 0 1.073 0 1.389-.02.325-.01.709-.049 1.152-.098.088 0 .335-.05.738-.138.227-.04.385-.069.473-.069.256 0 .601.148 1.015.433.423.286.63.552.63.798h-.01Zm-2.905-6.697v.04c.01.187-.414.325-1.26.393-.533.04-1.055.07-1.577.109-.65.108-1.3.226-1.94.335-.167 0-.453-.109-.847-.325-.394-.217-.6-.375-.6-.473 0-.05.078-.089.226-.108.099 0 .236.01.404.039.167.03.266.04.285.04.572 0 1.172-.06 1.803-.178a6.477 6.477 0 0 0 1.664-.532c.118-.049.207-.079.286-.098.049 0 .108-.01.187-.01.216 0 .502.089.847.256.354.167.532.345.532.522l-.01-.01Zm-.296 3.004c0 .256-.797.433-2.403.512-.876.05-1.438.108-1.684.197-.049.02-.138.05-.256.089a.888.888 0 0 1-.256.059c-.128 0-.384-.119-.768-.365s-.571-.423-.571-.531c0-.05.079-.07.226-.07.099 0 .256.02.473.05.217.03.374.049.463.049.453 0 .985-.06 1.605-.177.61-.118 1.083-.256 1.428-.414.158-.069.325-.108.493-.108.177 0 .433.079.758.226.325.148.492.315.492.483Zm9.957-1.95v.857c.404 0 .72 0 .956-.03.236-.02.58-.108 1.034-.285.118 0 .384.197.797.6.414.394.62.65.62.769 0 .059-.048.147-.137.246a1.325 1.325 0 0 0-.168.197c-.147.197-.295.433-.472.709-.118.177-.266.433-.443.748a1.062 1.062 0 0 1-.306.355.595.595 0 0 1-.384.138.505.505 0 0 1-.364-.168H36.56v1.192c.157 0 .394-.05.689-.158.295-.098.512-.157.64-.157.177 0 .384.04.61.108.227.07.345.177.345.325 0 .217-.334.364-.994.433-.434.03-.857.06-1.29.08v1.181h.216c.424 0 .739 0 .956-.02.216-.02.423-.039.62-.098.197-.05.325-.079.364-.089.05 0 .119-.01.188-.01.315 0 .62.119.935.345.315.227.473.433.473.61 0 .148-.128.227-.384.227h-.099a6.186 6.186 0 0 0-1.369-.374 9.54 9.54 0 0 0-1.457-.108c-.572 0-1.202.039-1.871.118-.68.079-1.212.197-1.596.364-.128.05-.256.118-.394.177a.97.97 0 0 1-.354.099c-.148 0-.375-.108-.66-.335-.286-.226-.434-.404-.434-.532 0-.049.04-.078.109-.088.04 0 .088-.01.148-.01.147 0 .285 0 .393.03.109.02.247.039.394.068.453 0 1.025-.049 1.714-.138.246-.039.6-.088 1.044-.147v-1.143c-.118 0-.295.03-.532.08a2.39 2.39 0 0 1-.551.078c-.148 0-.365-.07-.66-.217-.296-.138-.443-.276-.443-.404 0-.059.049-.098.147-.098l.847.04c.365 0 .759-.04 1.192-.119v-1.201c-.404.069-.808.147-1.211.216-.04.109-.06.187-.08.227-.049.098-.108.147-.206.147-.394 0-.788-.67-1.172-2.018-.207-.73-.384-1.192-.542-1.37-.069-.098-.108-.167-.108-.196 0-.07.05-.109.148-.109.118 0 .285.04.502.119.089.03.207.078.364.147a49.365 49.365 0 0 0 1.182-.177c.542-.089.906-.177 1.113-.256v-.827c-.266 0-.857.098-1.773.305-.916.207-1.497.364-1.753.473-.049.02-.147.079-.305.177-.157.098-.286.148-.384.148-.138 0-.404-.118-.798-.365-.394-.246-.59-.423-.59-.541 0-.02.039-.04.108-.07l1.083.04h.158c.059 0 .157 0 .285-.03l1.97-.285a29.064 29.064 0 0 0 1.94-.335c0-.217-.03-.423-.098-.64-.06-.207-.158-.345-.296-.414-.414.07-.748.128-1.024.158-.276.04-.552.05-.837.05h-.237c-.078 0-.118-.03-.118-.07 0-.04.07-.079.197-.138a1.85 1.85 0 0 1 .305-.118 33.7 33.7 0 0 0 1.576-.551c.768-.296 1.25-.532 1.448-.71.03-.029.05-.147.069-.364.02-.217.098-.325.236-.325.227 0 .512.148.867.453.354.296.532.562.532.788 0 .158-.099.246-.296.266-.197.01-.345.02-.453.02-.197.039-.472.108-.817.206-.345.099-.601.178-.749.217.316.158.532.266.64.315.109.05.158.197.158.453v.325c.739 0 1.408-.01 2.01-.04.6-.029 1.004-.088 1.21-.186.148-.06.276-.099.394-.099.217 0 .503.099.877.306.364.206.552.413.552.62 0 .089-.04.158-.129.207a.547.547 0 0 1-.275.069l-.197-.03a26.036 26.036 0 0 0-2.216-.335 21.44 21.44 0 0 0-2.216-.118l.04.02Zm-1.053 2.255v-.807l-2 .305c.05.098.099.217.148.364.06.148.089.276.108.394l.266.03c.227 0 .473-.03.739-.089s.512-.128.729-.207l.01.01Zm0 1.537v-.936c-.09 0-.266.02-.513.05a5.56 5.56 0 0 1-.551.048c-.217 0-.394-.03-.522-.098l.285 1.113c.138-.05.355-.079.65-.099.296-.02.513-.049.65-.078Zm1.053-2.482v.748h.138c.325 0 .571.03.749.099.177.069.266.148.266.246s-.099.177-.306.256c-.207.079-.482.108-.847.108v.897h1.202c.069-.158.197-.522.374-1.084.177-.561.266-.886.266-.995 0-.137-.079-.226-.236-.285a1.801 1.801 0 0 0-.62-.089c-.237 0-.444.01-.631.04s-.306.049-.365.049l.01.01Z" fill="#E68169"/></g><defs><clipPath id="clip0_1119_33332"><path fill="#fff" transform="translate(.289)" d="M0 0h53.763v65H0z"/></clipPath></defs></svg>