<svg fill="none" xmlns="http://www.w3.org/2000/svg" viewBox="0 0 54 65"><g clip-path="url(#clip0_1119_33290)"><path d="M48.287 61.327 20.947 59.8c-3.21-.177-5.86-3.309-5.918-6.992L14.26 6.835c-.049-3.132 1.783-5.643 4.294-6.224L4.786 3.79C2.275 4.374.443 6.885.492 10.017L1.26 55.99c.06 3.683 2.709 6.815 5.92 6.992l27.339 1.527c.482.03.955-.02 1.398-.118l13.758-3.172a5.04 5.04 0 0 1-1.398.119l.01-.01Z" fill="#E68169" stroke="#231815" stroke-miterlimit="10"/><path d="M46.583 2.019c3.21.177 5.86 3.309 5.92 6.992l.767 45.973c.06 3.683-2.491 6.52-5.702 6.342L20.228 59.8c-3.21-.177-5.86-3.31-5.918-6.993l-.77-45.972C13.482 3.15 16.034.315 19.244.492l27.34 1.527Z" fill="#fff" stroke="#231815" stroke-linecap="round" stroke-linejoin="round"/><path d="m47.549 61.376-27.34-1.527c-3.21-.177-5.85-3.309-5.909-6.992l-.67-45.993c-.02-1.575.434-2.993 1.202-4.087.778-1.093 1.871-1.87 3.142-2.147l-6.885 1.527c-2.54.561-4.392 3.092-4.353 6.234l.67 45.992c.05 3.684 2.699 6.816 5.91 6.993l27.339 1.526c.472.03.925-.01 1.359-.108l6.884-1.526a4.789 4.789 0 0 1-1.36.108h.01Z" fill="#fff" stroke="#231815" stroke-linecap="round" stroke-linejoin="round"/><path d="M46.692 2.039c3.21.177 5.85 3.309 5.909 6.992l.67 45.992c.049 3.684-2.502 6.52-5.712 6.343l-27.34-1.527c-3.21-.177-5.85-3.309-5.909-6.992l-.67-45.992C13.591 3.17 16.142.325 19.352.512l27.34 1.527Z" fill="#fff" stroke="#231815" stroke-linecap="round" stroke-linejoin="round"/><path d="M23.41 49.715c.148-.266.207-.443.325-.561.916-1.024 1.182-2.226 1.063-3.565-.039-.463-.01-.936 0-1.399.02-.551-.128-1.044-.531-1.438-.907-.876-1.044-2.058-1.232-3.2-.068-.444.109-.818.523-1.015.846-.404 1.713-.748 2.55-1.162a82.386 82.386 0 0 0 2.787-1.448 2.188 2.188 0 0 0 1.123-1.487c.207-.916.66-1.595 1.625-1.87.788-.227 1.202-.818 1.527-1.567.748-1.723 1.841-3.24 2.944-4.757.404-.561.847-1.093 1.251-1.605.61-.04.965.276 1.31.571 1.083.916 1.95 2.01 2.64 3.25.167.306.305.63.502.926.886 1.31 1.122 2.797 1.142 4.323.04 2.108.04 4.206.079 6.313.01.7.069 1.399.177 2.088.207 1.32.03 2.482-.798 3.624-1.605 2.226-3.21 4.452-5.15 6.402-.247.246-.522.463-.818.719-1.034-.355-2.058-.187-3.102-.06-.916.119-1.871.02-2.807.02h-5.82c-.788-.846-.837-2.008-1.31-3.092v-.01Z" fill="#368AA5" stroke="#231815" stroke-linecap="round" stroke-linejoin="round"/><path d="M47.509 16.998a.31.31 0 0 1-.118.237.371.371 0 0 1-.246.108h-1.931c-.167 0-.246-.069-.246-.216v-.08c.069-1.713.098-2.757.098-3.121v-2c0-.127-.03-.187-.088-.187-.089 0-.227.03-.404.08a1.772 1.772 0 0 1-.414.078c-.137 0-.206-.079-.206-.246v-1.38c0-.088.059-.157.167-.206.66-.276 1.182-.64 1.556-1.103.079-.098.138-.138.197-.138 0 0 .04 0 .079.01.167.04.423.089.758.167.178.02.443.06.788.119.06.02.099.069.099.147 0 .03 0 .08-.01.138-.05.394-.08 1.36-.08 2.906 0 .512 0 1.29.01 2.334s.01 1.812.01 2.334l-.02.02Z" fill="#E86546"/><path d="M47.509 16.998a.31.31 0 0 1-.118.237.371.371 0 0 1-.246.108h-1.931c-.167 0-.246-.069-.246-.216v-.08c.069-1.713.098-2.757.098-3.121v-2c0-.127-.03-.187-.088-.187-.089 0-.227.03-.404.08a1.772 1.772 0 0 1-.414.078c-.137 0-.206-.079-.206-.246v-1.38c0-.088.059-.157.167-.206.66-.276 1.182-.64 1.556-1.103.079-.098.138-.138.197-.138 0 0 .04 0 .079.01.167.04.423.089.758.167.178.02.443.06.788.119.06.02.099.069.099.147 0 .03 0 .08-.01.138-.05.394-.08 1.36-.08 2.906 0 .512 0 1.29.01 2.334s.01 1.812.01 2.334l-.02.02Z" fill="#00698A"/><path d="M29.535 16.762c0 .118-.029.207-.118.266a.562.562 0 0 1-.305.098c-.315 0-.719-.069-1.221-.216-.601-.168-.995-.266-1.192-.296a16.092 16.092 0 0 0-2.255-.157c-.739 0-1.645.069-2.689.197s-1.763.315-2.176.551c-.148.07-.227.109-.256.118a.553.553 0 0 1-.197.03c-.158 0-.473-.148-.946-.453-.473-.305-.699-.522-.699-.67 0-.049.05-.079.148-.079.157 0 .305 0 .443.03.473.06.729.098.768.098.443 0 1.546-.098 3.3-.285.827-.089 1.496-.138 2.008-.138.611 0 1.074 0 1.389-.02.325-.01.71-.049 1.152-.098.089 0 .335-.05.739-.138.226-.04.384-.069.473-.069.256 0 .6.148 1.014.433.424.286.63.552.63.798h-.01Zm-2.905-6.697v.04c.01.187-.413.325-1.26.393-.532.04-1.054.07-1.576.109-.65.108-1.3.226-1.94.335-.168 0-.453-.109-.847-.325-.394-.217-.601-.375-.601-.473 0-.05.079-.089.227-.108.098 0 .236.01.403.039.168.03.266.04.286.04.571 0 1.172-.06 1.802-.178a6.476 6.476 0 0 0 1.665-.532c.118-.049.206-.079.285-.098.05 0 .108-.01.187-.01.217 0 .503.089.847.256.355.167.532.345.532.522l-.01-.01Zm-.295 3.004c0 .256-.798.433-2.403.512-.877.05-1.438.108-1.684.197-.05.02-.138.05-.256.089a.89.89 0 0 1-.257.059c-.127 0-.384-.119-.768-.365s-.57-.423-.57-.531c0-.05.078-.07.226-.07.098 0 .256.02.472.05.217.03.375.049.463.049.453 0 .985-.06 1.605-.177.611-.118 1.084-.256 1.429-.414a1.23 1.23 0 0 1 .492-.108c.177 0 .433.079.758.226.325.148.493.315.493.483Zm9.957-1.95v.857c.404 0 .719 0 .955-.03.236-.02.581-.108 1.034-.285.118 0 .384.197.798.6.413.394.62.65.62.769 0 .059-.049.147-.138.246a1.322 1.322 0 0 0-.167.197c-.148.197-.295.433-.473.709-.118.177-.266.433-.443.748a1.063 1.063 0 0 1-.305.355.595.595 0 0 1-.384.138.504.504 0 0 1-.365-.168h-1.152v1.192c.158 0 .394-.05.69-.158.295-.098.511-.157.64-.157.177 0 .384.04.61.108.227.07.345.177.345.325 0 .217-.335.364-.995.433-.433.03-.857.06-1.29.08v1.181h.217c.423 0 .738 0 .955-.02a3.16 3.16 0 0 0 .62-.098c.197-.05.325-.079.365-.089.05 0 .118-.01.187-.01.315 0 .62.119.935.345.316.227.473.433.473.61 0 .148-.128.227-.384.227h-.098a6.186 6.186 0 0 0-1.37-.374 9.54 9.54 0 0 0-1.457-.108c-.571 0-1.201.039-1.871.118-.68.079-1.211.197-1.596.364-.127.05-.255.118-.393.177a.97.97 0 0 1-.355.099c-.148 0-.374-.108-.66-.335-.285-.226-.433-.404-.433-.532 0-.049.04-.078.108-.088.04 0 .089-.01.148-.01.148 0 .285 0 .394.03.108.02.246.039.394.068.453 0 1.024-.049 1.713-.138.247-.039.601-.088 1.044-.147v-1.143c-.118 0-.295.03-.532.08a2.39 2.39 0 0 1-.551.078c-.148 0-.364-.07-.66-.217-.295-.138-.443-.276-.443-.404 0-.059.05-.098.148-.098l.847.04c.364 0 .758-.04 1.191-.119v-1.201c-.403.069-.807.147-1.211.216-.04.109-.06.187-.079.227-.049.098-.108.147-.207.147-.393 0-.788-.67-1.172-2.018-.206-.73-.384-1.192-.541-1.37-.07-.098-.109-.167-.109-.196 0-.07.05-.109.148-.109.118 0 .286.04.502.119.09.03.207.078.365.147a49.365 49.365 0 0 0 1.182-.177c.541-.089.906-.177 1.113-.256v-.827c-.266 0-.857.098-1.773.305-.916.207-1.497.364-1.753.473a2.78 2.78 0 0 0-.305.177c-.158.098-.286.148-.385.148-.137 0-.403-.118-.797-.365-.394-.246-.591-.423-.591-.541 0-.02.04-.04.108-.07l1.083.04h.158c.06 0 .158 0 .286-.03l1.97-.285a29.07 29.07 0 0 0 1.94-.335c0-.217-.03-.423-.1-.64-.058-.207-.157-.345-.294-.414-.414.07-.749.128-1.025.158-.275.04-.551.05-.837.05h-.236c-.079 0-.118-.03-.118-.07 0-.04.069-.079.197-.138.128-.059.226-.098.305-.118.61-.197 1.132-.384 1.576-.551.768-.296 1.25-.532 1.447-.71.03-.029.05-.147.07-.364.019-.217.098-.325.236-.325.226 0 .512.148.866.453.355.296.532.562.532.788 0 .158-.098.246-.295.266-.197.01-.345.02-.453.02-.197.039-.473.108-.818.206-.344.099-.6.178-.748.217.315.158.532.266.64.315.108.05.157.197.157.453v.325c.74 0 1.409-.01 2.01-.04.6-.029 1.004-.088 1.21-.186.149-.06.277-.099.395-.099.217 0 .502.099.876.306.365.206.552.413.552.62 0 .089-.04.158-.128.207a.546.546 0 0 1-.276.069l-.197-.03a26.036 26.036 0 0 0-2.216-.335 21.44 21.44 0 0 0-2.216-.118l.04.02Zm-1.054 2.255v-.807l-2 .305c.05.098.1.217.148.364.06.148.089.276.109.394l.266.03c.226 0 .472-.03.738-.089s.512-.128.73-.207l.009.01Zm0 1.537v-.936c-.089 0-.266.02-.512.05a5.574 5.574 0 0 1-.552.048c-.216 0-.394-.03-.522-.098l.286 1.113c.138-.05.354-.079.65-.099.295-.02.512-.049.65-.078Zm1.054-2.482v.748h.138c.325 0 .57.03.748.099.177.069.266.148.266.246s-.099.177-.305.256c-.207.079-.483.108-.847.108v.897h1.201c.07-.158.197-.522.374-1.084.178-.561.266-.886.266-.995 0-.137-.078-.226-.236-.285a1.801 1.801 0 0 0-.62-.089c-.237 0-.444.01-.63.04-.188.03-.306.049-.365.049l.01.01Z" fill="#231815"/><path d="M29.535 16.762c0 .118-.029.207-.118.266a.562.562 0 0 1-.305.098c-.315 0-.719-.069-1.221-.216-.601-.168-.995-.266-1.192-.296a16.092 16.092 0 0 0-2.255-.157c-.739 0-1.645.069-2.689.197s-1.763.315-2.176.551c-.148.07-.227.109-.256.118a.553.553 0 0 1-.197.03c-.158 0-.473-.148-.946-.453-.473-.305-.699-.522-.699-.67 0-.049.05-.079.148-.079.157 0 .305 0 .443.03.473.06.729.098.768.098.443 0 1.546-.098 3.3-.285.827-.089 1.496-.138 2.008-.138.611 0 1.074 0 1.389-.02.325-.01.71-.049 1.152-.098.089 0 .335-.05.739-.138.226-.04.384-.069.473-.069.256 0 .6.148 1.014.433.424.286.63.552.63.798h-.01Zm-2.905-6.697v.04c.01.187-.413.325-1.26.393-.532.04-1.054.07-1.576.109-.65.108-1.3.226-1.94.335-.168 0-.453-.109-.847-.325-.394-.217-.601-.375-.601-.473 0-.05.079-.089.227-.108.098 0 .236.01.403.039.168.03.266.04.286.04.571 0 1.172-.06 1.802-.178a6.476 6.476 0 0 0 1.665-.532c.118-.049.206-.079.285-.098.05 0 .108-.01.187-.01.217 0 .503.089.847.256.355.167.532.345.532.522l-.01-.01Zm-.295 3.004c0 .256-.798.433-2.403.512-.877.05-1.438.108-1.684.197-.05.02-.138.05-.256.089a.89.89 0 0 1-.257.059c-.127 0-.384-.119-.768-.365s-.57-.423-.57-.531c0-.05.078-.07.226-.07.098 0 .256.02.472.05.217.03.375.049.463.049.453 0 .985-.06 1.605-.177.611-.118 1.084-.256 1.429-.414a1.23 1.23 0 0 1 .492-.108c.177 0 .433.079.758.226.325.148.493.315.493.483Zm9.957-1.95v.857c.404 0 .719 0 .955-.03.236-.02.581-.108 1.034-.285.118 0 .384.197.798.6.413.394.62.65.62.769 0 .059-.049.147-.138.246a1.322 1.322 0 0 0-.167.197c-.148.197-.295.433-.473.709-.118.177-.266.433-.443.748a1.063 1.063 0 0 1-.305.355.595.595 0 0 1-.384.138.504.504 0 0 1-.365-.168h-1.152v1.192c.158 0 .394-.05.69-.158.295-.098.511-.157.64-.157.177 0 .384.04.61.108.227.07.345.177.345.325 0 .217-.335.364-.995.433-.433.03-.857.06-1.29.08v1.181h.217c.423 0 .738 0 .955-.02a3.16 3.16 0 0 0 .62-.098c.197-.05.325-.079.365-.089.05 0 .118-.01.187-.01.315 0 .62.119.935.345.316.227.473.433.473.61 0 .148-.128.227-.384.227h-.098a6.186 6.186 0 0 0-1.37-.374 9.54 9.54 0 0 0-1.457-.108c-.571 0-1.201.039-1.871.118-.68.079-1.211.197-1.596.364-.127.05-.255.118-.393.177a.97.97 0 0 1-.355.099c-.148 0-.374-.108-.66-.335-.285-.226-.433-.404-.433-.532 0-.049.04-.078.108-.088.04 0 .089-.01.148-.01.148 0 .285 0 .394.03.108.02.246.039.394.068.453 0 1.024-.049 1.713-.138.247-.039.601-.088 1.044-.147v-1.143c-.118 0-.295.03-.532.08a2.39 2.39 0 0 1-.551.078c-.148 0-.364-.07-.66-.217-.295-.138-.443-.276-.443-.404 0-.059.05-.098.148-.098l.847.04c.364 0 .758-.04 1.191-.119v-1.201c-.403.069-.807.147-1.211.216-.04.109-.06.187-.079.227-.049.098-.108.147-.207.147-.393 0-.788-.67-1.172-2.018-.206-.73-.384-1.192-.541-1.37-.07-.098-.109-.167-.109-.196 0-.07.05-.109.148-.109.118 0 .286.04.502.119.09.03.207.078.365.147a49.365 49.365 0 0 0 1.182-.177c.541-.089.906-.177 1.113-.256v-.827c-.266 0-.857.098-1.773.305-.916.207-1.497.364-1.753.473a2.78 2.78 0 0 0-.305.177c-.158.098-.286.148-.385.148-.137 0-.403-.118-.797-.365-.394-.246-.591-.423-.591-.541 0-.02.04-.04.108-.07l1.083.04h.158c.06 0 .158 0 .286-.03l1.97-.285a29.07 29.07 0 0 0 1.94-.335c0-.217-.03-.423-.1-.64-.058-.207-.157-.345-.294-.414-.414.07-.749.128-1.025.158-.275.04-.551.05-.837.05h-.236c-.079 0-.118-.03-.118-.07 0-.04.069-.079.197-.138.128-.059.226-.098.305-.118.61-.197 1.132-.384 1.576-.551.768-.296 1.25-.532 1.447-.71.03-.029.05-.147.07-.364.019-.217.098-.325.236-.325.226 0 .512.148.866.453.355.296.532.562.532.788 0 .158-.098.246-.295.266-.197.01-.345.02-.453.02-.197.039-.473.108-.818.206-.344.099-.6.178-.748.217.315.158.532.266.64.315.108.05.157.197.157.453v.325c.74 0 1.409-.01 2.01-.04.6-.029 1.004-.088 1.21-.186.149-.06.277-.099.395-.099.217 0 .502.099.876.306.365.206.552.413.552.62 0 .089-.04.158-.128.207a.546.546 0 0 1-.276.069l-.197-.03a26.036 26.036 0 0 0-2.216-.335 21.44 21.44 0 0 0-2.216-.118l.04.02Zm-1.054 2.255v-.807l-2 .305c.05.098.1.217.148.364.06.148.089.276.109.394l.266.03c.226 0 .472-.03.738-.089s.512-.128.73-.207l.009.01Zm0 1.537v-.936c-.089 0-.266.02-.512.05a5.574 5.574 0 0 1-.552.048c-.216 0-.394-.03-.522-.098l.286 1.113c.138-.05.354-.079.65-.099.295-.02.512-.049.65-.078Zm1.054-2.482v.748h.138c.325 0 .57.03.748.099.177.069.266.148.266.246s-.099.177-.305.256c-.207.079-.483.108-.847.108v.897h1.201c.07-.158.197-.522.374-1.084.178-.561.266-.886.266-.995 0-.137-.078-.226-.236-.285a1.801 1.801 0 0 0-.62-.089c-.237 0-.444.01-.63.04-.188.03-.306.049-.365.049l.01.01Z" stroke="#231815" stroke-width="2"/><path d="M29.535 16.762c0 .118-.029.207-.118.266a.562.562 0 0 1-.305.098c-.315 0-.719-.069-1.221-.216-.601-.168-.995-.266-1.192-.296a16.092 16.092 0 0 0-2.255-.157c-.739 0-1.645.069-2.689.197s-1.763.315-2.176.551c-.148.07-.227.109-.256.118a.553.553 0 0 1-.197.03c-.158 0-.473-.148-.946-.453-.473-.305-.699-.522-.699-.67 0-.049.05-.079.148-.079.157 0 .305 0 .443.03.473.06.729.098.768.098.443 0 1.546-.098 3.3-.285.827-.089 1.496-.138 2.008-.138.611 0 1.074 0 1.389-.02.325-.01.71-.049 1.152-.098.089 0 .335-.05.739-.138.226-.04.384-.069.473-.069.256 0 .6.148 1.014.433.424.286.63.552.63.798h-.01Zm-2.905-6.697v.04c.01.187-.413.325-1.26.393-.532.04-1.054.07-1.576.109-.65.108-1.3.226-1.94.335-.168 0-.453-.109-.847-.325-.394-.217-.601-.375-.601-.473 0-.05.079-.089.227-.108.098 0 .236.01.403.039.168.03.266.04.286.04.571 0 1.172-.06 1.802-.178a6.476 6.476 0 0 0 1.665-.532c.118-.049.206-.079.285-.098.05 0 .108-.01.187-.01.217 0 .503.089.847.256.355.167.532.345.532.522l-.01-.01Zm-.295 3.004c0 .256-.798.433-2.403.512-.877.05-1.438.108-1.684.197-.05.02-.138.05-.256.089a.89.89 0 0 1-.257.059c-.127 0-.384-.119-.768-.365s-.57-.423-.57-.531c0-.05.078-.07.226-.07.098 0 .256.02.472.05.217.03.375.049.463.049.453 0 .985-.06 1.605-.177.611-.118 1.084-.256 1.429-.414a1.23 1.23 0 0 1 .492-.108c.177 0 .433.079.758.226.325.148.493.315.493.483Zm9.957-1.95v.857c.404 0 .719 0 .955-.03.236-.02.581-.108 1.034-.285.118 0 .384.197.798.6.413.394.62.65.62.769 0 .059-.049.147-.138.246a1.322 1.322 0 0 0-.167.197c-.148.197-.295.433-.473.709-.118.177-.266.433-.443.748a1.063 1.063 0 0 1-.305.355.595.595 0 0 1-.384.138.504.504 0 0 1-.365-.168h-1.152v1.192c.158 0 .394-.05.69-.158.295-.098.511-.157.64-.157.177 0 .384.04.61.108.227.07.345.177.345.325 0 .217-.335.364-.995.433-.433.03-.857.06-1.29.08v1.181h.217c.423 0 .738 0 .955-.02a3.16 3.16 0 0 0 .62-.098c.197-.05.325-.079.365-.089.05 0 .118-.01.187-.01.315 0 .62.119.935.345.316.227.473.433.473.61 0 .148-.128.227-.384.227h-.098a6.186 6.186 0 0 0-1.37-.374 9.54 9.54 0 0 0-1.457-.108c-.571 0-1.201.039-1.871.118-.68.079-1.211.197-1.596.364-.127.05-.255.118-.393.177a.97.97 0 0 1-.355.099c-.148 0-.374-.108-.66-.335-.285-.226-.433-.404-.433-.532 0-.049.04-.078.108-.088.04 0 .089-.01.148-.01.148 0 .285 0 .394.03.108.02.246.039.394.068.453 0 1.024-.049 1.713-.138.247-.039.601-.088 1.044-.147v-1.143c-.118 0-.295.03-.532.08a2.39 2.39 0 0 1-.551.078c-.148 0-.364-.07-.66-.217-.295-.138-.443-.276-.443-.404 0-.059.05-.098.148-.098l.847.04c.364 0 .758-.04 1.191-.119v-1.201c-.403.069-.807.147-1.211.216-.04.109-.06.187-.079.227-.049.098-.108.147-.207.147-.393 0-.788-.67-1.172-2.018-.206-.73-.384-1.192-.541-1.37-.07-.098-.109-.167-.109-.196 0-.07.05-.109.148-.109.118 0 .286.04.502.119.09.03.207.078.365.147a49.365 49.365 0 0 0 1.182-.177c.541-.089.906-.177 1.113-.256v-.827c-.266 0-.857.098-1.773.305-.916.207-1.497.364-1.753.473a2.78 2.78 0 0 0-.305.177c-.158.098-.286.148-.385.148-.137 0-.403-.118-.797-.365-.394-.246-.591-.423-.591-.541 0-.02.04-.04.108-.07l1.083.04h.158c.06 0 .158 0 .286-.03l1.97-.285a29.07 29.07 0 0 0 1.94-.335c0-.217-.03-.423-.1-.64-.058-.207-.157-.345-.294-.414-.414.07-.749.128-1.025.158-.275.04-.551.05-.837.05h-.236c-.079 0-.118-.03-.118-.07 0-.04.069-.079.197-.138.128-.059.226-.098.305-.118.61-.197 1.132-.384 1.576-.551.768-.296 1.25-.532 1.447-.71.03-.029.05-.147.07-.364.019-.217.098-.325.236-.325.226 0 .512.148.866.453.355.296.532.562.532.788 0 .158-.098.246-.295.266-.197.01-.345.02-.453.02-.197.039-.473.108-.818.206-.344.099-.6.178-.748.217.315.158.532.266.64.315.108.05.157.197.157.453v.325c.74 0 1.409-.01 2.01-.04.6-.029 1.004-.088 1.21-.186.149-.06.277-.099.395-.099.217 0 .502.099.876.306.365.206.552.413.552.62 0 .089-.04.158-.128.207a.546.546 0 0 1-.276.069l-.197-.03a26.036 26.036 0 0 0-2.216-.335 21.44 21.44 0 0 0-2.216-.118l.04.02Zm-1.054 2.255v-.807l-2 .305c.05.098.1.217.148.364.06.148.089.276.109.394l.266.03c.226 0 .472-.03.738-.089s.512-.128.73-.207l.009.01Zm0 1.537v-.936c-.089 0-.266.02-.512.05a5.574 5.574 0 0 1-.552.048c-.216 0-.394-.03-.522-.098l.286 1.113c.138-.05.354-.079.65-.099.295-.02.512-.049.65-.078Zm1.054-2.482v.748h.138c.325 0 .57.03.748.099.177.069.266.148.266.246s-.099.177-.305.256c-.207.079-.483.108-.847.108v.897h1.201c.07-.158.197-.522.374-1.084.178-.561.266-.886.266-.995 0-.137-.078-.226-.236-.285a1.801 1.801 0 0 0-.62-.089c-.237 0-.444.01-.63.04-.188.03-.306.049-.365.049l.01.01Z" fill="#E68169"/></g><defs><clipPath id="clip0_1119_33290"><path fill="#fff" d="M0 0h53.763v65H0z"/></clipPath></defs></svg>