<svg fill="none" xmlns="http://www.w3.org/2000/svg" viewBox="0 0 54 65"><g clip-path="url(#clip0_1119_33275)"><path d="M48.339 61.327 20.999 59.8c-3.21-.177-5.86-3.309-5.919-6.992l-.768-45.973c-.05-3.132 1.783-5.643 4.294-6.224L4.838 3.79C2.327 4.374.495 6.885.544 10.017l.768 45.973c.06 3.683 2.708 6.815 5.92 6.992l27.338 1.527c.483.03.956-.02 1.399-.118l13.758-3.172a5.04 5.04 0 0 1-1.398.119l.01-.01Z" fill="#368AA5" stroke="#231815" stroke-miterlimit="10"/><path d="M46.635 2.019c3.21.177 5.86 3.309 5.919 6.992l.768 45.973c.06 3.683-2.492 6.52-5.702 6.342L20.28 59.8c-3.21-.177-5.86-3.31-5.919-6.993l-.768-45.972C13.534 3.15 16.085.315 19.296.492L46.635 2.02Z" fill="#fff" stroke="#231815" stroke-linecap="round" stroke-linejoin="round"/><path d="m47.6 61.376-27.34-1.527c-3.21-.177-5.85-3.309-5.908-6.992l-.67-45.993c-.02-1.575.434-2.993 1.202-4.087.778-1.093 1.87-1.87 3.141-2.147l-6.884 1.527c-2.54.561-4.392 3.092-4.353 6.234l.67 45.992c.05 3.684 2.698 6.816 5.909 6.993l27.34 1.526c.472.03.925-.01 1.358-.108l6.885-1.526a4.789 4.789 0 0 1-1.36.108h.01Z" fill="#fff" stroke="#231815" stroke-linecap="round" stroke-linejoin="round"/><path d="M46.744 2.039c3.21.177 5.85 3.309 5.909 6.992l.67 45.992c.049 3.684-2.502 6.52-5.713 6.343l-27.34-1.527c-3.21-.177-5.85-3.309-5.908-6.992l-.67-45.992c-.05-3.684 2.502-6.53 5.712-6.343l27.34 1.527Z" fill="#fff" stroke="#231815" stroke-linecap="round" stroke-linejoin="round"/><path d="m27.696 45.401-8.016-.374V22.001l8.016.414v22.986Z" fill="#E2CCAF" stroke="#231815" stroke-linecap="round" stroke-linejoin="round"/><path d="m38.795 45.933-15.275-.729V22.198l15.275.788v22.947Z" fill="#E86546" stroke="#231815" stroke-linecap="round" stroke-linejoin="round"/><path d="M26.475 22.829v22.513m3.132-22.356V45.49m3.122-22.336v22.484m3.122-22.327v22.475" stroke="#E2CCAF" stroke-linecap="round" stroke-linejoin="round"/><path d="m38.795 45.933-15.275-.729V22.198l15.275.788v22.947Z" stroke="#231815" stroke-linecap="round" stroke-linejoin="round"/><path d="m48.3 46.377-9.977-.473V22.967l9.976.512v22.898Z" fill="#E2CCAF" stroke="#231815" stroke-linecap="round" stroke-linejoin="round"/><path d="m49.255 24-30.53-1.575v-3.831l30.53 1.595v3.812Z" fill="#E2CCAF" stroke="#231815" stroke-linecap="round" stroke-linejoin="round"/><path d="m46.172 33.869-5.712-.286v-5.731l5.712.285v5.732Z" fill="#00698A" stroke="#231815" stroke-linecap="round" stroke-linejoin="round"/></g><defs><clipPath id="clip0_1119_33275"><path fill="#fff" transform="translate(.052)" d="M0 0h53.763v65H0z"/></clipPath></defs></svg>