<svg fill="none" xmlns="http://www.w3.org/2000/svg" viewBox="0 0 55 65"><g clip-path="url(#clip0_1119_33164)"><path d="M49.05 61.327 21.71 59.8c-3.21-.177-5.86-3.309-5.919-6.992l-.768-45.973c-.05-3.132 1.783-5.643 4.294-6.224L5.549 3.79c-2.512.582-4.343 3.093-4.294 6.225l.768 45.973c.06 3.683 2.708 6.815 5.919 6.992l27.34 1.527c.482.03.955-.02 1.398-.118l13.758-3.172a5.04 5.04 0 0 1-1.398.119l.01-.01Z" fill="#368AA5" stroke="#231815" stroke-miterlimit="10"/><path d="M47.346 2.019c3.21.177 5.86 3.309 5.919 6.992l.768 45.973c.06 3.683-2.492 6.52-5.702 6.342L20.99 59.8c-3.21-.177-5.86-3.31-5.919-6.993l-.768-45.972C14.245 3.15 16.796.315 20.006.492l27.34 1.527Z" fill="#fff" stroke="#231815" stroke-linecap="round" stroke-linejoin="round"/><path d="m48.311 61.376-27.34-1.527c-3.21-.177-5.85-3.309-5.908-6.992l-.67-45.993c-.02-1.575.433-2.993 1.202-4.087.778-1.093 1.87-1.87 3.141-2.147l-6.884 1.527C9.312 2.718 7.46 5.249 7.5 8.39l.67 45.992c.05 3.684 2.698 6.816 5.909 6.993l27.34 1.526c.472.03.925-.01 1.358-.108l6.884-1.526a4.789 4.789 0 0 1-1.359.108h.01Z" fill="#fff" stroke="#231815" stroke-linecap="round" stroke-linejoin="round"/><path d="M47.455 2.039c3.21.177 5.85 3.309 5.909 6.992l.67 45.992c.049 3.684-2.502 6.52-5.713 6.343l-27.34-1.527c-3.21-.177-5.85-3.309-5.908-6.992l-.67-45.992c-.05-3.684 2.502-6.53 5.712-6.343l27.34 1.527Z" fill="#fff" stroke="#231815" stroke-linecap="round" stroke-linejoin="round"/><path d="M28.437 48.839c-.739 0-1.389-.61-1.507-1.162l-.03-.129a8.988 8.988 0 0 1-.098-.502l-.295-1.999s-.197-1.418-.247-1.763l-.275-1.733c-.03-.187-.05-.374-.07-.562-.019-.147-.029-.285-.048-.433l-.09-.571s-.167-.975-.196-1.202l-.089-.59c-.344.049-.68.078-1.024.088-.492 0-.916-.059-1.35-.177a5.692 5.692 0 0 1-1.398-.591 5.387 5.387 0 0 1-1.428-1.192 5.569 5.569 0 0 1-.876-1.388 5.562 5.562 0 0 1-.463-1.872c-.04-.443-.02-.876.069-1.28.079-.364.167-.788.335-1.182a5.42 5.42 0 0 1 1.073-1.674c.473-.502.926-.867 1.418-1.133.67-.354 1.33-.57 2.02-.65.265-.03.541-.078.807-.127l.482-.08c.453-.068.897-.137 1.35-.196.236-.03.482-.04.719-.05h.128c.157 0 .295.03.404.09.059.029.118.058.167.078.177.079.404.177.59.384.306.335.611.71.69 1.25 0 0 .197 1.439.246 1.764.05.305.099.62.148.925l.128.778c.04.247.187 1.32.187 1.32l.089.552c.05.285.089.57.128.856.02.148.04.296.05.444.019.167.029.344.058.512.03.197.099.384.158.58.266.867.522 1.665.778 2.463l.551 1.723s.73 2.354.907 2.906c.167.522.817 2.52.817 2.52l.03.1c.059.167.108.334.137.502a1.572 1.572 0 0 1-.847 1.684 2.413 2.413 0 0 1-.62.197c-.335.049-.68.098-1.014.148l-.798.108c-.571.079-1.133.167-1.704.266-.069.01-.138.02-.217.02l.02-.02Z" fill="#E86546"/><path d="M27.344 27.182c.059 0 .128 0 .167.03.217.118.463.167.63.364.266.286.513.59.572.985.088.59.157 1.172.246 1.763.089.57.187 1.132.276 1.704.069.433.128.876.187 1.32.069.472.148.935.216 1.407.05.316.06.64.109.966.04.236.118.472.187.709.246.797.502 1.605.758 2.403.177.571.375 1.142.552 1.713.305.966.6 1.94.906 2.906.266.847.541 1.684.817 2.53.06.178.128.365.158.552.089.434-.128.916-.581 1.153a2.025 2.025 0 0 1-.473.147c-.6.089-1.201.168-1.812.256-.571.08-1.143.178-1.714.266-.04 0-.088.01-.128.01-.492 0-.945-.423-1.024-.768-.04-.197-.089-.404-.118-.6l-.296-1.99c-.088-.591-.157-1.172-.246-1.763-.088-.581-.187-1.152-.276-1.733-.049-.325-.078-.66-.118-.985-.04-.266-.088-.532-.128-.798-.049-.325-.108-.65-.157-.985-.05-.344-.099-.69-.148-1.063-.168.02-.325.03-.492.059-.316.049-.64.078-.966.078H24.4c-.404 0-.788-.059-1.182-.157a5.08 5.08 0 0 1-1.28-.552 4.92 4.92 0 0 1-1.3-1.083 4.963 4.963 0 0 1-.798-1.26 5.216 5.216 0 0 1-.423-1.714c-.04-.374-.02-.769.059-1.133a7.06 7.06 0 0 1 .305-1.103 5.104 5.104 0 0 1 .975-1.526c.384-.404.798-.769 1.29-1.034.581-.306 1.182-.523 1.842-.591.443-.05.877-.138 1.31-.207.443-.07.886-.138 1.34-.197.245-.03.482-.04.728-.05h.06m0-.984h-.159c-.256.01-.502.03-.758.059-.433.059-.867.118-1.31.187h-.059l-.492.089c-.266.049-.522.088-.788.118a5.98 5.98 0 0 0-2.196.709c-.542.285-1.034.68-1.546 1.221a6.01 6.01 0 0 0-1.172 1.832 7.189 7.189 0 0 0-.365 1.27 4.923 4.923 0 0 0-.079 1.428c.07.768.237 1.438.512 2.03.266.58.572 1.073.956 1.506a5.97 5.97 0 0 0 1.556 1.29c.541.305 1.024.512 1.517.64.472.128.955.187 1.427.187h.06c.206 0 .403-.01.6-.03 0 .04.01.08.02.119.03.227.069.443.108.67l.06.325.039.226c.03.178.059.365.088.542.02.138.04.285.05.423.02.197.04.385.069.572.049.305.098.6.138.906.049.275.088.551.128.827l.147 1.024.109.739.295 2c.03.176.07.354.108.53l.03.129c.177.837 1.083 1.546 1.99 1.546.098 0 .196 0 .295-.02l1.694-.265c.256-.04.522-.07.778-.109l1.034-.148c.276-.039.542-.128.768-.236a2.048 2.048 0 0 0 1.103-2.216 3.838 3.838 0 0 0-.157-.561l-.03-.099-.315-.965c-.168-.522-.335-1.034-.502-1.556a97.24 97.24 0 0 1-.493-1.595c-.138-.434-.266-.877-.404-1.31-.098-.315-.206-.64-.305-.956-.079-.255-.167-.512-.246-.768-.256-.797-.502-1.595-.759-2.393l-.02-.069a5.092 5.092 0 0 1-.137-.512c-.03-.157-.04-.315-.06-.473-.009-.157-.029-.305-.048-.463-.04-.285-.089-.57-.128-.856l-.089-.562c-.03-.187-.06-.384-.079-.57-.04-.247-.069-.503-.108-.75-.04-.265-.089-.521-.128-.787l-.148-.916c-.05-.325-.098-.65-.138-.975-.04-.256-.069-.522-.108-.778-.099-.67-.473-1.133-.808-1.507a1.987 1.987 0 0 0-.768-.502c-.04-.02-.088-.04-.128-.06a1.272 1.272 0 0 0-.65-.157v.02Z" fill="#231815"/><path d="M45.17 41.265c-.434-.256-.857-.512-1.29-.738a33.977 33.977 0 0 0-1.34-.67 60.675 60.675 0 0 0-1.408-.63c-.266-.119-.522-.217-.788-.325-.414-.168-.837-.345-1.26-.503-.267-.098-.552-.167-.818-.256-1.024-.344-2.088-.58-3.142-.817-.463-.099-.916-.207-1.379-.296-.433-.078-.876-.128-1.32-.197a1.863 1.863 0 0 0-.236-.02c-.394-.039-.788-.088-1.181-.127-.375-.04-.759-.06-1.133-.099-.099-.01-.197-.04-.335-.079-.04-.216-.089-.443-.118-.68-.05-.324-.089-.64-.138-.964-.05-.325-.098-.64-.148-.956-.078-.482-.157-.965-.226-1.457-.05-.315-.089-.63-.128-.936-.05-.345-.118-.68-.168-1.024-.049-.305-.088-.61-.128-.916l-.207-1.408c-.03-.197-.049-.384-.078-.591.325-.128.64-.256.955-.384a34.895 34.895 0 0 0 2.836-1.271c1.202-.6 2.364-1.26 3.477-2.009a39.58 39.58 0 0 0 2.068-1.477 29.362 29.362 0 0 0 2.59-2.226c.512-.492.995-1.024 1.487-1.526.099-.099.109-.207.099-.325-.01-.099-.05-.207-.04-.306.03-.433.217-.689.67-.817.364-.108.739-.138 1.123-.197.207-.03.413-.05.61-.03.335.03.611.188.74.522.058.148.068.306.098.463.078.473.147.956.216 1.428.05.325.089.64.138.965.089.582.187 1.172.266 1.754.05.325.089.64.138.965.059.433.128.876.197 1.31.05.354.108.709.157 1.053.07.453.148.906.217 1.36.05.314.089.63.138.935.069.433.128.877.197 1.31.05.354.108.7.157 1.054l.148.955c.05.325.099.66.148.985.089.59.187 1.182.276 1.782.049.345.088.69.138 1.034.059.404.118.808.187 1.222.059.364.108.719.167 1.083.07.453.148.906.217 1.36.05.314.079.63.138.935.059.344.03.69.147 1.024.09.256.099.542.119.817.02.247-.148.414-.316.562a.878.878 0 0 1-.393.197c-.385.078-.779.118-1.163.197a1.52 1.52 0 0 1-.728-.02.798.798 0 0 1-.601-.758v-.237h-.05Z" fill="#E2CCAF" stroke="#231815" stroke-miterlimit="10"/><path d="M44.795 17.53c-.128-.335-.394-.492-.738-.522-.207-.02-.414 0-.61.03-.375.05-.76.089-1.123.197-.463.128-.64.394-.67.817 0 .099.03.207.04.306.019.118 3.456 22.947 3.456 22.966v.178c0 .374.236.66.6.758.247.069.483.069.73.02.384-.08.778-.119 1.162-.197a.992.992 0 0 0 .394-.197c.167-.148.334-.316.315-.562-.02-.275-.03-.561-.118-.817-.119-.335-.089-.69-.148-1.024-.05-.316-.089-.63-.138-.936-.069-.453-.148-.906-.217-1.359-.059-.355-.108-.719-.167-1.083-.06-.404-.128-.808-.187-1.222-.05-.344-.089-.689-.138-1.034-.089-.59-.187-1.181-.276-1.782-.05-.325-.098-.66-.148-.985-.049-.325-.098-.64-.147-.955-.05-.355-.109-.7-.158-1.054-.069-.433-.128-.877-.197-1.31-.05-.315-.088-.63-.138-.936-.069-.453-.148-.906-.216-1.359-.06-.354-.109-.699-.158-1.053-.069-.434-.128-.877-.197-1.31-.05-.325-.089-.64-.138-.965-.089-.582-.187-1.172-.266-1.754-.049-.325-.088-.64-.138-.965-.069-.472-.138-.955-.216-1.428a1.847 1.847 0 0 0-.099-.463h.05Z" fill="#00698A" stroke="#231815" stroke-linecap="round" stroke-linejoin="round"/></g><defs><clipPath id="clip0_1119_33164"><path fill="#fff" transform="translate(.763)" d="M0 0h53.763v65H0z"/></clipPath></defs></svg>