<svg fill="none" xmlns="http://www.w3.org/2000/svg" viewBox="0 0 55 65"><g clip-path="url(#clip0_1119_33388)"><path d="M48.813 61.327 21.473 59.8c-3.21-.177-5.86-3.309-5.919-6.992l-.768-45.973C14.737 3.703 16.57 1.192 19.08.611L5.312 3.79c-2.511.582-4.343 3.093-4.294 6.225l.768 45.973c.06 3.683 2.709 6.815 5.92 6.992l27.339 1.527c.482.03.955-.02 1.398-.118l13.758-3.172a5.04 5.04 0 0 1-1.398.119l.01-.01Z" fill="#E68169" stroke="#231815" stroke-miterlimit="10"/><path d="M47.11 2.019c3.21.177 5.859 3.309 5.918 6.992l.768 45.973c.06 3.683-2.492 6.52-5.702 6.342L20.754 59.8c-3.21-.177-5.86-3.31-5.918-6.993l-.769-45.972C14.008 3.15 16.56.315 19.77.492L47.11 2.02Z" fill="#fff" stroke="#231815" stroke-linecap="round" stroke-linejoin="round"/><path d="m48.075 61.376-27.34-1.527c-3.21-.177-5.85-3.309-5.909-6.992l-.67-45.993c-.02-1.575.434-2.993 1.202-4.087C16.136 1.684 17.229.907 18.5.63l-6.885 1.527c-2.54.561-4.392 3.092-4.353 6.234l.67 45.992c.05 3.684 2.698 6.816 5.91 6.993l27.339 1.526c.472.03.925-.01 1.359-.108l6.884-1.526a4.789 4.789 0 0 1-1.36.108h.01Z" fill="#fff" stroke="#231815" stroke-linecap="round" stroke-linejoin="round"/><path d="M47.218 2.039c3.21.177 5.85 3.309 5.909 6.992l.67 45.992c.049 3.684-2.502 6.52-5.713 6.343l-27.339-1.527c-3.21-.177-5.85-3.309-5.91-6.992l-.669-45.992C14.117 3.17 16.668.325 19.878.512l27.34 1.527Z" fill="#fff" stroke="#231815" stroke-linecap="round" stroke-linejoin="round"/><path d="M24.4 12.704c0 .197-.098.296-.295.296-.197 0-.581-.128-1.123-.374s-.808-.434-.808-.562c0-.069.099-.108.306-.108l.768-.03c.443 0 .758.08.935.227.148.128.217.305.217.551Zm1.527.572v.079c0 .177-.119.59-.365 1.24s-.482 1.28-.719 1.911c-.256.719-.384 1.192-.384 1.418l.04.473c0 .128-.02.227-.06.305-.039.079-.108.118-.206.118-.375 0-.7-.187-.966-.57-.265-.385-.403-.769-.403-1.163.02-.079.04-.118.069-.118.03 0 .078.02.157.05a.633.633 0 0 0 .217.048c.207 0 .522-.325.945-.975.188-.285.542-.896 1.054-1.822.364-.66.581-.994.63-1.004l-.01.01Zm-.601-3.753c0 .217-.099.325-.286.325-.246 0-.62-.187-1.103-.551-.482-.364-.729-.61-.729-.719 0-.05.04-.069.138-.069l.266.04c.365.059.729.127 1.103.187.414.137.62.394.62.787h-.01Zm5.308 4.354c-.492-.207-.886-.404-1.182-.601a4.758 4.758 0 0 1-1.004-.896c-.463.384-.759.62-.867.709-.463.354-.768.531-.896.531l-.05-.049c0-.069.217-.404.66-.985.591-.787 1.005-1.388 1.251-1.792.444-.729.67-1.29.67-1.674 0-.07-.04-.187-.118-.345a.452.452 0 0 1-.07-.217c0-.167.1-.256.287-.256.236 0 .512.109.846.325.335.217.493.414.493.601 0 .069-.03.158-.099.246a1.673 1.673 0 0 1-.216.237h.482c.325 0 .62-.03.896-.09.148-.029.325-.127.523-.314.196-.187.315-.276.344-.276.099 0 .335.177.71.522.373.345.56.571.56.68 0 .078-.088.177-.265.295-.237.148-.365.246-.384.286-.03.039-.217.472-.572 1.3-.167.393-.285.64-.334.738a23.64 23.64 0 0 1-1.222 2.275c-.522.837-1.053 1.566-1.605 2.167-.64.709-1.31 1.25-2.009 1.625-.108.05-.207.098-.305.128a.683.683 0 0 1-.256.05l-.04-.04c.02-.07.089-.168.197-.286l.266-.236c.512-.414 1.123-1.143 1.852-2.167.728-1.024 1.22-1.861 1.477-2.501l-.02.01Zm-.68-3.753a15.56 15.56 0 0 1-1.27 1.96c.463.04.896.138 1.29.286.542.197.877.443.995.738.148-.236.384-.729.7-1.477.314-.739.472-1.211.472-1.408 0-.099-.05-.158-.138-.187-.118 0-.345.059-.68.187a1.35 1.35 0 0 1-.433.088c-.148 0-.305-.02-.453-.049-.148-.04-.305-.079-.473-.138h-.01Zm7.2 7.603c0-.216-.079-.69-.227-1.438l-.335-1.812c-.167-.738-.403-1.29-.699-1.635l-.138-.216c0-.07.08-.109.227-.109.325 0 .7.119 1.142.355.443.236.66.502.66.798l-.04.325-.029.305c0 .128.01.374.03.748.02.375.03.65.03.828 0 .256.01.561.039.906.03.345.039.571.039.66v.137l1.812-.246v-7.288c0-.344-.138-.728-.404-1.122l-.403-.552c0-.059.078-.118.236-.177.05 0 .079-.01.108-.01h.099c.069 0 .177 0 .305.03.138.02.394.138.768.354.384.217.572.443.572.68 0 .098-.04.266-.129.512-.02.05-.039.138-.059.246-.02.108-.04.207-.049.276v2.984c.404 0 .886-.118 1.448-.364.561-.237.926-.365 1.103-.365.148 0 .315.05.512.138.197.098.295.207.305.345 0 .187-.502.374-1.497.561-.315.04-.61.089-.886.118-.276.04-.6.089-.975.148l-.04 2.708v.66c.444 0 .995-.02 1.645-.069.65-.04 1.084-.069 1.3-.069.06 0 .118 0 .158-.01.128-.039.226-.069.305-.098l.512-.069c.325 0 .66.118.975.355.325.236.483.453.483.65 0 .167-.148.256-.434.256-.069 0-.127 0-.157-.03a8.35 8.35 0 0 0-1.458-.335 11.316 11.316 0 0 0-1.664-.118c-2.452 0-4.51.325-6.165.965l-.325.177c-.108.04-.227.08-.345.099-.118 0-.394-.118-.827-.345-.434-.226-.66-.404-.66-.512 0-.069.099-.108.305-.108l.414.03.443.039c.177 0 .414-.02.69-.07.285-.039.699-.127 1.25-.245l.03.02Z" fill="#231815"/><path d="M24.4 12.704c0 .197-.098.296-.295.296-.197 0-.581-.128-1.123-.374s-.808-.434-.808-.562c0-.069.099-.108.306-.108l.768-.03c.443 0 .758.08.935.227.148.128.217.305.217.551Zm1.527.572v.079c0 .177-.119.59-.365 1.24s-.482 1.28-.719 1.911c-.256.719-.384 1.192-.384 1.418l.04.473c0 .128-.02.227-.06.305-.039.079-.108.118-.206.118-.375 0-.7-.187-.966-.57-.265-.385-.403-.769-.403-1.163.02-.079.04-.118.069-.118.03 0 .078.02.157.05a.633.633 0 0 0 .217.048c.207 0 .522-.325.945-.975.188-.285.542-.896 1.054-1.822.364-.66.581-.994.63-1.004l-.01.01Zm-.601-3.753c0 .217-.099.325-.286.325-.246 0-.62-.187-1.103-.551-.482-.364-.729-.61-.729-.719 0-.05.04-.069.138-.069l.266.04c.365.059.729.127 1.103.187.414.137.62.394.62.787h-.01Zm5.308 4.354c-.492-.207-.886-.404-1.182-.601a4.758 4.758 0 0 1-1.004-.896c-.463.384-.759.62-.867.709-.463.354-.768.531-.896.531l-.05-.049c0-.069.217-.404.66-.985.591-.787 1.005-1.388 1.251-1.792.444-.729.67-1.29.67-1.674 0-.07-.04-.187-.118-.345a.452.452 0 0 1-.07-.217c0-.167.1-.256.287-.256.236 0 .512.109.846.325.335.217.493.414.493.601 0 .069-.03.158-.099.246a1.673 1.673 0 0 1-.216.237h.482c.325 0 .62-.03.896-.09.148-.029.325-.127.523-.314.196-.187.315-.276.344-.276.099 0 .335.177.71.522.373.345.56.571.56.68 0 .078-.088.177-.265.295-.237.148-.365.246-.384.286-.03.039-.217.472-.572 1.3-.167.393-.285.64-.334.738a23.64 23.64 0 0 1-1.222 2.275c-.522.837-1.053 1.566-1.605 2.167-.64.709-1.31 1.25-2.009 1.625-.108.05-.207.098-.305.128a.683.683 0 0 1-.256.05l-.04-.04c.02-.07.089-.168.197-.286l.266-.236c.512-.414 1.123-1.143 1.852-2.167.728-1.024 1.22-1.861 1.477-2.501l-.02.01Zm-.68-3.753a15.56 15.56 0 0 1-1.27 1.96c.463.04.896.138 1.29.286.542.197.877.443.995.738.148-.236.384-.729.7-1.477.314-.739.472-1.211.472-1.408 0-.099-.05-.158-.138-.187-.118 0-.345.059-.68.187a1.35 1.35 0 0 1-.433.088c-.148 0-.305-.02-.453-.049-.148-.04-.305-.079-.473-.138h-.01Zm7.2 7.603c0-.216-.079-.69-.227-1.438l-.335-1.812c-.167-.738-.403-1.29-.699-1.635l-.138-.216c0-.07.08-.109.227-.109.325 0 .7.119 1.142.355.443.236.66.502.66.798l-.04.325-.029.305c0 .128.01.374.03.748.02.375.03.65.03.828 0 .256.01.561.039.906.03.345.039.571.039.66v.137l1.812-.246v-7.288c0-.344-.138-.728-.404-1.122l-.403-.552c0-.059.078-.118.236-.177.05 0 .079-.01.108-.01h.099c.069 0 .177 0 .305.03.138.02.394.138.768.354.384.217.572.443.572.68 0 .098-.04.266-.129.512-.02.05-.039.138-.059.246-.02.108-.04.207-.049.276v2.984c.404 0 .886-.118 1.448-.364.561-.237.926-.365 1.103-.365.148 0 .315.05.512.138.197.098.295.207.305.345 0 .187-.502.374-1.497.561-.315.04-.61.089-.886.118-.276.04-.6.089-.975.148l-.04 2.708v.66c.444 0 .995-.02 1.645-.069.65-.04 1.084-.069 1.3-.069.06 0 .118 0 .158-.01.128-.039.226-.069.305-.098l.512-.069c.325 0 .66.118.975.355.325.236.483.453.483.65 0 .167-.148.256-.434.256-.069 0-.127 0-.157-.03a8.35 8.35 0 0 0-1.458-.335 11.316 11.316 0 0 0-1.664-.118c-2.452 0-4.51.325-6.165.965l-.325.177c-.108.04-.227.08-.345.099-.118 0-.394-.118-.827-.345-.434-.226-.66-.404-.66-.512 0-.069.099-.108.305-.108l.414.03.443.039c.177 0 .414-.02.69-.07.285-.039.699-.127 1.25-.245l.03.02Z" stroke="#231815" stroke-width="2"/><path d="M24.4 12.704c0 .197-.098.296-.295.296-.197 0-.581-.128-1.123-.374s-.808-.434-.808-.562c0-.069.099-.108.306-.108l.768-.03c.443 0 .758.08.935.227.148.128.217.305.217.551Zm1.527.572v.079c0 .177-.119.59-.365 1.24s-.482 1.28-.719 1.911c-.256.719-.384 1.192-.384 1.418l.04.473c0 .128-.02.227-.06.305-.039.079-.108.118-.206.118-.375 0-.7-.187-.966-.57-.265-.385-.403-.769-.403-1.163.02-.079.04-.118.069-.118.03 0 .078.02.157.05a.633.633 0 0 0 .217.048c.207 0 .522-.325.945-.975.188-.285.542-.896 1.054-1.822.364-.66.581-.994.63-1.004l-.01.01Zm-.601-3.753c0 .217-.099.325-.286.325-.246 0-.62-.187-1.103-.551-.482-.364-.729-.61-.729-.719 0-.05.04-.069.138-.069l.266.04c.365.059.729.127 1.103.187.414.137.62.394.62.787h-.01Zm5.308 4.354c-.492-.207-.886-.404-1.182-.601a4.758 4.758 0 0 1-1.004-.896c-.463.384-.759.62-.867.709-.463.354-.768.531-.896.531l-.05-.049c0-.069.217-.404.66-.985.591-.787 1.005-1.388 1.251-1.792.444-.729.67-1.29.67-1.674 0-.07-.04-.187-.118-.345a.452.452 0 0 1-.07-.217c0-.167.1-.256.287-.256.236 0 .512.109.846.325.335.217.493.414.493.601 0 .069-.03.158-.099.246a1.673 1.673 0 0 1-.216.237h.482c.325 0 .62-.03.896-.09.148-.029.325-.127.523-.314.196-.187.315-.276.344-.276.099 0 .335.177.71.522.373.345.56.571.56.68 0 .078-.088.177-.265.295-.237.148-.365.246-.384.286-.03.039-.217.472-.572 1.3-.167.393-.285.64-.334.738a23.64 23.64 0 0 1-1.222 2.275c-.522.837-1.053 1.566-1.605 2.167-.64.709-1.31 1.25-2.009 1.625-.108.05-.207.098-.305.128a.683.683 0 0 1-.256.05l-.04-.04c.02-.07.089-.168.197-.286l.266-.236c.512-.414 1.123-1.143 1.852-2.167.728-1.024 1.22-1.861 1.477-2.501l-.02.01Zm-.68-3.753a15.56 15.56 0 0 1-1.27 1.96c.463.04.896.138 1.29.286.542.197.877.443.995.738.148-.236.384-.729.7-1.477.314-.739.472-1.211.472-1.408 0-.099-.05-.158-.138-.187-.118 0-.345.059-.68.187a1.35 1.35 0 0 1-.433.088c-.148 0-.305-.02-.453-.049-.148-.04-.305-.079-.473-.138h-.01Zm7.2 7.603c0-.216-.079-.69-.227-1.438l-.335-1.812c-.167-.738-.403-1.29-.699-1.635l-.138-.216c0-.07.08-.109.227-.109.325 0 .7.119 1.142.355.443.236.66.502.66.798l-.04.325-.029.305c0 .128.01.374.03.748.02.375.03.65.03.828 0 .256.01.561.039.906.03.345.039.571.039.66v.137l1.812-.246v-7.288c0-.344-.138-.728-.404-1.122l-.403-.552c0-.059.078-.118.236-.177.05 0 .079-.01.108-.01h.099c.069 0 .177 0 .305.03.138.02.394.138.768.354.384.217.572.443.572.68 0 .098-.04.266-.129.512-.02.05-.039.138-.059.246-.02.108-.04.207-.049.276v2.984c.404 0 .886-.118 1.448-.364.561-.237.926-.365 1.103-.365.148 0 .315.05.512.138.197.098.295.207.305.345 0 .187-.502.374-1.497.561-.315.04-.61.089-.886.118-.276.04-.6.089-.975.148l-.04 2.708v.66c.444 0 .995-.02 1.645-.069.65-.04 1.084-.069 1.3-.069.06 0 .118 0 .158-.01.128-.039.226-.069.305-.098l.512-.069c.325 0 .66.118.975.355.325.236.483.453.483.65 0 .167-.148.256-.434.256-.069 0-.127 0-.157-.03a8.35 8.35 0 0 0-1.458-.335 11.316 11.316 0 0 0-1.664-.118c-2.452 0-4.51.325-6.165.965l-.325.177c-.108.04-.227.08-.345.099-.118 0-.394-.118-.827-.345-.434-.226-.66-.404-.66-.512 0-.069.099-.108.305-.108l.414.03.443.039c.177 0 .414-.02.69-.07.285-.039.699-.127 1.25-.245l.03.02Z" fill="#E68169"/><path d="M24.32 41.886c.128-.217.236-.424.364-.611.404-.6.739-1.241 1.024-1.9a6.75 6.75 0 0 1 .394-.75 2.722 2.722 0 0 0 .414-1.762l-.118-1.143c-.02-.226-.02-.463-.05-.69-.059-.462-.187-.886-.541-1.24-.65-.65-1.31-1.3-2.029-1.881a32.967 32.967 0 0 1-2.679-2.433c-.295-.295-.354-.61-.285-.985.098-.492.334-.905.66-1.29.137-.157.295-.295.384-.482.236-.503.65-.798 1.122-1.005a2.912 2.912 0 0 0 1.38-1.191c.314-.532.748-.65 1.309-.512.276.068.551.108.847.167.05.148.098.295.138.433.069.217.138.443.187.67.197.808.7 1.26 1.507 1.467.719.178 1.3.591 1.644 1.29.119.237.197.473.197.74-.02.659.178 1.27.424 1.86.354.857.739 1.694 1.113 2.541.157.355.315.71.463 1.064.138.345.344.61.65.837.492.374.965.768 1.418 1.182.226.207.423.453.6.7.316.442.749.698 1.242.866.118.04.256.04.374.079.423.157.807.108 1.162-.178.059-.049.128-.078.207-.118.039.079.088.138.098.207.138.66.522 1.152.995 1.615.305.296.64.493 1.054.591 1.172.286 2.334.61 3.506.906.532.128 1.004.335 1.418.72.64.59 1.32 1.142 1.98 1.703.354.295.699.61 1.073.876.177.128.413.188.63.266.207.08.424.138.66.207-.167.345-.433.512-.719.61-.837.306-1.418.917-1.94 1.586-.502.65-.946 1.35-1.408 2.02-.07.108-.128.226-.217.314-.345.345-.768.404-1.182.119-.68-.473-1.28-1.025-1.585-1.832-.158-.404-.414-.542-.838-.502l-1.152.088c-.423.03-.807.138-1.123.434-.078.068-.157.127-.226.206-.788.798-1.832 1.103-2.827 1.507-.67.266-1.33.542-1.999.798-.187.069-.394.157-.59.148a3.55 3.55 0 0 0-1.37.187c-.551.187-1.063.088-1.566-.128a15.26 15.26 0 0 1-2.363-1.29 34.696 34.696 0 0 1-1.832-1.27c-.581-.434-1.093-.937-1.477-1.557-.256-.423-.256-.61.01-.985.029-.04.068-.079.098-.118.63-.729.542-1.487 0-2.334-.177-.276-.394-.532-.62-.808l-.01-.01Z" fill="#368AA5" stroke="#231815" stroke-linecap="round" stroke-linejoin="round"/></g><defs><clipPath id="clip0_1119_33388"><path fill="#fff" transform="translate(.526)" d="M0 0h53.763v65H0z"/></clipPath></defs></svg>