<svg fill="none" xmlns="http://www.w3.org/2000/svg" viewBox="0 0 55 65"><g clip-path="url(#clip0_1119_33444)"><path d="M49.05 61.327 21.71 59.8c-3.21-.177-5.86-3.309-5.919-6.992l-.768-45.973c-.05-3.132 1.783-5.643 4.294-6.224L5.549 3.79c-2.512.582-4.343 3.093-4.294 6.225l.768 45.973c.06 3.683 2.708 6.815 5.919 6.992l27.34 1.527c.482.03.955-.02 1.398-.118l13.758-3.172a5.04 5.04 0 0 1-1.398.119l.01-.01Z" fill="#E68169" stroke="#231815" stroke-miterlimit="10"/><path d="M47.346 2.019c3.21.177 5.86 3.309 5.919 6.992l.768 45.973c.06 3.683-2.492 6.52-5.702 6.342L20.99 59.8c-3.21-.177-5.86-3.31-5.919-6.993l-.768-45.972C14.245 3.15 16.796.315 20.006.492l27.34 1.527Z" fill="#fff" stroke="#231815" stroke-linecap="round" stroke-linejoin="round"/><path d="m48.311 61.376-27.34-1.527c-3.21-.177-5.85-3.309-5.908-6.992l-.67-45.993c-.02-1.575.433-2.993 1.202-4.087.778-1.093 1.87-1.87 3.141-2.147l-6.884 1.527C9.312 2.718 7.46 5.249 7.5 8.39l.67 45.992c.05 3.684 2.698 6.816 5.909 6.993l27.34 1.526c.472.03.925-.01 1.358-.108l6.884-1.526a4.789 4.789 0 0 1-1.359.108h.01Z" fill="#fff" stroke="#231815" stroke-linecap="round" stroke-linejoin="round"/><path d="M47.455 2.039c3.21.177 5.85 3.309 5.909 6.992l.67 45.992c.049 3.684-2.502 6.52-5.713 6.343l-27.34-1.527c-3.21-.177-5.85-3.309-5.908-6.992l-.67-45.992c-.05-3.684 2.502-6.53 5.712-6.343l27.34 1.527Z" fill="#fff" stroke="#231815" stroke-linecap="round" stroke-linejoin="round"/><path d="M48.272 16.998c0 .09-.04.168-.119.237a.371.371 0 0 1-.246.108h-1.93c-.167 0-.246-.069-.246-.216v-.08c.069-1.713.098-2.757.098-3.121v-2c0-.127-.03-.187-.089-.187-.088 0-.226.03-.403.08a1.781 1.781 0 0 1-.414.078c-.138 0-.207-.079-.207-.246v-1.38c0-.088.06-.157.168-.206.66-.276 1.182-.64 1.556-1.103.079-.098.138-.138.197-.138 0 0 .04 0 .078.01.168.04.424.089.759.167.177.02.443.06.788.119.059.02.098.069.098.147 0 .03 0 .08-.01.138-.049.394-.078 1.36-.078 2.906 0 .512 0 1.29.01 2.334s.01 1.812.01 2.334l-.02.02Z" fill="#E86546"/><path d="M48.272 16.998c0 .09-.04.168-.119.237a.371.371 0 0 1-.246.108h-1.93c-.167 0-.246-.069-.246-.216v-.08c.069-1.713.098-2.757.098-3.121v-2c0-.127-.03-.187-.089-.187-.088 0-.226.03-.403.08a1.781 1.781 0 0 1-.414.078c-.138 0-.207-.079-.207-.246v-1.38c0-.088.06-.157.168-.206.66-.276 1.182-.64 1.556-1.103.079-.098.138-.138.197-.138 0 0 .04 0 .078.01.168.04.424.089.759.167.177.02.443.06.788.119.059.02.098.069.098.147 0 .03 0 .08-.01.138-.049.394-.078 1.36-.078 2.906 0 .512 0 1.29.01 2.334s.01 1.812.01 2.334l-.02.02Z" fill="#00698A"/><path d="M24.93 13.502v3.349c0 .758-.058 1.398-.177 1.91-.118.512-.275.768-.472.768-.128 0-.246-.167-.335-.492-.089-.325-.128-.729-.128-1.201V13.63c-.532 0-1.034.05-1.527.158-.492.108-1.024.266-1.605.482-.079.03-.197.089-.364.178-.158.088-.296.137-.404.137-.148 0-.443-.137-.857-.413-.414-.276-.63-.463-.63-.581 0-.05.049-.079.147-.079.119 0 .296.02.532.05.246.039.424.049.532.049.355 0 .877-.06 1.556-.178.453-.079.768-.128.955-.147.375-.05.68-.099.907-.119.226-.02.482-.069.748-.138V9.967c0-.148-.05-.345-.158-.582-.108-.236-.226-.354-.364-.354-.148 0-.276 0-.404.03-.423.059-.66.098-.7.098-.176 0-.482-.108-.915-.325-.433-.217-.65-.394-.65-.552.02-.02.03-.03.04-.03a.227.227 0 0 1 .108-.029h.187c.64.128 1.34.187 2.107.187.572 0 1.094-.039 1.566-.118a4.546 4.546 0 0 0 1.251-.384c.158-.079.345-.118.552-.118.354 0 .6.01.738.04.335.059.512.196.512.413 0 .217-.305.374-.935.492-.63.119-1.448.168-2.482.168.217.138.384.266.512.404.187.197.286.384.286.57 0 .08-.02.178-.06.306a1.008 1.008 0 0 0-.058.246v2.541c.758 0 1.359-.01 1.802-.04.443-.029.758-.068.955-.127.197-.06.364-.089.532-.089.246 0 .571.109.965.325.394.217.591.444.591.67 0 .079-.04.158-.128.226a.406.406 0 0 1-.266.099h-.04c-.66-.187-1.29-.335-1.89-.443a9.965 9.965 0 0 0-1.773-.158h-.364c-.119 0-.247.01-.384.04l-.01.03Zm-1.86-2.354c0 .08-.08.148-.237.197-.158.05-.276.099-.364.118-.09.03-.444.237-1.074.64-.473.306-.817.454-1.034.454-.099 0-.148-.03-.148-.099 0-.049.227-.364.67-.935.443-.572.67-.956.67-1.162v-.257c-.01-.177.049-.265.157-.265.177 0 .453.167.808.512.364.334.541.6.541.787l.01.01Zm5.21.562c0 .394-.1.59-.287.59-.265 0-.679-.383-1.25-1.152-.532-.719-.788-1.181-.788-1.369 0-.02.01-.039.04-.049 0 0 .019 0 .039-.01.069 0 .177.03.325.089.02 0 .049.03.108.05.61.305 1.005.531 1.192.679.413.335.62.719.62 1.162v.01Zm4.668 1.31c0 .098-.01.167-.04.216a.207.207 0 0 1-.177.099c-.177 0-.561-.187-1.162-.571-.59-.384-.886-.64-.886-.788 0-.05.069-.08.216-.08.444 0 .867.08 1.26.247.523.217.789.512.789.886v-.01Zm1.123.67s.039.078.039.157c0 .217-.138.63-.414 1.24-.276.611-.541 1.222-.797 1.813-.286.67-.434 1.103-.434 1.31v.561c.01.158-.05.236-.177.236-.305 0-.62-.196-.955-.59-.335-.394-.493-.749-.493-1.054 0-.03.01-.05.04-.07 0 0 .02 0 .03-.009.038 0 .117.02.245.06.128.038.217.058.276.058.148 0 .433-.325.857-.965.148-.236.522-.827 1.103-1.792.384-.64.61-.965.67-.965l.01.01Zm-.257-3.763c0 .237-.088.365-.256.365-.256 0-.64-.227-1.132-.69-.493-.463-.739-.768-.739-.916 0-.049.05-.078.138-.078.414 0 .827.118 1.26.364.493.276.74.6.74.965l-.01-.01Zm4.097 7.14-.098.256c.955.119 1.664.247 2.117.404.916.305 1.38.749 1.38 1.33 0 .128-.03.226-.08.315-.049.089-.147.128-.266.128a.52.52 0 0 1-.315-.099 1.177 1.177 0 0 1-.285-.265c-.316-.296-.73-.591-1.26-.897a11.712 11.712 0 0 0-1.41-.699c-.373.522-.905.975-1.605 1.35-.689.374-1.359.55-2.018.55h-.109c-.069 0-.108-.029-.108-.068 0-.03.059-.079.177-.148.118-.069.246-.138.384-.216.64-.296 1.084-.522 1.31-.68.345-.236.69-.6 1.014-1.073a6.743 6.743 0 0 0-.827.197 13.21 13.21 0 0 1-.739.206c-.049.02-.147.07-.295.138a.748.748 0 0 1-.345.108c-.138 0-.384-.108-.758-.334-.374-.227-.551-.384-.551-.493 0-.02.039-.04.108-.069.108 0 .315.03.63.089.177.04.305.05.384.05.335 0 .739-.05 1.222-.149.482-.098.945-.197 1.388-.295 0-.226-.02-.424-.05-.61a.657.657 0 0 0-.245-.414s-.306.079-.887.216c-.197.04-.335.09-.433.148-.099.06-.187.099-.286.148-.177 0-.374-.158-.57-.473-.11-.157-.158-.295-.158-.404 0-.118.049-.197.137-.246A.96.96 0 0 1 34.83 15h.344c.237 0 .523-.118.867-.345.256-.177.512-.393.749-.64-.158-.069-.483-.256-.975-.561-.532-.335-.808-.551-.808-.63 0-.06.099-.119.296-.158a3.75 3.75 0 0 1 .748-.069c.128-.197.246-.394.374-.6.158-.286.237-.493.237-.63a.592.592 0 0 0-.07-.267.61.61 0 0 1-.068-.177c0-.079.069-.118.197-.118.216 0 .492.098.827.305.335.197.502.404.502.6 0 .07-.069.139-.216.198-.148.059-.237.098-.286.118a6.322 6.322 0 0 0-.64.473 4.122 4.122 0 0 1-.404.295c.158.128.305.246.424.374.118.128.226.266.315.434.305-.207.58-.424.847-.64.423-.345.63-.601.63-.759a.428.428 0 0 0-.069-.226.403.403 0 0 1-.069-.148c0-.05.02-.079.05-.098a.218.218 0 0 1 .108-.03c.266 0 .57.128.916.374.344.246.512.502.512.749 0 .118-.08.197-.237.246-.157.05-.305.088-.433.118-.374.168-.778.384-1.221.64-.67.404-1.34.798-2.01 1.192.552 0 1.133-.04 1.724-.118.601-.08 1.015-.128 1.26-.158a4.977 4.977 0 0 1-.324-.384c-.187-.236-.286-.394-.286-.473 0-.049.03-.079.099-.079.413 0 .847.158 1.31.483.522.355.778.729.778 1.113 0 .266-.099.404-.286.404-.158 0-.345-.079-.552-.237-.206-.157-.354-.305-.433-.453-.532.119-.935.197-1.201.247a18.71 18.71 0 0 1-1.192.187c.167.04.345.088.522.118.236.079.364.187.364.325 0 .069-.02.187-.049.335-.04.148-.05.236-.05.246.277 0 .533-.01.75-.03.226-.02.521-.059.895-.118.217-.049.375-.088.483-.108.207-.04.384-.069.522-.069.227 0 .522.079.886.236.365.158.552.325.552.512 0 .07-.04.128-.128.178a.51.51 0 0 1-.266.069h-.099a4.83 4.83 0 0 0-1.083-.197 13.99 13.99 0 0 0-1.33-.05h-.57c-.158 0-.385.02-.68.05l.03.02Zm-1.93-7.337c.089.099.148.168.177.217a.575.575 0 0 1 .109.295c0 .148-.394.542-1.192 1.162-.798.621-1.25.877-1.369.759 0-.02.246-.355.739-1.005.492-.65.738-1.113.738-1.378 0-.02-.01-.07-.039-.158a.67.67 0 0 1-.04-.197c0-.089.05-.138.139-.138.039 0 .098.02.177.05a.622.622 0 0 0 .177.049c.295 0 .867-.168 1.714-.493.916-.354 1.378-.63 1.378-.817v-.118c-.01-.08.03-.119.109-.119.187 0 .433.148.738.434.306.285.463.532.463.719 0 .069-.03.118-.098.138-.07.02-.168.029-.286.029h-.217c-.354 0-.915.069-1.674.217-.344.059-.925.187-1.723.364l-.02-.01Zm2.63 1.33a.76.76 0 0 1-.05.276c-.03.078-.098.118-.197.118-.206 0-.393-.099-.56-.306-.06-.078-.257-.423-.572-1.043-.04-.06-.07-.138-.118-.227a.575.575 0 0 1-.06-.197l.07-.069c.069 0 .177.05.325.158.246.177.502.354.768.522.266.236.404.492.404.778l-.01-.01Zm.266-1.458.098-.03c.079 0 .187.02.305.05.128.04.217.059.266.079.591.187.975.335 1.162.443.424.236.63.571.63.975a.55.55 0 0 1-.098.325c-.069.098-.157.157-.276.157-.157 0-.521-.295-1.073-.886-.335-.374-.68-.748-1.014-1.123v.01Z" fill="#231815"/><path d="M24.93 13.502v3.349c0 .758-.058 1.398-.177 1.91-.118.512-.275.768-.472.768-.128 0-.246-.167-.335-.492-.089-.325-.128-.729-.128-1.201V13.63c-.532 0-1.034.05-1.527.158-.492.108-1.024.266-1.605.482-.079.03-.197.089-.364.178-.158.088-.296.137-.404.137-.148 0-.443-.137-.857-.413-.414-.276-.63-.463-.63-.581 0-.05.049-.079.147-.079.119 0 .296.02.532.05.246.039.424.049.532.049.355 0 .877-.06 1.556-.178.453-.079.768-.128.955-.147.375-.05.68-.099.907-.119.226-.02.482-.069.748-.138V9.967c0-.148-.05-.345-.158-.582-.108-.236-.226-.354-.364-.354-.148 0-.276 0-.404.03-.423.059-.66.098-.7.098-.176 0-.482-.108-.915-.325-.433-.217-.65-.394-.65-.552.02-.02.03-.03.04-.03a.227.227 0 0 1 .108-.029h.187c.64.128 1.34.187 2.107.187.572 0 1.094-.039 1.566-.118a4.546 4.546 0 0 0 1.251-.384c.158-.079.345-.118.552-.118.354 0 .6.01.738.04.335.059.512.196.512.413 0 .217-.305.374-.935.492-.63.119-1.448.168-2.482.168.217.138.384.266.512.404.187.197.286.384.286.57 0 .08-.02.178-.06.306a1.008 1.008 0 0 0-.058.246v2.541c.758 0 1.359-.01 1.802-.04.443-.029.758-.068.955-.127.197-.06.364-.089.532-.089.246 0 .571.109.965.325.394.217.591.444.591.67 0 .079-.04.158-.128.226a.406.406 0 0 1-.266.099h-.04c-.66-.187-1.29-.335-1.89-.443a9.965 9.965 0 0 0-1.773-.158h-.364c-.119 0-.247.01-.384.04l-.01.03Zm-1.86-2.354c0 .08-.08.148-.237.197-.158.05-.276.099-.364.118-.09.03-.444.237-1.074.64-.473.306-.817.454-1.034.454-.099 0-.148-.03-.148-.099 0-.049.227-.364.67-.935.443-.572.67-.956.67-1.162v-.257c-.01-.177.049-.265.157-.265.177 0 .453.167.808.512.364.334.541.6.541.787l.01.01Zm5.21.562c0 .394-.1.59-.287.59-.265 0-.679-.383-1.25-1.152-.532-.719-.788-1.181-.788-1.369 0-.02.01-.039.04-.049 0 0 .019 0 .039-.01.069 0 .177.03.325.089.02 0 .049.03.108.05.61.305 1.005.531 1.192.679.413.335.62.719.62 1.162v.01Zm4.668 1.31c0 .098-.01.167-.04.216a.207.207 0 0 1-.177.099c-.177 0-.561-.187-1.162-.571-.59-.384-.886-.64-.886-.788 0-.05.069-.08.216-.08.444 0 .867.08 1.26.247.523.217.789.512.789.886v-.01Zm1.123.67s.039.078.039.157c0 .217-.138.63-.414 1.24-.276.611-.541 1.222-.797 1.813-.286.67-.434 1.103-.434 1.31v.561c.01.158-.05.236-.177.236-.305 0-.62-.196-.955-.59-.335-.394-.493-.749-.493-1.054 0-.03.01-.05.04-.07 0 0 .02 0 .03-.009.038 0 .117.02.245.06.128.038.217.058.276.058.148 0 .433-.325.857-.965.148-.236.522-.827 1.103-1.792.384-.64.61-.965.67-.965l.01.01Zm-.257-3.763c0 .237-.088.365-.256.365-.256 0-.64-.227-1.132-.69-.493-.463-.739-.768-.739-.916 0-.049.05-.078.138-.078.414 0 .827.118 1.26.364.493.276.74.6.74.965l-.01-.01Zm4.097 7.14-.098.256c.955.119 1.664.247 2.117.404.916.305 1.38.749 1.38 1.33 0 .128-.03.226-.08.315-.049.089-.147.128-.266.128a.52.52 0 0 1-.315-.099 1.177 1.177 0 0 1-.285-.265c-.316-.296-.73-.591-1.26-.897a11.712 11.712 0 0 0-1.41-.699c-.373.522-.905.975-1.605 1.35-.689.374-1.359.55-2.018.55h-.109c-.069 0-.108-.029-.108-.068 0-.03.059-.079.177-.148.118-.069.246-.138.384-.216.64-.296 1.084-.522 1.31-.68.345-.236.69-.6 1.014-1.073a6.743 6.743 0 0 0-.827.197 13.21 13.21 0 0 1-.739.206c-.049.02-.147.07-.295.138a.748.748 0 0 1-.345.108c-.138 0-.384-.108-.758-.334-.374-.227-.551-.384-.551-.493 0-.02.039-.04.108-.069.108 0 .315.03.63.089.177.04.305.05.384.05.335 0 .739-.05 1.222-.149.482-.098.945-.197 1.388-.295 0-.226-.02-.424-.05-.61a.657.657 0 0 0-.245-.414s-.306.079-.887.216c-.197.04-.335.09-.433.148-.099.06-.187.099-.286.148-.177 0-.374-.158-.57-.473-.11-.157-.158-.295-.158-.404 0-.118.049-.197.137-.246A.96.96 0 0 1 34.83 15h.344c.237 0 .523-.118.867-.345.256-.177.512-.393.749-.64-.158-.069-.483-.256-.975-.561-.532-.335-.808-.551-.808-.63 0-.06.099-.119.296-.158a3.75 3.75 0 0 1 .748-.069c.128-.197.246-.394.374-.6.158-.286.237-.493.237-.63a.592.592 0 0 0-.07-.267.61.61 0 0 1-.068-.177c0-.079.069-.118.197-.118.216 0 .492.098.827.305.335.197.502.404.502.6 0 .07-.069.139-.216.198-.148.059-.237.098-.286.118a6.322 6.322 0 0 0-.64.473 4.122 4.122 0 0 1-.404.295c.158.128.305.246.424.374.118.128.226.266.315.434.305-.207.58-.424.847-.64.423-.345.63-.601.63-.759a.428.428 0 0 0-.069-.226.403.403 0 0 1-.069-.148c0-.05.02-.079.05-.098a.218.218 0 0 1 .108-.03c.266 0 .57.128.916.374.344.246.512.502.512.749 0 .118-.08.197-.237.246-.157.05-.305.088-.433.118-.374.168-.778.384-1.221.64-.67.404-1.34.798-2.01 1.192.552 0 1.133-.04 1.724-.118.601-.08 1.015-.128 1.26-.158a4.977 4.977 0 0 1-.324-.384c-.187-.236-.286-.394-.286-.473 0-.049.03-.079.099-.079.413 0 .847.158 1.31.483.522.355.778.729.778 1.113 0 .266-.099.404-.286.404-.158 0-.345-.079-.552-.237-.206-.157-.354-.305-.433-.453-.532.119-.935.197-1.201.247a18.71 18.71 0 0 1-1.192.187c.167.04.345.088.522.118.236.079.364.187.364.325 0 .069-.02.187-.049.335-.04.148-.05.236-.05.246.277 0 .533-.01.75-.03.226-.02.521-.059.895-.118.217-.049.375-.088.483-.108.207-.04.384-.069.522-.069.227 0 .522.079.886.236.365.158.552.325.552.512 0 .07-.04.128-.128.178a.51.51 0 0 1-.266.069h-.099a4.83 4.83 0 0 0-1.083-.197 13.99 13.99 0 0 0-1.33-.05h-.57c-.158 0-.385.02-.68.05l.03.02Zm-1.93-7.337c.089.099.148.168.177.217a.575.575 0 0 1 .109.295c0 .148-.394.542-1.192 1.162-.798.621-1.25.877-1.369.759 0-.02.246-.355.739-1.005.492-.65.738-1.113.738-1.378 0-.02-.01-.07-.039-.158a.67.67 0 0 1-.04-.197c0-.089.05-.138.139-.138.039 0 .098.02.177.05a.622.622 0 0 0 .177.049c.295 0 .867-.168 1.714-.493.916-.354 1.378-.63 1.378-.817v-.118c-.01-.08.03-.119.109-.119.187 0 .433.148.738.434.306.285.463.532.463.719 0 .069-.03.118-.098.138-.07.02-.168.029-.286.029h-.217c-.354 0-.915.069-1.674.217-.344.059-.925.187-1.723.364l-.02-.01Zm2.63 1.33a.76.76 0 0 1-.05.276c-.03.078-.098.118-.197.118-.206 0-.393-.099-.56-.306-.06-.078-.257-.423-.572-1.043-.04-.06-.07-.138-.118-.227a.575.575 0 0 1-.06-.197l.07-.069c.069 0 .177.05.325.158.246.177.502.354.768.522.266.236.404.492.404.778l-.01-.01Zm.266-1.458.098-.03c.079 0 .187.02.305.05.128.04.217.059.266.079.591.187.975.335 1.162.443.424.236.63.571.63.975a.55.55 0 0 1-.098.325c-.069.098-.157.157-.276.157-.157 0-.521-.295-1.073-.886-.335-.374-.68-.748-1.014-1.123v.01Z" stroke="#231815" stroke-width="2"/><path d="M24.93 13.502v3.349c0 .758-.058 1.398-.177 1.91-.118.512-.275.768-.472.768-.128 0-.246-.167-.335-.492-.089-.325-.128-.729-.128-1.201V13.63c-.532 0-1.034.05-1.527.158-.492.108-1.024.266-1.605.482-.079.03-.197.089-.364.178-.158.088-.296.137-.404.137-.148 0-.443-.137-.857-.413-.414-.276-.63-.463-.63-.581 0-.05.049-.079.147-.079.119 0 .296.02.532.05.246.039.424.049.532.049.355 0 .877-.06 1.556-.178.453-.079.768-.128.955-.147.375-.05.68-.099.907-.119.226-.02.482-.069.748-.138V9.967c0-.148-.05-.345-.158-.582-.108-.236-.226-.354-.364-.354-.148 0-.276 0-.404.03-.423.059-.66.098-.7.098-.176 0-.482-.108-.915-.325-.433-.217-.65-.394-.65-.552.02-.02.03-.03.04-.03a.227.227 0 0 1 .108-.029h.187c.64.128 1.34.187 2.107.187.572 0 1.094-.039 1.566-.118a4.546 4.546 0 0 0 1.251-.384c.158-.079.345-.118.552-.118.354 0 .6.01.738.04.335.059.512.196.512.413 0 .217-.305.374-.935.492-.63.119-1.448.168-2.482.168.217.138.384.266.512.404.187.197.286.384.286.57 0 .08-.02.178-.06.306a1.008 1.008 0 0 0-.058.246v2.541c.758 0 1.359-.01 1.802-.04.443-.029.758-.068.955-.127.197-.06.364-.089.532-.089.246 0 .571.109.965.325.394.217.591.444.591.67 0 .079-.04.158-.128.226a.406.406 0 0 1-.266.099h-.04c-.66-.187-1.29-.335-1.89-.443a9.965 9.965 0 0 0-1.773-.158h-.364c-.119 0-.247.01-.384.04l-.01.03Zm-1.86-2.354c0 .08-.08.148-.237.197-.158.05-.276.099-.364.118-.09.03-.444.237-1.074.64-.473.306-.817.454-1.034.454-.099 0-.148-.03-.148-.099 0-.049.227-.364.67-.935.443-.572.67-.956.67-1.162v-.257c-.01-.177.049-.265.157-.265.177 0 .453.167.808.512.364.334.541.6.541.787l.01.01Zm5.21.562c0 .394-.1.59-.287.59-.265 0-.679-.383-1.25-1.152-.532-.719-.788-1.181-.788-1.369 0-.02.01-.039.04-.049 0 0 .019 0 .039-.01.069 0 .177.03.325.089.02 0 .049.03.108.05.61.305 1.005.531 1.192.679.413.335.62.719.62 1.162v.01Zm4.668 1.31c0 .098-.01.167-.04.216a.207.207 0 0 1-.177.099c-.177 0-.561-.187-1.162-.571-.59-.384-.886-.64-.886-.788 0-.05.069-.08.216-.08.444 0 .867.08 1.26.247.523.217.789.512.789.886v-.01Zm1.123.67s.039.078.039.157c0 .217-.138.63-.414 1.24-.276.611-.541 1.222-.797 1.813-.286.67-.434 1.103-.434 1.31v.561c.01.158-.05.236-.177.236-.305 0-.62-.196-.955-.59-.335-.394-.493-.749-.493-1.054 0-.03.01-.05.04-.07 0 0 .02 0 .03-.009.038 0 .117.02.245.06.128.038.217.058.276.058.148 0 .433-.325.857-.965.148-.236.522-.827 1.103-1.792.384-.64.61-.965.67-.965l.01.01Zm-.257-3.763c0 .237-.088.365-.256.365-.256 0-.64-.227-1.132-.69-.493-.463-.739-.768-.739-.916 0-.049.05-.078.138-.078.414 0 .827.118 1.26.364.493.276.74.6.74.965l-.01-.01Zm4.097 7.14-.098.256c.955.119 1.664.247 2.117.404.916.305 1.38.749 1.38 1.33 0 .128-.03.226-.08.315-.049.089-.147.128-.266.128a.52.52 0 0 1-.315-.099 1.177 1.177 0 0 1-.285-.265c-.316-.296-.73-.591-1.26-.897a11.712 11.712 0 0 0-1.41-.699c-.373.522-.905.975-1.605 1.35-.689.374-1.359.55-2.018.55h-.109c-.069 0-.108-.029-.108-.068 0-.03.059-.079.177-.148.118-.069.246-.138.384-.216.64-.296 1.084-.522 1.31-.68.345-.236.69-.6 1.014-1.073a6.743 6.743 0 0 0-.827.197 13.21 13.21 0 0 1-.739.206c-.049.02-.147.07-.295.138a.748.748 0 0 1-.345.108c-.138 0-.384-.108-.758-.334-.374-.227-.551-.384-.551-.493 0-.02.039-.04.108-.069.108 0 .315.03.63.089.177.04.305.05.384.05.335 0 .739-.05 1.222-.149.482-.098.945-.197 1.388-.295 0-.226-.02-.424-.05-.61a.657.657 0 0 0-.245-.414s-.306.079-.887.216c-.197.04-.335.09-.433.148-.099.06-.187.099-.286.148-.177 0-.374-.158-.57-.473-.11-.157-.158-.295-.158-.404 0-.118.049-.197.137-.246A.96.96 0 0 1 34.83 15h.344c.237 0 .523-.118.867-.345.256-.177.512-.393.749-.64-.158-.069-.483-.256-.975-.561-.532-.335-.808-.551-.808-.63 0-.06.099-.119.296-.158a3.75 3.75 0 0 1 .748-.069c.128-.197.246-.394.374-.6.158-.286.237-.493.237-.63a.592.592 0 0 0-.07-.267.61.61 0 0 1-.068-.177c0-.079.069-.118.197-.118.216 0 .492.098.827.305.335.197.502.404.502.6 0 .07-.069.139-.216.198-.148.059-.237.098-.286.118a6.322 6.322 0 0 0-.64.473 4.122 4.122 0 0 1-.404.295c.158.128.305.246.424.374.118.128.226.266.315.434.305-.207.58-.424.847-.64.423-.345.63-.601.63-.759a.428.428 0 0 0-.069-.226.403.403 0 0 1-.069-.148c0-.05.02-.079.05-.098a.218.218 0 0 1 .108-.03c.266 0 .57.128.916.374.344.246.512.502.512.749 0 .118-.08.197-.237.246-.157.05-.305.088-.433.118-.374.168-.778.384-1.221.64-.67.404-1.34.798-2.01 1.192.552 0 1.133-.04 1.724-.118.601-.08 1.015-.128 1.26-.158a4.977 4.977 0 0 1-.324-.384c-.187-.236-.286-.394-.286-.473 0-.049.03-.079.099-.079.413 0 .847.158 1.31.483.522.355.778.729.778 1.113 0 .266-.099.404-.286.404-.158 0-.345-.079-.552-.237-.206-.157-.354-.305-.433-.453-.532.119-.935.197-1.201.247a18.71 18.71 0 0 1-1.192.187c.167.04.345.088.522.118.236.079.364.187.364.325 0 .069-.02.187-.049.335-.04.148-.05.236-.05.246.277 0 .533-.01.75-.03.226-.02.521-.059.895-.118.217-.049.375-.088.483-.108.207-.04.384-.069.522-.069.227 0 .522.079.886.236.365.158.552.325.552.512 0 .07-.04.128-.128.178a.51.51 0 0 1-.266.069h-.099a4.83 4.83 0 0 0-1.083-.197 13.99 13.99 0 0 0-1.33-.05h-.57c-.158 0-.385.02-.68.05l.03.02Zm-1.93-7.337c.089.099.148.168.177.217a.575.575 0 0 1 .109.295c0 .148-.394.542-1.192 1.162-.798.621-1.25.877-1.369.759 0-.02.246-.355.739-1.005.492-.65.738-1.113.738-1.378 0-.02-.01-.07-.039-.158a.67.67 0 0 1-.04-.197c0-.089.05-.138.139-.138.039 0 .098.02.177.05a.622.622 0 0 0 .177.049c.295 0 .867-.168 1.714-.493.916-.354 1.378-.63 1.378-.817v-.118c-.01-.08.03-.119.109-.119.187 0 .433.148.738.434.306.285.463.532.463.719 0 .069-.03.118-.098.138-.07.02-.168.029-.286.029h-.217c-.354 0-.915.069-1.674.217-.344.059-.925.187-1.723.364l-.02-.01Zm2.63 1.33a.76.76 0 0 1-.05.276c-.03.078-.098.118-.197.118-.206 0-.393-.099-.56-.306-.06-.078-.257-.423-.572-1.043-.04-.06-.07-.138-.118-.227a.575.575 0 0 1-.06-.197l.07-.069c.069 0 .177.05.325.158.246.177.502.354.768.522.266.236.404.492.404.778l-.01-.01Zm.266-1.458.098-.03c.079 0 .187.02.305.05.128.04.217.059.266.079.591.187.975.335 1.162.443.424.236.63.571.63.975a.55.55 0 0 1-.098.325c-.069.098-.157.157-.276.157-.157 0-.521-.295-1.073-.886-.335-.374-.68-.748-1.014-1.123v.01Z" fill="#E68169"/><path d="M20.972 36.794c.078-.138.157-.236.206-.354.395-.966 1.044-1.763 1.675-2.561.059-.069.138-.128.187-.207.551-.876 1.389-1.398 2.295-1.832.334-.157.66-.325.847-.69.157-.304.443-.423.778-.403.275.02.561.02.827.079.827.187 1.585.098 2.324-.335.591-.345 1.221-.62 1.832-.926a7.906 7.906 0 0 1 3.122-.857c.423-.03.709-.216.916-.531.167-.256.305-.542.443-.818.099-.197.167-.404.246-.6.197-.483.502-.74 1.074-.7 1.27.099 2.462-.207 3.594-.788.444-.226.907-.403 1.37-.6.354-.148.531-.099.699.216.147.276.266.562.384.847.187.463.384.916.522 1.399.246.876.847 1.428 1.605 1.832.355.187.729.354 1.083.541.168.089.315.187.522.315 0 .306.02.611 0 .916-.069 1.044.246 1.95.955 2.728.06.07.09.158.158.276-.089.118-.167.246-.286.345-.137.118-.305.207-.453.325-.758.571-.846.748-.935 1.713-.177.247-.473.286-.739.335-.374.07-.699.237-1.024.424-.71.384-1.428.748-2.157 1.093-.847.394-1.694.778-2.55 1.133-.513.206-.798.56-.916 1.083-.138.63-.296 1.27-.385 1.91-.049.404-.216.69-.492.966-.975.955-1.95 1.92-2.915 2.885l-.266.266c-.6.61-.62.916-.05 1.586.198.236.434.443.68.63.493.374 1.015.719 1.517 1.083.197.148.423.306.364.601-.059.305-.295.473-.58.542a3.143 3.143 0 0 1-.74.04c-.403 0-.807-.02-1.21-.04-.365-.01-.69.108-.877.433-.325.571-.857.69-1.428.69-.542 0-1.054.039-1.507.305-.453-.07-.778-.306-1.103-.542-.404-.295-.818-.364-1.31-.207-.975.296-1.96.581-2.984.71-.581.078-1.152.147-1.802.236.069-.424.275-.69.433-.975.266-.493.561-.965.837-1.458.079-.138.168-.285.177-.423.02-.897.099-1.803-.502-2.59-.207-.266-.345-.591-.502-.867.01-.05 0-.089.03-.108.63-.857.462-1.813.374-2.768-.818-.6-1.635-.778-2.492-.069-.739-.68-1.448-1.33-2.157-1.97a.93.93 0 0 1-.325-.827c.03-.276.04-.561.079-.837.03-.217.079-.423.098-.64.07-.847.06-.847-.443-1.556.148-.06.286-.118.424-.168.147-.059.295-.108.502-.187l-.05-.049Z" fill="#368AA5" stroke="#231815" stroke-linecap="round" stroke-linejoin="round"/></g><defs><clipPath id="clip0_1119_33444"><path fill="#fff" transform="translate(.763)" d="M0 0h53.763v65H0z"/></clipPath></defs></svg>