<svg fill="none" xmlns="http://www.w3.org/2000/svg" viewBox="0 0 54 65"><g clip-path="url(#clip0_1119_33500)"><path d="M48.287 61.327 20.947 59.8c-3.21-.177-5.86-3.309-5.918-6.992L14.26 6.835c-.049-3.132 1.783-5.643 4.294-6.224L4.786 3.79C2.275 4.374.443 6.885.492 10.017L1.26 55.99c.06 3.683 2.709 6.815 5.92 6.992l27.339 1.527c.482.03.955-.02 1.398-.118l13.758-3.172a5.04 5.04 0 0 1-1.398.119l.01-.01Z" fill="#E2CCAF" stroke="#231815" stroke-linecap="round" stroke-linejoin="round"/><path d="M46.583 2.019c3.21.177 5.86 3.309 5.92 6.992l.767 45.973c.06 3.683-2.491 6.52-5.702 6.342L20.228 59.8c-3.21-.177-5.86-3.31-5.918-6.993l-.77-45.972C13.482 3.15 16.034.315 19.244.492l27.34 1.527Z" fill="#fff" stroke="#231815" stroke-linecap="round" stroke-linejoin="round"/><path d="m47.549 61.376-27.34-1.527c-3.21-.177-5.85-3.309-5.909-6.992l-.67-45.993c-.02-1.575.434-2.993 1.202-4.087.778-1.093 1.871-1.87 3.142-2.147l-6.885 1.527c-2.54.561-4.392 3.092-4.353 6.234l.67 45.992c.05 3.684 2.699 6.816 5.91 6.993l27.339 1.526c.472.03.925-.01 1.359-.108l6.884-1.526a4.789 4.789 0 0 1-1.36.108h.01Z" fill="#fff" stroke="#231815" stroke-linecap="round" stroke-linejoin="round"/><path d="M46.692 2.039c3.21.177 5.85 3.309 5.909 6.992l.67 45.992c.049 3.684-2.502 6.52-5.712 6.343l-27.34-1.527c-3.21-.177-5.85-3.309-5.909-6.992l-.67-45.992C13.591 3.17 16.142.325 19.352.512l27.34 1.527Z" fill="#fff" stroke="#231815" stroke-linecap="round" stroke-linejoin="round"/><path d="M34.233 47.115a.46.46 0 0 1-.276-.089c-.66-.453-16.043-11.188-14.694-20.622.74-5.17 4.038-7.012 6.885-7.012 2.678 0 5.87 1.625 7.494 5.21 1.34-3.369 4.294-5.614 7.564-5.614 2.688 0 5.919 1.743 6.884 6.638 1.861 9.346-12.931 20.908-13.561 21.39a.492.492 0 0 1-.306.1h.01Z" fill="#fff"/><path d="M41.196 19.48c2.836 0 5.545 1.93 6.401 6.244 1.822 9.16-13.374 20.909-13.374 20.909S18.416 35.72 19.736 26.483c.65-4.53 3.437-6.589 6.402-6.589 3.072 0 6.322 2.226 7.534 6.215 1.024-4.196 4.353-6.629 7.524-6.629Zm0-.984c-3.161 0-6.037 1.96-7.593 4.993-1.635-2.817-4.422-4.58-7.465-4.58-3.053 0-6.589 1.95-7.377 7.436-1.389 9.73 14.241 20.642 14.9 21.095a.973.973 0 0 0 1.163-.03c.64-.492 15.66-12.231 13.739-21.873-1.035-5.19-4.481-7.041-7.367-7.041Z" fill="#231815"/><path d="M21.41 25.33c1.32-9.237 11.563-8.203 13.936-.374 1.94-7.948 12.114-9.533 13.936-.374C51.104 33.74 35.908 45.49 35.908 45.49S20.1 34.578 21.42 25.34l-.01-.01Z" fill="#FF002A" stroke="#231815" stroke-linejoin="round"/></g><defs><clipPath id="clip0_1119_33500"><path fill="#fff" d="M0 0h53.763v65H0z"/></clipPath></defs></svg>