<svg fill="none" xmlns="http://www.w3.org/2000/svg" viewBox="0 0 55 65"><g clip-path="url(#clip0_1119_33068)"><path d="M48.813 61.327 21.473 59.8c-3.21-.177-5.86-3.309-5.919-6.992l-.768-45.973C14.737 3.703 16.57 1.192 19.08.611L5.312 3.79c-2.511.582-4.343 3.093-4.294 6.225l.768 45.973c.06 3.683 2.709 6.815 5.92 6.992l27.339 1.527c.482.03.955-.02 1.398-.118l13.758-3.172a5.04 5.04 0 0 1-1.398.119l.01-.01Z" fill="#368AA5" stroke="#231815" stroke-miterlimit="10"/><path d="M47.11 2.019c3.21.177 5.859 3.309 5.918 6.992l.768 45.973c.06 3.683-2.492 6.52-5.702 6.342L20.754 59.8c-3.21-.177-5.86-3.31-5.918-6.993l-.769-45.972C14.008 3.15 16.56.315 19.77.492L47.11 2.02Z" fill="#fff" stroke="#231815" stroke-linecap="round" stroke-linejoin="round"/><path d="m48.075 61.376-27.34-1.527c-3.21-.177-5.85-3.309-5.909-6.992l-.67-45.993c-.02-1.575.434-2.993 1.202-4.087C16.136 1.684 17.229.907 18.5.63l-6.885 1.527c-2.54.561-4.392 3.092-4.353 6.234l.67 45.992c.05 3.684 2.698 6.816 5.91 6.993l27.339 1.526c.472.03.925-.01 1.359-.108l6.884-1.526a4.789 4.789 0 0 1-1.36.108h.01Z" fill="#fff" stroke="#231815" stroke-linecap="round" stroke-linejoin="round"/><path d="M47.218 2.039c3.21.177 5.85 3.309 5.909 6.992l.67 45.992c.049 3.684-2.502 6.52-5.713 6.343l-27.339-1.527c-3.21-.177-5.85-3.309-5.91-6.992l-.669-45.992C14.117 3.17 16.668.325 19.878.512l27.34 1.527Z" fill="#fff" stroke="#231815" stroke-linecap="round" stroke-linejoin="round"/><path d="M21.542 47.755a.494.494 0 0 1-.453-.492V13.995a.48.48 0 0 1 .158-.355.487.487 0 0 1 .335-.138l26.276 1.724c.256.02.462.236.462.492v33.525a.518.518 0 0 1-.157.364.46.46 0 0 1-.335.128l-26.276-1.99-.01.01Z" fill="#00698A"/><path d="m21.582 13.995 26.236 1.723v33.524l-26.236-1.99V13.996Zm0-.985a.99.99 0 0 0-.985.985v33.268c0 .512.394.945.906.985l26.237 1.989h.078a.992.992 0 0 0 .985-.985V15.718a.989.989 0 0 0-.916-.985L21.651 13.01h-.069Z" fill="#231815"/><path d="M21.542 47.755a.494.494 0 0 1-.453-.492V27.664c0-.138.06-.266.158-.364a.46.46 0 0 1 .335-.128l26.276 1.832c.256.02.462.236.462.492v19.746a.519.519 0 0 1-.157.365.46.46 0 0 1-.335.128l-26.276-1.99-.01.01Z" fill="#E86546"/><path d="m21.582 27.665 26.236 1.831v19.747l-26.236-1.99V27.655m0-.985a.99.99 0 0 0-.985.985v19.598c0 .512.394.946.906.985l26.237 1.99h.078a.992.992 0 0 0 .985-.985V29.496a.989.989 0 0 0-.916-.984L21.651 26.68h-.069v-.01Z" fill="#231815"/><path d="m23.118 23.47-.571-.04v-4.284l.571.039v-.857l.571.04v-.857l1.724.118v.857l.571.04v.856l-.571-.04v-.856l-1.724-.118v.856l-.57-.039v4.284l.57.04v.856l1.724.119v-.857l.571.039v.857l-.571-.04v.857l-1.724-.118v-.857l-.57-.04v-.856Zm3.447-4.049.572.04v-.857l.57.039v-.857l1.734.118v.857l.581.04v.856l.581.04v4.294l-.58-.04v.857l-.582-.04v.857l-1.733-.118v-.857l-.571-.039v-.857l-.572-.04v-4.293Zm1.153.079-.572-.04v4.294l.572.04v.857l1.733.118v-.857l.581.04v-4.295l-.581-.039v-.857l-1.733-.118v.857Zm3.466-1.487.581.04v.856l.581.04v.856l.581.04v.856l.581.04v.857l.581.039v-.857l.581.04v-.857l.581.04v-.858l.582.04v-.857l.58.04v7.75l-.58-.04v-6.027l-.581-.04v.858l-.582-.04v.857l-.58-.04v.858l-.582-.04v-.857l-.58-.039v-.857l-.582-.04v-.856l-.58-.04v6.018l-.582-.04v-7.74Zm6.934 8.214-.581-.04v-7.75l.58.039v7.75Zm1.742-1.606-.58-.04v-4.303l.58.04v-.867l.582.04v-.867l1.743.118v.866l.581.04v.866l-.58-.039v-.867l-1.744-.118v.867l-.581-.04v4.314l.58.04v.866l1.744.118v-.866l.581.04v.866l-.58-.04v.867l-1.744-.118v-.867l-.581-.04v-.876Zm3.487-4.934.581.04v-.867l2.325.157v.867l.58.04v.866l-.58-.04v-.866l-2.325-.157v2.59l2.325.157v.867l.58.04v2.59l-.58-.04v.867l-2.325-.158v-.867l-.58-.039v-.867l.58.04v.866l2.325.158v-2.59l-2.325-.158v-.866l-.58-.04v-2.59Z" fill="#fff"/><path d="m32.504 37.02 1.211-6.539 2.384 6.657 5.476.395-2.788 1.624 3.782 1.104-4.284.62 3.093 3.171-4.905-2.029v4.432l-3.329-4.304-4.422 3.713 3.014-5.84-5.052-3.329 3.565.256-1.684-4.392 3.939 4.461Z" fill="#E2CCAF" stroke="#231815" stroke-linecap="round" stroke-linejoin="round"/></g><defs><clipPath id="clip0_1119_33068"><path fill="#fff" transform="translate(.526)" d="M0 0h53.763v65H0z"/></clipPath></defs></svg>