<svg fill="none" xmlns="http://www.w3.org/2000/svg" viewBox="0 0 55 65"><g clip-path="url(#clip0_1119_33402)"><path d="M48.575 61.327 21.236 59.8c-3.21-.177-5.86-3.309-5.919-6.992L14.55 6.835c-.05-3.132 1.782-5.643 4.294-6.224L5.075 3.79C2.563 4.374.732 6.885.78 10.017l.768 45.973c.059 3.683 2.708 6.815 5.919 6.992l27.34 1.527c.482.03.955-.02 1.398-.118l13.758-3.172a5.04 5.04 0 0 1-1.398.119l.01-.01Z" fill="#E68169" stroke="#231815" stroke-miterlimit="10"/><path d="M46.872 2.019c3.21.177 5.86 3.309 5.919 6.992l.768 45.973c.059 3.683-2.492 6.52-5.702 6.342L20.517 59.8c-3.21-.177-5.86-3.31-5.919-6.993L13.83 6.835C13.771 3.15 16.322.315 19.532.492l27.34 1.527Z" fill="#fff" stroke="#231815" stroke-linecap="round" stroke-linejoin="round"/><path d="m47.837 61.376-27.34-1.527c-3.21-.177-5.85-3.309-5.908-6.992l-.67-45.993c-.02-1.575.433-2.993 1.201-4.087.78-1.093 1.872-1.87 3.142-2.147l-6.884 1.527c-2.54.561-4.392 3.092-4.353 6.234l.67 45.992c.049 3.684 2.698 6.816 5.909 6.993l27.34 1.526c.472.03.925-.01 1.358-.108l6.884-1.526a4.789 4.789 0 0 1-1.359.108h.01Z" fill="#fff" stroke="#231815" stroke-linecap="round" stroke-linejoin="round"/><path d="M46.98 2.039c3.211.177 5.85 3.309 5.91 6.992l.67 45.992c.048 3.684-2.502 6.52-5.713 6.343l-27.34-1.527c-3.21-.177-5.85-3.309-5.908-6.992l-.67-45.992C13.879 3.17 16.43.325 19.64.512l27.34 1.527Z" fill="#fff" stroke="#231815" stroke-linecap="round" stroke-linejoin="round"/><path d="M26.265 16.979v-3.772c-.197 0-.541.059-1.044.177a2.96 2.96 0 0 1-.512.079c-.138 0-.394-.108-.768-.325-.384-.217-.571-.374-.571-.473 0-.03.03-.049.078-.069.02 0 .05 0 .099-.01.246 0 .443 0 .59.01.72.05 1.104.07 1.153.07.197 0 .384-.01.552-.03.167-.02.315-.06.433-.099v-2.235c0-.217-.069-.444-.197-.7a54.604 54.604 0 0 1-.473-.788c0-.118.099-.177.296-.177.315 0 .68.118 1.093.345.414.226.62.463.62.719 0 .118-.039.285-.108.512-.069.227-.108.394-.108.522v1.704c.187 0 .512-.08.975-.246.256-.09.443-.138.561-.138.187 0 .414.049.67.157.256.108.384.246.384.404 0 .246-.364.394-1.103.453-.296.03-.63.04-1.015.04h-.482v2.146c0 .66-.02 1.212-.069 1.645h2.876c.059 0 .157 0 .285-.03.128-.02.217-.029.286-.029.246 0 .581.128.995.394.413.266.62.512.62.739 0 .098-.05.167-.138.216a.593.593 0 0 1-.285.079c-1.34-.433-2.128-.67-2.354-.71a7.8 7.8 0 0 0-1.556-.147c-.71 0-1.635.07-2.797.207-1.162.138-1.92.315-2.275.532a4.706 4.706 0 0 0-.365.207.688.688 0 0 1-.354.118c-.148 0-.394-.158-.749-.483-.354-.325-.531-.551-.531-.68 0-.048.078-.078.236-.078.148 0 .335.02.542.05.206.029.393.058.551.068.61 0 1.27-.04 2-.118.886-.118 1.546-.197 1.979-.256h-.02Zm8.115-1.231.07-2.69a.963.963 0 0 0-.257.05c-.236.079-.384.118-.453.118a1.59 1.59 0 0 1-.492-.098c-.207-.07-.306-.138-.306-.217 0-.04.04-.069.109-.088.069-.01.138-.02.216-.02.168 0 .375-.03.611-.079a2.74 2.74 0 0 0 .581-.187v-1.832a1.3 1.3 0 0 0-.177-.66c-.138-.197-.266-.394-.404-.59 0-.119.098-.178.295-.178.286 0 .611.099.966.296.354.196.531.413.531.66 0 .108-.03.236-.098.383a1.577 1.577 0 0 0-.118.483 6.12 6.12 0 0 0-.03.68v.285s.099-.05.217-.138c.118-.079.285-.118.502-.118.197 0 .296.07.296.197 0 .148-.138.305-.404.453a2.55 2.55 0 0 1-.62.256l-.178 2.492c.384-.246.69-.443.926-.581.236-.138.384-.207.453-.207l.04.04c0 .216-.542.768-1.636 1.674-.719.59-1.103.906-1.152.965-.02.02-.05.098-.108.236-.05.138-.128.207-.227.207-.157 0-.354-.128-.59-.404-.237-.266-.345-.473-.345-.62 0-.089.059-.128.177-.128h.295c.138 0 .355-.089.66-.256.237-.138.453-.266.64-.404l.01.02Zm7.406.817c-.305.354-.68.719-1.142 1.073-.581.453-1.024.68-1.33.68-.049-.02-.078-.04-.078-.069.433-.492.748-.867.965-1.123.66-.788 1.034-1.28 1.113-1.477a13.272 13.272 0 0 1-.66-1.773 20.88 20.88 0 0 1-.503-1.98c-.413.09-.748.168-1.014.217-.266.06-.542.109-.837.158 0 .256 0 .453-.02.6-.02.149-.079.503-.197 1.094.217-.05.375-.098.483-.118a1.46 1.46 0 0 0 .492-.197c.109-.079.237-.168.365-.266a.995.995 0 0 1 .472-.099c.089 0 .207.04.345.109.138.069.217.147.217.226 0 .07-.138.148-.414.227-.177.049-.354.088-.522.138v.256c0 .719-.05 1.29-.138 1.723-.148.69-.394 1.172-.748 1.448-.02 0-.07.05-.158.108a.445.445 0 0 1-.226.089c-.089 0-.148-.089-.187-.256-.04-.177-.158-.384-.365-.62-.207-.237-.305-.375-.305-.404 0-.05.069-.08.217-.08.059 0 .167 0 .315.03.147.02.226.03.236.03.286 0 .473-.335.552-1.005.039-.305.049-.59.049-.857v-.216l-.749.226c-.187.769-.413 1.438-.68 2-.344.719-.767 1.28-1.26 1.664-.04.04-.088.079-.157.128a.338.338 0 0 1-.188.069l-.049-.069s.03-.118.079-.226c0-.02.05-.09.118-.217.483-.808.818-1.596 1.015-2.374.197-.768.295-1.664.295-2.688 0-.197-.05-.404-.157-.61a11.833 11.833 0 0 1-.345-.602c0-.059.098-.098.285-.098.188 0 .414.05.66.158.246.098.463.226.65.364.266-.04.552-.108.857-.197.305-.089.63-.187.975-.305-.118-.995-.197-1.596-.256-1.822a4.805 4.805 0 0 0-.748-1.625c0-.099.088-.148.256-.148.285 0 .62.108.994.335.384.226.572.443.572.67 0 .078-.02.187-.07.324a.967.967 0 0 0-.068.306l.039 1.723a2.61 2.61 0 0 0 .6-.226c.454-.227.799-.335 1.035-.335.177 0 .384.03.6.098.217.07.335.158.335.286 0 .158-.364.305-1.103.433-.236.05-.699.099-1.369.178 0 .531.07 1.112.217 1.733.148.62.345 1.123.6 1.497a4.96 4.96 0 0 0 .277-.72 2.3 2.3 0 0 0 .088-.65l-.03-.413c0-.069.05-.108.158-.108.207 0 .473.098.798.305.325.207.492.394.492.562 0 .059-.069.157-.216.285a1.132 1.132 0 0 0-.158.158c-.128.197-.285.473-.473.817-.049.079-.187.365-.443.857.119.246.365.59.739 1.054.433.542.739.807.906.807.069 0 .118-.236.148-.719.03-.482.069-.718.138-.718.039 0 .078.069.137.197.06.128.148.492.276 1.093.099.463.227.817.384 1.053.06.09.109.168.148.237a.51.51 0 0 1 .05.256c0 .177-.1.266-.296.266a.912.912 0 0 1-.286-.04 3.602 3.602 0 0 1-1.458-.965c-.068-.078-.521-.728-1.339-1.94v.01Zm2.157-6.628c0 .148-.03.246-.079.305a.254.254 0 0 1-.206.089c-.158 0-.532-.197-1.153-.581-.61-.384-.925-.64-.925-.759 0-.078.088-.118.256-.118.453 0 .886.08 1.29.227.541.207.807.482.807.847l.01-.01Z" fill="#231815"/><path d="M26.265 16.979v-3.772c-.197 0-.541.059-1.044.177a2.96 2.96 0 0 1-.512.079c-.138 0-.394-.108-.768-.325-.384-.217-.571-.374-.571-.473 0-.03.03-.049.078-.069.02 0 .05 0 .099-.01.246 0 .443 0 .59.01.72.05 1.104.07 1.153.07.197 0 .384-.01.552-.03.167-.02.315-.06.433-.099v-2.235c0-.217-.069-.444-.197-.7a54.604 54.604 0 0 1-.473-.788c0-.118.099-.177.296-.177.315 0 .68.118 1.093.345.414.226.62.463.62.719 0 .118-.039.285-.108.512-.069.227-.108.394-.108.522v1.704c.187 0 .512-.08.975-.246.256-.09.443-.138.561-.138.187 0 .414.049.67.157.256.108.384.246.384.404 0 .246-.364.394-1.103.453-.296.03-.63.04-1.015.04h-.482v2.146c0 .66-.02 1.212-.069 1.645h2.876c.059 0 .157 0 .285-.03.128-.02.217-.029.286-.029.246 0 .581.128.995.394.413.266.62.512.62.739 0 .098-.05.167-.138.216a.593.593 0 0 1-.285.079c-1.34-.433-2.128-.67-2.354-.71a7.8 7.8 0 0 0-1.556-.147c-.71 0-1.635.07-2.797.207-1.162.138-1.92.315-2.275.532a4.706 4.706 0 0 0-.365.207.688.688 0 0 1-.354.118c-.148 0-.394-.158-.749-.483-.354-.325-.531-.551-.531-.68 0-.048.078-.078.236-.078.148 0 .335.02.542.05.206.029.393.058.551.068.61 0 1.27-.04 2-.118.886-.118 1.546-.197 1.979-.256h-.02Zm8.115-1.231.07-2.69a.963.963 0 0 0-.257.05c-.236.079-.384.118-.453.118a1.59 1.59 0 0 1-.492-.098c-.207-.07-.306-.138-.306-.217 0-.04.04-.069.109-.088.069-.01.138-.02.216-.02.168 0 .375-.03.611-.079a2.74 2.74 0 0 0 .581-.187v-1.832a1.3 1.3 0 0 0-.177-.66c-.138-.197-.266-.394-.404-.59 0-.119.098-.178.295-.178.286 0 .611.099.966.296.354.196.531.413.531.66 0 .108-.03.236-.098.383a1.577 1.577 0 0 0-.118.483 6.12 6.12 0 0 0-.03.68v.285s.099-.05.217-.138c.118-.079.285-.118.502-.118.197 0 .296.07.296.197 0 .148-.138.305-.404.453a2.55 2.55 0 0 1-.62.256l-.178 2.492c.384-.246.69-.443.926-.581.236-.138.384-.207.453-.207l.04.04c0 .216-.542.768-1.636 1.674-.719.59-1.103.906-1.152.965-.02.02-.05.098-.108.236-.05.138-.128.207-.227.207-.157 0-.354-.128-.59-.404-.237-.266-.345-.473-.345-.62 0-.089.059-.128.177-.128h.295c.138 0 .355-.089.66-.256.237-.138.453-.266.64-.404l.01.02Zm7.406.817c-.305.354-.68.719-1.142 1.073-.581.453-1.024.68-1.33.68-.049-.02-.078-.04-.078-.069.433-.492.748-.867.965-1.123.66-.788 1.034-1.28 1.113-1.477a13.272 13.272 0 0 1-.66-1.773 20.88 20.88 0 0 1-.503-1.98c-.413.09-.748.168-1.014.217-.266.06-.542.109-.837.158 0 .256 0 .453-.02.6-.02.149-.079.503-.197 1.094.217-.05.375-.098.483-.118a1.46 1.46 0 0 0 .492-.197c.109-.079.237-.168.365-.266a.995.995 0 0 1 .472-.099c.089 0 .207.04.345.109.138.069.217.147.217.226 0 .07-.138.148-.414.227-.177.049-.354.088-.522.138v.256c0 .719-.05 1.29-.138 1.723-.148.69-.394 1.172-.748 1.448-.02 0-.07.05-.158.108a.445.445 0 0 1-.226.089c-.089 0-.148-.089-.187-.256-.04-.177-.158-.384-.365-.62-.207-.237-.305-.375-.305-.404 0-.05.069-.08.217-.08.059 0 .167 0 .315.03.147.02.226.03.236.03.286 0 .473-.335.552-1.005.039-.305.049-.59.049-.857v-.216l-.749.226c-.187.769-.413 1.438-.68 2-.344.719-.767 1.28-1.26 1.664-.04.04-.088.079-.157.128a.338.338 0 0 1-.188.069l-.049-.069s.03-.118.079-.226c0-.02.05-.09.118-.217.483-.808.818-1.596 1.015-2.374.197-.768.295-1.664.295-2.688 0-.197-.05-.404-.157-.61a11.833 11.833 0 0 1-.345-.602c0-.059.098-.098.285-.098.188 0 .414.05.66.158.246.098.463.226.65.364.266-.04.552-.108.857-.197.305-.089.63-.187.975-.305-.118-.995-.197-1.596-.256-1.822a4.805 4.805 0 0 0-.748-1.625c0-.099.088-.148.256-.148.285 0 .62.108.994.335.384.226.572.443.572.67 0 .078-.02.187-.07.324a.967.967 0 0 0-.068.306l.039 1.723a2.61 2.61 0 0 0 .6-.226c.454-.227.799-.335 1.035-.335.177 0 .384.03.6.098.217.07.335.158.335.286 0 .158-.364.305-1.103.433-.236.05-.699.099-1.369.178 0 .531.07 1.112.217 1.733.148.62.345 1.123.6 1.497a4.96 4.96 0 0 0 .277-.72 2.3 2.3 0 0 0 .088-.65l-.03-.413c0-.069.05-.108.158-.108.207 0 .473.098.798.305.325.207.492.394.492.562 0 .059-.069.157-.216.285a1.132 1.132 0 0 0-.158.158c-.128.197-.285.473-.473.817-.049.079-.187.365-.443.857.119.246.365.59.739 1.054.433.542.739.807.906.807.069 0 .118-.236.148-.719.03-.482.069-.718.138-.718.039 0 .078.069.137.197.06.128.148.492.276 1.093.099.463.227.817.384 1.053.06.09.109.168.148.237a.51.51 0 0 1 .05.256c0 .177-.1.266-.296.266a.912.912 0 0 1-.286-.04 3.602 3.602 0 0 1-1.458-.965c-.068-.078-.521-.728-1.339-1.94v.01Zm2.157-6.628c0 .148-.03.246-.079.305a.254.254 0 0 1-.206.089c-.158 0-.532-.197-1.153-.581-.61-.384-.925-.64-.925-.759 0-.078.088-.118.256-.118.453 0 .886.08 1.29.227.541.207.807.482.807.847l.01-.01Z" stroke="#231815" stroke-width="2"/><path d="M26.265 16.979v-3.772c-.197 0-.541.059-1.044.177a2.96 2.96 0 0 1-.512.079c-.138 0-.394-.108-.768-.325-.384-.217-.571-.374-.571-.473 0-.03.03-.049.078-.069.02 0 .05 0 .099-.01.246 0 .443 0 .59.01.72.05 1.104.07 1.153.07.197 0 .384-.01.552-.03.167-.02.315-.06.433-.099v-2.235c0-.217-.069-.444-.197-.7a54.604 54.604 0 0 1-.473-.788c0-.118.099-.177.296-.177.315 0 .68.118 1.093.345.414.226.62.463.62.719 0 .118-.039.285-.108.512-.069.227-.108.394-.108.522v1.704c.187 0 .512-.08.975-.246.256-.09.443-.138.561-.138.187 0 .414.049.67.157.256.108.384.246.384.404 0 .246-.364.394-1.103.453-.296.03-.63.04-1.015.04h-.482v2.146c0 .66-.02 1.212-.069 1.645h2.876c.059 0 .157 0 .285-.03.128-.02.217-.029.286-.029.246 0 .581.128.995.394.413.266.62.512.62.739 0 .098-.05.167-.138.216a.593.593 0 0 1-.285.079c-1.34-.433-2.128-.67-2.354-.71a7.8 7.8 0 0 0-1.556-.147c-.71 0-1.635.07-2.797.207-1.162.138-1.92.315-2.275.532a4.706 4.706 0 0 0-.365.207.688.688 0 0 1-.354.118c-.148 0-.394-.158-.749-.483-.354-.325-.531-.551-.531-.68 0-.048.078-.078.236-.078.148 0 .335.02.542.05.206.029.393.058.551.068.61 0 1.27-.04 2-.118.886-.118 1.546-.197 1.979-.256h-.02Zm8.115-1.231.07-2.69a.963.963 0 0 0-.257.05c-.236.079-.384.118-.453.118a1.59 1.59 0 0 1-.492-.098c-.207-.07-.306-.138-.306-.217 0-.04.04-.069.109-.088.069-.01.138-.02.216-.02.168 0 .375-.03.611-.079a2.74 2.74 0 0 0 .581-.187v-1.832a1.3 1.3 0 0 0-.177-.66c-.138-.197-.266-.394-.404-.59 0-.119.098-.178.295-.178.286 0 .611.099.966.296.354.196.531.413.531.66 0 .108-.03.236-.098.383a1.577 1.577 0 0 0-.118.483 6.12 6.12 0 0 0-.03.68v.285s.099-.05.217-.138c.118-.079.285-.118.502-.118.197 0 .296.07.296.197 0 .148-.138.305-.404.453a2.55 2.55 0 0 1-.62.256l-.178 2.492c.384-.246.69-.443.926-.581.236-.138.384-.207.453-.207l.04.04c0 .216-.542.768-1.636 1.674-.719.59-1.103.906-1.152.965-.02.02-.05.098-.108.236-.05.138-.128.207-.227.207-.157 0-.354-.128-.59-.404-.237-.266-.345-.473-.345-.62 0-.089.059-.128.177-.128h.295c.138 0 .355-.089.66-.256.237-.138.453-.266.64-.404l.01.02Zm7.406.817c-.305.354-.68.719-1.142 1.073-.581.453-1.024.68-1.33.68-.049-.02-.078-.04-.078-.069.433-.492.748-.867.965-1.123.66-.788 1.034-1.28 1.113-1.477a13.272 13.272 0 0 1-.66-1.773 20.88 20.88 0 0 1-.503-1.98c-.413.09-.748.168-1.014.217-.266.06-.542.109-.837.158 0 .256 0 .453-.02.6-.02.149-.079.503-.197 1.094.217-.05.375-.098.483-.118a1.46 1.46 0 0 0 .492-.197c.109-.079.237-.168.365-.266a.995.995 0 0 1 .472-.099c.089 0 .207.04.345.109.138.069.217.147.217.226 0 .07-.138.148-.414.227-.177.049-.354.088-.522.138v.256c0 .719-.05 1.29-.138 1.723-.148.69-.394 1.172-.748 1.448-.02 0-.07.05-.158.108a.445.445 0 0 1-.226.089c-.089 0-.148-.089-.187-.256-.04-.177-.158-.384-.365-.62-.207-.237-.305-.375-.305-.404 0-.05.069-.08.217-.08.059 0 .167 0 .315.03.147.02.226.03.236.03.286 0 .473-.335.552-1.005.039-.305.049-.59.049-.857v-.216l-.749.226c-.187.769-.413 1.438-.68 2-.344.719-.767 1.28-1.26 1.664-.04.04-.088.079-.157.128a.338.338 0 0 1-.188.069l-.049-.069s.03-.118.079-.226c0-.02.05-.09.118-.217.483-.808.818-1.596 1.015-2.374.197-.768.295-1.664.295-2.688 0-.197-.05-.404-.157-.61a11.833 11.833 0 0 1-.345-.602c0-.059.098-.098.285-.098.188 0 .414.05.66.158.246.098.463.226.65.364.266-.04.552-.108.857-.197.305-.089.63-.187.975-.305-.118-.995-.197-1.596-.256-1.822a4.805 4.805 0 0 0-.748-1.625c0-.099.088-.148.256-.148.285 0 .62.108.994.335.384.226.572.443.572.67 0 .078-.02.187-.07.324a.967.967 0 0 0-.068.306l.039 1.723a2.61 2.61 0 0 0 .6-.226c.454-.227.799-.335 1.035-.335.177 0 .384.03.6.098.217.07.335.158.335.286 0 .158-.364.305-1.103.433-.236.05-.699.099-1.369.178 0 .531.07 1.112.217 1.733.148.62.345 1.123.6 1.497a4.96 4.96 0 0 0 .277-.72 2.3 2.3 0 0 0 .088-.65l-.03-.413c0-.069.05-.108.158-.108.207 0 .473.098.798.305.325.207.492.394.492.562 0 .059-.069.157-.216.285a1.132 1.132 0 0 0-.158.158c-.128.197-.285.473-.473.817-.049.079-.187.365-.443.857.119.246.365.59.739 1.054.433.542.739.807.906.807.069 0 .118-.236.148-.719.03-.482.069-.718.138-.718.039 0 .078.069.137.197.06.128.148.492.276 1.093.099.463.227.817.384 1.053.06.09.109.168.148.237a.51.51 0 0 1 .05.256c0 .177-.1.266-.296.266a.912.912 0 0 1-.286-.04 3.602 3.602 0 0 1-1.458-.965c-.068-.078-.521-.728-1.339-1.94v.01Zm2.157-6.628c0 .148-.03.246-.079.305a.254.254 0 0 1-.206.089c-.158 0-.532-.197-1.153-.581-.61-.384-.925-.64-.925-.759 0-.078.088-.118.256-.118.453 0 .886.08 1.29.227.541.207.807.482.807.847l.01-.01Z" fill="#E68169"/><path d="M28.317 48.839c-.955.305-1.861.6-2.777.896-.453.148-.827.078-1.034-.374-.246-.513-.7-.7-1.192-.828a18.602 18.602 0 0 0-1.467-.335c-.591-.108-.975-.443-1.202-.994-.226-.552-.502-1.074-.778-1.665.325-.778.65-1.575 1.005-2.363.561-1.251 1.152-2.482 1.713-3.733.237-.532.552-.945 1.133-1.113 1.448-.404 2.61-1.28 3.742-2.206.07-.059.158-.089.306-.167.847.364 1.723.206 2.63-.168.61-1.103 1.23-2.216 1.84-3.338.621-1.123 1.222-2.246 1.852-3.359.68-1.201 1.487-1.615 2.847-1.388.63.108 1.23.266 1.87.04.178-.07.444.058.66.127.395.118.779.256 1.173.374.965.276 1.831.128 2.688-.453.739-.512 1.547-.955 2.512-1.083.433.6.768 1.231 1.034 1.89-.365.7-1.27.828-1.547 1.665.109.187.227.434.375.64.6.808 1.201 1.606 1.832 2.394.463.58.58 1.191.463 1.92-.207 1.211-.316 2.433-.493 3.654-.06.404-.079.857-.286 1.182a50.036 50.036 0 0 1-2.383 3.338c-.857 1.093-1.99 1.862-3.19 2.551-.75.433-1.488.896-2.207 1.379-.67.453-1.389.67-2.196.62-.542-.03-1.093.02-1.645-.01-.6-.03-1.054.197-1.438.64-.364.414-.758.798-1.142 1.182-.325.335-.719.572-1.192.64-.413.06-.788.05-1.103-.344-.216-.266-.571-.443-.896-.591-.453-.217-.936-.374-1.507-.6v-.02Z" fill="#368AA5" stroke="#231815" stroke-linecap="round" stroke-linejoin="round"/></g><defs><clipPath id="clip0_1119_33402"><path fill="#fff" transform="translate(.289)" d="M0 0h53.763v65H0z"/></clipPath></defs></svg>