<svg fill="none" xmlns="http://www.w3.org/2000/svg" viewBox="0 0 55 65"><g clip-path="url(#clip0_1119_33374)"><path d="M49.05 61.327 21.71 59.8c-3.21-.177-5.86-3.309-5.919-6.992l-.768-45.973c-.05-3.132 1.783-5.643 4.294-6.224L5.549 3.79c-2.512.582-4.343 3.093-4.294 6.225l.768 45.973c.06 3.683 2.708 6.815 5.919 6.992l27.34 1.527c.482.03.955-.02 1.398-.118l13.758-3.172a5.04 5.04 0 0 1-1.398.119l.01-.01Z" fill="#E68169" stroke="#231815" stroke-miterlimit="10"/><path d="M47.346 2.019c3.21.177 5.86 3.309 5.919 6.992l.768 45.973c.06 3.683-2.492 6.52-5.702 6.342L20.99 59.8c-3.21-.177-5.86-3.31-5.919-6.993l-.768-45.972C14.245 3.15 16.796.315 20.006.492l27.34 1.527Z" fill="#fff" stroke="#231815" stroke-linecap="round" stroke-linejoin="round"/><path d="m48.311 61.376-27.34-1.527c-3.21-.177-5.85-3.309-5.908-6.992l-.67-45.993c-.02-1.575.433-2.993 1.202-4.087.778-1.093 1.87-1.87 3.141-2.147l-6.884 1.527C9.312 2.718 7.46 5.249 7.5 8.39l.67 45.992c.05 3.684 2.698 6.816 5.909 6.993l27.34 1.526c.472.03.925-.01 1.358-.108l6.884-1.526a4.789 4.789 0 0 1-1.359.108h.01Z" fill="#fff" stroke="#231815" stroke-linecap="round" stroke-linejoin="round"/><path d="M47.455 2.039c3.21.177 5.85 3.309 5.909 6.992l.67 45.992c.049 3.684-2.502 6.52-5.713 6.343l-27.34-1.527c-3.21-.177-5.85-3.309-5.908-6.992l-.67-45.992c-.05-3.684 2.502-6.53 5.712-6.343l27.34 1.527Z" fill="#fff" stroke="#231815" stroke-linecap="round" stroke-linejoin="round"/><path d="m24.952 11.818-.03 1.37c.375.108.65.196.818.265.286.128.434.365.434.71 0 .167-.08.255-.227.255-.168 0-.424-.108-.768-.315a4.362 4.362 0 0 0-.335-.216c0 .197 0 .531-.03 1.004-.02.473-.03.739-.03.778 0 .108 0 .374.03.798.02.423.03.699.03.798 0 .856-.04 1.447-.118 1.762-.079.316-.197.473-.355.473-.147 0-.275-.177-.384-.541-.108-.365-.167-.65-.167-.867 0-.217.02-.483.059-.788.088-.7.138-1.152.138-1.34v-1.802c-.256.473-.552.946-.887 1.409-.502.699-.866 1.053-1.103 1.053l-.049-.069c0-.078.04-.187.108-.315.03-.049.089-.157.188-.305.325-.522.63-1.143.935-1.861.345-.798.571-1.458.68-1.99-.109.04-.227.089-.355.148a.969.969 0 0 1-.315.079c-.128 0-.335-.04-.64-.128-.306-.089-.453-.168-.453-.237 0-.04.04-.059.118-.069.079-.01.157-.02.236-.039.414-.04.71-.079.896-.118.188-.04.414-.099.7-.197V9.169c0-.167-.05-.354-.158-.551a17.722 17.722 0 0 1-.325-.62c0-.08.07-.12.197-.12.236 0 .542.11.936.326.384.217.58.433.58.65 0 .079-.039.187-.108.325a1.438 1.438 0 0 0-.118.276 3.403 3.403 0 0 0-.098.66c-.02.275-.03.531-.03.787v.197c.07-.02.168-.059.296-.138a.662.662 0 0 1 .344-.108c.158 0 .316.03.454.079.137.05.216.148.216.295 0 .128-.266.276-.788.444a9.746 9.746 0 0 1-.522.147Zm2.127 5.86a6.613 6.613 0 0 1-.305-.857c-.157-.512-.236-.866-.236-1.083 0-.128.03-.207.079-.256.04 0 .088.04.147.108.02.03.06.08.119.148.384.492.58.748.6.778.178.266.296.571.345.896l.286-.118c.167-.384.295-.69.384-.926.177-.472.266-.788.266-.935-.06-.138-.099-.246-.099-.325 0-.06.05-.099.148-.099.177 0 .414.079.7.227.285.147.432.305.432.453-.128.157-.216.285-.285.374-.236.325-.463.64-.7.965.05 0 .276-.088.66-.226.276-.099.503-.148.68-.148.098.02.148.04.148.069 0 .088-.286.266-.857.532-.128.059-.7.315-1.714.748-.65.286-1.053.483-1.201.591 0 0-.05.06-.128.148-.08.088-.138.138-.197.148-.148 0-.325-.109-.522-.316-.197-.207-.296-.394-.296-.551 0-.07.06-.108.188-.108h.315c.128 0 .285-.03.472-.09.188-.058.375-.117.552-.166l.02.02Zm.601-5.939v-1.034c-.206.05-.404.09-.6.119-.148 0-.325-.06-.552-.188-.148-.078-.217-.147-.217-.196 0-.03.03-.05.099-.05s.118-.02.157-.03c.207 0 .404 0 .591-.029.188-.02.365-.059.522-.118v-.108c0-.355-.02-.66-.049-.916a1.161 1.161 0 0 0-.266-.61c-.05-.05-.079-.09-.108-.119a.27.27 0 0 1-.07-.177c0-.099.129-.148.375-.148.286 0 .571.06.857.177.285.118.433.276.433.463 0 .108-.04.276-.118.512a1.898 1.898 0 0 0-.118.562c.108 0 .266-.04.473-.128.207-.09.364-.128.472-.128.158 0 .306.03.463.078.158.05.237.128.237.237 0 .147-.237.276-.71.384-.374.088-.67.138-.896.138 0 .088 0 .216-.01.374 0 .157-.02.315-.03.473v.256c.1 0 .257-.04.474-.109.216-.069.384-.108.502-.108.177 0 .354.03.522.069.167.05.256.128.256.236 0 .089-.04.158-.118.197a.643.643 0 0 1-.276.08c-.512.039-.847.078-.995.088-.147.02-.394.049-.719.098-.531.138-1.063.286-1.585.424a2.67 2.67 0 0 1-.502-.05c-.158-.03-.237-.088-.237-.157 0-.03.04-.06.108-.089.07-.03.188-.059.345-.088.168-.03.384-.08.67-.158a3.58 3.58 0 0 0 .63-.226h-.01Zm-.276 3.349c-.049.128-.078.207-.108.256-.059.099-.138.148-.226.148-.178 0-.345-.237-.493-.72-.088-.334-.177-.669-.256-1.004-.059-.138-.118-.246-.157-.335-.089-.187-.138-.295-.138-.325 0-.059.03-.088.088-.088.08 0 .197.04.345.118.089.05.177.108.266.158.217-.04.6-.138 1.162-.286.64-.168.985-.276 1.034-.325l.099-.099c.04-.039.079-.049.138-.049.128 0 .354.099.709.286.354.187.522.345.522.463 0 .04-.04.079-.109.138a.59.59 0 0 0-.167.187c-.04.069-.089.167-.168.305a1.668 1.668 0 0 0-.157.345c-.108.335-.325.512-.67.512h-.305c-.177 0-.404.04-.67.118-.266.079-.512.148-.748.207l.01-.01Zm1.567-1.94c-.247.05-.572.128-.985.256-.572.167-.887.266-.975.286 0 .059.02.167.069.305.137.423.206.66.216.709.197-.05.453-.118.759-.217.403-.128.65-.197.738-.226.04-.177.079-.365.118-.552.04-.187.06-.374.06-.551v-.01Zm4.165-.975c0 .65.01 1.477.03 2.482.02 1.004.03 1.585.03 1.733 0 .167.01.404.029.69.02.285.03.472.03.541 0 .315-.03.571-.099.788-.098.345-.266.522-.512.522-.099 0-.167-.03-.217-.089a1.649 1.649 0 0 1-.167-.256c-.03-.049-.325-.364-.886-.955-.237-.246-.365-.404-.365-.473l.069-.05c.128 0 .236 0 .335.03.345.06.541.09.571.09.118 0 .197-.04.236-.139a.868.868 0 0 0 .06-.345v-.196c0-.483 0-1.28-.03-2.384-.02-1.103-.03-1.694-.03-1.753-.147 0-.334.03-.531.089-.463.148-.7.216-.71.216-.196 0-.433-.059-.709-.177-.187-.079-.285-.157-.285-.226 0-.05.04-.089.108-.099a1.8 1.8 0 0 1 .256-.02c.237 0 .453-.02.66-.068.207-.05.61-.168 1.221-.375V9.88a1.86 1.86 0 0 0-.226-.897c-.168-.246-.335-.502-.512-.749 0-.059.04-.098.118-.118.04 0 .098-.01.197-.01.266 0 .59.109.975.335.384.227.571.453.571.7 0 .108-.03.275-.099.502a1.884 1.884 0 0 0-.098.502c-.02.148-.04.286-.05.414-.009.118-.019.216-.019.305v.246c0 .138.02.227.07.286v.069s.107-.02.216-.05c.108-.029.207-.049.276-.049.167 0 .354.03.56.089.208.059.306.157.306.285 0 .148-.207.266-.62.335-.276.05-.552.089-.818.119l.06-.02Zm-1.191 3.073c.03.265-.03.403-.158.403-.167 0-.473-.265-.906-.787-.433-.523-.66-.887-.66-1.074 0-.05.02-.069.07-.069l.216.04c.532.196.866.354 1.014.482.286.236.433.571.433 1.005h-.01Z" fill="#231815"/><path d="M37.755 13.719v3.151s0 .188.03.473c.02.286.03.532.03.739 0 .423-.03.758-.1 1.014-.058.256-.176.384-.344.384-.177 0-.325-.177-.453-.541-.118-.365-.177-.66-.177-.907 0-.256.04-.64.118-1.142.079-.502.118-.867.118-1.073v-1.832c-.197.394-.61.926-1.24 1.595-.72.759-1.222 1.143-1.527 1.143l-.05-.03c0-.079.04-.177.139-.295.049-.07.128-.158.236-.266.502-.562.945-1.182 1.33-1.871.374-.68.63-1.37.768-2.069-.404.099-.808.197-1.212.286-.118 0-.315-.05-.58-.158-.277-.108-.414-.206-.414-.295 0-.05.088-.079.266-.079h.413c.305.01.61-.02.926-.098.315-.07.66-.178 1.024-.306V9.415c0-.187-.059-.404-.177-.64a45.64 45.64 0 0 0-.365-.749c0-.098.09-.147.256-.147.217 0 .513.128.907.374.384.246.58.473.58.66a.808.808 0 0 1-.098.345 1.451 1.451 0 0 0-.118.275c-.05.237-.069.493-.089.759-.02.265-.02.59-.02.985.109-.04.237-.08.375-.138.295-.119.522-.178.67-.178.108 0 .206.02.305.05.098.03.138.088.138.157 0 .158-.217.325-.65.493a5.003 5.003 0 0 1-.897.266l-.049 1.26c.473.148.818.276 1.044.365.424.177.63.443.63.787 0 .158-.078.237-.226.237-.118 0-.364-.119-.739-.345l-.758-.483-.02-.03Zm5.072.158v3.17c0 .129.02.286.03.473.01.188.02.394.02.611 0 .384-.03.7-.099.965-.059.256-.167.384-.325.384-.177 0-.325-.187-.453-.551-.118-.374-.177-.68-.177-.916 0-.197 0-.374.03-.532.058-.571.098-.886.098-.955v-2.58c-.237.443-.7 1.063-1.389 1.85-.788.897-1.34 1.34-1.664 1.34-.02 0-.04 0-.05-.03l-.029-.029c0-.059.03-.138.079-.216.049-.09.108-.168.177-.237a12.25 12.25 0 0 0 1.408-2.127c.394-.758.73-1.566.995-2.413-.355.098-.709.197-1.064.286-.137 0-.344-.05-.64-.148-.295-.099-.443-.197-.443-.295 0-.03.04-.05.108-.05.07 0 .119-.01.138-.01h.404c.305.01.64-.039 1.005-.138.216-.049.541-.167.975-.334v-2.01c0-.246-.07-.502-.197-.748-.148-.236-.306-.463-.453-.7 0-.058.049-.098.157-.098.286 0 .63.089 1.024.276.394.187.601.404.601.65 0 .099-.059.266-.167.493-.06.118-.089.197-.089.246v1.743c.177 0 .394-.04.65-.108.591-.168.916-.256.956-.256.334 0 .58.049.758.147.167.099.256.217.256.345 0 .158-.118.236-.355.236h-.59c-.365 0-.65 0-.848.03-.197.02-.472.069-.817.148v1.378c.276.394.65.798 1.133 1.202.138.118.57.453 1.32 1.014.531.404.945.759 1.26 1.074.138.138.197.236.197.305 0 .128-.138.187-.404.187a3.17 3.17 0 0 1-.729-.098c-.285-.07-.492-.109-.62-.148-.276-.098-.67-.522-1.182-1.26a16.92 16.92 0 0 1-.985-1.586l-.01.02Z" fill="#231815"/><path d="m24.952 11.818-.03 1.37c.375.108.65.196.818.265.286.128.434.365.434.71 0 .167-.08.255-.227.255-.168 0-.424-.108-.768-.315a4.362 4.362 0 0 0-.335-.216c0 .197 0 .531-.03 1.004-.02.473-.03.739-.03.778 0 .108 0 .374.03.798.02.423.03.699.03.798 0 .856-.04 1.447-.118 1.762-.079.316-.197.473-.355.473-.147 0-.275-.177-.384-.541-.108-.365-.167-.65-.167-.867 0-.217.02-.483.059-.788.088-.7.138-1.152.138-1.34v-1.802c-.256.473-.552.946-.887 1.409-.502.699-.866 1.053-1.103 1.053l-.049-.069c0-.078.04-.187.108-.315.03-.049.089-.157.188-.305.325-.522.63-1.143.935-1.861.345-.798.571-1.458.68-1.99-.109.04-.227.089-.355.148a.969.969 0 0 1-.315.079c-.128 0-.335-.04-.64-.128-.306-.089-.453-.168-.453-.237 0-.04.04-.059.118-.069.079-.01.157-.02.236-.039.414-.04.71-.079.896-.118.188-.04.414-.099.7-.197V9.169c0-.167-.05-.354-.158-.551a17.722 17.722 0 0 1-.325-.62c0-.08.07-.12.197-.12.236 0 .542.11.936.326.384.217.58.433.58.65 0 .079-.039.187-.108.325a1.438 1.438 0 0 0-.118.276 3.403 3.403 0 0 0-.098.66c-.02.275-.03.531-.03.787v.197c.07-.02.168-.059.296-.138a.662.662 0 0 1 .344-.108c.158 0 .316.03.454.079.137.05.216.148.216.295 0 .128-.266.276-.788.444a9.746 9.746 0 0 1-.522.147Zm2.127 5.86a6.613 6.613 0 0 1-.305-.857c-.157-.512-.236-.866-.236-1.083 0-.128.03-.207.079-.256.04 0 .088.04.147.108.02.03.06.08.119.148.384.492.58.748.6.778.178.266.296.571.345.896l.286-.118c.167-.384.295-.69.384-.926.177-.472.266-.788.266-.935-.06-.138-.099-.246-.099-.325 0-.06.05-.099.148-.099.177 0 .414.079.7.227.285.147.432.305.432.453-.128.157-.216.285-.285.374-.236.325-.463.64-.7.965.05 0 .276-.088.66-.226.276-.099.503-.148.68-.148.098.02.148.04.148.069 0 .088-.286.266-.857.532-.128.059-.7.315-1.714.748-.65.286-1.053.483-1.201.591 0 0-.05.06-.128.148-.08.088-.138.138-.197.148-.148 0-.325-.109-.522-.316-.197-.207-.296-.394-.296-.551 0-.07.06-.108.188-.108h.315c.128 0 .285-.03.472-.09.188-.058.375-.117.552-.166l.02.02Zm.601-5.939v-1.034c-.206.05-.404.09-.6.119-.148 0-.325-.06-.552-.188-.148-.078-.217-.147-.217-.196 0-.03.03-.05.099-.05s.118-.02.157-.03c.207 0 .404 0 .591-.029.188-.02.365-.059.522-.118v-.108c0-.355-.02-.66-.049-.916a1.161 1.161 0 0 0-.266-.61c-.05-.05-.079-.09-.108-.119a.27.27 0 0 1-.07-.177c0-.099.129-.148.375-.148.286 0 .571.06.857.177.285.118.433.276.433.463 0 .108-.04.276-.118.512a1.898 1.898 0 0 0-.118.562c.108 0 .266-.04.473-.128.207-.09.364-.128.472-.128.158 0 .306.03.463.078.158.05.237.128.237.237 0 .147-.237.276-.71.384-.374.088-.67.138-.896.138 0 .088 0 .216-.01.374 0 .157-.02.315-.03.473v.256c.1 0 .257-.04.474-.109.216-.069.384-.108.502-.108.177 0 .354.03.522.069.167.05.256.128.256.236 0 .089-.04.158-.118.197a.643.643 0 0 1-.276.08c-.512.039-.847.078-.995.088-.147.02-.394.049-.719.098-.531.138-1.063.286-1.585.424a2.67 2.67 0 0 1-.502-.05c-.158-.03-.237-.088-.237-.157 0-.03.04-.06.108-.089.07-.03.188-.059.345-.088.168-.03.384-.08.67-.158a3.58 3.58 0 0 0 .63-.226h-.01Zm-.276 3.349c-.049.128-.078.207-.108.256-.059.099-.138.148-.226.148-.178 0-.345-.237-.493-.72-.088-.334-.177-.669-.256-1.004-.059-.138-.118-.246-.157-.335-.089-.187-.138-.295-.138-.325 0-.059.03-.088.088-.088.08 0 .197.04.345.118.089.05.177.108.266.158.217-.04.6-.138 1.162-.286.64-.168.985-.276 1.034-.325l.099-.099c.04-.039.079-.049.138-.049.128 0 .354.099.709.286.354.187.522.345.522.463 0 .04-.04.079-.109.138a.59.59 0 0 0-.167.187c-.04.069-.089.167-.168.305a1.668 1.668 0 0 0-.157.345c-.108.335-.325.512-.67.512h-.305c-.177 0-.404.04-.67.118-.266.079-.512.148-.748.207l.01-.01Zm1.567-1.94c-.247.05-.572.128-.985.256-.572.167-.887.266-.975.286 0 .059.02.167.069.305.137.423.206.66.216.709.197-.05.453-.118.759-.217.403-.128.65-.197.738-.226.04-.177.079-.365.118-.552.04-.187.06-.374.06-.551v-.01Zm4.165-.975c0 .65.01 1.477.03 2.482.02 1.004.03 1.585.03 1.733 0 .167.01.404.029.69.02.285.03.472.03.541 0 .315-.03.571-.099.788-.098.345-.266.522-.512.522-.099 0-.167-.03-.217-.089a1.649 1.649 0 0 1-.167-.256c-.03-.049-.325-.364-.886-.955-.237-.246-.365-.404-.365-.473l.069-.05c.128 0 .236 0 .335.03.345.06.541.09.571.09.118 0 .197-.04.236-.139a.868.868 0 0 0 .06-.345v-.196c0-.483 0-1.28-.03-2.384-.02-1.103-.03-1.694-.03-1.753-.147 0-.334.03-.531.089-.463.148-.7.216-.71.216-.196 0-.433-.059-.709-.177-.187-.079-.285-.157-.285-.226 0-.05.04-.089.108-.099a1.8 1.8 0 0 1 .256-.02c.237 0 .453-.02.66-.068.207-.05.61-.168 1.221-.375V9.88a1.86 1.86 0 0 0-.226-.897c-.168-.246-.335-.502-.512-.749 0-.059.04-.098.118-.118.04 0 .098-.01.197-.01.266 0 .59.109.975.335.384.227.571.453.571.7 0 .108-.03.275-.099.502a1.884 1.884 0 0 0-.098.502c-.02.148-.04.286-.05.414-.009.118-.019.216-.019.305v.246c0 .138.02.227.07.286v.069s.107-.02.216-.05c.108-.029.207-.049.276-.049.167 0 .354.03.56.089.208.059.306.157.306.285 0 .148-.207.266-.62.335-.276.05-.552.089-.818.119l.06-.02Zm-1.191 3.073c.03.265-.03.403-.158.403-.167 0-.473-.265-.906-.787-.433-.523-.66-.887-.66-1.074 0-.05.02-.069.07-.069l.216.04c.532.196.866.354 1.014.482.286.236.433.571.433 1.005h-.01Z" stroke="#231815" stroke-width="2"/><path d="M37.755 13.719v3.151s0 .188.03.473c.02.286.03.532.03.739 0 .423-.03.758-.1 1.014-.058.256-.176.384-.344.384-.177 0-.325-.177-.453-.541-.118-.365-.177-.66-.177-.907 0-.256.04-.64.118-1.142.079-.502.118-.867.118-1.073v-1.832c-.197.394-.61.926-1.24 1.595-.72.759-1.222 1.143-1.527 1.143l-.05-.03c0-.079.04-.177.139-.295.049-.07.128-.158.236-.266.502-.562.945-1.182 1.33-1.871.374-.68.63-1.37.768-2.069-.404.099-.808.197-1.212.286-.118 0-.315-.05-.58-.158-.277-.108-.414-.206-.414-.295 0-.05.088-.079.266-.079h.413c.305.01.61-.02.926-.098.315-.07.66-.178 1.024-.306V9.415c0-.187-.059-.404-.177-.64a45.64 45.64 0 0 0-.365-.749c0-.098.09-.147.256-.147.217 0 .513.128.907.374.384.246.58.473.58.66a.808.808 0 0 1-.098.345 1.451 1.451 0 0 0-.118.275c-.05.237-.069.493-.089.759-.02.265-.02.59-.02.985.109-.04.237-.08.375-.138.295-.119.522-.178.67-.178.108 0 .206.02.305.05.098.03.138.088.138.157 0 .158-.217.325-.65.493a5.003 5.003 0 0 1-.897.266l-.049 1.26c.473.148.818.276 1.044.365.424.177.63.443.63.787 0 .158-.078.237-.226.237-.118 0-.364-.119-.739-.345l-.758-.483-.02-.03Zm5.072.158v3.17c0 .129.02.286.03.473.01.188.02.394.02.611 0 .384-.03.7-.099.965-.059.256-.167.384-.325.384-.177 0-.325-.187-.453-.551-.118-.374-.177-.68-.177-.916 0-.197 0-.374.03-.532.058-.571.098-.886.098-.955v-2.58c-.237.443-.7 1.063-1.389 1.85-.788.897-1.34 1.34-1.664 1.34-.02 0-.04 0-.05-.03l-.029-.029c0-.059.03-.138.079-.216.049-.09.108-.168.177-.237a12.25 12.25 0 0 0 1.408-2.127c.394-.758.73-1.566.995-2.413-.355.098-.709.197-1.064.286-.137 0-.344-.05-.64-.148-.295-.099-.443-.197-.443-.295 0-.03.04-.05.108-.05.07 0 .119-.01.138-.01h.404c.305.01.64-.039 1.005-.138.216-.049.541-.167.975-.334v-2.01c0-.246-.07-.502-.197-.748-.148-.236-.306-.463-.453-.7 0-.058.049-.098.157-.098.286 0 .63.089 1.024.276.394.187.601.404.601.65 0 .099-.059.266-.167.493-.06.118-.089.197-.089.246v1.743c.177 0 .394-.04.65-.108.591-.168.916-.256.956-.256.334 0 .58.049.758.147.167.099.256.217.256.345 0 .158-.118.236-.355.236h-.59c-.365 0-.65 0-.848.03-.197.02-.472.069-.817.148v1.378c.276.394.65.798 1.133 1.202.138.118.57.453 1.32 1.014.531.404.945.759 1.26 1.074.138.138.197.236.197.305 0 .128-.138.187-.404.187a3.17 3.17 0 0 1-.729-.098c-.285-.07-.492-.109-.62-.148-.276-.098-.67-.522-1.182-1.26a16.92 16.92 0 0 1-.985-1.586l-.01.02Z" stroke="#231815" stroke-width="2"/><path d="m24.952 11.818-.03 1.37c.375.108.65.196.818.265.286.128.434.365.434.71 0 .167-.08.255-.227.255-.168 0-.424-.108-.768-.315a4.362 4.362 0 0 0-.335-.216c0 .197 0 .531-.03 1.004-.02.473-.03.739-.03.778 0 .108 0 .374.03.798.02.423.03.699.03.798 0 .856-.04 1.447-.118 1.762-.079.316-.197.473-.355.473-.147 0-.275-.177-.384-.541-.108-.365-.167-.65-.167-.867 0-.217.02-.483.059-.788.088-.7.138-1.152.138-1.34v-1.802c-.256.473-.552.946-.887 1.409-.502.699-.866 1.053-1.103 1.053l-.049-.069c0-.078.04-.187.108-.315.03-.049.089-.157.188-.305.325-.522.63-1.143.935-1.861.345-.798.571-1.458.68-1.99-.109.04-.227.089-.355.148a.969.969 0 0 1-.315.079c-.128 0-.335-.04-.64-.128-.306-.089-.453-.168-.453-.237 0-.04.04-.059.118-.069.079-.01.157-.02.236-.039.414-.04.71-.079.896-.118.188-.04.414-.099.7-.197V9.169c0-.167-.05-.354-.158-.551a17.722 17.722 0 0 1-.325-.62c0-.08.07-.12.197-.12.236 0 .542.11.936.326.384.217.58.433.58.65 0 .079-.039.187-.108.325a1.438 1.438 0 0 0-.118.276 3.403 3.403 0 0 0-.098.66c-.02.275-.03.531-.03.787v.197c.07-.02.168-.059.296-.138a.662.662 0 0 1 .344-.108c.158 0 .316.03.454.079.137.05.216.148.216.295 0 .128-.266.276-.788.444a9.746 9.746 0 0 1-.522.147Zm2.127 5.86a6.613 6.613 0 0 1-.305-.857c-.157-.512-.236-.866-.236-1.083 0-.128.03-.207.079-.256.04 0 .088.04.147.108.02.03.06.08.119.148.384.492.58.748.6.778.178.266.296.571.345.896l.286-.118c.167-.384.295-.69.384-.926.177-.472.266-.788.266-.935-.06-.138-.099-.246-.099-.325 0-.06.05-.099.148-.099.177 0 .414.079.7.227.285.147.432.305.432.453-.128.157-.216.285-.285.374-.236.325-.463.64-.7.965.05 0 .276-.088.66-.226.276-.099.503-.148.68-.148.098.02.148.04.148.069 0 .088-.286.266-.857.532-.128.059-.7.315-1.714.748-.65.286-1.053.483-1.201.591 0 0-.05.06-.128.148-.08.088-.138.138-.197.148-.148 0-.325-.109-.522-.316-.197-.207-.296-.394-.296-.551 0-.07.06-.108.188-.108h.315c.128 0 .285-.03.472-.09.188-.058.375-.117.552-.166l.02.02Zm.601-5.939v-1.034c-.206.05-.404.09-.6.119-.148 0-.325-.06-.552-.188-.148-.078-.217-.147-.217-.196 0-.03.03-.05.099-.05s.118-.02.157-.03c.207 0 .404 0 .591-.029.188-.02.365-.059.522-.118v-.108c0-.355-.02-.66-.049-.916a1.161 1.161 0 0 0-.266-.61c-.05-.05-.079-.09-.108-.119a.27.27 0 0 1-.07-.177c0-.099.129-.148.375-.148.286 0 .571.06.857.177.285.118.433.276.433.463 0 .108-.04.276-.118.512a1.898 1.898 0 0 0-.118.562c.108 0 .266-.04.473-.128.207-.09.364-.128.472-.128.158 0 .306.03.463.078.158.05.237.128.237.237 0 .147-.237.276-.71.384-.374.088-.67.138-.896.138 0 .088 0 .216-.01.374 0 .157-.02.315-.03.473v.256c.1 0 .257-.04.474-.109.216-.069.384-.108.502-.108.177 0 .354.03.522.069.167.05.256.128.256.236 0 .089-.04.158-.118.197a.643.643 0 0 1-.276.08c-.512.039-.847.078-.995.088-.147.02-.394.049-.719.098-.531.138-1.063.286-1.585.424a2.67 2.67 0 0 1-.502-.05c-.158-.03-.237-.088-.237-.157 0-.03.04-.06.108-.089.07-.03.188-.059.345-.088.168-.03.384-.08.67-.158a3.58 3.58 0 0 0 .63-.226h-.01Zm-.276 3.349c-.049.128-.078.207-.108.256-.059.099-.138.148-.226.148-.178 0-.345-.237-.493-.72-.088-.334-.177-.669-.256-1.004-.059-.138-.118-.246-.157-.335-.089-.187-.138-.295-.138-.325 0-.059.03-.088.088-.088.08 0 .197.04.345.118.089.05.177.108.266.158.217-.04.6-.138 1.162-.286.64-.168.985-.276 1.034-.325l.099-.099c.04-.039.079-.049.138-.049.128 0 .354.099.709.286.354.187.522.345.522.463 0 .04-.04.079-.109.138a.59.59 0 0 0-.167.187c-.04.069-.089.167-.168.305a1.668 1.668 0 0 0-.157.345c-.108.335-.325.512-.67.512h-.305c-.177 0-.404.04-.67.118-.266.079-.512.148-.748.207l.01-.01Zm1.567-1.94c-.247.05-.572.128-.985.256-.572.167-.887.266-.975.286 0 .059.02.167.069.305.137.423.206.66.216.709.197-.05.453-.118.759-.217.403-.128.65-.197.738-.226.04-.177.079-.365.118-.552.04-.187.06-.374.06-.551v-.01Zm4.165-.975c0 .65.01 1.477.03 2.482.02 1.004.03 1.585.03 1.733 0 .167.01.404.029.69.02.285.03.472.03.541 0 .315-.03.571-.099.788-.098.345-.266.522-.512.522-.099 0-.167-.03-.217-.089a1.649 1.649 0 0 1-.167-.256c-.03-.049-.325-.364-.886-.955-.237-.246-.365-.404-.365-.473l.069-.05c.128 0 .236 0 .335.03.345.06.541.09.571.09.118 0 .197-.04.236-.139a.868.868 0 0 0 .06-.345v-.196c0-.483 0-1.28-.03-2.384-.02-1.103-.03-1.694-.03-1.753-.147 0-.334.03-.531.089-.463.148-.7.216-.71.216-.196 0-.433-.059-.709-.177-.187-.079-.285-.157-.285-.226 0-.05.04-.089.108-.099a1.8 1.8 0 0 1 .256-.02c.237 0 .453-.02.66-.068.207-.05.61-.168 1.221-.375V9.88a1.86 1.86 0 0 0-.226-.897c-.168-.246-.335-.502-.512-.749 0-.059.04-.098.118-.118.04 0 .098-.01.197-.01.266 0 .59.109.975.335.384.227.571.453.571.7 0 .108-.03.275-.099.502a1.884 1.884 0 0 0-.098.502c-.02.148-.04.286-.05.414-.009.118-.019.216-.019.305v.246c0 .138.02.227.07.286v.069s.107-.02.216-.05c.108-.029.207-.049.276-.049.167 0 .354.03.56.089.208.059.306.157.306.285 0 .148-.207.266-.62.335-.276.05-.552.089-.818.119l.06-.02Zm-1.191 3.073c.03.265-.03.403-.158.403-.167 0-.473-.265-.906-.787-.433-.523-.66-.887-.66-1.074 0-.05.02-.069.07-.069l.216.04c.532.196.866.354 1.014.482.286.236.433.571.433 1.005h-.01Z" fill="#E68169"/><path d="M37.755 13.719v3.151s0 .188.03.473c.02.286.03.532.03.739 0 .423-.03.758-.1 1.014-.058.256-.176.384-.344.384-.177 0-.325-.177-.453-.541-.118-.365-.177-.66-.177-.907 0-.256.04-.64.118-1.142.079-.502.118-.867.118-1.073v-1.832c-.197.394-.61.926-1.24 1.595-.72.759-1.222 1.143-1.527 1.143l-.05-.03c0-.079.04-.177.139-.295.049-.07.128-.158.236-.266.502-.562.945-1.182 1.33-1.871.374-.68.63-1.37.768-2.069-.404.099-.808.197-1.212.286-.118 0-.315-.05-.58-.158-.277-.108-.414-.206-.414-.295 0-.05.088-.079.266-.079h.413c.305.01.61-.02.926-.098.315-.07.66-.178 1.024-.306V9.415c0-.187-.059-.404-.177-.64a45.64 45.64 0 0 0-.365-.749c0-.098.09-.147.256-.147.217 0 .513.128.907.374.384.246.58.473.58.66a.808.808 0 0 1-.098.345 1.451 1.451 0 0 0-.118.275c-.05.237-.069.493-.089.759-.02.265-.02.59-.02.985.109-.04.237-.08.375-.138.295-.119.522-.178.67-.178.108 0 .206.02.305.05.098.03.138.088.138.157 0 .158-.217.325-.65.493a5.003 5.003 0 0 1-.897.266l-.049 1.26c.473.148.818.276 1.044.365.424.177.63.443.63.787 0 .158-.078.237-.226.237-.118 0-.364-.119-.739-.345l-.758-.483-.02-.03Zm5.072.158v3.17c0 .129.02.286.03.473.01.188.02.394.02.611 0 .384-.03.7-.099.965-.059.256-.167.384-.325.384-.177 0-.325-.187-.453-.551-.118-.374-.177-.68-.177-.916 0-.197 0-.374.03-.532.058-.571.098-.886.098-.955v-2.58c-.237.443-.7 1.063-1.389 1.85-.788.897-1.34 1.34-1.664 1.34-.02 0-.04 0-.05-.03l-.029-.029c0-.059.03-.138.079-.216.049-.09.108-.168.177-.237a12.25 12.25 0 0 0 1.408-2.127c.394-.758.73-1.566.995-2.413-.355.098-.709.197-1.064.286-.137 0-.344-.05-.64-.148-.295-.099-.443-.197-.443-.295 0-.03.04-.05.108-.05.07 0 .119-.01.138-.01h.404c.305.01.64-.039 1.005-.138.216-.049.541-.167.975-.334v-2.01c0-.246-.07-.502-.197-.748-.148-.236-.306-.463-.453-.7 0-.058.049-.098.157-.098.286 0 .63.089 1.024.276.394.187.601.404.601.65 0 .099-.059.266-.167.493-.06.118-.089.197-.089.246v1.743c.177 0 .394-.04.65-.108.591-.168.916-.256.956-.256.334 0 .58.049.758.147.167.099.256.217.256.345 0 .158-.118.236-.355.236h-.59c-.365 0-.65 0-.848.03-.197.02-.472.069-.817.148v1.378c.276.394.65.798 1.133 1.202.138.118.57.453 1.32 1.014.531.404.945.759 1.26 1.074.138.138.197.236.197.305 0 .128-.138.187-.404.187a3.17 3.17 0 0 1-.729-.098c-.285-.07-.492-.109-.62-.148-.276-.098-.67-.522-1.182-1.26a16.92 16.92 0 0 1-.985-1.586l-.01.02Z" fill="#E68169"/><path d="M27.255 46.79c-.67-2.324-2.019-4.175-3.605-5.732.06-.413.257-.433.434-.443 2.58-.128 4.432-1.497 5.89-3.476.59-.798 1.092-1.684 1.526-2.58.325-.66.768-1.113 1.428-1.38.423-.167.847-.334 1.26-.521.62-.286 1.251-.562 1.832-.906.67-.394 1.054-.985 1.005-1.803-.08-1.625.226-1.87-1.517-3.072-.246-.168-.433-.414-.7-.68.838-.65 1.793-.906 2.561-1.448a336.52 336.52 0 0 0 2.246-1.605l1.832.502c.738.207 1.32.64 1.723 1.27 1.162 1.793 2.216 3.664 3.004 5.664.069.167.098.364.079.532-.099.63-.197 1.25-.345 1.86-.05.208-.217.395-.355.572-.6.768-.925 1.605-1.034 2.61-.098.955-.128 1.9-.206 2.856-.05.66.088 1.26.512 1.792.246.316.443.68.63.975-.069.581-.463.867-.837 1.103-.69.444-1.409.828-2.137 1.212-.276.148-.591.246-.887.345-.66.206-1.034.67-1.29 1.31-.423 1.053-.896 2.087-1.349 3.131-.7 1.596-1.635 3.053-2.65 4.452a3.19 3.19 0 0 1-.167.216c-.62.68-.965 1.143-2.058.266-.04-.03-.089-.04-.118-.069-1.221-1.26-2.748-1.3-4.324-1.024-1.23.207-2.432.227-3.663 0-.985-.177-1.99-.227-2.975-.364-.58-.08-1.152-.217-1.733-.335.089-1.162.71-1.92 1.546-2.512.63-.443 1.31-.817 1.99-1.191.837-.463 1.664-.926 2.422-1.537l.03.01Z" fill="#368AA5" stroke="#231815" stroke-linecap="round" stroke-linejoin="round"/></g><defs><clipPath id="clip0_1119_33374"><path fill="#fff" transform="translate(.763)" d="M0 0h53.763v65H0z"/></clipPath></defs></svg>