<svg fill="none" xmlns="http://www.w3.org/2000/svg" viewBox="0 0 55 65"><g clip-path="url(#clip0_1119_33188)"><path d="M49.165 61.327 21.825 59.8c-3.21-.177-5.859-3.309-5.918-6.992l-.768-45.973c-.05-3.132 1.782-5.643 4.294-6.224L5.665 3.79c-2.512.582-4.344 3.093-4.294 6.225l.768 45.973c.059 3.683 2.708 6.815 5.919 6.992l27.34 1.527c.482.03.954-.02 1.398-.118l13.758-3.172a5.04 5.04 0 0 1-1.399.119l.01-.01Z" fill="#368AA5" stroke="#231815" stroke-miterlimit="10"/><path d="M47.462 2.019c3.21.177 5.86 3.309 5.919 6.992l.768 45.973c.059 3.683-2.492 6.52-5.703 6.342L21.108 59.8c-3.21-.177-5.86-3.31-5.919-6.993L14.42 6.835C14.36 3.15 16.912.315 20.122.492l27.34 1.527Z" fill="#fff" stroke="#231815" stroke-linecap="round" stroke-linejoin="round"/><path d="m48.427 61.376-27.34-1.527c-3.21-.177-5.85-3.309-5.909-6.992l-.67-45.993c-.019-1.575.434-2.993 1.202-4.087.778-1.093 1.871-1.87 3.142-2.147l-6.884 1.527c-2.541.561-4.393 3.092-4.353 6.234l.67 45.992c.049 3.684 2.698 6.816 5.909 6.993l27.34 1.526c.472.03.925-.01 1.358-.108l6.884-1.526a4.789 4.789 0 0 1-1.359.108h.01Z" fill="#fff" stroke="#231815" stroke-linecap="round" stroke-linejoin="round"/><path d="M47.57 2.039c3.21.177 5.85 3.309 5.91 6.992l.67 45.992c.048 3.684-2.502 6.52-5.713 6.343l-27.34-1.527c-3.21-.177-5.85-3.309-5.909-6.992l-.67-45.992C14.47 3.17 17.02.325 20.232.512L47.57 2.04Z" fill="#fff" stroke="#231815" stroke-linecap="round" stroke-linejoin="round"/><path d="M21.915 28.246c-.896-1.99-.946-4.235-.975-6.412-.03-2.176-.079-4.432-.965-6.421 1.063.66 2.127 1.31 3.18 1.97a24.292 24.292 0 0 0-2.53-5.85 13.281 13.281 0 0 1 6.372 4.363l-.611-3.615c3.536 1.093 7.327 2.364 9.464 5.377 1.95 2.748 2.02 6.688.178 9.514-1.901 2.915-4.737 3.28-7.81 4.146-2.758.778-5.062-.325-6.313-3.072h.01Z" fill="#368AA5" stroke="#231815" stroke-linecap="round" stroke-linejoin="round"/><path d="M28.06 29.91c-.995-.729-1.586-1.91-1.842-3.122-.256-1.211-.187-2.462-.088-3.693.709.453 1.408.916 2.117 1.369a14.357 14.357 0 0 0-2.442-6.027c1.841.502 3.663 1.152 5.2 2.274 1.536 1.123 2.757 2.788 3.003 4.679.414 3.131-2.846 6.805-5.958 4.51l.01.01Z" fill="#E2CCAF" stroke="#231815" stroke-linecap="round" stroke-linejoin="round"/><path d="M35.762 51.419c-7.524 0-13.64-6.116-13.64-13.64 0-7.524 6.116-13.64 13.64-13.64 7.524 0 13.64 6.116 13.64 13.64 0 7.524-6.116 13.64-13.64 13.64Z" fill="#E86546"/><path d="M35.762 24.63c7.258 0 13.148 5.89 13.148 13.149 0 7.258-5.89 13.147-13.148 13.147s-13.148-5.89-13.148-13.147c0-7.259 5.89-13.148 13.148-13.148Zm0-.984c-7.79 0-14.133 6.342-14.133 14.133 0 7.79 6.343 14.132 14.133 14.132 7.79 0 14.133-6.342 14.133-14.132s-6.343-14.133-14.133-14.133Z" fill="#231815"/><path d="M22.84 34.302c4.048-2.708 9.09-3.9 13.916-3.26 4.826.64 9.228 2.778 12.439 6.441" stroke="#231815" stroke-linecap="round" stroke-linejoin="round"/><path d="M38.165 24.63c3.122 8.933.729 19.52-5.939 26.296" stroke="#231815" stroke-linejoin="round"/><path d="M30.444 25.665c2.393-.6 4.067 1.97 4.53 4.107.463 2.137-.355 4.373-1.596 6.156-1.24 1.782-2.905 3.25-4.402 4.835-1.497 1.586-2.876 3.398-3.378 5.525m19.431-17.767c-1.881 1.26-2.226 3.24-2.177 5.505.05 2.265.848 4.432 1.596 6.57.748 2.136 1.773 4.067 1.172 6.45" stroke="#231815" stroke-linecap="round" stroke-linejoin="round"/></g><defs><clipPath id="clip0_1119_33188"><path fill="#fff" transform="translate(.878)" d="M0 0h53.763v65H0z"/></clipPath></defs></svg>