<svg fill="none" xmlns="http://www.w3.org/2000/svg" viewBox="0 0 54 65"><g clip-path="url(#clip0_1119_33430)"><path d="M48.287 61.327 20.947 59.8c-3.21-.177-5.86-3.309-5.918-6.992L14.26 6.835c-.049-3.132 1.783-5.643 4.294-6.224L4.786 3.79C2.275 4.374.443 6.885.492 10.017L1.26 55.99c.06 3.683 2.709 6.815 5.92 6.992l27.339 1.527c.482.03.955-.02 1.398-.118l13.758-3.172a5.04 5.04 0 0 1-1.398.119l.01-.01Z" fill="#E68169" stroke="#231815" stroke-miterlimit="10"/><path d="M46.583 2.019c3.21.177 5.86 3.309 5.92 6.992l.767 45.973c.06 3.683-2.491 6.52-5.702 6.342L20.228 59.8c-3.21-.177-5.86-3.31-5.918-6.993l-.77-45.972C13.482 3.15 16.034.315 19.244.492l27.34 1.527Z" fill="#fff" stroke="#231815" stroke-linecap="round" stroke-linejoin="round"/><path d="m47.549 61.376-27.34-1.527c-3.21-.177-5.85-3.309-5.909-6.992l-.67-45.993c-.02-1.575.434-2.993 1.202-4.087.778-1.093 1.871-1.87 3.142-2.147l-6.885 1.527c-2.54.561-4.392 3.092-4.353 6.234l.67 45.992c.05 3.684 2.699 6.816 5.91 6.993l27.339 1.526c.472.03.925-.01 1.359-.108l6.884-1.526a4.789 4.789 0 0 1-1.36.108h.01Z" fill="#fff" stroke="#231815" stroke-linecap="round" stroke-linejoin="round"/><path d="M46.692 2.039c3.21.177 5.85 3.309 5.909 6.992l.67 45.992c.049 3.684-2.502 6.52-5.712 6.343l-27.34-1.527c-3.21-.177-5.85-3.309-5.909-6.992l-.67-45.992C13.591 3.17 16.142.325 19.352.512l27.34 1.527Z" fill="#fff" stroke="#231815" stroke-linecap="round" stroke-linejoin="round"/><path d="M49.528 15.423c0 .108-.01.256-.03.463a5.4 5.4 0 0 0-.03.472v1.024c0 .109-.078.168-.226.168-.049 0-.266-.04-.63-.128-.404-.089-1.172-.138-2.285-.138-.345 0-.867.02-1.556.06-.69.038-1.202.058-1.546.058-.118 0-.178-.059-.197-.167-.01-.148-.05-.374-.099-.68-.108-.453-.167-.719-.167-.788 0-.098.187-.167.561-.226.443-.06.72-.138.847-.246a11.65 11.65 0 0 0 1.399-1.448c.61-.739.906-1.29.906-1.655 0-.315-.118-.59-.345-.807a1.152 1.152 0 0 0-.827-.325c-.355 0-.72.069-1.074.216a3.684 3.684 0 0 0-.748.394c-.217.138-.345.207-.365.207-.147 0-.226-.177-.226-.541 0-.276-.01-.483-.03-.611 0-.06-.039-.177-.098-.364a1.377 1.377 0 0 1-.079-.355c0-.06.04-.118.118-.167.374-.266.867-.473 1.497-.63A6.683 6.683 0 0 1 45.923 9c.857 0 1.566.188 2.137.562.68.443 1.015 1.063 1.015 1.88 0 1.084-.818 2.345-2.462 3.793a57.328 57.328 0 0 1 2.737-.09c.138 0 .207.08.207.247l-.03.03Z" fill="#E86546"/><path d="M49.528 15.423c0 .108-.01.256-.03.463a5.4 5.4 0 0 0-.03.472v1.024c0 .109-.078.168-.226.168-.049 0-.266-.04-.63-.128-.404-.089-1.172-.138-2.285-.138-.345 0-.867.02-1.556.06-.69.038-1.202.058-1.546.058-.118 0-.178-.059-.197-.167-.01-.148-.05-.374-.099-.68-.108-.453-.167-.719-.167-.788 0-.098.187-.167.561-.226.443-.06.72-.138.847-.246a11.65 11.65 0 0 0 1.399-1.448c.61-.739.906-1.29.906-1.655 0-.315-.118-.59-.345-.807a1.152 1.152 0 0 0-.827-.325c-.355 0-.72.069-1.074.216a3.684 3.684 0 0 0-.748.394c-.217.138-.345.207-.365.207-.147 0-.226-.177-.226-.541 0-.276-.01-.483-.03-.611 0-.06-.039-.177-.098-.364a1.377 1.377 0 0 1-.079-.355c0-.06.04-.118.118-.167.374-.266.867-.473 1.497-.63A6.683 6.683 0 0 1 45.923 9c.857 0 1.566.188 2.137.562.68.443 1.015 1.063 1.015 1.88 0 1.084-.818 2.345-2.462 3.793a57.328 57.328 0 0 1 2.737-.09c.138 0 .207.08.207.247l-.03.03Z" fill="#00698A"/><path d="m24.592 12.862-2.04.197c-.482 1.005-1.092 1.812-1.83 2.433-.74.62-1.655 1.103-2.739 1.457a1.163 1.163 0 0 1-.394.099c-.069 0-.098-.02-.108-.05a.676.676 0 0 1 .128-.167c.069-.069.128-.118.177-.157.916-.62 1.586-1.103 2-1.478a7.807 7.807 0 0 0 1.575-1.93c-.344.04-.699.099-1.053.177a6 6 0 0 0-.966.306c-.088.04-.187.069-.285.098a.903.903 0 0 1-.246.05c-.119 0-.355-.08-.72-.217-.364-.148-.541-.266-.541-.355 0-.069.118-.108.345-.108l.699.03c.492 0 1.123-.07 1.89-.217.375-.07.75-.138 1.123-.217a4.43 4.43 0 0 0 .296-.551c.108-.237.177-.414.197-.552-.148 0-.374.04-.66.118-.286.079-.492.118-.62.118-.158 0-.384-.059-.68-.187-.187-.079-.286-.147-.286-.197 0-.04.05-.059.158-.078.098-.01.177-.02.217-.02h.079c.256 0 .492 0 .709-.03.738-.059 1.142-.098 1.201-.098.05-.099.108-.286.187-.562.05-.187.108-.374.177-.56h-.443c-.147 0-.285.019-.443.048-.148.05-.286.08-.404.109-.118.03-.226.04-.325.04-.118 0-.295-.05-.531-.149-.237-.098-.355-.187-.355-.266 0-.039.059-.069.167-.069.109 0 .217-.01.316-.02.551 0 .974-.01 1.27-.029.295-.02.571-.069.847-.128l.118-.778a.86.86 0 0 0-.197-.512 24.928 24.928 0 0 1-.394-.532c0-.059.05-.108.158-.138a.979.979 0 0 1 .276-.039c.226 0 .521.098.886.305.364.207.551.414.551.62 0 .08-.03.188-.078.326-.148.364-.237.58-.237.64.562 0 1.103-.089 1.625-.266.06-.02.197-.04.384-.06a4.93 4.93 0 0 1 .434-.029c.236 0 .413.03.551.08.138.048.207.147.207.265 0 .089-.098.167-.286.217a2.467 2.467 0 0 1-.718.088h-.286c-.335 0-.64.01-.936.03-.285.02-.66.059-1.103.118-.049.138-.118.325-.187.561a9.364 9.364 0 0 1-.148.483c.247 0 .503-.02.769-.05.265-.029.57-.088.915-.157.326-.088.66-.187.995-.285.148 0 .335.039.562.118.226.079.334.177.334.295 0 .03-.02.05-.069.079a.262.262 0 0 1-.118.03c-.266.098-.6.167-.994.216-.394.05-.946.079-1.655.079.079.148.197.325.364.532.138.167.266.335.404.512.7 0 1.458-.04 2.275-.138.246-.05.503-.098.768-.148.266 0 .542.07.828.217.344.187.522.414.522.67 0 .098-.089.147-.266.147h-.187a31.82 31.82 0 0 0-1.862-.275 14.552 14.552 0 0 0-1.723-.099c.423.473 1.063 1.015 1.93 1.635.7.492 1.399.985 2.108 1.477.187.138.285.246.285.335 0 .108-.148.158-.443.158h-.177c-.483 0-.887-.06-1.202-.178-.325-.118-.62-.344-.906-.68a42.927 42.927 0 0 1-1.113-1.348 43.51 43.51 0 0 1-1.073-1.399l.02-.01Zm-2.295 4.088c0 .068-.217.344-.67.817-.453.473-.719.709-.778.709-.128 0-.276-.118-.453-.364-.177-.247-.266-.434-.266-.572 0-.098.05-.147.138-.147.03 0 .089 0 .177.03.089.019.158.029.197.029.158 0 .434-.089.828-.286.393-.187.65-.285.768-.285l.069.069h-.01Zm.148-.897c0 .138-.089.197-.256.197-.237 0-.532-.098-.877-.305-.345-.197-.512-.355-.512-.473 0-.05.05-.079.148-.079.354 0 .66.04.915.109.395.118.591.295.591.551h-.01Zm1.536-1.29s-.02.128-.069.246a.783.783 0 0 0-.069.296v1.625c0 .797-.04 1.388-.118 1.763-.108.531-.305.787-.6.787a.229.229 0 0 1-.188-.088.688.688 0 0 1-.108-.207c-.03-.079-.247-.285-.65-.62-.197-.158-.296-.266-.296-.325.04-.04.07-.05.109-.05.069 0 .177.01.305.03.138.02.216.03.256.03.167 0 .285-.07.345-.217a1.29 1.29 0 0 0 .098-.493v-2.422c0-.227-.05-.424-.148-.601a9.202 9.202 0 0 1-.334-.512c0-.06.088-.109.256-.138.197 0 .443.098.748.305.305.197.453.394.453.581l.01.01Zm.414-2.275-.68-.975-.512.05s-.118.265-.286.66c-.059.127-.118.265-.177.393.276 0 .571-.02.896-.05.325-.039.572-.058.749-.078h.01Zm.551 2.58c0-.078 0-.167.02-.256.01-.088.059-.137.128-.137.167 0 .394.088.68.265.285.178.423.355.423.522 0 .05-.305.188-.926.424-.62.236-1.004.354-1.142.354-.089 0-.138-.03-.138-.078 0-.03.088-.138.256-.325.463-.512.69-.769.7-.778v.01Zm1.645 3.004c.03.158-.03.237-.178.237-.256 0-.67-.227-1.25-.69-.581-.463-.877-.738-.887-.827a.26.26 0 0 1 .148-.05c.414 0 .857.119 1.33.365.551.276.837.6.837.965ZM39.05 16.94h-1.035c-1.103 0-2.206.088-3.28.255-1.29.207-2.146.483-2.58.818l-.325.325c-.147.148-.266.217-.344.217-.128 0-.286-.188-.493-.552-.197-.364-.305-.62-.305-.758 0-.089.02-.178.05-.266a2.16 2.16 0 0 1 .117-.286c.05-.098.08-.335.099-.699.02-.364.03-.71.03-1.014v-.227c0-.226-.148-.502-.434-.827-.286-.325-.433-.502-.433-.512 0-.06.069-.089.197-.089.226 0 .561.138 1.004.414.443.275.67.512.67.709 0 .098-.02.236-.05.413a1.936 1.936 0 0 0-.049.414c0 .207 0 .542-.03 1.014l-.029.74 3.152-.454v-6.52c0-.226-.079-.463-.236-.719l-.513-.67c0-.058.05-.098.138-.117a.659.659 0 0 1 .237-.01c.266 0 .58.078.935.246.434.197.64.404.64.63 0 .089-.049.276-.138.552a1.064 1.064 0 0 0-.069.344v6.185l3.093-.04c.108-.521.187-.905.226-1.151.09-.463.138-.838.138-1.123 0-.109-.069-.286-.216-.532-.148-.246-.217-.394-.217-.443 0-.06.03-.099.099-.118a.862.862 0 0 1 .236-.03c.226 0 .522.148.896.453.374.306.561.561.561.778a.75.75 0 0 1-.118.375 3.212 3.212 0 0 0-.197.364 41.862 41.862 0 0 1-.344 1.94c-.217.965-.522 1.448-.907 1.448-.098 0-.167-.06-.196-.168-.04-.108-.05-.266-.05-.453 0-.148.01-.305.03-.482.02-.178.03-.296.03-.335l.01-.04Z" fill="#231815"/><path d="m24.592 12.862-2.04.197c-.482 1.005-1.092 1.812-1.83 2.433-.74.62-1.655 1.103-2.739 1.457a1.163 1.163 0 0 1-.394.099c-.069 0-.098-.02-.108-.05a.676.676 0 0 1 .128-.167c.069-.069.128-.118.177-.157.916-.62 1.586-1.103 2-1.478a7.807 7.807 0 0 0 1.575-1.93c-.344.04-.699.099-1.053.177a6 6 0 0 0-.966.306c-.088.04-.187.069-.285.098a.903.903 0 0 1-.246.05c-.119 0-.355-.08-.72-.217-.364-.148-.541-.266-.541-.355 0-.069.118-.108.345-.108l.699.03c.492 0 1.123-.07 1.89-.217.375-.07.75-.138 1.123-.217a4.43 4.43 0 0 0 .296-.551c.108-.237.177-.414.197-.552-.148 0-.374.04-.66.118-.286.079-.492.118-.62.118-.158 0-.384-.059-.68-.187-.187-.079-.286-.147-.286-.197 0-.04.05-.059.158-.078.098-.01.177-.02.217-.02h.079c.256 0 .492 0 .709-.03.738-.059 1.142-.098 1.201-.098.05-.099.108-.286.187-.562.05-.187.108-.374.177-.56h-.443c-.147 0-.285.019-.443.048-.148.05-.286.08-.404.109-.118.03-.226.04-.325.04-.118 0-.295-.05-.531-.149-.237-.098-.355-.187-.355-.266 0-.039.059-.069.167-.069.109 0 .217-.01.316-.02.551 0 .974-.01 1.27-.029.295-.02.571-.069.847-.128l.118-.778a.86.86 0 0 0-.197-.512 24.928 24.928 0 0 1-.394-.532c0-.059.05-.108.158-.138a.979.979 0 0 1 .276-.039c.226 0 .521.098.886.305.364.207.551.414.551.62 0 .08-.03.188-.078.326-.148.364-.237.58-.237.64.562 0 1.103-.089 1.625-.266.06-.02.197-.04.384-.06a4.93 4.93 0 0 1 .434-.029c.236 0 .413.03.551.08.138.048.207.147.207.265 0 .089-.098.167-.286.217a2.467 2.467 0 0 1-.718.088h-.286c-.335 0-.64.01-.936.03-.285.02-.66.059-1.103.118-.049.138-.118.325-.187.561a9.364 9.364 0 0 1-.148.483c.247 0 .503-.02.769-.05.265-.029.57-.088.915-.157.326-.088.66-.187.995-.285.148 0 .335.039.562.118.226.079.334.177.334.295 0 .03-.02.05-.069.079a.262.262 0 0 1-.118.03c-.266.098-.6.167-.994.216-.394.05-.946.079-1.655.079.079.148.197.325.364.532.138.167.266.335.404.512.7 0 1.458-.04 2.275-.138.246-.05.503-.098.768-.148.266 0 .542.07.828.217.344.187.522.414.522.67 0 .098-.089.147-.266.147h-.187a31.82 31.82 0 0 0-1.862-.275 14.552 14.552 0 0 0-1.723-.099c.423.473 1.063 1.015 1.93 1.635.7.492 1.399.985 2.108 1.477.187.138.285.246.285.335 0 .108-.148.158-.443.158h-.177c-.483 0-.887-.06-1.202-.178-.325-.118-.62-.344-.906-.68a42.927 42.927 0 0 1-1.113-1.348 43.51 43.51 0 0 1-1.073-1.399l.02-.01Zm-2.295 4.088c0 .068-.217.344-.67.817-.453.473-.719.709-.778.709-.128 0-.276-.118-.453-.364-.177-.247-.266-.434-.266-.572 0-.098.05-.147.138-.147.03 0 .089 0 .177.03.089.019.158.029.197.029.158 0 .434-.089.828-.286.393-.187.65-.285.768-.285l.069.069h-.01Zm.148-.897c0 .138-.089.197-.256.197-.237 0-.532-.098-.877-.305-.345-.197-.512-.355-.512-.473 0-.05.05-.079.148-.079.354 0 .66.04.915.109.395.118.591.295.591.551h-.01Zm1.536-1.29s-.02.128-.069.246a.783.783 0 0 0-.069.296v1.625c0 .797-.04 1.388-.118 1.763-.108.531-.305.787-.6.787a.229.229 0 0 1-.188-.088.688.688 0 0 1-.108-.207c-.03-.079-.247-.285-.65-.62-.197-.158-.296-.266-.296-.325.04-.04.07-.05.109-.05.069 0 .177.01.305.03.138.02.216.03.256.03.167 0 .285-.07.345-.217a1.29 1.29 0 0 0 .098-.493v-2.422c0-.227-.05-.424-.148-.601a9.202 9.202 0 0 1-.334-.512c0-.06.088-.109.256-.138.197 0 .443.098.748.305.305.197.453.394.453.581l.01.01Zm.414-2.275-.68-.975-.512.05s-.118.265-.286.66c-.059.127-.118.265-.177.393.276 0 .571-.02.896-.05.325-.039.572-.058.749-.078h.01Zm.551 2.58c0-.078 0-.167.02-.256.01-.088.059-.137.128-.137.167 0 .394.088.68.265.285.178.423.355.423.522 0 .05-.305.188-.926.424-.62.236-1.004.354-1.142.354-.089 0-.138-.03-.138-.078 0-.03.088-.138.256-.325.463-.512.69-.769.7-.778v.01Zm1.645 3.004c.03.158-.03.237-.178.237-.256 0-.67-.227-1.25-.69-.581-.463-.877-.738-.887-.827a.26.26 0 0 1 .148-.05c.414 0 .857.119 1.33.365.551.276.837.6.837.965ZM39.05 16.94h-1.035c-1.103 0-2.206.088-3.28.255-1.29.207-2.146.483-2.58.818l-.325.325c-.147.148-.266.217-.344.217-.128 0-.286-.188-.493-.552-.197-.364-.305-.62-.305-.758 0-.089.02-.178.05-.266a2.16 2.16 0 0 1 .117-.286c.05-.098.08-.335.099-.699.02-.364.03-.71.03-1.014v-.227c0-.226-.148-.502-.434-.827-.286-.325-.433-.502-.433-.512 0-.06.069-.089.197-.089.226 0 .561.138 1.004.414.443.275.67.512.67.709 0 .098-.02.236-.05.413a1.936 1.936 0 0 0-.049.414c0 .207 0 .542-.03 1.014l-.029.74 3.152-.454v-6.52c0-.226-.079-.463-.236-.719l-.513-.67c0-.058.05-.098.138-.117a.659.659 0 0 1 .237-.01c.266 0 .58.078.935.246.434.197.64.404.64.63 0 .089-.049.276-.138.552a1.064 1.064 0 0 0-.069.344v6.185l3.093-.04c.108-.521.187-.905.226-1.151.09-.463.138-.838.138-1.123 0-.109-.069-.286-.216-.532-.148-.246-.217-.394-.217-.443 0-.06.03-.099.099-.118a.862.862 0 0 1 .236-.03c.226 0 .522.148.896.453.374.306.561.561.561.778a.75.75 0 0 1-.118.375 3.212 3.212 0 0 0-.197.364 41.862 41.862 0 0 1-.344 1.94c-.217.965-.522 1.448-.907 1.448-.098 0-.167-.06-.196-.168-.04-.108-.05-.266-.05-.453 0-.148.01-.305.03-.482.02-.178.03-.296.03-.335l.01-.04Z" stroke="#231815" stroke-width="2"/><path d="m24.592 12.862-2.04.197c-.482 1.005-1.092 1.812-1.83 2.433-.74.62-1.655 1.103-2.739 1.457a1.163 1.163 0 0 1-.394.099c-.069 0-.098-.02-.108-.05a.676.676 0 0 1 .128-.167c.069-.069.128-.118.177-.157.916-.62 1.586-1.103 2-1.478a7.807 7.807 0 0 0 1.575-1.93c-.344.04-.699.099-1.053.177a6 6 0 0 0-.966.306c-.088.04-.187.069-.285.098a.903.903 0 0 1-.246.05c-.119 0-.355-.08-.72-.217-.364-.148-.541-.266-.541-.355 0-.069.118-.108.345-.108l.699.03c.492 0 1.123-.07 1.89-.217.375-.07.75-.138 1.123-.217a4.43 4.43 0 0 0 .296-.551c.108-.237.177-.414.197-.552-.148 0-.374.04-.66.118-.286.079-.492.118-.62.118-.158 0-.384-.059-.68-.187-.187-.079-.286-.147-.286-.197 0-.04.05-.059.158-.078.098-.01.177-.02.217-.02h.079c.256 0 .492 0 .709-.03.738-.059 1.142-.098 1.201-.098.05-.099.108-.286.187-.562.05-.187.108-.374.177-.56h-.443c-.147 0-.285.019-.443.048-.148.05-.286.08-.404.109-.118.03-.226.04-.325.04-.118 0-.295-.05-.531-.149-.237-.098-.355-.187-.355-.266 0-.039.059-.069.167-.069.109 0 .217-.01.316-.02.551 0 .974-.01 1.27-.029.295-.02.571-.069.847-.128l.118-.778a.86.86 0 0 0-.197-.512 24.928 24.928 0 0 1-.394-.532c0-.059.05-.108.158-.138a.979.979 0 0 1 .276-.039c.226 0 .521.098.886.305.364.207.551.414.551.62 0 .08-.03.188-.078.326-.148.364-.237.58-.237.64.562 0 1.103-.089 1.625-.266.06-.02.197-.04.384-.06a4.93 4.93 0 0 1 .434-.029c.236 0 .413.03.551.08.138.048.207.147.207.265 0 .089-.098.167-.286.217a2.467 2.467 0 0 1-.718.088h-.286c-.335 0-.64.01-.936.03-.285.02-.66.059-1.103.118-.049.138-.118.325-.187.561a9.364 9.364 0 0 1-.148.483c.247 0 .503-.02.769-.05.265-.029.57-.088.915-.157.326-.088.66-.187.995-.285.148 0 .335.039.562.118.226.079.334.177.334.295 0 .03-.02.05-.069.079a.262.262 0 0 1-.118.03c-.266.098-.6.167-.994.216-.394.05-.946.079-1.655.079.079.148.197.325.364.532.138.167.266.335.404.512.7 0 1.458-.04 2.275-.138.246-.05.503-.098.768-.148.266 0 .542.07.828.217.344.187.522.414.522.67 0 .098-.089.147-.266.147h-.187a31.82 31.82 0 0 0-1.862-.275 14.552 14.552 0 0 0-1.723-.099c.423.473 1.063 1.015 1.93 1.635.7.492 1.399.985 2.108 1.477.187.138.285.246.285.335 0 .108-.148.158-.443.158h-.177c-.483 0-.887-.06-1.202-.178-.325-.118-.62-.344-.906-.68a42.927 42.927 0 0 1-1.113-1.348 43.51 43.51 0 0 1-1.073-1.399l.02-.01Zm-2.295 4.088c0 .068-.217.344-.67.817-.453.473-.719.709-.778.709-.128 0-.276-.118-.453-.364-.177-.247-.266-.434-.266-.572 0-.098.05-.147.138-.147.03 0 .089 0 .177.03.089.019.158.029.197.029.158 0 .434-.089.828-.286.393-.187.65-.285.768-.285l.069.069h-.01Zm.148-.897c0 .138-.089.197-.256.197-.237 0-.532-.098-.877-.305-.345-.197-.512-.355-.512-.473 0-.05.05-.079.148-.079.354 0 .66.04.915.109.395.118.591.295.591.551h-.01Zm1.536-1.29s-.02.128-.069.246a.783.783 0 0 0-.069.296v1.625c0 .797-.04 1.388-.118 1.763-.108.531-.305.787-.6.787a.229.229 0 0 1-.188-.088.688.688 0 0 1-.108-.207c-.03-.079-.247-.285-.65-.62-.197-.158-.296-.266-.296-.325.04-.04.07-.05.109-.05.069 0 .177.01.305.03.138.02.216.03.256.03.167 0 .285-.07.345-.217a1.29 1.29 0 0 0 .098-.493v-2.422c0-.227-.05-.424-.148-.601a9.202 9.202 0 0 1-.334-.512c0-.06.088-.109.256-.138.197 0 .443.098.748.305.305.197.453.394.453.581l.01.01Zm.414-2.275-.68-.975-.512.05s-.118.265-.286.66c-.059.127-.118.265-.177.393.276 0 .571-.02.896-.05.325-.039.572-.058.749-.078h.01Zm.551 2.58c0-.078 0-.167.02-.256.01-.088.059-.137.128-.137.167 0 .394.088.68.265.285.178.423.355.423.522 0 .05-.305.188-.926.424-.62.236-1.004.354-1.142.354-.089 0-.138-.03-.138-.078 0-.03.088-.138.256-.325.463-.512.69-.769.7-.778v.01Zm1.645 3.004c.03.158-.03.237-.178.237-.256 0-.67-.227-1.25-.69-.581-.463-.877-.738-.887-.827a.26.26 0 0 1 .148-.05c.414 0 .857.119 1.33.365.551.276.837.6.837.965ZM39.05 16.94h-1.035c-1.103 0-2.206.088-3.28.255-1.29.207-2.146.483-2.58.818l-.325.325c-.147.148-.266.217-.344.217-.128 0-.286-.188-.493-.552-.197-.364-.305-.62-.305-.758 0-.089.02-.178.05-.266a2.16 2.16 0 0 1 .117-.286c.05-.098.08-.335.099-.699.02-.364.03-.71.03-1.014v-.227c0-.226-.148-.502-.434-.827-.286-.325-.433-.502-.433-.512 0-.06.069-.089.197-.089.226 0 .561.138 1.004.414.443.275.67.512.67.709 0 .098-.02.236-.05.413a1.936 1.936 0 0 0-.049.414c0 .207 0 .542-.03 1.014l-.029.74 3.152-.454v-6.52c0-.226-.079-.463-.236-.719l-.513-.67c0-.058.05-.098.138-.117a.659.659 0 0 1 .237-.01c.266 0 .58.078.935.246.434.197.64.404.64.63 0 .089-.049.276-.138.552a1.064 1.064 0 0 0-.069.344v6.185l3.093-.04c.108-.521.187-.905.226-1.151.09-.463.138-.838.138-1.123 0-.109-.069-.286-.216-.532-.148-.246-.217-.394-.217-.443 0-.06.03-.099.099-.118a.862.862 0 0 1 .236-.03c.226 0 .522.148.896.453.374.306.561.561.561.778a.75.75 0 0 1-.118.375 3.212 3.212 0 0 0-.197.364 41.862 41.862 0 0 1-.344 1.94c-.217.965-.522 1.448-.907 1.448-.098 0-.167-.06-.196-.168-.04-.108-.05-.266-.05-.453 0-.148.01-.305.03-.482.02-.178.03-.296.03-.335l.01-.04Z" fill="#E68169"/><path d="M27.595 30.806c1.251-.266 1.665-1.36 2.62-1.891.296.089.63.168.955.286 1.616.6 3.211 1.31 4.856 1.792 1.93.561 3.644 1.458 5.23 2.65.236.177.462.383.718.531 2.059 1.152 1.881 1.054 3.595.158a10.355 10.355 0 0 1 2.669-.985c.798-.177 1.526.197 1.615.975.108 1.004.089 2.019.03 3.023-.02.286-.355.61-.63.798-.542.364-1.153.62-1.714.965-.68.414-.966 1.015-.778 1.822.177.749.354 1.507.482 2.265.099.581.168 1.182.138 1.773-.06 1.054-.512 1.861-1.448 2.511-1.536 1.064-3.17 1.32-4.934 1.044-.945-.147-1.871-.325-2.836-.285-.236 0-.502.01-.7-.089-.718-.374-1.398-.177-2.068.079-.63.246-1.23.315-1.9.069-.424-.158-.946-.079-1.418-.099-.473-.01-.946 0-1.448 0-.158-.197-.345-.364-.434-.57-.423-.956-1.073-1.724-1.97-2.256-.502-.296-.787-.7-.925-1.241-.079-.286-.187-.561-.276-.847-.797-2.462-2.373-4.383-4.313-6.027-.887-.749-1.96-1.113-3.113-1.221-.521-.05-1.053-.06-1.644-.09-.345-.915.148-1.673.344-2.442.06-.216.424-.423.69-.492 1.142-.305 2.176-.256 3.102.71 1.024 1.073 2.196 2.008 3.319 2.993.177.158.384.266.63.433 1.231-.374 2.551-.492 3.753-1.28.137-.827.275-1.704.433-2.659-.768-.778-1.605-1.517-2.63-2.374v-.03Z" fill="#368AA5" stroke="#231815" stroke-linecap="round" stroke-linejoin="round"/></g><defs><clipPath id="clip0_1119_33430"><path fill="#fff" d="M0 0h53.763v65H0z"/></clipPath></defs></svg>