<svg fill="none" xmlns="http://www.w3.org/2000/svg" viewBox="0 0 55 65"><g clip-path="url(#clip0_1119_33304)"><path d="M49.05 61.327 21.71 59.8c-3.21-.177-5.86-3.309-5.919-6.992l-.768-45.973c-.05-3.132 1.783-5.643 4.294-6.224L5.549 3.79c-2.512.582-4.343 3.093-4.294 6.225l.768 45.973c.06 3.683 2.708 6.815 5.919 6.992l27.34 1.527c.482.03.955-.02 1.398-.118l13.758-3.172a5.04 5.04 0 0 1-1.398.119l.01-.01Z" fill="#E68169" stroke="#231815" stroke-miterlimit="10"/><path d="M47.346 2.019c3.21.177 5.86 3.309 5.919 6.992l.768 45.973c.06 3.683-2.492 6.52-5.702 6.342L20.99 59.8c-3.21-.177-5.86-3.31-5.919-6.993l-.768-45.972C14.245 3.15 16.796.315 20.006.492l27.34 1.527Z" fill="#fff" stroke="#231815" stroke-linecap="round" stroke-linejoin="round"/><path d="m48.311 61.376-27.34-1.527c-3.21-.177-5.85-3.309-5.908-6.992l-.67-45.993c-.02-1.575.433-2.993 1.202-4.087.778-1.093 1.87-1.87 3.141-2.147l-6.884 1.527C9.312 2.718 7.46 5.249 7.5 8.39l.67 45.992c.05 3.684 2.698 6.816 5.909 6.993l27.34 1.526c.472.03.925-.01 1.358-.108l6.884-1.526a4.789 4.789 0 0 1-1.359.108h.01Z" fill="#fff" stroke="#231815" stroke-linecap="round" stroke-linejoin="round"/><path d="M47.455 2.039c3.21.177 5.85 3.309 5.909 6.992l.67 45.992c.049 3.684-2.502 6.52-5.713 6.343l-27.34-1.527c-3.21-.177-5.85-3.309-5.908-6.992l-.67-45.992c-.05-3.684 2.502-6.53 5.712-6.343l27.34 1.527Z" fill="#fff" stroke="#231815" stroke-linecap="round" stroke-linejoin="round"/><path d="M24.172 49.715c.148-.266.207-.443.325-.561.916-1.024 1.182-2.226 1.064-3.565-.04-.463-.01-.936 0-1.399.02-.551-.128-1.044-.532-1.438-.906-.876-1.044-2.058-1.23-3.2-.07-.444.108-.818.521-1.015.847-.404 1.714-.748 2.55-1.162a82.386 82.386 0 0 0 2.788-1.448 2.188 2.188 0 0 0 1.123-1.487c.207-.916.66-1.595 1.625-1.87.788-.227 1.201-.818 1.526-1.567.749-1.723 1.842-3.24 2.945-4.757.404-.561.847-1.093 1.25-1.605.611-.04.966.276 1.31.571 1.084.916 1.95 2.01 2.64 3.25.167.306.305.63.502.926.887 1.31 1.123 2.797 1.143 4.323.04 2.108.04 4.206.078 6.313.01.7.07 1.399.178 2.088.207 1.32.03 2.482-.798 3.624-1.605 2.226-3.21 4.452-5.15 6.402-.247.246-.523.463-.818.719-1.034-.355-2.059-.187-3.102-.06-.916.119-1.872.02-2.807.02h-5.82c-.789-.846-.838-2.008-1.31-3.092v-.01Z" fill="#368AA5" stroke="#231815" stroke-linecap="round" stroke-linejoin="round"/><path d="M50.685 15.423c0 .098-.01.256-.03.463a5.4 5.4 0 0 0-.03.472v1.024c0 .109-.068.168-.196.168-.05 0-.237-.04-.562-.128-.364-.089-1.034-.138-2.028-.138-.306 0-.769.02-1.38.06-.61.038-1.063.058-1.358.058-.099 0-.158-.059-.178-.167a7.634 7.634 0 0 0-.088-.68c-.099-.453-.148-.719-.148-.788 0-.098.168-.177.502-.226.394-.06.64-.138.749-.246.404-.384.807-.867 1.23-1.448.533-.739.809-1.29.809-1.655 0-.315-.099-.59-.306-.807a.966.966 0 0 0-.729-.325c-.315 0-.63.069-.945.216a2.98 2.98 0 0 0-.66.394c-.197.138-.305.207-.325.207-.138 0-.207-.177-.207-.541a4.5 4.5 0 0 0-.03-.611c0-.06-.039-.177-.088-.364a1.272 1.272 0 0 1-.069-.355c0-.06.03-.118.099-.167.325-.266.768-.473 1.32-.63A5.34 5.34 0 0 1 47.473 9c.759 0 1.389.188 1.891.562.6.443.896 1.063.896 1.88 0 1.084-.728 2.345-2.176 3.793a44.57 44.57 0 0 1 2.413-.09c.118 0 .177.08.177.247l.01.03Z" fill="#E86546"/><path d="M50.685 15.423c0 .098-.01.256-.03.463a5.4 5.4 0 0 0-.03.472v1.024c0 .109-.068.168-.196.168-.05 0-.237-.04-.562-.128-.364-.089-1.034-.138-2.028-.138-.306 0-.769.02-1.38.06-.61.038-1.063.058-1.358.058-.099 0-.158-.059-.178-.167a7.634 7.634 0 0 0-.088-.68c-.099-.453-.148-.719-.148-.788 0-.098.168-.177.502-.226.394-.06.64-.138.749-.246.404-.384.807-.867 1.23-1.448.533-.739.809-1.29.809-1.655 0-.315-.099-.59-.306-.807a.966.966 0 0 0-.729-.325c-.315 0-.63.069-.945.216a2.98 2.98 0 0 0-.66.394c-.197.138-.305.207-.325.207-.138 0-.207-.177-.207-.541a4.5 4.5 0 0 0-.03-.611c0-.06-.039-.177-.088-.364a1.272 1.272 0 0 1-.069-.355c0-.06.03-.118.099-.167.325-.266.768-.473 1.32-.63A5.34 5.34 0 0 1 47.473 9c.759 0 1.389.188 1.891.562.6.443.896 1.063.896 1.88 0 1.084-.728 2.345-2.176 3.793a44.57 44.57 0 0 1 2.413-.09c.118 0 .177.08.177.247l.01.03Z" fill="#00698A"/><path d="M30.298 16.762c0 .118-.03.207-.118.266a.562.562 0 0 1-.305.098c-.315 0-.72-.069-1.221-.216-.601-.168-.995-.266-1.192-.296a16.092 16.092 0 0 0-2.256-.157c-.738 0-1.644.069-2.688.197-1.044.128-1.763.315-2.177.551-.147.07-.226.109-.256.118a.553.553 0 0 1-.197.03c-.157 0-.472-.148-.945-.453-.473-.305-.7-.522-.7-.67 0-.049.05-.079.148-.079.158 0 .306 0 .444.03.472.06.728.098.768.098.443 0 1.546-.098 3.299-.285.827-.089 1.497-.138 2.01-.138.61 0 1.073 0 1.388-.02.325-.01.709-.049 1.152-.098.089 0 .335-.05.739-.138.226-.04.384-.069.472-.069.256 0 .601.148 1.015.433.423.286.63.552.63.798h-.01Zm-2.905-6.697v.04c.01.187-.414.325-1.26.393-.532.04-1.055.07-1.576.109-.65.108-1.3.226-1.94.335-.168 0-.454-.109-.848-.325-.393-.217-.6-.375-.6-.473 0-.05.078-.089.226-.108.099 0 .236.01.404.039.167.03.266.04.286.04.57 0 1.171-.06 1.802-.178a6.476 6.476 0 0 0 1.664-.532c.118-.049.207-.079.286-.098.05 0 .108-.01.187-.01.217 0 .502.089.847.256.355.167.532.345.532.522l-.01-.01Zm-.296 3.004c0 .256-.797.433-2.403.512-.876.05-1.438.108-1.684.197-.049.02-.138.05-.256.089a.89.89 0 0 1-.256.059c-.128 0-.384-.119-.768-.365s-.571-.423-.571-.531c0-.05.079-.07.226-.07.099 0 .256.02.473.05.217.03.374.049.463.049.453 0 .985-.06 1.605-.177.61-.118 1.084-.256 1.428-.414.158-.069.325-.108.493-.108.177 0 .433.079.758.226.325.148.492.315.492.483Zm9.957-1.95v.857c.404 0 .72 0 .956-.03.236-.02.58-.108 1.034-.285.118 0 .384.197.798.6.413.394.62.65.62.769 0 .059-.05.147-.138.246a1.322 1.322 0 0 0-.167.197c-.148.197-.296.433-.473.709-.118.177-.266.433-.443.748a1.063 1.063 0 0 1-.306.355.595.595 0 0 1-.384.138.504.504 0 0 1-.364-.168h-1.152v1.192c.157 0 .394-.05.69-.158.294-.098.511-.157.64-.157.176 0 .383.04.61.108.226.07.344.177.344.325 0 .217-.334.364-.994.433-.434.03-.857.06-1.29.08v1.181h.216c.424 0 .739 0 .956-.02.216-.02.423-.039.62-.098.197-.05.325-.079.364-.089.05 0 .119-.01.188-.01.315 0 .62.119.935.345.315.227.473.433.473.61 0 .148-.128.227-.384.227h-.099a6.186 6.186 0 0 0-1.369-.374 9.54 9.54 0 0 0-1.457-.108c-.571 0-1.202.039-1.871.118-.68.079-1.212.197-1.596.364-.128.05-.256.118-.394.177a.97.97 0 0 1-.354.099c-.148 0-.374-.108-.66-.335-.286-.226-.434-.404-.434-.532 0-.049.04-.078.109-.088.04 0 .089-.01.148-.01.147 0 .285 0 .393.03.109.02.247.039.395.068.453 0 1.024-.049 1.713-.138.246-.039.6-.088 1.044-.147v-1.143c-.118 0-.295.03-.532.08a2.39 2.39 0 0 1-.551.078c-.148 0-.365-.07-.66-.217-.296-.138-.443-.276-.443-.404 0-.059.049-.098.147-.098l.847.04c.365 0 .759-.04 1.192-.119v-1.201c-.404.069-.807.147-1.211.216-.04.109-.06.187-.08.227-.048.098-.107.147-.206.147-.394 0-.788-.67-1.172-2.018-.207-.73-.384-1.192-.541-1.37-.07-.098-.109-.167-.109-.196 0-.07.05-.109.148-.109.118 0 .286.04.502.119.089.03.207.078.364.147a49.365 49.365 0 0 0 1.182-.177c.542-.089.906-.177 1.113-.256v-.827c-.266 0-.857.098-1.773.305-.915.207-1.497.364-1.753.473-.049.02-.147.079-.305.177-.157.098-.286.148-.384.148-.138 0-.404-.118-.798-.365-.394-.246-.59-.423-.59-.541 0-.02.039-.04.108-.07l1.083.04h.158c.059 0 .157 0 .285-.03l1.97-.285a29.07 29.07 0 0 0 1.94-.335c0-.217-.03-.423-.098-.64-.06-.207-.158-.345-.296-.414-.414.07-.748.128-1.024.158-.276.04-.552.05-.837.05h-.236c-.08 0-.119-.03-.119-.07 0-.04.07-.079.197-.138a1.88 1.88 0 0 1 .306-.118c.61-.197 1.132-.384 1.575-.551.769-.296 1.251-.532 1.448-.71.03-.029.05-.147.069-.364.02-.217.099-.325.236-.325.227 0 .513.148.867.453.354.296.532.562.532.788 0 .158-.099.246-.296.266-.197.01-.344.02-.453.02-.197.039-.472.108-.817.206-.345.099-.6.178-.749.217.316.158.532.266.64.315.109.05.158.197.158.453v.325c.739 0 1.408-.01 2.01-.04.6-.029 1.004-.088 1.21-.186.148-.06.276-.099.395-.099.216 0 .502.099.876.306.364.206.552.413.552.62 0 .089-.04.158-.129.207a.546.546 0 0 1-.275.069l-.197-.03a26.036 26.036 0 0 0-2.216-.335 21.44 21.44 0 0 0-2.216-.118l.04.02Zm-1.053 2.255v-.807l-2 .305c.05.098.099.217.148.364.06.148.089.276.108.394l.266.03c.227 0 .473-.03.739-.089s.512-.128.729-.207l.01.01Zm0 1.537v-.936c-.089 0-.266.02-.512.05a5.598 5.598 0 0 1-.552.048c-.217 0-.394-.03-.522-.098l.286 1.113c.138-.05.354-.079.65-.099.295-.02.512-.049.65-.078Zm1.053-2.482v.748h.138c.325 0 .572.03.749.099.177.069.266.148.266.246s-.099.177-.306.256c-.207.079-.482.108-.847.108v.897h1.202c.069-.158.197-.522.374-1.084.177-.561.266-.886.266-.995 0-.137-.079-.226-.236-.285a1.801 1.801 0 0 0-.62-.089c-.237 0-.444.01-.631.04s-.305.049-.364.049l.01.01Z" fill="#231815"/><path d="M30.298 16.762c0 .118-.03.207-.118.266a.562.562 0 0 1-.305.098c-.315 0-.72-.069-1.221-.216-.601-.168-.995-.266-1.192-.296a16.092 16.092 0 0 0-2.256-.157c-.738 0-1.644.069-2.688.197-1.044.128-1.763.315-2.177.551-.147.07-.226.109-.256.118a.553.553 0 0 1-.197.03c-.157 0-.472-.148-.945-.453-.473-.305-.7-.522-.7-.67 0-.049.05-.079.148-.079.158 0 .306 0 .444.03.472.06.728.098.768.098.443 0 1.546-.098 3.299-.285.827-.089 1.497-.138 2.01-.138.61 0 1.073 0 1.388-.02.325-.01.709-.049 1.152-.098.089 0 .335-.05.739-.138.226-.04.384-.069.472-.069.256 0 .601.148 1.015.433.423.286.63.552.63.798h-.01Zm-2.905-6.697v.04c.01.187-.414.325-1.26.393-.532.04-1.055.07-1.576.109-.65.108-1.3.226-1.94.335-.168 0-.454-.109-.848-.325-.393-.217-.6-.375-.6-.473 0-.05.078-.089.226-.108.099 0 .236.01.404.039.167.03.266.04.286.04.57 0 1.171-.06 1.802-.178a6.476 6.476 0 0 0 1.664-.532c.118-.049.207-.079.286-.098.05 0 .108-.01.187-.01.217 0 .502.089.847.256.355.167.532.345.532.522l-.01-.01Zm-.296 3.004c0 .256-.797.433-2.403.512-.876.05-1.438.108-1.684.197-.049.02-.138.05-.256.089a.89.89 0 0 1-.256.059c-.128 0-.384-.119-.768-.365s-.571-.423-.571-.531c0-.05.079-.07.226-.07.099 0 .256.02.473.05.217.03.374.049.463.049.453 0 .985-.06 1.605-.177.61-.118 1.084-.256 1.428-.414.158-.069.325-.108.493-.108.177 0 .433.079.758.226.325.148.492.315.492.483Zm9.957-1.95v.857c.404 0 .72 0 .956-.03.236-.02.58-.108 1.034-.285.118 0 .384.197.798.6.413.394.62.65.62.769 0 .059-.05.147-.138.246a1.322 1.322 0 0 0-.167.197c-.148.197-.296.433-.473.709-.118.177-.266.433-.443.748a1.063 1.063 0 0 1-.306.355.595.595 0 0 1-.384.138.504.504 0 0 1-.364-.168h-1.152v1.192c.157 0 .394-.05.69-.158.294-.098.511-.157.64-.157.176 0 .383.04.61.108.226.07.344.177.344.325 0 .217-.334.364-.994.433-.434.03-.857.06-1.29.08v1.181h.216c.424 0 .739 0 .956-.02.216-.02.423-.039.62-.098.197-.05.325-.079.364-.089.05 0 .119-.01.188-.01.315 0 .62.119.935.345.315.227.473.433.473.61 0 .148-.128.227-.384.227h-.099a6.186 6.186 0 0 0-1.369-.374 9.54 9.54 0 0 0-1.457-.108c-.571 0-1.202.039-1.871.118-.68.079-1.212.197-1.596.364-.128.05-.256.118-.394.177a.97.97 0 0 1-.354.099c-.148 0-.374-.108-.66-.335-.286-.226-.434-.404-.434-.532 0-.049.04-.078.109-.088.04 0 .089-.01.148-.01.147 0 .285 0 .393.03.109.02.247.039.395.068.453 0 1.024-.049 1.713-.138.246-.039.6-.088 1.044-.147v-1.143c-.118 0-.295.03-.532.08a2.39 2.39 0 0 1-.551.078c-.148 0-.365-.07-.66-.217-.296-.138-.443-.276-.443-.404 0-.059.049-.098.147-.098l.847.04c.365 0 .759-.04 1.192-.119v-1.201c-.404.069-.807.147-1.211.216-.04.109-.06.187-.08.227-.048.098-.107.147-.206.147-.394 0-.788-.67-1.172-2.018-.207-.73-.384-1.192-.541-1.37-.07-.098-.109-.167-.109-.196 0-.07.05-.109.148-.109.118 0 .286.04.502.119.089.03.207.078.364.147a49.365 49.365 0 0 0 1.182-.177c.542-.089.906-.177 1.113-.256v-.827c-.266 0-.857.098-1.773.305-.915.207-1.497.364-1.753.473-.049.02-.147.079-.305.177-.157.098-.286.148-.384.148-.138 0-.404-.118-.798-.365-.394-.246-.59-.423-.59-.541 0-.02.039-.04.108-.07l1.083.04h.158c.059 0 .157 0 .285-.03l1.97-.285a29.07 29.07 0 0 0 1.94-.335c0-.217-.03-.423-.098-.64-.06-.207-.158-.345-.296-.414-.414.07-.748.128-1.024.158-.276.04-.552.05-.837.05h-.236c-.08 0-.119-.03-.119-.07 0-.04.07-.079.197-.138a1.88 1.88 0 0 1 .306-.118c.61-.197 1.132-.384 1.575-.551.769-.296 1.251-.532 1.448-.71.03-.029.05-.147.069-.364.02-.217.099-.325.236-.325.227 0 .513.148.867.453.354.296.532.562.532.788 0 .158-.099.246-.296.266-.197.01-.344.02-.453.02-.197.039-.472.108-.817.206-.345.099-.6.178-.749.217.316.158.532.266.64.315.109.05.158.197.158.453v.325c.739 0 1.408-.01 2.01-.04.6-.029 1.004-.088 1.21-.186.148-.06.276-.099.395-.099.216 0 .502.099.876.306.364.206.552.413.552.62 0 .089-.04.158-.129.207a.546.546 0 0 1-.275.069l-.197-.03a26.036 26.036 0 0 0-2.216-.335 21.44 21.44 0 0 0-2.216-.118l.04.02Zm-1.053 2.255v-.807l-2 .305c.05.098.099.217.148.364.06.148.089.276.108.394l.266.03c.227 0 .473-.03.739-.089s.512-.128.729-.207l.01.01Zm0 1.537v-.936c-.089 0-.266.02-.512.05a5.598 5.598 0 0 1-.552.048c-.217 0-.394-.03-.522-.098l.286 1.113c.138-.05.354-.079.65-.099.295-.02.512-.049.65-.078Zm1.053-2.482v.748h.138c.325 0 .572.03.749.099.177.069.266.148.266.246s-.099.177-.306.256c-.207.079-.482.108-.847.108v.897h1.202c.069-.158.197-.522.374-1.084.177-.561.266-.886.266-.995 0-.137-.079-.226-.236-.285a1.801 1.801 0 0 0-.62-.089c-.237 0-.444.01-.631.04s-.305.049-.364.049l.01.01Z" stroke="#231815" stroke-width="2"/><path d="M30.298 16.762c0 .118-.03.207-.118.266a.562.562 0 0 1-.305.098c-.315 0-.72-.069-1.221-.216-.601-.168-.995-.266-1.192-.296a16.092 16.092 0 0 0-2.256-.157c-.738 0-1.644.069-2.688.197-1.044.128-1.763.315-2.177.551-.147.07-.226.109-.256.118a.553.553 0 0 1-.197.03c-.157 0-.472-.148-.945-.453-.473-.305-.7-.522-.7-.67 0-.049.05-.079.148-.079.158 0 .306 0 .444.03.472.06.728.098.768.098.443 0 1.546-.098 3.299-.285.827-.089 1.497-.138 2.01-.138.61 0 1.073 0 1.388-.02.325-.01.709-.049 1.152-.098.089 0 .335-.05.739-.138.226-.04.384-.069.472-.069.256 0 .601.148 1.015.433.423.286.63.552.63.798h-.01Zm-2.905-6.697v.04c.01.187-.414.325-1.26.393-.532.04-1.055.07-1.576.109-.65.108-1.3.226-1.94.335-.168 0-.454-.109-.848-.325-.393-.217-.6-.375-.6-.473 0-.05.078-.089.226-.108.099 0 .236.01.404.039.167.03.266.04.286.04.57 0 1.171-.06 1.802-.178a6.476 6.476 0 0 0 1.664-.532c.118-.049.207-.079.286-.098.05 0 .108-.01.187-.01.217 0 .502.089.847.256.355.167.532.345.532.522l-.01-.01Zm-.296 3.004c0 .256-.797.433-2.403.512-.876.05-1.438.108-1.684.197-.049.02-.138.05-.256.089a.89.89 0 0 1-.256.059c-.128 0-.384-.119-.768-.365s-.571-.423-.571-.531c0-.05.079-.07.226-.07.099 0 .256.02.473.05.217.03.374.049.463.049.453 0 .985-.06 1.605-.177.61-.118 1.084-.256 1.428-.414.158-.069.325-.108.493-.108.177 0 .433.079.758.226.325.148.492.315.492.483Zm9.957-1.95v.857c.404 0 .72 0 .956-.03.236-.02.58-.108 1.034-.285.118 0 .384.197.798.6.413.394.62.65.62.769 0 .059-.05.147-.138.246a1.322 1.322 0 0 0-.167.197c-.148.197-.296.433-.473.709-.118.177-.266.433-.443.748a1.063 1.063 0 0 1-.306.355.595.595 0 0 1-.384.138.504.504 0 0 1-.364-.168h-1.152v1.192c.157 0 .394-.05.69-.158.294-.098.511-.157.64-.157.176 0 .383.04.61.108.226.07.344.177.344.325 0 .217-.334.364-.994.433-.434.03-.857.06-1.29.08v1.181h.216c.424 0 .739 0 .956-.02.216-.02.423-.039.62-.098.197-.05.325-.079.364-.089.05 0 .119-.01.188-.01.315 0 .62.119.935.345.315.227.473.433.473.61 0 .148-.128.227-.384.227h-.099a6.186 6.186 0 0 0-1.369-.374 9.54 9.54 0 0 0-1.457-.108c-.571 0-1.202.039-1.871.118-.68.079-1.212.197-1.596.364-.128.05-.256.118-.394.177a.97.97 0 0 1-.354.099c-.148 0-.374-.108-.66-.335-.286-.226-.434-.404-.434-.532 0-.049.04-.078.109-.088.04 0 .089-.01.148-.01.147 0 .285 0 .393.03.109.02.247.039.395.068.453 0 1.024-.049 1.713-.138.246-.039.6-.088 1.044-.147v-1.143c-.118 0-.295.03-.532.08a2.39 2.39 0 0 1-.551.078c-.148 0-.365-.07-.66-.217-.296-.138-.443-.276-.443-.404 0-.059.049-.098.147-.098l.847.04c.365 0 .759-.04 1.192-.119v-1.201c-.404.069-.807.147-1.211.216-.04.109-.06.187-.08.227-.048.098-.107.147-.206.147-.394 0-.788-.67-1.172-2.018-.207-.73-.384-1.192-.541-1.37-.07-.098-.109-.167-.109-.196 0-.07.05-.109.148-.109.118 0 .286.04.502.119.089.03.207.078.364.147a49.365 49.365 0 0 0 1.182-.177c.542-.089.906-.177 1.113-.256v-.827c-.266 0-.857.098-1.773.305-.915.207-1.497.364-1.753.473-.049.02-.147.079-.305.177-.157.098-.286.148-.384.148-.138 0-.404-.118-.798-.365-.394-.246-.59-.423-.59-.541 0-.02.039-.04.108-.07l1.083.04h.158c.059 0 .157 0 .285-.03l1.97-.285a29.07 29.07 0 0 0 1.94-.335c0-.217-.03-.423-.098-.64-.06-.207-.158-.345-.296-.414-.414.07-.748.128-1.024.158-.276.04-.552.05-.837.05h-.236c-.08 0-.119-.03-.119-.07 0-.04.07-.079.197-.138a1.88 1.88 0 0 1 .306-.118c.61-.197 1.132-.384 1.575-.551.769-.296 1.251-.532 1.448-.71.03-.029.05-.147.069-.364.02-.217.099-.325.236-.325.227 0 .513.148.867.453.354.296.532.562.532.788 0 .158-.099.246-.296.266-.197.01-.344.02-.453.02-.197.039-.472.108-.817.206-.345.099-.6.178-.749.217.316.158.532.266.64.315.109.05.158.197.158.453v.325c.739 0 1.408-.01 2.01-.04.6-.029 1.004-.088 1.21-.186.148-.06.276-.099.395-.099.216 0 .502.099.876.306.364.206.552.413.552.62 0 .089-.04.158-.129.207a.546.546 0 0 1-.275.069l-.197-.03a26.036 26.036 0 0 0-2.216-.335 21.44 21.44 0 0 0-2.216-.118l.04.02Zm-1.053 2.255v-.807l-2 .305c.05.098.099.217.148.364.06.148.089.276.108.394l.266.03c.227 0 .473-.03.739-.089s.512-.128.729-.207l.01.01Zm0 1.537v-.936c-.089 0-.266.02-.512.05a5.598 5.598 0 0 1-.552.048c-.217 0-.394-.03-.522-.098l.286 1.113c.138-.05.354-.079.65-.099.295-.02.512-.049.65-.078Zm1.053-2.482v.748h.138c.325 0 .572.03.749.099.177.069.266.148.266.246s-.099.177-.306.256c-.207.079-.482.108-.847.108v.897h1.202c.069-.158.197-.522.374-1.084.177-.561.266-.886.266-.995 0-.137-.079-.226-.236-.285a1.801 1.801 0 0 0-.62-.089c-.237 0-.444.01-.631.04s-.305.049-.364.049l.01.01Z" fill="#E68169"/></g><defs><clipPath id="clip0_1119_33304"><path fill="#fff" transform="translate(.763)" d="M0 0h53.763v65H0z"/></clipPath></defs></svg>