<svg fill="none" xmlns="http://www.w3.org/2000/svg" viewBox="0 0 55 65"><g clip-path="url(#clip0_1166_33540)"><path d="M48.813 61.327 21.473 59.8c-3.21-.177-5.86-3.309-5.919-6.992l-.768-45.973C14.737 3.703 16.57 1.192 19.08.611L5.312 3.79c-2.511.582-4.343 3.093-4.294 6.225l.768 45.973c.06 3.683 2.709 6.815 5.92 6.992l27.339 1.527c.482.03.955-.02 1.398-.118l13.758-3.172a5.04 5.04 0 0 1-1.398.119l.01-.01Z" fill="#368AA5" stroke="#231815" stroke-miterlimit="10"/><path d="M47.11 2.019c3.21.177 5.859 3.309 5.918 6.992l.768 45.973c.06 3.683-2.492 6.52-5.702 6.342L20.754 59.8c-3.21-.177-5.86-3.31-5.918-6.993l-.769-45.972C14.008 3.15 16.56.315 19.77.492L47.11 2.02Z" fill="#fff" stroke="#231815" stroke-linecap="round" stroke-linejoin="round"/><path d="m48.075 61.376-27.34-1.527c-3.21-.177-5.85-3.309-5.909-6.992l-.67-45.993c-.02-1.575.434-2.993 1.202-4.087C16.136 1.684 17.229.907 18.5.63l-6.885 1.527c-2.54.561-4.392 3.092-4.353 6.234l.67 45.992c.05 3.684 2.698 6.816 5.91 6.993l27.339 1.526c.472.03.925-.01 1.359-.108l6.884-1.526a4.789 4.789 0 0 1-1.36.108h.01Z" fill="#fff" stroke="#231815" stroke-linecap="round" stroke-linejoin="round"/><path d="M47.218 2.039c3.21.177 5.85 3.309 5.909 6.992l.67 45.992c.049 3.684-2.502 6.52-5.713 6.343l-27.339-1.527c-3.21-.177-5.85-3.309-5.91-6.992l-.669-45.992C14.117 3.17 16.668.325 19.878.512l27.34 1.527Z" fill="#fff" stroke="#231815" stroke-linecap="round" stroke-linejoin="round"/><path d="m37.29 23.36 10.892-1.24-6.125 8.588 7.878 8.863-11.473-2.826 2.117 7.475-5.426-6.608-1.93 8.341-1.793-10.252-13.01 1.9 9.376-7.396-10.587-3.781 9.927-3.014-1.152-9.16 5.525 6.156 4.648-10.38L37.29 23.36Z" fill="#E2CCAF" stroke="#231815" stroke-linecap="round" stroke-linejoin="round"/><path d="m38.097 29.55-5.43-3.316a.315.315 0 0 0-.433.105l-1.33 2.177a.315.315 0 0 0 .106.433l5.43 3.316c.148.09.342.044.433-.105l1.329-2.177a.315.315 0 0 0-.105-.433Z" fill="#368AA5" stroke="#231815" stroke-linecap="round" stroke-linejoin="round"/><path d="m36.633 32.008-5.48-3.346a.286.286 0 0 0-.393.095l-1.026 1.681a.286.286 0 0 0 .095.393l5.48 3.346c.135.082.31.04.393-.095l1.026-1.68a.286.286 0 0 0-.095-.394Z" fill="#E2CCAF" stroke="#231815" stroke-linecap="round" stroke-linejoin="round"/><path d="m27.472 49.114-7.367-4.5c-.128-.08-.177-.227-.108-.325l9.513-13.513c.04-.058.158-.049.256 0l5.604 3.418c.099.06.158.157.118.217l-7.672 14.634c-.059.109-.207.128-.335.05l-.01.02Z" fill="#368AA5" stroke="#231815" stroke-linecap="round" stroke-linejoin="round"/><path d="m28.523 49.38-9.137-5.58a.364.364 0 0 0-.5.121l-.945 1.547a.364.364 0 0 0 .121.5l9.136 5.58c.172.105.396.05.501-.121l.945-1.547a.364.364 0 0 0-.121-.5Z" fill="#E86546" stroke="#231815" stroke-linecap="round" stroke-linejoin="round"/><path d="m45.553 12.143-.827-.502c-.256-.158-.315-.463-.148-.68l1.537-1.94c.078-.098.265-.088.423 0l.512.316c.158.098.246.265.197.374l-1.024 2.245c-.108.247-.414.335-.67.187Z" fill="#E2CCAF" stroke="#231815" stroke-linecap="round" stroke-linejoin="round"/><path d="M38.187 30.038a.81.81 0 0 1-.424-.119l-5.289-3.23a.817.817 0 0 1-.315-1.034c.532-1.132 2.935-5.525 11.77-14.654a.81.81 0 0 1 .59-.247.81.81 0 0 1 .424.119l1.21.738a.82.82 0 0 1 .346.955c-4.088 12.025-6.894 16.172-7.663 17.157a.812.812 0 0 1-.64.315h-.01Z" fill="#E86546"/><path d="M44.519 11.247c.059 0 .118.02.167.05l1.212.738a.32.32 0 0 1 .138.374c-4.087 12.025-6.875 16.103-7.584 17.018a.312.312 0 0 1-.413.07l-5.289-3.23a.328.328 0 0 1-.128-.405c.492-1.053 2.846-5.387 11.67-14.526a.305.305 0 0 1 .237-.099m0-.985c-.355 0-.7.148-.946.404-8.883 9.189-11.316 13.64-11.857 14.793-.276.6-.06 1.31.502 1.664l5.289 3.23c.206.128.443.188.68.188.403 0 .777-.188 1.023-.503.779-1.004 3.625-5.2 7.741-17.304a1.32 1.32 0 0 0-.551-1.536l-1.211-.739a1.263 1.263 0 0 0-.68-.187l.01-.01Z" fill="#231815"/></g><defs><clipPath id="clip0_1166_33540"><path fill="#fff" transform="translate(.526)" d="M0 0h53.763v65H0z"/></clipPath></defs></svg>