<svg fill="none" xmlns="http://www.w3.org/2000/svg" viewBox="0 0 55 65"><g clip-path="url(#clip0_1119_33318)"><path d="M48.813 61.327 21.473 59.8c-3.21-.177-5.86-3.309-5.919-6.992l-.768-45.973C14.737 3.703 16.57 1.192 19.08.611L5.312 3.79c-2.511.582-4.343 3.093-4.294 6.225l.768 45.973c.06 3.683 2.709 6.815 5.92 6.992l27.339 1.527c.482.03.955-.02 1.398-.118l13.758-3.172a5.04 5.04 0 0 1-1.398.119l.01-.01Z" fill="#E68169" stroke="#231815" stroke-miterlimit="10"/><path d="M47.11 2.019c3.21.177 5.859 3.309 5.918 6.992l.768 45.973c.06 3.683-2.492 6.52-5.702 6.342L20.754 59.8c-3.21-.177-5.86-3.31-5.918-6.993l-.769-45.972C14.008 3.15 16.56.315 19.77.492L47.11 2.02Z" fill="#fff" stroke="#231815" stroke-linecap="round" stroke-linejoin="round"/><path d="m48.075 61.376-27.34-1.527c-3.21-.177-5.85-3.309-5.909-6.992l-.67-45.993c-.02-1.575.434-2.993 1.202-4.087C16.136 1.684 17.229.907 18.5.63l-6.885 1.527c-2.54.561-4.392 3.092-4.353 6.234l.67 45.992c.05 3.684 2.698 6.816 5.91 6.993l27.339 1.526c.472.03.925-.01 1.359-.108l6.884-1.526a4.789 4.789 0 0 1-1.36.108h.01Z" fill="#fff" stroke="#231815" stroke-linecap="round" stroke-linejoin="round"/><path d="M47.218 2.039c3.21.177 5.85 3.309 5.909 6.992l.67 45.992c.049 3.684-2.502 6.52-5.713 6.343l-27.339-1.527c-3.21-.177-5.85-3.309-5.91-6.992l-.669-45.992C14.117 3.17 16.668.325 19.878.512l27.34 1.527Z" fill="#fff" stroke="#231815" stroke-linecap="round" stroke-linejoin="round"/><path d="M23.936 49.715c.147-.266.206-.443.325-.561.916-1.024 1.181-2.226 1.063-3.565-.04-.463-.01-.936 0-1.399.02-.551-.128-1.044-.532-1.438-.906-.876-1.044-2.058-1.23-3.2-.07-.444.108-.818.521-1.015.847-.404 1.714-.748 2.551-1.162a82.386 82.386 0 0 0 2.787-1.448 2.188 2.188 0 0 0 1.123-1.487c.207-.916.66-1.595 1.625-1.87.788-.227 1.202-.818 1.527-1.567.748-1.723 1.841-3.24 2.944-4.757.404-.561.847-1.093 1.25-1.605.611-.04.966.276 1.31.571 1.084.916 1.95 2.01 2.64 3.25.168.306.305.63.502.926.887 1.31 1.123 2.797 1.143 4.323.04 2.108.04 4.206.079 6.313.01.7.069 1.399.177 2.088.207 1.32.03 2.482-.798 3.624-1.605 2.226-3.21 4.452-5.15 6.402-.247.246-.523.463-.818.719-1.034-.355-2.058-.187-3.102-.06-.916.119-1.871.02-2.807.02h-5.82c-.788-.846-.838-2.008-1.31-3.092v-.01Z" fill="#368AA5" stroke="#231815" stroke-linecap="round" stroke-linejoin="round"/><path d="M49.739 15.039c0 .827-.345 1.467-1.034 1.92-.582.384-1.31.581-2.187.581-.67 0-1.23-.049-1.664-.138-.946-.197-1.419-.374-1.419-.522 0-.03 0-.069.03-.118.06-.167.158-.413.276-.748.04-.168.098-.414.187-.739.04-.108.108-.167.207-.167-.01 0 .187.079.6.226.414.148.759.227 1.025.227.876 0 1.32-.296 1.32-.887 0-.472-.414-.709-1.251-.709-.109 0-.256 0-.444.01-.187.01-.305.01-.364.01h-.453c-.197-.02-.295-.098-.295-.227 0-.689.03-1.112.078-1.29.04-.108.109-.167.217-.167.148 0 .374.02.68.059.305.04.522.059.67.059a.645.645 0 0 0 .482-.187.653.653 0 0 0 .187-.492c0-.532-.384-.798-1.162-.798-.325 0-.758.088-1.31.266h-.059c-.06 0-.108-.06-.148-.187 0-.188-.02-.404-.04-.65 0-.05-.019-.158-.038-.325a2.197 2.197 0 0 1-.03-.316c0-.236.364-.423 1.103-.551a8.595 8.595 0 0 1 1.477-.138c.759 0 1.428.167 2.01.502.699.404 1.043.965 1.043 1.675 0 .817-.374 1.447-1.113 1.87a2.04 2.04 0 0 1 1.044.75c.256.354.384.758.384 1.21l-.01-.01Z" fill="#E86546"/><path d="M49.739 15.039c0 .827-.345 1.467-1.034 1.92-.582.384-1.31.581-2.187.581-.67 0-1.23-.049-1.664-.138-.946-.197-1.419-.374-1.419-.522 0-.03 0-.069.03-.118.06-.167.158-.413.276-.748.04-.168.098-.414.187-.739.04-.108.108-.167.207-.167-.01 0 .187.079.6.226.414.148.759.227 1.025.227.876 0 1.32-.296 1.32-.887 0-.472-.414-.709-1.251-.709-.109 0-.256 0-.444.01-.187.01-.305.01-.364.01h-.453c-.197-.02-.295-.098-.295-.227 0-.689.03-1.112.078-1.29.04-.108.109-.167.217-.167.148 0 .374.02.68.059.305.04.522.059.67.059a.645.645 0 0 0 .482-.187.653.653 0 0 0 .187-.492c0-.532-.384-.798-1.162-.798-.325 0-.758.088-1.31.266h-.059c-.06 0-.108-.06-.148-.187 0-.188-.02-.404-.04-.65 0-.05-.019-.158-.038-.325a2.197 2.197 0 0 1-.03-.316c0-.236.364-.423 1.103-.551a8.595 8.595 0 0 1 1.477-.138c.759 0 1.428.167 2.01.502.699.404 1.043.965 1.043 1.675 0 .817-.374 1.447-1.113 1.87a2.04 2.04 0 0 1 1.044.75c.256.354.384.758.384 1.21l-.01-.01Z" fill="#00698A"/><path d="M30.061 16.762c0 .118-.03.207-.118.266a.562.562 0 0 1-.305.098c-.315 0-.719-.069-1.221-.216-.601-.168-.995-.266-1.192-.296a16.093 16.093 0 0 0-2.255-.157c-.739 0-1.645.069-2.689.197s-1.763.315-2.176.551c-.148.07-.227.109-.256.118a.553.553 0 0 1-.198.03c-.157 0-.472-.148-.945-.453-.473-.305-.7-.522-.7-.67 0-.049.05-.079.149-.079.157 0 .305 0 .443.03.473.06.729.098.768.098.443 0 1.546-.098 3.3-.285.826-.089 1.496-.138 2.008-.138.61 0 1.074 0 1.389-.02.325-.01.709-.049 1.152-.098.089 0 .335-.05.739-.138.226-.04.384-.069.473-.069.256 0 .6.148 1.014.433.423.286.63.552.63.798h-.01Zm-2.905-6.697v.04c.01.187-.414.325-1.26.393-.532.04-1.054.07-1.576.109-.65.108-1.3.226-1.94.335-.168 0-.453-.109-.847-.325-.394-.217-.601-.375-.601-.473 0-.05.079-.089.226-.108.099 0 .237.01.404.039.168.03.266.04.286.04.571 0 1.172-.06 1.802-.178a6.477 6.477 0 0 0 1.664-.532c.119-.049.207-.079.286-.098.05 0 .108-.01.187-.01.217 0 .502.089.847.256.355.167.532.345.532.522l-.01-.01Zm-.295 3.004c0 .256-.798.433-2.403.512-.877.05-1.438.108-1.684.197-.05.02-.138.05-.257.089a.888.888 0 0 1-.256.059c-.128 0-.384-.119-.768-.365s-.571-.423-.571-.531c0-.05.079-.07.226-.07.099 0 .257.02.473.05.217.03.375.049.463.049.453 0 .985-.06 1.605-.177.611-.118 1.084-.256 1.428-.414.158-.069.325-.108.493-.108.177 0 .433.079.758.226.325.148.493.315.493.483Zm9.957-1.95v.857c.403 0 .718 0 .955-.03.236-.02.58-.108 1.034-.285.118 0 .384.197.798.6.413.394.62.65.62.769 0 .059-.05.147-.138.246a1.325 1.325 0 0 0-.167.197c-.148.197-.296.433-.473.709-.118.177-.266.433-.443.748a1.061 1.061 0 0 1-.305.355.595.595 0 0 1-.384.138.504.504 0 0 1-.365-.168h-1.152v1.192c.157 0 .394-.05.69-.158.295-.098.511-.157.64-.157.177 0 .383.04.61.108.227.07.345.177.345.325 0 .217-.335.364-.995.433-.433.03-.857.06-1.29.08v1.181h.216c.424 0 .74 0 .956-.02a3.16 3.16 0 0 0 .62-.098c.197-.05.325-.079.365-.089.049 0 .118-.01.187-.01.315 0 .62.119.935.345.316.227.473.433.473.61 0 .148-.128.227-.384.227h-.098a6.186 6.186 0 0 0-1.37-.374 9.539 9.539 0 0 0-1.457-.108c-.571 0-1.202.039-1.871.118-.68.079-1.212.197-1.596.364-.128.05-.256.118-.394.177a.97.97 0 0 1-.354.099c-.148 0-.374-.108-.66-.335-.285-.226-.433-.404-.433-.532 0-.049.04-.078.108-.088.04 0 .089-.01.148-.01.148 0 .285 0 .394.03.108.02.246.039.394.068.453 0 1.024-.049 1.713-.138.247-.039.601-.088 1.044-.147v-1.143c-.118 0-.295.03-.532.08a2.39 2.39 0 0 1-.551.078c-.148 0-.365-.07-.66-.217-.295-.138-.443-.276-.443-.404 0-.059.05-.098.148-.098l.847.04c.364 0 .758-.04 1.191-.119v-1.201c-.404.069-.807.147-1.211.216-.04.109-.06.187-.079.227-.05.098-.108.147-.207.147-.394 0-.788-.67-1.172-2.018-.206-.73-.384-1.192-.541-1.37-.07-.098-.109-.167-.109-.196 0-.07.05-.109.148-.109.118 0 .286.04.502.119.089.03.207.078.365.147a49.365 49.365 0 0 0 1.181-.177c.542-.089.907-.177 1.113-.256v-.827c-.265 0-.856.098-1.772.305s-1.497.364-1.753.473c-.05.02-.148.079-.306.177-.157.098-.285.148-.384.148-.138 0-.404-.118-.797-.365-.394-.246-.591-.423-.591-.541 0-.02.039-.04.108-.07l1.083.04h.158c.059 0 .157 0 .286-.03l1.97-.285a29.07 29.07 0 0 0 1.94-.335c0-.217-.03-.423-.1-.64-.058-.207-.157-.345-.295-.414-.413.07-.748.128-1.024.158a5.79 5.79 0 0 1-.837.05h-.236c-.08 0-.118-.03-.118-.07 0-.04.068-.079.196-.138a1.88 1.88 0 0 1 .306-.118 33.7 33.7 0 0 0 1.575-.551c.769-.296 1.251-.532 1.448-.71.03-.029.05-.147.07-.364.019-.217.098-.325.235-.325.227 0 .513.148.867.453.355.296.532.562.532.788 0 .158-.098.246-.295.266-.197.01-.345.02-.454.02-.197.039-.472.108-.817.206-.345.099-.6.178-.748.217.315.158.531.266.64.315.108.05.157.197.157.453v.325c.739 0 1.409-.01 2.01-.04.6-.029 1.004-.088 1.21-.186.148-.06.276-.099.395-.099.216 0 .502.099.876.306.365.206.552.413.552.62 0 .089-.04.158-.128.207a.546.546 0 0 1-.276.069l-.197-.03a26.036 26.036 0 0 0-2.216-.335 21.44 21.44 0 0 0-2.216-.118l.04.02Zm-1.054 2.255v-.807l-2 .305c.05.098.099.217.148.364.06.148.089.276.109.394l.265.03c.227 0 .473-.03.74-.089.265-.059.511-.128.728-.207l.01.01Zm0 1.537v-.936c-.089 0-.266.02-.512.05a5.598 5.598 0 0 1-.552.048c-.217 0-.394-.03-.522-.098l.286 1.113c.138-.05.354-.079.65-.099.295-.02.512-.049.65-.078Zm1.054-2.482v.748h.138c.325 0 .57.03.748.099.177.069.266.148.266.246s-.099.177-.306.256c-.206.079-.482.108-.846.108v.897h1.201c.069-.158.197-.522.374-1.084.178-.561.266-.886.266-.995 0-.137-.078-.226-.236-.285a1.801 1.801 0 0 0-.62-.089c-.237 0-.444.01-.63.04-.188.03-.306.049-.365.049l.01.01Z" fill="#231815"/><path d="M30.061 16.762c0 .118-.03.207-.118.266a.562.562 0 0 1-.305.098c-.315 0-.719-.069-1.221-.216-.601-.168-.995-.266-1.192-.296a16.093 16.093 0 0 0-2.255-.157c-.739 0-1.645.069-2.689.197s-1.763.315-2.176.551c-.148.07-.227.109-.256.118a.553.553 0 0 1-.198.03c-.157 0-.472-.148-.945-.453-.473-.305-.7-.522-.7-.67 0-.049.05-.079.149-.079.157 0 .305 0 .443.03.473.06.729.098.768.098.443 0 1.546-.098 3.3-.285.826-.089 1.496-.138 2.008-.138.61 0 1.074 0 1.389-.02.325-.01.709-.049 1.152-.098.089 0 .335-.05.739-.138.226-.04.384-.069.473-.069.256 0 .6.148 1.014.433.423.286.63.552.63.798h-.01Zm-2.905-6.697v.04c.01.187-.414.325-1.26.393-.532.04-1.054.07-1.576.109-.65.108-1.3.226-1.94.335-.168 0-.453-.109-.847-.325-.394-.217-.601-.375-.601-.473 0-.05.079-.089.226-.108.099 0 .237.01.404.039.168.03.266.04.286.04.571 0 1.172-.06 1.802-.178a6.477 6.477 0 0 0 1.664-.532c.119-.049.207-.079.286-.098.05 0 .108-.01.187-.01.217 0 .502.089.847.256.355.167.532.345.532.522l-.01-.01Zm-.295 3.004c0 .256-.798.433-2.403.512-.877.05-1.438.108-1.684.197-.05.02-.138.05-.257.089a.888.888 0 0 1-.256.059c-.128 0-.384-.119-.768-.365s-.571-.423-.571-.531c0-.05.079-.07.226-.07.099 0 .257.02.473.05.217.03.375.049.463.049.453 0 .985-.06 1.605-.177.611-.118 1.084-.256 1.428-.414.158-.069.325-.108.493-.108.177 0 .433.079.758.226.325.148.493.315.493.483Zm9.957-1.95v.857c.403 0 .718 0 .955-.03.236-.02.58-.108 1.034-.285.118 0 .384.197.798.6.413.394.62.65.62.769 0 .059-.05.147-.138.246a1.325 1.325 0 0 0-.167.197c-.148.197-.296.433-.473.709-.118.177-.266.433-.443.748a1.061 1.061 0 0 1-.305.355.595.595 0 0 1-.384.138.504.504 0 0 1-.365-.168h-1.152v1.192c.157 0 .394-.05.69-.158.295-.098.511-.157.64-.157.177 0 .383.04.61.108.227.07.345.177.345.325 0 .217-.335.364-.995.433-.433.03-.857.06-1.29.08v1.181h.216c.424 0 .74 0 .956-.02a3.16 3.16 0 0 0 .62-.098c.197-.05.325-.079.365-.089.049 0 .118-.01.187-.01.315 0 .62.119.935.345.316.227.473.433.473.61 0 .148-.128.227-.384.227h-.098a6.186 6.186 0 0 0-1.37-.374 9.539 9.539 0 0 0-1.457-.108c-.571 0-1.202.039-1.871.118-.68.079-1.212.197-1.596.364-.128.05-.256.118-.394.177a.97.97 0 0 1-.354.099c-.148 0-.374-.108-.66-.335-.285-.226-.433-.404-.433-.532 0-.049.04-.078.108-.088.04 0 .089-.01.148-.01.148 0 .285 0 .394.03.108.02.246.039.394.068.453 0 1.024-.049 1.713-.138.247-.039.601-.088 1.044-.147v-1.143c-.118 0-.295.03-.532.08a2.39 2.39 0 0 1-.551.078c-.148 0-.365-.07-.66-.217-.295-.138-.443-.276-.443-.404 0-.059.05-.098.148-.098l.847.04c.364 0 .758-.04 1.191-.119v-1.201c-.404.069-.807.147-1.211.216-.04.109-.06.187-.079.227-.05.098-.108.147-.207.147-.394 0-.788-.67-1.172-2.018-.206-.73-.384-1.192-.541-1.37-.07-.098-.109-.167-.109-.196 0-.07.05-.109.148-.109.118 0 .286.04.502.119.089.03.207.078.365.147a49.365 49.365 0 0 0 1.181-.177c.542-.089.907-.177 1.113-.256v-.827c-.265 0-.856.098-1.772.305s-1.497.364-1.753.473c-.05.02-.148.079-.306.177-.157.098-.285.148-.384.148-.138 0-.404-.118-.797-.365-.394-.246-.591-.423-.591-.541 0-.02.039-.04.108-.07l1.083.04h.158c.059 0 .157 0 .286-.03l1.97-.285a29.07 29.07 0 0 0 1.94-.335c0-.217-.03-.423-.1-.64-.058-.207-.157-.345-.295-.414-.413.07-.748.128-1.024.158a5.79 5.79 0 0 1-.837.05h-.236c-.08 0-.118-.03-.118-.07 0-.04.068-.079.196-.138a1.88 1.88 0 0 1 .306-.118 33.7 33.7 0 0 0 1.575-.551c.769-.296 1.251-.532 1.448-.71.03-.029.05-.147.07-.364.019-.217.098-.325.235-.325.227 0 .513.148.867.453.355.296.532.562.532.788 0 .158-.098.246-.295.266-.197.01-.345.02-.454.02-.197.039-.472.108-.817.206-.345.099-.6.178-.748.217.315.158.531.266.64.315.108.05.157.197.157.453v.325c.739 0 1.409-.01 2.01-.04.6-.029 1.004-.088 1.21-.186.148-.06.276-.099.395-.099.216 0 .502.099.876.306.365.206.552.413.552.62 0 .089-.04.158-.128.207a.546.546 0 0 1-.276.069l-.197-.03a26.036 26.036 0 0 0-2.216-.335 21.44 21.44 0 0 0-2.216-.118l.04.02Zm-1.054 2.255v-.807l-2 .305c.05.098.099.217.148.364.06.148.089.276.109.394l.265.03c.227 0 .473-.03.74-.089.265-.059.511-.128.728-.207l.01.01Zm0 1.537v-.936c-.089 0-.266.02-.512.05a5.598 5.598 0 0 1-.552.048c-.217 0-.394-.03-.522-.098l.286 1.113c.138-.05.354-.079.65-.099.295-.02.512-.049.65-.078Zm1.054-2.482v.748h.138c.325 0 .57.03.748.099.177.069.266.148.266.246s-.099.177-.306.256c-.206.079-.482.108-.846.108v.897h1.201c.069-.158.197-.522.374-1.084.178-.561.266-.886.266-.995 0-.137-.078-.226-.236-.285a1.801 1.801 0 0 0-.62-.089c-.237 0-.444.01-.63.04-.188.03-.306.049-.365.049l.01.01Z" stroke="#231815" stroke-width="2"/><path d="M30.061 16.762c0 .118-.03.207-.118.266a.562.562 0 0 1-.305.098c-.315 0-.719-.069-1.221-.216-.601-.168-.995-.266-1.192-.296a16.093 16.093 0 0 0-2.255-.157c-.739 0-1.645.069-2.689.197s-1.763.315-2.176.551c-.148.07-.227.109-.256.118a.553.553 0 0 1-.198.03c-.157 0-.472-.148-.945-.453-.473-.305-.7-.522-.7-.67 0-.049.05-.079.149-.079.157 0 .305 0 .443.03.473.06.729.098.768.098.443 0 1.546-.098 3.3-.285.826-.089 1.496-.138 2.008-.138.61 0 1.074 0 1.389-.02.325-.01.709-.049 1.152-.098.089 0 .335-.05.739-.138.226-.04.384-.069.473-.069.256 0 .6.148 1.014.433.423.286.63.552.63.798h-.01Zm-2.905-6.697v.04c.01.187-.414.325-1.26.393-.532.04-1.054.07-1.576.109-.65.108-1.3.226-1.94.335-.168 0-.453-.109-.847-.325-.394-.217-.601-.375-.601-.473 0-.05.079-.089.226-.108.099 0 .237.01.404.039.168.03.266.04.286.04.571 0 1.172-.06 1.802-.178a6.477 6.477 0 0 0 1.664-.532c.119-.049.207-.079.286-.098.05 0 .108-.01.187-.01.217 0 .502.089.847.256.355.167.532.345.532.522l-.01-.01Zm-.295 3.004c0 .256-.798.433-2.403.512-.877.05-1.438.108-1.684.197-.05.02-.138.05-.257.089a.888.888 0 0 1-.256.059c-.128 0-.384-.119-.768-.365s-.571-.423-.571-.531c0-.05.079-.07.226-.07.099 0 .257.02.473.05.217.03.375.049.463.049.453 0 .985-.06 1.605-.177.611-.118 1.084-.256 1.428-.414.158-.069.325-.108.493-.108.177 0 .433.079.758.226.325.148.493.315.493.483Zm9.957-1.95v.857c.403 0 .718 0 .955-.03.236-.02.58-.108 1.034-.285.118 0 .384.197.798.6.413.394.62.65.62.769 0 .059-.05.147-.138.246a1.325 1.325 0 0 0-.167.197c-.148.197-.296.433-.473.709-.118.177-.266.433-.443.748a1.061 1.061 0 0 1-.305.355.595.595 0 0 1-.384.138.504.504 0 0 1-.365-.168h-1.152v1.192c.157 0 .394-.05.69-.158.295-.098.511-.157.64-.157.177 0 .383.04.61.108.227.07.345.177.345.325 0 .217-.335.364-.995.433-.433.03-.857.06-1.29.08v1.181h.216c.424 0 .74 0 .956-.02a3.16 3.16 0 0 0 .62-.098c.197-.05.325-.079.365-.089.049 0 .118-.01.187-.01.315 0 .62.119.935.345.316.227.473.433.473.61 0 .148-.128.227-.384.227h-.098a6.186 6.186 0 0 0-1.37-.374 9.539 9.539 0 0 0-1.457-.108c-.571 0-1.202.039-1.871.118-.68.079-1.212.197-1.596.364-.128.05-.256.118-.394.177a.97.97 0 0 1-.354.099c-.148 0-.374-.108-.66-.335-.285-.226-.433-.404-.433-.532 0-.049.04-.078.108-.088.04 0 .089-.01.148-.01.148 0 .285 0 .394.03.108.02.246.039.394.068.453 0 1.024-.049 1.713-.138.247-.039.601-.088 1.044-.147v-1.143c-.118 0-.295.03-.532.08a2.39 2.39 0 0 1-.551.078c-.148 0-.365-.07-.66-.217-.295-.138-.443-.276-.443-.404 0-.059.05-.098.148-.098l.847.04c.364 0 .758-.04 1.191-.119v-1.201c-.404.069-.807.147-1.211.216-.04.109-.06.187-.079.227-.05.098-.108.147-.207.147-.394 0-.788-.67-1.172-2.018-.206-.73-.384-1.192-.541-1.37-.07-.098-.109-.167-.109-.196 0-.07.05-.109.148-.109.118 0 .286.04.502.119.089.03.207.078.365.147a49.365 49.365 0 0 0 1.181-.177c.542-.089.907-.177 1.113-.256v-.827c-.265 0-.856.098-1.772.305s-1.497.364-1.753.473c-.05.02-.148.079-.306.177-.157.098-.285.148-.384.148-.138 0-.404-.118-.797-.365-.394-.246-.591-.423-.591-.541 0-.02.039-.04.108-.07l1.083.04h.158c.059 0 .157 0 .286-.03l1.97-.285a29.07 29.07 0 0 0 1.94-.335c0-.217-.03-.423-.1-.64-.058-.207-.157-.345-.295-.414-.413.07-.748.128-1.024.158a5.79 5.79 0 0 1-.837.05h-.236c-.08 0-.118-.03-.118-.07 0-.04.068-.079.196-.138a1.88 1.88 0 0 1 .306-.118 33.7 33.7 0 0 0 1.575-.551c.769-.296 1.251-.532 1.448-.71.03-.029.05-.147.07-.364.019-.217.098-.325.235-.325.227 0 .513.148.867.453.355.296.532.562.532.788 0 .158-.098.246-.295.266-.197.01-.345.02-.454.02-.197.039-.472.108-.817.206-.345.099-.6.178-.748.217.315.158.531.266.64.315.108.05.157.197.157.453v.325c.739 0 1.409-.01 2.01-.04.6-.029 1.004-.088 1.21-.186.148-.06.276-.099.395-.099.216 0 .502.099.876.306.365.206.552.413.552.62 0 .089-.04.158-.128.207a.546.546 0 0 1-.276.069l-.197-.03a26.036 26.036 0 0 0-2.216-.335 21.44 21.44 0 0 0-2.216-.118l.04.02Zm-1.054 2.255v-.807l-2 .305c.05.098.099.217.148.364.06.148.089.276.109.394l.265.03c.227 0 .473-.03.74-.089.265-.059.511-.128.728-.207l.01.01Zm0 1.537v-.936c-.089 0-.266.02-.512.05a5.598 5.598 0 0 1-.552.048c-.217 0-.394-.03-.522-.098l.286 1.113c.138-.05.354-.079.65-.099.295-.02.512-.049.65-.078Zm1.054-2.482v.748h.138c.325 0 .57.03.748.099.177.069.266.148.266.246s-.099.177-.306.256c-.206.079-.482.108-.846.108v.897h1.201c.069-.158.197-.522.374-1.084.178-.561.266-.886.266-.995 0-.137-.078-.226-.236-.285a1.801 1.801 0 0 0-.62-.089c-.237 0-.444.01-.63.04-.188.03-.306.049-.365.049l.01.01Z" fill="#E68169"/></g><defs><clipPath id="clip0_1119_33318"><path fill="#fff" transform="translate(.526)" d="M0 0h53.763v65H0z"/></clipPath></defs></svg>