<svg fill="none" xmlns="http://www.w3.org/2000/svg" viewBox="0 0 55 65"><g clip-path="url(#clip0_1172_33553)" stroke="#231815"><path d="M49.082 61.327 21.322 59.8c-3.26-.177-5.95-3.309-6.01-6.992l-.78-45.973c-.05-3.132 1.81-5.643 4.36-6.224L4.912 3.79c-2.55.582-4.41 3.093-4.36 6.225l.78 45.973c.06 3.683 2.75 6.815 6.01 6.992l27.76 1.527c.49.03.97-.02 1.42-.118l13.97-3.172c-.45.099-.93.148-1.42.119l.01-.01Z" fill="#368AA5" stroke-miterlimit="10"/><path d="M47.352 2.019c3.26.177 5.95 3.309 6.01 6.992l.78 45.973c.06 3.683-2.53 6.52-5.79 6.342L20.592 59.8c-3.26-.177-5.95-3.31-6.01-6.993l-.78-45.972c-.06-3.684 2.53-6.52 5.79-6.343l27.76 1.527Z" fill="#fff" stroke-linecap="round" stroke-linejoin="round"/><path d="m48.332 61.376-27.76-1.527c-3.26-.177-5.94-3.309-6-6.992l-.68-45.993c-.02-1.575.44-2.993 1.22-4.087.79-1.093 1.9-1.87 3.19-2.147l-6.99 1.527c-2.58.561-4.46 3.092-4.42 6.234l.68 45.992c.05 3.684 2.74 6.816 6 6.993l27.76 1.526c.48.03.94-.01 1.38-.108l6.99-1.526c-.44.098-.91.137-1.38.108h.01Z" fill="#fff" stroke-linecap="round" stroke-linejoin="round"/><path d="M47.462 2.039c3.26.177 5.94 3.309 6 6.992l.68 45.992c.05 3.684-2.54 6.52-5.8 6.343l-27.76-1.527c-3.26-.177-5.94-3.309-6-6.992l-.68-45.992c-.05-3.684 2.54-6.53 5.8-6.343l27.76 1.527Z" fill="#fff" stroke-linecap="round" stroke-linejoin="round"/><path d="M25.122 17.461c.31.05.64.089 1.02.118.37.03.71.05 1.02.05.39 0 .84-.03 1.34-.099.5-.069.92-.177 1.25-.335.35-.295.69-.571 1.02-.827.33-.256.55-.384.66-.384.2 0 .42.079.66.236.24.158.49.315.75.473.55.364 1.03.798 1.44 1.32.2.049.4.118.62.216.22.099.42.197.61.286.19.089.49.315.9.68.13.108.32.285.56.502.38-.207.79-.581 1.24-1.152.45-.562.72-.966.81-1.222.05-.108.02-.266-.07-.453-.09-.187-.13-.325-.1-.384.05-.157.12-.246.21-.266.07-.02.33-.03.77-.03.42 0 .95.178 1.61.542.65.365 1.04.67 1.17.916.13.247.19.463.19.64 0 .207-.07.335-.21.404l-1.41.64-2.4 1.419c.05.177.3.482.75.915.46.424.78.67.96.71.16-.158.5-.591 1.03-1.3.53-.71.82-1.143.89-1.3.02-.05.03-.217.03-.503 0-.206.05-.325.14-.374.11-.069.29-.069.53-.02.24.06.5.148.79.266.29.128.58.266.88.424.46.246.75.453.88.61.13.158.2.296.22.404a.5.5 0 0 1-.03.404c-.07.138-.34.315-.82.542-.32.137-.63.265-.93.403-.11.05-.46.276-1.03.69-.57.413-.98.709-1.24.866 1.12.769 1.79 1.222 1.99 1.35.37.246.69.443.96.57.71.405 1.42.808 2.13 1.222.94.542 1.66.926 2.18 1.162.51.237.81.374.88.424.25.157.38.364.38.61 0 .247-.17.424-.51.542a4.14 4.14 0 0 1-1.24.167c-.32 0-.9-.03-1.75-.098-.85-.069-1.42-.148-1.73-.236-.31-.09-.72-.345-1.22-.779-.75-.63-1.22-1.014-1.41-1.152-.25.365-.43.69-.53.985-.1.296-.18.61-.24.965-.06.345-.09.67-.09.965 0 .247.02.473.07.66.05.187.12.365.22.522.1.158.27.237.5.237h.45c.32.02.68.039 1.08.049.4.01.75.05 1.06.098.31.06.55.138.72.256.17.109.26.335.26.68 0 .345-.22.6-.65.778-.11.05-.37.108-.76.207-.05 0-.15.02-.31.069h-.38a9.85 9.85 0 0 1-2.04-.217c-.7-.148-1.2-.345-1.49-.59a3.13 3.13 0 0 1-.76-.966c-.21-.394-.31-.739-.31-1.034V27.32l-1.9.403-.43 1.389c-.14.561-.44 1.231-.91 1.99-.47.767-.87 1.27-1.18 1.516-.32.246-.61.483-.88.71-.59.472-1.06.65-1.42.54-.05-.019 0-.167.12-.442.13-.266.27-.522.43-.759.16-.236.39-.69.7-1.349.31-.66.56-1.25.75-1.753.19-.502.29-1.103.29-1.773 0-.384-.03-.65-.09-.807a3.14 3.14 0 0 1-.15-.572 2.565 2.565 0 0 1-.07-.541c0-.207.02-.325.05-.375.07-.088.26-.098.55-.029.13.02.3.118.51.286.21.167.56.472 1.05.896l1.45-.266c.05-.05.28-.266.67-.68.21-.226.39-.344.55-.374.18-.05.6.069 1.26.335.1.02.24.079.39.167-1.3-1.506-2.6-3.033-3.88-4.56-.6-.65-1.05-1.122-1.37-1.418a7.19 7.19 0 0 0-1.34-.985c-.5.769-.95 1.428-1.34 1.99-.16.226-.51.7-1.06 1.418-.18.246-.71.867-1.58 1.861-.27.316-1.04 1.202-2.3 2.67.16-.02.41-.08.74-.168.33-.089.57-.158.7-.207.3-.157.62-.325.98-.492.35-.168.62-.266.81-.286.14-.02.34.05.62.207.27.158.52.295.74.423.22.128.46.335.74.63.27.296.41.493.41.611 0 .119-.39.601-1.17 1.458-.64.7-1.01 1.103-1.1 1.221 0 .453-.1.808-.31 1.083-.11.158-.49.345-1.13.572-.23.088-.69.187-1.37.305-.37.05-.95.148-1.75.305l-.75 2.403 1.29-.236c.74-.138 1.17-.227 1.29-.266.02 0 .25-.207.69-.61.34-.316.58-.473.72-.473s.35.079.64.236a4.123 4.123 0 0 1 1.46 1.29c.21.296.3.522.27.68a.568.568 0 0 1-.22.354c-.13.099-.28.217-.46.355-.07.069-.15.364-.26.896-.1.532-.19.906-.26 1.133-.14.561-.27 1.142-.39 1.743-.13.6-.26 1.083-.39 1.457-.14.375-.4.946-.79 1.704-.11.207-.22.404-.31.61-.18.365-.57.789-1.17 1.281-.6.492-1.03.749-1.3.749-.21 0-.37-.07-.48-.207-.07-.089-.14-.247-.21-.473-.34-.561-.69-1.123-1.03-1.694-.02-.05-.21-.305-.55-.778-.46-.63-.65-.965-.58-1.014.11-.07.51.049 1.2.334.18.07.4.168.65.306a1 1 0 0 0 .45.098c.23 0 .46-.078.7-.236.24-.158.51-.6.81-1.32.18-.423.38-.955.58-1.575.21-.621.34-1.143.41-1.576.07-.424.15-1.103.24-2.03-.62.11-1.22.296-1.82.543-.34.137-.84.364-1.48.68-.3.137-.6.324-.89.57-.3.247-.61.522-.93.808-.14.05-.24.03-.31-.03a2.744 2.744 0 0 1-.21-.305c-.14-.177-.32-.542-.55-1.083-.23-.542-.34-.887-.34-1.044 0-.178.12-.404.36-.66s.5-.542.79-.847c.29-.305.48-.61.58-.926.1-.315.15-.68.15-1.083 0-.315-.03-.571-.09-.758a5.507 5.507 0 0 0-.33-.759c-.07-.138-.05-.256.07-.374a.365.365 0 0 1 .27-.099c.3.09.59.178.89.266.3.089.52.178.67.266.15.089.3.187.46.306.07 0 .22-.03.45-.089.23-.06.5-.098.81-.138.31-.03.6-.098.88-.207.27-.098.55-.216.82-.354l.69-2.334c-.3.069-.6.128-.91.187-.31.059-.58.059-.81.02-.14-.02-.42-.109-.86-.266-.11-.02-.27-.08-.48-.168-.32.384-1.14 1.064-2.47 2.029-.32.246-1.14.827-2.47 1.723-.43.316-.98.601-1.65.847-.66.247-1.03.306-1.1.168-.07-.158.13-.443.58-.847.27-.246.51-.453.72-.61.34-.267.9-.769 1.66-1.508.77-.728 1.38-1.349 1.84-1.841.39-.404.81-.877 1.27-1.418.55-.63 1.04-1.232 1.48-1.793-.46-.295-.87-.58-1.24-.876-.37-.296-.82-.68-1.37-1.153-.39-.295-.84-.699-1.34-1.22-.64-.65-.9-1.035-.79-1.153.09-.089.51-.07 1.27.069.43.069 1.02.187 1.75.354.73.168 1.29.532 1.68 1.103.14.207.29.532.45.995.16.463.27.758.34.896.37-.472.73-.994 1.1-1.556.3-.453.57-.916.82-1.388.39-.7.72-1.438 1-2.236l-1.27.374-2.02.375c-.16.02-.38-.02-.65-.138-.27-.109-.45-.178-.51-.207a4.593 4.593 0 0 1-1.13-.591c-.37-.256-.48-.453-.34-.591.04-.05.15-.069.33-.069l-.02-.01Zm14.53 24.68c.69.63 1.14 1.035 1.37 1.222.53.404.94.699 1.25.876.31.178.64.335.98.473.16.069.49.128.98.167.49.05 1.04.07 1.63.07.53 0 .93-.03 1.22-.1.29-.068.39-.186.33-.373-.11-.247-.58-.65-1.41-1.222a35.35 35.35 0 0 0-2.61-1.556c-.46-.246-1.02-.541-1.68-.876-1.01-.522-1.56-.808-1.65-.877.23-.364.43-.65.6-.876.17-.227.39-.493.67-.808l1.17-1.35c.23-.157.48-.324.76-.501.27-.178.41-.375.41-.572 0-.334-.48-.837-1.44-1.506-.96-.66-1.63-.995-1.99-.995-.11.02-.25.098-.41.236l-.31.306a4.79 4.79 0 0 1-.94.472c-.4.158-.84.296-1.32.404-1.14.266-2.16.453-3.05.542-.14 0-.26.01-.38.03-.18.049-.27.098-.27.167 0 .138.16.295.48.473.53.315.93.472 1.2.472.27 0 .61-.05 1.01-.148.4-.098.78-.206 1.15-.305.37-.098.81-.226 1.34-.384.53-.157.93-.256 1.2-.305-.09.226-.21.482-.36.758-.15.286-.3.562-.46.827-.16.266-.33.552-.51.847-.27.424-.5.749-.69.946-.32-.315-.6-.562-.82-.749-.23-.177-.42-.325-.58-.443-.37-.226-.67-.374-.91-.453-.24-.079-.54-.118-.91-.118-.23 0-.45.02-.67.05-.22.029-.33.117-.33.255 0 .07.06.148.17.237.14.069.27.138.41.206l1.3.808c.55.404 1.01.876 1.37 1.418-.27.404-.6.788-.96 1.152-.37.365-.8.74-1.29 1.133-.49.394-.94.719-1.36.965-.18.108-.66.384-1.44.808a4 4 0 0 0-.75.541.646.646 0 0 0-.21.306l.07.069c.09.069.23.098.41.098.69 0 1.41-.118 2.18-.354.77-.237 1.54-.572 2.32-.995.62-.335 1.17-.69 1.66-1.064a8.77 8.77 0 0 0 1.25-1.132c.37.315.64.561.82.748v-.02Z" fill="#368AA5" stroke-miterlimit="10" stroke-linejoin="round"/></g><defs><clipPath id="clip0_1172_33553"><path fill="#fff" transform="translate(.052)" d="M0 0h54.59v65H0z"/></clipPath></defs></svg>