<svg fill="none" xmlns="http://www.w3.org/2000/svg" viewBox="0 0 55 65"><g clip-path="url(#clip0_1119_33472)"><path d="M48.575 61.327 21.236 59.8c-3.21-.177-5.86-3.309-5.919-6.992L14.55 6.835c-.05-3.132 1.782-5.643 4.294-6.224L5.075 3.79C2.563 4.374.732 6.885.78 10.017l.768 45.973c.059 3.683 2.708 6.815 5.919 6.992l27.34 1.527c.482.03.955-.02 1.398-.118l13.758-3.172a5.04 5.04 0 0 1-1.398.119l.01-.01Z" fill="#E68169" stroke="#231815" stroke-miterlimit="10"/><path d="M46.872 2.019c3.21.177 5.86 3.309 5.919 6.992l.768 45.973c.059 3.683-2.492 6.52-5.702 6.342L20.517 59.8c-3.21-.177-5.86-3.31-5.919-6.993L13.83 6.835C13.771 3.15 16.322.315 19.532.492l27.34 1.527Z" fill="#fff" stroke="#231815" stroke-linecap="round" stroke-linejoin="round"/><path d="m47.837 61.376-27.34-1.527c-3.21-.177-5.85-3.309-5.908-6.992l-.67-45.993c-.02-1.575.433-2.993 1.201-4.087.78-1.093 1.872-1.87 3.142-2.147l-6.884 1.527c-2.54.561-4.392 3.092-4.353 6.234l.67 45.992c.049 3.684 2.698 6.816 5.909 6.993l27.34 1.526c.472.03.925-.01 1.358-.108l6.884-1.526a4.789 4.789 0 0 1-1.359.108h.01Z" fill="#fff" stroke="#231815" stroke-linecap="round" stroke-linejoin="round"/><path d="M46.98 2.039c3.211.177 5.85 3.309 5.91 6.992l.67 45.992c.048 3.684-2.502 6.52-5.713 6.343l-27.34-1.527c-3.21-.177-5.85-3.309-5.908-6.992l-.67-45.992C13.879 3.17 16.43.325 19.64.512l27.34 1.527Z" fill="#fff" stroke="#231815" stroke-linecap="round" stroke-linejoin="round"/><path d="M47.797 16.998c0 .09-.039.168-.118.237a.371.371 0 0 1-.246.108h-1.93c-.168 0-.246-.069-.246-.216v-.08c.069-1.713.098-2.757.098-3.121v-2c0-.127-.03-.187-.089-.187-.088 0-.226.03-.403.08a1.79 1.79 0 0 1-.414.078c-.138 0-.207-.079-.207-.246v-1.38c0-.088.06-.157.168-.206.66-.276 1.181-.64 1.556-1.103.078-.098.138-.138.197-.138 0 0 .039 0 .078.01.168.04.424.089.759.167.177.02.443.06.788.119.059.02.098.069.098.147 0 .03 0 .08-.01.138-.049.394-.078 1.36-.078 2.906 0 .512 0 1.29.01 2.334s.01 1.812.01 2.334l-.02.02Z" fill="#E86546"/><path d="M47.797 16.998c0 .09-.039.168-.118.237a.371.371 0 0 1-.246.108h-1.93c-.168 0-.246-.069-.246-.216v-.08c.069-1.713.098-2.757.098-3.121v-2c0-.127-.03-.187-.089-.187-.088 0-.226.03-.403.08a1.79 1.79 0 0 1-.414.078c-.138 0-.207-.079-.207-.246v-1.38c0-.088.06-.157.168-.206.66-.276 1.181-.64 1.556-1.103.078-.098.138-.138.197-.138 0 0 .039 0 .078.01.168.04.424.089.759.167.177.02.443.06.788.119.059.02.098.069.098.147 0 .03 0 .08-.01.138-.049.394-.078 1.36-.078 2.906 0 .512 0 1.29.01 2.334s.01 1.812.01 2.334l-.02.02Z" fill="#00698A"/><path d="m21.443 11.454-.04 1.31c.05.03.286.118.7.285.413.158.62.443.62.847 0 .158-.059.236-.187.236-.118 0-.285-.068-.492-.196a13.48 13.48 0 0 1-.72-.522v4.422c0 .384-.019.689-.048.925-.06.434-.188.64-.365.64-.157 0-.305-.187-.423-.551-.119-.374-.178-.68-.178-.916s.04-.66.129-1.28a5.9 5.9 0 0 0 .068-.788v-2.531a7.737 7.737 0 0 1-.975 1.487c-.433.532-.876.926-1.33 1.192a4.73 4.73 0 0 1-.206.118.493.493 0 0 1-.207.069l-.079-.04s.207-.335.62-.925c.474-.68.877-1.29 1.202-1.832.473-.778.749-1.35.828-1.714-.178 0-.434.07-.768.197-.335.138-.552.197-.67.197-.148 0-.365-.04-.65-.108-.286-.07-.424-.148-.424-.247 0-.039.04-.068.119-.078.078 0 .147-.02.216-.03.433-.05.847-.108 1.241-.197a7.302 7.302 0 0 0 1.143-.345V9.248c0-.217-.05-.424-.138-.64a20.653 20.653 0 0 1-.335-.71c0-.049.03-.088.079-.108.03 0 .059-.01.108-.01.236 0 .542.109.936.335.393.227.59.443.59.66 0 .089-.039.197-.108.335a1.845 1.845 0 0 0-.118.266c-.04.157-.06.384-.079.67-.02.285-.03.531-.03.738.08-.02.197-.059.345-.138a.848.848 0 0 1 .384-.108c.168 0 .345.04.522.138.178.088.266.207.266.364 0 .197-.226.325-.67.374-.305.02-.6.04-.896.05l.02-.01Zm5.308 5.259c-.285.433-.758.886-1.438 1.35-.728.511-1.32.767-1.772.767l-.109-.04s.08-.098.158-.166c.079-.07.138-.119.197-.158.522-.384.965-.768 1.35-1.162.442-.463.797-.946 1.043-1.448-.345-.63-.65-1.123-.906-1.477-.256-.355-.473-.562-.63-.62-.325 1.092-.571 1.841-.739 2.255-.345.837-.768 1.497-1.27 1.97a1.65 1.65 0 0 1-.148.137c-.108.089-.187.138-.236.138l-.04-.05c0-.058.04-.167.109-.305a4.53 4.53 0 0 0 .137-.285c.434-.827.788-1.812 1.074-2.945.286-1.132.433-2.166.433-3.102v-.108c0-.335-.02-.611-.049-.838a1.232 1.232 0 0 0-.266-.6.156.156 0 0 1-.05-.118c0-.138.09-.197.267-.197.098 0 .226.02.384.059.157.04.325.078.492.118.128 0 .453-.06.995-.168.532-.108.955-.206 1.25-.285.208-.079.355-.138.454-.177.197-.07.364-.109.492-.109.158 0 .335.04.512.118.187.08.276.197.276.335 0 .089-.089.158-.256.197a2.33 2.33 0 0 1-.364.05c-.493 0-.956.029-1.38.098-.433.059-.954.167-1.565.305.04.138.069.217.069.246 0 .06-.02.148-.07.257a3.102 3.102 0 0 0-.088.216c-.02.079-.049.335-.108.749a13.2 13.2 0 0 1-.148.994c.325 0 .768-.088 1.33-.256.561-.167.975-.344 1.23-.522a.901.901 0 0 1 .139-.137c.069-.06.128-.099.177-.099.118 0 .354.148.719.453.364.305.542.502.542.61 0 .1-.08.198-.237.306a1.585 1.585 0 0 0-.285.226c-.06.138-.128.296-.197.463-.07.168-.128.325-.197.493-.266.57-.532 1.142-.788 1.713.236.306.541.62.935.936.591.463 1.182.926 1.783 1.379.138.138.197.226.197.285 0 .109-.06.178-.177.197-.119.02-.266.04-.434.04h-.157c-.71 0-1.31-.335-1.822-1.005a43.698 43.698 0 0 1-.788-1.083h-.03Zm-1.999-3.772c-.03.148-.05.295-.069.443.453.177.808.443 1.054.788.246.345.502.7.768 1.054.089-.109.256-.542.512-1.3.247-.759.375-1.212.375-1.35 0-.108-.06-.157-.188-.157-.187 0-.492.108-.925.325-.434.217-.739.325-.936.325a1.23 1.23 0 0 1-.315-.05 2.3 2.3 0 0 1-.276-.088v.01Z" fill="#231815"/><path d="M32.936 11.887v1.192c.394.098.69.207.896.335.335.206.493.453.493.748 0 .187-.07.276-.207.276-.118 0-.266-.079-.453-.227-.424-.344-.69-.532-.808-.551v3.949c0 .571-.049 1.024-.138 1.36-.088.334-.216.501-.384.501-.138 0-.256-.187-.354-.57-.099-.385-.158-.69-.158-.907 0-.197.02-.433.06-.719.088-.65.127-1.054.127-1.23v-2.02c-.167.345-.531.818-1.103 1.428-.62.68-1.083 1.015-1.369 1.015l-.039-.04a2.96 2.96 0 0 1 .296-.482c.196-.266.305-.424.334-.463.434-.61.788-1.143 1.044-1.576.434-.719.7-1.29.778-1.694-.128 0-.256.03-.384.079-.364.147-.561.216-.59.216-.168 0-.464-.128-.887-.374-.236-.138-.345-.236-.345-.305 0-.05.079-.079.237-.079.118 0 .265.01.463.03.187.02.305.03.325.03.226 0 .433-.02.62-.07a4.19 4.19 0 0 0 .68-.226c.039-.315.059-.61.068-.906 0-.286.01-.63.01-1.025v-.551c0-.177-.049-.355-.148-.532a33.248 33.248 0 0 0-.305-.542c0-.039.03-.078.079-.108a.36.36 0 0 1 .148-.03c.236 0 .541.1.916.306.384.197.57.414.57.62a.753.753 0 0 1-.108.345 1.97 1.97 0 0 0-.157.325 3.72 3.72 0 0 0-.118.7c-.02.305-.03.62-.03.935v.197c.266-.108.473-.177.62-.217.148-.04.267-.059.375-.059.138 0 .266.03.414.079.137.05.206.138.206.266 0 .216-.236.374-.709.473-.295.059-.63.088-.985.088l.02.01Zm5.141-1.103h-.384a5.373 5.373 0 0 1-.65.827c-.276.296-.532.522-.788.68l.187.138c.473-.109.808-.197 1.005-.276.197-.079.413-.177.66-.315.177.02.512.167.994.433.483.276.72.453.72.552 0 .078-.05.157-.139.216a2.11 2.11 0 0 0-.187.158 3.449 3.449 0 0 1-.364.453.705.705 0 0 1-.522.217 5.25 5.25 0 0 0-1.576.236.778.778 0 0 1-.108.286c-.05.088-.118.137-.197.137-.246 0-.434-.275-.571-.827-.119-.63-.188-1.014-.217-1.142-.463.266-.7.403-.71.413-.324.168-.57.256-.767.256l-.08-.049a.617.617 0 0 1 .178-.226c.099-.089.168-.148.197-.178.335-.256.62-.502.857-.738a4.76 4.76 0 0 0 .709-.896c-.315.078-.62.157-.926.226-.108 0-.266-.06-.482-.177-.217-.118-.325-.217-.325-.306 0-.039.03-.078.098-.088a.861.861 0 0 1 .236-.03h.335c.227 0 .463-.03.72-.088.255-.06.502-.119.738-.178.04-.118.089-.236.138-.364a.854.854 0 0 0 .069-.266c0-.108-.05-.187-.148-.246l-.65.148a2.15 2.15 0 0 1-.473.039h-.138c-.088 0-.137-.03-.147-.05 0-.019.04-.049.128-.098.088-.04.138-.069.157-.079.63-.275 1.064-.472 1.3-.59.63-.316 1.015-.562 1.143-.749.02-.04.03-.118.04-.256 0-.138.068-.197.176-.197.207 0 .444.108.7.325.266.217.394.424.394.62 0 .109-.266.237-.808.385-.345.098-.69.197-1.034.285.128.079.226.177.305.286a.55.55 0 0 1 .118.325c0 .079-.03.167-.078.266a2.5 2.5 0 0 0 .67-.099c.62-.147.994-.226 1.122-.226.335 0 .61.059.808.187.197.128.305.256.305.394 0 .157-.138.236-.414.236l-1.772-.069-.128.07c.246.245.67.521 1.3.807 1.122.522 1.684.837 1.684.965 0 .079-.08.128-.227.157-.148.02-.276.03-.374.03-.266 0-.483 0-.63-.03a1.03 1.03 0 0 1-.414-.137 6.743 6.743 0 0 1-.955-.818c-.276-.286-.562-.61-.847-.975l.04.01Zm.995 7.14.069-.05c.088 0 .216.04.384.129.167.089.295.128.374.128.236 0 .433-.364.59-1.103a7.232 7.232 0 0 0 .178-1.497c0-.276-.069-.453-.217-.542-.147-.088-.364-.128-.67-.128-.452 0-.974.06-1.555.187-1.37.296-2.216.444-2.56.444.108.384.176.797.206 1.25.03.453.05.956.05 1.517 0 .276-.01.492-.04.66-.03.167-.099.246-.217.246-.098 0-.226-.089-.374-.266-.207-.236-.315-.857-.335-1.871-.02-1.014-.108-1.674-.266-1.99-.03-.039-.05-.059-.05-.078a.26.26 0 0 1-.048-.148l.049-.05c.098 0 .217.04.345.139.138.088.266.167.384.246a314.84 314.84 0 0 0 3.013-.493c.463-.069.926-.137 1.389-.216.06-.02.197-.089.414-.217.216-.128.325-.197.344-.197.099 0 .335.187.72.571.383.384.57.61.57.7 0 .039-.039.108-.108.216a1.057 1.057 0 0 0-.138.286c-.02.088-.04.197-.059.345-.02.137-.03.285-.04.413-.088.68-.216 1.25-.383 1.724-.286.797-.64 1.191-1.074 1.191-.098 0-.167-.03-.197-.088a.94.94 0 0 1-.079-.197 2.585 2.585 0 0 0-.275-.601c-.138-.226-.276-.453-.404-.66h.01Zm.098-.788c.06.05.099.109.099.158 0 .128-.187.216-.552.285-.443.04-.896.07-1.34.109-.058.256-.157.384-.295.384-.275 0-.502-.424-.68-1.26-.098-.464-.186-.74-.255-.838-.07-.069-.109-.138-.109-.187h.09c.107 0 .235.03.373.079s.276.088.394.128c.266-.04.493-.089.68-.118.354-.07.551-.118.6-.148.03-.02.109-.079.237-.177.226-.168.374-.256.453-.256.138 0 .374.177.709.522.177.187.266.315.266.374 0 .04-.03.079-.099.138l-.206.177a.951.951 0 0 0-.207.295c-.03.05-.079.168-.158.335Zm-2.521-4.392c.05.148.099.305.138.453.04.148.079.325.118.532.108-.04.276-.07.502-.089.227-.03.473-.06.73-.098.147-.04.265-.148.364-.335.098-.187.157-.365.157-.532 0-.148-.05-.227-.148-.227-.197 0-.433.03-.699.099-.62.138-1.004.216-1.162.216v-.02Zm1.93 3.348c-.522.089-1.034.178-1.536.256a4 4 0 0 1 .089.414c.039.207.069.384.098.532.227-.04.404-.06.542-.079.138-.02.276-.05.423-.098.07-.168.128-.296.158-.375.118-.256.197-.472.226-.64v-.01Z" fill="#231815"/><path d="m21.443 11.454-.04 1.31c.05.03.286.118.7.285.413.158.62.443.62.847 0 .158-.059.236-.187.236-.118 0-.285-.068-.492-.196a13.48 13.48 0 0 1-.72-.522v4.422c0 .384-.019.689-.048.925-.06.434-.188.64-.365.64-.157 0-.305-.187-.423-.551-.119-.374-.178-.68-.178-.916s.04-.66.129-1.28a5.9 5.9 0 0 0 .068-.788v-2.531a7.737 7.737 0 0 1-.975 1.487c-.433.532-.876.926-1.33 1.192a4.73 4.73 0 0 1-.206.118.493.493 0 0 1-.207.069l-.079-.04s.207-.335.62-.925c.474-.68.877-1.29 1.202-1.832.473-.778.749-1.35.828-1.714-.178 0-.434.07-.768.197-.335.138-.552.197-.67.197-.148 0-.365-.04-.65-.108-.286-.07-.424-.148-.424-.247 0-.039.04-.068.119-.078.078 0 .147-.02.216-.03.433-.05.847-.108 1.241-.197a7.302 7.302 0 0 0 1.143-.345V9.248c0-.217-.05-.424-.138-.64a20.653 20.653 0 0 1-.335-.71c0-.049.03-.088.079-.108.03 0 .059-.01.108-.01.236 0 .542.109.936.335.393.227.59.443.59.66 0 .089-.039.197-.108.335a1.845 1.845 0 0 0-.118.266c-.04.157-.06.384-.079.67-.02.285-.03.531-.03.738.08-.02.197-.059.345-.138a.848.848 0 0 1 .384-.108c.168 0 .345.04.522.138.178.088.266.207.266.364 0 .197-.226.325-.67.374-.305.02-.6.04-.896.05l.02-.01Zm5.308 5.259c-.285.433-.758.886-1.438 1.35-.728.511-1.32.767-1.772.767l-.109-.04s.08-.098.158-.166c.079-.07.138-.119.197-.158.522-.384.965-.768 1.35-1.162.442-.463.797-.946 1.043-1.448-.345-.63-.65-1.123-.906-1.477-.256-.355-.473-.562-.63-.62-.325 1.092-.571 1.841-.739 2.255-.345.837-.768 1.497-1.27 1.97a1.65 1.65 0 0 1-.148.137c-.108.089-.187.138-.236.138l-.04-.05c0-.058.04-.167.109-.305a4.53 4.53 0 0 0 .137-.285c.434-.827.788-1.812 1.074-2.945.286-1.132.433-2.166.433-3.102v-.108c0-.335-.02-.611-.049-.838a1.232 1.232 0 0 0-.266-.6.156.156 0 0 1-.05-.118c0-.138.09-.197.267-.197.098 0 .226.02.384.059.157.04.325.078.492.118.128 0 .453-.06.995-.168.532-.108.955-.206 1.25-.285.208-.079.355-.138.454-.177.197-.07.364-.109.492-.109.158 0 .335.04.512.118.187.08.276.197.276.335 0 .089-.089.158-.256.197a2.31 2.31 0 0 1-.364.05c-.493 0-.956.029-1.38.098-.433.059-.954.167-1.565.305.04.138.069.217.069.246 0 .06-.02.148-.07.257a3.102 3.102 0 0 0-.088.216c-.02.079-.049.335-.108.749a13.2 13.2 0 0 1-.148.994c.325 0 .768-.088 1.33-.256.561-.167.975-.344 1.23-.522a.901.901 0 0 1 .139-.137c.069-.06.128-.099.177-.099.118 0 .354.148.719.453.364.305.542.502.542.61 0 .1-.08.198-.237.306a1.585 1.585 0 0 0-.285.226c-.06.138-.128.296-.197.463-.07.168-.128.325-.197.493-.266.57-.532 1.142-.788 1.713.236.306.541.62.935.936.591.463 1.182.926 1.783 1.379.138.138.197.226.197.285 0 .109-.06.178-.177.197-.119.02-.266.04-.434.04h-.157c-.71 0-1.31-.335-1.822-1.005a43.698 43.698 0 0 1-.788-1.083h-.03Zm-1.999-3.772c-.03.148-.05.295-.069.443.453.177.808.443 1.054.788.246.345.502.7.768 1.054.089-.109.256-.542.512-1.3.247-.759.375-1.212.375-1.35 0-.108-.06-.157-.188-.157-.187 0-.492.108-.925.325-.434.217-.739.325-.936.325a1.23 1.23 0 0 1-.315-.05 2.3 2.3 0 0 1-.276-.088v.01Z" stroke="#231815" stroke-width="2"/><path d="M32.936 11.887v1.192c.394.098.69.207.896.335.335.206.493.453.493.748 0 .187-.07.276-.207.276-.118 0-.266-.079-.453-.227-.424-.344-.69-.532-.808-.551v3.949c0 .571-.049 1.024-.138 1.36-.088.334-.216.501-.384.501-.138 0-.256-.187-.354-.57-.099-.385-.158-.69-.158-.907 0-.197.02-.433.06-.719.088-.65.127-1.054.127-1.23v-2.02c-.167.345-.531.818-1.103 1.428-.62.68-1.083 1.015-1.369 1.015l-.039-.04a2.96 2.96 0 0 1 .296-.482c.196-.266.305-.424.334-.463.434-.61.788-1.143 1.044-1.576.434-.719.7-1.29.778-1.694-.128 0-.256.03-.384.079-.364.147-.561.216-.59.216-.168 0-.464-.128-.887-.374-.236-.138-.345-.236-.345-.305 0-.05.079-.079.237-.079.118 0 .265.01.463.03.187.02.305.03.325.03.226 0 .433-.02.62-.07a4.19 4.19 0 0 0 .68-.226c.039-.315.059-.61.068-.906 0-.286.01-.63.01-1.025v-.551c0-.177-.049-.355-.148-.532a33.248 33.248 0 0 0-.305-.542c0-.039.03-.078.079-.108a.36.36 0 0 1 .148-.03c.236 0 .541.1.916.306.384.197.57.414.57.62a.753.753 0 0 1-.108.345 1.97 1.97 0 0 0-.157.325 3.72 3.72 0 0 0-.118.7c-.02.305-.03.62-.03.935v.197c.266-.108.473-.177.62-.217.148-.04.267-.059.375-.059.138 0 .266.03.414.079.137.05.206.138.206.266 0 .216-.236.374-.709.473-.295.059-.63.088-.985.088l.02.01Zm5.141-1.103h-.384a5.373 5.373 0 0 1-.65.827c-.276.296-.532.522-.788.68l.187.138c.473-.109.808-.197 1.005-.276.197-.079.413-.177.66-.315.177.02.512.167.994.433.483.276.72.453.72.552 0 .078-.05.157-.139.216a2.11 2.11 0 0 0-.187.158 3.449 3.449 0 0 1-.364.453.705.705 0 0 1-.522.217 5.25 5.25 0 0 0-1.576.236.778.778 0 0 1-.108.286c-.05.088-.118.137-.197.137-.246 0-.434-.275-.571-.827-.119-.63-.188-1.014-.217-1.142-.463.266-.7.403-.71.413-.324.168-.57.256-.767.256l-.08-.049a.617.617 0 0 1 .178-.226c.099-.089.168-.148.197-.178.335-.256.62-.502.857-.738a4.76 4.76 0 0 0 .709-.896c-.315.078-.62.157-.926.226-.108 0-.266-.06-.482-.177-.217-.118-.325-.217-.325-.306 0-.039.03-.078.098-.088a.861.861 0 0 1 .236-.03h.335c.227 0 .463-.03.72-.088.255-.06.502-.119.738-.178.04-.118.089-.236.138-.364a.854.854 0 0 0 .069-.266c0-.108-.05-.187-.148-.246l-.65.148a2.15 2.15 0 0 1-.473.039h-.138c-.088 0-.137-.03-.147-.05 0-.019.04-.049.128-.098.088-.04.138-.069.157-.079.63-.275 1.064-.472 1.3-.59.63-.316 1.015-.562 1.143-.749.02-.04.03-.118.04-.256 0-.138.068-.197.176-.197.207 0 .444.108.7.325.266.217.394.424.394.62 0 .109-.266.237-.808.385-.345.098-.69.197-1.034.285.128.079.226.177.305.286a.55.55 0 0 1 .118.325c0 .079-.03.167-.078.266a2.5 2.5 0 0 0 .67-.099c.62-.147.994-.226 1.122-.226.335 0 .61.059.808.187.197.128.305.256.305.394 0 .157-.138.236-.414.236l-1.772-.069-.128.07c.246.245.67.521 1.3.807 1.122.522 1.684.837 1.684.965 0 .079-.08.128-.227.157-.148.02-.276.03-.374.03-.266 0-.483 0-.63-.03a1.03 1.03 0 0 1-.414-.137 6.743 6.743 0 0 1-.955-.818c-.276-.286-.562-.61-.847-.975l.04.01Zm.995 7.14.069-.05c.088 0 .216.04.384.129.167.089.295.128.374.128.236 0 .433-.364.59-1.103a7.232 7.232 0 0 0 .178-1.497c0-.276-.069-.453-.217-.542-.147-.088-.364-.128-.67-.128-.452 0-.974.06-1.555.187-1.37.296-2.216.444-2.56.444.108.384.176.797.206 1.25.03.453.05.956.05 1.517 0 .276-.01.492-.04.66-.03.167-.099.246-.217.246-.098 0-.226-.089-.374-.266-.207-.236-.315-.857-.335-1.871-.02-1.014-.108-1.674-.266-1.99-.03-.039-.05-.059-.05-.078a.26.26 0 0 1-.048-.148l.049-.05c.098 0 .217.04.345.139.138.088.266.167.384.246a314.84 314.84 0 0 0 3.013-.493c.463-.069.926-.137 1.389-.216.06-.02.197-.089.414-.217.216-.128.325-.197.344-.197.099 0 .335.187.72.571.383.384.57.61.57.7 0 .039-.039.108-.108.216a1.057 1.057 0 0 0-.138.286c-.02.088-.04.197-.059.345-.02.137-.03.285-.04.413-.088.68-.216 1.25-.383 1.724-.286.797-.64 1.191-1.074 1.191-.098 0-.167-.03-.197-.088a.94.94 0 0 1-.079-.197 2.585 2.585 0 0 0-.275-.601c-.138-.226-.276-.453-.404-.66h.01Zm.098-.788c.06.05.099.109.099.158 0 .128-.187.216-.552.285-.443.04-.896.07-1.34.109-.058.256-.157.384-.295.384-.275 0-.502-.424-.68-1.26-.098-.464-.186-.74-.255-.838-.07-.069-.109-.138-.109-.187h.09c.107 0 .235.03.373.079s.276.088.394.128c.266-.04.493-.089.68-.118.354-.07.551-.118.6-.148.03-.02.109-.079.237-.177.226-.168.374-.256.453-.256.138 0 .374.177.709.522.177.187.266.315.266.374 0 .04-.03.079-.099.138l-.206.177a.951.951 0 0 0-.207.295c-.03.05-.079.168-.158.335Zm-2.521-4.392c.05.148.099.305.138.453.04.148.079.325.118.532.108-.04.276-.07.502-.089.227-.03.473-.06.73-.098.147-.04.265-.148.364-.335.098-.187.157-.365.157-.532 0-.148-.05-.227-.148-.227-.197 0-.433.03-.699.099-.62.138-1.004.216-1.162.216v-.02Zm1.93 3.348c-.522.089-1.034.178-1.536.256a4 4 0 0 1 .089.414c.039.207.069.384.098.532.227-.04.404-.06.542-.079.138-.02.276-.05.423-.098.07-.168.128-.296.158-.375.118-.256.197-.472.226-.64v-.01Z" stroke="#231815" stroke-width="2"/><path d="m21.443 11.454-.04 1.31c.05.03.286.118.7.285.413.158.62.443.62.847 0 .158-.059.236-.187.236-.118 0-.285-.068-.492-.196a13.48 13.48 0 0 1-.72-.522v4.422c0 .384-.019.689-.048.925-.06.434-.188.64-.365.64-.157 0-.305-.187-.423-.551-.119-.374-.178-.68-.178-.916s.04-.66.129-1.28a5.9 5.9 0 0 0 .068-.788v-2.531a7.737 7.737 0 0 1-.975 1.487c-.433.532-.876.926-1.33 1.192a4.73 4.73 0 0 1-.206.118.493.493 0 0 1-.207.069l-.079-.04s.207-.335.62-.925c.474-.68.877-1.29 1.202-1.832.473-.778.749-1.35.828-1.714-.178 0-.434.07-.768.197-.335.138-.552.197-.67.197-.148 0-.365-.04-.65-.108-.286-.07-.424-.148-.424-.247 0-.039.04-.068.119-.078.078 0 .147-.02.216-.03.433-.05.847-.108 1.241-.197a7.302 7.302 0 0 0 1.143-.345V9.248c0-.217-.05-.424-.138-.64a20.653 20.653 0 0 1-.335-.71c0-.049.03-.088.079-.108.03 0 .059-.01.108-.01.236 0 .542.109.936.335.393.227.59.443.59.66 0 .089-.039.197-.108.335a1.845 1.845 0 0 0-.118.266c-.04.157-.06.384-.079.67-.02.285-.03.531-.03.738.08-.02.197-.059.345-.138a.848.848 0 0 1 .384-.108c.168 0 .345.04.522.138.178.088.266.207.266.364 0 .197-.226.325-.67.374-.305.02-.6.04-.896.05l.02-.01Zm5.308 5.259c-.285.433-.758.886-1.438 1.35-.728.511-1.32.767-1.772.767l-.109-.04s.08-.098.158-.166c.079-.07.138-.119.197-.158.522-.384.965-.768 1.35-1.162.442-.463.797-.946 1.043-1.448-.345-.63-.65-1.123-.906-1.477-.256-.355-.473-.562-.63-.62-.325 1.092-.571 1.841-.739 2.255-.345.837-.768 1.497-1.27 1.97a1.65 1.65 0 0 1-.148.137c-.108.089-.187.138-.236.138l-.04-.05c0-.058.04-.167.109-.305a4.53 4.53 0 0 0 .137-.285c.434-.827.788-1.812 1.074-2.945.286-1.132.433-2.166.433-3.102v-.108c0-.335-.02-.611-.049-.838a1.232 1.232 0 0 0-.266-.6.156.156 0 0 1-.05-.118c0-.138.09-.197.267-.197.098 0 .226.02.384.059.157.04.325.078.492.118.128 0 .453-.06.995-.168.532-.108.955-.206 1.25-.285.208-.079.355-.138.454-.177.197-.07.364-.109.492-.109.158 0 .335.04.512.118.187.08.276.197.276.335 0 .089-.089.158-.256.197a2.33 2.33 0 0 1-.364.05c-.493 0-.956.029-1.38.098-.433.059-.954.167-1.565.305.04.138.069.217.069.246 0 .06-.02.148-.07.257a3.102 3.102 0 0 0-.088.216c-.02.079-.049.335-.108.749a13.2 13.2 0 0 1-.148.994c.325 0 .768-.088 1.33-.256.561-.167.975-.344 1.23-.522a.901.901 0 0 1 .139-.137c.069-.06.128-.099.177-.099.118 0 .354.148.719.453.364.305.542.502.542.61 0 .1-.08.198-.237.306a1.585 1.585 0 0 0-.285.226c-.06.138-.128.296-.197.463-.07.168-.128.325-.197.493-.266.57-.532 1.142-.788 1.713.236.306.541.62.935.936.591.463 1.182.926 1.783 1.379.138.138.197.226.197.285 0 .109-.06.178-.177.197-.119.02-.266.04-.434.04h-.157c-.71 0-1.31-.335-1.822-1.005a43.698 43.698 0 0 1-.788-1.083h-.03Zm-1.999-3.772c-.03.148-.05.295-.069.443.453.177.808.443 1.054.788.246.345.502.7.768 1.054.089-.109.256-.542.512-1.3.247-.759.375-1.212.375-1.35 0-.108-.06-.157-.188-.157-.187 0-.492.108-.925.325-.434.217-.739.325-.936.325a1.23 1.23 0 0 1-.315-.05 2.3 2.3 0 0 1-.276-.088v.01Z" fill="#E68169"/><path d="M32.936 11.887v1.192c.394.098.69.207.896.335.335.206.493.453.493.748 0 .187-.07.276-.207.276-.118 0-.266-.079-.453-.227-.424-.344-.69-.532-.808-.551v3.949c0 .571-.049 1.024-.138 1.36-.088.334-.216.501-.384.501-.138 0-.256-.187-.354-.57-.099-.385-.158-.69-.158-.907 0-.197.02-.433.06-.719.088-.65.127-1.054.127-1.23v-2.02c-.167.345-.531.818-1.103 1.428-.62.68-1.083 1.015-1.369 1.015l-.039-.04a2.96 2.96 0 0 1 .296-.482c.196-.266.305-.424.334-.463.434-.61.788-1.143 1.044-1.576.434-.719.7-1.29.778-1.694-.128 0-.256.03-.384.079-.364.147-.561.216-.59.216-.168 0-.464-.128-.887-.374-.236-.138-.345-.236-.345-.305 0-.05.079-.079.237-.079.118 0 .265.01.463.03.187.02.305.03.325.03.226 0 .433-.02.62-.07a4.19 4.19 0 0 0 .68-.226c.039-.315.059-.61.068-.906 0-.286.01-.63.01-1.025v-.551c0-.177-.049-.355-.148-.532a33.248 33.248 0 0 0-.305-.542c0-.039.03-.078.079-.108a.36.36 0 0 1 .148-.03c.236 0 .541.1.916.306.384.197.57.414.57.62a.753.753 0 0 1-.108.345 1.97 1.97 0 0 0-.157.325 3.72 3.72 0 0 0-.118.7c-.02.305-.03.62-.03.935v.197c.266-.108.473-.177.62-.217.148-.04.267-.059.375-.059.138 0 .266.03.414.079.137.05.206.138.206.266 0 .216-.236.374-.709.473-.295.059-.63.088-.985.088l.02.01Zm5.141-1.103h-.384a5.373 5.373 0 0 1-.65.827c-.276.296-.532.522-.788.68l.187.138c.473-.109.808-.197 1.005-.276.197-.079.413-.177.66-.315.177.02.512.167.994.433.483.276.72.453.72.552 0 .078-.05.157-.139.216a2.11 2.11 0 0 0-.187.158 3.449 3.449 0 0 1-.364.453.705.705 0 0 1-.522.217 5.25 5.25 0 0 0-1.576.236.778.778 0 0 1-.108.286c-.05.088-.118.137-.197.137-.246 0-.434-.275-.571-.827-.119-.63-.188-1.014-.217-1.142-.463.266-.7.403-.71.413-.324.168-.57.256-.767.256l-.08-.049a.617.617 0 0 1 .178-.226c.099-.089.168-.148.197-.178.335-.256.62-.502.857-.738a4.76 4.76 0 0 0 .709-.896c-.315.078-.62.157-.926.226-.108 0-.266-.06-.482-.177-.217-.118-.325-.217-.325-.306 0-.039.03-.078.098-.088a.861.861 0 0 1 .236-.03h.335c.227 0 .463-.03.72-.088.255-.06.502-.119.738-.178.04-.118.089-.236.138-.364a.854.854 0 0 0 .069-.266c0-.108-.05-.187-.148-.246l-.65.148a2.15 2.15 0 0 1-.473.039h-.138c-.088 0-.137-.03-.147-.05 0-.019.04-.049.128-.098.088-.04.138-.069.157-.079.63-.275 1.064-.472 1.3-.59.63-.316 1.015-.562 1.143-.749.02-.04.03-.118.04-.256 0-.138.068-.197.176-.197.207 0 .444.108.7.325.266.217.394.424.394.62 0 .109-.266.237-.808.385-.345.098-.69.197-1.034.285.128.079.226.177.305.286a.55.55 0 0 1 .118.325c0 .079-.03.167-.078.266a2.5 2.5 0 0 0 .67-.099c.62-.147.994-.226 1.122-.226.335 0 .61.059.808.187.197.128.305.256.305.394 0 .157-.138.236-.414.236l-1.772-.069-.128.07c.246.245.67.521 1.3.807 1.122.522 1.684.837 1.684.965 0 .079-.08.128-.227.157-.148.02-.276.03-.374.03-.266 0-.483 0-.63-.03a1.03 1.03 0 0 1-.414-.137 6.743 6.743 0 0 1-.955-.818c-.276-.286-.562-.61-.847-.975l.04.01Zm.995 7.14.069-.05c.088 0 .216.04.384.129.167.089.295.128.374.128.236 0 .433-.364.59-1.103a7.232 7.232 0 0 0 .178-1.497c0-.276-.069-.453-.217-.542-.147-.088-.364-.128-.67-.128-.452 0-.974.06-1.555.187-1.37.296-2.216.444-2.56.444.108.384.176.797.206 1.25.03.453.05.956.05 1.517 0 .276-.01.492-.04.66-.03.167-.099.246-.217.246-.098 0-.226-.089-.374-.266-.207-.236-.315-.857-.335-1.871-.02-1.014-.108-1.674-.266-1.99-.03-.039-.05-.059-.05-.078a.26.26 0 0 1-.048-.148l.049-.05c.098 0 .217.04.345.139.138.088.266.167.384.246a314.84 314.84 0 0 0 3.013-.493c.463-.069.926-.137 1.389-.216.06-.02.197-.089.414-.217.216-.128.325-.197.344-.197.099 0 .335.187.72.571.383.384.57.61.57.7 0 .039-.039.108-.108.216a1.057 1.057 0 0 0-.138.286c-.02.088-.04.197-.059.345-.02.137-.03.285-.04.413-.088.68-.216 1.25-.383 1.724-.286.797-.64 1.191-1.074 1.191-.098 0-.167-.03-.197-.088a.94.94 0 0 1-.079-.197 2.585 2.585 0 0 0-.275-.601c-.138-.226-.276-.453-.404-.66h.01Zm.098-.788c.06.05.099.109.099.158 0 .128-.187.216-.552.285-.443.04-.896.07-1.34.109-.058.256-.157.384-.295.384-.275 0-.502-.424-.68-1.26-.098-.464-.186-.74-.255-.838-.07-.069-.109-.138-.109-.187h.09c.107 0 .235.03.373.079s.276.088.394.128c.266-.04.493-.089.68-.118.354-.07.551-.118.6-.148.03-.02.109-.079.237-.177.226-.168.374-.256.453-.256.138 0 .374.177.709.522.177.187.266.315.266.374 0 .04-.03.079-.099.138l-.206.177a.951.951 0 0 0-.207.295c-.03.05-.079.168-.158.335Zm-2.521-4.392c.05.148.099.305.138.453.04.148.079.325.118.532.108-.04.276-.07.502-.089.227-.03.473-.06.73-.098.147-.04.265-.148.364-.335.098-.187.157-.365.157-.532 0-.148-.05-.227-.148-.227-.197 0-.433.03-.699.099-.62.138-1.004.216-1.162.216v-.02Zm1.93 3.348c-.522.089-1.034.178-1.536.256a4 4 0 0 1 .089.414c.039.207.069.384.098.532.227-.04.404-.06.542-.079.138-.02.276-.05.423-.098.07-.168.128-.296.158-.375.118-.256.197-.472.226-.64v-.01Z" fill="#E68169"/><path d="M23.718 42.457c.896-.04 1.615-.07 2.334-.099.404-.433.581-.935.768-1.428.424-1.142.848-2.275 1.222-3.437.699-2.108 1.802-3.95 3.28-5.623 1.762-1.98 3.86-3.546 5.918-5.161.69-.542 1.409-1.044 2.098-1.576.483-.364.995-.561 1.615-.561 2.334.01 4.668 0 7.012-.01.187 0 .374.069.542.098.01.099.04.158.02.198-.985 1.88-.759 3.86-.513 5.84.128 1.014.306 2.009.414 3.023.108 1.024-.394 1.684-1.408 1.871-.325.06-.68.02-1.015-.02-.817-.098-1.625-.226-2.393-.334-.788.443-1.073 1.201-1.517 1.822-.423.59-.807 1.211-1.21 1.812-.355.541-.789.995-1.38 1.27-.719.335-.955.926-.965 1.655v2.186c.01 1.221-.404 1.428-1.526 1.3a.921.921 0 0 1-.286-.059c-1.566-.719-3.25-.463-4.895-.532-1.043-.049-1.821.394-2.452 1.28-1.073 1.517-1.841 3.201-2.767 4.797-.414.709-.828 1.438-1.3 2.098-.503.689-1.054.827-1.763.433-1.172-.67-1.96-1.684-1.871-3.063.069-1.162.236-2.314.246-3.486 0-.355.187-.788.423-1.054.818-.887 1.32-1.9 1.38-3.26l-.01.02Z" fill="#368AA5" stroke="#231815" stroke-linecap="round" stroke-linejoin="round"/></g><defs><clipPath id="clip0_1119_33472"><path fill="#fff" transform="translate(.289)" d="M0 0h53.763v65H0z"/></clipPath></defs></svg>