<svg fill="none" xmlns="http://www.w3.org/2000/svg" viewBox="0 0 55 65"><g clip-path="url(#clip0_1261_13420)"><path d="M49.319 61.327 21.559 59.8c-3.26-.177-5.95-3.309-6.01-6.992l-.78-45.973c-.05-3.132 1.81-5.643 4.36-6.224L5.149 3.79c-2.55.582-4.41 3.093-4.36 6.225l.78 45.973c.06 3.683 2.75 6.815 6.01 6.992l27.76 1.527c.49.03.97-.02 1.42-.118l13.97-3.172c-.45.099-.93.148-1.42.119l.01-.01Z" fill="#368AA5" stroke="#231815" stroke-miterlimit="10"/><path d="M47.589 2.019c3.26.177 5.95 3.309 6.01 6.992l.78 45.973c.06 3.683-2.53 6.52-5.79 6.342L20.829 59.8c-3.26-.177-5.95-3.31-6.01-6.993l-.78-45.972c-.06-3.684 2.53-6.52 5.79-6.343l27.76 1.527Z" fill="#fff" stroke="#231815" stroke-linecap="round" stroke-linejoin="round"/><path d="m48.569 61.376-27.76-1.527c-3.26-.177-5.94-3.309-6-6.992l-.68-45.993c-.02-1.575.44-2.993 1.22-4.087.79-1.093 1.9-1.87 3.19-2.147l-6.99 1.527c-2.58.561-4.46 3.092-4.42 6.234l.68 45.992c.05 3.684 2.74 6.816 6 6.993l27.76 1.526c.48.03.94-.01 1.38-.108l6.99-1.526c-.44.098-.91.137-1.38.108h.01Z" fill="#fff" stroke="#231815" stroke-linecap="round" stroke-linejoin="round"/><path d="M47.698 2.039c3.26.177 5.94 3.309 6 6.992l.68 45.992c.05 3.684-2.54 6.52-5.8 6.343l-27.76-1.527c-3.26-.177-5.94-3.309-6-6.992l-.68-45.992c-.05-3.684 2.54-6.53 5.8-6.343l27.76 1.527Z" fill="#fff" stroke="#231815" stroke-linecap="round" stroke-linejoin="round"/><path d="M38.429 49.469a.485.485 0 0 1-.43-.246l-12.7-21.972a.5.5 0 0 1-.04-.414.502.502 0 0 1 .29-.296l14.1-5.367a.539.539 0 0 1 .42.03c.13.069.22.187.25.325l5.62 24.67a.504.504 0 0 1-.31.571l-7.02 2.68a.594.594 0 0 1-.18.029v-.01Z" fill="#E86546"/><path d="m39.839 21.627 5.62 24.67-7.02 2.68-12.7-21.972 14.1-5.368m0-.985c-.12 0-.24.02-.36.07l-14.1 5.367a.977.977 0 0 0-.58.59c-.1.276-.07.572.07.818l12.7 21.972c.18.315.52.502.87.502.12 0 .24-.02.36-.069l7.02-2.678c.46-.178.72-.66.62-1.133l-5.62-24.67a.977.977 0 0 0-.5-.65 1.007 1.007 0 0 0-.47-.119h-.01Z" fill="#231815"/><path d="M37.979 40.714c-1.32 0-2.54-.818-3.01-2.03l-2.03-5.17a3.114 3.114 0 0 1 .06-2.432 3.16 3.16 0 0 1 1.79-1.674c.37-.138.76-.217 1.16-.217 1.33 0 2.54.817 3.01 2.029l2.03 5.17c.64 1.635-.19 3.477-1.85 4.107-.37.138-.76.217-1.16.217Z" fill="#E2CCAF"/><path d="M35.949 29.683c1.09 0 2.13.65 2.55 1.714l2.03 5.17c.54 1.379-.16 2.935-1.56 3.477-.32.118-.65.177-.98.177-1.09 0-2.13-.65-2.55-1.714l-2.03-5.17c-.54-1.379.16-2.935 1.56-3.477.32-.118.65-.177.98-.177Zm0-.985c-.46 0-.91.079-1.34.247-1.92.728-2.87 2.855-2.13 4.746l2.03 5.17c.55 1.41 1.95 2.345 3.48 2.345.46 0 .91-.079 1.34-.246 1.92-.73 2.87-2.857 2.13-4.747l-2.03-5.17c-.55-1.41-1.95-2.345-3.48-2.345Z" fill="#231815"/><path d="M26.698 9.12c-2.08.856-3.23 3.328-3.24 6.352-2.27 2.048-3.34 4.54-2.59 6.638-1.96-5.17.63-10.942 5.83-12.99Zm13.401 5.653c-.87-2.049-3.38-3.181-6.45-3.191-2.08-2.236-4.61-3.29-6.74-2.551 5.25-1.93 11.11.62 13.19 5.742Zm.089.217c1.96 5.17-.63 10.94-5.83 12.99 2.08-.857 3.23-3.33 3.24-6.353 2.27-2.048 3.34-4.54 2.59-6.638Zm-6.059 13.069c-5.25 1.93-11.11-.62-13.19-5.742.87 2.048 3.38 3.181 6.45 3.19 2.08 2.236 4.61 3.29 6.74 2.552Z" fill="#D0B59F" stroke="#231815" stroke-linecap="round" stroke-linejoin="round"/><path d="M29.279 21.312c-1.47.483-2.86.857-4.05 1.103-.26-.502-.5-1.024-.72-1.575-.22-.552-.4-1.094-.54-1.635a35.54 35.54 0 0 1 3.75-1.871c.22.65.47 1.329.74 2.009.27.68.55 1.349.83 1.98l-.01-.01ZM26.799 9.07c-.66.256-.69 1.901-.2 4.255-1.2.61-2.27 1.34-3.15 2.137.01-3.024 1.16-5.486 3.24-6.352.04-.01.07-.03.11-.04Z" fill="#E2CCAF" stroke="#231815" stroke-linecap="round" stroke-linejoin="round"/><path d="M33.648 11.582c-1.2 0-2.48.158-3.79.502-1.25-2.068-2.4-3.27-3.06-3.013.04-.01.07-.03.11-.04 2.13-.738 4.66.315 6.74 2.551Zm3.941 10.045c-.01 3.024-1.16 5.496-3.24 6.353-.04.01-.07.03-.11.04.66-.257.69-1.902.2-4.255 1.2-.611 2.27-1.34 3.15-2.138Zm-3.35 6.392s-.07.03-.11.04c-2.13.738-4.66-.316-6.74-2.551 1.2 0 2.48-.158 3.79-.503 1.25 2.069 2.4 3.27 3.06 3.014Zm-5.79-8.686c.27.68.55 1.349.83 1.98-1.47.482-2.86.856-4.05 1.102-.26-.502-.5-1.024-.72-1.575-.22-.552-.4-1.094-.54-1.635a35.54 35.54 0 0 1 3.75-1.871c.22.65.47 1.329.74 2.009l-.01-.01Z" fill="#E2CCAF" stroke="#231815" stroke-linecap="round" stroke-linejoin="round"/><path d="M29.859 12.094c-.55.148-1.11.325-1.66.532-.55.207-1.09.443-1.6.709-.49-2.354-.46-4.008.2-4.255.66-.246 1.81.946 3.06 3.014Zm4.59 11.67c.49 2.364.46 4.009-.2 4.255-.66.246-1.81-.946-3.06-3.014.55-.148 1.11-.325 1.66-.532.55-.207 1.09-.443 1.6-.709Z" fill="#D0B59F" stroke="#231815" stroke-linecap="round" stroke-linejoin="round"/><path d="M26.599 13.335c.25 1.182.62 2.541 1.11 3.989-1.42.62-2.7 1.26-3.75 1.87-.35-1.29-.52-2.55-.51-3.732a14.25 14.25 0 0 1 3.15-2.137v.01Z" fill="#D0B59F" stroke="#231815" stroke-linecap="round" stroke-linejoin="round"/><path d="M23.448 15.472c0 1.182.16 2.443.51 3.733-2.1 1.23-3.32 2.363-3.06 3.013-.01-.039-.03-.069-.04-.108-.75-2.098.33-4.59 2.59-6.638Zm8.32.315a52.399 52.399 0 0 0-4.05 1.547c-.49-1.448-.87-2.807-1.11-3.99.51-.255 1.04-.492 1.6-.708.56-.217 1.11-.394 1.66-.532.62 1.034 1.27 2.295 1.9 3.693v-.01Z" fill="#E2CCAF" stroke="#231815" stroke-linecap="round" stroke-linejoin="round"/><path d="M35.819 14.684c-1.2.246-2.58.61-4.05 1.103-.63-1.398-1.28-2.659-1.9-3.693 1.31-.345 2.59-.512 3.79-.502.81.866 1.55 1.91 2.17 3.102l-.01-.01Z" fill="#D0B59F" stroke="#231815" stroke-linecap="round" stroke-linejoin="round"/><path d="M40.138 14.881c-.26-.65-1.93-.68-4.32-.197-.62-1.181-1.36-2.235-2.17-3.102 3.07.01 5.58 1.143 6.45 3.19.01.04.03.07.04.11Z" fill="#E2CCAF" stroke="#231815" stroke-linecap="round" stroke-linejoin="round"/><path d="M40.139 14.88s.03.07.04.11c.75 2.097-.32 4.589-2.59 6.637 0-1.182-.16-2.442-.51-3.732 2.1-1.232 3.32-2.364 3.06-3.014Z" fill="#E2CCAF" stroke="#231815" stroke-linecap="round" stroke-linejoin="round"/><path d="M37.078 17.895c.35 1.29.52 2.55.51 3.732a14.25 14.25 0 0 1-3.15 2.137c-.25-1.182-.62-2.54-1.12-3.988 1.42-.62 2.7-1.261 3.75-1.872l.01-.01Z" fill="#D0B59F" stroke="#231815" stroke-linecap="round" stroke-linejoin="round"/><path d="M33.329 19.766c.49 1.447.87 2.816 1.12 3.988-.51.256-1.04.493-1.6.71-.56.216-1.11.393-1.66.531a34.406 34.406 0 0 1-1.9-3.693c.66-.217 1.35-.463 2.04-.729.69-.266 1.37-.541 2.01-.817l-.01.01Z" fill="#E2CCAF" stroke="#231815" stroke-linecap="round" stroke-linejoin="round"/><path d="M31.179 25.005c-1.31.345-2.59.512-3.79.503a14.02 14.02 0 0 1-2.17-3.103c1.2-.246 2.58-.61 4.05-1.103.63 1.399 1.28 2.66 1.9 3.693l.01.01Z" fill="#D0B59F" stroke="#231815" stroke-linecap="round" stroke-linejoin="round"/><path d="M27.399 25.508c-3.07-.01-5.58-1.143-6.45-3.191-.01-.04-.03-.07-.04-.108.26.65 1.93.679 4.32.197.62 1.181 1.36 2.235 2.17 3.102Z" fill="#E2CCAF" stroke="#231815" stroke-linecap="round" stroke-linejoin="round"/><path d="M29.279 21.312c-1.47.483-2.86.857-4.05 1.103-.26-.502-.5-1.024-.72-1.575-.22-.552-.4-1.094-.54-1.635a35.54 35.54 0 0 1 3.75-1.871c.22.65.47 1.329.74 2.009.27.68.55 1.349.83 1.98l-.01-.01Z" fill="#E2CCAF" stroke="#231815" stroke-linecap="round" stroke-linejoin="round"/><path d="M24.508 20.84c.22.551.45 1.073.72 1.575-2.39.483-4.07.453-4.32-.197s.96-1.782 3.06-3.013c.15.541.33 1.093.54 1.634Zm8.081-3.083c.27.68.51 1.359.74 2.009a49.529 49.529 0 0 1-4.05 1.546 47.877 47.877 0 0 1-1.57-3.988 49.383 49.383 0 0 1 4.05-1.547c.28.63.56 1.29.83 1.98Z" fill="#D0B59F" stroke="#231815" stroke-linecap="round" stroke-linejoin="round"/><path d="M28.449 19.333c.27.68.55 1.349.83 1.98-1.47.482-2.86.856-4.05 1.102-.26-.502-.5-1.024-.72-1.575-.22-.552-.4-1.094-.54-1.635a35.54 35.54 0 0 1 3.75-1.871c.22.65.47 1.329.74 2.009l-.01-.01Z" fill="#E2CCAF" stroke="#231815" stroke-linecap="round" stroke-linejoin="round"/><path d="M40.138 14.881c.26.65-.96 1.783-3.06 3.014-.15-.542-.33-1.094-.54-1.635-.21-.542-.45-1.074-.72-1.576 2.4-.483 4.07-.453 4.32.197Z" fill="#D0B59F" stroke="#231815" stroke-linecap="round" stroke-linejoin="round"/><path d="M36.539 16.26c.22.551.4 1.093.54 1.635a35.54 35.54 0 0 1-3.75 1.871c-.22-.65-.47-1.33-.74-2.01a55.24 55.24 0 0 0-.83-1.979c1.47-.482 2.86-.856 4.05-1.103.26.503.5 1.025.72 1.576l.01.01Z" fill="#E2CCAF" stroke="#231815" stroke-linecap="round" stroke-linejoin="round"/><path d="m38.435 48.977 7.024-2.674 1.377 3.509a1.84 1.84 0 0 1-1.075 2.395l-3.516 1.339a1.887 1.887 0 0 1-2.432-1.06l-1.378-3.508Zm-3.103-18.202-.009.004a1.686 1.686 0 0 0-.984 2.19l2.03 5.172a1.728 1.728 0 0 0 2.225.97l.01-.004a1.686 1.686 0 0 0 .983-2.191l-2.03-5.172a1.728 1.728 0 0 0-2.225-.969Z" fill="#00698A" stroke="#231815" stroke-linecap="round" stroke-linejoin="round"/><path d="M36.469 34.913c-.5 0-.96-.305-1.14-.768a1.19 1.19 0 0 1 .02-.926c.13-.296.37-.522.68-.64.14-.05.29-.079.44-.079.5 0 .96.305 1.14.768.24.62-.07 1.32-.7 1.556-.14.05-.29.079-.44.079v.01Z" fill="#E2CCAF"/><path d="M36.469 32.993c.3 0 .57.187.67.453a.72.72 0 0 1-.67.975c-.3 0-.57-.187-.68-.453a.72.72 0 0 1 .67-.975m0-.985c-.21 0-.42.04-.62.118a1.691 1.691 0 0 0-.99 2.196 1.727 1.727 0 0 0 2.23.965c.89-.334 1.33-1.32.99-2.196a1.727 1.727 0 0 0-1.61-1.083Z" fill="#231815"/></g><defs><clipPath id="clip0_1261_13420"><path fill="#fff" transform="translate(.289)" d="M0 0h54.59v65H0z"/></clipPath></defs></svg>