<svg fill="none" xmlns="http://www.w3.org/2000/svg" viewBox="0 0 54 65"><g clip-path="url(#clip0_1119_33346)"><path d="M48.339 61.327 20.999 59.8c-3.21-.177-5.86-3.309-5.919-6.992l-.768-45.973c-.05-3.132 1.783-5.643 4.294-6.224L4.838 3.79C2.327 4.374.495 6.885.544 10.017l.768 45.973c.06 3.683 2.708 6.815 5.92 6.992l27.338 1.527c.483.03.956-.02 1.399-.118l13.758-3.172a5.04 5.04 0 0 1-1.398.119l.01-.01Z" fill="#E68169" stroke="#231815" stroke-miterlimit="10"/><path d="M46.635 2.019c3.21.177 5.86 3.309 5.919 6.992l.768 45.973c.06 3.683-2.492 6.52-5.702 6.342L20.28 59.8c-3.21-.177-5.86-3.31-5.919-6.993l-.768-45.972C13.534 3.15 16.085.315 19.296.492L46.635 2.02Z" fill="#fff" stroke="#231815" stroke-linecap="round" stroke-linejoin="round"/><path d="m47.6 61.376-27.34-1.527c-3.21-.177-5.85-3.309-5.908-6.992l-.67-45.993c-.02-1.575.434-2.993 1.202-4.087.778-1.093 1.87-1.87 3.141-2.147l-6.884 1.527c-2.54.561-4.392 3.092-4.353 6.234l.67 45.992c.05 3.684 2.698 6.816 5.909 6.993l27.34 1.526c.472.03.925-.01 1.358-.108l6.885-1.526a4.789 4.789 0 0 1-1.36.108h.01Z" fill="#fff" stroke="#231815" stroke-linecap="round" stroke-linejoin="round"/><path d="M46.744 2.039c3.21.177 5.85 3.309 5.909 6.992l.67 45.992c.049 3.684-2.502 6.52-5.713 6.343l-27.34-1.527c-3.21-.177-5.85-3.309-5.908-6.992l-.67-45.992c-.05-3.684 2.502-6.53 5.712-6.343l27.34 1.527Z" fill="#fff" stroke="#231815" stroke-linecap="round" stroke-linejoin="round"/><path d="M24.91 13.158c.276.147.444.285.523.443.079.157.118.384.118.699.108-.02.256-.089.433-.197a.989.989 0 0 1 .552-.177c.266 0 .473.03.6.098.129.06.198.148.198.266 0 .118-.256.246-.779.404-.58.138-.915.226-1.004.256v2.689c0 .354-.06.709-.177 1.053-.158.483-.375.72-.64.72-.109 0-.217-.1-.326-.296-.305-.542-.462-.827-.482-.847l-.148-.118c-.049-.05-.079-.089-.079-.138 0-.06.099-.099.296-.099.216 0 .354-.01.433-.039.138-.05.217-.177.217-.364v-2.266c-.177 0-.424.07-.739.197-.315.138-.551.197-.719.197-.157 0-.394-.059-.709-.177-.187-.069-.285-.138-.285-.187 0-.04.049-.069.147-.089a.833.833 0 0 1 .227-.04 7.97 7.97 0 0 0 1.054-.206c.187-.04.532-.148 1.014-.305v-.473a1.6 1.6 0 0 0-.079-.532c-.049-.148-.167-.246-.345-.325-.285.119-.502.197-.64.256a8.023 8.023 0 0 0-.64.296s-.088.079-.226.207a.438.438 0 0 1-.296.128c-.098 0-.315-.07-.66-.207-.344-.138-.512-.236-.512-.296 0-.03.05-.059.148-.098.098-.04.217-.07.364-.099a18.082 18.082 0 0 0 1.645-.403c.729-.237 1.28-.404 1.635-.513.108-.216.227-.521.345-.925.157-.502.246-.867.246-1.103v-.187c-.286.049-.473.078-.542.088-.069.02-.197.05-.364.108-.197.09-.345.148-.443.188a1.358 1.358 0 0 1-.473.118c-.108 0-.345-.079-.719-.236-.374-.158-.552-.276-.552-.355 0-.05.099-.079.296-.079.256 0 .561-.02.926-.05.364-.029.62-.068.778-.117v-.7c0-.344-.08-.62-.247-.817a14.073 14.073 0 0 1-.57-.512c0-.148.177-.217.531-.217.325 0 .64.07.936.207.295.138.453.335.453.581 0 .148-.04.384-.118.739-.05.197-.07.344-.07.443l1.005-.295c.168 0 .335.02.483.068.148.04.226.128.226.266 0 .158-.138.286-.413.365-.07.02-.276.049-.62.108.137.069.275.177.413.305.187.168.285.316.285.434 0 .059-.069.148-.216.256a.576.576 0 0 0-.158.148 2.058 2.058 0 0 0-.305.472c-.089.187-.158.335-.217.453.128 0 .266-.03.433-.079.375-.127.611-.187.7-.187.246 0 .463.05.65.158s.276.217.276.335c0 .138-.138.197-.414.197-.571.049-1.054.108-1.458.157-.403.05-.797.119-1.181.197l-.02.05Zm-1.388 3.978c0 .483-.079.877-.226 1.182-.148.305-.316.453-.493.453-.118 0-.207-.069-.276-.197-.069-.128-.098-.345-.098-.64 0-.177.118-.581.345-1.211.226-.63.394-.946.492-.946.069 0 .138.148.187.434.05.285.079.59.079.925h-.01Zm1.015-4.865a.68.68 0 0 1-.138.384c-.089.128-.197.197-.306.197a.362.362 0 0 1-.285-.138c-.05-.039-.099-.138-.177-.295l-.237-1.33c0-.098.04-.147.118-.147.227 0 .453.167.68.492.226.325.345.61.345.827v.01Zm2.757 4.767c0 .236-.069.364-.216.364-.207 0-.503-.216-.887-.66-.384-.433-.571-.748-.571-.935 0-.07.05-.109.148-.109.069 0 .177.04.325.109.522.197.847.384.994.551.148.168.217.394.217.68h-.01Zm3.88-4.314c.266.128.444.217.512.286a.337.337 0 0 1 .119.266c-.03.187-.04.364-.04.522v3.338c0 .69-.03 1.212-.079 1.576-.078.522-.206.778-.374.778-.167 0-.295-.187-.404-.551-.108-.365-.157-.66-.157-.887 0-.157.01-.374.04-.64.029-.266.039-.423.039-.473v-3.25c0-.167-.04-.335-.109-.482-.098-.197-.226-.296-.374-.296-.04 0-.226.02-.561.07a2.466 2.466 0 0 1-.306.029c0 .975-.137 1.92-.413 2.856-.315 1.044-.749 1.88-1.31 2.521-.06.069-.138.148-.236.236-.099.09-.168.128-.217.138-.02 0-.04-.03-.05-.098a.8.8 0 0 1 .09-.286c.058-.128.088-.197.098-.216.295-.65.532-1.497.719-2.532.187-1.034.275-2.412.275-4.136 0-.167-.068-.354-.216-.551a97.154 97.154 0 0 0-.453-.601c0-.079.118-.118.345-.118.216 0 .443.04.68.138.275-.168.688-.513 1.25-1.015.64-.59.965-.965.965-1.123v-.216c-.01-.118.02-.177.098-.177.207 0 .473.147.818.433.345.285.512.542.512.738 0 .08-.06.138-.177.178-.118.04-.237.069-.345.088-.423.197-.965.483-1.645.857-.58.325-.906.502-.994.552a.639.639 0 0 1 .275.305c.06.138.09.286.09.443 0 .128-.02.315-.07.562-.05.246-.069.423-.069.521a15.38 15.38 0 0 0 1.36-.216 5.024 5.024 0 0 0 1.28-.483c.157-.098.354-.147.57-.147.148 0 .326.039.542.108.217.069.335.167.335.286 0 .187-.344.344-1.044.482-.768.108-1.211.167-1.339.187h-.03Zm5.801 3.034c-.236 0-.512.03-.847.098-.334.07-.57.118-.738.158a.99.99 0 0 1 .187.423c.04.177.05.374.05.61 0 .493-.08.956-.237 1.41-.158.452-.335.669-.532.669-.108 0-.207-.118-.305-.345-.099-.226-.148-.423-.148-.561 0-.197.05-.404.138-.62.226-.542.335-.907.335-1.074 0-.118-.02-.256-.07-.414a6.508 6.508 0 0 1-.66-.118c-.147-.05-.226-.089-.226-.148 0-.04.05-.088.148-.118.099-.04.158-.059.177-.069l2.718-.492v-1.084c-.256.03-.56.09-.886.197-.246.08-.394.148-.443.217-.05.069-.118.128-.197.207-.079.079-.157.118-.236.118-.099 0-.227-.118-.375-.364-.157-.247-.226-.414-.226-.513 0-.059.079-.325.236-.777.08-.227.118-.434.118-.63v-.247c0-.158-.03-.315-.098-.453a6.982 6.982 0 0 1-.226-.384c0-.03.029-.05.078-.07.02 0 .05 0 .099-.009.276 0 .522.089.729.276a.9.9 0 0 1 .315.7c0 .176-.03.383-.08.62-.048.236-.098.462-.147.68l1.34-.11v-1.083c0-.226-.04-.443-.109-.66a42.18 42.18 0 0 0-.266-.64c0-.108.08-.157.227-.157.236 0 .522.088.837.266.315.177.473.354.473.532 0 .088-.03.206-.089.364-.06.148-.089.256-.089.305l-.118 4.225c0 .227 0 .453.01.7 0 .236.02.472.03.68 0 .432-.03.787-.08 1.043-.048.256-.147.384-.295.384-.197 0-.364-.187-.492-.551-.128-.375-.197-.69-.197-.956 0-.138.03-.433.099-.886.039-.256.049-.453.049-.591v-.739l.02-.02Zm5.033-5.978c-.227.305-.443.6-.67.896-.364.443-.63.67-.788.67l-.069-.07c0-.137.08-.374.227-.738.108-.246.217-.502.335-.768h-2.02c-.147 0-.383.02-.698.049 0 .414-.02.719-.07.936-.049.206-.117.315-.206.315-.167 0-.374-.335-.6-.995-.168.04-.355.079-.552.118-.197.04-.365.099-.503.148a16.36 16.36 0 0 1-.62.286c-.06 0-.256-.109-.581-.325-.325-.217-.493-.375-.493-.473 0-.06.08-.099.227-.099l.67.04a5.69 5.69 0 0 0 1.713-.256 3.372 3.372 0 0 0-.216-.62 19.36 19.36 0 0 1-.414-.936c0-.06.03-.099.098-.099.197 0 .493.079.877.246.384.168.581.325.581.493v.768c.256 0 .59 0 1.005-.02.413-.02.62-.02.63-.02h1.33c.039-.078.068-.246.108-.492.04-.246.049-.443.049-.561a.911.911 0 0 0-.098-.414c-.03-.069-.07-.138-.099-.216 0-.07.069-.109.217-.109.206 0 .502.099.886.286.384.187.581.364.581.532l-.59.856c.176 0 .334 0 .472-.02.138-.01.236-.029.315-.058a.96.96 0 0 1 .227-.06c.078-.01.157-.029.246-.029.285 0 .522.069.699.197.187.128.276.266.276.414 0 .157-.128.246-.375.246-.285 0-.541 0-.778-.03-.817-.069-1.26-.108-1.329-.108v.02Zm-.66 7.987v-3.004c-.305.05-.6.108-.896.158-.138 0-.374-.06-.71-.197-.334-.129-.511-.237-.511-.316 0-.049.108-.078.334-.078h.207c.256 0 .552-.01.887-.03.325-.02.561-.059.69-.118V13c0-.325-.08-.64-.237-.926-.079-.137-.168-.275-.247-.413 0-.118.109-.178.325-.178.306 0 .63.09.985.266.355.178.532.375.532.601 0 .079-.03.197-.098.335-.158.325-.237.542-.237.66v.709c.138 0 .286-.03.453-.099.394-.137.64-.216.749-.216.187 0 .413.04.67.108.256.069.384.187.384.335 0 .148-.217.266-.66.354a8.225 8.225 0 0 1-1.596.138v1.96c0 .177 0 .355-.01.532 0 .177-.029.345-.049.492.08 0 .158-.02.237-.02h.837c.157 0 .315 0 .453-.01.147 0 .246-.029.315-.048.069-.02.167-.06.295-.099a1.26 1.26 0 0 1 .286-.069c.217 0 .463.128.758.384.286.256.434.473.434.65 0 .128-.07.187-.217.187-.05 0-.118 0-.197-.03-.03 0-.089-.029-.177-.048a6.718 6.718 0 0 0-1.389-.256 22.215 22.215 0 0 0-1.684-.07h-.246c-.355 0-.788.02-1.29.08-.503.049-.887.118-1.143.196a7.55 7.55 0 0 1-.256.089.79.79 0 0 1-.197.05c-.098 0-.315-.08-.64-.237-.325-.158-.492-.276-.492-.355.03-.03.049-.039.078-.039.05-.02.109-.03.158-.03h.7a7.6 7.6 0 0 0 1.22-.069c.542-.078.936-.137 1.202-.177l-.01.03Z" stroke="#231815" stroke-width="2"/><path d="M24.91 13.158c.276.147.444.285.523.443.079.157.118.384.118.699.108-.02.256-.089.433-.197a.989.989 0 0 1 .552-.177c.266 0 .473.03.6.098.129.06.198.148.198.266 0 .118-.256.246-.779.404-.58.138-.915.226-1.004.256v2.689c0 .354-.06.709-.177 1.053-.158.483-.375.72-.64.72-.109 0-.217-.1-.326-.296-.305-.542-.462-.827-.482-.847l-.148-.118c-.049-.05-.079-.089-.079-.138 0-.06.099-.099.296-.099.216 0 .354-.01.433-.039.138-.05.217-.177.217-.364v-2.266c-.177 0-.424.07-.739.197-.315.138-.551.197-.719.197-.157 0-.394-.059-.709-.177-.187-.069-.285-.138-.285-.187 0-.04.049-.069.147-.089a.833.833 0 0 1 .227-.04 7.97 7.97 0 0 0 1.054-.206c.187-.04.532-.148 1.014-.305v-.473a1.6 1.6 0 0 0-.079-.532c-.049-.148-.167-.246-.345-.325-.285.119-.502.197-.64.256a8.023 8.023 0 0 0-.64.296s-.088.079-.226.207a.438.438 0 0 1-.296.128c-.098 0-.315-.07-.66-.207-.344-.138-.512-.236-.512-.296 0-.03.05-.059.148-.098.098-.04.217-.07.364-.099a18.082 18.082 0 0 0 1.645-.403c.729-.237 1.28-.404 1.635-.513.108-.216.227-.521.345-.925.157-.502.246-.867.246-1.103v-.187c-.286.049-.473.078-.542.088-.069.02-.197.05-.364.108-.197.09-.345.148-.443.188a1.358 1.358 0 0 1-.473.118c-.108 0-.345-.079-.719-.236-.374-.158-.552-.276-.552-.355 0-.05.099-.079.296-.079.256 0 .561-.02.926-.05.364-.029.62-.068.778-.117v-.7c0-.344-.08-.62-.247-.817a14.073 14.073 0 0 1-.57-.512c0-.148.177-.217.531-.217.325 0 .64.07.936.207.295.138.453.335.453.581 0 .148-.04.384-.118.739-.05.197-.07.344-.07.443l1.005-.295c.168 0 .335.02.483.068.148.04.226.128.226.266 0 .158-.138.286-.413.365-.07.02-.276.049-.62.108.137.069.275.177.413.305.187.168.285.316.285.434 0 .059-.069.148-.216.256a.576.576 0 0 0-.158.148 2.058 2.058 0 0 0-.305.472c-.089.187-.158.335-.217.453.128 0 .266-.03.433-.079.375-.127.611-.187.7-.187.246 0 .463.05.65.158s.276.217.276.335c0 .138-.138.197-.414.197-.571.049-1.054.108-1.458.157-.403.05-.797.119-1.181.197l-.02.05Zm-1.388 3.978c0 .483-.079.877-.226 1.182-.148.305-.316.453-.493.453-.118 0-.207-.069-.276-.197-.069-.128-.098-.345-.098-.64 0-.177.118-.581.345-1.211.226-.63.394-.946.492-.946.069 0 .138.148.187.434.05.285.079.59.079.925h-.01Zm1.015-4.865a.68.68 0 0 1-.138.384c-.089.128-.197.197-.306.197a.362.362 0 0 1-.285-.138c-.05-.039-.099-.138-.177-.295l-.237-1.33c0-.098.04-.147.118-.147.227 0 .453.167.68.492.226.325.345.61.345.827v.01Zm2.757 4.767c0 .236-.069.364-.216.364-.207 0-.503-.216-.887-.66-.384-.433-.571-.748-.571-.935 0-.07.05-.109.148-.109.069 0 .177.04.325.109.522.197.847.384.994.551.148.168.217.394.217.68h-.01Zm3.88-4.314c.266.128.444.217.512.286a.337.337 0 0 1 .119.266c-.03.187-.04.364-.04.522v3.338c0 .69-.03 1.212-.079 1.576-.078.522-.206.778-.374.778-.167 0-.295-.187-.404-.551-.108-.365-.157-.66-.157-.887 0-.157.01-.374.04-.64.029-.266.039-.423.039-.473v-3.25c0-.167-.04-.335-.109-.482-.098-.197-.226-.296-.374-.296-.04 0-.226.02-.561.07a2.466 2.466 0 0 1-.306.029c0 .975-.137 1.92-.413 2.856-.315 1.044-.749 1.88-1.31 2.521-.06.069-.138.148-.236.236-.099.09-.168.128-.217.138-.02 0-.04-.03-.05-.098a.8.8 0 0 1 .09-.286c.058-.128.088-.197.098-.216.295-.65.532-1.497.719-2.532.187-1.034.275-2.412.275-4.136 0-.167-.068-.354-.216-.551a97.154 97.154 0 0 0-.453-.601c0-.079.118-.118.345-.118.216 0 .443.04.68.138.275-.168.688-.513 1.25-1.015.64-.59.965-.965.965-1.123v-.216c-.01-.118.02-.177.098-.177.207 0 .473.147.818.433.345.285.512.542.512.738 0 .08-.06.138-.177.178-.118.04-.237.069-.345.088-.423.197-.965.483-1.645.857-.58.325-.906.502-.994.552a.639.639 0 0 1 .275.305c.06.138.09.286.09.443 0 .128-.02.315-.07.562-.05.246-.069.423-.069.521a15.38 15.38 0 0 0 1.36-.216 5.024 5.024 0 0 0 1.28-.483c.157-.098.354-.147.57-.147.148 0 .326.039.542.108.217.069.335.167.335.286 0 .187-.344.344-1.044.482-.768.108-1.211.167-1.339.187h-.03Zm5.801 3.034c-.236 0-.512.03-.847.098-.334.07-.57.118-.738.158a.99.99 0 0 1 .187.423c.04.177.05.374.05.61 0 .493-.08.956-.237 1.41-.158.452-.335.669-.532.669-.108 0-.207-.118-.305-.345-.099-.226-.148-.423-.148-.561 0-.197.05-.404.138-.62.226-.542.335-.907.335-1.074 0-.118-.02-.256-.07-.414a6.508 6.508 0 0 1-.66-.118c-.147-.05-.226-.089-.226-.148 0-.04.05-.088.148-.118.099-.04.158-.059.177-.069l2.718-.492v-1.084c-.256.03-.56.09-.886.197-.246.08-.394.148-.443.217-.05.069-.118.128-.197.207-.079.079-.157.118-.236.118-.099 0-.227-.118-.375-.364-.157-.247-.226-.414-.226-.513 0-.059.079-.325.236-.777.08-.227.118-.434.118-.63v-.247c0-.158-.03-.315-.098-.453a6.982 6.982 0 0 1-.226-.384c0-.03.029-.05.078-.07.02 0 .05 0 .099-.009.276 0 .522.089.729.276a.9.9 0 0 1 .315.7c0 .176-.03.383-.08.62-.048.236-.098.462-.147.68l1.34-.11v-1.083c0-.226-.04-.443-.109-.66a42.18 42.18 0 0 0-.266-.64c0-.108.08-.157.227-.157.236 0 .522.088.837.266.315.177.473.354.473.532 0 .088-.03.206-.089.364-.06.148-.089.256-.089.305l-.118 4.225c0 .227 0 .453.01.7 0 .236.02.472.03.68 0 .432-.03.787-.08 1.043-.048.256-.147.384-.295.384-.197 0-.364-.187-.492-.551-.128-.375-.197-.69-.197-.956 0-.138.03-.433.099-.886.039-.256.049-.453.049-.591v-.739l.02-.02Zm5.033-5.978c-.227.305-.443.6-.67.896-.364.443-.63.67-.788.67l-.069-.07c0-.137.08-.374.227-.738.108-.246.217-.502.335-.768h-2.02c-.147 0-.383.02-.698.049 0 .414-.02.719-.07.936-.049.206-.117.315-.206.315-.167 0-.374-.335-.6-.995-.168.04-.355.079-.552.118-.197.04-.365.099-.503.148a16.36 16.36 0 0 1-.62.286c-.06 0-.256-.109-.581-.325-.325-.217-.493-.375-.493-.473 0-.06.08-.099.227-.099l.67.04a5.69 5.69 0 0 0 1.713-.256 3.372 3.372 0 0 0-.216-.62 19.36 19.36 0 0 1-.414-.936c0-.06.03-.099.098-.099.197 0 .493.079.877.246.384.168.581.325.581.493v.768c.256 0 .59 0 1.005-.02.413-.02.62-.02.63-.02h1.33c.039-.078.068-.246.108-.492.04-.246.049-.443.049-.561a.911.911 0 0 0-.098-.414c-.03-.069-.07-.138-.099-.216 0-.07.069-.109.217-.109.206 0 .502.099.886.286.384.187.581.364.581.532l-.59.856c.176 0 .334 0 .472-.02.138-.01.236-.029.315-.058a.96.96 0 0 1 .227-.06c.078-.01.157-.029.246-.029.285 0 .522.069.699.197.187.128.276.266.276.414 0 .157-.128.246-.375.246-.285 0-.541 0-.778-.03-.817-.069-1.26-.108-1.329-.108v.02Zm-.66 7.987v-3.004c-.305.05-.6.108-.896.158-.138 0-.374-.06-.71-.197-.334-.129-.511-.237-.511-.316 0-.049.108-.078.334-.078h.207c.256 0 .552-.01.887-.03.325-.02.561-.059.69-.118V13c0-.325-.08-.64-.237-.926-.079-.137-.168-.275-.247-.413 0-.118.109-.178.325-.178.306 0 .63.09.985.266.355.178.532.375.532.601 0 .079-.03.197-.098.335-.158.325-.237.542-.237.66v.709c.138 0 .286-.03.453-.099.394-.137.64-.216.749-.216.187 0 .413.04.67.108.256.069.384.187.384.335 0 .148-.217.266-.66.354a8.225 8.225 0 0 1-1.596.138v1.96c0 .177 0 .355-.01.532 0 .177-.029.345-.049.492.08 0 .158-.02.237-.02h.837c.157 0 .315 0 .453-.01.147 0 .246-.029.315-.048.069-.02.167-.06.295-.099a1.26 1.26 0 0 1 .286-.069c.217 0 .463.128.758.384.286.256.434.473.434.65 0 .128-.07.187-.217.187-.05 0-.118 0-.197-.03-.03 0-.089-.029-.177-.048a6.718 6.718 0 0 0-1.389-.256 22.215 22.215 0 0 0-1.684-.07h-.246c-.355 0-.788.02-1.29.08-.503.049-.887.118-1.143.196a7.55 7.55 0 0 1-.256.089.79.79 0 0 1-.197.05c-.098 0-.315-.08-.64-.237-.325-.158-.492-.276-.492-.355.03-.03.049-.039.078-.039.05-.02.109-.03.158-.03h.7a7.6 7.6 0 0 0 1.22-.069c.542-.078.936-.137 1.202-.177l-.01.03Z" fill="#E68169"/><path d="M37.683 27.35c1.743-1.045 3.496-1.833 5.288-2.522 1.064-.404 2.167-.72 3.25-1.064.129-.04.296.04.503.07.157.64.236 1.309.482 1.92.227.57.62 1.073.936 1.615a2.34 2.34 0 0 1 .305 1.654c-.157.857-.217 1.744-.906 2.423-.473.463-.59 1.044-.345 1.723.335.926.601 1.872.916 2.857-.364.61-.945 1.053-1.497 1.506-.758.63-1.575 1.192-2.334 1.822a131.054 131.054 0 0 0-3.053 2.66 26.84 26.84 0 0 0-1.792 1.713c-1.625 1.743-2.56 3.89-3.418 6.067-.472 1.211-.886 2.442-1.339 3.654-.128.334-.325.64-.502.984-1.024.089-1.753-.236-2.118-1.211-.069-.197-.187-.374-.256-.571-.729-2.275-2.186-4.107-3.545-6.018a2.412 2.412 0 0 0-1.36-.965c-.846-.236-1.674-.512-2.461-.758-.07-.167-.168-.276-.138-.345.315-.748.059-1.31-.552-1.763-.374-.275-.748-.57-1.152-.807-.867-.502-1.546-1.221-2.216-1.94-.896-.956-1.231-2.147-1.428-3.388-.05-.335.05-.729.167-1.064.355-1.024.759-2.029 1.123-2.984.492-.138.71.138.877.374.354.503.66 1.054 1.004 1.576.345.522.818.837 1.458.61.719-.255 1.398-.196 2.127 0 .473.129 1.014-.039 1.526-.068.414-.03.877-.207 1.212-.07.67.276 1.33.178 1.99.208.511.02 1.033.098 1.536.177 2.038.335 3.781-.335 5.328-1.596.58-.472.886-1.162.916-1.92.039-1.034.108-2.078-.227-3.092-.148-.444-.207-.907-.335-1.488l.03.02Z" fill="#368AA5" stroke="#231815" stroke-linecap="round" stroke-linejoin="round"/></g><defs><clipPath id="clip0_1119_33346"><path fill="#fff" transform="translate(.052)" d="M0 0h53.763v65H0z"/></clipPath></defs></svg>