<svg fill="none" xmlns="http://www.w3.org/2000/svg" viewBox="0 0 55 65"><g clip-path="url(#clip0_1119_33458)"><path d="M48.813 61.327 21.473 59.8c-3.21-.177-5.86-3.309-5.919-6.992l-.768-45.973C14.737 3.703 16.57 1.192 19.08.611L5.312 3.79c-2.511.582-4.343 3.093-4.294 6.225l.768 45.973c.06 3.683 2.709 6.815 5.92 6.992l27.339 1.527c.482.03.955-.02 1.398-.118l13.758-3.172a5.04 5.04 0 0 1-1.398.119l.01-.01Z" fill="#E68169" stroke="#231815" stroke-miterlimit="10"/><path d="M47.11 2.019c3.21.177 5.859 3.309 5.918 6.992l.768 45.973c.06 3.683-2.492 6.52-5.702 6.342L20.754 59.8c-3.21-.177-5.86-3.31-5.918-6.993l-.769-45.972C14.008 3.15 16.56.315 19.77.492L47.11 2.02Z" fill="#fff" stroke="#231815" stroke-linecap="round" stroke-linejoin="round"/><path d="m48.075 61.376-27.34-1.527c-3.21-.177-5.85-3.309-5.909-6.992l-.67-45.993c-.02-1.575.434-2.993 1.202-4.087C16.136 1.684 17.229.907 18.5.63l-6.885 1.527c-2.54.561-4.392 3.092-4.353 6.234l.67 45.992c.05 3.684 2.698 6.816 5.91 6.993l27.339 1.526c.472.03.925-.01 1.359-.108l6.884-1.526a4.789 4.789 0 0 1-1.36.108h.01Z" fill="#fff" stroke="#231815" stroke-linecap="round" stroke-linejoin="round"/><path d="M47.218 2.039c3.21.177 5.85 3.309 5.909 6.992l.67 45.992c.049 3.684-2.502 6.52-5.713 6.343l-27.339-1.527c-3.21-.177-5.85-3.309-5.91-6.992l-.669-45.992C14.117 3.17 16.668.325 19.878.512l27.34 1.527Z" fill="#fff" stroke="#231815" stroke-linecap="round" stroke-linejoin="round"/><path d="M50.054 15.423c0 .108-.01.256-.03.463a5.39 5.39 0 0 0-.03.472v1.024c0 .109-.078.168-.226.168-.05 0-.266-.04-.63-.128-.404-.089-1.172-.138-2.285-.138-.345 0-.867.02-1.556.06-.69.038-1.202.058-1.546.058-.118 0-.178-.059-.197-.167-.01-.148-.05-.374-.099-.68-.108-.453-.167-.719-.167-.788 0-.098.187-.167.561-.226.443-.06.72-.138.847-.246.453-.384.916-.867 1.399-1.448.61-.739.906-1.29.906-1.655 0-.315-.118-.59-.345-.807a1.152 1.152 0 0 0-.827-.325c-.355 0-.72.069-1.074.216a3.682 3.682 0 0 0-.748.394c-.217.138-.345.207-.365.207-.147 0-.226-.177-.226-.541 0-.276-.01-.483-.03-.611 0-.06-.04-.177-.098-.364a1.377 1.377 0 0 1-.079-.355c0-.06.04-.118.118-.167.374-.266.867-.473 1.497-.63A6.685 6.685 0 0 1 46.45 9c.857 0 1.566.188 2.137.562.68.443 1.015 1.063 1.015 1.88 0 1.084-.818 2.345-2.462 3.793a57.336 57.336 0 0 1 2.737-.09c.138 0 .207.08.207.247l-.03.03Z" fill="#E86546"/><path d="M50.054 15.423c0 .108-.01.256-.03.463a5.39 5.39 0 0 0-.03.472v1.024c0 .109-.078.168-.226.168-.05 0-.266-.04-.63-.128-.404-.089-1.172-.138-2.285-.138-.345 0-.867.02-1.556.06-.69.038-1.202.058-1.546.058-.118 0-.178-.059-.197-.167-.01-.148-.05-.374-.099-.68-.108-.453-.167-.719-.167-.788 0-.098.187-.167.561-.226.443-.06.72-.138.847-.246.453-.384.916-.867 1.399-1.448.61-.739.906-1.29.906-1.655 0-.315-.118-.59-.345-.807a1.152 1.152 0 0 0-.827-.325c-.355 0-.72.069-1.074.216a3.682 3.682 0 0 0-.748.394c-.217.138-.345.207-.365.207-.147 0-.226-.177-.226-.541 0-.276-.01-.483-.03-.611 0-.06-.04-.177-.098-.364a1.377 1.377 0 0 1-.079-.355c0-.06.04-.118.118-.167.374-.266.867-.473 1.497-.63A6.685 6.685 0 0 1 46.45 9c.857 0 1.566.188 2.137.562.68.443 1.015 1.063 1.015 1.88 0 1.084-.818 2.345-2.462 3.793a57.336 57.336 0 0 1 2.737-.09c.138 0 .207.08.207.247l-.03.03Z" fill="#00698A"/><path d="M24.694 13.502v3.349c0 .758-.06 1.398-.177 1.91-.119.512-.276.768-.473.768-.128 0-.246-.167-.335-.492-.089-.325-.128-.729-.128-1.201V13.63c-.532 0-1.034.05-1.526.158-.493.108-1.025.266-1.606.482a3.7 3.7 0 0 0-.364.178c-.158.088-.296.137-.404.137-.148 0-.443-.137-.857-.413-.414-.276-.63-.463-.63-.581 0-.05.05-.079.148-.079.118 0 .295.02.531.05.247.039.424.049.532.049.355 0 .877-.06 1.556-.178.453-.079.769-.128.956-.147.374-.05.68-.099.906-.119.226-.02.482-.069.748-.138V9.967c0-.148-.05-.345-.158-.582-.108-.236-.226-.354-.364-.354-.148 0-.276 0-.404.03-.423.059-.66.098-.699.098-.177 0-.483-.108-.916-.325-.433-.217-.65-.394-.65-.552.02-.02.03-.03.04-.03a.227.227 0 0 1 .108-.029h.187c.64.128 1.34.187 2.108.187a9.55 9.55 0 0 0 1.566-.118 4.546 4.546 0 0 0 1.25-.384c.158-.079.345-.118.552-.118.354 0 .6.01.739.04.334.059.512.196.512.413 0 .217-.306.374-.936.492-.63.119-1.448.168-2.482.168.217.138.384.266.512.404.187.197.286.384.286.57 0 .08-.02.178-.06.306a1.008 1.008 0 0 0-.058.246v2.541c.758 0 1.359-.01 1.802-.04.443-.029.758-.068.955-.127.197-.06.365-.089.532-.089.246 0 .571.109.965.325.394.217.591.444.591.67 0 .079-.04.158-.128.226a.406.406 0 0 1-.266.099h-.04a19.792 19.792 0 0 0-1.89-.443 9.966 9.966 0 0 0-1.773-.158h-.364c-.118 0-.246.01-.384.04l-.01.03Zm-1.861-2.354c0 .08-.08.148-.237.197-.157.05-.276.099-.364.118-.089.03-.444.237-1.074.64-.473.306-.817.454-1.034.454-.098 0-.148-.03-.148-.099 0-.049.227-.364.67-.935.443-.572.67-.956.67-1.162v-.257c-.01-.177.05-.265.157-.265.178 0 .453.167.808.512.364.334.542.6.542.787l.01.01Zm5.21.562c0 .394-.1.59-.286.59-.266 0-.68-.383-1.251-1.152-.532-.719-.788-1.181-.788-1.369 0-.02.01-.039.04-.049 0 0 .02 0 .039-.01.069 0 .177.03.325.089.02 0 .05.03.108.05.61.305 1.005.531 1.192.679.413.335.62.719.62 1.162v.01Zm4.668 1.31c0 .098-.01.167-.04.216a.207.207 0 0 1-.177.099c-.177 0-.561-.187-1.162-.571-.59-.384-.886-.64-.886-.788 0-.05.069-.08.216-.08.444 0 .867.08 1.261.247.522.217.788.512.788.886v-.01Zm1.123.67s.04.078.04.157c0 .217-.139.63-.415 1.24-.275.611-.541 1.222-.797 1.813-.286.67-.434 1.103-.434 1.31v.561c.01.158-.049.236-.177.236-.305 0-.62-.196-.955-.59-.335-.394-.493-.749-.493-1.054 0-.03.01-.05.04-.07 0 0 .02 0 .03-.009.039 0 .118.02.246.06.128.038.216.058.275.058.148 0 .434-.325.857-.965.148-.236.522-.827 1.103-1.792.384-.64.61-.965.67-.965l.01.01Zm-.256-3.763c0 .237-.089.365-.256.365-.257 0-.64-.227-1.133-.69-.492-.463-.739-.768-.739-.916 0-.049.05-.078.138-.078.414 0 .828.118 1.26.364.493.276.74.6.74.965l-.01-.01Zm4.097 7.14-.099.256c.955.119 1.664.247 2.117.404.916.305 1.38.749 1.38 1.33 0 .128-.03.226-.08.315-.049.089-.147.128-.265.128a.52.52 0 0 1-.316-.099 1.175 1.175 0 0 1-.285-.265c-.315-.296-.729-.591-1.26-.897a11.72 11.72 0 0 0-1.41-.699c-.373.522-.905.975-1.604 1.35-.69.374-1.36.55-2.02.55h-.108c-.069 0-.108-.029-.108-.068 0-.03.06-.079.177-.148.119-.069.247-.138.384-.216.64-.296 1.084-.522 1.31-.68.345-.236.69-.6 1.015-1.073a6.71 6.71 0 0 0-.828.197c-.325.098-.57.167-.738.206-.05.02-.148.07-.296.138a.748.748 0 0 1-.344.108c-.138 0-.384-.108-.759-.334-.374-.227-.551-.384-.551-.493 0-.02.04-.04.108-.069.108 0 .315.03.63.089.178.04.306.05.384.05.335 0 .74-.05 1.222-.149.482-.098.945-.197 1.388-.295 0-.226-.02-.424-.049-.61a.657.657 0 0 0-.246-.414s-.306.079-.886.216a1.37 1.37 0 0 0-.434.148c-.098.06-.187.099-.285.148-.178 0-.375-.158-.572-.473-.108-.157-.157-.295-.157-.404 0-.118.049-.197.138-.246a.96.96 0 0 1 .364-.069h.345c.236 0 .522-.118.866-.345.256-.177.513-.393.749-.64-.158-.069-.483-.256-.975-.561-.532-.335-.808-.551-.808-.63 0-.06.099-.119.296-.158a3.75 3.75 0 0 1 .748-.069c.128-.197.246-.394.374-.6.158-.286.237-.493.237-.63a.593.593 0 0 0-.07-.267.61.61 0 0 1-.068-.177c0-.079.069-.118.197-.118.217 0 .492.098.827.305.335.197.502.404.502.6 0 .07-.069.139-.216.198-.148.059-.237.098-.286.118a6.32 6.32 0 0 0-.64.473 4.11 4.11 0 0 1-.404.295c.158.128.306.246.424.374s.226.266.315.434c.305-.207.581-.424.847-.64.423-.345.63-.601.63-.759a.428.428 0 0 0-.069-.226.403.403 0 0 1-.069-.148c0-.05.02-.079.05-.098a.22.22 0 0 1 .108-.03c.266 0 .571.128.916.374.345.246.512.502.512.749 0 .118-.079.197-.236.246-.158.05-.306.088-.434.118-.374.168-.778.384-1.221.64-.67.404-1.34.798-2.01 1.192.552 0 1.133-.04 1.724-.118.601-.08 1.015-.128 1.261-.158a4.953 4.953 0 0 1-.325-.384c-.187-.236-.286-.394-.286-.473 0-.049.03-.079.099-.079.413 0 .847.158 1.31.483.522.355.778.729.778 1.113 0 .266-.099.404-.286.404-.157 0-.345-.079-.551-.237-.207-.157-.355-.305-.434-.453-.532.119-.935.197-1.201.247a18.72 18.72 0 0 1-1.192.187c.167.04.345.088.522.118.236.079.364.187.364.325 0 .069-.02.187-.049.335a1.4 1.4 0 0 0-.049.246c.276 0 .532-.01.748-.03.227-.02.522-.059.897-.118.216-.049.374-.088.482-.108.207-.04.384-.069.522-.069.227 0 .522.079.887.236.364.158.551.325.551.512 0 .07-.04.128-.128.178a.51.51 0 0 1-.266.069h-.098a4.83 4.83 0 0 0-1.084-.197c-.413-.04-.857-.05-1.33-.05h-.57c-.158 0-.385.02-.68.05l.03.02Zm-1.93-7.337c.088.099.147.168.177.217a.575.575 0 0 1 .108.295c0 .148-.394.542-1.192 1.162-.797.621-1.25.877-1.369.759 0-.02.246-.355.739-1.005.492-.65.739-1.113.739-1.378 0-.02-.01-.07-.04-.158a.67.67 0 0 1-.04-.197c0-.089.05-.138.139-.138.039 0 .098.02.177.05a.631.631 0 0 0 .177.049c.296 0 .867-.168 1.714-.493.916-.354 1.379-.63 1.379-.817v-.118c-.01-.08.03-.119.108-.119.187 0 .433.148.739.434.305.285.463.532.463.719 0 .069-.03.118-.099.138-.069.02-.167.029-.286.029h-.216c-.355 0-.916.069-1.675.217-.344.059-.925.187-1.723.364l-.02-.01Zm2.629 1.33a.76.76 0 0 1-.05.276c-.029.078-.098.118-.196.118-.207 0-.394-.099-.562-.306-.059-.078-.256-.423-.571-1.043-.04-.06-.069-.138-.118-.227a.575.575 0 0 1-.06-.197l.07-.069c.069 0 .177.05.325.158.246.177.502.354.768.522.266.236.404.492.404.778l-.01-.01Zm.266-1.458.098-.03c.079 0 .187.02.306.05.128.04.216.059.265.079.591.187.975.335 1.163.443.423.236.63.571.63.975a.55.55 0 0 1-.099.325c-.069.098-.157.157-.275.157-.158 0-.522-.295-1.074-.886-.335-.374-.68-.748-1.014-1.123v.01Z" fill="#231815"/><path d="M24.694 13.502v3.349c0 .758-.06 1.398-.177 1.91-.119.512-.276.768-.473.768-.128 0-.246-.167-.335-.492-.089-.325-.128-.729-.128-1.201V13.63c-.532 0-1.034.05-1.526.158-.493.108-1.025.266-1.606.482a3.7 3.7 0 0 0-.364.178c-.158.088-.296.137-.404.137-.148 0-.443-.137-.857-.413-.414-.276-.63-.463-.63-.581 0-.05.05-.079.148-.079.118 0 .295.02.531.05.247.039.424.049.532.049.355 0 .877-.06 1.556-.178.453-.079.769-.128.956-.147.374-.05.68-.099.906-.119.226-.02.482-.069.748-.138V9.967c0-.148-.05-.345-.158-.582-.108-.236-.226-.354-.364-.354-.148 0-.276 0-.404.03-.423.059-.66.098-.699.098-.177 0-.483-.108-.916-.325-.433-.217-.65-.394-.65-.552.02-.02.03-.03.04-.03a.227.227 0 0 1 .108-.029h.187c.64.128 1.34.187 2.108.187a9.55 9.55 0 0 0 1.566-.118 4.546 4.546 0 0 0 1.25-.384c.158-.079.345-.118.552-.118.354 0 .6.01.739.04.334.059.512.196.512.413 0 .217-.306.374-.936.492-.63.119-1.448.168-2.482.168.217.138.384.266.512.404.187.197.286.384.286.57 0 .08-.02.178-.06.306a1.008 1.008 0 0 0-.058.246v2.541c.758 0 1.359-.01 1.802-.04.443-.029.758-.068.955-.127.197-.06.365-.089.532-.089.246 0 .571.109.965.325.394.217.591.444.591.67 0 .079-.04.158-.128.226a.406.406 0 0 1-.266.099h-.04a19.792 19.792 0 0 0-1.89-.443 9.966 9.966 0 0 0-1.773-.158h-.364c-.118 0-.246.01-.384.04l-.01.03Zm-1.861-2.354c0 .08-.08.148-.237.197-.157.05-.276.099-.364.118-.089.03-.444.237-1.074.64-.473.306-.817.454-1.034.454-.098 0-.148-.03-.148-.099 0-.049.227-.364.67-.935.443-.572.67-.956.67-1.162v-.257c-.01-.177.05-.265.157-.265.178 0 .453.167.808.512.364.334.542.6.542.787l.01.01Zm5.21.562c0 .394-.1.59-.286.59-.266 0-.68-.383-1.251-1.152-.532-.719-.788-1.181-.788-1.369 0-.02.01-.039.04-.049 0 0 .02 0 .039-.01.069 0 .177.03.325.089.02 0 .05.03.108.05.61.305 1.005.531 1.192.679.413.335.62.719.62 1.162v.01Zm4.668 1.31c0 .098-.01.167-.04.216a.207.207 0 0 1-.177.099c-.177 0-.561-.187-1.162-.571-.59-.384-.886-.64-.886-.788 0-.05.069-.08.216-.08.444 0 .867.08 1.261.247.522.217.788.512.788.886v-.01Zm1.123.67s.04.078.04.157c0 .217-.139.63-.415 1.24-.275.611-.541 1.222-.797 1.813-.286.67-.434 1.103-.434 1.31v.561c.01.158-.049.236-.177.236-.305 0-.62-.196-.955-.59-.335-.394-.493-.749-.493-1.054 0-.03.01-.05.04-.07 0 0 .02 0 .03-.009.039 0 .118.02.246.06.128.038.216.058.275.058.148 0 .434-.325.857-.965.148-.236.522-.827 1.103-1.792.384-.64.61-.965.67-.965l.01.01Zm-.256-3.763c0 .237-.089.365-.256.365-.257 0-.64-.227-1.133-.69-.492-.463-.739-.768-.739-.916 0-.049.05-.078.138-.078.414 0 .828.118 1.26.364.493.276.74.6.74.965l-.01-.01Zm4.097 7.14-.099.256c.955.119 1.664.247 2.117.404.916.305 1.38.749 1.38 1.33 0 .128-.03.226-.08.315-.049.089-.147.128-.265.128a.52.52 0 0 1-.316-.099 1.175 1.175 0 0 1-.285-.265c-.315-.296-.729-.591-1.26-.897a11.72 11.72 0 0 0-1.41-.699c-.373.522-.905.975-1.604 1.35-.69.374-1.36.55-2.02.55h-.108c-.069 0-.108-.029-.108-.068 0-.03.06-.079.177-.148.119-.069.247-.138.384-.216.64-.296 1.084-.522 1.31-.68.345-.236.69-.6 1.015-1.073a6.71 6.71 0 0 0-.828.197c-.325.098-.57.167-.738.206-.05.02-.148.07-.296.138a.748.748 0 0 1-.344.108c-.138 0-.384-.108-.759-.334-.374-.227-.551-.384-.551-.493 0-.02.04-.04.108-.069.108 0 .315.03.63.089.178.04.306.05.384.05.335 0 .74-.05 1.222-.149.482-.098.945-.197 1.388-.295 0-.226-.02-.424-.049-.61a.657.657 0 0 0-.246-.414s-.306.079-.886.216a1.37 1.37 0 0 0-.434.148c-.098.06-.187.099-.285.148-.178 0-.375-.158-.572-.473-.108-.157-.157-.295-.157-.404 0-.118.049-.197.138-.246a.96.96 0 0 1 .364-.069h.345c.236 0 .522-.118.866-.345.256-.177.513-.393.749-.64-.158-.069-.483-.256-.975-.561-.532-.335-.808-.551-.808-.63 0-.06.099-.119.296-.158a3.75 3.75 0 0 1 .748-.069c.128-.197.246-.394.374-.6.158-.286.237-.493.237-.63a.593.593 0 0 0-.07-.267.61.61 0 0 1-.068-.177c0-.079.069-.118.197-.118.217 0 .492.098.827.305.335.197.502.404.502.6 0 .07-.069.139-.216.198-.148.059-.237.098-.286.118a6.32 6.32 0 0 0-.64.473 4.11 4.11 0 0 1-.404.295c.158.128.306.246.424.374s.226.266.315.434c.305-.207.581-.424.847-.64.423-.345.63-.601.63-.759a.428.428 0 0 0-.069-.226.403.403 0 0 1-.069-.148c0-.05.02-.079.05-.098a.22.22 0 0 1 .108-.03c.266 0 .571.128.916.374.345.246.512.502.512.749 0 .118-.079.197-.236.246-.158.05-.306.088-.434.118-.374.168-.778.384-1.221.64-.67.404-1.34.798-2.01 1.192.552 0 1.133-.04 1.724-.118.601-.08 1.015-.128 1.261-.158a4.953 4.953 0 0 1-.325-.384c-.187-.236-.286-.394-.286-.473 0-.049.03-.079.099-.079.413 0 .847.158 1.31.483.522.355.778.729.778 1.113 0 .266-.099.404-.286.404-.157 0-.345-.079-.551-.237-.207-.157-.355-.305-.434-.453-.532.119-.935.197-1.201.247a18.72 18.72 0 0 1-1.192.187c.167.04.345.088.522.118.236.079.364.187.364.325 0 .069-.02.187-.049.335a1.4 1.4 0 0 0-.049.246c.276 0 .532-.01.748-.03.227-.02.522-.059.897-.118.216-.049.374-.088.482-.108.207-.04.384-.069.522-.069.227 0 .522.079.887.236.364.158.551.325.551.512 0 .07-.04.128-.128.178a.51.51 0 0 1-.266.069h-.098a4.83 4.83 0 0 0-1.084-.197c-.413-.04-.857-.05-1.33-.05h-.57c-.158 0-.385.02-.68.05l.03.02Zm-1.93-7.337c.088.099.147.168.177.217a.575.575 0 0 1 .108.295c0 .148-.394.542-1.192 1.162-.797.621-1.25.877-1.369.759 0-.02.246-.355.739-1.005.492-.65.739-1.113.739-1.378 0-.02-.01-.07-.04-.158a.67.67 0 0 1-.04-.197c0-.089.05-.138.139-.138.039 0 .098.02.177.05a.631.631 0 0 0 .177.049c.296 0 .867-.168 1.714-.493.916-.354 1.379-.63 1.379-.817v-.118c-.01-.08.03-.119.108-.119.187 0 .433.148.739.434.305.285.463.532.463.719 0 .069-.03.118-.099.138-.069.02-.167.029-.286.029h-.216c-.355 0-.916.069-1.675.217-.344.059-.925.187-1.723.364l-.02-.01Zm2.629 1.33a.76.76 0 0 1-.05.276c-.029.078-.098.118-.196.118-.207 0-.394-.099-.562-.306-.059-.078-.256-.423-.571-1.043-.04-.06-.069-.138-.118-.227a.575.575 0 0 1-.06-.197l.07-.069c.069 0 .177.05.325.158.246.177.502.354.768.522.266.236.404.492.404.778l-.01-.01Zm.266-1.458.098-.03c.079 0 .187.02.306.05.128.04.216.059.265.079.591.187.975.335 1.163.443.423.236.63.571.63.975a.55.55 0 0 1-.099.325c-.069.098-.157.157-.275.157-.158 0-.522-.295-1.074-.886-.335-.374-.68-.748-1.014-1.123v.01Z" stroke="#231815" stroke-width="2"/><path d="M24.694 13.502v3.349c0 .758-.06 1.398-.177 1.91-.119.512-.276.768-.473.768-.128 0-.246-.167-.335-.492-.089-.325-.128-.729-.128-1.201V13.63c-.532 0-1.034.05-1.526.158-.493.108-1.025.266-1.606.482a3.7 3.7 0 0 0-.364.178c-.158.088-.296.137-.404.137-.148 0-.443-.137-.857-.413-.414-.276-.63-.463-.63-.581 0-.05.05-.079.148-.079.118 0 .295.02.531.05.247.039.424.049.532.049.355 0 .877-.06 1.556-.178.453-.079.769-.128.956-.147.374-.05.68-.099.906-.119.226-.02.482-.069.748-.138V9.967c0-.148-.05-.345-.158-.582-.108-.236-.226-.354-.364-.354-.148 0-.276 0-.404.03-.423.059-.66.098-.699.098-.177 0-.483-.108-.916-.325-.433-.217-.65-.394-.65-.552.02-.02.03-.03.04-.03a.227.227 0 0 1 .108-.029h.187c.64.128 1.34.187 2.108.187a9.55 9.55 0 0 0 1.566-.118 4.546 4.546 0 0 0 1.25-.384c.158-.079.345-.118.552-.118.354 0 .6.01.739.04.334.059.512.196.512.413 0 .217-.306.374-.936.492-.63.119-1.448.168-2.482.168.217.138.384.266.512.404.187.197.286.384.286.57 0 .08-.02.178-.06.306a1.008 1.008 0 0 0-.058.246v2.541c.758 0 1.359-.01 1.802-.04.443-.029.758-.068.955-.127.197-.06.365-.089.532-.089.246 0 .571.109.965.325.394.217.591.444.591.67 0 .079-.04.158-.128.226a.406.406 0 0 1-.266.099h-.04a19.792 19.792 0 0 0-1.89-.443 9.966 9.966 0 0 0-1.773-.158h-.364c-.118 0-.246.01-.384.04l-.01.03Zm-1.861-2.354c0 .08-.08.148-.237.197-.157.05-.276.099-.364.118-.089.03-.444.237-1.074.64-.473.306-.817.454-1.034.454-.098 0-.148-.03-.148-.099 0-.049.227-.364.67-.935.443-.572.67-.956.67-1.162v-.257c-.01-.177.05-.265.157-.265.178 0 .453.167.808.512.364.334.542.6.542.787l.01.01Zm5.21.562c0 .394-.1.59-.286.59-.266 0-.68-.383-1.251-1.152-.532-.719-.788-1.181-.788-1.369 0-.02.01-.039.04-.049 0 0 .02 0 .039-.01.069 0 .177.03.325.089.02 0 .05.03.108.05.61.305 1.005.531 1.192.679.413.335.62.719.62 1.162v.01Zm4.668 1.31c0 .098-.01.167-.04.216a.207.207 0 0 1-.177.099c-.177 0-.561-.187-1.162-.571-.59-.384-.886-.64-.886-.788 0-.05.069-.08.216-.08.444 0 .867.08 1.261.247.522.217.788.512.788.886v-.01Zm1.123.67s.04.078.04.157c0 .217-.139.63-.415 1.24-.275.611-.541 1.222-.797 1.813-.286.67-.434 1.103-.434 1.31v.561c.01.158-.049.236-.177.236-.305 0-.62-.196-.955-.59-.335-.394-.493-.749-.493-1.054 0-.03.01-.05.04-.07 0 0 .02 0 .03-.009.039 0 .118.02.246.06.128.038.216.058.275.058.148 0 .434-.325.857-.965.148-.236.522-.827 1.103-1.792.384-.64.61-.965.67-.965l.01.01Zm-.256-3.763c0 .237-.089.365-.256.365-.257 0-.64-.227-1.133-.69-.492-.463-.739-.768-.739-.916 0-.049.05-.078.138-.078.414 0 .828.118 1.26.364.493.276.74.6.74.965l-.01-.01Zm4.097 7.14-.099.256c.955.119 1.664.247 2.117.404.916.305 1.38.749 1.38 1.33 0 .128-.03.226-.08.315-.049.089-.147.128-.265.128a.52.52 0 0 1-.316-.099 1.175 1.175 0 0 1-.285-.265c-.315-.296-.729-.591-1.26-.897a11.72 11.72 0 0 0-1.41-.699c-.373.522-.905.975-1.604 1.35-.69.374-1.36.55-2.02.55h-.108c-.069 0-.108-.029-.108-.068 0-.03.06-.079.177-.148.119-.069.247-.138.384-.216.64-.296 1.084-.522 1.31-.68.345-.236.69-.6 1.015-1.073a6.71 6.71 0 0 0-.828.197c-.325.098-.57.167-.738.206-.05.02-.148.07-.296.138a.748.748 0 0 1-.344.108c-.138 0-.384-.108-.759-.334-.374-.227-.551-.384-.551-.493 0-.02.04-.04.108-.069.108 0 .315.03.63.089.178.04.306.05.384.05.335 0 .74-.05 1.222-.149.482-.098.945-.197 1.388-.295 0-.226-.02-.424-.049-.61a.657.657 0 0 0-.246-.414s-.306.079-.886.216a1.37 1.37 0 0 0-.434.148c-.098.06-.187.099-.285.148-.178 0-.375-.158-.572-.473-.108-.157-.157-.295-.157-.404 0-.118.049-.197.138-.246a.96.96 0 0 1 .364-.069h.345c.236 0 .522-.118.866-.345.256-.177.513-.393.749-.64-.158-.069-.483-.256-.975-.561-.532-.335-.808-.551-.808-.63 0-.06.099-.119.296-.158a3.75 3.75 0 0 1 .748-.069c.128-.197.246-.394.374-.6.158-.286.237-.493.237-.63a.593.593 0 0 0-.07-.267.61.61 0 0 1-.068-.177c0-.079.069-.118.197-.118.217 0 .492.098.827.305.335.197.502.404.502.6 0 .07-.069.139-.216.198-.148.059-.237.098-.286.118a6.32 6.32 0 0 0-.64.473 4.11 4.11 0 0 1-.404.295c.158.128.306.246.424.374s.226.266.315.434c.305-.207.581-.424.847-.64.423-.345.63-.601.63-.759a.428.428 0 0 0-.069-.226.403.403 0 0 1-.069-.148c0-.05.02-.079.05-.098a.22.22 0 0 1 .108-.03c.266 0 .571.128.916.374.345.246.512.502.512.749 0 .118-.079.197-.236.246-.158.05-.306.088-.434.118-.374.168-.778.384-1.221.64-.67.404-1.34.798-2.01 1.192.552 0 1.133-.04 1.724-.118.601-.08 1.015-.128 1.261-.158a4.953 4.953 0 0 1-.325-.384c-.187-.236-.286-.394-.286-.473 0-.049.03-.079.099-.079.413 0 .847.158 1.31.483.522.355.778.729.778 1.113 0 .266-.099.404-.286.404-.157 0-.345-.079-.551-.237-.207-.157-.355-.305-.434-.453-.532.119-.935.197-1.201.247a18.72 18.72 0 0 1-1.192.187c.167.04.345.088.522.118.236.079.364.187.364.325 0 .069-.02.187-.049.335a1.4 1.4 0 0 0-.049.246c.276 0 .532-.01.748-.03.227-.02.522-.059.897-.118.216-.049.374-.088.482-.108.207-.04.384-.069.522-.069.227 0 .522.079.887.236.364.158.551.325.551.512 0 .07-.04.128-.128.178a.51.51 0 0 1-.266.069h-.098a4.83 4.83 0 0 0-1.084-.197c-.413-.04-.857-.05-1.33-.05h-.57c-.158 0-.385.02-.68.05l.03.02Zm-1.93-7.337c.088.099.147.168.177.217a.575.575 0 0 1 .108.295c0 .148-.394.542-1.192 1.162-.797.621-1.25.877-1.369.759 0-.02.246-.355.739-1.005.492-.65.739-1.113.739-1.378 0-.02-.01-.07-.04-.158a.67.67 0 0 1-.04-.197c0-.089.05-.138.139-.138.039 0 .098.02.177.05a.631.631 0 0 0 .177.049c.296 0 .867-.168 1.714-.493.916-.354 1.379-.63 1.379-.817v-.118c-.01-.08.03-.119.108-.119.187 0 .433.148.739.434.305.285.463.532.463.719 0 .069-.03.118-.099.138-.069.02-.167.029-.286.029h-.216c-.355 0-.916.069-1.675.217-.344.059-.925.187-1.723.364l-.02-.01Zm2.629 1.33a.76.76 0 0 1-.05.276c-.029.078-.098.118-.196.118-.207 0-.394-.099-.562-.306-.059-.078-.256-.423-.571-1.043-.04-.06-.069-.138-.118-.227a.575.575 0 0 1-.06-.197l.07-.069c.069 0 .177.05.325.158.246.177.502.354.768.522.266.236.404.492.404.778l-.01-.01Zm.266-1.458.098-.03c.079 0 .187.02.306.05.128.04.216.059.265.079.591.187.975.335 1.163.443.423.236.63.571.63.975a.55.55 0 0 1-.099.325c-.069.098-.157.157-.275.157-.158 0-.522-.295-1.074-.886-.335-.374-.68-.748-1.014-1.123v.01Z" fill="#E68169"/><path d="M21.188 36.794c.079-.138.158-.236.207-.354.394-.966 1.044-1.763 1.674-2.561.06-.069.138-.128.187-.207.552-.876 1.389-1.398 2.295-1.832.335-.157.66-.325.847-.69.157-.304.443-.423.778-.403.276.02.561.02.827.079.828.187 1.586.098 2.324-.335.591-.345 1.222-.62 1.832-.926a7.906 7.906 0 0 1 3.122-.857c.424-.03.71-.216.916-.531.168-.256.305-.542.443-.818.099-.197.168-.404.246-.6.197-.483.503-.74 1.074-.7 1.27.099 2.462-.207 3.595-.788.443-.226.906-.403 1.369-.6.354-.148.532-.099.699.216.148.276.266.562.384.847.187.463.384.916.522 1.399.246.876.847 1.428 1.605 1.832.355.187.729.354 1.084.541.167.089.315.187.522.315 0 .306.02.611 0 .916-.07 1.044.246 1.95.955 2.728.059.07.088.158.157.276-.088.118-.167.246-.285.345-.138.118-.306.207-.453.325-.758.571-.847.748-.936 1.713-.177.247-.472.286-.738.335-.375.07-.7.237-1.025.424a44.48 44.48 0 0 1-2.157 1.093c-.847.394-1.693.778-2.55 1.133-.512.206-.798.56-.916 1.083-.138.63-.296 1.27-.384 1.91-.05.404-.217.69-.493.966a400.57 400.57 0 0 0-3.18 3.151c-.602.61-.621.916-.05 1.586.197.236.433.443.68.63.492.374 1.014.719 1.516 1.083.197.148.424.306.365.601-.06.305-.296.473-.581.542a3.07 3.07 0 0 1-.74.04c-.403 0-.807-.02-1.21-.04-.365-.01-.69.108-.877.433-.325.571-.857.69-1.428.69-.542 0-1.054.039-1.507.305-.453-.07-.778-.306-1.103-.542-.404-.295-.817-.364-1.31-.207-.975.296-1.96.581-2.984.71-.58.078-1.152.147-1.802.236.069-.424.276-.69.433-.975.266-.493.562-.965.837-1.458.08-.138.168-.285.178-.423.02-.897.098-1.803-.503-2.59-.206-.266-.344-.591-.502-.867.01-.05 0-.089.03-.108.63-.857.463-1.813.374-2.768-.817-.6-1.635-.778-2.492-.069-.738-.68-1.448-1.33-2.157-1.97a.93.93 0 0 1-.325-.827c.03-.276.04-.561.08-.837.029-.217.078-.423.098-.64.069-.847.059-.847-.444-1.556.148-.06.286-.118.424-.168.148-.059.296-.108.502-.187l-.049-.049Z" fill="#368AA5" stroke="#231815" stroke-linecap="round" stroke-linejoin="round"/></g><defs><clipPath id="clip0_1119_33458"><path fill="#fff" transform="translate(.526)" d="M0 0h53.763v65H0z"/></clipPath></defs></svg>