<svg fill="none" xmlns="http://www.w3.org/2000/svg" viewBox="0 0 54 65"><g clip-path="url(#clip0_1119_33360)"><path d="M48.287 61.327 20.947 59.8c-3.21-.177-5.86-3.309-5.918-6.992L14.26 6.835c-.049-3.132 1.783-5.643 4.294-6.224L4.786 3.79C2.275 4.374.443 6.885.492 10.017L1.26 55.99c.06 3.683 2.709 6.815 5.92 6.992l27.339 1.527c.482.03.955-.02 1.398-.118l13.758-3.172a5.04 5.04 0 0 1-1.398.119l.01-.01Z" fill="#E68169" stroke="#231815" stroke-miterlimit="10"/><path d="M46.583 2.019c3.21.177 5.86 3.309 5.92 6.992l.767 45.973c.06 3.683-2.491 6.52-5.702 6.342L20.228 59.8c-3.21-.177-5.86-3.31-5.918-6.993l-.77-45.972C13.482 3.15 16.034.315 19.244.492l27.34 1.527Z" fill="#fff" stroke="#231815" stroke-linecap="round" stroke-linejoin="round"/><path d="m47.549 61.376-27.34-1.527c-3.21-.177-5.85-3.309-5.909-6.992l-.67-45.993c-.02-1.575.434-2.993 1.202-4.087.778-1.093 1.871-1.87 3.142-2.147l-6.885 1.527c-2.54.561-4.392 3.092-4.353 6.234l.67 45.992c.05 3.684 2.699 6.816 5.91 6.993l27.339 1.526c.472.03.925-.01 1.359-.108l6.884-1.526a4.789 4.789 0 0 1-1.36.108h.01Z" fill="#fff" stroke="#231815" stroke-linecap="round" stroke-linejoin="round"/><path d="M46.692 2.039c3.21.177 5.85 3.309 5.909 6.992l.67 45.992c.049 3.684-2.502 6.52-5.712 6.343l-27.34-1.527c-3.21-.177-5.85-3.309-5.909-6.992l-.67-45.992C13.591 3.17 16.142.325 19.352.512l27.34 1.527Z" fill="#fff" stroke="#231815" stroke-linecap="round" stroke-linejoin="round"/><path d="M24.859 13.158c.276.147.443.285.522.443.079.157.118.384.118.699.109-.02.256-.089.434-.197a.989.989 0 0 1 .551-.177c.266 0 .473.03.6.098.129.06.198.148.198.266 0 .118-.256.246-.778.404-.581.138-.916.226-1.005.256v2.689c0 .354-.059.709-.177 1.053-.158.483-.374.72-.64.72-.109 0-.217-.1-.325-.296-.305-.542-.463-.827-.483-.847l-.147-.118c-.05-.05-.08-.089-.08-.138 0-.06.1-.099.296-.099.217 0 .355-.01.433-.039.138-.05.217-.177.217-.364v-2.266c-.177 0-.423.07-.738.197-.316.138-.552.197-.72.197-.157 0-.393-.059-.709-.177-.187-.069-.285-.138-.285-.187 0-.04.05-.069.148-.089a.832.832 0 0 1 .226-.04 7.748 7.748 0 0 0 1.054-.206c.187-.04.532-.148 1.014-.305v-.473c0-.217-.03-.394-.078-.532-.05-.148-.168-.246-.345-.325-.286.119-.503.197-.64.256a8.02 8.02 0 0 0-.64.296s-.09.079-.227.207a.438.438 0 0 1-.295.128c-.099 0-.316-.07-.66-.207-.345-.138-.512-.236-.512-.296 0-.03.049-.059.147-.098.099-.04.217-.07.365-.099a18.098 18.098 0 0 0 1.644-.403c.73-.237 1.28-.404 1.635-.513.108-.216.227-.521.345-.925.158-.502.246-.867.246-1.103v-.187c-.286.049-.473.078-.542.088-.069.02-.197.05-.364.108-.197.09-.345.148-.443.188a1.358 1.358 0 0 1-.473.118c-.108 0-.345-.079-.719-.236-.374-.158-.551-.276-.551-.355 0-.05.098-.079.295-.079.256 0 .561-.02.926-.05.364-.029.62-.068.778-.117v-.7c0-.344-.079-.62-.246-.817a14.14 14.14 0 0 1-.572-.512c0-.148.178-.217.532-.217.325 0 .64.07.936.207.295.138.453.335.453.581 0 .148-.04.384-.118.739-.05.197-.07.344-.07.443l1.005-.295c.168 0 .335.02.483.068.148.04.227.128.227.266 0 .158-.138.286-.414.365-.07.02-.276.049-.62.108.137.069.275.177.413.305.187.168.286.316.286.434 0 .059-.07.148-.217.256a.575.575 0 0 0-.158.148 2.055 2.055 0 0 0-.305.472c-.088.187-.157.335-.217.453.128 0 .266-.03.434-.079.374-.127.61-.187.699-.187.246 0 .463.05.65.158s.276.217.276.335c0 .138-.138.197-.414.197-.571.049-1.054.108-1.457.157-.404.05-.798.119-1.182.197l-.02.05Zm-1.389 3.978c0 .483-.078.877-.226 1.182-.148.305-.315.453-.492.453-.119 0-.207-.069-.276-.197-.07-.128-.099-.345-.099-.64 0-.177.118-.581.345-1.211.226-.63.394-.946.492-.946.07 0 .138.148.188.434.049.285.078.59.078.925h-.01Zm1.015-4.865a.68.68 0 0 1-.138.384c-.089.128-.197.197-.305.197a.362.362 0 0 1-.286-.138c-.05-.039-.099-.138-.177-.295l-.237-1.33c0-.098.04-.147.119-.147.226 0 .453.167.68.492.226.325.344.61.344.827v.01Zm2.757 4.767c0 .236-.069.364-.216.364-.207 0-.503-.216-.887-.66-.384-.433-.57-.748-.57-.935 0-.07.048-.109.147-.109.069 0 .177.04.325.109.522.197.847.384.994.551.148.168.217.394.217.68h-.01Zm3.88-4.314c.267.128.444.217.513.286a.337.337 0 0 1 .118.266c-.03.187-.04.364-.04.522v3.338c0 .69-.029 1.212-.078 1.576-.079.522-.207.778-.375.778-.167 0-.295-.187-.403-.551-.109-.365-.158-.66-.158-.887 0-.157.01-.374.04-.64s.039-.423.039-.473v-3.25c0-.167-.04-.335-.108-.482-.099-.197-.227-.296-.375-.296-.039 0-.226.02-.561.07a2.454 2.454 0 0 1-.305.029c0 .975-.138 1.92-.414 2.856-.315 1.044-.748 1.88-1.31 2.521a2.65 2.65 0 0 1-.236.236c-.099.09-.168.128-.217.138-.02 0-.04-.03-.049-.098a.8.8 0 0 1 .089-.286c.059-.128.088-.197.098-.216.296-.65.532-1.497.719-2.532.187-1.034.276-2.412.276-4.136 0-.167-.07-.354-.217-.551-.148-.197-.295-.394-.453-.601 0-.079.118-.118.345-.118.216 0 .443.04.68.138.275-.168.689-.513 1.25-1.015.64-.59.965-.965.965-1.123v-.216c-.01-.118.02-.177.099-.177.207 0 .473.147.817.433.345.285.512.542.512.738 0 .08-.059.138-.177.178-.118.04-.236.069-.345.088a29.03 29.03 0 0 0-1.644.857c-.581.325-.906.502-.995.552a.64.64 0 0 1 .276.305c.059.138.088.286.088.443 0 .128-.02.315-.069.562a3.014 3.014 0 0 0-.069.521 15.374 15.374 0 0 0 1.36-.216 5.022 5.022 0 0 0 1.28-.483c.157-.098.354-.147.571-.147.148 0 .325.039.542.108.216.069.334.167.334.286 0 .187-.344.344-1.043.482-.769.108-1.212.167-1.34.187h-.03Zm5.978-1.92c-.147 1.231-.472 2.501-.955 3.801-.58 1.586-1.24 2.68-1.97 3.28-.236.197-.383.295-.472.295l-.04-.049s.03-.128.09-.246c.058-.118.108-.217.137-.286.502-.906.946-1.96 1.34-3.17.443-1.37.67-2.483.67-3.35 0-.196-.04-.383-.119-.56-.079-.178-.167-.365-.256-.562 0-.089.05-.138.148-.138.147 0 .384.089.69.256.304.168.472.266.501.286.286-.03.591-.07.906-.118.316-.05.926-.158 1.813-.316v-.364c0-.364-.09-.68-.256-.926a35.877 35.877 0 0 1-.562-.63c0-.06.04-.108.128-.138a.78.78 0 0 1 .246-.05c.276 0 .62.09 1.015.277.403.187.6.394.6.62 0 .108-.03.266-.088.483a2.186 2.186 0 0 0-.089.561v.069a10.3 10.3 0 0 0 1.527-.108c.325-.099.65-.197.985-.296.266 0 .541.05.827.158.364.138.551.315.551.522 0 .079-.049.128-.137.147a1.46 1.46 0 0 1-.306.03h-2.157c-.817 0-1.634.04-2.452.128-.817.089-1.585.217-2.334.394h.02Zm5.614 7.485c.119.069.178.147.178.226 0 .08-.05.148-.148.207a.665.665 0 0 1-.345.089h-1.31c-.512-.01-.935 0-1.29.02-.344.02-.61.068-.778.128 0 .403-.089.6-.266.6-.177 0-.364-.157-.58-.463-.217-.305-.326-.561-.326-.768 0-.345-.079-.837-.246-1.457-.168-.62-.335-1.054-.512-1.29-.108-.138-.158-.217-.158-.257 0-.039.05-.069.158-.069.197 0 .384.06.571.178.246.147.424.236.512.266l1.477-.197v-3.27c0-.148-.098-.364-.295-.64-.197-.276-.296-.443-.296-.493 0-.118.09-.177.267-.177.265 0 .6.108 1.014.325.404.217.61.424.61.61 0 .05-.03.139-.098.267a1.933 1.933 0 0 0-.118.256v.738c.207 0 .571-.088 1.113-.285.285-.099.512-.148.67-.148.177 0 .374.04.57.118.197.079.306.187.306.325s-.246.256-.749.335c-.502.079-1.152.118-1.96.118l-.078 1.812c.315-.04.6-.069.857-.108.256-.04.433-.079.531-.118.099-.04.217-.108.345-.197.128-.089.217-.138.276-.138.118 0 .384.177.817.522.434.345.64.581.64.68 0 .078-.049.167-.138.256-.088.088-.157.147-.196.187-.09.078-.256.354-.512.827l-.513.965v.02Zm-4.353-2.157c.099.246.207.63.325 1.142.08.394.168.788.256 1.192a270.87 270.87 0 0 1 2.788-.286c.059-.137.187-.521.384-1.162.187-.64.285-1.004.285-1.093a.355.355 0 0 0-.069-.216.248.248 0 0 0-.197-.09l-3.762.513h-.01Z" fill="#231815"/><path d="M24.859 13.158c.276.147.443.285.522.443.079.157.118.384.118.699.109-.02.256-.089.434-.197a.989.989 0 0 1 .551-.177c.266 0 .473.03.6.098.129.06.198.148.198.266 0 .118-.256.246-.778.404-.581.138-.916.226-1.005.256v2.689c0 .354-.059.709-.177 1.053-.158.483-.374.72-.64.72-.109 0-.217-.1-.325-.296-.305-.542-.463-.827-.483-.847l-.147-.118c-.05-.05-.08-.089-.08-.138 0-.06.1-.099.296-.099.217 0 .355-.01.433-.039.138-.05.217-.177.217-.364v-2.266c-.177 0-.423.07-.738.197-.316.138-.552.197-.72.197-.157 0-.393-.059-.709-.177-.187-.069-.285-.138-.285-.187 0-.04.05-.069.148-.089a.832.832 0 0 1 .226-.04 7.748 7.748 0 0 0 1.054-.206c.187-.04.532-.148 1.014-.305v-.473c0-.217-.03-.394-.078-.532-.05-.148-.168-.246-.345-.325-.286.119-.503.197-.64.256a8.02 8.02 0 0 0-.64.296s-.09.079-.227.207a.438.438 0 0 1-.295.128c-.099 0-.316-.07-.66-.207-.345-.138-.512-.236-.512-.296 0-.03.049-.059.147-.098.099-.04.217-.07.365-.099a18.098 18.098 0 0 0 1.644-.403c.73-.237 1.28-.404 1.635-.513.108-.216.227-.521.345-.925.158-.502.246-.867.246-1.103v-.187c-.286.049-.473.078-.542.088-.069.02-.197.05-.364.108-.197.09-.345.148-.443.188a1.358 1.358 0 0 1-.473.118c-.108 0-.345-.079-.719-.236-.374-.158-.551-.276-.551-.355 0-.05.098-.079.295-.079.256 0 .561-.02.926-.05.364-.029.62-.068.778-.117v-.7c0-.344-.079-.62-.246-.817a14.14 14.14 0 0 1-.572-.512c0-.148.178-.217.532-.217.325 0 .64.07.936.207.295.138.453.335.453.581 0 .148-.04.384-.118.739-.05.197-.07.344-.07.443l1.005-.295c.168 0 .335.02.483.068.148.04.227.128.227.266 0 .158-.138.286-.414.365-.07.02-.276.049-.62.108.137.069.275.177.413.305.187.168.286.316.286.434 0 .059-.07.148-.217.256a.575.575 0 0 0-.158.148 2.055 2.055 0 0 0-.305.472c-.088.187-.157.335-.217.453.128 0 .266-.03.434-.079.374-.127.61-.187.699-.187.246 0 .463.05.65.158s.276.217.276.335c0 .138-.138.197-.414.197-.571.049-1.054.108-1.457.157-.404.05-.798.119-1.182.197l-.02.05Zm-1.389 3.978c0 .483-.078.877-.226 1.182-.148.305-.315.453-.492.453-.119 0-.207-.069-.276-.197-.07-.128-.099-.345-.099-.64 0-.177.118-.581.345-1.211.226-.63.394-.946.492-.946.07 0 .138.148.188.434.049.285.078.59.078.925h-.01Zm1.015-4.865a.68.68 0 0 1-.138.384c-.089.128-.197.197-.305.197a.362.362 0 0 1-.286-.138c-.05-.039-.099-.138-.177-.295l-.237-1.33c0-.098.04-.147.119-.147.226 0 .453.167.68.492.226.325.344.61.344.827v.01Zm2.757 4.767c0 .236-.069.364-.216.364-.207 0-.503-.216-.887-.66-.384-.433-.57-.748-.57-.935 0-.07.048-.109.147-.109.069 0 .177.04.325.109.522.197.847.384.994.551.148.168.217.394.217.68h-.01Zm3.88-4.314c.267.128.444.217.513.286a.337.337 0 0 1 .118.266c-.03.187-.04.364-.04.522v3.338c0 .69-.029 1.212-.078 1.576-.079.522-.207.778-.375.778-.167 0-.295-.187-.403-.551-.109-.365-.158-.66-.158-.887 0-.157.01-.374.04-.64s.039-.423.039-.473v-3.25c0-.167-.04-.335-.108-.482-.099-.197-.227-.296-.375-.296-.039 0-.226.02-.561.07a2.454 2.454 0 0 1-.305.029c0 .975-.138 1.92-.414 2.856-.315 1.044-.748 1.88-1.31 2.521a2.65 2.65 0 0 1-.236.236c-.099.09-.168.128-.217.138-.02 0-.04-.03-.049-.098a.8.8 0 0 1 .089-.286c.059-.128.088-.197.098-.216.296-.65.532-1.497.719-2.532.187-1.034.276-2.412.276-4.136 0-.167-.07-.354-.217-.551-.148-.197-.295-.394-.453-.601 0-.079.118-.118.345-.118.216 0 .443.04.68.138.275-.168.689-.513 1.25-1.015.64-.59.965-.965.965-1.123v-.216c-.01-.118.02-.177.099-.177.207 0 .473.147.817.433.345.285.512.542.512.738 0 .08-.059.138-.177.178-.118.04-.236.069-.345.088a29.03 29.03 0 0 0-1.644.857c-.581.325-.906.502-.995.552a.64.64 0 0 1 .276.305c.059.138.088.286.088.443 0 .128-.02.315-.069.562a3.014 3.014 0 0 0-.069.521 15.374 15.374 0 0 0 1.36-.216 5.022 5.022 0 0 0 1.28-.483c.157-.098.354-.147.571-.147.148 0 .325.039.542.108.216.069.334.167.334.286 0 .187-.344.344-1.043.482-.769.108-1.212.167-1.34.187h-.03Zm5.978-1.92c-.147 1.231-.472 2.501-.955 3.801-.58 1.586-1.24 2.68-1.97 3.28-.236.197-.383.295-.472.295l-.04-.049s.03-.128.09-.246c.058-.118.108-.217.137-.286.502-.906.946-1.96 1.34-3.17.443-1.37.67-2.483.67-3.35 0-.196-.04-.383-.119-.56-.079-.178-.167-.365-.256-.562 0-.089.05-.138.148-.138.147 0 .384.089.69.256.304.168.472.266.501.286.286-.03.591-.07.906-.118.316-.05.926-.158 1.813-.316v-.364c0-.364-.09-.68-.256-.926a35.877 35.877 0 0 1-.562-.63c0-.06.04-.108.128-.138a.78.78 0 0 1 .246-.05c.276 0 .62.09 1.015.277.403.187.6.394.6.62 0 .108-.03.266-.088.483a2.186 2.186 0 0 0-.089.561v.069a10.3 10.3 0 0 0 1.527-.108c.325-.099.65-.197.985-.296.266 0 .541.05.827.158.364.138.551.315.551.522 0 .079-.049.128-.137.147a1.46 1.46 0 0 1-.306.03h-2.157c-.817 0-1.634.04-2.452.128-.817.089-1.585.217-2.334.394h.02Zm5.614 7.485c.119.069.178.147.178.226 0 .08-.05.148-.148.207a.665.665 0 0 1-.345.089h-1.31c-.512-.01-.935 0-1.29.02-.344.02-.61.068-.778.128 0 .403-.089.6-.266.6-.177 0-.364-.157-.58-.463-.217-.305-.326-.561-.326-.768 0-.345-.079-.837-.246-1.457-.168-.62-.335-1.054-.512-1.29-.108-.138-.158-.217-.158-.257 0-.039.05-.069.158-.069.197 0 .384.06.571.178.246.147.424.236.512.266l1.477-.197v-3.27c0-.148-.098-.364-.295-.64-.197-.276-.296-.443-.296-.493 0-.118.09-.177.267-.177.265 0 .6.108 1.014.325.404.217.61.424.61.61 0 .05-.03.139-.098.267a1.933 1.933 0 0 0-.118.256v.738c.207 0 .571-.088 1.113-.285.285-.099.512-.148.67-.148.177 0 .374.04.57.118.197.079.306.187.306.325s-.246.256-.749.335c-.502.079-1.152.118-1.96.118l-.078 1.812c.315-.04.6-.069.857-.108.256-.04.433-.079.531-.118.099-.04.217-.108.345-.197.128-.089.217-.138.276-.138.118 0 .384.177.817.522.434.345.64.581.64.68 0 .078-.049.167-.138.256-.088.088-.157.147-.196.187-.09.078-.256.354-.512.827l-.513.965v.02Zm-4.353-2.157c.099.246.207.63.325 1.142.08.394.168.788.256 1.192a270.87 270.87 0 0 1 2.788-.286c.059-.137.187-.521.384-1.162.187-.64.285-1.004.285-1.093a.355.355 0 0 0-.069-.216.248.248 0 0 0-.197-.09l-3.762.513h-.01Z" stroke="#231815" stroke-width="2"/><path d="M24.859 13.158c.276.147.443.285.522.443.079.157.118.384.118.699.109-.02.256-.089.434-.197a.989.989 0 0 1 .551-.177c.266 0 .473.03.6.098.129.06.198.148.198.266 0 .118-.256.246-.778.404-.581.138-.916.226-1.005.256v2.689c0 .354-.059.709-.177 1.053-.158.483-.374.72-.64.72-.109 0-.217-.1-.325-.296-.305-.542-.463-.827-.483-.847l-.147-.118c-.05-.05-.08-.089-.08-.138 0-.06.1-.099.296-.099.217 0 .355-.01.433-.039.138-.05.217-.177.217-.364v-2.266c-.177 0-.423.07-.738.197-.316.138-.552.197-.72.197-.157 0-.393-.059-.709-.177-.187-.069-.285-.138-.285-.187 0-.04.05-.069.148-.089a.832.832 0 0 1 .226-.04 7.748 7.748 0 0 0 1.054-.206c.187-.04.532-.148 1.014-.305v-.473c0-.217-.03-.394-.078-.532-.05-.148-.168-.246-.345-.325-.286.119-.503.197-.64.256a8.02 8.02 0 0 0-.64.296s-.09.079-.227.207a.438.438 0 0 1-.295.128c-.099 0-.316-.07-.66-.207-.345-.138-.512-.236-.512-.296 0-.03.049-.059.147-.098.099-.04.217-.07.365-.099a18.098 18.098 0 0 0 1.644-.403c.73-.237 1.28-.404 1.635-.513.108-.216.227-.521.345-.925.158-.502.246-.867.246-1.103v-.187c-.286.049-.473.078-.542.088-.069.02-.197.05-.364.108-.197.09-.345.148-.443.188a1.358 1.358 0 0 1-.473.118c-.108 0-.345-.079-.719-.236-.374-.158-.551-.276-.551-.355 0-.05.098-.079.295-.079.256 0 .561-.02.926-.05.364-.029.62-.068.778-.117v-.7c0-.344-.079-.62-.246-.817a14.14 14.14 0 0 1-.572-.512c0-.148.178-.217.532-.217.325 0 .64.07.936.207.295.138.453.335.453.581 0 .148-.04.384-.118.739-.05.197-.07.344-.07.443l1.005-.295c.168 0 .335.02.483.068.148.04.227.128.227.266 0 .158-.138.286-.414.365-.07.02-.276.049-.62.108.137.069.275.177.413.305.187.168.286.316.286.434 0 .059-.07.148-.217.256a.575.575 0 0 0-.158.148 2.055 2.055 0 0 0-.305.472c-.088.187-.157.335-.217.453.128 0 .266-.03.434-.079.374-.127.61-.187.699-.187.246 0 .463.05.65.158s.276.217.276.335c0 .138-.138.197-.414.197-.571.049-1.054.108-1.457.157-.404.05-.798.119-1.182.197l-.02.05Zm-1.389 3.978c0 .483-.078.877-.226 1.182-.148.305-.315.453-.492.453-.119 0-.207-.069-.276-.197-.07-.128-.099-.345-.099-.64 0-.177.118-.581.345-1.211.226-.63.394-.946.492-.946.07 0 .138.148.188.434.049.285.078.59.078.925h-.01Zm1.015-4.865a.68.68 0 0 1-.138.384c-.089.128-.197.197-.305.197a.362.362 0 0 1-.286-.138c-.05-.039-.099-.138-.177-.295l-.237-1.33c0-.098.04-.147.119-.147.226 0 .453.167.68.492.226.325.344.61.344.827v.01Zm2.757 4.767c0 .236-.069.364-.216.364-.207 0-.503-.216-.887-.66-.384-.433-.57-.748-.57-.935 0-.07.048-.109.147-.109.069 0 .177.04.325.109.522.197.847.384.994.551.148.168.217.394.217.68h-.01Zm3.88-4.314c.267.128.444.217.513.286a.337.337 0 0 1 .118.266c-.03.187-.04.364-.04.522v3.338c0 .69-.029 1.212-.078 1.576-.079.522-.207.778-.375.778-.167 0-.295-.187-.403-.551-.109-.365-.158-.66-.158-.887 0-.157.01-.374.04-.64s.039-.423.039-.473v-3.25c0-.167-.04-.335-.108-.482-.099-.197-.227-.296-.375-.296-.039 0-.226.02-.561.07a2.454 2.454 0 0 1-.305.029c0 .975-.138 1.92-.414 2.856-.315 1.044-.748 1.88-1.31 2.521a2.65 2.65 0 0 1-.236.236c-.099.09-.168.128-.217.138-.02 0-.04-.03-.049-.098a.8.8 0 0 1 .089-.286c.059-.128.088-.197.098-.216.296-.65.532-1.497.719-2.532.187-1.034.276-2.412.276-4.136 0-.167-.07-.354-.217-.551-.148-.197-.295-.394-.453-.601 0-.079.118-.118.345-.118.216 0 .443.04.68.138.275-.168.689-.513 1.25-1.015.64-.59.965-.965.965-1.123v-.216c-.01-.118.02-.177.099-.177.207 0 .473.147.817.433.345.285.512.542.512.738 0 .08-.059.138-.177.178-.118.04-.236.069-.345.088a29.03 29.03 0 0 0-1.644.857c-.581.325-.906.502-.995.552a.64.64 0 0 1 .276.305c.059.138.088.286.088.443 0 .128-.02.315-.069.562a3.014 3.014 0 0 0-.069.521 15.374 15.374 0 0 0 1.36-.216 5.022 5.022 0 0 0 1.28-.483c.157-.098.354-.147.571-.147.148 0 .325.039.542.108.216.069.334.167.334.286 0 .187-.344.344-1.043.482-.769.108-1.212.167-1.34.187h-.03Zm5.978-1.92c-.147 1.231-.472 2.501-.955 3.801-.58 1.586-1.24 2.68-1.97 3.28-.236.197-.383.295-.472.295l-.04-.049s.03-.128.09-.246c.058-.118.108-.217.137-.286.502-.906.946-1.96 1.34-3.17.443-1.37.67-2.483.67-3.35 0-.196-.04-.383-.119-.56-.079-.178-.167-.365-.256-.562 0-.089.05-.138.148-.138.147 0 .384.089.69.256.304.168.472.266.501.286.286-.03.591-.07.906-.118.316-.05.926-.158 1.813-.316v-.364c0-.364-.09-.68-.256-.926a35.877 35.877 0 0 1-.562-.63c0-.06.04-.108.128-.138a.78.78 0 0 1 .246-.05c.276 0 .62.09 1.015.277.403.187.6.394.6.62 0 .108-.03.266-.088.483a2.186 2.186 0 0 0-.089.561v.069a10.3 10.3 0 0 0 1.527-.108c.325-.099.65-.197.985-.296.266 0 .541.05.827.158.364.138.551.315.551.522 0 .079-.049.128-.137.147a1.46 1.46 0 0 1-.306.03h-2.157c-.817 0-1.634.04-2.452.128-.817.089-1.585.217-2.334.394h.02Zm5.614 7.485c.119.069.178.147.178.226 0 .08-.05.148-.148.207a.665.665 0 0 1-.345.089h-1.31c-.512-.01-.935 0-1.29.02-.344.02-.61.068-.778.128 0 .403-.089.6-.266.6-.177 0-.364-.157-.58-.463-.217-.305-.326-.561-.326-.768 0-.345-.079-.837-.246-1.457-.168-.62-.335-1.054-.512-1.29-.108-.138-.158-.217-.158-.257 0-.039.05-.069.158-.069.197 0 .384.06.571.178.246.147.424.236.512.266l1.477-.197v-3.27c0-.148-.098-.364-.295-.64-.197-.276-.296-.443-.296-.493 0-.118.09-.177.267-.177.265 0 .6.108 1.014.325.404.217.61.424.61.61 0 .05-.03.139-.098.267a1.933 1.933 0 0 0-.118.256v.738c.207 0 .571-.088 1.113-.285.285-.099.512-.148.67-.148.177 0 .374.04.57.118.197.079.306.187.306.325s-.246.256-.749.335c-.502.079-1.152.118-1.96.118l-.078 1.812c.315-.04.6-.069.857-.108.256-.04.433-.079.531-.118.099-.04.217-.108.345-.197.128-.089.217-.138.276-.138.118 0 .384.177.817.522.434.345.64.581.64.68 0 .078-.049.167-.138.256-.088.088-.157.147-.196.187-.09.078-.256.354-.512.827l-.513.965v.02Zm-4.353-2.157c.099.246.207.63.325 1.142.08.394.168.788.256 1.192a270.87 270.87 0 0 1 2.788-.286c.059-.137.187-.521.384-1.162.187-.64.285-1.004.285-1.093a.355.355 0 0 0-.069-.216.248.248 0 0 0-.197-.09l-3.762.513h-.01Z" fill="#E68169"/><path d="M48.582 30.038c.109.266.099.502-.069.719-.108.147-.226.285-.325.443-.108.167-.108.345.03.502l.177.207a.454.454 0 0 1 .089.453c-.07.217-.158.424-.236.64-.109.296-.296.493-.621.571-.217.05-.423.168-.62.276-.089.05-.158.158-.247.246.158.365.316.72.483 1.103-.148.07-.266.129-.384.168-.355.108-.571.345-.739.67-.433.837-.482 1.694-.197 2.59.128.394.256.778.345 1.181.079.355.098.73-.04 1.084-.088.236-.324.285-.482.089-.128-.158-.236-.335-.355-.503-.137-.207-.334-.236-.541-.177-.148.05-.296.118-.424.207a5.262 5.262 0 0 1-2.275.896c-.354.05-.709.177-1.054.276-.108.03-.206.098-.305.157-.088.06-.118.227-.049.306.138.157.266.315.433.433.325.256.66.492 1.005.719.354.226.473.561.404.945-.07.355-.089.72-.256 1.064-.08.158-.099.355-.109.532-.02.413 0 .827 0 1.23 0 .178-.02.355-.04.523-.54.138-1.388.148-2.008.04-.207-.336-.158-.74-.237-1.114-.078-.374-.049-.768-.059-1.181-.157-.04-.285-.099-.413-.09-.847.03-1.694-.068-2.531.1-.434.088-.759-.07-.975-.454-.158-.275-.355-.532-.64-.719-.237.128-.385.335-.523.542-.256.374-.521.749-.768 1.133a1.032 1.032 0 0 1-.64.472c-1.32.365-2.62.808-3.88 1.34a3.03 3.03 0 0 0-.965.63c-.08.079-.168.158-.247.246-.384.453-.856.739-1.457.808-.286.03-.512.187-.67.433-.177.266-.374.522-.522.798-.226.404-.571.571-1.024.551-.226 0-.453-.02-.68-.039-.226-.02-.443-.05-.699-.079-.03-.118-.079-.246-.079-.384-.01-.778-.315-1.418-.856-1.95-.05-.05-.089-.098-.148-.148-.177-.147-.227-.334-.207-.551.04-.433.089-.867.118-1.29a1.35 1.35 0 0 1 .286-.759c.482-.59.758-1.3 1.152-1.94.236-.374.492-.728.887-.935.57-.306.768-.818.807-1.409.04-.472.03-.955.03-1.438 0-.325-.128-.62-.256-.915-.168-.404-.365-.788-.532-1.192a.844.844 0 0 0-.414-.433c-.65-.345-1.33-.591-2.039-.798-.718-.207-1.447-.394-2.186-.591-.325-.61-.64-1.211-.975-1.852.128-.098.266-.216.414-.315.482-.305.975-.6 1.457-.896.68-.404 1.221-.955 1.655-1.605.167-.246.345-.483.502-.739a.912.912 0 0 1 .66-.443c.315-.05.63-.108.945-.128a.92.92 0 0 0 .72-.345c.157-.187.324-.374.482-.571a1.25 1.25 0 0 1 .867-.483c.522-.059 1.034-.177 1.546-.265.394-.07.68-.276.807-.65.148-.444.483-.71.867-.926.158-.089.325-.168.473-.276.295-.217.58-.433.62-.857.03-.276.237-.423.522-.453.315-.04.63-.079.946-.138a.856.856 0 0 0 .315-.108.36.36 0 0 0 .187-.345c0-.049-.02-.088-.03-.128-.069-.512.02-.61.503-.65.403-.03.768.06 1.083.315.118.099.276.178.384.286.492.502 1.133.66 1.792.758.109.02.227.01.345.02.177.01.305.098.365.266.088.256.187.512.256.778.108.394.197.798.285 1.201.06.257.177.463.404.62.68.464 1.35.936 2.039 1.39a.854.854 0 0 0 .315.108c.246.05.492.098.739.128.56.059 1.132.108 1.703.167.66.07 1.31.168 1.97.227.473.05.955.069 1.428.157.355.07.729.02 1.073-.147.266-.128.542-.237.828-.335.079-.03.177-.02.276-.03l.01.03Z" fill="#368AA5" stroke="#231815" stroke-linecap="round" stroke-linejoin="round"/></g><defs><clipPath id="clip0_1119_33360"><path fill="#fff" d="M0 0h53.763v65H0z"/></clipPath></defs></svg>