<svg fill="none" xmlns="http://www.w3.org/2000/svg" viewBox="0 0 512 512"><path d="M452.297 300.204c-1.242-4.656 0-9.623 3.414-14.9 37.56-51.839 41.906-61.151 40.044-70.774-1.242-2.794-13.348-6.829-19.246-8.692-11.175-3.414-20.798-6.518-24.212-13.968-2.794-6.519 0-14.59 2.793-24.213 3.104-9.312 7.14-21.108 2.794-26.075-4.035-4.966-22.971-3.725-34.456-3.104-15.521.932-25.764 1.863-31.041-4.656-4.967-6.208-3.105-13.969-1.863-20.177 1.863-8.071 1.863-10.243-.621-11.796-4.346-2.172-25.143 4.036-36.318 7.45-20.488 6.209-31.352 9.313-38.492 4.967-5.897-3.725-11.485-10.864-17.383-22.35-.931-1.552-2.483-2.173-4.346-1.552l-82.88 29.8 9.623 41.595c.931 4.036-1.552 8.382-5.898 9.313-4.036 1.241-8.381-1.552-9.313-5.898L180.063 59.323c-13.968 29.8-26.695 57.116-37.56 81.639-4.656 10.554-9.312 21.418-13.969 31.662-1.241 2.794-4.035 4.656-7.139 4.656-.931 0-2.173 0-3.104-.621-4.036-1.552-5.898-6.208-4.036-10.243 1.242-2.794 2.484-5.898 4.036-9.002C29.823 216.082-6.185 293.686 27.65 359.183c19.245 37.87 80.087 122.924 228.154 98.401 119.199-19.866 214.186-124.476 218.532-140.928-.621 0-4.967-2.173-7.14-3.104-5.587-2.794-12.727-5.898-14.589-13.348h-.31Zm-359.46-7.76c-14.28 0-26.075-11.796-26.075-26.075s11.796-26.075 26.075-26.075 26.075 11.796 26.075 26.075-11.796 26.075-26.075 26.075Zm123.234 0c-14.279 0-26.075-11.796-26.075-26.075s11.796-26.075 26.075-26.075 26.075 11.796 26.075 26.075-11.796 26.075-26.075 26.075Z" fill="#FFE600"/><path d="M473.715 299.583c-2.173-.931-5.898-2.793-6.208-3.104 0 0 0-.931 1.242-2.483 38.181-52.46 45.941-65.498 42.526-82.57-2.173-11.796-16.141-16.142-29.799-20.488-4.967-1.552-13.348-4.345-14.59-5.277-.31-1.862 1.863-8.691 3.415-13.037 4.345-13.037 9.622-29.179 0-40.975-9.002-11.175-29.49-9.933-47.494-8.691-6.518.31-16.452 1.241-17.693 1.241-.311-1.241.62-4.966 1.241-7.139 1.863-7.45 4.656-19.556-6.518-27.938-9.002-6.829-25.144-2.793-49.977 4.967-9.313 2.794-23.281 7.14-25.765 6.519-1.552-.931-5.587-4.346-11.795-16.142-4.346-8.381-14.279-12.416-23.281-9.002l-81.329 29.179-14.589-62.083c-.932-4.656-4.657-7.76-9.313-8.38-4.656-.932-9.002 1.862-10.864 6.207-16.142 33.836-30.421 64.567-42.527 91.883C-4.013 210.494-16.739 307.033 13.681 366.322c18.315 35.698 71.085 111.129 190.595 111.129 16.451 0 34.456-1.552 53.701-4.656 132.237-22.04 232.19-137.824 231.569-155.828-.31-10.244-9.623-14.59-15.831-17.694v.31ZM255.494 457.584c-147.757 24.523-208.599-60.531-228.155-98.401-33.524-65.498 2.484-143.101 91.573-202.08-1.242 3.104-2.794 5.898-4.036 9.002-1.552 4.036 0 8.381 4.036 10.244.931.31 2.172.621 3.104.621 3.104 0 5.898-1.863 7.139-4.657 4.346-10.243 9.002-21.108 13.969-31.662 10.864-24.523 23.591-51.839 37.56-81.639l24.833 105.852c.931 4.035 5.277 6.829 9.313 5.897 4.035-.931 6.829-5.277 5.897-9.312l-9.622-41.596 82.88-29.8c1.552-.62 3.415 0 4.346 1.553 5.898 11.485 11.796 18.625 17.383 22.35 7.14 4.345 18.004 1.241 38.492-4.967 11.175-3.415 31.662-9.623 36.318-7.45 2.483 1.863 2.483 4.035.621 11.796-1.552 6.208-3.415 13.968 1.862 20.177 5.277 6.518 15.521 5.587 31.042 4.656 11.485-.931 30.42-2.173 34.456 3.104 4.035 5.277 0 16.762-2.794 26.075-3.104 9.312-5.898 17.693-2.794 24.212 3.415 7.45 13.038 10.554 24.213 13.969 5.898 1.862 18.004 5.587 19.245 8.691 1.863 9.623-2.793 18.936-40.043 70.775-3.415 5.277-4.656 10.244-3.415 14.9 1.863 7.139 9.002 10.554 14.59 13.348 2.173 1.241 6.519 3.104 7.139 3.104-4.345 16.452-99.332 121.061-218.531 140.928l-.621.31Z" fill="#231815"/><path d="M216.382 240.294c-14.279 0-26.075 11.796-26.075 26.075s11.796 26.075 26.075 26.075 26.074-11.796 26.074-26.075-11.795-26.075-26.074-26.075Zm-123.545 0c-14.28 0-26.075 11.796-26.075 26.075s11.796 26.075 26.075 26.075 26.075-11.796 26.075-26.075-11.796-26.075-26.075-26.075Z" fill="#000"/></svg>