<svg fill="none" xmlns="http://www.w3.org/2000/svg" viewBox="0 0 200 200"><g clip-path="url(#clip0_1032_28584)"><path d="m120.16 26.56 2.89-1.87s.02-.09-.03-.09l-1.69.07 3.54-3.4s0-.1-.05-.08l-4.7 2.14.69-1.51s-.03-.09-.07-.06l-3.35 2.26 1.54-.04-.16 1.06 1.71-.15-.32 1.66v.01Z" fill="url(#paint0_linear_1032_28584)"/><path d="m134.99 45.37 2.33-1.6c.05-.04.02-.12-.04-.12l-1.36.07 2.51-2.24c.05-.05 0-.13-.06-.11l-3.16 1.12.71-1.09s-.01-.11-.07-.1l-2.24.66 1.03.49-.71 1.26 1.28.3-.22 1.35v.01Z" fill="url(#paint1_linear_1032_28584)"/><path d="m133.43 32.49 2.51-2.21a.07.07 0 0 0-.06-.12l-1.5.24 3.16-2.8c.06-.05 0-.14-.07-.12l-4.28 1.64 1.04-1.58c.04-.06-.02-.13-.08-.1l-3.56 1.46 1.99.54-.69 1.46h1.72l-.2 1.59h.02Z" fill="url(#paint2_linear_1032_28584)"/><path d="m110.96 29.69 6.99-2.5c.41-.15.87.03 1.07.42.28.54.7 1.24 1.15 1.51.76.47 4.94-1.65 5.89-.93.95.72-.19 2 .29 2.6.48.6 4.2-.51 5.09.6.89 1.11-.7 3.32-.37 4.06.33.74 3.25.87 3.44 1.9.19 1.03-.23 1.85-3.23 5.99-.91 1.36 1.5 1.17 1.54 2.18.04 1.01-7.55 9.88-17.58 11.55-10.03 1.67-15.83-2.87-18.46-8-2.63-5.14-.47-12.14 9.03-17.61 1.38-3.1 2.8-6.09 3.4-7.34.1-.2.4-.17.45.05l1.29 5.52h.01Z" fill="#E68169"/><path d="M104.74 33.94c.35-.82.72-1.65 1.09-2.48 1.38-3.1 2.8-6.09 3.4-7.34.1-.2.4-.17.45.05l1.29 5.52.88 3.77" stroke="#231815" stroke-miterlimit="10"/><path d="M105.82 31.45c-9.5 5.48-11.66 12.48-9.03 17.61 2.63 5.14 8.42 9.68 18.46 8 10.03-1.67 17.62-10.54 17.58-11.55-.04-1.01-2.45-.82-1.54-2.18 2.99-4.14 3.42-4.96 3.23-5.99-.19-1.03-3.11-1.17-3.44-1.9-.33-.74 1.26-2.96.37-4.06-.89-1.11-4.61 0-5.09-.6-.48-.6.66-1.88-.29-2.6-.95-.72-5.13 1.4-5.89.93-.44-.27-.87-.97-1.15-1.51a.88.88 0 0 0-1.07-.42l-6.99 2.5" stroke="#231815" stroke-miterlimit="10"/><path d="M112.08 43.48c-1.07 0-1.93-.87-1.93-1.93s.87-1.93 1.93-1.93 1.93.87 1.93 1.93-.87 1.93-1.93 1.93Z" fill="#231815"/><path d="M112.08 40.11a1.43 1.43 0 1 1 0 2.86 1.43 1.43 0 0 1 0-2.86Zm0-1c-1.34 0-2.43 1.09-2.43 2.43s1.09 2.43 2.43 2.43 2.43-1.09 2.43-2.43-1.09-2.43-2.43-2.43Zm-9.63 4.37c-1.07 0-1.93-.87-1.93-1.93s.87-1.93 1.93-1.93 1.93.87 1.93 1.93-.87 1.93-1.93 1.93Z" fill="#231815"/><path d="M102.45 40.11a1.43 1.43 0 1 1 0 2.86 1.43 1.43 0 0 1 0-2.86Zm0-1c-1.34 0-2.43 1.09-2.43 2.43s1.09 2.43 2.43 2.43 2.43-1.09 2.43-2.43-1.09-2.43-2.43-2.43Z" fill="#231815"/><path d="m174.48 12.67 2.89-1.87s.02-.09-.03-.09l-1.69.07 3.54-3.4s0-.1-.05-.08l-4.7 2.14.69-1.51s-.03-.09-.07-.06l-3.35 2.26 1.54-.04-.16 1.06 1.71-.15-.32 1.66v.01Z" fill="url(#paint3_linear_1032_28584)"/><path d="m189.31 31.47 2.33-1.6c.05-.04.02-.12-.04-.12l-1.36.07 2.51-2.24c.05-.05 0-.13-.06-.11l-3.16 1.12.71-1.09s-.01-.11-.07-.1l-2.24.66 1.03.49-.71 1.26 1.28.3-.22 1.35v.01Z" fill="url(#paint4_linear_1032_28584)"/><path d="m187.75 18.6 2.51-2.21a.07.07 0 0 0-.06-.12l-1.5.24 3.16-2.8c.06-.05 0-.14-.07-.12l-4.28 1.64 1.04-1.58c.04-.06-.02-.13-.08-.1l-3.56 1.46 1.99.54-.69 1.46h1.72l-.2 1.59h.02Z" fill="url(#paint5_linear_1032_28584)"/><path d="M160.14 17.56c1.38-3.1 2.8-6.09 3.4-7.34.1-.21.4-.17.45.05l1.29 5.52 6.99-2.5c.41-.15.87.03 1.07.42.28.54.7 1.23 1.15 1.51.76.47 4.94-1.65 5.89-.93.95.72-.19 2 .29 2.6.49.6 4.2-.5 5.09.6.89 1.11-.7 3.33-.37 4.06.33.74 3.25.88 3.44 1.9.19 1.03-.23 1.85-3.23 5.99-.91 1.36 1.5 1.17 1.54 2.18.04 1.01-7.55 9.88-17.58 11.55-10.03 1.67-15.83-2.87-18.46-8-2.63-5.14-.47-12.14 9.03-17.61h.01Z" fill="#74D194"/><path d="M159.06 20.05c.35-.82.72-1.65 1.09-2.48 1.38-3.1 2.8-6.09 3.4-7.34.1-.21.4-.17.45.05l1.29 5.52.88 3.77" stroke="#231815" stroke-miterlimit="10"/><path d="M160.14 17.56c-9.5 5.47-11.66 12.47-9.03 17.61 2.63 5.14 8.42 9.68 18.46 8 10.03-1.67 17.62-10.54 17.58-11.55-.04-1.01-2.45-.82-1.54-2.18 2.99-4.14 3.42-4.96 3.23-5.99-.19-1.03-3.11-1.17-3.44-1.9-.33-.74 1.26-2.95.37-4.06-.89-1.11-4.61 0-5.09-.6-.48-.6.66-1.88-.29-2.6-.95-.72-5.13 1.4-5.89.93-.44-.27-.87-.97-1.15-1.51a.869.869 0 0 0-1.07-.42l-6.99 2.5" stroke="#231815" stroke-miterlimit="10"/><path d="M166.4 29.59c-1.07 0-1.93-.87-1.93-1.93s.87-1.93 1.93-1.93 1.93.87 1.93 1.93-.87 1.93-1.93 1.93Z" fill="#231815"/><path d="M166.4 26.22a1.43 1.43 0 1 1 0 2.86 1.43 1.43 0 0 1 0-2.86Zm0-1c-1.34 0-2.43 1.09-2.43 2.43s1.09 2.43 2.43 2.43 2.43-1.09 2.43-2.43-1.09-2.43-2.43-2.43Zm-9.63 4.37c-1.07 0-1.93-.87-1.93-1.93s.87-1.93 1.93-1.93 1.93.87 1.93 1.93-.87 1.93-1.93 1.93Z" fill="#231815"/><path d="M156.77 26.22a1.43 1.43 0 1 1 0 2.86 1.43 1.43 0 0 1 0-2.86Zm0-1c-1.34 0-2.43 1.09-2.43 2.43s1.09 2.43 2.43 2.43 2.43-1.09 2.43-2.43-1.09-2.43-2.43-2.43Z" fill="#231815"/><path d="m169.29 58.06 2.89-1.87s.02-.09-.03-.09l-1.69.07 3.54-3.4s0-.1-.05-.08l-4.7 2.14.69-1.51s-.03-.09-.07-.06l-3.35 2.26 1.54-.04-.16 1.06 1.71-.15-.32 1.66v.01Z" fill="url(#paint6_linear_1032_28584)"/><path d="m184.12 76.87 2.33-1.6c.05-.04.02-.12-.04-.12l-1.36.07 2.51-2.24c.05-.05 0-.13-.06-.11l-3.16 1.12.71-1.09s-.01-.11-.07-.1l-2.24.66 1.03.49-.71 1.26 1.28.3-.22 1.35v.01Z" fill="url(#paint7_linear_1032_28584)"/><path d="m182.56 63.99 2.51-2.21a.07.07 0 0 0-.06-.12l-1.5.24 3.16-2.8c.06-.05 0-.14-.07-.12l-4.28 1.64 1.04-1.58c.04-.06-.02-.13-.08-.1l-3.56 1.46 1.99.54-.69 1.46h1.72l-.2 1.59h.02Z" fill="url(#paint8_linear_1032_28584)"/><path d="m160.09 61.19 6.99-2.5c.41-.15.87.03 1.07.42.28.54.7 1.24 1.15 1.51.76.47 4.94-1.65 5.89-.93.95.72-.19 2 .29 2.6.48.6 4.2-.51 5.09.6.89 1.11-.7 3.32-.37 4.06.33.74 3.25.87 3.44 1.9.19 1.03-.23 1.85-3.23 5.99-.91 1.36 1.5 1.17 1.54 2.18.04 1.01-7.55 9.88-17.58 11.55-10.03 1.67-15.83-2.87-18.46-8-2.63-5.14-.47-12.14 9.03-17.61 1.38-3.1 2.8-6.09 3.4-7.34.1-.2.4-.17.45.05l1.29 5.52h.01Z" fill="#F590A8"/><path d="M153.87 65.44c.35-.82.72-1.65 1.09-2.48 1.38-3.1 2.8-6.09 3.4-7.34.1-.2.4-.17.45.05l1.29 5.52.88 3.77" stroke="#231815" stroke-miterlimit="10"/><path d="M154.95 62.96c-9.5 5.48-11.66 12.48-9.03 17.61 2.63 5.14 8.42 9.68 18.46 8 10.03-1.67 17.62-10.54 17.58-11.55-.04-1.01-2.45-.82-1.54-2.18 2.99-4.14 3.42-4.96 3.23-5.99-.19-1.03-3.11-1.17-3.44-1.9-.33-.74 1.26-2.96.37-4.06-.89-1.11-4.61 0-5.09-.6-.48-.6.66-1.88-.29-2.6-.95-.72-5.13 1.4-5.89.93-.44-.27-.87-.97-1.15-1.51a.88.88 0 0 0-1.07-.42l-6.99 2.5" stroke="#231815" stroke-miterlimit="10"/><path d="M161.21 74.98c-1.07 0-1.93-.87-1.93-1.93s.87-1.93 1.93-1.93 1.93.87 1.93 1.93-.87 1.93-1.93 1.93Z" fill="#231815"/><path d="M161.21 71.61a1.43 1.43 0 1 1 0 2.86 1.43 1.43 0 0 1 0-2.86Zm0-1c-1.34 0-2.43 1.09-2.43 2.43s1.09 2.43 2.43 2.43 2.43-1.09 2.43-2.43-1.09-2.43-2.43-2.43Zm-9.63 4.37c-1.07 0-1.93-.87-1.93-1.93s.87-1.93 1.93-1.93 1.93.87 1.93 1.93-.87 1.93-1.93 1.93Z" fill="#231815"/><path d="M151.58 71.61a1.43 1.43 0 1 1 0 2.86 1.43 1.43 0 0 1 0-2.86Zm0-1c-1.34 0-2.43 1.09-2.43 2.43s1.09 2.43 2.43 2.43 2.43-1.09 2.43-2.43-1.09-2.43-2.43-2.43Z" fill="#231815"/><path d="m89.75 111.53 11.46 28.42c1.53 3.8-1.86 8.38-7.56 10.11l-66.21 20.1c-4.19 1.27-7.87.03-9.04-2.74l6.79 15.94c1.34 3.15 5.35 4.68 9.87 3.4l71.7-20.36c6.21-1.76 9.74-6.81 7.89-11.14l-13.77-32.04c-.21-.5-.52-.95-.9-1.35l-11.01-11.54c.34.35.6.76.78 1.2Z" fill="#00698A" stroke="#231815" stroke-width=".75" stroke-miterlimit="10"/><path d="M15.85 136.84c-.23-3.02 2.98-6.6 7.2-8.07l55.93-19.48c4.76-1.66 9.6-.69 10.78 2.24l11.46 28.42c1.53 3.8-1.86 8.38-7.56 10.11l-66.21 20.1c-4.94 1.5-9.14-.49-9.42-4.33l-2.17-28.99h-.01Z" fill="#fff" stroke="#231815" stroke-miterlimit="10"/><path d="m89.83 111.52 11.47 28.42c1.53 3.8-1.86 8.38-7.57 10.1l-66.27 19.99c-2.11.64-4.1.63-5.7.12-1.59-.51-2.79-1.52-3.36-2.91l3.21 7.72c1.24 2.98 5.09 4.39 9.46 3.11l68.9-20.13c5.95-1.74 9.42-6.54 7.73-10.59L95.15 117.2c-.19-.46-.47-.87-.81-1.24l-5.26-5.62c.32.35.58.74.76 1.17l-.01.01Z" fill="#fff" stroke="#231815" stroke-miterlimit="10"/><path d="M15.86 136.73c-.23-3.02 2.99-6.59 7.2-8.05l55.98-19.41c4.77-1.65 9.61-.68 10.79 2.25l11.47 28.42c1.53 3.8-1.86 8.38-7.57 10.1l-66.27 19.99c-4.94 1.49-9.14-.5-9.43-4.34l-2.17-28.97v.01Z" fill="#fff" stroke="#231815" stroke-miterlimit="10"/><path d="m77.04 75.22 6.94-4.5c.1-.06.05-.22-.07-.21l-4.06.16 8.51-8.17c.09-.09 0-.24-.13-.19l-11.3 5.15 1.67-3.63c.05-.11-.07-.21-.17-.15l-8.07 5.43 3.69-.09-.37 2.55 4.12-.36-.77 4 .01.01Z" fill="url(#paint9_linear_1032_28584)"/><path d="m112.7 120.45 5.61-3.85c.13-.09.06-.29-.09-.28l-3.28.16 6.04-5.39c.12-.11 0-.31-.15-.26l-7.61 2.7 1.72-2.62a.151.151 0 0 0-.17-.23l-5.39 1.59 2.48 1.17-1.71 3.02 3.08.73-.53 3.26Z" fill="url(#paint10_linear_1032_28584)"/><path d="m108.97 89.48 6.04-5.33c.12-.11.03-.31-.14-.29l-3.6.59 7.61-6.73c.14-.12 0-.34-.17-.28l-10.29 3.93 2.51-3.81c.09-.14-.05-.31-.2-.24l-8.56 3.51 4.79 1.3-1.66 3.52h4.14l-.47 3.83Z" fill="url(#paint11_linear_1032_28584)"/><path d="M42.57 86.99c3.32-7.46 6.73-14.64 8.17-17.65.24-.49.96-.41 1.08.12l3.1 13.28 16.81-6.02c.99-.35 2.1.07 2.58 1 .67 1.29 1.69 2.97 2.75 3.63 1.82 1.12 11.87-3.97 14.16-2.24 2.29 1.73-.46 4.81.7 6.26 1.17 1.45 10.1-1.22 12.25 1.45 2.15 2.66-1.68 7.99-.89 9.77.8 1.77 7.81 2.1 8.28 4.58.46 2.47-.56 4.44-7.76 14.4-2.2 3.28 3.6 2.81 3.69 5.24.09 2.43-18.15 23.76-42.28 27.78-24.13 4.02-38.06-6.89-44.38-19.25-6.32-12.35-1.13-29.19 21.73-42.35h.01Z" fill="#FFE600"/><path d="M39.96 92.97c.84-1.96 1.72-3.98 2.61-5.97 3.32-7.46 6.73-14.64 8.17-17.65.24-.49.96-.41 1.08.12l3.1 13.28 2.12 9.06" stroke="#231815" stroke-miterlimit="10"/><path d="M42.57 86.99c-22.85 13.17-28.05 30-21.73 42.35 6.32 12.35 20.25 23.27 44.38 19.25 24.13-4.02 42.38-25.35 42.28-27.78-.1-2.43-5.89-1.96-3.69-5.24 7.2-9.95 8.22-11.92 7.76-14.4-.47-2.48-7.48-2.81-8.28-4.58-.79-1.78 3.04-7.11.89-9.77-2.15-2.67-11.08 0-12.25-1.45-1.16-1.45 1.59-4.54-.7-6.26-2.29-1.73-12.34 3.36-14.16 2.24-1.06-.65-2.08-2.33-2.75-3.63a2.104 2.104 0 0 0-2.58-1l-16.81 6.02" stroke="#231815" stroke-miterlimit="10"/><path d="M57.61 115.21c-2.18 0-3.95-1.77-3.95-3.95s1.77-3.95 3.95-3.95 3.95 1.77 3.95 3.95-1.77 3.95-3.95 3.95Z" fill="#231815"/><path d="M57.61 107.81a3.45 3.45 0 1 1 0 6.901 3.45 3.45 0 0 1 0-6.901Zm0-1c-2.45 0-4.45 2-4.45 4.45s2 4.45 4.45 4.45 4.45-2 4.45-4.45-2-4.45-4.45-4.45Zm-23.16 8.4c-2.18 0-3.95-1.77-3.95-3.95s1.77-3.95 3.95-3.95 3.95 1.77 3.95 3.95-1.77 3.95-3.95 3.95Z" fill="#231815"/><path d="M34.45 107.81a3.45 3.45 0 1 1-.001 6.901 3.45 3.45 0 0 1 .001-6.901Zm0-1c-2.45 0-4.45 2-4.45 4.45s2 4.45 4.45 4.45 4.45-2 4.45-4.45-2-4.45-4.45-4.45Z" fill="#231815"/><path d="M30.79 155.26c-.3-1.02-2.63-1.24-5.2-.48-2.57.76-4.42 2.19-4.12 3.21.14.48.11 2.34.29 2.95.33 1.13 2.92 1.38 5.79.54 2.87-.84 4.92-2.44 4.59-3.57-.18-.62-1.2-2.16-1.34-2.64l-.01-.01Z" fill="#00698A" stroke="#231815" stroke-width=".75" stroke-miterlimit="10"/><path d="M30.79 155.26c.3 1.02-1.55 2.46-4.12 3.21-2.57.75-4.9.54-5.2-.48-.3-1.02 1.55-2.46 4.12-3.21 2.57-.75 4.9-.54 5.2.48Z" fill="#00698A" stroke="#231815" stroke-width=".75" stroke-miterlimit="10"/><path d="M22 142.49c-.96.28-1.65.82-1.54 1.2l3.93 13.44c.11.38.98.46 1.95.18s1.65-.82 1.54-1.2l-3.93-13.44c-.11-.38-.98-.46-1.95-.18Z" fill="#E86546" stroke="#231815" stroke-width=".75" stroke-miterlimit="10"/><path d="M22.632 144.628a6.78 6.78 0 0 0 4.606-8.409 6.779 6.779 0 0 0-8.41-4.606 6.78 6.78 0 1 0 3.804 13.015Z" fill="#E2CCAF" stroke="#231815" stroke-width=".75" stroke-miterlimit="10"/><path d="M47.82 157.48c.2-.95-1.58-2.13-3.98-2.64-2.4-.51-4.51-.15-4.71.81-.1.45-.92 1.93-1.04 2.51-.22 1.06 1.76 2.37 4.43 2.94 2.67.57 5.02.16 5.24-.9.12-.57-.03-2.26.06-2.71v-.01Z" fill="#00698A" stroke="#231815" stroke-width=".75" stroke-miterlimit="10"/><path d="M47.82 157.48c-.2.95-2.31 1.31-4.71.81s-4.18-1.69-3.98-2.64c.2-.95 2.31-1.31 4.71-.81s4.18 1.69 3.98 2.64Z" fill="#00698A" stroke="#231815" stroke-width=".75" stroke-miterlimit="10"/><path d="M46.25 143.39c-.9-.19-1.69-.05-1.76.3l-2.64 12.53c-.07.36.59.8 1.49.99.9.19 1.69.05 1.76-.3l2.64-12.53c.07-.36-.59-.8-1.49-.99Z" fill="#E86546" stroke="#231815" stroke-width=".75" stroke-miterlimit="10"/><path d="M53.165 140.589a6.2 6.2 0 1 0-12.134-2.557 6.2 6.2 0 1 0 12.134 2.557Z" fill="#E2CCAF" stroke="#231815" stroke-width=".75" stroke-miterlimit="10"/></g><defs><linearGradient id="paint0_linear_1032_28584" x1="118.14" y1="25.74" x2="124.36" y2="21.56" gradientUnits="userSpaceOnUse"><stop stop-color="#FFE600" stop-opacity=".1"/><stop offset=".36" stop-color="#FFE600" stop-opacity=".43"/><stop offset=".67" stop-color="#FFE600" stop-opacity=".69"/><stop offset=".89" stop-color="#FFE600" stop-opacity=".84"/><stop offset="1" stop-color="#FFE600" stop-opacity=".9"/></linearGradient><linearGradient id="paint1_linear_1032_28584" x1="134" y1="43.8" x2="138.21" y2="41.91" gradientUnits="userSpaceOnUse"><stop stop-color="#FFE600" stop-opacity=".1"/><stop offset=".36" stop-color="#FFE600" stop-opacity=".43"/><stop offset=".67" stop-color="#FFE600" stop-opacity=".69"/><stop offset=".89" stop-color="#FFE600" stop-opacity=".84"/><stop offset="1" stop-color="#FFE600" stop-opacity=".9"/></linearGradient><linearGradient id="paint2_linear_1032_28584" x1="131.11" y1="31.27" x2="136.99" y2="27.53" gradientUnits="userSpaceOnUse"><stop stop-color="#FFE600" stop-opacity=".1"/><stop offset=".36" stop-color="#FFE600" stop-opacity=".43"/><stop offset=".67" stop-color="#FFE600" stop-opacity=".69"/><stop offset=".89" stop-color="#FFE600" stop-opacity=".84"/><stop offset="1" stop-color="#FFE600" stop-opacity=".9"/></linearGradient><linearGradient id="paint3_linear_1032_28584" x1="172.46" y1="11.85" x2="178.68" y2="7.67" gradientUnits="userSpaceOnUse"><stop stop-color="#FFE600" stop-opacity=".1"/><stop offset=".36" stop-color="#FFE600" stop-opacity=".43"/><stop offset=".67" stop-color="#FFE600" stop-opacity=".69"/><stop offset=".89" stop-color="#FFE600" stop-opacity=".84"/><stop offset="1" stop-color="#FFE600" stop-opacity=".9"/></linearGradient><linearGradient id="paint4_linear_1032_28584" x1="188.32" y1="29.91" x2="192.52" y2="28.02" gradientUnits="userSpaceOnUse"><stop stop-color="#FFE600" stop-opacity=".1"/><stop offset=".36" stop-color="#FFE600" stop-opacity=".43"/><stop offset=".67" stop-color="#FFE600" stop-opacity=".69"/><stop offset=".89" stop-color="#FFE600" stop-opacity=".84"/><stop offset="1" stop-color="#FFE600" stop-opacity=".9"/></linearGradient><linearGradient id="paint5_linear_1032_28584" x1="185.43" y1="17.38" x2="191.31" y2="13.64" gradientUnits="userSpaceOnUse"><stop stop-color="#FFE600" stop-opacity=".1"/><stop offset=".36" stop-color="#FFE600" stop-opacity=".43"/><stop offset=".67" stop-color="#FFE600" stop-opacity=".69"/><stop offset=".89" stop-color="#FFE600" stop-opacity=".84"/><stop offset="1" stop-color="#FFE600" stop-opacity=".9"/></linearGradient><linearGradient id="paint6_linear_1032_28584" x1="167.27" y1="57.24" x2="173.49" y2="53.07" gradientUnits="userSpaceOnUse"><stop stop-color="#FFE600" stop-opacity=".1"/><stop offset=".36" stop-color="#FFE600" stop-opacity=".43"/><stop offset=".67" stop-color="#FFE600" stop-opacity=".69"/><stop offset=".89" stop-color="#FFE600" stop-opacity=".84"/><stop offset="1" stop-color="#FFE600" stop-opacity=".9"/></linearGradient><linearGradient id="paint7_linear_1032_28584" x1="183.14" y1="75.3" x2="187.34" y2="73.41" gradientUnits="userSpaceOnUse"><stop stop-color="#FFE600" stop-opacity=".1"/><stop offset=".36" stop-color="#FFE600" stop-opacity=".43"/><stop offset=".67" stop-color="#FFE600" stop-opacity=".69"/><stop offset=".89" stop-color="#FFE600" stop-opacity=".84"/><stop offset="1" stop-color="#FFE600" stop-opacity=".9"/></linearGradient><linearGradient id="paint8_linear_1032_28584" x1="180.24" y1="62.77" x2="186.13" y2="59.03" gradientUnits="userSpaceOnUse"><stop stop-color="#FFE600" stop-opacity=".1"/><stop offset=".36" stop-color="#FFE600" stop-opacity=".43"/><stop offset=".67" stop-color="#FFE600" stop-opacity=".69"/><stop offset=".89" stop-color="#FFE600" stop-opacity=".84"/><stop offset="1" stop-color="#FFE600" stop-opacity=".9"/></linearGradient><linearGradient id="paint9_linear_1032_28584" x1="72.18" y1="73.25" x2="87.15" y2="63.21" gradientUnits="userSpaceOnUse"><stop stop-color="#FFE600" stop-opacity=".1"/><stop offset=".36" stop-color="#FFE600" stop-opacity=".43"/><stop offset=".67" stop-color="#FFE600" stop-opacity=".69"/><stop offset=".89" stop-color="#FFE600" stop-opacity=".84"/><stop offset="1" stop-color="#FFE600" stop-opacity=".9"/></linearGradient><linearGradient id="paint10_linear_1032_28584" x1="110.34" y1="116.68" x2="120.44" y2="112.13" gradientUnits="userSpaceOnUse"><stop stop-color="#FFE600" stop-opacity=".1"/><stop offset=".36" stop-color="#FFE600" stop-opacity=".43"/><stop offset=".67" stop-color="#FFE600" stop-opacity=".69"/><stop offset=".89" stop-color="#FFE600" stop-opacity=".84"/><stop offset="1" stop-color="#FFE600" stop-opacity=".9"/></linearGradient><linearGradient id="paint11_linear_1032_28584" x1="103.38" y1="86.55" x2="117.53" y2="77.56" gradientUnits="userSpaceOnUse"><stop stop-color="#FFE600" stop-opacity=".1"/><stop offset=".36" stop-color="#FFE600" stop-opacity=".43"/><stop offset=".67" stop-color="#FFE600" stop-opacity=".69"/><stop offset=".89" stop-color="#FFE600" stop-opacity=".84"/><stop offset="1" stop-color="#FFE600" stop-opacity=".9"/></linearGradient><clipPath id="clip0_1032_28584"><path fill="#fff" d="M0 0h200v200H0z"/></clipPath></defs></svg>