<svg fill="none" xmlns="http://www.w3.org/2000/svg" viewBox="0 0 202 200"><path d="m95.025 59.41 55.68-5.52-47.59 31.15 10.53 39.38-20.04-16.12.6 28.99-15.77-28.77-17.68 28.51-4.52-32.53-38 12 31-33-39-7 32-13-16-55 36 44 19-50 8.64 40.81 31.22-21.39-26.07 37.49Z" fill="#FFE600" stroke="#231815" stroke-linecap="round" stroke-linejoin="round"/><path d="M11.025 47.69c-.23.53-.24 1.14.03 1.7.49 1 1.69 1.42 2.69.93 3.27-1.58 5.71-2.08 7.26-1.49 2 .77 3.17 3.66 4.52 7.01.57 1.41 1.16 2.87 1.88 4.36 3.69 7.65 12.07 8.07 15.98 7.22a2.013 2.013 0 0 0 1.54-2.4 2.017 2.017 0 0 0-2.39-1.55c-.35.07-8.29 1.64-11.51-5.03-.66-1.38-1.23-2.77-1.77-4.12-1.63-4.04-3.18-7.86-6.81-9.26-2.71-1.04-6.04-.53-10.47 1.62-.45.22-.77.57-.96.99" fill="#E86546"/><path d="M11.025 47.69c-.23.53-.24 1.14.03 1.7.49 1 1.69 1.42 2.69.93 3.27-1.58 5.71-2.08 7.26-1.49 2 .77 3.17 3.66 4.52 7.01.57 1.41 1.16 2.87 1.88 4.36 3.69 7.65 12.07 8.07 15.98 7.22a2.013 2.013 0 0 0 1.54-2.4 2.017 2.017 0 0 0-2.39-1.55c-.35.07-8.29 1.64-11.51-5.03-.66-1.38-1.23-2.77-1.77-4.12-1.63-4.04-3.18-7.86-6.81-9.26-2.71-1.04-6.04-.53-10.47 1.62-.45.22-.77.57-.96.99" stroke="#231815" stroke-miterlimit="10"/><path d="m5.005 50.81 5.82 1.32 5.81 1.32-1.76-5.69-1.77-5.69-4.05 4.37-4.05 4.37Z" fill="#E86546" stroke="#231815" stroke-miterlimit="10"/><path d="m56.255 24.48-11.35 4.87s-6.24-10.85-1.51-23.36c2.96 8.18 7.09 17.48 12.85 18.48l.01.01Zm20.72 5.14 6.8 11.91s12.79-5.45 16.96-19.7c-8.1 5.28-17.98 10.76-23.76 7.79Z" fill="#231815" stroke="#231815" stroke-miterlimit="10"/><path d="M86.595 44.51c-2.96 16.16-8.2 33.8-5.13 39.48 3.07 5.69.92 8.76-4.05 8.14-4.97-.62-7.87-6.27-13.54-5.08-5.66 1.19-4.94.99-7.72.8l-4.59-.93c-2.64-.9-2.05-.44-6.8-3.74-4.75-3.3-9.62.78-14.44-.59s-5.61-5.03-.57-9.08 7.07-22.34 10.62-38.37c1.35-6.08 5.18-11.73 12.32-13.4 5.54-1.29 11.63-.63 17.14 1.11 3.18 1.01 6.74 2.03 9.55 3.79 6.72 4.2 8.41 11.31 7.21 17.86v.01Z" fill="#E86546" stroke="#231815" stroke-miterlimit="10"/><path d="M67.635 50.68a2.09 2.09 0 0 1-2.51 1.57 2.09 2.09 0 0 1-1.57-2.51 2.09 2.09 0 0 1 2.51-1.57 2.09 2.09 0 0 1 1.57 2.51Zm9.17 2.5a2.09 2.09 0 0 1-2.51 1.57 2.09 2.09 0 0 1-1.57-2.51 2.094 2.094 0 0 1 4.08.94Z" fill="#231815" stroke="#231815" stroke-miterlimit="10"/><path d="M134.745 170.04h-1.28a3.38 3.38 0 0 0-3.38 3.38v19.81a3.38 3.38 0 0 0 3.38 3.38h1.28a3.38 3.38 0 0 0 3.38-3.38v-19.81a3.38 3.38 0 0 0-3.38-3.38Z" fill="#00698A"/><path d="M134.755 170.39c1.67 0 3.03 1.36 3.03 3.03v19.81c0 1.67-1.36 3.03-3.03 3.03h-1.29c-1.67 0-3.03-1.36-3.03-3.03v-19.81c0-1.67 1.36-3.03 3.03-3.03h1.29Zm0-.7h-1.29c-2.05 0-3.73 1.67-3.73 3.73v19.81c0 2.05 1.67 3.73 3.73 3.73h1.29c2.05 0 3.73-1.67 3.73-3.73v-19.81c0-2.05-1.67-3.73-3.73-3.73Z" fill="#231815"/><path d="M76.195 76.35h115.83a4.31 4.31 0 0 1 4.31 4.31v89.26a4.31 4.31 0 0 1-4.31 4.31H76.195a4.31 4.31 0 0 1-4.31-4.31V80.66a4.31 4.31 0 0 1 4.31-4.31Z" fill="#00698A"/><path d="M192.025 76.7a3.97 3.97 0 0 1 3.96 3.96v89.26a3.97 3.97 0 0 1-3.96 3.96H76.195a3.97 3.97 0 0 1-3.96-3.96V80.66a3.97 3.97 0 0 1 3.96-3.96h115.83Zm0-.7H76.195c-2.57 0-4.66 2.09-4.66 4.66v89.26c0 2.57 2.09 4.66 4.66 4.66h115.83c2.57 0 4.66-2.09 4.66-4.66V80.66c0-2.57-2.09-4.66-4.66-4.66Z" fill="#231815"/><mask id="mask0_1032_28415" style="mask-type:luminance" maskUnits="userSpaceOnUse" x="72" y="76" width="124" height="98"><path d="M192.025 76.7H76.195a3.96 3.96 0 0 0-3.96 3.96v89.27a3.96 3.96 0 0 0 3.96 3.96h115.83a3.96 3.96 0 0 0 3.96-3.96V80.66a3.96 3.96 0 0 0-3.96-3.96Z" fill="#fff"/></mask><g mask="url(#mask0_1032_28415)"><path d="M78.415 176.68h-11.08l8.48-102.08h11.08l-8.48 102.08Z" fill="#E86546"/><path d="M78.735 177.03h-11.78l8.54-102.78h11.78l-8.54 102.78Zm-11.02-.7h10.37l8.42-101.38h-10.37l-8.42 101.38Z" fill="#231815"/><path d="M97.415 176.68h-11.08l8.48-102.08h11.08l-8.48 102.08Z" fill="#E86546"/><path d="M97.735 177.03h-11.78l8.54-102.78h11.78l-8.54 102.78Zm-11.02-.7h10.37l8.42-101.38h-10.37l-8.42 101.38Z" fill="#231815"/><path d="M116.405 176.68h-11.07l8.48-102.08h11.07l-8.48 102.08Z" fill="#E86546"/><path d="M116.735 177.03h-11.78l8.54-102.78h11.78l-8.54 102.78Zm-11.02-.7h10.37l8.42-101.38h-10.37l-8.42 101.38Z" fill="#231815"/><path d="M135.405 176.68h-11.07l8.48-102.08h11.07l-8.48 102.08Z" fill="#E86546"/><path d="M135.725 177.03h-11.78l8.54-102.78h11.78l-8.54 102.78Zm-11.02-.7h10.37l8.42-101.38h-10.37l-8.42 101.38Z" fill="#231815"/><path d="M154.405 176.68h-11.07l8.48-102.08h11.07l-8.48 102.08Z" fill="#E86546"/><path d="M154.725 177.03h-11.78l8.54-102.78h11.78l-8.54 102.78Zm-11.02-.7h10.37l8.42-101.38h-10.37l-8.42 101.38Z" fill="#231815"/><path d="M173.405 176.68h-11.08l8.48-102.08h11.08l-8.48 102.08Z" fill="#E86546"/><path d="M173.725 177.03h-11.78l8.54-102.78h11.78l-8.54 102.78Zm-11.02-.7h10.37l8.42-101.38h-10.37l-8.42 101.38Z" fill="#231815"/><path d="M192.405 176.68h-11.08l8.48-102.08h11.08l-8.48 102.08Z" fill="#E86546"/><path d="M192.725 177.03h-11.78l8.54-102.78h11.78l-8.54 102.78Zm-11.02-.7h10.37l8.42-101.38h-10.37l-8.42 101.38Z" fill="#231815"/></g><path d="M188.995 165.4V85.18a1.49 1.49 0 0 0-1.49-1.49H80.715a1.49 1.49 0 0 0-1.49 1.49v80.22c0 .823.667 1.49 1.49 1.49h106.79a1.49 1.49 0 0 0 1.49-1.49Z" fill="#fff"/><path d="M187.505 167.24H80.715c-1.01 0-1.84-.83-1.84-1.84V85.18c0-1.01.83-1.84 1.84-1.84h106.79c1.01 0 1.84.83 1.84 1.84v80.22c0 1.01-.83 1.84-1.84 1.84Zm-106.79-83.2c-.63 0-1.14.51-1.14 1.14v80.22c0 .63.51 1.14 1.14 1.14h106.79c.63 0 1.14-.51 1.14-1.14V85.18c0-.63-.51-1.14-1.14-1.14H80.715Z" fill="#231815"/><path d="M108.375 127.5h.28v-.4h1.84v.4h.61v.31h1.07v-.71h1.84v.4h.61v1.01h2.21v.4h.61v.31h.09v.4h.61v3.25h-.71v1.41h-1.41v.58h.09v.4h.61v1.01h.09v.4h.61v1.01h.09v.4h.61v2.55h-1.84v-.4h-.61v-1.01h-.09v-.4h-.28v.4h-.71v.71h-.71v.71h-7.49v-.4h-.61v-.31h-.09v-.4h-.61v-2.43h-.09v-.4h-.61v-1.84h.71v-.71h.61v-.28h-.61v-.31h-.09v-.4h-.61v-2.55h.71v-.58h-.09v-.4h-.61v-1.84h2.12v-.71h1.84v.4l.01.02Zm-.92 2.64h.71v-2.82h-1.41v.71h-2.12v1.41h2.12v.71h-1.41v.71h-.71v2.12h.71v.71h.71v.71h-.71v.71h-.71v1.41h.71v2.82h.71v.71h7.06v-.71h.71v-.71h.71v-1.41h.71v1.41h.71v1.41h1.41v-2.12h-.71v-1.41h-.71v-1.41h-.71v-1.41h1.41v-1.41h.71v-2.82h-.71v-.71h-2.82v-1.41h-1.41v.71h-2.12v-.71h-1.41v2.82h.71v.71h-.71v2.12h.71v.71h-.71v.71h-1.41V133h.71v-2.12h-.71v-.71l-.02-.03Zm-1.41 1.41h.71v.71h-.71v-.71Zm.71 4.24h1.41v.71h-1.41v-.71Zm0 2.12h1.41v.71h-1.41v-.71Zm1.9-3.75v-.58h-.37v.58h.37Zm-.28-3.13h.28v-.28h-.28v.28Zm.61-.4h.28v-.28h-.28v.28Zm0 2.82h.28v-.28h-.28v.28Zm1.29.21h1.41v-.71h.71v-.71h.71v-1.41h.71v5.65h-.71v1.41h-.71v-1.41h-2.82v-.71h2.82v-1.41h-2.12v-.71.01Zm-.71 4.24h2.82v.71h-2.82v-.71Zm.71-8.47h2.12v1.41h-.71v-.71h-1.41v-.71.01Zm0 2.12h.71v.71h-.71v-.71Zm1.63-1.23h.28v-.28h-.28v.28Zm1.69 5.96v-3.41h-.37v.71h-.71v.58h.09v.4h.61v1.72h.38Zm-.98.4h.28v-.28h-.28v.28Zm2.61-6.54h.71v2.12h-.71v-2.12Zm7.7 4.03h.09v.4h.61v1.01h.37v-7.06h.71v-.71h1.41v-.71h1.84v.4h.61v.31h3.62v.4h.61v.31h.09v.4h.61v8.2h-.71v.71h-2.55v-.4h-.28v.98h2.92v.4h.61v1.84h-8.9v-.4h-.61v-.31h-.8v-.4h-.28v.4h-.71v.71h-1.84v-.4h-.61v-1.84h.71v-.71h.71v-2h-.8v-.4h-.61v-1.84h2.55v.4h.61v.31h.02Zm-.71-6.35h.8v.4h.61v1.84h-1.84v-.4h-.61v-.31h-.8v-.4h-.61v-1.84h1.84v.4h.61v.31Zm0 2.82h.8v.4h.61v1.84h-1.84v-.4h-.61v-.31h-.8v-.4h-.61v-1.84h1.84v.4h.61v.31Zm-.83-3.32h-1.41v1.41h1.41v.71h1.41v-1.41h-1.41v-.71Zm0 2.82h-1.41v1.41h1.41v.71h1.41v-1.41h-1.41v-.71Zm.71 3.53h-2.12v1.41h1.41v2.82h-.71v.71h-.71v1.41h1.41v-.71h.71v-.71h.71v.71h1.41v.71h8.47v-1.41h-7.77v-.71h-1.41v-.71h-.71v-2.82h-.71v-.71l.02.01Zm5.65-6.35h-1.41v.71h-1.41v.71h-.71v7.06h-.71v1.41h2.12v-.71h1.41v-1.41h-1.41v-5.65h1.41v-.71h.71v-1.41Zm-.22 9.79h-1.07v.71h-1.32v.28h.61v.31h2.39v-.28h-.61v-1.02Zm-.28-1.84h.28v-5.22h-1.07v4.82h.8v.4h-.01Zm.49 2.64h1.41v-8.47h2.12v6.35h-1.41v1.41h2.12v-.71h.71v-7.77h-.71v-.71h-3.53v.71h-.71v9.19Zm3.32-2.33v-5.53h-1.07v5.53h1.07Zm12.17-7.06h5.03v.4h.61v1.84h-2.12v.58h.09v.4h.61v1.01h.09v.4h.61v1.84h-1.84v-.4h-.61v-1.01h-.37v1.41h-1.32v.28h.61v.31h.09v.4h.61v.31h.09v.4h.61v.31h.8v.4h.61v.31h.8v.4h.61v1.84h-2.55v-.4h-.61v-.31h-.8v-.4h-.61v-.31h-.09v-.4h-.61v-.31h-.09v-.4h-.28v3.22h-1.84v-.4h-.61v-2.43h-.37v.71h-.71v.71h-1.41v.71h-2.55v-.4h-.61v-1.84h1.41v-.71h1.41v-.71h.71v-.71h.71v-.58h-.09v-.4h-.61v-1.01h-.37v1.41h-1.84v-.4h-.61v-1.84h.71v-1.41h.71v-.58h-1.5v-.4h-.61v-1.84h5.65v-1.41h1.84v.4h.61v1.01Zm-.83-1.2h-1.41v1.41h-5.65v1.41h2.12v1.41h-.71v1.41h-.71v1.41h1.41v-1.41h1.41v1.41h1.41v.71h-.71v.71h-.71v.71h-.71v.71h-1.41v.71h-1.41v1.41h2.12v-.71h1.41v-.71h.71v-.71h.71v-.71h.71v3.53h1.41v-3.53h.71v.71h.71v.71h.71v.71h1.41v.71h2.12v-1.41h-1.41v-.71h-1.41v-.71h-.71v-.71h-.71v-.71h-.71v-.71h-.71v-4.24h2.12v1.41h-.71v1.41h-.71v1.41h1.41v-1.41h1.41v1.41h1.41v-1.41h-.71v-1.41h-.71v-1.41h2.12v-1.41h-5.65v-1.41l.03.01Zm-3.53 2.82h2.12v4.24h-.71v-1.41h-.71v-1.41h-.71v-1.41l.01-.01Zm.83 1.2h.09v.4h.61v1.01h.09v.4h.28v-2.39h-1.07v.58Zm4.61 0v-.58h-1.07v2h.37v-1.41h.71l-.01-.01Zm14.54 6.48v-.4h-.61v-3.13h-1.5v-.4h-.61v-.31h-.37v1.29h1.5v.4h.61v1.84h-2.12v.58h2.21v.4h.61v1.84h-3.53v.71h-3.96v-.4h-.61v-1.84h2.82v-1.29h-1.5v-.4h-.61v-1.84h2.12v-.58h-2.21v-.4h-.61v-1.84h.71v-.71h.71v-1.29h-.8v-.4h-.61v-1.84h7.49v.4h.61v.31h1.5v.4h.61v8.9h-1.85Zm-6.05-6.26h.71v-1.41h.71v-.71h3.53v-1.41h-7.06v1.41h2.12v.71h-.71v1.41h-.71v.71h-.71v1.41h2.82v1.41h-2.12v1.41h2.12v2.12h-2.82v1.41h3.53v-.71h3.53v-1.41h-2.82v-1.41h2.12v-1.41h-2.12v-2.12h1.41v.71h1.41v-1.41h-.71v-.71h-.71v-1.41h-1.41v1.41h-.71v.71h-1.41v-.71h.01Zm1.9-.22v-.58h-.37v.58h.37Zm3.25 1.11h.28v-2.39h-1.69v.28h.61v1.01h.09v.4h.61v.31h.09v.4l.01-.01Zm1.9 4.76v-8.47h-1.41v8.47h1.41Zm-.92 1.2h2.12v-11.3h1.84v.4h.61v12.43h-.71v.71h-3.25v-.4h-.61v-1.84Zm.22 1.63h2.82v-.71h.71v-12h-1.41v11.3h-2.12v1.41Zm-61.97 8.31h5.03v.4h.61v1.84h-5.56v.28h.61v1.01h.09v.4h.61v1.01h.09v.4h.61v1.01h.09v.4h.61v.31h.09v.4h.61v.31h.09v.4h.61v.31h.8v.4h.61v1.84h-2.55v-.4h-.61v-.31h-.09v-.4h-.61v-.31h-.09v-.4h-.61v-.31h-.09v-.4h-.61v-.31h-.09v-.4h-.61v-1.01h-.09v-.4h-.61v-.31h-.37v1.41h-.71v.71h-.71v.71h-.71v.71h-.71v.71h-.71v.71h-2.55v-.4h-.61v-1.84h1.41v-.71h.71v-.71h.71v-.71h.71v-.71h.71v-1.41h.71v-1.41h.71v-.58h-5.03v-.4h-.61v-1.84h5.65v-2.82h1.84v.4h.61v2.43l.01-.01Zm-.83-2.61h-1.41v2.82h-5.65v1.41h5.65v1.41h-.71v1.41h-.71v1.41h-.71v.71h-.71v.71h-.71v.71h-.71v.71h-1.41v1.41h2.12v-.71h.71v-.71h.71v-.71h.71v-.71h.71v-.71h.71v-1.41h.71v-1.41h.71v2.12h.71v1.41h.71v.71h.71v.71h.71v.71h.71v.71h2.12v-1.41h-1.41v-.71h-.71v-.71h-.71v-.71h-.71v-1.41h-.71v-1.41h-.71v-1.41h-.71v-.71h5.65v-1.41h-5.65v-2.82h-.01Zm13.35.49h1.5v.4h.61v.31h.37v-.71h2.82v-.71h1.84v.4h.61v1.84h-1.41v.71h-2.12v.58h3.62v.4h.61v1.84h-1.41v7.77h-1.84v-.4h-.61v-7.37h-.37v6.36h-.71v1.41h-1.84v-.4h-.61v-1.01h-.8v-.4h-.28v1.81h-1.84v-.4h-.61v-1.01h-.37v.71h-1.84v-.4h-.61v-1.84h.71v-.71h.71v-.58h-.09v-.4h-.61v-1.84h2.12v-.58h-2.21v-.4h-.61v-1.84h2.03v-.28h-.61v-1.01h-.09v-.4h-.61v-1.84h2.12v-.71h1.84v.4h.61v.31l-.02-.01Zm-.83-.49h-1.41v.71h-2.12v1.41h.71v1.41h.71v.71h-2.12v1.41h2.82v1.41h-2.12v1.41h1.41v.71h-.71v.71h-.71v.71h-.71v1.41h1.41v-.71h.71v-.71h.71v2.12h1.41v-2.12h.71v.71h1.41v1.41h1.41v-1.41h.71v-6.35h1.41v7.77h1.41v-7.77h1.41v-1.41h-4.24v-1.41h2.12v-.71h1.41v-1.41h-1.41v.71h-2.82v.71h-.71v9.89h-.71v-1.41h-.71v-.71h-.71v-.71h1.41v-1.41h-2.12v-1.41h2.12V150h-1.41v-.71h.71v-1.41h.71v-1.41h-2.12v-.71l.02-.02Zm-2.12 2.12h2.82v.71h-.71v1.41h-1.41v-1.41h-.71v-.71h.01Zm1.9 1.9v-1.29h-.98v.28h.61v1.01h.37Zm2.55 3.22h.28V152h-1.78v.58h1.5v.4Zm0 2.82h.28v-.98h-.98v.28h.61v.31h.09v.4-.01Zm0-5.65h.28v-1.69h-.37v1.29h.09v.4Zm12.72 8.91v-.4h-.61v-2.43h-1.07v.71h-1.84v-.4h-.61v-1.84h1.41v-.71h1.41v-.71h.71v-2h-2.92v-.4h-.61v-1.84h3.53v-3.53h1.84v.4h.61v13.14h-1.84l-.01.01Zm1.01-.61v-12.71h-1.41v3.53h-3.53v1.41h3.53v2.82h-.71v.71h-1.41v.71h-1.41v1.41h1.41v-.71h1.41v-.71h.71v3.53h1.41v.01Zm4.36-9.39h3.62v.4h.61v1.84h-4.24v5.53h1.78v-2.12h1.84v.4h.61v3.25h-.71v.71h-4.67v-.4h-.61v-.31h-.09v-.4h-.61v-12.43h1.84v.4h.61v3.13h.02Zm-.83-3.32h-1.41v12h.71v.71h4.24v-.71h.71v-2.82h-1.41v2.12h-2.82v-6.35h4.24v-1.41h-4.24v-3.53l-.02-.01Zm11.94.49h1.5v.4h.61v.31h.37v-.71h2.82v-.71h1.84v.4h.61v1.84h-1.41v.71h-2.12v.58h3.62v.4h.61v1.84h-1.41v7.77h-1.84v-.4h-.61v-7.37h-.37v6.36h-.71v1.41h-1.84v-.4h-.61v-1.01h-.8v-.4h-.28v1.81h-1.84v-.4h-.61v-1.01h-.37v.71h-1.84v-.4h-.61v-1.84h.71v-.71h.71v-.58h-.09v-.4h-.61v-1.84h2.12v-.58h-2.21v-.4h-.61v-1.84h2.03v-.28h-.61v-1.01h-.09v-.4h-.61v-1.84h2.12v-.71h1.84v.4h.61v.31l-.02-.01Zm-.83-.49h-1.41v.71h-2.12v1.41h.71v1.41h.71v.71h-2.12v1.41h2.82v1.41h-2.12v1.41h1.41v.71h-.71v.71h-.71v.71h-.71v1.41h1.41v-.71h.71v-.71h.71v2.12h1.41v-2.12h.71v.71h1.41v1.41h1.41v-1.41h.71v-6.35h1.41v7.77h1.41v-7.77h1.41v-1.41h-4.24v-1.41h2.12v-.71h1.41v-1.41h-1.41v.71h-2.82v.71h-.71v9.89h-.71v-1.41h-.71v-.71h-.71v-.71h1.41v-1.41h-2.12v-1.41h2.12V150h-1.41v-.71h.71v-1.41h.71v-1.41h-2.12v-.71l.02-.02Zm-2.12 2.12h2.82v.71h-.71v1.41h-1.41v-1.41h-.71v-.71h.01Zm1.9 1.9v-1.29h-.98v.28h.61v1.01h.37Zm2.55 3.22h.28V152h-1.78v.58h1.5v.4Zm0 2.82h.28v-.98h-.98v.28h.61v.31h.09v.4-.01Zm0-5.65h.28v-1.69h-.37v1.29h.09v.4Zm20.3-4.23h.61v1.84h-1.41v.71h-2.73v.28h.61v1.01h3.62v.4h.61V152h-3.53v.58h3.62v.4h.61v1.84h-4.24v2.82h-.71v.71h-.71v.71h-3.96v-.4h-.61v-.31h-.09v-.4h-.61v-1.84h1.84v.4h.61v.31h1.07v-.71h.71v-1.29h-6.45v-.4h-.61v-1.84h7.06V152h-5.74v-.4h-.61v-1.84h5.56v-.28h-.61v-.31h-4.33v-.4h-.61v-1.84h5.65v-.71h2.82v-.71h2.55v.4l.01.01Zm-4.45 1.93h2.82v-.71h1.41v-1.41h-2.12v.71h-2.82v.71h-5.65v1.41h4.94v.71h.71v.71h-5.65v1.41h6.35v1.41h-7.06v1.41h7.06v2.12h-.71v.71h-2.12v-.71h-1.41v1.41h.71v.71h3.53v-.71h.71v-.71h.71v-2.82h4.24v-1.41h-4.24v-1.41h3.53v-1.41h-4.24v-1.41h-.71v-.71l.01-.01Zm12.65-.21h.8v.4h.28v-.4h4.24v-2.12h1.84v.4h.61v1.72h.8v.4h.61v1.84h-1.41v8.47h-.71v.71h-3.96v-.4h-.61v-1.84h2.82v-1.29h-1.5v-.4h-.61v-1.01h-.09v-.4h-.61v-1.01h-.09v-.4h-.28v1.81h-1.84v-.4h-.28v5.34h-1.84v-.4h-.61v-3.84h-1.5v-.4h-.61v-1.84h.71v-1.41h.71v-1.29h-.8v-.4h-.61v-1.84h2.12v-2.12h1.84v.4h.61v1.72h-.03Zm-.83-1.9h-1.41v2.12h-2.12v1.41h2.12v.71h-.71v1.41h-.71v1.41h-.71v1.41h1.41v-1.41h.71v5.65h1.41v-5.65h.71v.71h1.41v-1.41h-.71v-.71h-.71v-.71h-.71v-1.41h1.41v-1.41h-1.41v-2.12h.02Zm5.07 6.14h.09v.4h.61v1.01h.09v.4h.28v-3.81h-3.62v-.4h-.28v.4h-1.41v.58h.09v.4h.61v.31h.09v.4h.61v.31h.09v.4h.28v-1.81h1.84v.4h.61v1.01h.02Zm2.7-6.14h-1.41v2.12h-4.24v1.41h4.24v7.77h-2.82v1.41h3.53v-.71h.71v-8.47h1.41v-1.41h-1.41v-2.12h-.01Zm-3.53 4.94h-1.41v1.41h.71v1.41h.71v1.41h1.41v-1.41h-.71v-1.41h-.71v-1.41Z" fill="#231815"/><path d="M125.265 96.99c1.28-2.87 2.59-5.63 3.14-6.78.09-.19.37-.16.42.05l1.19 5.1 6.46-2.31c.38-.14.81.03 1 .39.26.5.65 1.14 1.06 1.39.7.43 4.56-1.53 5.45-.86.89.67-.18 1.85.27 2.41s3.88-.47 4.71.56c.83 1.03-.65 3.07-.34 3.76.3.68 3 .81 3.18 1.76.18.95-.22 1.71-2.98 5.54-.84 1.26 1.38 1.08 1.42 2.01.04.93-6.98 9.13-16.26 10.68-9.28 1.55-14.63-2.65-17.06-7.4-2.43-4.75-.43-11.22 8.35-16.28l-.01-.02Z" fill="#FFE600"/><path d="m124.585 99.42-.64-.28c.33-.76.66-1.53 1.01-2.3.9-2.03 1.96-4.32 3.14-6.79.11-.22.34-.35.58-.32.25.03.44.2.5.44l2 8.59-.68.16-1.92-8.23c-1.12 2.34-2.12 4.51-2.98 6.45-.34.77-.68 1.54-1 2.29l-.01-.01Z" fill="#231815"/><path d="M130.195 121.35c-8.53 0-12.29-5.37-13.6-7.92-3.46-6.76 2.41-13.24 8.49-16.75l.35.61c-7.65 4.41-10.88 10.62-8.21 15.82 4.25 8.31 13.09 7.82 16.69 7.21 8.97-1.5 15.81-9.32 15.97-10.34 0-.15-.27-.29-.64-.47-.39-.18-.83-.39-.95-.83-.08-.28 0-.58.22-.91 2.81-3.89 3.08-4.5 2.93-5.28-.06-.32-.95-.6-1.54-.79-.76-.24-1.42-.45-1.62-.9-.18-.4 0-.95.22-1.59.26-.76.54-1.63.17-2.09-.36-.45-1.69-.36-2.66-.29-1.01.07-1.75.12-2.05-.26-.3-.37-.19-.85-.09-1.27.14-.57.17-.86-.12-1.08-.34-.26-1.88.22-2.8.5-1.38.42-2.19.65-2.62.39-.38-.24-.78-.75-1.19-1.53-.1-.2-.35-.3-.57-.22l-6.46 2.31-.24-.66 6.46-2.31c.54-.19 1.16.04 1.42.56.34.65.67 1.09.93 1.26.23.1 1.32-.24 2.05-.46 1.69-.52 2.84-.83 3.42-.39.69.52.51 1.26.38 1.8-.06.27-.14.57-.05.67.14.09.94.04 1.46 0 1.25-.08 2.66-.18 3.25.55.61.76.25 1.87-.05 2.75-.13.39-.31.93-.24 1.08.07.16.77.38 1.19.52.92.29 1.87.59 2.01 1.32.21 1.1-.19 1.86-3.04 5.81-.09.14-.14.26-.12.33.03.12.35.27.57.38.45.21 1.01.48 1.04 1.09.05 1.24-7.31 9.5-16.55 11.04-1.37.23-2.65.33-3.84.33l.03.01Z" fill="#231815"/><path d="M131.055 107.99c-.92 0-1.68-.75-1.68-1.68 0-.93.75-1.68 1.68-1.68.93 0 1.68.75 1.68 1.68 0 .93-.75 1.68-1.68 1.68Z" fill="#231815"/><path d="M131.055 104.99c.73 0 1.33.59 1.33 1.33 0 .74-.59 1.33-1.33 1.33-.74 0-1.33-.59-1.33-1.33 0-.74.59-1.33 1.33-1.33Zm0-.7c-1.12 0-2.03.91-2.03 2.03 0 1.12.91 2.03 2.03 2.03 1.12 0 2.03-.91 2.03-2.03 0-1.12-.91-2.03-2.03-2.03Zm-8.91 3.7c-.92 0-1.68-.75-1.68-1.68 0-.93.75-1.68 1.68-1.68.93 0 1.68.75 1.68 1.68 0 .93-.75 1.68-1.68 1.68Z" fill="#231815"/><path d="M122.145 104.99c.73 0 1.33.59 1.33 1.33 0 .74-.59 1.33-1.33 1.33-.74 0-1.33-.59-1.33-1.33 0-.74.59-1.33 1.33-1.33Zm0-.7c-1.12 0-2.03.91-2.03 2.03 0 1.12.91 2.03 2.03 2.03 1.12 0 2.03-.91 2.03-2.03 0-1.12-.91-2.03-2.03-2.03Z" fill="#231815"/><path d="m36.045 134 1.81-13.57 5.46 12.93 11.05-.53-5.45 3.97 7.72 1.32-8.55 2.32 6.51 5.65-10.04-2.89.43 8.98-7.13-7.91-8.59 8.67 5.52-12.64-10.54-5.53 7.24-.35-3.84-8.53 8.4 8.11Z" fill="#FFE600" stroke="#231815" stroke-linecap="round" stroke-linejoin="round"/></svg>