<svg fill="none" xmlns="http://www.w3.org/2000/svg" viewBox="0 0 200 200"><g clip-path="url(#clip0_1032_28322)"><path d="M100.92 151h-1.84a4.83 4.83 0 0 0-4.83 4.83v28.34a4.83 4.83 0 0 0 4.83 4.83h1.84a4.83 4.83 0 0 0 4.83-4.83v-28.34a4.83 4.83 0 0 0-4.83-4.83Z" fill="#00698A"/><path d="M100.92 151.5c2.38 0 4.33 1.95 4.33 4.33v28.34c0 2.38-1.95 4.33-4.33 4.33h-1.84c-2.38 0-4.33-1.95-4.33-4.33v-28.34c0-2.38 1.95-4.33 4.33-4.33h1.84Zm0-1h-1.84c-2.94 0-5.33 2.39-5.33 5.33v28.34c0 2.94 2.39 5.33 5.33 5.33h1.84c2.94 0 5.33-2.39 5.33-5.33v-28.34c0-2.94-2.39-5.33-5.33-5.33Z" fill="#231815"/><path d="M182.83 17H17.17A6.17 6.17 0 0 0 11 23.17v127.66a6.17 6.17 0 0 0 6.17 6.17h165.66a6.17 6.17 0 0 0 6.17-6.17V23.17a6.17 6.17 0 0 0-6.17-6.17Z" fill="#00698A"/><path d="M182.83 17.5c3.12 0 5.67 2.55 5.67 5.67v127.66c0 3.12-2.55 5.67-5.67 5.67H17.17c-3.12 0-5.67-2.55-5.67-5.67V23.17c0-3.12 2.55-5.67 5.67-5.67h165.66Zm0-1H17.17c-3.68 0-6.67 2.99-6.67 6.67v127.66c0 3.68 2.99 6.67 6.67 6.67h165.66c3.68 0 6.67-2.99 6.67-6.67V23.17c0-3.68-2.99-6.67-6.67-6.67Z" fill="#231815"/><mask id="mask0_1032_28322" style="mask-type:luminance" maskUnits="userSpaceOnUse" x="11" y="17" width="178" height="140"><path d="M182.83 17.5H17.17a5.67 5.67 0 0 0-5.67 5.67v127.66a5.67 5.67 0 0 0 5.67 5.67h165.66a5.67 5.67 0 0 0 5.67-5.67V23.17a5.67 5.67 0 0 0-5.67-5.67Z" fill="#fff"/></mask><g mask="url(#mask0_1032_28322)"><path d="M20.34 160.5H4.5l12.13-146h15.84l-12.13 146Z" fill="#E86546"/><path d="M20.8 161H3.96L16.17 14h16.84L20.8 161Zm-15.76-1h14.84L31.92 15H17.08L5.04 160Z" fill="#231815"/><path d="M47.51 160.5H31.67l12.13-146h15.84l-12.13 146Z" fill="#E86546"/><path d="M47.97 161H31.13L43.34 14h16.84L47.97 161Zm-15.76-1h14.84L59.1 15H44.26L32.22 160h-.01Z" fill="#231815"/><path d="M74.68 160.5H58.84l12.13-146h15.84l-12.13 146Z" fill="#E86546"/><path d="M75.14 161H58.3L70.51 14h16.84L75.14 161Zm-15.76-1h14.84L86.27 15H71.43L59.39 160h-.01Z" fill="#231815"/><path d="M101.86 160.5H86.02l12.12-146h15.84l-12.12 146Z" fill="#E86546"/><path d="M102.32 161H85.48l12.2-147h16.84l-12.21 147h.01Zm-15.76-1h14.84l12.04-145H98.6L86.55 160h.01Z" fill="#231815"/><path d="M129.03 160.5h-15.84l12.13-146h15.84l-12.13 146Z" fill="#E86546"/><path d="M129.49 161h-16.84l12.21-147h16.84l-12.21 147Zm-15.76-1h14.84l12.04-145h-14.84l-12.04 145Z" fill="#231815"/><path d="M156.2 160.5h-15.84l12.13-146h15.84l-12.13 146Z" fill="#E86546"/><path d="M156.66 161h-16.84l12.21-147h16.84l-12.21 147Zm-15.76-1h14.84l12.04-145h-14.84L140.9 160Z" fill="#231815"/><path d="M183.37 160.5h-15.84l12.13-146h15.84l-12.13 146Z" fill="#E86546"/><path d="M183.83 161h-16.84L179.2 14h16.84l-12.21 147Zm-15.76-1h14.84l12.04-145h-14.84l-12.04 145Z" fill="#231815"/></g><path d="M178.5 144.37V29.63a2.13 2.13 0 0 0-2.13-2.13H23.63a2.13 2.13 0 0 0-2.13 2.13v114.74a2.13 2.13 0 0 0 2.13 2.13h152.74a2.13 2.13 0 0 0 2.13-2.13Z" fill="#fff"/><path d="M176.37 147H23.63c-1.45 0-2.63-1.18-2.63-2.63V29.63c0-1.45 1.18-2.63 2.63-2.63h152.74c1.45 0 2.63 1.18 2.63 2.63v114.74c0 1.45-1.18 2.63-2.63 2.63ZM23.63 28c-.9 0-1.63.73-1.63 1.63v114.74c0 .9.73 1.63 1.63 1.63h152.74c.9 0 1.63-.73 1.63-1.63V29.63c0-.9-.73-1.63-1.63-1.63H23.63Z" fill="#231815"/><path d="M63.2 90.16h.4v-.57h2.63v.57h.88v.44h1.54v-1.01h2.63v.57h.88v1.45h3.16v.57h.88v.44h.13v.57h.88v4.65H76.2v2.02h-2.02v.83h.13v.57h.88v1.45h.13v.57h.88v1.45h.13v.57h.88v3.64h-2.63v-.57h-.88v-1.45h-.13v-.57h-.4v.57h-1.01v1.01h-1.01v1.01H60.44v-.57h-.88v-.44h-.13v-.57h-.88v-3.47h-.13v-.57h-.88v-2.63h1.01v-1.01h.88v-.4h-.88v-.44h-.13v-.57h-.88v-3.64h1.01v-.83h-.13v-.57h-.88V90.6h3.03v-1.01h2.63v.57Zm-1.32 3.78h1.01V89.9h-2.02v1.01h-3.03v2.02h3.03v1.01h-2.02v1.01h-1.01v3.03h1.01v1.01h1.01V100h-1.01v1.01h-1.01v2.02h1.01v4.04h1.01v1.01h10.1v-1.01h1.01v-1.01h1.01v-2.02h1.01v2.02H74v2.02h2.02v-3.03h-1.01v-2.02H74v-2.02h-1.01v-2.02h2.02v-2.02h1.01v-4.04h-1.01v-1.01h-4.04V89.9h-2.02v1.01h-3.03V89.9H63.9v4.04h1.01v1.01H63.9v3.03h1.01v1.01H63.9V100h-2.02v-2.02h1.01v-3.03h-1.01v-1.01Zm-2.02 2.02h1.01v1.01h-1.01v-1.01Zm1.01 6.06h2.02v1.01h-2.02v-1.01Zm0 3.03h2.02v1.01h-2.02v-1.01Zm2.72-5.36v-.83h-.53v.83h.53Zm-.4-4.48h.4v-.4h-.4v.4Zm.88-.57h.4v-.4h-.4v.4Zm0 4.04h.4v-.4h-.4v.4Zm1.84.31h2.02v-1.01h1.01v-1.01h1.01v-2.02h1.01v8.08h-1.01v2.02h-1.01v-2.02H64.9v-1.01h4.04V100h-3.03v-1.01Zm-1.01 6.06h4.04v1.01H64.9v-1.01Zm1.01-12.12h3.03v2.02h-1.01v-1.01h-2.02v-1.01Zm0 3.03h1.01v1.01h-1.01v-1.01Zm2.33-1.76h.39v-.4h-.39v.4Zm2.42 8.52v-4.87h-.53v1.01h-1.01v.83h.13v.57h.88v2.46h.53Zm-1.41.57h.39v-.4h-.39v.4Zm3.73-9.35h1.01v3.03h-1.01v-3.03Zm11.03 5.75h.13v.57h.88v1.45h.53v-10.1h1.01V90.6h2.02v-1.01h2.63v.57h.88v.44h5.18v.57h.88v.44h.13v.57h.88v11.72h-1.01v1.01h-3.64v-.57h-.4v1.41h4.17v.57h.88v2.63H86.43v-.57h-.88v-.44h-1.14v-.57h-.39v.57h-1.01v1.01h-2.63v-.57h-.88v-2.63h1.01v-1.01h1.01v-2.85h-1.14v-.57h-.88v-2.63h3.64v.57h.88v.44l-.01-.01ZM83 90.6h1.14v.57h.88v2.63h-2.63v-.57h-.88v-.44h-1.14v-.57h-.88v-2.63h2.63v.57H83v.44Zm0 4.04h1.14v.57h.88v2.63h-2.63v-.57h-.88v-.44h-1.14v-.57h-.88v-2.63h2.63v.57H83v.44Zm-1.19-4.74h-2.02v2.02h2.02v1.01h2.02v-2.02h-2.02V89.9Zm0 4.04h-2.02v2.02h2.02v1.01h2.02v-2.02h-2.02v-1.01Zm1.01 5.05h-3.03v2.02h2.02v4.04H80.8v1.01h-1.01v2.02h2.02v-1.01h1.01v-1.01h1.01v1.01h2.02v1.01h12.12v-2.02H86.86v-1.01h-2.02v-1.01h-1.01V100h-1.01v-1.01Zm8.08-9.09h-2.02v1.01h-2.02v1.01h-1.01v10.1h-1.01v2.02h3.03v-1.01h2.02v-2.02h-2.02v-8.08h2.02v-1.01h1.01V89.9Zm-.31 14.01h-1.54v1.01h-1.89v.4h.88v.44h3.42v-.4h-.88v-1.45h.01Zm-.39-2.63h.39v-7.46h-1.54v6.89h1.14v.57h.01Zm.7 3.78h2.02V92.94h3.03v9.09h-2.02v2.02h3.03v-1.01h1.01V91.93h-1.01v-1.01h-5.05v1.01H90.9v13.13Zm4.74-3.34v-7.9H94.1v7.9h1.54Zm17.39-10.11h7.2v.57h.88v2.63h-3.03v.83h.13v.57h.88v1.45h.13v.57h.88v2.63h-2.63v-.57h-.88v-1.45h-.53v2.02h-1.89v.4h.88v.44h.13v.57h.88v.44h.13v.57h.88v.44h1.14v.57h.88v.44h1.14v.57h.88v2.63h-3.64v-.57h-.88v-.44h-1.14v-.57h-.88v-.44h-.13v-.57h-.88v-.44h-.13v-.57h-.39v4.61h-2.63v-.57h-.88v-3.47H109v1.01h-1.01v1.01h-2.02v1.01h-3.64v-.57h-.88v-2.63h2.02v-1.01h2.02v-1.01h1.01v-1.01h1.01v-.83h-.13v-.57h-.88v-1.45h-.53v2.02h-2.63v-.57h-.88v-2.63h1.01v-2.02h1.01v-.83h-2.15v-.57h-.88v-2.63h8.08V89.6h2.63v.57h.88v1.45l-.01-.01Zm-1.19-1.71h-2.02v2.02h-8.08v2.02h3.03v2.02h-1.01v2.02h-1.01V100h2.02v-2.02h2.02V100h2.02v1.01h-1.01v1.01h-1.01v1.01h-1.01v1.01h-2.02v1.01h-2.02v2.02h3.03v-1.01h2.02v-1.01h1.01v-1.01h1.01v-1.01h1.01v5.05h2.02v-5.05h1.01v1.01h1.01v1.01h1.01v1.01h2.02v1.01h3.03v-2.02h-2.02v-1.01h-2.02v-1.01h-1.01v-1.01h-1.01v-1.01h-1.01V100h-1.01v-6.06h3.03v2.02h-1.01v2.02h-1.01V100h2.02v-2.02h2.02V100h2.02v-2.02h-1.01v-2.02h-1.01v-2.02h3.03v-2.02h-8.08V89.9Zm-5.05 4.04h3.03V100h-1.01v-2.02h-1.01v-2.02h-1.01v-2.02Zm1.19 1.71h.13v.57h.88v1.45h.13v.57h.4v-3.42h-1.54v.83Zm6.59 0v-.83h-1.54v2.85h.53v-2.02h1.01Zm20.81 9.27v-.57h-.88v-4.48h-2.15v-.57h-.88v-.44h-.53v1.84h2.15v.57h.88v2.63h-3.03v.83h3.16v.57h.88v2.63h-5.05v1.01h-5.66v-.57h-.88v-2.63h4.04v-1.84h-2.15v-.57h-.88v-2.63h3.03v-.83h-3.16v-.57h-.88v-2.63h1.01v-1.01h1.01v-1.84h-1.14v-.57h-.88v-2.63h10.71v.57h.88v.44h2.15v.57h.88v12.73h-2.63v-.01Zm-8.65-8.96h1.01v-2.02h1.01v-1.01h5.05v-2.02h-10.1v2.02h3.03v1.01h-1.01v2.02h-1.01v1.01h-1.01v2.02h4.04v2.02h-3.03v2.02h3.03v3.03h-4.04v2.02h5.05v-1.01h5.05v-2.02h-4.04v-2.02h3.03v-2.02h-3.03v-3.03h2.02v1.01h2.02v-2.02h-1.01v-1.01h-1.01v-2.02h-2.02v2.02h-1.01v1.01h-2.02v-1.01Zm2.72-.31v-.83h-.53v.83h.53Zm4.65 1.58h.39v-3.42h-2.42v.4h.88v1.45h.13v.57h.88v.44h.13v.57l.01-.01Zm2.72 6.81V91.92h-2.02v12.12h2.02Zm-1.32 1.71h3.03V89.59h2.63v.57h.88v17.78h-1.01v1.01h-4.65v-.57h-.88v-2.63Zm.31 2.33h4.04v-1.01h1.01V89.9h-2.02v16.16h-3.03v2.02Zm-88.64 11.9h7.2v.57h.88v2.63H47.3v.4h.88v1.45h.13v.57h.88v1.45h.13v.57h.88v1.45h.13v.57h.88v.44h.13v.57h.88v.44h.13v.57h.88v.44h1.14v.57h.88v2.63h-3.64v-.57h-.88v-.44h-.13v-.57h-.88v-.44h-.13v-.57h-.88v-.44h-.13v-.57h-.88v-.44h-.13v-.57h-.88v-1.45h-.13v-.57h-.88v-.44h-.53v2.02h-1.01v1.01h-1.01v1.01h-1.01v1.01h-1.01v1.01H40.1v1.01h-3.64v-.57h-.88v-2.63h2.02v-1.01h1.01v-1.01h1.01v-1.01h1.01v-1.01h1.01v-2.02h1.01v-2.02h1.01v-.83h-7.2v-.57h-.88v-2.63h8.08v-4.04h2.63v.57h.88v3.47-.01Zm-1.19-3.73h-2.02v4.04h-8.08v2.02h8.08v2.02h-1.01v2.02h-1.01v2.02h-1.01v1.01h-1.01v1.01h-1.01v1.01H37.9v1.01h-2.02v2.02h3.03v-1.01h1.01v-1.01h1.01v-1.01h1.01v-1.01h1.01v-1.01h1.01v-2.02h1.01v-2.02h1.01v3.03h1.01v2.02H48v1.01h1.01v1.01h1.01v1.01h1.01v1.01h3.03v-2.02h-2.02v-1.01h-1.01v-1.01h-1.01v-1.01h-1.01v-2.02H48v-2.02h-1.01v-2.02h-1.01v-1.01h8.08v-2.02h-8.08v-4.04Zm19.1.7h2.15v.57h.88v.44h.53v-1.01h4.04v-1.01h2.63v.57h.88v2.63h-2.02v1.01h-3.03v.83h5.18v.57h.88v2.63h-2.02v11.11h-2.63v-.57h-.88v-10.54h-.53v9.09h-1.01v2.02H67.5v-.57h-.88v-1.45h-1.14v-.57h-.4v2.59h-2.63v-.57h-.88v-1.45h-.53v1.01h-2.63v-.57h-.88v-2.63h1.01v-1.01h1.01v-.83h-.13v-.57h-.88v-2.63h3.03v-.83h-3.16v-.57h-.88v-2.63h2.9v-.4h-.88v-1.45h-.13v-.57h-.88v-2.63h3.03v-1.01h2.63v.57h.88v.44-.01Zm-1.19-.7h-2.02v1.01h-3.03v2.02h1.01v2.02h1.01v1.01h-3.03v2.02h4.04v2.02h-3.03v2.02h2.02v1.01h-1.01v1.01h-1.01v1.01h-1.01v2.02h2.02v-1.01h1.01v-1.01h1.01v3.03h2.02v-3.03h1.01v1.01h2.02v2.02h2.02v-2.02h1.01v-9.09h2.02v11.11h2.02v-11.11h2.02v-2.02h-6.06v-2.02h3.03v-1.01H75v-2.02h-2.02v1.01h-4.04v1.01h-1.01v14.14h-1.01v-2.02h-1.01v-1.01H64.9v-1.01h2.02v-2.02h-3.03v-2.02h3.03v-2.02H64.9v-1.01h1.01v-2.02h1.01v-2.02h-3.03v-1.01Zm-3.03 3.03h4.04v1.01h-1.01v2.02h-2.02v-2.02h-1.01v-1.01Zm2.72 2.72v-1.84h-1.41v.4h.88v1.45h.53V122Zm3.64 4.61h.4v-1.4h-2.55v.83h2.15v.57Zm0 4.04h.4v-1.4h-1.41v.4h.88v.44h.13v.57-.01Zm0-8.08h.4v-2.42h-.53v1.84h.13v.58Zm18.2 12.73v-.57h-.88v-3.47H83v1.01h-2.63v-.57h-.88v-2.63h2.02v-1.01h2.02v-1.01h1.01v-2.85h-4.17v-.57h-.88V121h5.05v-5.05h2.63v.57h.88v18.79h-2.63v-.01Zm1.45-.88v-18.18h-2.02v5.05H79.8v2.02h5.05v4.04h-1.01v1.01h-2.02v1.01H79.8v2.02h2.02v-1.01h2.02v-1.01h1.01v5.05h2.02Zm6.24-13.44h5.18v.57h.88v2.63h-6.06v7.9h2.55v-3.03h2.63v.57h.88v4.65h-1.01v1.01h-6.67v-.57h-.88v-.44h-.13v-.57h-.88v-17.78h2.63v.57h.88v4.49Zm-1.19-4.74H89.9v17.17h1.01v1.01h6.06v-1.01h1.01v-4.04h-2.02v3.03h-4.04v-9.09h6.06v-2.02h-6.06v-5.05Zm17.07.71h2.15v.57h.88v.44h.53v-1.01h4.04v-1.01h2.63v.57h.88v2.63h-2.02v1.01h-3.03v.83h5.18v.57h.88v2.63h-2.02v11.11h-2.63v-.57h-.88v-10.54h-.53v9.09h-1.01v2.02h-2.63v-.57h-.88v-1.45h-1.14v-.57h-.4v2.59h-2.63v-.57h-.88v-1.45h-.53v1.01h-2.63v-.57h-.88v-2.63h1.01v-1.01h1.01v-.83h-.13v-.57h-.88v-2.63h3.03v-.83h-3.16v-.57h-.88v-2.63h2.9v-.4h-.88v-1.45h-.13v-.57h-.88v-2.63h3.03v-1.01h2.63v.57h.88v.44-.01Zm-1.19-.7h-2.02v1.01h-3.03v2.02h1.01v2.02h1.01v1.01h-3.03v2.02h4.04v2.02h-3.03v2.02h2.02v1.01h-1.01v1.01h-1.01v1.01h-1.01v2.02h2.02v-1.01h1.01v-1.01h1.01v3.03h2.02v-3.03h1.01v1.01h2.02v2.02h2.02v-2.02h1.01v-9.09h2.02v11.11h2.02v-11.11h2.02v-2.02h-6.06v-2.02h3.03v-1.01h2.02v-2.02h-2.02v1.01h-4.04v1.01h-1.01v14.14h-1.01v-2.02h-1.01v-1.01h-1.01v-1.01h2.02v-2.02h-3.03v-2.02h3.03v-2.02h-2.02v-1.01h1.01v-2.02h1.01v-2.02h-3.03v-1.01Zm-3.03 3.03h4.04v1.01h-1.01v2.02h-2.02v-2.02h-1.01v-1.01Zm2.72 2.72v-1.84h-1.41v.4h.88v1.45h.53V122Zm3.64 4.61h.4v-1.4h-2.55v.83h2.15v.57Zm0 4.04h.4v-1.4h-1.41v.4h.88v.44h.13v.57-.01Zm0-8.08h.4v-2.42H111v1.84h.13v.58Zm29.04-6.06h.88v2.63h-2.02v1.01h-3.91v.4h.88V122h5.18v.57h.88v2.63h-5.05v.83h5.18v.57h.88v2.63h-6.06v4.04H136v1.01h-1.01v1.01h-5.66v-.57h-.88v-.44h-.13v-.57h-.88v-2.63h2.63v.57h.88v.44h1.54v-1.01h1.01v-1.84h-9.22v-.57h-.88v-2.63h10.1v-.83h-8.21v-.57h-.88v-2.63h7.95v-.4h-.88v-.44h-6.19v-.57h-.88v-2.63h8.08v-1.01h4.04v-1.01h3.64v.57-.01Zm-6.37 2.77h4.04v-1.01h2.02v-2.02h-3.03v1.01h-4.04v1.01h-8.08v2.02h7.07v1.01h1.01v1.01h-8.08v2.02h9.09v2.02h-10.1v2.02h10.1v3.03h-1.01v1.01h-3.03v-1.01h-2.02v2.02h1.01v1.01h5.05v-1.01h1.01v-1.01h1.01v-4.04h6.06v-2.02h-6.06v-2.02h5.05v-2.02h-6.06v-2.02h-1.01v-1.01Zm18.09-.31h1.14v.57h.4v-.57h6.06v-3.03h2.63v.57h.88v2.46h1.14v.57h.88v2.63H163v12.12h-1.01v1.01h-5.67v-.57h-.88v-2.63h4.04v-1.84h-2.15v-.57h-.88v-1.45h-.13v-.57h-.88v-1.45h-.13v-.57h-.39v2.59h-2.63v-.57h-.4v7.64h-2.63v-.57h-.88v-5.49h-2.15v-.57h-.88v-2.63h1.01v-2.02h1.01v-1.84h-1.14v-.57h-.88v-2.63h3.03v-3.03h2.63v.57h.88v2.46-.02Zm-1.19-2.72h-2.02v3.03h-3.03v2.02h3.03v1.01h-1.01v2.02h-1.01v2.02h-1.01v2.02h2.02v-2.02h1.01v8.08h2.02v-8.08h1.01v1.01h2.02v-2.02h-1.01v-1.01h-1.01v-1.01h-1.01v-2.02h2.02v-2.02h-2.02v-3.03Zm7.25 8.78h.13v.57h.88v1.45h.13v.57h.4v-5.44h-5.18v-.57h-.4v.57h-2.02v.83h.13v.57h.88v.44h.13v.57h.88v.44h.13v.57h.4v-2.59h2.63v.57h.88v1.45Zm3.86-8.78h-2.02v3.03h-6.06v2.02h6.06v11.11h-4.04v2.02h5.05v-1.01h1.01V121.3h2.02v-2.02h-2.02v-3.03Zm-5.05 7.07h-2.02v2.02h1.01v2.02h1.01v2.02h2.02v-2.02h-1.01v-2.02h-1.01v-2.02Z" fill="#231815"/><path d="M87.35 46.51c1.83-4.1 3.7-8.05 4.49-9.7a.32.32 0 0 1 .6.07l1.7 7.3 9.24-3.31c.55-.2 1.16.04 1.42.55.37.71.93 1.63 1.51 1.99 1 .62 6.53-2.19 7.79-1.24 1.26.95-.26 2.65.39 3.45.64.79 5.55-.67 6.74.79 1.18 1.47-.93 4.4-.49 5.37.44.98 4.29 1.16 4.55 2.52.26 1.36-.31 2.44-4.27 7.92-1.21 1.8 1.98 1.54 2.03 2.88.05 1.34-9.98 13.06-23.25 15.28-13.27 2.22-20.93-3.79-24.4-10.58-3.47-6.79-.62-16.05 11.94-23.29h.01Z" fill="#FFE600"/><path d="m86.37 49.99-.92-.39c.46-1.08.95-2.19 1.44-3.29 1.29-2.9 2.81-6.17 4.5-9.71.15-.32.48-.5.83-.46.35.04.63.28.71.63l2.87 12.28-.97.23-2.75-11.78c-1.6 3.35-3.03 6.45-4.26 9.22-.49 1.09-.97 2.2-1.43 3.28l-.02-.01Z" fill="#231815"/><path d="M94.4 81.36c-12.2 0-17.58-7.68-19.45-11.33C70 60.36 78.4 51.09 87.09 46.08l.5.87c-10.94 6.31-15.56 15.19-11.75 22.63 6.08 11.89 18.72 11.18 23.88 10.32 12.84-2.14 22.61-13.33 22.83-14.79-.01-.22-.38-.42-.91-.67-.56-.26-1.18-.56-1.36-1.18-.11-.4 0-.82.32-1.3 4.02-5.56 4.4-6.44 4.19-7.55-.09-.46-1.36-.86-2.2-1.12-1.09-.34-2.03-.64-2.32-1.28-.26-.57 0-1.36.31-2.27.37-1.09.78-2.33.24-2.99-.52-.64-2.41-.52-3.8-.42-1.45.1-2.5.17-2.93-.37-.43-.53-.27-1.22-.12-1.82.19-.81.24-1.23-.18-1.54-.48-.37-2.69.31-4 .71-1.98.61-3.13.93-3.75.55-.55-.34-1.12-1.08-1.7-2.19a.652.652 0 0 0-.81-.31l-9.24 3.31-.34-.94 9.24-3.31c.78-.28 1.66.06 2.04.79.48.93.95 1.56 1.33 1.8.32.14 1.89-.34 2.93-.66 2.42-.74 4.07-1.18 4.9-.55.98.74.73 1.8.54 2.57-.09.38-.19.81-.07.96.21.13 1.34.05 2.09 0 1.78-.12 3.8-.25 4.65.79.88 1.09.35 2.67-.07 3.94-.19.56-.45 1.33-.35 1.55.11.23 1.11.55 1.71.74 1.32.42 2.68.85 2.88 1.89.3 1.57-.27 2.66-4.35 8.3-.13.19-.2.37-.17.47.05.18.49.39.82.54.64.3 1.45.68 1.48 1.56.07 1.77-10.46 13.59-23.67 15.79-1.97.33-3.79.48-5.49.48l.01-.02Z" fill="#231815"/><path d="M95.62 62.25a2.4 2.4 0 0 1 0-4.8c1.32 0 2.4 1.08 2.4 2.4 0 1.32-1.08 2.4-2.4 2.4Z" fill="#231815"/><path d="M95.63 57.96a1.9 1.9 0 1 1 0 3.8 1.9 1.9 0 1 1 0-3.8Zm0-1c-1.6 0-2.9 1.3-2.9 2.9 0 1.6 1.3 2.9 2.9 2.9 1.6 0 2.9-1.3 2.9-2.9 0-1.6-1.3-2.9-2.9-2.9Zm-12.74 5.29a2.4 2.4 0 0 1 0-4.8c1.32 0 2.4 1.08 2.4 2.4 0 1.32-1.08 2.4-2.4 2.4Z" fill="#231815"/><path d="M82.89 57.96a1.9 1.9 0 1 1 0 3.8 1.9 1.9 0 1 1 0-3.8Zm0-1c-1.6 0-2.9 1.3-2.9 2.9 0 1.6 1.3 2.9 2.9 2.9 1.6 0 2.9-1.3 2.9-2.9 0-1.6-1.3-2.9-2.9-2.9Z" fill="#231815"/></g><defs><clipPath id="clip0_1032_28322"><path fill="#fff" d="M0 0h200v200H0z"/></clipPath></defs></svg>