<svg fill="none" xmlns="http://www.w3.org/2000/svg" viewBox="0 0 40 16"><path d="m15.12 8.92.63-.12-1.28-6.97-.63.12-.12-.63-.63.12-.12-.63-2.53.47.12.63-.63.12.12.63-.63.12.58 3.17.63-.12.12.63.63-.12.12.63 1.9-.35-.12-.63.63-.12.47 2.53-.63.12.12.63-1.27.23-.12-.63-.63.12-.23-1.27-1.27.23.35 1.9.63-.12.12.63.63-.12.12.63 2.53-.47-.12-.63.63-.12-.12-.63v.02Zm-2.08-4.2.12.63-1.27.23-.12-.63-.63.12-.35-1.9.63-.12-.12-.63 1.27-.23.12.63.63-.12.35 1.9-.63.12Zm12.6 5.56.61.2-.2.61 2.44.82.2-.61.61.2.41-1.22.61.2 1.84-5.5-.61-.2.41-1.22-.61-.2.2-.61-2.44-.82-.2.61-.61-.2-.41 1.22-.61-.2-1.84 5.5.61.2-.41 1.22Zm2.65-5.9.61.2.41-1.22 1.22.41-.41 1.22.61.2-1.43 4.28-.61-.2-.41 1.22-1.22-.41.41-1.22-.61-.2 1.43-4.28ZM1.75 7.92l1.17-.54-.28-.59.59-.27 2.99 6.42 1.17-.54L3.3 3.64l-1.16.55.27.58-.58.27.27.59-.59.27.28.58-.59.27.55 1.17Zm20.01 1.67.64.04.04-.64.64.04.22-3.21-.64-.04.04-.64-.64-.04.04-.64-1.93-.13-.04.64-.64-.04.18-2.57.64.04.04-.64 1.29.09-.04.64.64.04-.04.64 1.29.09.09-1.28-.64-.04.04-.64-.64-.04.04-.64-2.57-.18-.04.64-.64-.04-.04.64-.64-.04-.49 7.07.64.04-.04.64.64.04-.04.64 2.57.18.04-.64-.01-.02Zm-.6-.69-1.29-.09.04-.64-.64-.04.13-1.93.64.04.04-.64 1.29.09-.04.64.64.04-.13 1.93-.64-.04-.04.64Zm17.12 1.01-.54-.35.34-.54-2.16-1.39-.35.54-.54-.34-.35.54-.54-.35-.7 1.08.54.35-.34.54.54.35-.35.54 1.09.7-.35.54 1.08.7-.69 1.08-1.63-1.04.35-.54-.54-.35.34-.54-1.08-.7-.7 1.09.55.34-.35.55.54.34-.35.54 2.17 1.4.35-.55.54.35.35-.54.54.35.7-1.09-.55-.35.35-.54-.54-.35.35-.54-1.09-.69.35-.54-1.08-.7.69-1.09 1.63 1.05-.35.54.54.35-.35.54 1.09.69.69-1.08-.54-.35.35-.54Z" fill="#fff"/><path d="m1.65 8.18.51-.24.15.33 1.24-.58 2.57 5.5.51-.24.15.33 1.52-.71-4.25-9.11-.51.24-.15-.33-1.52.71.27.58-.58.27.27.58-.58.27.27.58-.58.27.71 1.52v.03ZM1.51 5.9l.58-.27-.27-.58.58-.27-.27-.58 1.17-.54 4.09 8.75-1.17.54-3-6.42-.58.27.27.58-1.17.54-.54-1.17.58-.27-.27-.58Zm13.94 4.19.63-.12-.12-.63.63-.12-1.36-7.35-.55.1-.07-.36-.08.02-.05-.28-.55.1-.07-.36-.08.02-.05-.28-.55.1-.07-.36-2.92.54.12.63-.63.12.12.63-.63.12.66 3.55.55-.1.07.36h.08l.05.26.55-.1.07.36h.08l.05.26.55-.1.07.36 1.98-.37.21 1.16-.63.12.12.63-.33.06-.05-.28-.55.1-.07-.36-.08.02-.17-.91-.55.1-.07-.36-1.65.3.42 2.29.55-.1.07.36.08-.02.05.28.55-.1.07.36.08-.02.05.28.55-.1.07.36 2.92-.54-.12-.63Zm-.73.22-2.53.47-.12-.63-.63.12-.12-.63-.63.12-.35-1.9 1.27-.23.23 1.27.63-.12.12.63 1.27-.23-.12-.63.63-.12-.47-2.53-.63.12.12.63-1.9.35-.12-.63-.63.12-.12-.63-.63.12-.58-3.17.63-.12-.12-.63.63-.12-.12-.63 2.53-.47.12.63.63-.12.12.63.63-.12 1.28 6.97-.63.12.12.63-.63.12.12.63v-.02Z" fill="#231815"/><path d="m12.69 2.82-.12-.63-1.27.23.12.63-.63.12.35 1.9.63-.12.12.63 1.27-.23-.12-.63.63-.12-.35-1.9-.63.12Zm.12 1.74.12.63-.33.06-.05-.28-.55.1-.07-.36-.08.02-.21-1.16.63-.12-.12-.63.33-.06.05.28.55-.1.07.36.08-.02.21 1.16-.63.12Zm9.17 1.82-.64-.04.04-.64-1.29-.09-.04.64-.64-.04-.13 1.93.64.04-.04.64 1.29.09.04-.64.64.04.13-1.93Zm-.31 1.72-.64-.04-.04.64-.34-.02.02-.28-.56-.04.03-.36h-.08l.08-1.18.64.04.04-.64.33.02-.02.28.56.04-.03.36h.08l-.08 1.18h.01Z" fill="#231815"/><path d="m22.43 10.85.04-.64.64.04.04-.64.64.04.25-3.6-.56-.04.03-.36h-.08l.02-.29-.56-.04.03-.36h-.08l.02-.29-.56-.04.03-.36-2.01-.14.08-1.17.64.04.04-.64.33.02-.02.28.56.04-.03.36H22l-.02.29.56.04-.02.36 1.68.12.12-1.68-.56-.04.03-.36h-.08l.02-.29-.56-.04.02-.36h-.08l.02-.29-.56-.04.03-.36L19.64.2l-.04.64-.64-.04-.04.64-.64-.04-.51 7.46.56.04-.03.36h.08l-.02.29.56.04-.03.36h.08l-.02.29.56.04-.03.36 2.96.2-.01.01Zm-3.29-.79.04-.64-.64-.04.04-.64-.64-.04.49-7.07.64.04.04-.64.64.04.04-.64 2.57.18-.04.64.64.04-.04.64.64.04-.09 1.28-1.29-.09.04-.64-.64-.04.04-.64-1.29-.09-.04.64-.64-.04-.18 2.57.64.04.04-.64 1.93.13-.04.64.64.04-.04.64.64.04-.22 3.21-.64-.04-.04.64-.64-.04-.04.64-2.57-.18.01.02Zm7.93.02 1.22.41.41-1.22.61.2 1.43-4.28-.61-.2.41-1.22-1.22-.41-.41 1.22-.61-.2-1.43 4.28.61.2-.41 1.22Zm.58-1.37 1.19-3.56.61.2.41-1.22.32.11-.29.88.53.18-.12.34.08.03-1.19 3.56-.61-.2-.41 1.22-.32-.11.29-.88-.53-.18.12-.34-.08-.03Z" fill="#231815"/><path d="m25.61 9.5.08.03-.29.88.53.18-.12.35.08.03-.09.27.53.18-.12.34 2.81.94.2-.61.61.2.41-1.22.61.2 1.96-5.87-.53-.18.12-.34-.08-.03.29-.88-.53-.18.12-.34-.08-.03.09-.27-.53-.18.12-.35-2.81-.94-.2.61-.61-.2-.41 1.22-.61-.2-1.96 5.87.53.18-.12.34Zm-.17-.65 1.84-5.5.61.2.41-1.22.61.2.2-.61 2.44.82-.2.61.61.2-.41 1.22.61.2-1.84 5.5-.61-.2-.41 1.22-.61-.2-.2.61-2.44-.82.2-.61-.61-.2.41-1.22-.61-.2Zm13.3 1.89-.07-.04.15-.24-.47-.3.2-.31-.07-.04.15-.24-.47-.3.2-.31-2.5-1.6-.35.54-.54-.35-.35.54-.54-.35-.91 1.42.47.3-.2.31.07.04-.15.24.47.3-.2.31.07.04-.15.24.47.3-.2.31.61.39-.15.24.47.3-.2.31.61.39-.29.45-.83-.53.15-.24-.47-.3.2-.31-.07-.05.15-.24-.47-.3.2-.31-1.41-.91-.91 1.41.47.3-.2.31.07.04-.15.24.47.3-.2.31.07.04-.15.24.47.3-.2.31 2.5 1.6.35-.54.54.35.35-.54.54.35.91-1.42-.47-.3.2-.31-.07-.04.15-.24-.47-.3.2-.31-.07-.04.15-.24-.47-.3.2-.31-.61-.39.15-.24-.47-.3.2-.31-.61-.39.29-.45.83.53-.15.24.47.3-.2.31.07.05-.15.24.47.3-.2.31 1.41.91.91-1.41-.47-.3.2-.31Zm-.97 1.14-1.08-.7.35-.54-.54-.35.35-.54-1.63-1.04-.7 1.08 1.08.7-.35.54 1.08.7-.35.54.54.35-.35.54.54.35-.7 1.08-.54-.35-.35.54-.54-.35-.35.54-2.17-1.39.35-.54-.54-.35.35-.54-.54-.35.7-1.08 1.08.7-.35.54.54.35-.35.54 1.63 1.04.7-1.08-1.08-.7.35-.54-1.08-.7.35-.54-.54-.35.35-.54-.54-.35.7-1.08.54.35.35-.54.54.35.35-.54 2.17 1.39-.35.54.54.35-.35.54.54.35-.7 1.08Z" fill="#231815"/></svg>