<svg fill="none" xmlns="http://www.w3.org/2000/svg" viewBox="0 0 39 16"><path d="m14.6 8.99.63-.13-1.41-6.94-.63.13-.13-.63-.63.13-.13-.63-2.52.51.13.63-.63.13.13.63-.63.13.64 3.16.63-.13.13.63.63-.13.13.63 1.89-.38-.13-.63.63-.13.51 2.52-.63.13.13.63-1.26.26-.13-.63-.63.13-.26-1.26-1.26.26.38 1.89.63-.13.13.63.63-.13.13.63 2.52-.51-.13-.63.63-.13-.13-.63.01-.01Zm-2.16-4.16.13.63-1.26.26-.13-.63-.63.13-.38-1.89.63-.13-.13-.63 1.26-.26.13.63.63-.13.38 1.89-.63.13Zm5.59 4.55.64.03-.03.64 2.57.13.03-.64.64.03.03-.64.64.03.16-3.22-.64-.03.03-.64-.64-.03.03-.64.64.03.03-.64.64.03.1-1.93-.64-.03.03-.64-.64-.03.03-.64-2.57-.13-.03.64-.64-.03-.03.64-.64-.03-.1 1.93.64.03-.03.64.64.03-.03.64-.64-.03-.03.64-.64-.03-.16 3.22.64.03-.03.64Zm1-7.04.64.03.03-.64 1.29.07-.03.64.64.03-.07 1.29-.64-.03-.03.64-1.29-.07.03-.64-.64-.03.07-1.29Zm-.2 3.86.64.03.03-.64 1.29.06-.03.64.64.03-.1 1.93-.64-.03-.03.64-1.29-.06.03-.64-.64-.03.1-1.93ZM1.21 8.23l1.16-.56-.29-.58.58-.29 3.12 6.37 1.15-.57-4.24-8.68-1.16.57.28.58-.58.28.29.58-.58.28.28.58-.58.28.57 1.16Zm27.98 1.84.62.19 1.73-5.53-.61-.19.38-1.23-.62-.19.19-.61-2.46-.77-.19.61-.62-.19-.38 1.23-.61-.19-1.73 5.53.61.19-.38 1.23.62.19-.19.61 2.46.77.19-.62.62.19.38-1.23-.01.01Zm-1.04-1-.38 1.23-1.23-.38.38-1.23-.62-.19 1.35-4.3.61.19.38-1.23 1.23.38-.38 1.23.62.19-1.35 4.3-.62-.19h.01Zm9.62.49-.54-.34.33-.55-2.19-1.35-.34.55-.55-.34-.33.55-.55-.34-.68 1.1.55.34-.34.54.55.34-.34.55 1.1.68-.34.54 1.1.68-.68 1.1-1.64-1.02.34-.54-.55-.34.34-.55-1.1-.68-.68 1.1.55.34-.34.55.55.33-.34.55 2.2 1.35.34-.55.54.34.34-.55.55.34.68-1.1-.55-.33.33-.55-.54-.34.33-.55-1.09-.67.34-.55-1.1-.68.67-1.09 1.65 1.01-.34.55.55.34-.34.54 1.1.68.67-1.1-.54-.33.33-.55Z" fill="#fff"/><path d="m1.12 8.49.5-.25.16.33 1.23-.6 2.67 5.46.5-.25.16.33 1.51-.74-4.42-9.03-.5.25-.16-.33-1.51.74.28.58-.58.28.28.58-.58.28.28.58-.58.28.74 1.51h.02ZM.94 6.21l.58-.28-.28-.58.58-.28-.28-.58 1.16-.57 4.25 8.68-1.16.57-3.11-6.36-.58.28.28.58-1.16.57-.57-1.16.58-.28-.28-.58-.01-.01Zm14.01 3.94.63-.13-.13-.63.63-.13-1.49-7.33-.55.11-.07-.36-.08.02-.06-.27-.55.11-.07-.36-.08.02-.06-.27-.55.11-.07-.36-2.91.59.13.63-.63.13.13.63-.63.13.72 3.54.55-.11.07.36.08-.02.06.27.55-.11.07.36.08-.02.06.27.55-.11.07.36 1.98-.4.23 1.15-.63.13.13.63-.33.07-.06-.27-.55.11-.07-.36-.08.02-.18-.91-.55.11-.07-.36-1.65.33.46 2.28.55-.11.07.36.08-.02.06.27.55-.11.07.36.08-.02.06.27.55-.11.07.36 2.91-.59-.13-.63v.01Zm-.72.23-2.52.51-.13-.63-.63.13-.13-.63-.63.13L9.81 8l1.26-.26.26 1.26.63-.13.13.63 1.26-.26-.13-.63.63-.13-.51-2.52-.63.13.13.63-1.89.38-.13-.63-.63.13-.13-.63-.63.13-.64-3.16.63-.13-.13-.63.63-.13-.13-.63 2.52-.51.13.63.63-.13.13.63.63-.13 1.41 6.94-.63.13.13.63-.63.13.13.63-.01.01Z" fill="#231815"/><path d="m12.06 2.93-.13-.63-1.26.26.13.63-.63.13.38 1.89.63-.13.13.63 1.26-.26-.13-.63.63-.13-.38-1.89-.63.13Zm.15 1.74.13.63-.33.07-.06-.27-.55.11-.07-.36-.08.02-.23-1.15.63-.13-.13-.63.33-.07.06.27.55-.11.07.36.08-.02.23 1.15-.63.13Zm7.14 4.13 1.29.06.03-.64.64.03.1-1.93-.64-.03.03-.64-1.29-.06-.03.64-.64-.03-.1 1.93.64.03-.03.64Zm.21-2.01.64.03.03-.64.33.02v.28l.55.03-.02.36h.08l-.06 1.18-.64-.03-.03.64-.34-.02v-.28l-.54-.03.02-.36h-.08l.06-1.18Z" fill="#231815"/><path d="M17.75 9.28h.08l-.01.28.56.03-.02.36h.08l-.01.28.56.03-.02.36 2.96.15.03-.64.64.03.03-.64.64.03.18-3.61-.56-.03.02-.36h-.08l.01-.28-.56-.03v-.25l.57.03.03-.64.64.03.12-2.32-.56-.03.02-.36h-.08l.01-.28-.56-.03.02-.36h-.08l.01-.28-.56-.03.02-.36-2.96-.15-.03.64-.64-.03-.03.64-.64-.03-.12 2.32.56.03-.02.36h.08l-.01.28.56.03v.25l-.57-.03-.03.64-.64-.03-.18 3.61.56.03-.02.36Zm-.33-.58.16-3.22.64.03.03-.64.64.03.03-.64-.64-.03.03-.64-.64-.03.1-1.93.64.03.03-.64.64.03.03-.64 2.57.13-.03.64.64.03-.03.64.64.03-.1 1.93-.64-.03-.03.64-.64-.03-.03.64.64.03-.03.64.64.03-.16 3.22-.64-.03-.03.64-.64-.03-.03.64-2.57-.13.03-.64-.64-.03.03-.64-.64-.03Z" fill="#231815"/><path d="m19.57 4.3 1.29.07.03-.64.64.03.07-1.29-.64-.03.03-.64-1.29-.07-.03.64-.64-.03-.07 1.29.64.03-.03.64Zm.18-1.36.64.03.03-.64.34.02v.28l.54.03-.02.36h.08l-.03.54-.64-.03-.03.64-.33-.02v-.28l-.54-.03.02-.36h-.08l.03-.54h-.01Zm9.75 1.83.38-1.23-1.23-.38-.38 1.23-.61-.19-1.35 4.3.62.19-.38 1.23 1.23.38.38-1.23.62.19 1.35-4.3-.62-.19h-.01Zm-.86 4.25-.61-.19-.38 1.23-.32-.1.28-.88-.53-.17.11-.35-.08-.03 1.12-3.58.61.19.38-1.23.32.1-.28.88.53.17-.11.35.08.03-1.12 3.58Z" fill="#231815"/><path d="m29.36 12.06.38-1.23.61.19 1.85-5.91-.54-.17.11-.35-.08-.03.28-.88-.53-.17.11-.35-.08-.02.08-.27-.53-.17.11-.35-2.83-.89-.19.61-.61-.19-.38 1.23-.62-.19-1.85 5.91.53.17-.11.35.08.03-.28.88.53.17-.11.35.08.02-.08.27.54.17-.11.35 2.83.89.19-.61.61.19h.01Zm-1.17-.95-.19.62-2.46-.77.19-.61-.62-.19.38-1.23-.61-.19 1.73-5.53.61.19.38-1.23.62.19.19-.61 2.46.77-.19.61.62.19-.38 1.23.61.19-1.73 5.53-.62-.19-.38 1.23-.62-.19.01-.01Zm10.06-.73-.07-.04.15-.24-.48-.29.19-.31-.07-.04.15-.24-.48-.29.19-.31-2.53-1.56-.34.55-.55-.34-.34.55-.55-.34-.88 1.43.48.29-.19.31.07.04-.15.24.48.29-.19.31.07.04-.15.24.48.29-.19.31.62.38-.15.24.48.29-.19.31.62.38-.28.45-.83-.51.15-.24-.48-.29.19-.31-.07-.04.15-.24-.48-.29.19-.31-1.43-.88-.88 1.43.48.29-.19.31.07.04-.15.24.48.29-.19.31.07.04-.15.24.48.29-.19.31 2.53 1.56.34-.55.55.34.34-.55.55.34.88-1.43-.48-.29.19-.31-.07-.04.15-.24-.48-.29.19-.31-.07-.04.15-.24-.48-.29.19-.31-.62-.38.15-.24-.48-.29.19-.31-.62-.38.28-.45.83.51-.15.24.48.29-.19.31.07.04-.15.24.48.29-.19.31 1.43.88.88-1.43-.48-.29.19-.31Zm-.95 1.16-1.1-.68.34-.55-.55-.34.34-.55-1.64-1.01-.68 1.1 1.1.67-.34.55 1.1.68-.34.55.55.34-.34.55.55.34-.68 1.1-.55-.34-.34.55-.55-.34-.34.55-2.19-1.35.34-.55-.55-.34.34-.55-.55-.34.68-1.1 1.1.67-.34.55.55.34-.34.55 1.64 1.01.68-1.1-1.1-.68.34-.55-1.1-.67.34-.55-.55-.34.34-.55-.55-.34.68-1.1.55.34.34-.55.55.34.34-.55 2.19 1.35-.34.55.55.34-.34.55.55.34-.68 1.1v.01Z" fill="#231815"/></svg>