<svg fill="none" xmlns="http://www.w3.org/2000/svg" viewBox="0 0 200 127"><g clip-path="url(#clip0_1119_31681)"><path d="M117.413 46.22c1.88 2.07 5.565.94 7.191-1.341 1.626-2.281 1.901-5.217 2.619-7.92.718-2.704 2.26-5.576 4.974-6.252 3.653-.908 7.191 2.651 10.929 2.165 3.58-.464 5.586-4.255 8.395-6.526 3.326-2.682 8.268-3.157 12.048-1.172m-41.816 45.924 13.263.486c1.594.063 3.548.37 4.065 1.88.507 1.488-.813 2.935-1.098 4.477-.412 2.217 1.447 4.319 3.569 5.068 2.123.75 4.446.497 6.695.38 2.735-.137 5.597-.031 8.036 1.236 2.439 1.267 4.308 3.97 3.812 6.663-.317 1.721-1.51 3.19-1.827 4.921-.317 1.732 1.056 3.97 2.714 3.39m-82.64-51.436-32.144.507c-1.372.02-2.946-.053-3.801-1.12-.908-1.15-.475-2.904.422-4.065.898-1.162 2.176-1.986 3.126-3.115.95-1.13 1.542-2.788.792-4.055-.613-1.035-1.9-1.436-3.084-1.7-1.182-.264-2.46-.507-3.262-1.415-.803-.909-.623-2.693.549-2.947" stroke="#231815" stroke-width="2" stroke-linecap="round" stroke-linejoin="round"/><path d="M13.157 9.905A409.01 409.01 0 0 1 17.423.697a.299.299 0 0 1 .56.063L19.6 7.687l8.775-3.136a1.092 1.092 0 0 1 1.351.528c.349.676.887 1.553 1.436 1.89.95.581 6.2-2.07 7.392-1.172 1.194.898-.243 2.513.37 3.274.612.75 5.27-.634 6.389.75 1.119 1.393-.877 4.17-.465 5.1.412.93 4.076 1.098 4.319 2.386.243 1.289-.296 2.313-4.045 7.508-1.15 1.71 1.88 1.468 1.922 2.735.043 1.267-9.472 12.397-22.059 14.488-12.587 2.101-19.863-3.6-23.157-10.042-3.295-6.442-.592-15.227 11.33-22.102v.011Z" fill="#F590A8"/><path d="M11.795 13.02c.433-1.024.898-2.07 1.362-3.115A409.01 409.01 0 0 1 17.423.697a.299.299 0 0 1 .56.063l1.616 6.927 1.108 4.72" stroke="#231815" stroke-linecap="round" stroke-linejoin="round"/><path d="M13.157 9.905C1.235 16.769-1.468 25.555 1.827 32.006c3.294 6.442 10.57 12.144 23.157 10.042 12.587-2.1 22.102-13.22 22.06-14.487-.043-1.267-3.074-1.025-1.923-2.735 3.76-5.196 4.288-6.22 4.045-7.508-.243-1.289-3.907-1.457-4.32-2.387-.411-.929 1.585-3.706.466-5.1-1.12-1.394-5.777 0-6.39-.75-.612-.76.825-2.365-.369-3.273C37.36 4.9 32.112 7.56 31.162 6.98c-.55-.338-1.088-1.214-1.437-1.89a1.115 1.115 0 0 0-1.351-.528l-8.775 3.136" stroke="#231815" stroke-linecap="round" stroke-linejoin="round"/><path d="M5.322 25.11s2.313 2.187 4.33 0m3.717 0s2.312 2.187 4.33 0" stroke="#000" stroke-linecap="round" stroke-linejoin="round"/><path d="M75.586 78.089c-7.117.074-14.224.844-21.182 2.28-1.289.265-2.62.581-3.644 1.405-1.024.824-1.626 2.323-1.035 3.495.719 1.436 2.83 1.827 3.38 3.327.359.971-.127 2.101-.898 2.787-.77.687-1.795 1.025-2.798 1.31a39.348 39.348 0 0 1-15.533 1.15" stroke="#231815" stroke-width="2" stroke-linecap="round" stroke-linejoin="round"/><path d="m28.522 90.845 8.775-3.136a1.092 1.092 0 0 1 1.351.528c.349.675.887 1.552 1.436 1.89.95.591 6.199-2.07 7.392-1.172 1.193.897-.243 2.513.37 3.263.612.76 5.269-.634 6.388.76 1.12 1.394-.876 4.17-.464 5.1.411.93 4.076 1.098 4.319 2.387.242 1.288-.296 2.312-4.045 7.508-1.15 1.71 1.88 1.457 1.922 2.735.053 1.267-9.472 12.397-22.059 14.498-12.587 2.101-19.863-3.601-23.157-10.042-3.295-6.442-.592-15.227 11.33-22.102 1.732-3.896 3.517-7.634 4.266-9.208a.299.299 0 0 1 .56.064l1.616 6.927Z" fill="#FFE600"/><path d="M20.707 96.177c.433-1.024.898-2.07 1.363-3.115 1.732-3.896 3.516-7.634 4.266-9.208a.299.299 0 0 1 .56.064l1.615 6.927 1.109 4.72" stroke="#231815" stroke-miterlimit="10"/><path d="M22.07 93.062c-11.922 6.864-14.636 15.65-11.331 22.102 3.295 6.441 10.57 12.143 23.157 10.042 12.587-2.101 22.112-13.221 22.06-14.498-.053-1.268-3.073-1.025-1.922-2.735 3.759-5.196 4.287-6.22 4.044-7.508-.243-1.289-3.907-1.458-4.319-2.387-.412-.93 1.584-3.706.465-5.1-1.12-1.394-5.776 0-6.389-.76-.612-.75.834-2.366-.37-3.263-1.203-.898-6.44 1.752-7.391 1.172-.55-.338-1.088-1.215-1.436-1.89a1.115 1.115 0 0 0-1.352-.528l-8.775 3.136" stroke="#231815" stroke-miterlimit="10"/><path d="M14.234 108.268s2.313 2.186 4.33 0m3.716 0s2.313 2.186 4.33 0" stroke="#000" stroke-linecap="round" stroke-linejoin="round"/><path d="M186.843 12.154c-1.732-3.896-3.516-7.634-4.266-9.208-.127-.253-.497-.211-.57.063l-1.616 6.928-8.765-3.137a1.092 1.092 0 0 0-1.351.528c-.349.676-.887 1.553-1.436 1.89-.951.581-6.199-2.07-7.392-1.172-1.193.898.243 2.514-.37 3.263-.612.75-5.269-.633-6.388.76-1.12 1.394.876 4.172.464 5.101-.411.93-4.076 1.098-4.319 2.386-.242 1.289.296 2.313 4.045 7.508 1.14 1.711-1.88 1.458-1.933 2.735-.052 1.268 9.472 12.397 22.06 14.499 12.587 2.101 19.862-3.601 23.157-10.043 3.294-6.44.591-15.227-11.331-22.1h.011Z" fill="#73D194"/><path d="M186.843 12.154c-1.732-3.896-3.517-7.634-4.266-9.208-.127-.253-.497-.211-.571.063l-1.615 6.928-1.099 4.72m8.913.613c-.433-1.025-.898-2.07-1.362-3.116" stroke="#231815" stroke-linecap="round" stroke-linejoin="round"/><path d="M186.843 12.154c11.922 6.864 14.625 15.65 11.33 22.101-3.294 6.442-10.57 12.144-23.157 10.043-12.587-2.102-22.112-13.232-22.059-14.499.053-1.267 3.073-1.024 1.932-2.735-3.759-5.195-4.298-6.22-4.044-7.508.253-1.288 3.907-1.457 4.319-2.386.412-.93-1.584-3.707-.465-5.1 1.119-1.394 5.776 0 6.389-.76.612-.76-.834-2.366.369-3.264 1.204-.897 6.442 1.753 7.392 1.173.56-.338 1.088-1.215 1.436-1.89a1.115 1.115 0 0 1 1.352-.529l8.764 3.137" stroke="#231815" stroke-linecap="round" stroke-linejoin="round"/><path d="M194.678 27.36s-2.312 2.186-4.329 0m-3.728 0s-2.313 2.186-4.329 0" stroke="#000" stroke-linecap="round" stroke-linejoin="round"/><path d="m173.59 88.87-8.775-3.136a1.091 1.091 0 0 0-1.351.528c-.349.676-.887 1.552-1.436 1.89-.951.58-6.199-2.07-7.392-1.172-1.193.897.243 2.513-.37 3.263-.612.75-5.269-.634-6.388.76-1.12 1.394.876 4.171.464 5.1-.412.93-4.076 1.099-4.319 2.387-.242 1.288.296 2.313 4.045 7.508 1.14 1.711-1.88 1.457-1.922 2.735-.053 1.267 9.472 12.397 22.059 14.498 12.587 2.102 19.863-3.601 23.157-10.042 3.295-6.441.592-15.227-11.33-22.101-1.732-3.897-3.517-7.635-4.266-9.208-.127-.254-.497-.212-.57.063l-1.616 6.927h.01Z" fill="#E68169"/><path d="M181.404 94.192c-.433-1.024-.897-2.07-1.362-3.115-1.732-3.896-3.516-7.635-4.266-9.208-.127-.253-.496-.211-.57.063l-1.616 6.928-1.109 4.72" stroke="#231815" stroke-linecap="round" stroke-linejoin="round"/><path d="M180.042 91.088c11.922 6.863 14.636 15.649 11.331 22.101-3.295 6.441-10.57 12.144-23.158 10.042-12.587-2.101-22.111-13.231-22.059-14.498.053-1.267 3.073-1.024 1.922-2.735-3.759-5.196-4.298-6.22-4.044-7.508.253-1.288 3.907-1.457 4.319-2.387.412-.929-1.584-3.706-.465-5.1 1.119-1.394 5.776 0 6.389-.76.612-.76-.834-2.365.369-3.263 1.204-.898 6.442 1.753 7.392 1.172.56-.338 1.088-1.214 1.436-1.89a1.115 1.115 0 0 1 1.352-.528l8.775 3.136" stroke="#231815" stroke-linecap="round" stroke-linejoin="round"/><path d="M187.877 106.294s-2.312 2.185-4.329 0m-3.727 0s-2.313 2.185-4.33 0" stroke="#000" stroke-linecap="round" stroke-linejoin="round"/><path d="M106.283.665H88.648a2.27 2.27 0 0 0-2.27 2.27v8.132a2.27 2.27 0 0 0 2.27 2.27h17.635a2.27 2.27 0 0 0 2.27-2.27V2.936a2.27 2.27 0 0 0-2.27-2.27Z" fill="#00698A" stroke="#231815" stroke-width=".75" stroke-linejoin="round"/><path d="M72.968 10.834h48.986c3.02 0 5.47 2.45 5.47 5.47V91.69c0 3.02-2.45 5.47-5.47 5.47H72.968c-3.02 0-5.47-2.45-5.47-5.47V16.304c0-3.02 2.45-5.47 5.47-5.47Z" fill="#00698A"/><path d="M121.954 11.225a5.081 5.081 0 0 1 5.079 5.08V91.69a5.081 5.081 0 0 1-5.079 5.079H72.967a5.081 5.081 0 0 1-5.079-5.08V16.305a5.081 5.081 0 0 1 5.08-5.079h48.986Zm0-.792H72.967a5.879 5.879 0 0 0-5.87 5.871V91.69a5.879 5.879 0 0 0 5.87 5.87h48.987a5.879 5.879 0 0 0 5.871-5.87V16.304a5.88 5.88 0 0 0-5.871-5.871Z" fill="#231815"/><path d="M120.686 17.17H74.234a.401.401 0 0 0-.401.401v72.851c0 .222.18.402.401.402h46.452a.4.4 0 0 0 .401-.402v-72.85a.4.4 0 0 0-.401-.402Z" fill="#00698A"/><path d="M120.697 17.56v72.862H74.234V17.561h46.463Zm0-.791H74.234a.798.798 0 0 0-.792.792v72.861c0 .433.36.792.792.792h46.463a.798.798 0 0 0 .792-.792V17.561a.798.798 0 0 0-.792-.792Z" fill="#231815"/><mask id="mask0_1119_31681" style="mask-type:luminance" maskUnits="userSpaceOnUse" x="74" y="17" width="47" height="74"><path d="M120.697 90.433V17.571H74.234v72.862h46.463Z" fill="#fff"/></mask><g mask="url(#mask0_1119_31681)" fill="#FFE600" stroke="#231815" stroke-linejoin="round"><path d="M70.539 16.262V5.259l54.118 8.426v11.003l-54.118-8.426Zm0 19.419V24.678l54.118 8.427v11.003L70.539 35.68Zm0 19.419V44.097l54.118 8.427v11.003L70.539 55.1Zm0 19.43V63.527l54.118 8.416v11.014L70.539 74.53Zm0 19.42V82.945l54.118 8.427v11.003l-54.118-8.427Z"/></g><path d="M87.814 80.264s-.105 0-.158-.032a.406.406 0 0 1-.233-.464l6.21-24.847h-6.885a.383.383 0 0 1-.296-.127.405.405 0 0 1-.106-.306L88.458 30.2a.4.4 0 0 1 .391-.36H106.8c.127 0 .254.064.328.17a.383.383 0 0 1 .042.37l-6.135 16.356h7.106c.148 0 .275.074.349.2a.418.418 0 0 1 0 .402L88.141 80.074a.404.404 0 0 1-.337.19h.01Z" fill="#E86547"/><path d="m106.822 30.232-6.336 16.896h7.677L87.814 79.863 94.15 54.52h-7.392l2.112-24.288h17.952Zm-.011-.792H88.86a.802.802 0 0 0-.792.729l-2.112 24.287a.778.778 0 0 0 .781.855h6.378l-6.093 24.362c-.095.38.095.77.465.918.095.043.2.064.306.064a.81.81 0 0 0 .676-.37l20.327-32.693a.754.754 0 0 0 .148-.454.79.79 0 0 0-.792-.792h-6.536l5.934-15.829a.78.78 0 0 0-.095-.728.797.797 0 0 0-.655-.338l.011-.01Z" fill="#231815"/></g><defs><clipPath id="clip0_1119_31681"><path fill="#fff" d="M0 0h200v126.167H0z"/></clipPath></defs></svg>