<svg fill="none" xmlns="http://www.w3.org/2000/svg" viewBox="0 0 375 128"><path fill="#00698A" stroke="#231815" d="M.5.5h374v77H.5z"/><g clip-path="url(#clip0_1032_28064)" fill="#E86547" stroke="#231815" stroke-miterlimit="10"><path d="M13.28.43H.43v12.86h12.85V.43Zm12.85 12.86H13.28v12.859h12.85v-12.86ZM51.82.43H38.97v12.86h12.85V.43Zm12.85 12.86H51.82v12.859h12.85v-12.86Z"/><path d="M77.512 26.14h-12.85V39h12.85V26.14Zm12.85-12.85h-12.85v12.859h12.85v-12.86ZM26.13 64.72H13.28v12.859h12.85v-12.86ZM13.28 51.86H.43v12.86h12.85V51.86Zm148.482-38.57h-12.85v12.859h12.85v-12.86ZM174.612.43h-12.85v12.86h12.85V.43ZM64.67 39H51.82v12.86h12.85V39Zm-25.7-12.86H26.12V39h12.85V26.14ZM26.13 39H13.28v12.86h12.85V39ZM13.28 26.14H.43V39h12.85V26.14Z"/><path d="M38.97 51.86H26.12v12.86h12.85V51.86ZM262.956.438h-12.85v12.86h12.85V.438Zm12.851 12.86h-12.85v12.86h12.85v-12.86Z"/><path d="M288.656 26.149h-12.85v12.86h12.85v-12.86Z"/><path d="M301.497 13.298h-12.85v12.86h12.85v-12.86Zm-25.69 25.711h-12.85v12.86h12.85v-12.86ZM314.571.438h-12.85v12.86h12.85V.438Z"/></g><g filter="url(#filter0_d_1032_28064)"><path d="M79.55 23.07h-2.81c.007.113.015.235.015.357a.244.244 0 0 1-.243.243.25.25 0 0 1-.244-.244 3.497 3.497 0 0 0-3.492-3.492H70.07a3.497 3.497 0 0 0-3.492 3.492.244.244 0 0 1-.244.244.25.25 0 0 1-.244-.244c0-.121 0-.235.017-.357h-2.81a2.7 2.7 0 0 0-2.697 2.697c0 1.17.755 2.168 1.795 2.542.61-.39 1.34-.626 2.12-.626H78.33c.78 0 1.51.228 2.12.626a2.701 2.701 0 0 0-.902-5.247v.008Z" fill="#FFE600"/><path d="M78.331 28.186H64.516a3.445 3.445 0 0 0-3.444 3.444v11.914c0 1.243.658 2.323 1.649 2.932a3.44 3.44 0 0 1 .577-.056h16.251c.195 0 .39.024.577.056a3.45 3.45 0 0 0 1.649-2.932V31.63c0-1.9-1.543-3.444-3.444-3.444Zm-7.821 9.649h-2.542a.244.244 0 0 1-.244-.244.25.25 0 0 1 .244-.244h2.542c.138 0 .243.114.243.244a.25.25 0 0 1-.243.244Zm1.161 3.208a.244.244 0 0 1-.243.243.25.25 0 0 1-.244-.243V38.5c0-.138.114-.244.244-.244a.25.25 0 0 1 .243.244v2.542Zm0-4.361a.244.244 0 0 1-.243.243.25.25 0 0 1-.244-.243v-2.543c0-.138.114-.243.244-.243a.25.25 0 0 1 .243.243v2.542Zm3.208 1.16h-2.542a.244.244 0 0 1-.243-.243.25.25 0 0 1 .243-.243h2.542c.138 0 .244.113.244.243a.25.25 0 0 1-.244.244Zm-11.582 9.073a2.7 2.7 0 0 0-2.696 2.696 2.7 2.7 0 0 0 2.697 2.696h2.793v-.91c0-.137.114-.243.244-.243a.25.25 0 0 1 .244.244v3.508A3.497 3.497 0 0 0 70.07 58.4h2.705a3.497 3.497 0 0 0 3.492-3.493v-3.508c0-.138.114-.244.244-.244a.25.25 0 0 1 .243.244v.91h2.794a2.7 2.7 0 0 0 2.697-2.697 2.7 2.7 0 0 0-2.697-2.696H63.297Zm40.52-19.225c.853 0 1.641.252 2.307.69a2.702 2.702 0 0 0 2.006-2.606 2.707 2.707 0 0 0-2.696-2.705h-4.67c.008.114.016.236.016.358a.245.245 0 0 1-.244.243.25.25 0 0 1-.243-.244 3.498 3.498 0 0 0-3.493-3.492h-2.704a3.497 3.497 0 0 0-3.493 3.492.244.244 0 0 1-.243.244.25.25 0 0 1-.244-.244c0-.121 0-.235.016-.357h-4.67a2.7 2.7 0 0 0-2.696 2.697c0 1.25.852 2.298 2.006 2.607a4.233 4.233 0 0 1 2.306-.69h16.756l-.017.007Z" fill="#FFE600"/><path d="M106.002 45.908c.138 0 .268.008.406.024a3.72 3.72 0 0 0 1.145-2.688V31.922a3.737 3.737 0 0 0-3.736-3.736H87.062a3.737 3.737 0 0 0-3.736 3.736v11.322c0 1.186.56 2.25 1.421 2.932.39-.17.82-.268 1.275-.268h19.98Zm-9.657-8.577h2.542c.138 0 .244.114.244.244a.25.25 0 0 1-.244.243h-2.542a.244.244 0 0 1-.244-.243.25.25 0 0 1 .244-.244Zm-1.161-3.208c0-.138.113-.244.243-.244a.25.25 0 0 1 .244.244v2.542a.244.244 0 0 1-.244.244.25.25 0 0 1-.243-.244v-2.542Zm0 4.361c0-.138.113-.243.243-.243a.25.25 0 0 1 .244.243v2.543a.244.244 0 0 1-.244.243.25.25 0 0 1-.243-.243v-2.543Zm-3.209-1.16h2.543c.138 0 .243.113.243.243a.25.25 0 0 1-.243.243h-2.543a.244.244 0 0 1-.243-.243.25.25 0 0 1 .243-.244Zm14.027 9.079h-19.98a2.7 2.7 0 0 0 0 5.401h1.17a4.392 4.392 0 0 1 7.244 0h1.787a4.57 4.57 0 0 1 1.316-1.332v-1.12c0-.139.114-.244.243-.244a.25.25 0 0 1 .244.243v.829a4.548 4.548 0 0 1 2.047-.48c.138 0 .244.114.244.244a.252.252 0 0 1-.252.252 4.1 4.1 0 1 0 4.101 4.102.26.26 0 0 1 .073-.18l-.073-.072V49.35c0-.138.114-.243.244-.243a.25.25 0 0 1 .244.243v2.445h1.323a2.702 2.702 0 0 0 2.697-2.704 2.695 2.695 0 0 0-2.697-2.697l.025.008Z" fill="#FFE600"/><path d="M90.814 58.212a3.907 3.907 0 1 0 0-7.813 3.907 3.907 0 0 0 0 7.813Z" fill="#FFE600"/><path d="M107.147 46.013a4.31 4.31 0 0 0 .999-2.77v-11.32c0-1.194-.495-2.33-1.364-3.151a3.285 3.285 0 0 0 1.933-2.997 3.3 3.3 0 0 0-3.298-3.298h-4.662a4.114 4.114 0 0 0-3.971-3.135h-2.705a4.115 4.115 0 0 0-3.971 3.135h-4.662a3.292 3.292 0 0 0-2.948 1.82 3.292 3.292 0 0 0-2.949-1.82h-2.802a4.115 4.115 0 0 0-3.971-3.135H70.07a4.115 4.115 0 0 0-3.971 3.135h-2.802A3.3 3.3 0 0 0 60 25.774a3.31 3.31 0 0 0 1.754 2.907 4.038 4.038 0 0 0-1.275 2.94v11.915c0 1.194.52 2.307 1.43 3.078A3.28 3.28 0 0 0 60 49.604a3.3 3.3 0 0 0 3.297 3.297h2.689v2.006a4.094 4.094 0 0 0 4.085 4.085h2.705a4.094 4.094 0 0 0 4.085-4.085V52.9h2.688a3.304 3.304 0 0 0 3.281-2.965 3.304 3.304 0 0 0 3.192 2.461h.707a4.508 4.508 0 0 0-.422 1.9 4.513 4.513 0 0 0 4.507 4.508 4.513 4.513 0 0 0 4.508-4.507c0-.666-.138-1.3-.422-1.9h.893a4.62 4.62 0 0 0-.406 1.9 4.697 4.697 0 0 0 4.694 4.694 4.697 4.697 0 0 0 4.695-4.694v-1.9h1.226a3.3 3.3 0 0 0 1.145-6.393v.008Zm-2.721 2.997a.346.346 0 0 0-.349.35v4.694s.008.049.033.073h.008a.464.464 0 0 0-.041.179 3.998 3.998 0 0 1-3.996 3.996 4.003 4.003 0 0 1-3.996-3.996 4.003 4.003 0 0 1 3.996-3.996.32.32 0 0 0 .244-.106.367.367 0 0 0 .105-.243.346.346 0 0 0-.349-.35c-.682 0-1.332.138-1.94.423v-.666a.347.347 0 0 0-.35-.35.347.347 0 0 0-.35.35v1.064a4.648 4.648 0 0 0-1.266 1.283h-1.682a4.513 4.513 0 0 0-3.679-1.909 4.524 4.524 0 0 0-3.679 1.909h-1.113a2.607 2.607 0 0 1-2.599-2.6 2.607 2.607 0 0 1 2.6-2.598h19.979a2.607 2.607 0 0 1 2.599 2.599c0 1.43-1.17 2.599-2.599 2.599h-1.226v-2.347a.347.347 0 0 0-.35-.35v-.008Zm-13.612 1.487a3.815 3.815 0 0 1 3.81 3.809 3.81 3.81 0 1 1-3.81-3.81Zm-.463-26.721c.195 0 .35-.154.35-.35a3.39 3.39 0 0 1 3.386-3.386h2.705a3.39 3.39 0 0 1 3.387 3.387c0 .195.154.349.349.349a.346.346 0 0 0 .349-.35c0-.089 0-.17-.008-.251h4.565a2.606 2.606 0 0 1 2.598 2.599 2.592 2.592 0 0 1-1.884 2.493 4.285 4.285 0 0 0-2.323-.682H87.07c-.828 0-1.624.235-2.323.682a2.6 2.6 0 0 1-1.884-2.493c0-1.43 1.17-2.6 2.599-2.6h4.564c0 .082-.008.171-.008.253 0 .195.155.349.35.349h-.017Zm17.105 19.468c0 .983-.382 1.892-1.08 2.583a3.053 3.053 0 0 0-.366-.025H86.03c-.438 0-.86.081-1.258.252a3.61 3.61 0 0 1-1.34-2.81V31.922a3.643 3.643 0 0 1 3.638-3.639h16.755a3.643 3.643 0 0 1 3.639 3.639v11.322h-.008ZM76.52 51.057a.347.347 0 0 0-.35.35v3.508a3.39 3.39 0 0 1-3.386 3.387h-2.705a3.39 3.39 0 0 1-3.387-3.387v-3.509a.347.347 0 0 0-.349-.349.347.347 0 0 0-.35.35v.803h-2.687a2.607 2.607 0 0 1-2.6-2.599c0-1.43 1.17-2.599 2.6-2.599h16.251c1.43 0 2.6 1.17 2.6 2.6a2.607 2.607 0 0 1-2.6 2.598H76.87v-.804a.347.347 0 0 0-.35-.349ZM66.335 23.776c.195 0 .35-.154.35-.35a3.39 3.39 0 0 1 3.386-3.386h2.705a3.39 3.39 0 0 1 3.386 3.387c0 .195.155.349.35.349a.346.346 0 0 0 .349-.35c0-.089 0-.17-.008-.251h2.696c1.43 0 2.6 1.17 2.6 2.599 0 1.08-.675 2.046-1.682 2.428a4.051 4.051 0 0 0-2.136-.609H64.516a4.04 4.04 0 0 0-2.136.61 2.602 2.602 0 0 1-1.681-2.43 2.606 2.606 0 0 1 2.599-2.598h2.696c0 .081-.008.17-.008.252 0 .195.154.349.349.349Zm-1.82 4.507h13.816a3.338 3.338 0 0 1 3.338 3.338v11.915a3.33 3.33 0 0 1-1.567 2.827 3.335 3.335 0 0 0-.56-.05H63.296c-.178 0-.365.017-.56.05a3.32 3.32 0 0 1-1.568-2.827V31.621a3.338 3.338 0 0 1 3.339-3.338h.008Zm16.423 18.34a4.016 4.016 0 0 0 1.43-3.079V31.63a4.025 4.025 0 0 0-1.276-2.94 3.334 3.334 0 0 0 1.406-1.438c.34.666.901 1.21 1.583 1.527a4.333 4.333 0 0 0-1.364 3.151v11.322c0 1.202.503 2.355 1.389 3.176a3.316 3.316 0 0 0-1.373 2.355 3.27 3.27 0 0 0-1.803-2.152l.008-.008Z" fill="#231815"/><path d="M67.967 37.932h2.543a.347.347 0 0 0 .349-.35.347.347 0 0 0-.35-.349h-2.542a.347.347 0 0 0-.349.35c0 .195.154.349.35.349Zm4.37 0h2.542c.195 0 .35-.154.35-.35a.347.347 0 0 0-.35-.349h-2.542a.347.347 0 0 0-.35.35c0 .195.155.349.35.349Zm-.917-.91a.346.346 0 0 0 .348-.349v-2.542a.347.347 0 0 0-.349-.35.347.347 0 0 0-.35.35v2.542c0 .195.155.35.35.35Zm0 4.362a.347.347 0 0 0 .348-.35v-2.542a.347.347 0 0 0-.349-.349.347.347 0 0 0-.35.35v2.541c0 .195.155.35.35.35Zm23.106-4.151h-2.542a.347.347 0 0 0-.35.35c0 .195.155.349.35.349h2.542c.195 0 .35-.154.35-.35a.347.347 0 0 0-.35-.349Zm4.362 0h-2.543a.347.347 0 0 0-.349.35c0 .195.154.349.35.349h2.541c.195 0 .35-.154.35-.35a.347.347 0 0 0-.35-.349Zm-3.452-3.451a.347.347 0 0 0-.35.349v2.542c0 .195.155.35.35.35a.347.347 0 0 0 .349-.35v-2.542a.347.347 0 0 0-.35-.35Zm0 4.361a.347.347 0 0 0-.35.35v2.541c0 .195.155.35.35.35a.347.347 0 0 0 .349-.35v-2.542a.347.347 0 0 0-.35-.349Z" fill="#231815"/><path d="M105.588 35.828a.42.42 0 0 1-.423-.422v-3.265c0-.942-.763-1.705-1.705-1.705h-2.664a.419.419 0 0 1-.422-.423c0-.235.186-.422.422-.422h2.664a2.554 2.554 0 0 1 2.55 2.55v3.265a.42.42 0 0 1-.422.422Zm-25.69 0a.42.42 0 0 1-.422-.422v-3.265c0-.942-.763-1.705-1.706-1.705h-2.664a.42.42 0 0 1-.422-.423.42.42 0 0 1 .422-.422h2.664a2.555 2.555 0 0 1 2.55 2.55v3.265a.42.42 0 0 1-.422.422Zm13.45 19.574a.42.42 0 0 1-.422-.422 2.52 2.52 0 0 0-2.518-2.518.42.42 0 0 1-.422-.423.42.42 0 0 1 .422-.422 3.37 3.37 0 0 1 3.363 3.363.42.42 0 0 1-.423.422Z" fill="#fff"/><path d="M146.14 35.763h8.163a5.148 5.148 0 0 0 5.141-5.14 5.148 5.148 0 0 0-5.141-5.142h-8.163v2.453a.244.244 0 0 1-.243.243.25.25 0 0 1-.244-.243v-4.508c0-1.925-1.957-3.492-4.361-3.492h-3.339c-2.404 0-4.361 1.567-4.361 3.492v4.508a.245.245 0 0 1-.244.243.25.25 0 0 1-.243-.243V25.48h-1.34v.122c0 .243 0 .487-.033.73a.244.244 0 0 1-.268.22h-.024a.257.257 0 0 1-.203-.268c.024-.227.032-.447.024-.674a5.783 5.783 0 0 0-5.214-5.653c-3.143-.308-5.978 2.014-6.327 5.19-.918 8.357-6.384 11.484-7.813 12.167v13.758a23.584 23.584 0 0 0 6.895-2.713c.967-.576 2.023-1.3 3.103-2.217a5.197 5.197 0 0 1-2.144-4.207 5.211 5.211 0 0 1 5.206-5.206h3.728c.389-.926.755-1.917 1.08-2.973a.25.25 0 0 1 .284-.17h.024c.13.04.203.178.163.308a27.159 27.159 0 0 1-.634 1.852h3.476V34.43c0-.138.114-.243.244-.243a.25.25 0 0 1 .244.243v4.451a.245.245 0 0 1-.244.244.25.25 0 0 1-.244-.244v-1.665h-8.121a4.714 4.714 0 0 0-4.711 4.71 4.714 4.714 0 0 0 4.711 4.711h8.121v-1.25c0-.138.114-.244.244-.244a.25.25 0 0 1 .244.244v4.45a.245.245 0 0 1-.244.244.25.25 0 0 1-.244-.244v-1.73h-10.534a5.148 5.148 0 0 0-5.141 5.142 5.148 5.148 0 0 0 5.141 5.14h31.749a5.148 5.148 0 0 0 5.141-5.14 5.148 5.148 0 0 0-5.141-5.142h-8.163v1.73a.244.244 0 0 1-.243.244.25.25 0 0 1-.244-.244v-4.45c0-.138.114-.244.244-.244a.25.25 0 0 1 .243.244v1.25h8.374a4.714 4.714 0 0 0 4.711-4.71 4.714 4.714 0 0 0-4.711-4.71h-8.374v1.664a.244.244 0 0 1-.243.244.25.25 0 0 1-.244-.244v-4.45c0-.139.114-.244.244-.244a.25.25 0 0 1 .243.243v1.332Z" fill="#FFE600"/><path d="M154.303 36.356a5.744 5.744 0 0 0 5.734-5.734 5.744 5.744 0 0 0-5.734-5.733h-8.057v-1.462c0-2.25-2.226-4.086-4.963-4.086h-3.338c-2.737 0-4.962 1.836-4.962 4.086v1.462h-1.186c-.374-2.916-2.761-5.23-5.701-5.515-3.452-.341-6.587 2.225-6.977 5.718-.918 8.34-6.498 11.256-7.61 11.752a.35.35 0 0 0-.203.317v14.22a.34.34 0 0 0 .13.269c.081.065.178.09.292.073a24.169 24.169 0 0 0 6.741-2.485 5.716 5.716 0 0 0-1.649 4.02 5.744 5.744 0 0 0 5.734 5.734h31.749a5.744 5.744 0 0 0 5.734-5.734 5.744 5.744 0 0 0-5.734-5.734h-8.057v-.276h8.276a5.314 5.314 0 0 0 5.312-5.312 5.314 5.314 0 0 0-5.312-5.311h-8.276v-.277h8.057v.008Zm-8.406 8.699a.347.347 0 0 0-.35.35v4.45c0 .195.155.35.35.35a.347.347 0 0 0 .349-.35v-1.624h8.057a5.04 5.04 0 0 1 5.035 5.035 5.04 5.04 0 0 1-5.035 5.036h-31.749a5.04 5.04 0 0 1-5.035-5.036 5.04 5.04 0 0 1 5.035-5.035h10.429v1.624c0 .195.154.35.349.35a.346.346 0 0 0 .349-.35v-4.45a.346.346 0 0 0-.349-.35.346.346 0 0 0-.349.35v1.153h-8.016a4.62 4.62 0 0 1-4.614-4.614 4.62 4.62 0 0 1 4.614-4.613h8.016V38.9c0 .195.154.349.349.349a.346.346 0 0 0 .349-.35v-4.45a.346.346 0 0 0-.349-.35.346.346 0 0 0-.349.35v1.21h-3.225c.22-.585.407-1.153.585-1.722a.38.38 0 0 0-.024-.268.329.329 0 0 0-.203-.17c-.008 0-.025 0-.041-.008a.346.346 0 0 0-.398.235c-.3.99-.658 1.974-1.047 2.9h-3.663a5.314 5.314 0 0 0-5.312 5.311c0 1.64.78 3.208 2.079 4.215a21.94 21.94 0 0 1-2.989 2.12 23.245 23.245 0 0 1-6.741 2.672V37.372c1.681-.812 6.904-3.988 7.805-12.215.341-3.12 3.127-5.41 6.213-5.101a5.678 5.678 0 0 1 5.125 5.555c0 .22 0 .439-.024.658a.348.348 0 0 0 .284.374h.033a.347.347 0 0 0 .381-.317c.025-.244.033-.495.033-.739v-.024h1.137v2.347c0 .195.154.35.349.35a.346.346 0 0 0 .349-.35v-4.508c0-1.868 1.909-3.387 4.264-3.387h3.338c2.348 0 4.264 1.52 4.264 3.387v4.508c0 .195.155.35.35.35a.346.346 0 0 0 .349-.35v-2.347h8.057a5.04 5.04 0 0 1 5.035 5.035 5.04 5.04 0 0 1-5.035 5.036h-8.057v-1.21a.346.346 0 0 0-.349-.35.347.347 0 0 0-.35.35v4.45c0 .195.155.35.35.35a.346.346 0 0 0 .349-.35v-1.567h8.276a4.62 4.62 0 0 1 4.613 4.613 4.62 4.62 0 0 1-4.613 4.613h-8.276V45.38a.346.346 0 0 0-.349-.35l-.008.025Zm-16.512-8.422c.04-.09.073-.187.114-.277h3.492v.277h-3.606Zm-7.042 9.925a5.308 5.308 0 0 0 2.624.698h8.016v.276h-10.429c-.641 0-1.267.106-1.843.3a24.63 24.63 0 0 0 1.632-1.274Z" fill="#231815"/><path d="M156.828 30.988a.42.42 0 0 1-.422-.422 2.52 2.52 0 0 0-2.518-2.518.42.42 0 0 1-.422-.422.42.42 0 0 1 .422-.423 3.37 3.37 0 0 1 3.363 3.363.42.42 0 0 1-.423.422Zm0 11.687a.42.42 0 0 1-.422-.422 2.52 2.52 0 0 0-2.518-2.518.42.42 0 0 1-.422-.422.42.42 0 0 1 .422-.423 3.37 3.37 0 0 1 3.363 3.363.42.42 0 0 1-.423.422Zm0 11.192a.42.42 0 0 1-.422-.422 2.52 2.52 0 0 0-2.518-2.518.42.42 0 0 1-.422-.423.42.42 0 0 1 .422-.422 3.37 3.37 0 0 1 3.363 3.362.42.42 0 0 1-.423.423Z" fill="#fff"/><path d="M209.775 49.66a4.004 4.004 0 0 1-3.996 3.996 4.004 4.004 0 0 1-3.996-3.996v-.975h-1.015v.106a3.57 3.57 0 0 1-3.566 3.565c-.292 0-.584-.04-.861-.105l-6.286 1.583c-.244.065-.495.09-.747.09a3.042 3.042 0 0 1-2.29-1.032 3.052 3.052 0 0 1-.561-3.127l.414-1.072h-1.567v1.34a4.179 4.179 0 0 1-4.175 4.175 4.173 4.173 0 0 1-4.174-4.175v-1.34h-1.016l-1.47 3.509a.238.238 0 0 1-.325.13.247.247 0 0 1-.13-.325l2.38-5.701a3.993 3.993 0 0 1-1.242-2.892 3.99 3.99 0 0 1 1.819-3.346 4.676 4.676 0 0 0-1.072-1.291l-2.421 5.798a.237.237 0 0 1-.324.13.22.22 0 0 1-.098-.073.253.253 0 0 1-.041-.251l3.68-8.796.073-.04a.221.221 0 0 1-.008-.204 6.229 6.229 0 0 0 .113-4.402 6.182 6.182 0 0 0-2.444-3.143 5.351 5.351 0 0 1-2.063 1.779.255.255 0 0 1-.333-.114.208.208 0 0 1-.025-.098c0-.097.049-.186.138-.235a4.87 4.87 0 0 0 2.737-4.362 4.842 4.842 0 0 0-4.84-4.84 4.843 4.843 0 0 0-4.841 4.84 4.866 4.866 0 0 0 3.119 4.524.247.247 0 0 1 .163.22c0 .032 0 .064-.017.097a.252.252 0 0 1-.227.162c-.033 0-.057 0-.089-.016a5.271 5.271 0 0 1-1.682-1.04c-1.535 1.641-2.136 4.062-1.348 6.32a6.21 6.21 0 0 0 4.297 3.963.211.211 0 0 1 .154.13.248.248 0 0 1 .016.17.248.248 0 0 1-.235.187c-.025 0-.041 0-.065-.008a6.687 6.687 0 0 1-3.598-2.38l-2.396 5.734a4.799 4.799 0 0 0 3.728 6.587c.065.008.113.04.154.09a.265.265 0 0 1 .057.194.246.246 0 0 1-.244.212h-.032a5.494 5.494 0 0 1-1.284-.358 5.048 5.048 0 0 1-.828-.438l-1.113 2.656a4.738 4.738 0 0 0-.008 3.662 4.765 4.765 0 0 0 2.583 2.6c.373.154.763.267 1.161.324a.25.25 0 0 1 .146.073l.074-.073c.203.025.406.04.609.04h42.16v-9.721h-.682v.983Z" fill="#FFE600"/><path d="M184.37 39.41h19.037a3.999 3.999 0 0 0 3.744-3.988V24.88a4.003 4.003 0 0 0-3.995-3.996h-19.972a4.004 4.004 0 0 0-3.996 3.996v10.542c0 .983.357 1.877.942 2.575a4.188 4.188 0 0 1 4.248 1.421l-.008-.008Zm12.345-12.069c.893-.276 1.08-.47 1.364-1.364a.244.244 0 0 1 .236-.17c.105 0 .203.072.235.17.277.893.471 1.08 1.365 1.364.105.033.17.13.17.236a.254.254 0 0 1-.17.235c-.894.276-1.08.471-1.365 1.365a.243.243 0 0 1-.235.17.255.255 0 0 1-.236-.17c-.276-.894-.471-1.08-1.364-1.365a.244.244 0 0 1-.171-.235c0-.106.073-.203.171-.236Zm0 5.15c.893-.277 1.08-.472 1.364-1.365a.244.244 0 0 1 .236-.17c.105 0 .203.072.235.17.277.893.471 1.08 1.365 1.364.105.033.17.13.17.236a.254.254 0 0 1-.17.235c-.894.277-1.08.471-1.365 1.365a.243.243 0 0 1-.235.17.255.255 0 0 1-.236-.17c-.276-.894-.471-1.08-1.364-1.365a.243.243 0 0 1-.171-.235c0-.106.073-.203.171-.236Zm-10.299-5.15c.894-.276 1.081-.47 1.365-1.364a.243.243 0 0 1 .235-.17c.106 0 .203.072.236.17.276.893.471 1.08 1.364 1.364.106.033.171.13.171.236a.254.254 0 0 1-.171.235c-.893.276-1.08.471-1.364 1.365a.244.244 0 0 1-.236.17.254.254 0 0 1-.235-.17c-.276-.894-.471-1.08-1.365-1.365a.244.244 0 0 1-.17-.235c0-.106.073-.203.17-.236Zm0 5.15c.894-.277 1.081-.472 1.365-1.365a.243.243 0 0 1 .235-.17c.106 0 .203.072.236.17.276.893.471 1.08 1.364 1.364.106.033.171.13.171.236a.254.254 0 0 1-.171.235c-.893.277-1.08.471-1.364 1.365a.244.244 0 0 1-.236.17.254.254 0 0 1-.235-.17c-.276-.894-.471-1.08-1.365-1.365a.244.244 0 0 1-.17-.235c0-.106.073-.203.17-.236Z" fill="#FFE600"/><path d="M203.846 39.906H184.71a4.15 4.15 0 0 1 .593 2.136.244.244 0 0 1-.243.243.25.25 0 0 1-.244-.243 3.682 3.682 0 0 0-3.679-3.68 3.68 3.68 0 0 0-3.679 3.68.245.245 0 0 1-.244.243.25.25 0 0 1-.244-.243c0-.56.114-1.089.309-1.576a3.497 3.497 0 0 0-.309 5.66v-.69c0-.138.114-.243.244-.243a.25.25 0 0 1 .244.243v4.581a3.68 3.68 0 0 0 3.679 3.68 3.681 3.681 0 0 0 3.679-3.68v-4.58c0-.139.114-.244.244-.244a.25.25 0 0 1 .243.243v1.479h2.25l1.495-3.858a3.001 3.001 0 0 1 1.616-1.69 3.034 3.034 0 0 1 2.339-.056 3.002 3.002 0 0 1 1.689 1.616c.333.747.349 1.575.057 2.339l-.463 1.202.293-.073a3.548 3.548 0 0 1 2.631-1.162c1.283 0 2.404.675 3.029 1.698h1.795c.138 0 .244.114.244.244v2.493a3.501 3.501 0 0 0 7.001 0v-4.313a5.439 5.439 0 0 0-5.433-5.433v-.016Z" fill="#FFE600"/><path d="M194.806 50.951a.237.237 0 0 1 .268.05 3.06 3.06 0 0 0 2.128.852c1.689 0 3.07-1.38 3.07-3.07s-1.381-3.07-3.07-3.07c-1.69 0-3.07 1.38-3.07 3.07a.248.248 0 0 1-.155.227c-.032.017-.065.017-.097.017a.245.245 0 0 1-.244-.244c0-.65.171-1.25.48-1.779l-.179.04a.23.23 0 0 1-.244-.072.245.245 0 0 1-.049-.252l.634-1.649a2.554 2.554 0 0 0-.049-1.957 2.557 2.557 0 0 0-3.378-1.308 2.56 2.56 0 0 0-1.357 1.422l-2.591 6.7c-.349.893-.162 1.9.471 2.623a2.553 2.553 0 0 0 2.543.78l5.604-1.405a3.579 3.579 0 0 1-.796-.577c-.098-.097-.106-.251 0-.349a.277.277 0 0 1 .081-.057v.008Z" fill="#FFE600"/><path d="M210.708 48.084h-.828v-2.737a6.04 6.04 0 0 0-4.597-5.855 4.616 4.616 0 0 0 2.453-4.061V24.88a4.603 4.603 0 0 0-4.597-4.598h-19.972a4.603 4.603 0 0 0-4.597 4.597v10.543c0 .974.301 1.9.878 2.688a4.293 4.293 0 0 0-1.836 1.502c-.057.025-.114.05-.162.074a5.378 5.378 0 0 0-1.219-1.422l1.121-2.688c.195-.455.317-.942.374-1.438a6.822 6.822 0 0 0-.285-3.403 6.701 6.701 0 0 0-2.615-3.395 5.404 5.404 0 0 0 .658-2.566 5.438 5.438 0 0 0-5.433-5.434 5.439 5.439 0 0 0-5.434 5.434 5.48 5.48 0 0 0 1.365 3.598 7.18 7.18 0 0 0-1.129 1.657 6.795 6.795 0 0 0 .389 6.619l-2.493 5.97a5.398 5.398 0 0 0 1.568 6.245l-1.121 2.689a5.353 5.353 0 0 0-.016 4.117 5.356 5.356 0 0 0 2.899 2.924c.422.179.861.3 1.308.366.048.008.097 0 .13 0 .259.04.519.056.779.056H210.7c.195 0 .35-.154.35-.349V48.45a.347.347 0 0 0-.35-.35l.008-.016Zm-45.807 1.194a5.376 5.376 0 0 0 2.047.748.343.343 0 0 0 .39-.293.35.35 0 0 0-.081-.276.333.333 0 0 0-.22-.122 4.658 4.658 0 0 1-1.137-.316 4.673 4.673 0 0 1-2.526-2.543 4.639 4.639 0 0 1 .009-3.581l2.331-5.572a6.85 6.85 0 0 0 3.549 2.282.342.342 0 0 0 .422-.252.364.364 0 0 0-.024-.243.365.365 0 0 0-.22-.179 6.124 6.124 0 0 1-4.223-3.906 6.114 6.114 0 0 1 1.259-6.149 5.37 5.37 0 0 0 1.632.991.35.35 0 0 0 .447-.203.34.34 0 0 0-.203-.447 4.77 4.77 0 0 1-3.054-4.426 4.74 4.74 0 0 1 4.735-4.735 4.745 4.745 0 0 1 4.735 4.735 4.748 4.748 0 0 1-2.68 4.264.341.341 0 0 0-.195.325c0 .049.016.097.033.138a.35.35 0 0 0 .463.162 5.352 5.352 0 0 0 2.046-1.738 6.057 6.057 0 0 1 2.323 3.03 6.137 6.137 0 0 1-.105 4.337.29.29 0 0 0-.017.187c-.024.008-.032.032-.048.048l-3.68 8.796a.34.34 0 0 0 .057.358.258.258 0 0 0 .13.097c.09.033.179.04.268 0a.323.323 0 0 0 .187-.187l2.372-5.669c.349.317.649.682.893 1.089a4.081 4.081 0 0 0-1.779 3.378c0 1.105.431 2.136 1.219 2.916l-2.356 5.637a.336.336 0 0 0 .073.373.332.332 0 0 0 .122.081.38.38 0 0 0 .268 0 .323.323 0 0 0 .187-.186l1.438-3.444h.844v1.234a4.277 4.277 0 0 0 4.272 4.272 4.277 4.277 0 0 0 4.272-4.272v-1.234h1.316l-.365.934a3.156 3.156 0 0 0 .576 3.232 3.173 3.173 0 0 0 2.364 1.064c.26 0 .52-.032.771-.097l6.262-1.576c.293.073.585.106.861.106a3.663 3.663 0 0 0 3.663-3.663h.812v.869a4.106 4.106 0 0 0 4.102 4.102 4.1 4.1 0 0 0 4.101-4.102v-.877h.48v9.519h-42.055c-.187 0-.39-.017-.593-.041-.033 0-.065 0-.081.024h-.008s-.082-.024-.122-.032a4.638 4.638 0 0 1-1.137-.317 4.641 4.641 0 0 1-2.526-2.542 4.68 4.68 0 0 1 .008-3.582l1.064-2.542.032.016Zm11.956-7.228c0 .195.154.35.349.35a.346.346 0 0 0 .349-.35 3.579 3.579 0 0 1 3.574-3.574 3.584 3.584 0 0 1 3.573 3.574c0 .195.155.35.35.35a.346.346 0 0 0 .349-.35c0-.715-.179-1.413-.52-2.039h18.956a5.344 5.344 0 0 1 5.336 5.336v4.313a3.407 3.407 0 0 1-3.403 3.403 3.407 3.407 0 0 1-3.403-3.403v-2.493a.346.346 0 0 0-.349-.35h-1.738a3.636 3.636 0 0 0-3.086-1.689c-1.015 0-1.99.43-2.689 1.17l-.073.016.39-1.015a3.142 3.142 0 0 0-.057-2.413 3.134 3.134 0 0 0-1.746-1.665 3.107 3.107 0 0 0-2.412.057 3.108 3.108 0 0 0-1.665 1.747l-1.47 3.793h-2.079v-1.373a.347.347 0 0 0-.35-.35.347.347 0 0 0-.349.35v4.58a3.579 3.579 0 0 1-3.573 3.574 3.584 3.584 0 0 1-3.574-3.573v-4.581a.346.346 0 0 0-.349-.35.346.346 0 0 0-.349.35v.47a3.38 3.38 0 0 1-1.097-2.492c0-1.048.479-2.023 1.3-2.673a4.193 4.193 0 0 0-.203 1.308l.008-.008Zm26.542-2.737H184.41a4.25 4.25 0 0 0-4.256-1.43 3.885 3.885 0 0 1-.877-2.46V24.88a3.9 3.9 0 0 1 3.898-3.898h19.972a3.9 3.9 0 0 1 3.899 3.898v10.543c0 2.046-1.6 3.76-3.639 3.89h-.008Zm-1.722 8.195v.576h-.877a3.529 3.529 0 0 0-.163-.576h1.04Zm-14.465 0-.219.576h-1.584v-.576h1.803Zm7.553 3.346a.364.364 0 0 0-.211.333c0 .098.041.179.106.244.178.17.381.333.601.463l-5.361 1.348a2.497 2.497 0 0 1-2.444-.755 2.459 2.459 0 0 1-.455-2.518l2.591-6.7a2.459 2.459 0 0 1 2.29-1.576c.301 0 .601.056.885.17a2.463 2.463 0 0 1 1.365 1.3c.268.6.284 1.267.04 1.884l-.633 1.649a.34.34 0 0 0 .065.357c.081.09.187.13.3.114a3.654 3.654 0 0 0-.381 1.624c0 .195.154.35.349.35a.41.41 0 0 0 .138-.025.347.347 0 0 0 .211-.325 2.967 2.967 0 0 1 2.973-2.964 2.965 2.965 0 0 1 2.964 2.964 2.977 2.977 0 0 1-2.964 2.973 2.933 2.933 0 0 1-2.055-.829.347.347 0 0 0-.382-.065l.008-.016Zm-18.461-2.778.545-1.291h.008v1.283h-.553v.008Z" fill="#231815"/><path d="M189.633 27.244c-.861-.268-1.024-.44-1.292-1.292a.35.35 0 0 0-.666 0c-.268.861-.438 1.023-1.291 1.291a.35.35 0 0 0 0 .667c.861.267 1.023.438 1.291 1.29a.349.349 0 0 0 .666 0c.268-.86.439-1.023 1.292-1.29a.348.348 0 0 0 .243-.334.348.348 0 0 0-.243-.332Zm-1.024.332a1.62 1.62 0 0 0-.609.61 1.622 1.622 0 0 0-.609-.61 1.62 1.62 0 0 0 .609-.609c.154.26.341.455.609.61Zm11.33-.332c-.861-.268-1.023-.44-1.291-1.292a.342.342 0 0 0-.333-.244.34.34 0 0 0-.333.244c-.268.861-.439 1.023-1.292 1.291a.348.348 0 0 0-.243.334c0 .154.097.284.243.332.861.268 1.024.44 1.292 1.292a.34.34 0 0 0 .333.244.349.349 0 0 0 .333-.244c.268-.861.438-1.024 1.291-1.291a.35.35 0 0 0 0-.666Zm-1.023.332a1.62 1.62 0 0 0-.609.61 1.63 1.63 0 0 0-.609-.61c.259-.154.454-.34.609-.609.154.26.341.455.609.61Zm-9.283 4.817c-.861-.268-1.024-.439-1.292-1.291a.35.35 0 0 0-.666 0c-.268.86-.438 1.023-1.291 1.29a.35.35 0 0 0 0 .667c.861.268 1.023.439 1.291 1.291a.35.35 0 0 0 .666 0c.268-.86.439-1.023 1.292-1.291a.348.348 0 0 0 .243-.333.348.348 0 0 0-.243-.333Zm-1.024.333a1.62 1.62 0 0 0-.609.61 1.622 1.622 0 0 0-.609-.61 1.62 1.62 0 0 0 .609-.61c.154.26.341.456.609.61Zm11.33-.333c-.861-.268-1.023-.439-1.291-1.291a.342.342 0 0 0-.333-.244.348.348 0 0 0-.333.244c-.268.86-.439 1.023-1.292 1.29a.348.348 0 0 0-.243.334c0 .154.097.284.243.333.861.268 1.024.439 1.292 1.291a.348.348 0 0 0 .666 0c.268-.86.438-1.023 1.291-1.291a.35.35 0 0 0 0-.666Zm-1.023.333a1.62 1.62 0 0 0-.609.61 1.63 1.63 0 0 0-.609-.61c.259-.154.454-.341.609-.61.154.26.341.456.609.61Z" fill="#231815"/><path d="M188.008 28.405a1.56 1.56 0 0 1 .821-.82 1.56 1.56 0 0 1-.821-.82 1.558 1.558 0 0 1-.82.82c.398.187.633.422.82.82Zm10.299 0c.186-.398.422-.633.82-.82a1.555 1.555 0 0 1-.82-.82 1.56 1.56 0 0 1-.821.82c.398.187.634.422.821.82Zm-10.299 5.141a1.56 1.56 0 0 1 .821-.82 1.56 1.56 0 0 1-.821-.82 1.558 1.558 0 0 1-.82.82c.398.187.633.422.82.82Zm10.299 0c.186-.398.422-.633.82-.82a1.555 1.555 0 0 1-.82-.82 1.56 1.56 0 0 1-.821.82c.398.187.634.422.821.82Zm6.871-4.556a.42.42 0 0 1-.423-.422v-3.265c0-.942-.763-1.706-1.705-1.706h-2.664a.42.42 0 0 1-.423-.422.42.42 0 0 1 .423-.423h2.664a2.554 2.554 0 0 1 2.55 2.55v3.266a.42.42 0 0 1-.422.422Zm-32.366-3.882a.42.42 0 0 1-.422-.423 2.52 2.52 0 0 0-2.518-2.518.42.42 0 0 1-.422-.422.42.42 0 0 1 .422-.422 3.369 3.369 0 0 1 3.362 3.362.419.419 0 0 1-.422.423Zm34.201 21.182a.42.42 0 0 1-.422-.423v-.739a2.811 2.811 0 0 0-2.81-2.81h-1.56a.42.42 0 0 1-.422-.422.42.42 0 0 1 .422-.423h1.56a3.668 3.668 0 0 1 3.662 3.663v.74a.419.419 0 0 1-.422.422l-.008-.009Z" fill="#fff"/><path d="M247.127 41.847h-18.81c-.634 1.786-2.38 5.596-6.498 8.633v3.55a4.371 4.371 0 0 0 4.37 4.369h24.008a4.377 4.377 0 0 0 4.37-4.37v-2.89c-4.809-3.12-6.774-7.376-7.456-9.292h.016Zm-1.023 10.55a.245.245 0 0 1-.244.244.25.25 0 0 1-.244-.244v-.682h-14.814v.682a.245.245 0 0 1-.244.244.25.25 0 0 1-.243-.244v-1.9c0-.139.113-.244.243-.244a.25.25 0 0 1 .244.243v.723h14.814v-.723c0-.138.114-.243.244-.243a.25.25 0 0 1 .244.243v1.9Zm0-3.963a.245.245 0 0 1-.244.243.25.25 0 0 1-.244-.243v-.683h-14.814v.683a.245.245 0 0 1-.244.243.25.25 0 0 1-.243-.243v-1.901c0-.138.113-.244.243-.244a.25.25 0 0 1 .244.244v.723h14.814v-.723c0-.138.114-.244.244-.244a.25.25 0 0 1 .244.244v1.9Zm-24.122-15.156h31.35a4.213 4.213 0 0 0 4.207-4.207 4.218 4.218 0 0 0-4.207-4.207h-.081a5.174 5.174 0 0 1-5.158 4.922.244.244 0 0 1-.243-.244c0-.049.016-.097.04-.138a.25.25 0 0 1 .203-.114 4.676 4.676 0 0 0 4.67-4.67 4.676 4.676 0 0 0-4.67-4.67 4.678 4.678 0 0 0-4.215 2.656c.203.528.309 1.105.309 1.706v2.615a.245.245 0 0 1-.488-.032v-2.583a4.367 4.367 0 0 0-4.361-4.362H236a4.368 4.368 0 0 0-4.362 4.362v2.582a.245.245 0 0 1-.487.032v-2.614c0-.601.114-1.178.309-1.706a4.69 4.69 0 0 0-4.215-2.656 4.676 4.676 0 0 0-4.671 4.67 4.676 4.676 0 0 0 4.671 4.67c.089 0 .162.04.203.114.024.04.04.09.04.138a.244.244 0 0 1-.243.244 5.168 5.168 0 0 1-5.158-4.922h-.081a4.213 4.213 0 0 0-4.207 4.207 4.218 4.218 0 0 0 4.207 4.207h-.024Z" fill="#FFE600"/><path d="M260.122 43.61c-2.997-1.73-4.021-4.305-4.224-4.906l-.024-.057v-.008s0-.025-.016-.057a.25.25 0 0 1 .17-.309c.13-.04.268.04.309.17.024.09.39 1.308 1.527 2.657a4.215 4.215 0 0 0 2.753-3.948 4.213 4.213 0 0 0-4.207-4.207h-.39a4.688 4.688 0 0 1-2.68.845h-31.35a4.634 4.634 0 0 1-2.681-.845h-1.275a4.214 4.214 0 0 0-4.207 4.207 4.23 4.23 0 0 0 3.582 4.167c1.283-1.43 1.689-2.778 1.714-2.867a.257.257 0 0 1 .308-.17c.13.04.211.17.171.308l-.016.057c0 .024-.008.04-.025.057-.203.6-1.226 3.183-4.223 4.913a4.375 4.375 0 0 0-2.055 2.68 4.417 4.417 0 0 0 .439 3.347 4.423 4.423 0 0 0 3.825 2.209c.772 0 1.535-.203 2.201-.593 6.571-3.793 8.236-9.803 8.398-10.477a.251.251 0 0 1 .301-.179.25.25 0 0 1 .178.3c-.016.082-.065.236-.13.455h18.477c-.065-.219-.105-.373-.13-.454a.251.251 0 0 1 .179-.3.251.251 0 0 1 .301.178c.17.674 1.827 6.684 8.398 10.477.674.39 1.429.593 2.201.593a4.414 4.414 0 0 0 2.209-8.236l-.008-.008Z" fill="#FFE600"/><path d="M260.423 43.098a9.428 9.428 0 0 1-2.031-1.576 4.8 4.8 0 0 0 2.827-4.378 4.782 4.782 0 0 0-4.378-4.783 4.754 4.754 0 0 0 1.307-3.29c0-2.648-2.152-4.8-4.791-4.808a5.256 5.256 0 0 0-5.255-4.922 5.29 5.29 0 0 0-4.467 2.486 4.958 4.958 0 0 0-4.297-2.486H236c-1.778 0-3.411.95-4.296 2.486a5.29 5.29 0 0 0-4.467-2.486 5.256 5.256 0 0 0-5.255 4.922c-2.648 0-4.792 2.16-4.792 4.808 0 1.227.455 2.372 1.283 3.265h-.438a4.818 4.818 0 0 0-4.808 4.808c0 2.16 1.486 4.086 3.565 4.646a9.377 9.377 0 0 1-1.762 1.308 4.962 4.962 0 0 0-2.339 3.045c-.35 1.3-.171 2.64.503 3.801a5.043 5.043 0 0 0 4.345 2.51c.877 0 1.738-.236 2.502-.674.406-.236.796-.48 1.194-.755v3.005a4.975 4.975 0 0 0 4.97 4.97h24.008a4.976 4.976 0 0 0 4.971-4.97v-2.396c.081.048.154.097.236.146a5.02 5.02 0 0 0 2.501.674 5.023 5.023 0 0 0 4.345-2.51 4.974 4.974 0 0 0 .496-3.8 5.031 5.031 0 0 0-2.331-3.046h-.008Zm-38.498 7.44c3.996-2.965 5.758-6.62 6.465-8.577h18.664c.642 1.786 2.615 6.107 7.423 9.242v2.835a4.277 4.277 0 0 1-4.272 4.272h-24.008a4.277 4.277 0 0 1-4.272-4.272v-3.5Zm25.145-10.04s-.057 0-.081.009a.332.332 0 0 0-.211.162.342.342 0 0 0-.041.268l.09.325h-18.21c.049-.154.074-.26.09-.325a.348.348 0 0 0-.041-.268.353.353 0 0 0-.211-.162.352.352 0 0 0-.422.252c-.171.666-1.811 6.643-8.35 10.412a4.269 4.269 0 0 1-2.152.576 4.345 4.345 0 0 1-3.744-2.16 4.27 4.27 0 0 1-.43-3.273 4.288 4.288 0 0 1 2.014-2.615c3.054-1.763 4.093-4.443 4.264-4.955a.131.131 0 0 0 .024-.065v-.072a.329.329 0 0 0-.227-.431.344.344 0 0 0-.268.032.398.398 0 0 0-.171.212c-.049.17-.455 1.429-1.649 2.777a4.13 4.13 0 0 1-3.435-4.053 4.115 4.115 0 0 1 4.11-4.11h1.242a4.763 4.763 0 0 0 2.713.845h31.35c.975 0 1.909-.292 2.713-.844h.357a4.115 4.115 0 0 1 4.11 4.11 4.132 4.132 0 0 1-2.624 3.833c-1.055-1.267-1.413-2.404-1.462-2.559a.338.338 0 0 0-.43-.235.342.342 0 0 0-.235.43c0 .025.008.041.016.065a.12.12 0 0 0 .024.065c.179.52 1.21 3.2 4.264 4.963a4.248 4.248 0 0 1 2.006 2.615 4.31 4.31 0 0 1-.43 3.273 4.335 4.335 0 0 1-3.744 2.16 4.36 4.36 0 0 1-2.153-.576c-6.538-3.777-8.187-9.746-8.349-10.412a.33.33 0 0 0-.162-.212.35.35 0 0 0-.179-.048l.024-.008Zm-19.492-10.964a.41.41 0 0 0-.057-.195.345.345 0 0 0-.292-.154 4.572 4.572 0 1 1 0-9.145 4.596 4.596 0 0 1 4.101 2.566 4.858 4.858 0 0 0-.3 1.698v2.631a.346.346 0 0 0 .69-.049v-2.582a4.269 4.269 0 0 1 4.264-4.264h3.338a4.269 4.269 0 0 1 4.264 4.264v2.583c0 .194.154.349.349.349.171 0 .325-.13.341-.3v-2.633c0-.585-.097-1.154-.3-1.698a4.596 4.596 0 0 1 4.101-2.566 4.572 4.572 0 1 1 0 9.145.355.355 0 0 0-.292.154.321.321 0 0 0-.057.195c0 .195.154.35.349.35a5.256 5.256 0 0 0 5.255-4.922c2.258 0 4.094 1.843 4.094 4.11a4.115 4.115 0 0 1-4.11 4.109h-31.35a4.115 4.115 0 0 1-4.11-4.11 4.111 4.111 0 0 1 4.093-4.11 5.256 5.256 0 0 0 5.255 4.922c.195 0 .35-.154.35-.349h.024Z" fill="#231815"/><path d="M230.542 48.783a.346.346 0 0 0 .349-.35v-.576h14.612v.576c0 .195.154.35.349.35a.346.346 0 0 0 .349-.35v-1.9a.346.346 0 0 0-.349-.35.346.346 0 0 0-.349.35v.625h-14.612v-.625a.346.346 0 0 0-.349-.35.346.346 0 0 0-.349.35v1.9c0 .195.154.35.349.35Zm0 3.963a.346.346 0 0 0 .349-.35v-.576h14.612v.577c0 .195.154.349.349.349a.346.346 0 0 0 .349-.35v-1.9a.346.346 0 0 0-.349-.349.346.346 0 0 0-.349.35v.625h-14.612v-.626a.346.346 0 0 0-.349-.349.346.346 0 0 0-.349.35v1.9c0 .195.154.349.349.349Z" fill="#231815"/><path d="M250.367 25.116a.42.42 0 0 1-.422-.422 2.52 2.52 0 0 0-2.518-2.518.42.42 0 0 1-.422-.423.42.42 0 0 1 .422-.422 3.37 3.37 0 0 1 3.363 3.363.42.42 0 0 1-.423.422Zm7.838 13.157a.42.42 0 0 1-.422-.422 2.52 2.52 0 0 0-2.518-2.518.42.42 0 0 1-.422-.422.42.42 0 0 1 .422-.423 3.37 3.37 0 0 1 3.363 3.363.42.42 0 0 1-.423.422Zm-9.259 18.599h-.739a.419.419 0 0 1-.422-.422.42.42 0 0 1 .422-.423h.739a2.811 2.811 0 0 0 2.81-2.81v-1.56a.42.42 0 0 1 .423-.422.42.42 0 0 1 .422.423v1.56a3.67 3.67 0 0 1-3.663 3.662l.008-.008Z" fill="#fff"/><path d="M282.839 27.69c-.098.211-.204.43-.325.634-1.129 1.933-2.567 4.036-4.346 6.034v5.296c5.734-2.713 9.617-7.635 12.021-11.745a5.298 5.298 0 0 0-1.901-7.245 5.255 5.255 0 0 0-4.012-.551 5.303 5.303 0 0 0-2.29 1.267 6.103 6.103 0 0 1 .844 6.31h.009Z" fill="#FFE600"/><path d="M274.595 49.562a4.912 4.912 0 0 1 3.038-6.002c.008 0 .024-.016.04-.016V33.376c0-.139.114-.244.244-.244a.25.25 0 0 1 .244.244v.227a38.27 38.27 0 0 0 3.923-5.531 5.626 5.626 0 0 0-2.015-7.708c-2.68-1.567-6.14-.666-7.707 2.015-2.421 4.133-5.223 6.887-8.317 8.178V42.27a22.204 22.204 0 0 0 3.703-1.064v-2.412c0-.138.114-.244.244-.244.098 0 .171.049.219.13a.26.26 0 0 1 .033.122v14.895a4.714 4.714 0 0 0 4.711 4.71 4.713 4.713 0 0 0 4.71-4.71v-.885a4.95 4.95 0 0 1-3.078-3.233l.008-.016Z" fill="#FFE600"/><path d="M310.526 44.023s-.016 0-.024-.008c-.025-.008-.057-.032-.106-.056h-.089a.308.308 0 0 1-.155-.13c-.511-.3-1.502-.959-2.98-2.25-1.576-1.38-2.38-2.331-2.713-2.786a.225.225 0 0 1-.106-.105c-.008-.025-.016-.041-.016-.066a.591.591 0 0 1-.049-.073s0-.008-.008-.016a4.404 4.404 0 0 0-5.807-1.9.217.217 0 0 1-.187.008.242.242 0 0 1-.138-.13.263.263 0 0 1 .114-.333c.357-.17.731-.3 1.105-.374v-3.622c0-.138.113-.244.243-.244a.25.25 0 0 1 .244.244v1.446h2.111a6.228 6.228 0 0 1-1.429-3.98c0-.138.114-.244.244-.244a.25.25 0 0 1 .251.252 5.773 5.773 0 0 0 5.767 5.767 5.778 5.778 0 0 0 5.766-5.767 5.778 5.778 0 0 0-5.766-5.766.253.253 0 0 1-.179-.074l-.073.074h-15.269a5.758 5.758 0 0 1-.625 4.328 35.931 35.931 0 0 1-3.866 5.426h2.323v-1.446c0-.138.113-.244.243-.244a.25.25 0 0 1 .244.244v3.777c.187.065.365.138.552.22a.243.243 0 0 1 .114.332.268.268 0 0 1-.138.13.249.249 0 0 1-.187-.008 4.41 4.41 0 0 0-5.807 1.9s0 .008-.008.017a.576.576 0 0 1-.049.073v.032a.062.062 0 0 1-.016.04.266.266 0 0 1-.106.106c-.341.455-1.137 1.405-2.712 2.786-1.47 1.292-2.461 1.95-2.973 2.25a.238.238 0 0 1-.154.138h-.098c-.049.024-.089.04-.105.057 0 0-.017 0-.025.008a4.404 4.404 0 0 0-2.737 5.401 4.438 4.438 0 0 0 4.232 3.167c.422 0 .844-.064 1.25-.178.926-.276 2.989-1.186 6.449-4.207 3.468-3.03 4.63-5.011 4.971-5.726a.265.265 0 0 1 .138-.13.244.244 0 0 1 .3.341c-.268.552-1.007 1.844-2.85 3.752v1.357a6.225 6.225 0 0 1 3.979-1.43c.138 0 .244.114.244.244a.25.25 0 0 1-.252.252 5.772 5.772 0 0 0-5.766 5.766 5.778 5.778 0 0 0 5.766 5.767 5.778 5.778 0 0 0 5.767-5.767.25.25 0 0 1 .073-.178l-.073-.074V47.03c-2.25-2.226-3.111-3.712-3.403-4.313a.264.264 0 0 1 .113-.333.217.217 0 0 1 .187-.008.24.24 0 0 1 .138.13c.341.706 1.511 2.688 4.971 5.726 3.46 3.03 5.523 3.939 6.448 4.207.407.122.829.178 1.251.178a4.44 4.44 0 0 0 4.232-3.167 4.419 4.419 0 0 0-2.737-5.401l-.049-.025Z" fill="#FFE600"/><path d="M310.745 43.471c-.203-.097-1.267-.666-3.2-2.355-1.957-1.714-2.672-2.729-2.786-2.916a4.987 4.987 0 0 0-4.84-2.623v-1.389h2.428a6.325 6.325 0 0 0 4.418 1.787c3.509 0 6.36-2.85 6.36-6.36 0-3.508-2.851-6.35-6.335-6.359h-15.619a5.942 5.942 0 0 0-2.566-3.094 5.846 5.846 0 0 0-4.467-.618 6 6 0 0 0-2.461 1.324c-.382-.39-.82-.73-1.299-1.007-2.965-1.738-6.79-.739-8.52 2.226-2.396 4.085-5.149 6.773-8.187 7.991a.354.354 0 0 0-.219.325v12.175a.34.34 0 0 0 .13.268c.073.065.162.09.284.073a23.13 23.13 0 0 0 3.785-1.031v11.809a5.313 5.313 0 0 0 5.311 5.311 5.314 5.314 0 0 0 5.312-5.311v-.61a4.917 4.917 0 0 0 2.453-.097c.974-.284 3.127-1.226 6.676-4.329.56-.495 1.096-.983 1.584-1.462v1.032a6.322 6.322 0 0 0-1.787 4.418 6.364 6.364 0 0 0 6.359 6.36c3.509 0 6.352-2.851 6.36-6.352v-4.93c.333.317.682.626 1.023.926 3.541 3.102 5.702 4.045 6.668 4.329.463.138.942.203 1.421.203a5.046 5.046 0 0 0 4.808-3.598 5.012 5.012 0 0 0-3.094-6.124v.008Zm-14.757-1.194a.367.367 0 0 0-.179.203.348.348 0 0 0 .016.268c.26.545 1.113 2.055 3.395 4.313v5.336s.008.049.033.073h.008a.464.464 0 0 0-.041.179 5.674 5.674 0 0 1-5.669 5.669 5.674 5.674 0 0 1-5.669-5.67 5.674 5.674 0 0 1 5.669-5.668.309.309 0 0 0 .244-.106.346.346 0 0 0-.244-.593 6.407 6.407 0 0 0-3.882 1.324v-1.104c1.811-1.884 2.558-3.16 2.843-3.753a.346.346 0 0 0 .016-.268.37.37 0 0 0-.179-.203.34.34 0 0 0-.463.163c-.341.706-1.494 2.672-4.946 5.693-3.444 3.013-5.498 3.915-6.408 4.191a4.174 4.174 0 0 1-1.218.179 4.335 4.335 0 0 1-4.134-3.095 4.307 4.307 0 0 1 2.68-5.279.06.06 0 0 0 .032-.016c.017-.008.049-.024.09-.04h.056c.017 0 .033 0 .057-.017a.356.356 0 0 0 .203-.162c.577-.341 1.552-1.008 2.965-2.242 1.575-1.373 2.371-2.331 2.713-2.786a.398.398 0 0 0 .129-.13v-.024a.415.415 0 0 0 .025-.065v-.016a.224.224 0 0 0 .032-.057s.017-.024.017-.033a4.292 4.292 0 0 1 5.669-1.851.34.34 0 0 0 .268.016.37.37 0 0 0 .203-.179.346.346 0 0 0 .016-.268.37.37 0 0 0-.179-.203 4.4 4.4 0 0 0-.487-.203V32.15a.346.346 0 0 0-.349-.35.347.347 0 0 0-.35.35v1.34h-1.998c1.357-1.576 2.608-3.355 3.728-5.272.114-.186.22-.398.309-.609a5.79 5.79 0 0 0 .349-3.663h15.139s.057-.008.073-.032h.009a.516.516 0 0 0 .162.032 5.674 5.674 0 0 1 5.669 5.67 5.674 5.674 0 0 1-5.669 5.669 5.674 5.674 0 0 1-5.669-5.67.321.321 0 0 0-.106-.243.351.351 0 0 0-.243-.106.347.347 0 0 0-.35.35c0 1.404.472 2.769 1.324 3.882h-1.795v-1.34a.346.346 0 0 0-.349-.35.346.346 0 0 0-.349.35v3.54a5.352 5.352 0 0 0-1.048.366.365.365 0 0 0-.178.203.339.339 0 0 0 .016.268c.04.082.113.146.203.179a.343.343 0 0 0 .268-.016 4.297 4.297 0 0 1 5.669 1.852c0 .008.008.016.016.032l.041.057s.008.04.016.057v.008s0 .016.008.016a.357.357 0 0 0 .13.138c.341.455 1.145 1.405 2.713 2.786 1.486 1.3 2.493 1.965 2.972 2.25a.33.33 0 0 0 .203.154h.025c.024 0 .057.008.081.008 0 0 .065.033.089.049.008 0 .025.008.033.016a4.322 4.322 0 0 1 2.68 5.28 4.335 4.335 0 0 1-4.134 3.094 4.13 4.13 0 0 1-1.218-.179c-.918-.268-2.965-1.17-6.408-4.19-3.452-3.022-4.605-4.988-4.947-5.694a.363.363 0 0 0-.203-.179.34.34 0 0 0-.268.016l.025.008ZM268.3 38.631a.347.347 0 0 0-.308-.179.346.346 0 0 0-.349.35v2.338c-1.146.43-2.323.772-3.501 1.007V30.631c3.094-1.308 5.888-4.07 8.309-8.195a5.546 5.546 0 0 1 7.569-1.982 5.523 5.523 0 0 1 1.982 7.561 37.98 37.98 0 0 1-3.736 5.312.346.346 0 0 0-.69.049v10.103a5.011 5.011 0 0 0-3.071 6.116 5.062 5.062 0 0 0 3.071 3.281v.82a4.621 4.621 0 0 1-4.614 4.614 4.62 4.62 0 0 1-4.613-4.613V38.8a.442.442 0 0 0-.04-.17h-.009Zm16.009-18.413a5.18 5.18 0 0 1 3.939.545 5.202 5.202 0 0 1 2.136 6.57 5.021 5.021 0 0 1-.276.536c-2.21 3.777-6.059 8.845-11.834 11.63v-5.092c1.576-1.778 3.029-3.8 4.329-6.026a6.95 6.95 0 0 0 .333-.642 6.203 6.203 0 0 0-.804-6.343 5.175 5.175 0 0 1 2.177-1.178Zm-6.035 22.863v-2.81c2.932-1.356 5.653-3.403 8.089-6.083h2.616v1.47a5.025 5.025 0 0 0-5.393 2.534c-.122.187-.837 1.21-2.794 2.924-1.154 1.007-1.99 1.616-2.526 1.957l.008.008Z" fill="#231815"/><path d="M310.152 30.395a.42.42 0 0 1-.422-.422 3.678 3.678 0 0 0-3.671-3.671.42.42 0 0 1-.422-.423.42.42 0 0 1 .422-.422 4.53 4.53 0 0 1 4.524 4.524.42.42 0 0 1-.422.422l-.009-.008Zm.942 19.761a.425.425 0 0 1-.398-.569c.252-.69.22-1.438-.089-2.095a2.724 2.724 0 0 0-1.551-1.422.425.425 0 0 1 .292-.796 3.572 3.572 0 0 1 2.031 1.86c.406.87.446 1.844.122 2.745a.429.429 0 0 1-.398.277h-.009Z" fill="#fff"/></g><path fill="#E86546" stroke="#231815" d="M.5 77.5h374v50H.5z"/><g clip-path="url(#clip1_1032_28064)"><path d="M203.605 113.515h-3.129v3.129h3.129v-3.129Zm-4.694 0h-3.129v3.129h3.129v-3.129Zm7.824 0h-1.565v3.129h1.565v-3.129Zm27.757-3.135h-1.565v-1.565h-3.129v3.13h1.565v1.57h1.564v1.565h-3.129v1.564h4.694v-1.564h1.565v-1.565h1.564v-4.7h-3.129v1.565Z" fill="#fff"/><path d="M216.123 90.04h-9.389v1.564h-1.564v6.258h1.564v1.565h7.824v14.082h-1.565v-3.129h-1.564v-1.565h-4.695v-1.564h4.695v-1.565h-4.695v-1.565h6.259v-3.129h-15.647v1.564h-1.564v7.824h1.564v1.565h12.518v1.564h-1.565v3.13h3.13v-1.565h1.564v1.565h3.13v-1.565h1.564v-23.47h-1.564v-1.565Zm-12.518 18.775h-4.694v-1.564h4.694v1.564Zm0-3.129h-4.694v-1.565h4.694v1.565Zm10.953-7.824h-6.259v-1.564h6.259v1.564Zm0-3.129h-6.259v-1.565h6.259v1.565Zm-34.016-6.258h-3.13v4.694h-9.388v3.129h9.388v17.217h-6.258v3.129h7.823v-1.564h1.565V96.298h3.129v-3.13h-3.129v-4.693Zm-80.55 21.905v-1.565h-1.565v-1.564h3.13v-3.13h-4.694v-3.129h4.694v-3.13h-3.13v-1.564h1.565v-3.13h1.565V90.04h-4.694v-1.564h-3.13v1.564H89.04v3.13h1.565v3.129h1.565v1.565h-4.694v3.129h6.258v3.129H89.04v3.13h3.13v1.564h-1.565v1.565H89.04v1.565h-1.564v3.129h3.129v-1.565h1.565v-1.564h1.564v4.694h3.13v-4.694h1.564v1.564h3.13v-3.129h-1.565Zm-6.259-12.517v-3.13H92.17V93.17h6.258v1.564h-1.564v3.13h-3.13Z" fill="#fff"/><path d="M106.251 93.169h4.694v-1.565h3.129v-3.13h-3.129v1.565h-6.259v1.565h-1.565v21.911h-1.564v3.129h3.129v-3.129h1.565V99.427h3.129v17.217h3.129V99.427h3.135v-3.129h-9.393v-3.13Zm95.79 4.693h1.564v-6.258h-1.564v-1.565h-9.388v1.565h-1.565v25.035h3.129V99.427h7.824v-1.565Zm-1.565 0h-6.259v-1.564h6.259v1.564Zm0-3.129h-6.259v-1.565h6.259v1.565Zm-26.193 7.824h-1.565v-3.13h-3.129v3.13h1.565v3.129h1.564v3.129h3.13v-3.129h-1.565v-3.129Zm-34.016-1.565h7.823v-3.13h-9.388v-3.129h-1.565V93.17h6.259v-1.565h3.13v-3.13h-4.694v1.565h-6.259v1.565h-12.518v3.13h10.953v1.564h1.565v1.565h-12.518v3.129h14.082v3.129h-15.646v3.13h15.646v4.694h-1.564v1.57h-4.694v-1.57h-3.13v3.135h1.565v1.564h7.823v-1.564h1.565v-1.565h1.565v-6.264h9.388v-3.13h-9.388v-3.129Zm26.193 0h-1.565v-1.565h-1.565v-3.129h3.13v-3.13h-3.13v-4.693h-3.129v4.694h-4.694v3.129h4.694v1.565h-1.565v3.129h-1.564v3.129h-1.565v3.13h3.129v-3.13h1.565v12.523h3.129v-12.523h1.565v1.565h3.129v-3.129h-1.564v-1.565Zm80.549 10.953v-3.13h-3.129v1.565h-1.565v-1.565h-3.129v7.829h3.129v-3.129h3.13v-1.57h1.564Zm24.629-15.647h10.952v-3.13h-10.952v-4.693h-3.13v10.952h-10.952v3.13h10.952v14.087h3.13v-9.393h1.564v1.564h3.13v1.565h3.129v1.565h3.129v-3.13h-1.564v-1.564h-3.13v-1.565h-3.129v-1.565h-3.129v-1.564h14.082v-3.13h-14.082v-3.129Z" fill="#fff"/><path d="M250.139 90.04h-9.388v1.564h-1.565v6.258h1.565v3.13h-1.565v3.129h1.565v1.565h-1.565v1.565h7.823v-3.13h-1.564v1.565h-1.565v-1.565h1.565v-1.565h1.564v-1.564h-3.129v1.564h-1.565v-1.564h1.565v-1.565h4.694v14.082h-3.129v3.13h4.694v-1.565h1.564v-23.47h-1.564v-1.565Zm-1.565 7.822h-6.259v-1.564h6.259v1.564Zm0-3.129h-6.259v-1.565h6.259v1.565Zm-12.517-4.693h-9.388v1.564h-1.565v25.035h3.129V99.427h3.13v1.565h-1.565v3.129h1.565v1.565h-1.565v1.565h7.823v-3.13h-1.564v1.565h-1.565v-1.565h1.565v-1.565h1.564v-1.564h-3.129v1.564h-1.565v-1.564h1.565v-1.565h1.565v-1.565h1.564v-6.258h-1.564v-1.565Zm-1.565 7.822h-6.259v-1.564h6.259v1.564Zm0-3.129h-6.259v-1.565h6.259v1.565Z" fill="#fff"/><path d="M96.862 94.733h1.565v-1.565h-6.259v1.565h1.565v3.13h3.13v-3.13Zm-.474 2.655h-.82v-2.243h-1.36v-.61h2.174v2.859l.006-.006Z" fill="#231815"/><path d="M116.119 95.823h-8.027V94.53h4.694v-1.565h3.129v-4.078h-1.361V88h-4.084v1.565h-6.259v1.564h-.819v-.678h-1.361v-.886h-3.333v-.678h-1.361V88h-4.084v1.565h-4.688v4.084h1.361v.886h.203v2.243h1.362v.61H87v4.084h1.361v.887h4.898v1.293h-4.694v4.084h1.361v.887h.203v1.294h-1.564v1.564H87v4.084h1.361v.887h4.084v-1.564h.814v2.242h1.361v.887h4.084v-4.016h.61v.887h1.768v2.242h1.361v.887h4.084v-3.129h1.565v-14.083h.819v16.331h1.361v.887h4.084v-17.212h3.13v-4.084h-1.362v-.887l-.005-.017Zm-14.286-1.293h.819v3.74h-.61v-.888h-.203v-2.858l-.006.006Zm0 15.375v-.683h-1.361v-.61h2.175v2.175h-.61v-.887h-.204v.005Zm.204-5.377v-.887h-3.333v-1.293h3.948v2.174h-.61l-.005.006Zm13.607-5.1h-3.129v17.211h-3.129V99.427h-3.13v14.082h-1.564v3.13h-3.13v-3.13h-3.13v-1.564h-1.564v4.694h-3.13v-4.694h-1.564v1.564H90.61v1.565h-3.134v-3.129h1.564v-1.565h1.565v-1.565h1.564v-1.564H89.04v-3.13h4.694v-3.129h-6.258v-3.13h4.694v-1.564h-1.565v-3.13H89.04V90.04h4.694v-1.564h3.13v1.564h4.694v3.13h-1.565v3.129h-1.565v1.564h3.13v3.13h-4.695v3.129h4.695v3.13h-3.13v1.564h1.565v1.565h1.565v3.129h1.564V91.604h1.565v-1.565h6.259v-1.564h3.129v3.129h-3.129v1.564h-4.694v3.13h9.388v3.13h.005Zm34.491 4.219h-8.027v-1.294h7.824v-4.084h-1.362v-.887h-8.026V95.14h-1.362v-.61h6.056v-1.565h3.129v-4.078h-1.361V88h-5.649v1.565h-6.259v1.564h-12.517v4.084h1.361v.887h9.592v.678h1.361v.61h-12.314v4.084h1.361v.887h12.721v1.293h-15.647v4.084h1.361v.887h14.286v2.858h-1.565v1.565h-2.384v-.683h-1.361v-.887h-4.084v4.084h1.361v.887h.204v.683h1.361v.887h8.778v-1.565h1.565v-1.564h1.565v-6.259h9.388v-4.084h-1.362v-.887l.006-.011Zm-.475 3.604h-9.388v6.258h-1.564v1.565h-1.565v1.565h-7.823v-1.565h-1.565v-3.129h3.129v1.564h4.694v-1.564h1.565v-4.694h-15.647v-3.13h15.647v-3.129h-14.082v-3.13h12.517v-1.564h-1.564v-1.565h-10.953v-3.13h12.517V90.04h6.259v-1.564h4.694v3.129h-3.129v1.564h-6.259v1.565h1.565v3.13h9.388v3.129h-7.824v3.129h9.388v3.13Zm34.491-14.557h-1.768v-3.807h-1.361V88h-4.084v4.694h-9.388v.887h-.61v-.887h-1.768v-3.807h-1.362V88h-4.084v4.694h-4.694v4.084h1.362v.887h1.768v2.858h-1.565v3.129h-1.565v4.084h1.362v.887h3.332v8.507h1.362v.887h4.084v-11.84h.61v.887h4.084v-4.016h.61v.887h.203v2.242h1.361v.887h.204v2.243h1.361v.887h3.333v2.858h-6.259v4.084h1.361v.887h8.778v-1.565h1.565V97.659h3.129v-4.084h-1.361v-.887.006Zm-16.121 12.992h-3.13v-1.565h-1.564v12.518h-3.13v-12.518h-1.564v3.13h-3.13v-3.13h1.565v-3.129h1.565v-3.13h1.564v-1.564h-4.694v-3.13h4.694v-4.694h3.13v4.694h3.129v3.13h-3.129v3.13h1.564v1.564h1.565v1.565h1.565v3.129Zm7.823 3.129h-3.129v-3.129h-1.565v-3.129h-1.565v-3.13h3.13v3.13h1.564v3.129h1.565v3.129Zm.475-2.722v-.887h-.204v-2.243h-1.361v-.887h-.203v-2.242h-1.362v-.887h-4.084v4.016h-.61v-.887h-.203v-.683h-1.361v-.887h-.204v-.678h-1.361v-.887h-.203v-1.293h3.129v-.887h.61v.887h8.027v8.433h-.61v.012Zm7.349-9.795h-3.13v18.776h-1.564v1.565h-7.824v-3.13h6.259V96.298h-9.388v-3.13h9.388v-4.694h3.129v4.694h3.13v3.13Zm16.799 0h-6.259v1.564h6.259v-1.564Zm14.082-3.13h-6.259v1.565h6.259v-1.565Z" fill="#231815"/><path d="M218.167 91.13h-.203v-.679h-1.361v-.886H206.26v1.564h-1.565v.887h-.61v-.887h-.203v-.678h-1.361v-.886h-10.343v1.564h-1.565v25.99h1.362v.886h4.084v-.886h.61v.886h4.084v-.886h.61v.886h4.084v-.886h.61v.886h2.519v-.886h.61v.886h4.084v-.886h.61v.886h4.084v-1.564h1.565V92.016h-1.362v-.887Zm-14.285 8.094h1.565v-.887h.61v.887h.203v.677h1.361v.611h-3.739v-1.294.006Zm-9.659 17.414h-3.13V91.604h1.565v-1.565h9.388v1.565h1.565v6.258h-1.565v1.565h-7.823v17.211Zm2.655-15.85v1.294h-.819v-1.294h.819Zm2.039 15.85h-3.13v-3.129h3.13v3.129Zm-2.039-4.897v.684h1.361v.61h-2.175v-2.175h.61v.887h.204v-.006Zm3.129 2.175h-.61v-.61h.61v.61Zm3.604 2.722h-3.13v-3.129h3.13v3.129Zm1.09-2.722h-.61v-.61h.61v.61Zm2.039 2.722h-1.564v-3.129h1.564v3.129Zm1.09-2.722h-.61v-.61h.61v.61Zm9.863 1.158h-1.565v1.564h-3.129v-1.564h-1.565v1.564h-3.129v-3.129h1.565v-1.565h-12.518v-1.564h-1.565v-7.824h1.565v-1.564h15.647v3.129h-6.259v1.565h4.694v1.564h-4.694v1.565h4.694v1.565h1.565v3.129h1.565V99.427h-7.824v-1.565h-1.564v-6.258h1.564v-1.565h9.388v1.565h1.565v23.47Zm-3.604-9.592v5.304h-.61v-.886h-.203v-.684h-1.362v-.61h1.362v-2.519h-1.362v-.61h2.175v.005Zm-.61-4.084v-.61h.61v.61h-.61Z" fill="#231815"/><path d="M214.558 96.298h-6.259v1.564h6.259v-1.564Zm-10.953 7.823h-4.694v1.565h4.694v-1.565Zm-3.129-10.953h-6.259v1.565h6.259v-1.565Zm3.129 14.082h-4.694v1.565h4.694v-1.565Zm48.579-16.12h-.204v-.679h-1.361v-.886h-10.343v1.564h-1.565v.887h-.61v-.887h-.203v-.678h-1.361v-.886h-10.343v1.564h-1.565v25.99h1.362v.886h4.084v-.886h.61v.886h5.648v-1.564h1.565v-1.565h.819v2.243h1.361v.886h4.084v-3.129h.819v2.243h1.362v.886h5.648v-1.564h1.565V92.016h-1.361v-.887h-.011Zm-14.557 22.379h-1.565v1.565h-1.564v1.564h-4.694v-1.564h3.129v-1.565h-1.565v-1.565h-1.564v-3.129h3.129v1.565h1.565v-1.565h3.129v4.694Zm-6.733-.203v.678h1.361v.61h-2.175v-2.175h.61v.887h.204Zm-.819-4.965v-.61h.61v.61h-.61Zm3.332.886v-.61h.61v.61h-.61Zm4.22-11.359h-1.565v1.565h-1.564v1.564h3.129v1.565h-1.565v1.565h1.565v3.129h-7.823v-1.565h1.564v-1.564h-1.564v-3.13h1.564v-1.564h-3.129v17.211h-3.129v-25.04h1.564v-1.565h9.388v1.565h1.565v6.264Zm-7.552 7.349v-.61h.61v.61h-.61Zm8.642 4.016h-.61v-.61h.61v.61Zm0-4.694h-.61v-.61h.61v.61Zm0-3.129h-.61v-.887h-.203v-1.294h1.564v-.886h.61v.886h.204v1.294h-1.565v.887Zm12.992 13.675h-1.565v1.565h-4.694v-3.13h-3.129v3.13h-3.129v-7.824h3.129v1.565h1.565v-1.565h3.129v3.13h-1.565v1.564h3.13V99.438h-4.694v1.565h3.129v1.565h-1.565v1.564h1.565v3.13h-7.823v-1.565h1.564v-1.565h-1.564v-3.129h1.564v-3.13h-1.564v-6.27h1.564V90.04h9.388v1.565h1.565v23.48Zm-12.246-6.733v-.61h.61v.61h-.61Zm3.332.887v-.61h.611v.61h-.611Zm5.305-5.304v.61h-.611v-.61h.611Zm-.611-2.52v-.61h.611v.61h-.611Zm.611 7.214v.61h-.611v-.61h.611Zm-8.643-3.401v-.61h.61v.61h-.61Z" fill="#231815"/><path d="M243.88 100.992h-1.565v1.564h1.565v-1.564Zm-9.388 0h-1.565v1.564h1.565v-1.564Zm1.565 3.129h-1.565v1.565h1.565v-1.565Zm9.388 0h-1.565v1.565h1.565v-1.565Zm3.129-7.823h-6.259v1.564h6.259v-1.564Zm0-3.13h-6.259v1.565h6.259v-1.565Zm-14.082 3.13h-6.259v1.564h6.259v-1.564Zm0-3.13h-6.259v1.565h6.259v-1.565Zm51.708 5.785h-12.721v-1.294h10.953v-4.084h-1.361v-.887h-9.592v-3.801h-1.361V88h-4.084v10.953h-10.953v4.084h1.361v.887h9.592v13.2h1.361v.887h4.084v-8.71h.61v.887h1.768v.678h1.362v.887h1.768v.683h1.361v.887h4.084v-4.084h-1.361v-.887h-.204v-.678h-1.361v-.887h-1.768v-.677h-1.362v-.887h-1.768v-.684h-1.361v-.61h12.314v-4.084H286.2v-.892Zm-.475 3.604h-14.082v1.564h3.13v1.565h3.129v1.565h3.129v1.564h1.565v3.13h-3.129v-1.565h-3.13v-1.565h-3.129v-1.564h-1.565v9.388h-3.129v-14.082h-10.953v-3.13h10.953V88.474h3.129v4.694h10.953v3.13h-10.953v3.13h14.082v3.129Z" fill="#231815"/></g><defs><clipPath id="clip0_1032_28064"><path fill="#fff" d="M0 0h315v78H0z"/></clipPath><clipPath id="clip1_1032_28064"><path fill="#fff" transform="translate(87 88)" d="M0 0h200.561v30H0z"/></clipPath><filter id="filter0_d_1032_28064" x="60" y="19" width="256.044" height="42.017" filterUnits="userSpaceOnUse" color-interpolation-filters="sRGB"><feFlood flood-opacity="0" result="BackgroundImageFix"/><feColorMatrix in="SourceAlpha" values="0 0 0 0 0 0 0 0 0 0 0 0 0 0 0 0 0 0 127 0" result="hardAlpha"/><feOffset dx="2" dy="2"/><feComposite in2="hardAlpha" operator="out"/><feColorMatrix values="0 0 0 0 0 0 0 0 0 0 0 0 0 0 0 0 0 0 1 0"/><feBlend in2="BackgroundImageFix" result="effect1_dropShadow_1032_28064"/><feBlend in="SourceGraphic" in2="effect1_dropShadow_1032_28064" result="shape"/></filter></defs></svg>