<svg fill="none" xmlns="http://www.w3.org/2000/svg" viewBox="0 0 56 176"><g clip-path="url(#clip0_799_33934)"><path d="M32.22 25.78h-2.77v24.94h5.54V28.55h8.31V42.4h-5.54v5.55h8.32v-2.77h2.76v-19.4h-2.76v-2.77H32.22v2.77ZM7.51 81.24h5.54V75.7H7.51v-2.77H1.97v5.54h5.54v2.77Zm13.63-58.23H7.29v2.77H4.52v19.39h2.77v2.77h13.85v-2.77h2.77V25.78h-2.77v-2.77ZM18.37 42.4h-8.31V28.55h8.31V42.4ZM43.3 9.16h-5.54V6.39h-5.54V3.62h-2.77V.85h-5.54v2.77h-2.77v2.77H15.6v2.77h-5.54v2.77H1.75v5.54h11.08V14.7h2.77v5.54h22.16V14.7h2.77v2.77h11.08v-5.54H43.3V9.16Zm-8.31 5.54H18.37v-2.77h5.54V9.16h5.54v2.77h5.54v2.77ZM7.51 70.16h5.54v-5.54H7.51v-2.77H1.97v5.54h5.54v2.77Z" fill="#fff"/><path d="M49.06 61.85h-27.7v2.77h-2.77v8.31h5.54v2.77h8.31v2.77h-8.31v2.77h-2.77v11.08h2.77v2.77h8.31v2.77H18.59v5.54h13.85v2.77H18.59v-2.77h-2.77v-2.77h-2.77V89.55h-2.77v-2.77H1.97v5.54h5.54v11.08H4.74v2.77H1.97v5.54h5.54v-2.77h2.77v-2.77h2.77v2.77h2.77v2.77h36.01v-5.54H37.98v-2.77h13.85v-5.54H37.98v-2.77h8.31v-2.77h2.77V81.24h-2.77v-2.77h-8.31V75.7h8.31v-2.77h5.54v-8.31h-2.77v-2.77Zm-16.62 27.7H26.9v-2.77h5.54v2.77Zm0-5.54H26.9v-2.77h5.54v2.77Zm0-13.85h-8.31v-2.77h8.31v2.77Zm11.08 19.39h-5.54v-2.77h5.54v2.77Zm0-8.31v2.77h-5.54v-2.77h5.54Zm2.77-11.08h-8.31v-2.77h8.31v2.77Z" fill="#fff"/><path d="M29.45 9.16h-5.54v2.77h-5.54v2.77h16.62v-2.77h-5.54V9.16Zm1.57 3.61v1.08h-3.85v-2.29h1.45v1.2h2.41l-.01.01ZM10.06 42.4h8.31V28.55h-8.31V42.4Zm3.25-11.44h4.22v10.6h-4.22v-10.6Z" fill="#231815"/><path d="M52.46 11.09h-5.9V9.88h-2.41V8.31h-3.13v-1.2h-2.41V5.54h-3.13v-1.2h-2.41V2.77h-.36v-1.2H30.3V.01h-7.23v2.77H20.3v2.77h-5.54v2.77H9.22v2.77H.91v7.23h2.41v1.57h11.44v1.2h2.41v1.08H6.45v2.77H3.68v21.08h2.41v1.57h.36v1.2h2.41v1.57H24.4v-2.77h2.77V26.51h-2.41v-1.57h-.36v-1.21h-2.41v-1.08h9.39v2.29h-2.77v26.62h2.41v1.57h7.23v-4.34h1.08v1.57h10v-2.77h2.77V26.51h-2.41v-1.57h-.36v-1.21h-2.41v-1.57h-5.9v-3.85h1.08v1.57h12.77v-7.23h-2.41v-1.57.01ZM23.92 25.78v19.39h-2.77v2.77H7.29v-2.77H4.52V25.78h2.77v-2.77h13.85v2.77h2.78Zm22.16-2.77v2.77h2.77v19.39h-2.77v2.77h-8.31V42.4h5.54V28.55H35v22.16h-5.54V25.78h2.77v-2.77h13.85Zm-7.83 18.55v-10.6h4.22v10.6h-4.22Zm13.37-24.09H40.54V14.7h-2.77v5.54H15.6V14.7h-2.77v2.77H1.75v-5.54h8.31V9.16h5.54V6.39h5.54V3.62h2.77V.85h5.54v2.77h2.77v2.77h5.54v2.77h5.54v2.77h8.31v5.54h.01ZM32.44 67.39h-8.31v2.77h8.31v-2.77Zm11.08 13.85h-5.54v2.77h5.54v-2.77Z" fill="#231815"/><path d="M52.68 63.78h-.36v-1.2h-2.41v-1.57H20.52v2.77h-2.77v10h2.41v1.57h3.13v1.2h2.41v1.08h-2.41v2.77h-2.77v12.77h2.41v1.57h.36v1.2h2.41v1.08h-7.95v4.34h-1.08v-1.57h-.36v-9.52H13.9V88.7h-.36v-1.2h-2.41v-1.57h-10v7.23h2.41v1.57h3.13v7.83H3.9v2.77H1.13v7.23h2.41v1.57h7.23v-2.77h2.77v-1.57h1.08v1.57h.36v1.21h2.41v1.57h37.7v-7.23h-2.41v-1.08h2.41V98.6h-2.41v-1.57h-3.13v-2.29h2.77V81.97h-2.41V80.4h-.36v-1.2h-2.41v-1.08h2.41v-2.77h5.54v-10h-2.41v-1.57Zm-.84 9.15H46.3v2.77h-8.31v2.77h8.31v2.77h2.77v11.08H46.3v2.77h-8.31v2.77h13.85v5.54H37.99v2.77h13.85v5.54H15.82v-2.77h-2.77v-2.77h-2.77v2.77H7.51v2.77H1.97v-5.54h2.77v-2.77h2.77V92.32H1.97v-5.54h8.31v2.77h2.77v11.08h2.77v2.77h2.77v-5.54h13.85v-2.77h-8.31v-2.77h-2.77V81.24h2.77v-2.77h8.31V75.7h-8.31v-2.77h-5.54v-8.31h2.77v-2.77h27.7v2.77h2.77v8.31h.01Z" fill="#231815"/><path d="M46.29 67.39h-8.31v2.77h8.31v-2.77Zm-2.77 19.39h-5.54v2.77h5.54v-2.77Zm-39.98-5.9h3.13v1.2h2.41v1.57h7.23v-7.23H13.9v-1.57h-3.13v-1.2H8.36v-1.57H1.13v7.23h2.41v1.57Zm-1.57-2.41v-5.54h5.54v2.77h5.54v5.54H7.51v-2.77H1.97Z" fill="#231815"/><path d="M3.54 69.8h3.13v1.21h2.41v1.57h7.23v-7.23H13.9v-1.57h-3.13v-1.2H8.36v-1.57H1.13v7.23h2.41v1.57-.01Zm-1.57-2.41v-5.54h5.54v2.77h5.54v5.54H7.51v-2.77H1.97Zm30.47 36.01H18.59v2.77h13.85v-2.77Zm0-16.62H26.9v2.77h5.54v-2.77Zm0-5.54H26.9v2.77h5.54v-2.77Z" fill="#231815"/><path d="M29.56 162.5h-5.54v2.77h-2.77v5.54h2.77v2.77h5.54v-2.77h2.77v-5.54h-2.77v-2.77Zm0-33.24h-5.54v30.47h5.54v-30.47Z" fill="#fff"/><path d="M33.18 164.43h-.36v-1.21h-2.41v-1.08h2.41v-32.16h-2.41v-1.57h-7.23v32.16h2.41v1.08h-2.41v2.77h-2.77v7.23h2.41v1.57h.36v1.2h2.41v1.57h7.23v-2.77h2.77v-7.23h-2.41v-1.57.01Zm-9.15-4.7v-30.47h5.54v30.47h-5.54Zm8.31 11.08h-2.77v2.77h-5.54v-2.77h-2.77v-5.54h2.77v-2.77h5.54v2.77h2.77v5.54Z" fill="#231815"/></g><defs><clipPath id="clip0_799_33934"><path fill="#fff" transform="translate(.91 .01)" d="M0 0h54.18v175.98H0z"/></clipPath></defs></svg>