<svg fill="none" xmlns="http://www.w3.org/2000/svg" viewBox="0 0 118 54"><g clip-path="url(#clip0_799_33986)"><path d="M31.72 25.77h-2.77v24.94h5.54V28.54h8.31v13.85h-5.54v5.55h8.32v-2.77h2.76v-19.4h-2.76V23H31.72v2.77ZM20.64 23H6.79v2.77H4.02v19.39h2.77v2.77h13.85v-2.77h2.77V25.77h-2.77V23Zm-2.77 19.39H9.56V28.54h8.31v13.85ZM42.8 9.15h-5.54V6.38h-5.54V3.61h-2.77V.84h-5.54v2.77h-2.77v2.77H15.1v2.77H9.56v2.77H1.25v5.54h11.08v-2.77h2.77v5.54h22.16v-5.54h2.77v2.77h11.08v-5.54H42.8V9.15Zm-8.31 5.54H17.87v-2.77h5.54V9.15h5.54v2.77h5.54v2.77Z" fill="#00D85A"/><path d="M28.95 9.15h-5.54v2.77h-5.54v2.77h16.62v-2.77h-5.54V9.15Zm1.57 3.61v1.08h-3.85v-2.29h1.45v1.2h2.41l-.01.01ZM9.56 42.39h8.31V28.54H9.56v13.85Zm3.25-11.44h4.22v10.6h-4.22v-10.6Z" fill="#231815"/><path d="M51.96 11.08h-5.9V9.87h-2.41V8.3h-3.13V7.1h-2.41V5.53h-3.13v-1.2h-2.41V2.76h-.36v-1.2H29.8V0h-7.23v2.77H19.8v2.77h-5.54v2.77H8.72v2.77H.41v7.23h2.41v1.57h11.44v1.2h2.41v1.08H5.95v2.77H3.18v21.08h2.41v1.57h.36v1.2h2.41v1.57H23.9v-2.77h2.77V26.5h-2.41v-1.57h-.36v-1.21h-2.41v-1.08h9.39v2.29h-2.77v26.62h2.41v1.57h7.23v-4.34h1.08v1.57h10v-2.77h2.77V26.5h-2.41v-1.57h-.36v-1.21h-2.41v-1.57h-5.9V18.3h1.08v1.57h12.77v-7.23h-2.41v-1.57.01ZM23.42 25.77v19.39h-2.77v2.77H6.79v-2.77H4.02V25.77h2.77V23h13.85v2.77h2.78ZM45.58 23v2.77h2.77v19.39h-2.77v2.77h-8.31v-5.54h5.54V28.54H34.5V50.7h-5.54V25.77h2.77V23h13.85Zm-7.83 18.55v-10.6h4.22v10.6h-4.22Zm13.37-24.09H40.04v-2.77h-2.77v5.54H15.1v-5.54h-2.77v2.77H1.25v-5.54h8.31V9.15h5.54V6.38h5.54V3.61h2.77V.84h5.54v2.77h2.77v2.77h5.54v2.77h5.54v2.77h8.31v5.54h.01Z" fill="#231815"/><path d="M70.01 20.23h5.54v-5.54h-5.54v-2.77h-5.54v5.54h5.54v2.77Zm0-11.08h5.54V3.61h-5.54V.84h-5.54v5.54h5.54v2.77Z" fill="#00D85A"/><path d="M111.56.84h-27.7v2.77h-2.77v8.31h5.54v2.77h8.31v2.77h-8.31v2.77h-2.77v11.08h2.77v2.77h8.31v2.77H81.09v5.54h13.85v2.77H81.09v-2.77h-2.77v-2.77h-2.77V28.54h-2.77v-2.77h-8.31v5.54h5.54v11.08h-2.77v2.77h-2.77v5.54h5.54v-2.77h2.77v-2.77h2.77v2.77h2.77v2.77h36.01v-5.54h-13.85v-2.77h13.85v-5.54h-13.85v-2.77h8.31v-2.77h2.77V20.23h-2.77v-2.77h-8.31v-2.77h8.31v-2.77h5.54V3.61h-2.77V.84Zm-16.62 27.7H89.4v-2.77h5.54v2.77Zm0-5.54H89.4v-2.77h5.54V23Zm0-13.85h-8.31V6.38h8.31v2.77Zm11.08 19.39h-5.54v-2.77h5.54v2.77Zm0-8.31V23h-5.54v-2.77h5.54Zm2.77-11.08h-8.31V6.38h8.31v2.77Z" fill="#00D85A"/><path d="M94.94 6.38h-8.31v2.77h8.31V6.38Zm11.08 13.85h-5.54V23h5.54v-2.77Z" fill="#231815"/><path d="M115.18 2.77h-.36v-1.2h-2.41V0H83.02v2.77h-2.77v10h2.41v1.57h3.13v1.2h2.41v1.08h-2.41v2.77h-2.77v12.77h2.41v1.57h.36v1.2h2.41v1.08h-7.95v4.34h-1.08v-1.57h-.36v-9.52H76.4v-1.57h-.36v-1.2h-2.41v-1.57h-10v7.23h2.41v1.57h3.13v7.83H66.4v2.77h-2.77v7.23h2.41v1.57h7.23v-2.77h2.77v-1.57h1.08v1.57h.36v1.21h2.41v1.57h37.7V45.9h-2.41v-1.08h2.41v-7.23h-2.41v-1.57h-3.13v-2.29h2.77V20.96h-2.41v-1.57h-.36v-1.2h-2.41v-1.08h2.41v-2.77h5.54v-10h-2.41V2.77Zm-.84 9.15h-5.54v2.77h-8.31v2.77h8.31v2.77h2.77v11.08h-2.77v2.77h-8.31v2.77h13.85v5.54h-13.85v2.77h13.85v5.54H78.33v-2.77h-2.77v-2.77h-2.77v2.77h-2.77v2.77h-5.54v-5.54h2.77v-2.77h2.77V31.31h-5.54v-5.54h8.31v2.77h2.77v11.08h2.77v2.77h2.77v-5.54h13.85v-2.77h-8.31v-2.77h-2.77V20.23h2.77v-2.77h8.31v-2.77h-8.31v-2.77H81.1V3.61h2.77V.84h27.7v2.77h2.77v8.31Z" fill="#231815"/><path d="M108.79 6.38h-8.31v2.77h8.31V6.38Zm-2.77 19.39h-5.54v2.77h5.54v-2.77Zm-39.98-5.9h3.13v1.2h2.41v1.57h7.23v-7.23H76.4v-1.57h-3.13v-1.2h-2.41v-1.57h-7.23v7.23h2.41v1.57Zm-1.57-2.41v-5.54h5.54v2.77h5.54v5.54h-5.54v-2.77h-5.54Z" fill="#231815"/><path d="M66.04 8.79h3.13V10h2.41v1.57h7.23V4.34H76.4V2.77h-3.13v-1.2h-2.41V0h-7.23v7.23h2.41V8.8v-.01Zm-1.57-2.41V.84h5.54v2.77h5.54v5.54h-5.54V6.38h-5.54Zm30.47 36.01H81.09v2.77h13.85v-2.77Zm0-16.62H89.4v2.77h5.54v-2.77Zm0-5.54H89.4V23h5.54v-2.77Z" fill="#231815"/></g><defs><clipPath id="clip0_799_33986"><path fill="#fff" transform="translate(.41)" d="M0 0h117.18v53.11H0z"/></clipPath></defs></svg>