<svg fill="none" xmlns="http://www.w3.org/2000/svg" viewBox="0 0 56 176"><g clip-path="url(#clip0_799_33905)"><path d="M45.57 11.93H42.8V6.39h2.77V.85h-5.54v5.54h-2.77V.85h-5.54v5.54h-5.54v5.54h-2.77V6.39h2.77V.85h-5.54v5.54h-2.77v2.77h-5.54V.85H6.79v8.31H1.25v5.54h5.54v2.77H4.02v8.31H1.25v8.31h2.77v-5.54h2.77v22.16h5.54V25.78h2.77v2.77h2.77v2.77h2.77v8.31h-2.77v5.54H15.1v5.54h5.54v-2.77h2.77V42.4h2.77v2.77h5.54v-5.54h-2.77v-2.77h-2.77v-5.54h5.54v2.77h2.77v5.54h2.77v2.77h-2.77v2.77h-2.77v5.54h5.54v-2.77h2.77v-2.77h2.77v2.77h2.77v2.77h2.77v-2.77h2.77v-8.31h-2.77v2.77h-2.77v-2.77h2.77v-5.54H42.8v2.77h-2.77v-2.77h-2.77v-2.77h13.85v-5.54h-2.77v-2.77h2.77V14.7h-2.77v2.77h-2.77V14.7h2.77v-2.77h2.77V6.39h-5.54v5.54ZM31.72 25.78H17.87v-2.77H15.1v-2.77h-2.77V14.7h5.54v-2.77h2.77v5.54h-2.77v5.54h13.85v2.77Zm0-11.08h-2.77v2.77h-2.77V14.7h2.77v-2.77h2.77v2.77Zm5.54-2.77h2.77v5.54h-2.77v-5.54Zm5.54 13.85h-5.54v-2.77h5.54v2.77Zm3.99 53.69H8.01v2.77H5.24v11.08h2.77v16.62h2.77v2.77h33.24v-2.77h2.77V93.32h2.77V82.24h-2.77v-2.77Zm-16.62 5.54h5.54v2.77h-2.77v2.77h-2.77v-5.54Zm-11.08 0h5.54v5.54h-2.77v-2.77h-2.77v-2.77Zm-8.31 0h2.77v2.77h2.77v2.77h-5.54v-5.54Zm30.47 22.16h-27.7v-2.77h27.7v2.77Zm0-8.31h-27.7v-2.77h27.7v2.77Zm2.77-8.31h-5.54v-2.77h2.77v-2.77h2.77v5.54Zm0-22.16h-8.31v-2.77h-5.54v-2.77h-5.54v2.77h-5.54v2.77h-8.31v2.77H2.47v5.54h8.31v-2.77h5.54v2.77h22.16v-2.77h5.54v2.77h8.31v-5.54h-8.31v-2.77Zm-8.31 5.54H19.09v-2.77h5.54v-2.77h5.54v2.77h5.54v2.77Z" fill="#fff"/><path d="M40.03 11.93h-2.77v5.54h2.77v-5.54Zm2.77 11.08h-5.54v2.77h5.54v-2.77ZM26.18 6.39h-2.77v5.54h2.77V6.39Zm19.39 0H42.8v5.54h2.77V6.39Zm-13.85 5.54h-2.77v2.77h2.77v-2.77Zm2.77 30.47h2.77v-2.77h-2.77v-5.54h-2.77v-2.77h-5.54v5.54h2.77v2.77h2.77v5.54h2.77V42.4Zm.48-1.93h1.08v1.08h-1.08v-1.08Zm-1.32-.12h-1.08v-1.57h-.36v-1.21H29.8V36h-.36v-2.29h1.45v1.2h2.41v1.57h.36v3.85l-.01.02Zm-1.93-17.34H17.87v2.77h13.85v-2.77Zm-2.77-8.31h-2.77v2.77h2.77V14.7Zm19.39 0h-2.77v2.77h2.77V14.7Zm0 24.93h-2.77v2.77h2.77v-2.77Zm-27.7-22.16v-5.54h-2.77v2.77h-5.54v5.54h2.77v2.77h2.77v-5.54h2.77Zm-3.61 3.49h-1.08v-1.57h-.36V17.1h1.45v3.85l-.01.01Z" fill="#231815"/><path d="M51.96 5.55h-3.13V1.58h-2.41V.01h-7.23v1.57h-1.08V.01h-7.23v5.54h-1.45V1.58h-2.41V.01h-7.23v5.54h-2.77v2.77h-1.45V1.58h-2.41V.01H5.93v8.31H.41v7.23h2.41v1.57h.36v7.83H.41v10h2.41v1.57h3.13v15.06h2.41v1.57h7.23v-1.57h1.08v1.57h7.23v-2.77h2.77v-4.34h1.08v1.57h3.13v3.97h2.41v1.57h7.23v-2.77h2.77v-1.57h1.08v1.57h.36v1.21h2.41v1.57h4.46v-2.77h2.77v-10h-2.41v-1.57h-.36v-3.97h-2.41v-1.08h5.18v-7.23h-2.41v-1.08h2.41v-10h-2.41v-1.08h2.41V7.15h-2.41v-1.6Zm-.84 6.38h-2.77v2.77h2.77v8.31h-2.77v2.77h2.77v5.54H37.27v2.77h2.77v2.77h2.77v-2.77h5.54v5.54h2.77v8.31h-2.77v2.77h-2.77v-2.77h-2.77v-2.77h-2.77v2.77h-2.77v2.77h-5.54v-5.54h-5.54V42.4h-2.77v5.54h-2.77v2.77h-5.54v-5.54h2.77v-5.54h2.77v-8.31h-2.77v-2.77h-2.77v-2.77h-2.77v24.93H6.8V28.55H4.03v5.54H1.25v-8.31h2.77v-8.31h2.77V14.7H1.25V9.16h5.54V.85h5.54v8.31h5.54V6.39h2.77V.85h5.54v5.54h5.54V.85h5.54v5.54h2.77V.85h5.54v5.54h5.54v5.54h.01Zm-9.15 21.8v1.08h-1.08v-1.08h1.08Zm-24.93-2.77v1.2h2.41v1.57h.36v5.06h-2.77v5.54h-1.45V29.4h1.08v1.57h.36l.01-.01Zm24.21 56.82h-2.77v2.77h5.54v-5.54h-2.77v2.77Z" fill="#231815"/><path d="M53.18 70.32h-5.9v-1.2h-2.41v-1.57h-5.9v-1.2h-2.41v-1.57h-3.13v-1.2h-2.41v-1.57h-7.23v2.77h-5.54v2.77H9.94v2.77H1.63v7.23h2.41v1.57h3.13v2.29H4.4v12.77h2.41v1.57h.36v15.05h2.41v1.57h.36v1.21h2.41v1.57h34.93v-2.77h2.77V95.76h2.77V82.99h-2.41v-1.57h-.36v-1.2h-2.41v-1.08h7.95v-7.23h-2.41v-1.59Zm-3.61 11.92v11.08H46.8v16.62h-2.77v2.77H10.78v-2.77H8.01V93.32H5.24V82.24h2.77v-2.77h38.78v2.77h2.78Zm-31.68-4.7v1.08h-3.85v-2.29h1.45v1.2h2.41l-.01.01Zm27.7 0v1.08h-3.85v-2.29h1.44v1.2h2.41v.01Zm6.74-.84h-8.31v-2.77h-5.54v2.77H16.32v-2.77h-5.54v2.77H2.47v-5.54h8.31v-2.77h8.31v-2.77h5.54v-2.77h5.54v2.77h5.54v2.77h8.31v2.77h8.31v5.54Z" fill="#231815"/><path d="M41.25 96.09h-27.7v2.77h27.7v-2.77Zm-11.08-27.7h-5.54v2.77h-5.54v2.77h16.62v-2.77h-5.54v-2.77ZM31.74 72v1.08h-3.85v-2.29h1.45V72h2.41-.01Zm9.51 32.4h-27.7v2.77h27.7v-2.77Zm-8.31-16.62h2.77v-2.77h-5.54v5.54h2.77v-2.77Zm-16.62 0h-2.77v-2.77h-2.77v5.54h5.54v-2.77Zm-1.2 1.93h-1.08v-1.08h1.08v1.08Zm6.74.84h2.77v-5.54h-5.54v2.77h2.77v2.77Zm.84-3.13h1.08v1.08H22.7v-1.08Z" fill="#231815"/><path d="M29.56 162.5h-5.54v2.77h-2.77v5.54h2.77v2.77h5.54v-2.77h2.77v-5.54h-2.77v-2.77Zm8.31-30.47H35.1v-2.77H18.48v2.77h-2.77v2.77h-2.77v8.31h5.54v-5.54h2.77v-2.77h11.08v2.77h2.77v5.54h-2.77v2.77h-2.77v2.77h-2.77v2.77h-2.77v8.31h5.54v-5.54h2.77v-2.77h2.77v-2.77h2.77v-2.77h2.77V134.8h-2.77v-2.77Z" fill="#fff"/><path d="M41.49 133.96h-.36v-1.2h-2.41v-1.57h-.36v-1.2h-2.41v-1.57H17.64v2.77h-2.77v2.77H12.1v10h2.41v1.57h7.23v-5.54h2.77v-2.77h6.99v1.2h2.41v1.57h.36v2.29H31.5v2.77h-2.77v2.77h-2.77v2.77h-2.77v10h2.41v1.08h-2.41v2.77h-2.77v7.23h2.41v1.57h.36v1.2h2.41v1.57h7.23v-2.77h2.77v-7.23h-2.41v-1.57h-.36v-1.21h-2.41v-1.08h2.41v-5.54h2.77v-2.77h2.77v-2.77h2.77v-2.77h2.77v-12.77H41.5v-1.57h-.01Zm-9.15 31.31v5.54h-2.77v2.77h-5.54v-2.77h-2.77v-5.54h2.77v-2.77h5.54v2.77h2.77Zm8.31-19.39h-2.77v2.77h-2.77v2.77h-2.77v2.77h-2.77v5.54h-5.54v-8.31h2.77v-2.77h2.77v-2.77h2.77v-2.77h2.77v-5.54h-2.77v-2.77H21.26v2.77h-2.77v5.54h-5.54v-8.31h2.77v-2.77h2.77v-2.77h16.62v2.77h2.77v2.77h2.77v11.08Z" fill="#231815"/></g><defs><clipPath id="clip0_799_33905"><path fill="#fff" transform="translate(.41 .01)" d="M0 0h55.18v175.98H0z"/></clipPath></defs></svg>