<svg fill="none" xmlns="http://www.w3.org/2000/svg" viewBox="0 0 116 54"><g clip-path="url(#clip0_799_33597)"><path d="M46.07 11.92H43.3V6.38h2.77V.84h-5.54v5.54h-2.77V.84h-5.54v5.54h-5.54v5.54h-2.77V6.38h2.77V.84h-5.54v5.54h-2.77v2.77h-5.54V.84H7.29v8.31H1.75v5.54h5.54v2.77H4.52v8.31H1.75v8.31h2.77v-5.54h2.77V50.7h5.54V25.77h2.77v2.77h2.77v2.77h2.77v8.31h-2.77v5.54H15.6v5.54h5.54v-2.77h2.77v-5.54h2.77v2.77h5.54v-5.54h-2.77v-2.77h-2.77v-5.54h5.54v2.77h2.77v5.54h2.77v2.77h-2.77v2.77h-2.77v5.54h5.54v-2.77h2.77v-2.77h2.77v2.77h2.77v2.77h2.77v-2.77h2.77v-8.31h-2.77v2.77h-2.77v-2.77h2.77v-5.54H43.3v2.77h-2.77v-2.77h-2.77v-2.77h13.85v-5.54h-2.77V23h2.77v-8.31h-2.77v2.77h-2.77v-2.77h2.77v-2.77h2.77V6.38h-5.54v5.54ZM32.22 25.77H18.37V23H15.6v-2.77h-2.77v-5.54h5.54v-2.77h2.77v5.54h-2.77V23h13.85v2.77Zm0-11.08h-2.77v2.77h-2.77v-2.77h2.77v-2.77h2.77v2.77Zm5.54-2.77h2.77v5.54h-2.77v-5.54Zm5.54 13.85h-5.54V23h5.54v2.77Zm62.99-8.31H67.51v2.77h-2.77v11.08h2.77v16.62h2.77v2.77h33.24v-2.77h2.77V31.31h2.77V20.23h-2.77v-2.77ZM89.67 23h5.54v2.77h-2.77v2.77h-2.77V23Zm-11.08 0h5.54v5.54h-2.77v-2.77h-2.77V23Zm-8.31 0h2.77v2.77h2.77v2.77h-5.54V23Zm30.47 22.16h-27.7v-2.77h27.7v2.77Zm0-8.31h-27.7v-2.77h27.7v2.77Zm2.77-8.31h-5.54v-2.77h2.77V23h2.77v5.54Zm0-22.16h-8.31V3.61h-5.54V.84h-5.54v2.77h-5.54v2.77h-8.31v2.77h-8.31v5.54h8.31v-2.77h5.54v2.77h22.16v-2.77h5.54v2.77h8.31V9.15h-8.31V6.38Zm-8.31 5.54H78.59V9.15h5.54V6.38h5.54v2.77h5.54v2.77Z" fill="#C860FF"/><path d="M40.53 11.92h-2.77v5.54h2.77v-5.54ZM43.3 23h-5.54v2.77h5.54V23ZM26.68 6.38h-2.77v5.54h2.77V6.38Zm19.39 0H43.3v5.54h2.77V6.38Zm-13.85 5.54h-2.77v2.77h2.77v-2.77Zm2.77 30.47h2.77v-2.77h-2.77v-5.54h-2.77v-2.77h-5.54v5.54h2.77v2.77h2.77v5.54h2.77v-2.77Zm.48-1.93h1.08v1.08h-1.08v-1.08Zm-1.32-.12h-1.08v-1.57h-.36v-1.21H30.3v-1.57h-.36V33.7h1.45v1.2h2.41v1.57h.36v3.85l-.01.02ZM32.22 23H18.37v2.77h13.85V23Zm-2.77-8.31h-2.77v2.77h2.77v-2.77Zm19.39 0h-2.77v2.77h2.77v-2.77Zm0 24.93h-2.77v2.77h2.77v-2.77Zm-27.7-22.16v-5.54h-2.77v2.77h-5.54v5.54h2.77V23h2.77v-5.54h2.77Zm-3.61 3.49h-1.08v-1.57h-.36v-2.29h1.45v3.85l-.01.01Z" fill="#231815"/><path d="M52.46 5.54h-3.13V1.57h-2.41V0h-7.23v1.57h-1.08V0h-7.23v5.54h-1.45V1.57h-2.41V0h-7.23v5.54h-2.77v2.77h-1.45V1.57h-2.41V0H6.43v8.31H.91v7.23h2.41v1.57h.36v7.83H.91v10h2.41v1.57h3.13v15.06h2.41v1.57h7.23v-1.57h1.08v1.57h7.23v-2.77h2.77v-4.34h1.08v1.57h3.13v3.97h2.41v1.57h7.23v-2.77h2.77V48.8h1.08v1.57h.36v1.21h2.41v1.57h4.46v-2.77h2.77v-10h-2.41v-1.57h-.36v-3.97h-2.41v-1.08h5.18v-7.23h-2.41v-1.08h2.41v-10h-2.41v-1.08h2.41V7.14h-2.41v-1.6Zm-.84 6.38h-2.77v2.77h2.77V23h-2.77v2.77h2.77v5.54H37.77v2.77h2.77v2.77h2.77v-2.77h5.54v5.54h2.77v8.31h-2.77v2.77h-2.77v-2.77h-2.77v-2.77h-2.77v2.77h-2.77v2.77h-5.54v-5.54h-5.54v-2.77h-2.77v5.54h-2.77v2.77h-5.54v-5.54h2.77v-5.54h2.77v-8.31h-2.77v-2.77h-2.77v-2.77h-2.77V50.7H7.3V28.54H4.53v5.54H1.75v-8.31h2.77v-8.31h2.77v-2.77H1.75V9.15h5.54V.84h5.54v8.31h5.54V6.38h2.77V.84h5.54v5.54h5.54V.84h5.54v5.54h2.77V.84h5.54v5.54h5.54v5.54h.01Zm-9.15 21.8v1.08h-1.08v-1.08h1.08Zm-24.93-2.77v1.2h2.41v1.57h.36v5.06h-2.77v5.54h-1.45V29.39h1.08v1.57h.36l.01-.01Zm83.21-5.18h-2.77v2.77h5.54V23h-2.77v2.77Z" fill="#231815"/><path d="M112.68 8.31h-5.9v-1.2h-2.41V5.54h-5.9v-1.2h-2.41V2.77h-3.13v-1.2h-2.41V0h-7.23v2.77h-5.54v2.77h-8.31v2.77h-8.31v7.23h2.41v1.57h3.13v2.29H63.9v12.77h2.41v1.57h.36v15.05h2.41v1.57h.36v1.21h2.41v1.57h34.93v-2.77h2.77V33.75h2.77V20.98h-2.41v-1.57h-.36v-1.2h-2.41v-1.08h7.95V9.9h-2.41V8.31Zm-3.61 11.92v11.08h-2.77v16.62h-2.77v2.77H70.29v-2.77h-2.77V31.31h-2.77V20.23h2.77v-2.77h38.78v2.77h2.77Zm-31.68-4.7v1.08h-3.85v-2.29h1.45v1.2h2.41l-.01.01Zm27.7 0v1.08h-3.85v-2.29h1.44v1.2h2.41v.01Zm6.74-.84h-8.31v-2.77h-5.54v2.77H75.82v-2.77h-5.54v2.77h-8.31V9.15h8.31V6.38h8.31V3.61h5.54V.84h5.54v2.77h5.54v2.77h8.31v2.77h8.31v5.54Z" fill="#231815"/><path d="M100.75 34.08h-27.7v2.77h27.7v-2.77ZM89.67 6.38h-5.54v2.77h-5.54v2.77h16.62V9.15h-5.54V6.38Zm1.57 3.61v1.08h-3.85V8.78h1.45v1.21h2.41-.01Zm9.51 32.4h-27.7v2.77h27.7v-2.77Zm-8.31-16.62h2.77V23h-5.54v5.54h2.77v-2.77Zm-16.62 0h-2.77V23h-2.77v5.54h5.54v-2.77Zm-1.2 1.93h-1.08v-1.08h1.08v1.08Zm6.74.84h2.77V23h-5.54v2.77h2.77v2.77Zm.84-3.13h1.08v1.08H82.2v-1.08Z" fill="#231815"/></g><defs><clipPath id="clip0_799_33597"><path fill="#fff" transform="translate(.91)" d="M0 0h114.18v53.11H0z"/></clipPath></defs></svg>