<svg fill="none" xmlns="http://www.w3.org/2000/svg" viewBox="0 0 84 84"><g clip-path="url(#clip0_1119_32170)"><path d="M42 83.538C19.06 83.538.46 64.938.46 42 .461 19.06 19.061.46 42 .46v83.077Z" fill="#E86546" stroke="#231815" stroke-miterlimit="10"/><path d="M42 .461c22.939 0 41.538 18.6 41.538 41.539 0 22.938-18.6 41.538-41.538 41.538V.461Z" fill="#00698A" stroke="#231815" stroke-miterlimit="10"/><path d="M15.443 43.357H9.406v.6h-.61v1.81h1.21v.6h1.81v.6h-1.81v.6h-.6v2.418h.6v.609h1.81v.6h-3.02v1.21h3.02v.608h-3.02v-.609h-.6v-.6h-.6v-2.418h-.6v-.6H5.188v1.209h1.21v2.418h-.6v.61h-.6v1.209h1.209v-.6h.61v-.6h.6v.6h.6v.6h7.855v-1.21h-3.019v-.609h3.019v-1.209h-3.019v-.6h1.81v-.61h.6v-2.418h-.6v-.6h-1.81v-.6h1.81v-.6h1.209v-1.809h-.6v-.6l-.028-.01Zm-3.628 6.037h-1.209v-.6h1.21v.6Zm0-1.21h-1.209v-.609h1.21v.61Zm0-3.018h-1.809v-.6h1.81v.6Zm2.419 4.228h-1.21v-.6h1.21v.6Zm0-1.81v.61h-1.21v-.61h1.21Zm.609-2.418h-1.81v-.6h1.81v.6Zm-8.464 0h1.209v-1.21h-1.21v-.6H5.17v1.2h1.21v.61Zm3.027-10.901H6.388v.6h-.6v4.227h.6v.6h3.018v-.6h.6v-4.227h-.6v-.6Zm-.61 4.227H6.989v-3.018h1.809v3.018Z" fill="#FFCBAC"/><path d="M6.379 47.585h1.209v-1.21h-1.21v-.609H5.17v1.21h1.21v.609Zm5.436-12.72h-.6v5.437h1.21v-4.828h1.809v3.018h-1.21v1.21h1.819v-.6h.6v-4.237h-.6v-.6h-3.028v.6Zm2.419-3.619h-1.21v-.6h-1.209v-.6h-.6v-.6h-1.21v.6h-.6v.6H8.198v.6h-1.21v.61h-1.81v1.209h2.419v-.6h.6v1.209h4.837v-1.21h.6v.6h2.418v-1.209h-1.81v-.609h-.008Zm-1.81 1.21H8.797v-.6h1.209v-.61h1.21v.61h1.208v.6Z" fill="#FFCBAC"/><path d="M16.228 31.662h-1.283v-.259h-.526v-.341h-.683v-.259h-.527v-.341h-.683v-.259H12v-.341h-.083v-.259h-.526v-.341H9.813v.6h-.61v.6H7.994v.6h-1.21v.609H4.977v1.578h.526v.342h2.492v.258h.526v.24H6.185v.6h-.6v4.597h.526v.342h.074v.258h.526v.342h3.388v-.6h.6V35.03h-.527v-.342h-.083v-.258h-.526v-.24h2.05v.498h-.6v5.807h.526v.341h1.578v-.941h.24v.341h2.179v-.6h.609V35.04h-.526v-.34h-.083v-.259h-.527V34.1h-1.283v-.84h.24v.341h2.788v-1.578h-.526v-.361Zm-6.222 3.203v4.227h-.6v.6H6.388v-.6h-.6v-4.227h.6v-.6h3.018v.6h.6Zm4.837-.6v.6h.6v4.227h-.6v.6h-1.809v-1.209h1.21v-3.018h-1.81v4.837h-1.21v-5.437h.6v-.6h3.02Zm-1.707 4.043V36h.923v2.308h-.923Zm2.916-5.252h-2.418v-.6h-.6v1.209H8.197v-1.21h-.6v.6H5.18v-1.209h1.809v-.609h1.21v-.6h1.208v-.6h.6v-.6h1.21v.6h.6v.6h1.209v.6h1.209v.61h1.81v1.209h.008Z" fill="#231815"/><path d="M6.988 38.492h1.809v-3.018h-1.81v3.018ZM7.698 36h.924v2.307h-.923V36Zm3.517-4.754h-1.209v.61h-1.21v.6h3.629v-.6h-1.21v-.61Zm.342.785v.24h-.84v-.499h.314v.259h.526Zm2.677 15.553h-1.21v.61h1.21v-.61Zm.6-3.027h-1.81v.6h1.81v-.6Z" fill="#231815"/><path d="M16.227 43.772h-.073v-.258h-.527v-.342H9.221v.6h-.6v2.179h.526v.341h.684v.259h.526v.24H9.83v.6h-.61v2.788h.526v.341h.084v.258h.526v.24H8.62v.942h-.24v-.342h-.083v-2.076h-.526V49.2H7.69v-.258h-.526V48.6h-2.18v1.578h.527v.342h.683v1.708h-.6v.609h-.6v1.578h.526v.342h1.578v-.61h.6v-.34h.24v.34h.083v.26h.526v.34h8.225V53.17h-.526v-.24h.526v-1.578h-.526v-.342h-.683v-.498h.61v-2.788h-.527v-.341h-.083v-.259h-.526v-.24h.526v-.6h1.21v-2.178h-.527v-.342l-.018.01Zm-.184 1.994h-1.21v.6h-1.809v.6h1.81v.6h.6v2.419h-.6v.609h-1.81v.6h3.019v1.21h-3.019v.608h3.019v1.21H8.187v-.6h-.6v-.6h-.6v.6h-.609v.6H5.17v-1.21h.6v-.609h.6v-2.418H5.16v-1.21h1.81v.6h.6v2.419h.6v.6h.6v-1.21h3.018v-.6H9.979v-.609h-.6v-2.418h.6v-.6h1.81v-.6h-1.81v-.6H8.77v-1.81h.61v-.6h6.036v.6h.6v1.81l.028.01Z" fill="#231815"/><path d="M11.816 44.557h-1.81v.6h1.81v-.6Zm2.418 4.237h-1.21v.6h1.21v-.6ZM5.51 47.502h.684v.258h.526v.342h1.578v-1.579h-.526v-.342H7.09v-.258h-.526v-.342h-1.58v1.579h.527v.342Zm-.341-.527v-1.209h1.21v.6h1.208v1.21H6.378v-.6H5.17Z" fill="#231815"/><path d="M5.51 45.083h.684v.259h.526v.341h1.578v-1.578h-.526v-.342H7.09v-.258h-.526v-.342h-1.58v1.579h.527v.341Zm-.341-.526v-1.21h1.21v.6h1.208v1.21H6.378v-.6H5.17Zm6.646 3.027h-1.209v.61h1.21v-.61Zm0 4.828H8.797v.61h3.018v-.61Zm0-3.618h-1.209v.6h1.21v-.6Z" fill="#231815"/><path d="M76.486 44.557h-1.81v-.6h-1.208v-.6h-1.21v.6H71.05v.6h-1.81v.6h-1.808v1.21h1.809v-.6h1.21v.6h4.836v-.6h1.21v.6h1.809v-1.21h-1.81v-.6h-.009Zm-1.81 1.21H71.05v-.61h1.21v-.6h1.209v.6h1.209v.61Zm2.419 1.209H68.64v.6h-.6v2.418h.6v3.628h.61v.6h7.245v-.6h.61v-3.628h.6v-2.418h-.6v-.6h-.01Zm-3.627 1.209h1.209v.6h-.61v.6h-.6v-1.21.01Zm-2.419 0h1.21v1.209h-.6v-.6h-.61v-.61Zm-1.809 0h.6v.6h.6v.6h-1.21v-1.21l.01.01Zm6.646 4.837H69.85v-.61h6.037v.61Zm0-1.81H69.85v-.6h6.037v.6Zm.6-1.809h-1.209v-.6h.6v-.6h.6v1.21l.01-.01Zm.609-17.557h-.609v-1.209h.61v-1.21h-1.21v1.21h-.6v-1.21h-1.21v1.21h-1.208v1.21h-.6v-1.21h.6v-1.21h-1.21v1.21h-.609v.6h-1.21v-1.81h-1.208v1.81h-1.21v1.21h1.21v.6h-.6v1.808h-.6v1.81h.6v-1.21h.6v4.837h1.209v-5.437h.6v.6h.6v.6h.61v1.81h-.61v1.209h-.6v1.21h1.21v-.6h.6v-1.21h.6v.61h1.208v-1.21h-.6v-.6h-.6v-1.21h1.21v.61h.609v1.21h.6v.6h-.6v.608h-.61v1.21h1.21v-.6h.6v-.6h.6v.6h.609v.6h.6v-.6h.6v-1.81h-.6v.6h-.6v-.6h.6v-1.209h-1.21v.6h-.6v-.6h-.6v-.61h3.02v-1.208h-.6v-.6h.6v-1.81h-.6v.6h-.6v-.6h.6v-.6h.6v-1.209h-1.21v1.21l.01-.01Zm-3.018 3.019h-3.019v-.6h-.6v-.61h-.6v-1.209h1.21v-.6h.609v1.21h-.61v1.209h3.019v.6h-.01Zm0-2.419h-.6v.6h-.6v-.6h.6v-.6h.6v.6Zm1.209-.6h.6v1.21h-.6v-1.21Zm1.21 3.019h-1.21v-.6h1.21v.6Z" fill="#72DBF3"/><path d="M76.486 34.265h-1.21v.6h1.21v-.6Zm-2.418 0h-3.019v.6h3.019v-.6Zm3.028-3.628h-.61v1.209h.61v-1.21Zm-2.419 7.855h.6v-.6h-.6v-1.209h-.61v-.61h-1.209v1.21h.6v.6h.6v1.21h.61v-.61l.009.01Zm.101-.424h.24v.24h-.24v-.24Zm-.286-.028h-.24v-.342h-.083v-.258h-.526v-.342h-.074V36.6h.314v.258h.526v.342h.083v.84Zm-1.634-7.403h-.6v1.209h.6v-1.21Zm4.837 7.255h-.6v.6h.6v-.6Zm-6.037-4.837v-1.209h-.609v.6h-1.21v1.21h.6v.609h.6v-1.21h.62Zm-.784.767h-.24v-.342h-.083v-.498h.314v.84h.009Zm3.194-1.976h-.6v.6h.6v-.6Zm1.809 0h-.6v1.21h.6v-1.21Zm-2.409.61h-.6v.6h.6v-.6Zm4.227 0h-.6v.6h.6v-.6Z" fill="#231815"/><path d="M78.49 30.452h-.684v-.867h-.526v-.342H75.7v.342h-.24v-.342h-1.578v1.21h-.314v-.868h-.526v-.342h-1.579v1.21h-.6v.6h-.313v-1.468h-.526v-.342h-1.579v1.81h-1.21v1.578h.527v.341h.083v1.708h-.6v2.179h.526v.341h.683v3.286h.526v.342h1.579v-.342h.24v.342h1.578v-.61h.6v-.941h.24v.341h.683v.868h.527v.342h1.578v-.61h.6v-.341h.24v.342h.083v.258h.526v.342h.97v-.61h.6v-2.178h-.527v-.342h-.074v-.867h-.526v-.24h1.127v-1.579h-.527v-.24h.526v-2.178h-.526v-.24h.526v-1.579h-.526v-.341l-.009.027Zm-.185 1.394h-.6v.6h.6v1.81h-.6v.6h.6v1.209h-3.019v.609h.6v.6h.6v-.6h1.21v1.21h.6v1.808h-.6v.6h-.6v-.6h-.61v-.6h-.6v.6h-.6v.6h-1.21v-1.209h-1.208v-.61h-.6v1.21h-.6v.6h-1.21v-1.21h.6v-1.208h.61v-1.81h-.61v-.6h-.6v-.6h-.6v5.437H68.65v-4.837h-.6v1.21h-.6v-1.81h.6v-1.809h.6v-.6h-1.21v-1.209h1.21v-1.81h1.21v1.81h1.209v-.6h.609v-1.21h1.21v1.21h1.208v-1.21h1.21v1.21h.6v-1.21h1.209v1.21h1.209v1.21h-.018ZM76.31 36.6v.24h-.24v-.24h.24Zm-5.437-.6v.258h.526v.342h.074v1.1h-.6v1.209h-.314V35.65h.24v.342h.083l-.01.01Zm2.595 8.557h-1.21v.6H71.05v.61h3.628v-.61h-1.21v-.6Zm.341.785v.24h-.84v-.499h.314v.259h.526Zm2.077 3.452h-.61v.6h1.21v-1.21h-.6v.61Zm-.009 1.809H69.84v.6h6.037v-.6Z" fill="#231815"/><path d="M78.49 44.982h-1.284v-.259h-.526v-.341h-1.292v-.259h-.526v-.341h-.684v-.259h-.526v-.341h-1.578v.6h-1.21v.6h-1.809v.6h-1.809v1.578h.526v.342h.683v.498h-.6v2.788h.526v.341h.074v3.286h.526v.342h.074v.259h.526v.341h7.616v-.61h.6V50.52h.61v-2.788h-.527v-.341h-.083v-.259h-.526v-.24h1.735v-1.578h-.526v-.342l.01.01Zm-.785 2.603v2.418h-.6v3.628h-.61v.6H69.25v-.6h-.61v-3.628h-.6v-2.418h.6v-.6h8.456v.6h.61ZM70.8 46.56v.24h-.84v-.498h.314v.258h.526Zm6.046 0v.24h-.84v-.498h.314v.258h.526Zm1.468-.184h-1.81v-.6h-1.209v.6h-4.837v-.6H69.25v.6h-1.81v-1.21h1.81v-.6h1.81v-.6h1.209v-.6h1.209v.6h1.21v.6h1.808v.6h1.81v1.21h.009Z" fill="#231815"/><path d="M74.068 48.794h.609v-.61h-1.21v1.21h.6v-.6Zm1.809 3.618H69.84v.61h6.037v-.61Zm-4.218-3.018h.6v-1.21h-1.21v.6h.61v.61Zm.184-.683h.24v.24h-.24v-.24Zm-1.394.083h-.6v-.6h-.6v1.21h1.21v-.6l-.01-.01Zm-.258.425h-.24v-.24h.24v.24Z" fill="#231815"/></g><defs><clipPath id="clip0_1119_32170"><path fill="#fff" d="M0 0h84v84H0z"/></clipPath></defs></svg>