<svg fill="none" xmlns="http://www.w3.org/2000/svg" viewBox="0 0 128 121"><g clip-path="url(#clip0_1038_30203)"><path d="M34.198 49.915h5.624v-3.233h3.232V41.06h-3.232v-3.233h-5.624v3.233h-3.216v5.623h3.216v3.233Zm34.466 23.438h-4.715v-2.358h-4.731v-2.357H41.15v2.357h-4.73v2.358h-4.715v2.374H29.33v3.872h3.89v-2.357h4.731v-2.357h4.715V72.51h15.019v2.374h4.731v2.357h4.731V79.6h3.89v-3.872h-2.374v-2.374ZM60.06 49.915h5.607v-3.233H68.9V41.06h-3.233v-3.233H60.06v3.233h-3.233v5.623h3.233v3.233Z" fill="#fff"/><path d="M110.741 17.924h-7.729v-7.728H87.555V2.467H33.743v7.729H18.286v7.728h-7.728v15.457H2.813v49.064h7.728v15.457h7.729v7.728h15.456v7.728H87.54v-7.728h15.456v-7.728h7.729V82.445h7.728V33.38h-7.728V17.924h.017Zm-55.749 21.3h3.233V35.99h9.277v2.811h1.819v.421h1.397v2.812h1.819v9.278h-3.233v3.232h-9.278v-2.812h-1.818v-.42H56.81V48.5h-1.818v-9.278Zm-25.845 0h3.232V35.99h9.278v2.811h1.818v.421h1.398v2.812h1.818v9.278h-3.233v3.232h-9.277v-2.812h-1.818v-.42h-1.398V48.5h-1.818v-9.278Zm44.77 43.995h-7.004v-2.054h-1.33v-.303h-3.385v-2.054h-1.33v-.303h-3.384V76.45h-1.33v-.303H45.597v2.357h-4.732v2.357h-4.73v2.357H29.13v-2.054H27.8V74.16h2.357v-2.357h4.731v-2.358h4.732V67.09H60.8v2.054h1.331v.303h3.384v2.055h1.33v.303h3.385v2.054h1.33v.303h1.027v2.054h1.33v7.004Z" fill="#C860FF"/><path d="M56.827 51.312h1.398v.421h1.818v2.812h9.278v-3.233h3.232v-9.277h-1.818v-2.812h-1.398v-.42H67.52V35.99h-9.277v3.233H55.01V48.5h1.818v2.812Zm0-10.254h3.233v-3.233h5.624v3.233h3.233v5.624h-3.233v3.233H60.06v-3.233h-3.233v-5.624ZM30.982 51.312h1.397v.421h1.819v2.812h9.277v-3.233h3.233v-9.277h-1.819v-2.812h-1.397v-.42h-1.819V35.99h-9.277v3.233h-3.233V48.5h1.819v2.812Zm0-4.63v-5.624h3.232v-3.233h5.624v3.233h3.233v5.624h-3.233v3.233h-5.624v-3.233h-3.232ZM72.587 74.16H71.56v-.302h-1.33v-2.055h-3.385V71.5h-1.33v-2.054h-3.384v-.303H60.8v-2.054H39.619v2.357h-4.731v2.357h-4.731v2.358h-2.358v7.004h1.33v2.054h7.005v-2.357h4.731v-2.357h4.731v-2.358h10.558v.303h1.33v2.055h3.384v.303h1.33v2.054h3.384v.303h1.33v2.054h7.005v-7.004h-1.33V74.16ZM71.02 79.6h-3.89v-2.357H62.4v-2.357h-4.732v-2.358h-15.02v2.358h-4.73v2.357h-4.732V79.6h-3.89v-3.89h2.358v-2.357h4.731v-2.357h4.732v-2.357h18.066v2.357h4.732v2.357h4.73v2.358h2.358V79.6h.017Z" fill="#231815"/><path d="M120.826 31.04h-1.01V19.944h-6.718v-4.377h-1.011v-3.368h-6.718V7.821h-8.738V4.454h-6.718V.11H31.386v7.728H15.929v7.729H8.201v15.456H.456v53.779h6.718v4.36h1.01v11.097h6.718v4.36h1.01v3.368h6.718v4.378h8.739v3.367h6.718v4.378h58.51v-7.728h15.457v-7.729h7.728V89.196h7.728V35.418h-6.718V31.04h.034Zm-2.357 51.422h-7.729v15.456h-7.728v7.729H87.555v7.728H33.743v-7.728H18.286v-7.729h-7.728V82.461H2.813V33.398h7.728V17.941h7.729v-7.729h15.456V2.467H87.54v7.728h15.456v7.729h7.729V33.38h7.728v49.065l.017.017Z" fill="#231815"/></g><defs><clipPath id="clip0_1038_30203"><path fill="#fff" transform="translate(.456 .11)" d="M0 0h127.089v120H0z"/></clipPath></defs></svg>