<svg fill="none" xmlns="http://www.w3.org/2000/svg" viewBox="0 0 40 17"><path d="m38.28 10.66-.54-.35.34-.54-2.16-1.39-.35.54-.54-.34-.35.54-.54-.35-.7 1.08.54.35-.34.54.54.35-.35.54 1.09.7-.35.54 1.08.7-.69 1.08-1.63-1.04.35-.54-.54-.35.34-.54-1.08-.7-.7 1.09.55.34-.35.55.54.34-.35.54 2.17 1.4.35-.55.54.35.35-.54.54.35.7-1.09-.55-.35.35-.54-.54-.35.35-.54-1.09-.69.35-.54-1.08-.7.69-1.09 1.63 1.05-.35.54.54.35-.35.54 1.09.69.69-1.08-.54-.35.35-.54ZM1.75 8.67l1.17-.54-.28-.59.59-.27 2.99 6.42 1.17-.54L3.3 4.39l-1.16.55.27.58-.58.27.27.59-.59.27.28.58-.59.27.55 1.17Zm12.85 1.75.63-.12-.12-.63.63-.12-1.28-6.97-.63.12-.12-.63-.63.12-.12-.63-2.53.47.12.63-.63.12.12.63-.63.12.58 3.17.63-.12.12.63.63-.12.12.63 1.9-.35-.12-.63.63-.12.47 2.53-.63.12.12.63-1.27.23-.12-.63-.63.12-.23-1.27-1.27.23.35 1.9.63-.12.12.63.63-.12.12.63 2.53-.47-.12-.63v.02Zm-1.57-4.95.12.63-1.27.23-.12-.63-.63.12-.35-1.9.63-.12-.12-.63 1.27-.23.12.63.63-.12.35 1.9-.63.12Zm12.61 5.56.61.2-.2.61 2.44.82.2-.61.61.2.41-1.22.61.2 1.84-5.5-.61-.2.41-1.22-.61-.2.2-.61-2.44-.82-.2.61-.61-.2-.41 1.22-.61-.2-1.84 5.5.61.2-.41 1.22Zm2.65-5.9.61.2.41-1.22 1.22.41-.41 1.22.61.2-1.43 4.28-.61-.2-.41 1.22-1.22-.41.41-1.22-.61-.2 1.43-4.28Zm-6.53 5.21.64.05.05-.64.64.04.27-3.85-.65-.05.05-.64-.65-.04.05-.65-1.93-.13-.04.64-.65-.04.18-2.57 3.86.26.09-1.28-5.14-.36-.4 5.79 1.28.09.05-.65.64.05.04-.65 1.29.09-.05.65.65.04-.18 2.57-.64-.04-.05.64-1.28-.09.04-.64-.64-.05.04-.64-1.28-.09-.09 1.29.64.04-.04.64.64.05-.04.64 2.57.18.04-.65Z" fill="#fff"/><path d="m1.65 8.93.51-.24.15.33 1.24-.58 2.57 5.5.51-.24.15.33 1.52-.71-4.25-9.11-.51.24-.15-.33-1.52.71.27.58-.58.27.27.58-.58.27.27.58-.58.27.71 1.52v.03Zm-.14-2.28.58-.27-.27-.58.58-.27-.27-.58 1.17-.54 4.09 8.75-1.17.54-3-6.42-.58.27.27.58-1.17.54L1.2 7.5l.58-.27-.27-.58Zm14.06 4.82-.12-.63.63-.12-.12-.63.63-.12-1.36-7.35-.55.1-.07-.36-.08.02-.05-.28-.55.1-.07-.36-.08.02-.05-.28-.55.1-.07-.36-2.92.54.12.63-.63.12.12.63-.63.12.66 3.55.55-.1.07.36h.08l.05.26.55-.1.07.36h.08l.05.26.55-.1.07.36 1.98-.37.21 1.16-.63.12.12.63-.33.06-.05-.28-.55.1-.07-.36-.08.02-.17-.91-.55.1-.07-.36-1.65.3.42 2.29.55-.1.07.36.08-.02.05.28.55-.1.07.36.08-.02.05.28.55-.1.07.36 2.92-.54Zm-3.38.05-.12-.63-.63.12-.12-.63-.63.12-.35-1.9 1.27-.23.23 1.27.63-.12.12.63 1.27-.23-.12-.63.63-.12-.47-2.53-.63.12.12.63-1.9.35-.12-.63-.63.12-.12-.63-.63.12-.58-3.17.63-.12-.12-.63.63-.12-.12-.63 2.53-.47.12.63.63-.12.12.63.63-.12 1.28 6.97-.63.12.12.63-.63.12.12.63-2.53.47v-.02Z" fill="#231815"/><path d="m12.69 3.57-.12-.63-1.27.23.12.63-.63.12.35 1.9.63-.12.12.63 1.27-.23-.12-.63.63-.12-.35-1.9-.63.12Zm.12 1.74.12.63-.33.06-.05-.28-.55.1-.07-.36-.08.02-.21-1.16.63-.12-.12-.63.33-.06.05.28.55-.1.07.36.08-.02.21 1.16-.63.12Zm9.62 6.29.04-.64.64.04.04-.64.64.04.29-4.25-.56-.04.03-.36h-.08l.02-.29-.56-.04.02-.36h-.08l.02-.29-.56-.04.03-.36-2.01-.14.08-1.17 3.86.27.12-1.68-.56-.04.02-.36-5.53-.38-.43 6.17.56.04-.03.36 1.68.12.04-.64.64.04.04-.64.34.02-.02.28.56.04-.03.36h.08l-.12 1.82-.64-.04-.04.64-.34-.02.02-.28-.56-.04.03-.36h-.08l.02-.29-.56-.04.03-.36-1.68-.12-.12 1.68.56.04-.03.36h.08l-.02.29.56.04-.03.36h.08l-.02.29.56.04-.03.36 2.96.2.03.01Zm-3.29-.79.04-.64-.64-.04.04-.64-.64-.04.09-1.28 1.29.09-.04.64.64.04-.04.64 1.29.09.04-.64.64.04.18-2.57-.64-.04.04-.64-1.29-.09-.04.64-.64-.04-.04.64-1.29-.09.4-5.78 5.14.35-.09 1.29-3.86-.27-.18 2.57.64.04.04-.64 1.93.13-.04.64.64.04-.04.64.64.04-.27 3.85-.64-.04-.04.64-.64-.04-.04.64-2.57-.18-.01.01Zm7.93.02 1.22.41.41-1.22.61.2 1.43-4.28-.61-.2.41-1.22-1.22-.41-.41 1.22-.61-.2-1.43 4.28.61.2-.41 1.22Zm.58-1.37 1.19-3.56.61.2.41-1.22.32.11-.29.88.53.18-.12.34.08.03-1.19 3.56-.61-.2-.41 1.22-.32-.11.29-.88-.53-.18.12-.34-.08-.03Z" fill="#231815"/><path d="m25.61 10.25.08.03-.29.88.53.18-.12.35.08.03-.09.27.53.18-.12.34 2.81.94.2-.61.61.2.41-1.22.61.2 1.96-5.87-.53-.18.12-.34-.08-.03.29-.88-.53-.18.12-.34-.08-.03.09-.27-.53-.18.12-.35-2.81-.94-.2.61-.61-.2-.41 1.22-.61-.2-1.96 5.87.53.18-.12.34Zm-.17-.65 1.84-5.5.61.2.41-1.22.61.2.2-.61 2.44.82-.2.61.61.2-.41 1.22.61.2-1.84 5.5-.61-.2-.41 1.22-.61-.2-.2.61-2.44-.82.2-.61-.61-.2.41-1.22-.61-.2Zm13.3 1.89-.07-.04.15-.24-.47-.3.2-.31-.07-.04.15-.24-.47-.3.2-.31-2.5-1.6-.35.54-.54-.35-.35.54-.54-.35-.91 1.42.47.3-.2.31.07.04-.15.24.47.3-.2.31.07.04-.15.24.47.3-.2.31.61.39-.15.24.47.3-.2.31.61.39-.29.45-.83-.53.15-.24-.47-.3.2-.31-.07-.05.15-.24-.47-.3.2-.31-1.41-.91-.91 1.41.47.3-.2.31.07.04-.15.24.47.3-.2.31.07.04-.15.24.47.3-.2.31 2.5 1.6.35-.54.54.35.35-.54.54.35.91-1.42-.47-.3.2-.31-.07-.04.15-.24-.47-.3.2-.31-.07-.04.15-.24-.47-.3.2-.31-.61-.39.15-.24-.47-.3.2-.31-.61-.39.29-.45.83.53-.15.24.47.3-.2.31.07.05-.15.24.47.3-.2.31 1.41.91.91-1.41-.47-.3.2-.31Zm-.97 1.14-1.08-.7.35-.54-.54-.35.35-.54-1.63-1.04-.7 1.08 1.08.7-.35.54 1.08.7-.35.54.54.35-.35.54.54.35-.7 1.08-.54-.35-.35.54-.54-.35-.35.54-2.17-1.39.35-.54-.54-.35.35-.54-.54-.35.7-1.08 1.08.7-.35.54.54.35-.35.54 1.63 1.04.7-1.08-1.08-.7.35-.54-1.08-.7.35-.54-.54-.35.35-.54-.54-.35.7-1.08.54.35.35-.54.54.35.35-.54 2.17 1.39-.35.54.54.35-.35.54.54.35-.7 1.08Z" fill="#231815"/></svg>