<svg fill="none" xmlns="http://www.w3.org/2000/svg" viewBox="0 0 39 16"><path d="m14.47 8.36.63-.13-1.15-5.68-.63.13-.26-1.26-.63.13-.13-.63-2.52.51.13.63-.63.13.26 1.26-.63.13 1.15 5.68.63-.13.26 1.26.63-.13.13.63 2.52-.51-.13-.63.63-.13-.26-1.26Zm-1.13.89-1.26.26-.26-1.26-.63.13-.9-4.42.63-.13-.26-1.26 1.26-.26.26 1.26.63-.13.9 4.42-.63.13.26 1.26Zm11.78.9.62.19-.19.61 2.46.77.19-.62.62.19.38-1.23.62.19 1.73-5.53-.61-.19.38-1.23-.62-.19.19-.61-2.46-.77-.19.61-.62-.19-.38 1.23-.61-.19-1.73 5.53.61.19-.38 1.23-.01.01Zm2.54-5.95.61.19.38-1.23 1.23.38-.38 1.23.62.19-1.35 4.3-.62-.19-.38 1.23-1.23-.38.38-1.23-.62-.19 1.35-4.3h.01ZM1.21 8.23l1.16-.56-.57-1.16.58-.29-.29-.57 1.16-.57.29.58.57-.28.85 1.73-.58.28.29.58-.58.29.28.57-.58.29.29.58-.58.28.28.58-.58.28.57 1.16-.58.28.85 1.74 4.63-2.27-.57-1.16-2.89 1.42-.57-1.16.58-.28-.28-.58.58-.28-.29-.58.58-.28-.28-.58.58-.29-.29-.57.58-.29-1.41-2.89-.58.28-.28-.57-.58.28-.29-.58L.95 4.77l.28.58-.57.28.28.58-.58.29.85 1.73Zm16.82 1.15.64.03-.03.64 2.57.13.03-.64.64.03.07-1.29.64.03.29-5.79-.64-.03.07-1.29-.64-.03.03-.64L19.13.4l-.03.64-.64-.03-.07 1.29-.64-.03-.29 5.79.64.03-.07 1.29Zm.97-6.4.64.03.07-1.29 1.29.07-.06 1.29.64.03-.23 4.5-.64-.03-.07 1.29-1.29-.06.06-1.29-.64-.03.23-4.5v-.01Zm18.77 6.58-.54-.34.33-.55-2.19-1.35-.34.55-.55-.34-.33.55-.55-.34-.68 1.1.55.34-.34.54.55.34-.34.55 1.1.68-.34.54 1.1.68-.68 1.1-1.64-1.02.34-.54-.55-.34.34-.55-1.1-.68-.68 1.1.55.34-.34.55.55.33-.34.55 2.2 1.35.34-.55.54.34.34-.55.55.34.68-1.1-.55-.33.34-.55-.55-.34.33-.55-1.09-.67.34-.55-1.1-.68.67-1.09 1.65 1.01-.34.55.55.34-.34.54 1.1.68.67-1.1-.54-.33.33-.55Z" fill="#fff"/><path d="m1.12 8.49.5-.25.16.33 1.51-.74-.57-1.16.58-.28-.28-.58.3-.15.12.25.5-.25.16.33.08-.04.52 1.06-.58.28.28.58-.58.28.28.58-.58.28.28.58-.58.28.28.58-.58.28.57 1.16-.58.28 1.02 2.09.5-.25.16.33 4.98-2.44-.74-1.51-.5.25-.16-.33-2.39 1.17-.23-.48.58-.28-.28-.58.58-.28-.28-.58.58-.28-.28-.58.58-.28-.28-.58.58-.28-1.59-3.25-.5.25-.16-.33-.08.04-.12-.25-.5.25-.16-.33-.08.04-.12-.25-.5.25-.16-.33-2.67 1.3.28.58-.58.28.28.58-.58.28 1.02 2.09.01.01ZM.66 5.63l.58-.28-.28-.58 2.31-1.13.28.58.58-.28.28.58.58-.28 1.42 2.89-.58.28.28.58-.58.28.28.58-.58.28.28.58-.58.28.28.58-.58.28.57 1.16 2.89-1.42.57 1.16-4.63 2.27-.85-1.74.58-.28-.57-1.16.58-.28-.28-.58.58-.28-.28-.58.58-.28-.28-.58.58-.28-.28-.58.58-.28-.85-1.74-.58.28-.28-.58-1.16.57.28.58-.58.28.57 1.16-1.16.57L.36 6.5l.58-.28-.28-.58v-.01Zm12.16-2.19-.63.13-.26-1.26-1.26.26.26 1.26-.63.13.9 4.42.63-.13.26 1.26 1.26-.26-.26-1.26.63-.13-.9-4.42Zm.29 5.66-.33.07-.18-.91-.55.11-.07-.36-.08.02-.75-3.68.63-.13-.26-1.26.33-.07.18.91.55-.11.07.36.08-.02.75 3.68-.63.13.26 1.26Z" fill="#231815"/><path d="m14.95 10.15.63-.13-.26-1.26.63-.13-1.23-6.06-.55.11-.07-.36-.08.02-.18-.91-.55.11-.07-.36-.08.02-.06-.27-.55.11-.07-.36-2.91.59.13.63-.63.13.26 1.26-.63.13 1.23 6.06.55-.11.07.36.08-.02.18.91.55-.11.07.36.08-.02.06.27.55-.11.07.36 2.91-.59-.13-.63Zm-.72.23-2.52.51-.13-.63-.63.13-.26-1.26-.63.13-1.15-5.68.63-.13-.26-1.26.63-.13-.13-.63L12.3.92l.13.63.63-.13.26 1.26.63-.13 1.15 5.68-.63.13.26 1.26-.63.13.13.63Zm5.12-1.58 1.29.06.07-1.29.64.03.23-4.5-.64-.03.06-1.29-1.29-.07L19.64 3 19 2.97l-.23 4.5.64.03-.06 1.29v.01Zm.38-5.22.64.03.07-1.29.34.02-.05.92.56.03-.02.36h.08l-.19 3.75-.64-.03-.06 1.29-.34-.02.05-.92-.56-.03.02-.36h-.08l.19-3.75h-.01Z" fill="#231815"/><path d="M17.78 8.63h.08l-.05.93.56.03-.02.36h.08l-.01.28.56.03-.02.36 2.96.15.03-.64.64.03.07-1.29.64.03.31-6.18-.56-.03.02-.36h-.08l.05-.93-.56-.03.02-.36h-.08l.01-.28-.56-.03.02-.36-2.96-.15-.03.64-.64-.03-.07 1.29-.64-.03-.31 6.18.56.03-.02.36Zm-.33-.58.29-5.79.64.03.07-1.29.64.03.03-.64 2.57.13-.03.64.64.03-.07 1.29.64.03-.29 5.79-.64-.03-.07 1.29-.64-.03-.03.64-2.57-.13.03-.64-.64-.03.07-1.29-.64-.03Zm7.62 1.32.08.03-.28.88.53.17-.11.35.08.02-.08.27.54.17-.11.35 2.83.89.19-.61.61.19.38-1.23.61.19 1.85-5.91-.54-.17.11-.35-.08-.03.28-.88-.53-.17.11-.35-.08-.02.08-.27-.53-.17.11-.35-2.83-.89-.19.61-.61-.19-.38 1.23-.62-.19-1.85 5.91.53.17-.11.35h.01Zm-.18-.64 1.73-5.53.61.19.38-1.23.62.19.19-.61 2.46.77-.19.61.62.19-.38 1.23.61.19-1.73 5.53-.62-.19-.38 1.23-.62-.19-.19.62-2.46-.77.19-.61-.62-.19.38-1.23-.61-.19.01-.01Z" fill="#231815"/><path d="m26.54 9.92 1.23.38.38-1.23.62.19 1.35-4.3-.62-.19.38-1.23-1.23-.38-.38 1.23-.61-.19-1.35 4.3.62.19-.38 1.23h-.01Zm.55-1.38 1.12-3.58.61.19.38-1.23.32.1-.28.88.53.17-.11.35.08.03-1.12 3.58-.61-.19-.38 1.23-.32-.1.28-.88-.53-.17.11-.35-.08-.03Zm11.16 1.84-.07-.04.15-.24-.48-.29.19-.31-.07-.04.15-.24-.48-.29.19-.31-2.53-1.56-.34.55-.55-.34-.34.55-.55-.34-.88 1.43.48.29-.19.31.07.04-.15.24.48.29-.19.31.07.04-.15.24.48.29-.19.31.62.38-.15.24.48.29-.19.31.62.38-.28.45-.83-.51.15-.24-.48-.29.19-.31-.07-.04.15-.24-.48-.29.19-.31-1.43-.88-.88 1.43.48.29-.19.31.07.04-.15.24.48.29-.19.31.07.04-.15.24.48.29-.19.31 2.53 1.56.34-.55.55.34.34-.55.55.34.88-1.43-.48-.29.19-.31-.07-.04.15-.24-.48-.29.19-.31-.07-.04.15-.24-.48-.29.19-.31-.62-.38.15-.24-.48-.29.19-.31-.62-.38.28-.45.83.51-.15.24.48.29-.19.31.07.04-.15.24.48.29-.19.31 1.43.88.88-1.43-.48-.29.19-.31Zm-.95 1.16-1.1-.68.34-.55-.55-.34.34-.55-1.64-1.01-.68 1.1 1.1.67-.34.55 1.1.68-.34.55.55.34-.34.55.55.34-.68 1.1-.55-.34-.34.55-.55-.34-.34.55-2.19-1.35.34-.55-.55-.34.34-.55-.55-.34.68-1.1 1.1.67-.34.55.55.34-.34.55 1.64 1.01.68-1.1-1.1-.68.34-.55-1.1-.67.34-.55-.55-.34.34-.55-.55-.34.68-1.1.55.34.34-.55.55.34.34-.55 2.19 1.35-.34.55.55.34-.34.55.55.34-.68 1.1v.01Z" fill="#231815"/></svg>