<svg fill="none" xmlns="http://www.w3.org/2000/svg" viewBox="0 0 14 14"><g clip-path="url(#clip0_799_31789)"><path d="M4.077 2.598c-.205-.495-.248-.973-.048-1.462.15-.367.392-.655.726-.861.55-.342 1.45-.478 2.247.273.748-.73 1.717-.66 2.351-.203a1.8 1.8 0 0 1 .57 2.236c.025.038.065.023.098.023.25 0 .499-.003.748-.003l1.341.002c.33 0 .616.118.855.338.219.202.356.451.394.75.011.083.018.167.018.25.001.542.006 1.083-.002 1.624-.008.503-.236.885-.674 1.136-.014.008-.028.019-.044.021-.08.014-.097.063-.097.14.003 1.475.003 2.948.004 4.423 0 .421-.01.842 0 1.264a1.433 1.433 0 0 1-1.427 1.45H2.845A1.425 1.425 0 0 1 1.44 12.61c0-.606-.004-1.212-.005-1.818V6.895c0-.082-.014-.156-.114-.174C.89 6.47.635 6.104.627 5.596a49.134 49.134 0 0 1 0-1.76c.01-.447.216-.799.594-1.042a1.14 1.14 0 0 1 .67-.193l2.062.002c.034 0 .069-.003.123-.005h.001Zm3.43 10.386c.026.003.042.007.058.007h3.576c.215 0 .37-.132.4-.344.011-.07.011-.143.011-.213V7c0-.022 0-.045-.002-.067-.001-.046-.02-.072-.07-.073-.09-.001-.182-.01-.272-.01-.305-.003-.609-.003-.914-.003-.894 0-1.788 0-2.682.002-.106 0-.11.006-.109.11v.067l.002 5.85v.106l.002.001ZM2.455 6.853c-.003.04-.007.065-.007.09v5.354c0 .114.001.227.004.34a.312.312 0 0 0 .064.18c.09.123.212.174.36.174h3.612c.003-.04.007-.072.007-.103V7.086c0-.045 0-.091-.002-.136-.003-.076-.01-.085-.083-.087-.188-.006-.376-.014-.563-.014-.875-.002-1.75-.001-2.625 0-.252 0-.504.002-.769.004h.002Zm4.028-.997c.004-.042.011-.073.011-.104 0-.66.001-1.321-.001-1.982 0-.148.03-.153-.154-.153l-4.315-.002c-.052 0-.105-.004-.155.005a.414.414 0 0 0-.143.05c-.075.048-.094.125-.094.212.002.553 0 1.108 0 1.662 0 .022 0 .046.002.067a.23.23 0 0 0 .136.198c.079.039.16.044.245.044l4.247.003h.22Zm1.026-2.223v2.205c.025.006.046.014.067.015.091.003.181.003.272.003h4.015c.065 0 .13.002.194-.003.224-.017.312-.113.312-.337V3.952a.7.7 0 0 0-.007-.107c-.02-.125-.123-.237-.27-.228-.073.005-.149-.002-.223-.002H8.876c-.405 0-.81.003-1.215.005-.048 0-.096.008-.15.013h-.002Zm.01-1.038c.047.001.095.005.141.004.243-.002.486.006.727-.01a.79.79 0 0 0 .647-1.106c-.184-.435-.818-.652-1.252-.288a.702.702 0 0 0-.275.574c.005.255.002.51.002.766 0 .016.006.032.01.059Zm-1.504 0v.007h.388c.08-.001.088-.01.089-.092 0-.227.002-.454-.002-.68a1.063 1.063 0 0 0-.03-.259.704.704 0 0 0-.204-.325.784.784 0 0 0-.665-.228.823.823 0 0 0-.693.812.8.8 0 0 0 .72.763c.13.013.264.002.397.002Z" fill="currentColor"/></g><defs><clipPath id="clip0_799_31789"><path fill="currentColor" transform="translate(.62)" d="M0 0h12.759v14H0z"/></clipPath></defs></svg>