<svg fill="none" xmlns="http://www.w3.org/2000/svg" viewBox="0 0 17 17"><path d="M3.994 10.183c-.082-.003-.161-.01-.244-.01a2.92 2.92 0 0 1-.476-.038 2.345 2.345 0 0 1-.587-.177 2.619 2.619 0 0 1-.584-.381 2.51 2.51 0 0 1-.552-.655 2.613 2.613 0 0 1-.29-.703 2.738 2.738 0 0 1-.071-.903c.01-.193.05-.389.118-.57.068-.181.14-.366.236-.53.158-.265.355-.499.598-.691a2.437 2.437 0 0 1 1.662-.566c.219.011.437 0 .66 0 .221 0 .447 0 .669.011.122.004.24.019.362.033.039.004.082.011.11.034.097.077.212.122.284.236.107.167.2.337.2.548-.003.303-.014.607-.018.91v.885c0 .225-.007.45-.01.68 0 .245 0 .485-.004.73 0 .166-.022.329-.022.495 0 .126.022.248.036.374.058.425.118.85.183 1.273.043.303.093.606.136.914.072.514.14 1.024.215 1.539.064.447.132.895.2 1.343.015.096.033.192.036.288a.546.546 0 0 1-.376.533.67.67 0 0 1-.243.034c-.301 0-.602-.015-.903-.019-.286-.004-.57-.004-.856-.004-.268 0-.494-.28-.505-.477-.003-.104-.01-.21-.01-.315 0-.344.007-.688.01-1.028.004-.304.014-.607.014-.91v-.9c0-.17.015-.34.018-.51v-.414c0-.17-.003-.34 0-.507 0-.178.008-.355.011-.548l-.007-.004Z" fill="#00698A" stroke="#231815" stroke-miterlimit="10"/><path d="M13.123 13.57c-.193-.164-.38-.326-.573-.478a11.52 11.52 0 0 0-.601-.444c-.212-.148-.426-.289-.638-.43-.118-.077-.24-.151-.361-.225-.19-.119-.38-.24-.577-.355-.122-.07-.254-.126-.38-.196-.476-.26-.974-.463-1.472-.666-.215-.09-.43-.182-.652-.263-.207-.078-.419-.137-.63-.207l-.115-.034c-.19-.055-.376-.11-.565-.162-.183-.048-.366-.093-.548-.145-.05-.014-.097-.037-.162-.066 0-.111-.007-.233-.007-.352 0-.166.007-.333.011-.496V7.805c0-.163.007-.326.01-.485v-.533c0-.16.008-.315.008-.474 0-.24.004-.484.007-.725 0-.1.004-.2.007-.303.169-.04.333-.078.498-.119.24-.059.48-.118.72-.18.258-.071.512-.149.766-.23a16.089 16.089 0 0 0 1.86-.733c.379-.181.759-.37 1.127-.577.498-.278.978-.581 1.44-.914.29-.207.566-.437.849-.651.054-.041.072-.093.072-.156 0-.051-.008-.107.003-.159.05-.214.158-.33.394-.359.186-.022.376-.01.562-.007.1 0 .204.007.301.033.161.04.283.145.319.322.014.078.01.16.01.24 0 .249 0 .493-.006.74 0 .167-.008.334-.011.5 0 .304 0 .607-.007.907 0 .166-.008.333-.011.495 0 .226-.004.452-.007.678 0 .18-.004.362-.007.547v.703c0 .163-.008.322-.008.485 0 .226-.003.451-.007.677 0 .181-.003.363-.007.544 0 .166 0 .333-.003.496 0 .17-.008.34-.008.51 0 .307 0 .615-.007.922 0 .177-.01.355-.014.532 0 .211-.004.422-.004.63 0 .184 0 .373-.003.558v.703c0 .163-.011.322-.008.485 0 .178-.039.348-.007.529.022.137.004.285-.007.425-.01.123-.107.197-.197.256a.436.436 0 0 1-.207.07c-.194.008-.39 0-.588.004a.778.778 0 0 1-.354-.067.413.413 0 0 1-.233-.433l.01-.092c0-.008.004-.015.008-.026l.01-.004Z" fill="#E2CCAF" stroke="#231815" stroke-miterlimit="10"/><path d="M15.98 1.389c-.062-.191-.275-.299-.557-.347-.169-.028-.35-.031-.525-.035-.326-.004-.658-.016-.983.007-.413.032-.601.156-.689.387-.018.056 0 .111-.006.171 0 .068-.194 12.781-.194 12.79l-.019.099c-.043.203.113.382.407.466.2.06.4.08.62.071.338-.008.682.004 1.026-.004a.963.963 0 0 0 .363-.075c.163-.064.326-.144.345-.275.025-.152.056-.31.012-.458-.05-.195.019-.379.013-.57 0-.175.012-.346.012-.521v-.757c0-.2 0-.402.007-.602 0-.227 0-.454.006-.677 0-.19.019-.382.025-.573.006-.33.006-.661.012-.992 0-.183.007-.366.013-.55 0-.179 0-.358.006-.533 0-.195.006-.39.013-.586 0-.243.006-.486.012-.729 0-.175.013-.346.013-.521v-.757c0-.195.006-.39.012-.59 0-.243.006-.486.013-.728 0-.18.012-.359.019-.534 0-.327 0-.653.012-.976 0-.18.012-.358.019-.538 0-.267.012-.53.012-.796 0-.088.007-.176-.019-.26V1.39Z" fill="#00698A" stroke="#231815" stroke-miterlimit="10"/></svg>