<svg fill="none" xmlns="http://www.w3.org/2000/svg" viewBox="0 0 23 17"><g clip-path="url(#clip0_799_34475)"><path d="M10.66 13.015H8.998v1.662h1.662v-1.662Zm6.648-8.31h-3.324V3.043H10.66v1.662h1.662v1.662H.916v3.324h11.406v1.662H10.66v1.662h3.324v-1.662h3.324V9.691h3.33V6.367h-3.33V4.705ZM10.66 1.38H8.998v1.663h1.662V1.38Z" fill="#fff"/><path d="M21.142 5.863h-1.878v-.72h-1.446V4.2H15.94v-.72h-1.446v-.942h-1.878v-.72H11.17V.877H8.494v2.676H9.94v.942h.216v.72h1.446v.648H.412V10.2h1.446v.942h8.298v1.374H8.494v2.676H9.94v.942h2.676v-1.662h3.324V12.81h3.324v-1.662h3.324V6.811h-1.446v-.948Zm-.504 3.828h-3.324v1.662H13.99v1.662h-3.324v1.662H9.004v-1.662h1.662v-1.662h1.662V9.691H.916V6.367h11.406V4.705H10.66V3.043H8.998V1.381h1.662v1.662h3.324v1.662h3.324v1.662h3.324v3.324h.006Z" fill="#231815"/></g><defs><clipPath id="clip0_799_34475"><path fill="#fff" transform="translate(.412 .877)" d="M0 0h22.176v15.246H0z"/></clipPath></defs></svg>