<svg fill="none" xmlns="http://www.w3.org/2000/svg" viewBox="0 0 168 25"><g clip-path="url(#clip0_799_32619)"><path d="M73.452.396h-2.607v1.303H63.02v1.304h-1.304v1.304h-1.303V1.7h-2.608v2.608h1.304V8.22h2.607v2.608h-1.303v1.304H59.11v1.303h-1.304v2.608h2.608v-1.304h1.303v2.608h-1.303v2.608H59.11v1.304h-1.304v2.608h2.608v-1.304h1.303v-1.304h1.304V18.65h1.304v-3.912h1.304v3.912h1.304v1.304h3.912v1.304h-2.608v2.608h3.912v-1.304h1.303v-2.608h3.912v2.608h1.304v1.304h2.608v-2.608h-1.304v-1.304h-1.304V18.65h1.304v-3.912h1.304v-2.607h-2.608v-1.304h1.304V9.523h-2.608v1.304H76.06V9.523h-1.304V8.219h6.52V5.61h-7.824V4.307h7.824V1.7h-7.824V.396ZM72.15 9.523h1.303v1.304H72.15V9.523Zm-7.824-5.216h6.52v1.304h-6.52V4.307Zm2.608 7.824h-2.608V8.219h6.52v1.304H69.54v1.304h-1.304V9.523h-2.608v1.304h1.304v1.304Zm10.431 5.215h-9.127v-1.304h9.127v1.304Zm0-3.912v1.304h-9.127v-1.303h9.127Zm25.739 7.828H101.8v-2.608h-1.304v-1.303h1.304v-5.216h-1.304v-1.304h-6.52v1.304h-1.304v6.52h2.608v-2.608h3.912v1.303h-2.608v1.304H95.28v3.912h1.304v1.304h7.823v-1.304h1.304v-2.608h-2.607v1.304Zm-3.912 0h-1.304v-2.608h1.304v2.608Zm0-6.52H95.28V13.44h3.912v1.304ZM50.321 5.611h-7.823V1.7h-1.304V.396h-6.52v2.607h5.216v2.608h-7.823v1.304h-1.304V23.87h2.607V8.22h6.52v2.608h-1.304v2.607h-1.304v1.304h-1.304v1.304h-1.304v2.608h2.608v-1.304h1.304v-1.304h1.304v-2.608h2.608v2.608h1.304v1.304h1.304v1.304h2.607v-2.608H46.41v-1.304h-1.304v-1.303h-1.304v-2.608h-1.304V8.219h6.52v13.044h-3.912v2.607h5.215v-1.303h1.304V6.915h-1.304V5.611ZM21.975.396h-2.608v3.911h-7.824v2.608h7.824v14.348H14.15v2.607h6.52v-1.303h1.304V6.915h2.612V4.307h-2.612V.396Z" fill="#368AA5"/><path d="M16.759 12.13h-1.304V9.522h-2.608v2.608h1.304v2.608h1.304v2.608h2.608v-2.608h-1.304V12.13Zm47.566 9.133h-1.303v2.607h2.607v-1.303h1.304v-2.613h-2.608v1.309ZM10.24 10.827H8.936V9.523H7.632V6.915h2.608V4.307H7.632V.396H5.024v3.911H1.112v2.608h3.912v1.304H3.72v2.608H2.416v2.607H1.112v2.608H3.72v-2.608h1.304V23.87h2.608V13.434h1.304v1.304h2.607v-2.607H10.24v-1.304Zm83.736 9.127h-2.608v3.912h2.608v-3.912Z" fill="#368AA5"/><path d="M101.8.396h-2.608v1.303h-9.127v1.304H88.76v1.304h-1.304V1.7h-1.304v3.912h1.304V8.22h1.304v2.608h-1.304v2.607h-1.304v3.912h1.304v-2.608h1.304v3.912h-1.304v2.608h-1.304v2.608h2.608v-1.304h1.303v-2.608h1.304V4.307h6.52v1.304H95.28v1.304h-2.608v2.608h3.912V8.219h1.304v1.304h6.519V8.219h1.304v1.304h3.912V6.915h-2.608V5.611h-2.608V4.307h5.216V1.7H101.8V.396Zm1.303 5.215v1.304h-3.911V5.611h3.911Zm59.302 7.823h-2.608V12.13h3.912v-1.304h1.303V3.003h-1.303V1.7h-18.255v1.304h-1.304v7.823h1.304v1.304h3.912v1.304h-2.608v1.304h-3.912v2.608h3.912v-1.304h1.304v3.912h-1.304v1.304h-2.608v2.608h3.912v-1.304h1.304v-1.304h1.304v-6.52h1.303v-1.304h1.304V12.13h2.608v1.304h1.304v1.304h1.304v9.128h2.608v-7.824h1.304v1.304h3.911v-2.608h-3.911v-1.304Zm-9.128-3.911h-6.519V8.219h6.519v1.304Zm0-3.912h-6.519V4.307h6.519v1.304Zm2.608-1.304h6.52v1.304h-6.52V4.307Zm0 5.216V8.219h6.52v1.304h-6.52ZM134.058.396h-2.608V5.61h-5.215V.396h-2.608V5.61h-3.912V1.7h-2.608v3.912H114.5V8.22h2.607v14.343h1.304v1.304h18.255v-2.608h-16.951V8.218h3.912v7.824h1.304v1.304h7.823v-1.304h1.304V8.22h3.912V5.61h-3.912V.396Zm-2.608 14.342h-5.215v-6.52h5.215v6.52Z" fill="#368AA5"/><path d="M105.711 10.827h-2.607v5.215h2.607v-5.215Zm1.304 5.215h-1.304v2.608h2.608v-1.304h1.304v-6.52h-2.608v5.216Zm2.608 3.912h-2.608v3.912h2.608v-3.912Z" fill="#368AA5"/><path d="M24.983 3.912h-1.474V.739h-1.134V0H18.97v3.912h-7.823v.739h-.508v-.74H9.166V.74H8.032V0H4.628v3.912H.717v3.403H1.85v.739h1.474v2.382H2.02v2.608H.717v3.403H1.85v.739h2.777v7.09h1.135v.738h3.403v-9.866h.509v.739h3.403V12.54h.508v.739h.17v1.869h1.134v.739h.17v1.869h1.134v.739h2.777v2.381h-5.215v3.404h1.134v.739h7.315v-1.304h1.304V8.049h2.608V4.646h-1.134v-.739.005ZM11.548 14.738H8.94v-1.304H7.636v10.432H5.03V13.434H3.725v2.608H1.112v-2.608h1.304v-2.607H3.72V8.219h1.304V6.915H1.112V4.307h3.912V.395h2.608v3.912h2.607v2.608H7.632v2.608h1.304v1.304h1.303v1.303h1.304v2.608h.005Zm6.52 2.608H15.46v-2.608h-1.304v-2.607h-1.304V9.522h2.608v2.607h1.304v2.608h1.304v2.608Zm.395-2.269v-.739h-.17V12.47H17.16v-.739h-.17V9.862h-1.134v-.74h-3.403v3.347h-.508v-.739h-.17v-.57H10.64v-.738h-.17v-.565H9.336v-.74h-.17V8.04h2.608V7.3h.508v.74h6.69v7.028h-.509v.01Zm6.124-8.162H21.98v15.647h-1.304v1.304h-6.52v-2.608h5.217V6.915h-7.824V4.307h7.824V.395h2.607v3.912h2.608v2.608Zm27.439-.395h-.17v-.565h-1.134v-.74h-6.69V2.039h-1.134V1.3h-.17V.734h-1.134V0H34.28v3.403h1.135v.74h4.081V5.22h-7.823v1.304h-1.304V24.27h1.134v.74h3.403v-5.955h.509v.739h3.403V18.49h1.304v-1.304h1.304v-2.608h.683v1.869h1.134v.739h.17v.57h1.134v.739h.17v.564h1.134v.74h2.777v1.078h-3.912v3.403h1.135v.739h6.01v-1.304h1.305V7.259H52.03v-.74h-.004Zm-3.912 9.866v-.74h-.17v-.564H46.81v-.74h-.17v-.569h-1.134v-.739h-.17v-1.869h-1.134v-.738h-.17V9.349h4.59v7.027h-.508v.01Zm3.516 6.18h-1.304v1.304h-5.215v-2.608h3.911V8.223h-6.52v2.608h1.305v2.608h1.304v1.304h1.304v1.304h1.303v2.608h-2.607V17.35h-1.304v-1.304h-1.304v-2.608h-2.608v2.608h-1.304v1.304h-1.304v1.304H34.68v-2.608h1.304v-1.304h1.304v-1.304h1.304V10.83h1.304V8.224h-6.52V23.87h-2.607V6.915h1.304V5.61h7.823V3.003H34.68V.395h6.52V1.7h1.304v3.912h7.823v1.304h1.304v15.651Zm-16.725-6.914V9.358h4.59v1.078h-1.304v2.608h-1.304v1.304h-1.304v1.303h-.682.004ZM81.676 1.304h-6.689V.739h-1.134V0h-3.404v1.304h-7.823v1.304h-.682v-.565h-1.135v-.74h-3.403v3.404h1.134v.74h.17v3.172h1.134v.739h1.474v1.078h-1.304v1.304H58.71v1.304h-1.304v3.403h1.134v.739h1.474v2.382H58.71v1.304h-1.304v3.403h1.134v.74h3.404V23.71h.682v.57h1.135v.739h3.403v-1.304h.682v.57h1.135v.738h4.707V23.72h1.304v-2.608h1.982v1.869h1.134v.739h.17v.57h1.134v.738h3.403v-3.403h-1.134v-.74h-.17v-.569h-1.134v-.508h1.134v-3.912h1.304v-3.403h-1.134v-.74h-.17V9.886h-1.134v-.508h2.438V5.973h-1.134v-.508h1.134V2.062h-1.134v-.74l-.005-.018Zm-.395 3.003h-7.824v1.304h7.824v2.608h-6.52v1.304h1.304v1.304h1.304V9.523h2.608v1.304h-1.304v1.303h2.608v2.608h-1.304v3.912h-1.304v1.304h1.304v1.304h1.304v2.608h-2.608v-1.304h-1.304v-2.608h-3.912v2.608h-1.303v1.304h-3.912v-2.608h2.608v-1.304h-3.912v2.608h-1.304v1.304h-2.608v-2.608h-1.304v1.304h-1.304v1.304h-2.607v-2.608h1.303v-1.304h1.304v-2.608h1.304v-2.608h-1.304v1.304h-2.607v-2.608h1.303v-1.303h1.304v-1.304h1.304V8.219h-2.608V4.307h-1.303V1.7h2.607v2.608h1.304V3.003h1.304V1.7h7.824V.395h2.607V1.7h7.824v2.608Zm-4.307 5.046v.509h-.509v-.509h.509Z" fill="#231815"/><path d="M65.63 18.65v-3.912h-1.305v3.912h-1.303v2.608h1.303v-1.304h2.608V18.65H65.63Zm.738.909h-.508v-.509h.508v.508Zm7.085-10.037h-1.304v1.304h1.304V9.522Zm3.911 3.913h-9.127v1.303h9.127v-1.303Zm-6.519-9.128h-6.52v1.304h6.52V4.307ZM65.63 9.523h2.607v1.303h1.304V9.523h1.304V8.219h-6.52v3.911h2.608v-1.304h-1.304V9.523Zm3.002-.17h.509v.509h-.509v-.509Zm-2.777 1.869h.508v.508h-.508v-.508Zm11.509 4.82h-9.127v1.304h9.127v-1.304Zm25.74-10.432h-3.912v1.305h3.912V5.61Z" fill="#231815"/><path d="M110.023 1.304h-6.689V.739h-1.135V0h-3.403v1.304H89.67v1.304h-.683v-.565h-1.134v-.74h-2.1v4.708h1.135v.74h.17v1.868h1.134v.739h.17v1.078h-1.305v2.608h-1.304v4.707h1.135v.739h.17v2.382h-1.305v3.403h1.135v.74h3.403V23.71h.683v.57h1.134v.739h3.403v-2.043h.509v.739h.17v.57h1.134v.738h8.619V23.72h.682v.57h1.135v.738h3.403v-4.707h-1.134v-.739h-.17v-1.078h1.304v-7.315h-1.134v-.508h1.134V7.277h-1.134v-.739h-1.474v-.565h-1.134v-.508h3.742V2.062h-1.134v-.74l-.005-.018ZM94.884 20.298h-.508v-.509h.508v.508Zm10.827 2.268h-1.304v1.304h-7.823v-1.304H95.28v-3.911h-2.608v-6.52h1.304v-1.304h6.519v1.304h1.304v5.216h-1.304v1.304h1.304v2.607h1.304V19.96h2.608v2.607ZM93.406 19.05v.508h-.508v-.508h.508Zm.17-8.393v1.078h-.683V9.923h.509v.739h.17l.004-.005Zm4.538-.226v-.508h.508v.508h-.508Zm3.911 1.304v-.57h-1.134v-.508h1.812v1.812h-.508v-.739h-.17v.005Zm4.595 8.563h-.509v-.74h-2.777v-.564h-1.135v-.509h1.135v-2.043h.508v.74h1.474v1.868h1.134v.74h.17v.508Zm3.003 3.572h-2.608v-3.91h2.608v3.911Zm0-6.52h-1.304v1.305h-2.608v-2.608h-2.608V10.83h2.608v5.216h1.304V10.83h2.608v6.52Zm-3.003-6.688v.508h-.509v-.739h-.169v-.508h.508v.739h.17Zm3.003-6.35h-5.216v1.304h2.608V6.92h2.608v2.607h-3.912V8.224h-1.304v1.303h-6.52V8.224h-1.303v1.303h-3.912V6.92h2.608V5.616h2.608V4.312h-6.52v15.647h2.608v3.911h-2.608v-3.91h-1.304v2.607H88.76v1.304h-2.607v-2.608h1.303v-2.607h1.304v-3.912h-1.303v2.608h-1.304V13.44h1.303v-2.608h1.304V8.224h-1.303V5.615h-1.304V1.699h1.303v2.608h1.304V3.003h1.304V1.7h9.128V.395h2.607V1.7h7.824v2.613ZM92.898 6.524V5.446h1.986v1.078h-1.986Z" fill="#231815"/><path d="M96.584 17.346h2.608v-1.304H95.28v2.608h1.304v-1.304Zm2.608-3.911H95.28v1.303h3.912v-1.303Zm0 5.215h-1.304v2.608h1.304V18.65Zm27.042-3.912h5.216v-6.52h-5.216v6.52Zm1.53-5.385h3.291v4.99h-3.291v-4.99Z" fill="#231815"/><path d="M138.37 5.216h-2.777V.739h-1.135V0h-3.403v5.216h-3.291V.739h-1.134V0h-3.403v5.216h-1.987V2.038h-1.134V1.3h-3.403v3.912h-2.608v3.403h1.134v.74h1.474v13.608h1.134v.739h.169v.57h1.135v.738h19.05v-3.403h-1.134v-.739H121.24V9.357h1.987v7.085h1.134v.74h.17v.569h1.134v.739h8.619v-1.304h1.304V9.363h3.912V5.959h-1.135V5.22l.005-.004Zm-.396 3.003h-3.911v7.823h-1.304v1.304h-7.824v-1.304h-1.303V8.22h-3.912v13.039h16.951v2.608h-18.255v-1.304h-1.304V8.219h-2.608V5.61h2.608V1.699h2.608v3.912h3.912V.395h2.607v5.216h5.216V.395h2.608v5.216h3.911v2.608Zm24.431 0h-6.52v1.304h6.52V8.219Zm0-3.912h-6.52v1.304h6.52V4.307Z" fill="#231815"/><path d="M166.717 14.343h-2.777v-.57h-1.135v-.508h2.438V11.96h1.304V3.347h-1.134v-.74h-.17v-.564h-1.134v-.74h-19.05v1.305h-1.304v8.619h1.135v.739h.169v.564h1.134v.74h.17v1.077h-3.912v3.404h1.135v.739h4.081v1.078h-1.304v1.304h-2.608v3.403h1.135v.739h4.707V23.71h1.304v-1.304h1.304v-6.52h1.303v-1.303h1.304v-1.304h.683v.57h1.134v.739h.17v.564h1.134v.74h.17v8.392h1.134v.74h3.403v-7.26h.509v.74h4.707V15.1h-1.134v-.739l-.005-.018Zm-.396 3.003h-3.911v-1.304h-1.304v7.823h-2.608v-9.127h-1.304v-1.304h-1.304V12.13h-2.608v1.304h-1.303v1.304h-1.304v6.52h-1.304v1.303h-1.304v1.304h-3.912v-2.607h2.608v-1.304h1.304v-3.912h-1.304v1.304h-3.912v-2.608h3.912v-1.304h2.608V12.13h-3.912v-1.304h-1.304V3.003h1.304V1.699h18.255v1.304h1.304v7.823h-1.304v1.304h-3.912v1.304h2.608v1.304h3.911v2.608Z" fill="#231815"/><path d="M153.277 8.219h-6.519v1.304h6.519V8.219Zm0-3.912h-6.519v1.304h6.519V4.307Z" fill="#231815"/></g><defs><clipPath id="clip0_799_32619"><path fill="#fff" transform="translate(.717)" d="M0 0h167.13v25H0z"/></clipPath></defs></svg>