<svg fill="none" xmlns="http://www.w3.org/2000/svg" viewBox="0 0 168 25"><g clip-path="url(#clip0_799_32959)"><path d="M76.058 8.219H63.019v1.304h13.039V8.219Zm-65.821 2.608H8.933V9.523H7.63V6.915h2.608V4.307H7.63V.396H5.022v3.911H1.11v2.608h3.912v1.304H3.718v2.608H2.414v2.607H1.11v2.608h2.608v-2.608h1.304V23.87h2.607V13.434h1.304v1.304h2.608v-2.607h-1.304v-1.304ZM92.67 1.7h-5.216v1.303H86.15v20.863h2.608v-3.912h3.912V18.65h1.304v-6.52H92.67V8.22h1.304V3.003H92.67V1.7Zm-1.304 6.519h-1.304v3.911h1.304v5.216h-2.608V4.307h2.608v3.912Z" fill="#E68169"/><path d="M78.666 1.7H60.41v1.303h-1.304v6.52h2.608V4.307h15.647v5.216h2.608v-6.52h-1.304V1.7ZM21.972.396h-2.608v3.911h-7.823v2.608h7.823v14.348H14.15v2.607h6.52v-1.303h1.303V6.915h2.613V4.307h-2.613V.396Z" fill="#E68169"/><path d="M16.756 12.13h-1.303V9.522h-2.608v2.608h1.304v2.608h1.304v2.608h2.607v-2.608h-1.304V12.13Zm59.302-6.52H63.019v1.305h13.039V5.61Zm1.304 5.217H61.715v1.304h-1.304v10.43h1.304v1.305h15.647v-1.304h1.304V12.13h-1.304v-1.304Zm-1.304 10.43h-13.04v-1.303h13.04v1.304Zm0-3.91h-13.04v-1.305h13.04v1.304Zm0-2.609h-13.04v-1.303h13.04v1.303ZM41.192 1.7h-7.824v1.303h-1.304V8.22H30.76v2.607h-1.304v2.608h2.608V12.13h1.304v-1.304h1.304v1.304h1.304v1.304h1.304v1.304h-1.304v2.608h-1.304v1.304h-1.304v1.304h-1.304v1.304h-2.608v2.608h3.912v-1.304h1.304v-1.304h1.304v-1.304h1.304V18.65h1.304v-2.608h1.304v-2.608h1.304V9.523h1.303v-6.52h-1.303V1.7Zm-1.304 6.519h-1.304v2.607H37.28V9.523h-1.304V8.219h-1.304V4.307h5.216v3.912Zm11.735 2.608h-1.304V9.523h-1.304V8.219h-1.304V.396h-2.608V23.87h2.608V12.13h1.304v1.304h1.304v1.304h2.608v-2.607h-1.304v-1.304Zm55.39-5.217h-9.128v2.61h9.128V5.61Zm1.304 3.912h-3.912v1.304h-1.304v3.912h1.304v1.304h3.912v-1.304h1.304v-3.912h-1.304V9.522Zm-1.304 3.912h-1.304V12.13h1.304v1.304Zm55.389 0h-2.608V12.13h3.912v-1.304h1.304V3.003h-1.304V1.7h-18.254v1.304h-1.304v7.823h1.304v1.304h3.911v1.304h-2.608v1.304h-3.911v2.608h3.911v-1.304h1.304v3.912h-1.304v1.304h-2.607v2.608h3.911v-1.304h1.304v-1.304h1.304v-6.52h1.304v-1.304h1.304V12.13h2.608v1.304h1.304v1.304h1.304v9.128h2.607v-7.824h1.304v1.304h3.912v-2.608h-3.912v-1.304Zm-9.127-3.911h-6.52V8.219h6.52v1.304Zm0-3.912h-6.52V4.307h6.52v1.304Zm2.608-1.304h6.519v1.304h-6.519V4.307Zm0 5.216V8.219h6.519v1.304h-6.519Z" fill="#E68169"/><path d="M107.012 1.7h-2.607V.395h-3.912v1.303h-2.608v1.304h-2.608V5.61h2.608V4.307h2.608V3.003h3.912v1.304h2.607v1.304h2.608V3.003h-2.608V1.7ZM134.056.396h-2.608V5.61h-5.216V.396h-2.608V5.61h-3.911V1.7h-2.608v3.912h-2.608V8.22h2.608v14.343h1.304v1.304h18.254v-2.608h-16.95V8.218h3.911v7.824h1.304v1.304h7.824v-1.304h1.304V8.22h3.911V5.61h-3.911V.396Zm-2.608 14.342h-5.216v-6.52h5.216v6.52Zm-24.436 2.608h-2.607v2.608h-1.304v1.309h-1.304v-1.309h-1.304v-2.608h-2.608v2.608h-1.304v1.309h-1.304v2.607h2.608v-2.607h2.608v2.607h3.912v-2.607h2.607v2.607h2.608v-2.607h-1.304v-1.309h-1.304v-2.608Zm-6.519-2.608h1.304v-3.912h-1.304V9.522h-3.912v1.304h-1.304v3.912h1.304v1.304h3.912v-1.304Zm-1.304-1.304h-1.304V12.13h1.304v1.304Z" fill="#E68169"/><path d="M24.98 3.912h-1.473V.739h-1.135V0H18.97v3.912h-7.824v.739h-.508v-.74H9.164V.74H8.029V0H4.626v3.912H.714v3.403H1.85v.739h1.473v2.382H2.018v2.608H.714v3.403H1.85v.739h2.777v7.09H5.76v.738h3.404v-9.866h.508v.739h3.403V12.54h.509v.739h.17v1.869h1.134v.739h.17v1.869h1.134v.739h2.777v2.381h-5.216v3.404h1.135v.739h7.315v-1.304h1.304V8.049h2.607V4.646H24.98v-.739.005ZM11.546 14.738H8.938v-1.304H7.634v10.432H5.026V13.434H3.722v2.608H1.11v-2.608h1.304v-2.607h1.304V8.219H5.02V6.915H1.11V4.307h3.91V.395h2.61v3.912h2.608v2.608H7.629v2.608h1.304v1.304h1.304v1.303h1.304v2.608h.005Zm6.52 2.608h-2.609v-2.608h-1.304v-2.607H12.85V9.522h2.607v2.607h1.304v2.608h1.304v2.608Zm.395-2.269v-.739h-.17V12.47h-1.134v-.739h-.17V9.862h-1.134v-.74h-3.404v3.347h-.508v-.739h-.17v-.57h-1.134v-.738h-.17v-.565H9.334v-.74h-.17V8.04h2.609V7.3h.508v.74h6.689v7.028h-.509v.01Zm6.124-8.162h-2.608v15.647h-1.304v1.304h-6.52v-2.608h5.216V6.915h-7.823V4.307h7.823V.395h2.608v3.912h2.608v2.608Zm10.087 1.304h1.304v1.304h1.304v1.304h1.304V8.219h1.304V4.307h-5.216V8.22Zm1.53-2.777h3.29v2.381H38.19v2.043h-.509v-.739h-.17v-.565h-1.134v-.739h-.17V5.442h-.004Zm17.125 6.293h-.17v-.57h-1.134v-.738h-.17v-.565H50.72v-.74h-.17v-.564h-1.134v-.74h-.17V.74h-1.134V0h-3.403v24.266h1.134v.739h3.404v-11.17h.508v.738h.17v.565h1.134v.74h3.403v-3.404h-1.134v-.739Zm-.395 3.003h-2.608v-1.304H49.02v-1.303h-1.304v11.735h-2.608V.396h2.608v7.823h1.304v1.304h1.304v1.304h1.304v1.303h1.303v2.608Z" fill="#231815"/><path d="M42.895 2.608h-.169v-.565h-1.134v-.74h-8.62v1.305H31.67v5.215h-1.304v2.608H29.06v3.403h1.134v.74H33.6v-1.305h1.304v-.739h.508v.74h.17v.569h1.134v.508H35.58v2.608h-1.303v1.304h-1.304v1.304h-1.304v1.304H29.06v3.403h1.134v.74h4.708v-1.305h1.304v-1.304h1.303v-1.303h1.304v-1.304h1.304v-2.608h1.304v-2.608h1.304v-3.912h1.304v-7.32h-1.135v-.738ZM42.5 9.523h-1.304v3.911h-1.304v2.608h-1.304v2.608h-1.303v1.304H35.98v1.304h-1.304v1.303h-1.304v1.304H29.46v-2.607h2.608v-1.304h1.304V18.65h1.304v-1.304h1.304v-2.608h1.303v-1.304H35.98V12.13h-1.304v-1.304h-1.304v1.304h-1.304v1.304H29.46v-2.608h1.304V8.22h1.304V3.003h1.304V1.699h7.823v1.304H42.5v6.52Zm33.558 3.912H63.019v1.303h13.039v-1.303Z" fill="#231815"/><path d="M80.37 2.608h-.17v-.565h-1.134v-.74h-19.05v1.305h-1.304v7.315h1.134v.739h1.474v1.078h-1.304v11.226h1.134v.74h.17v.569h1.134v.739h16.442V23.71H80.2V12.483h-1.134v-.739h-.17v-.57h-1.134v-.738h-.17v-.509h.509v.74h3.403v-7.32H80.37v-.74Zm-1.7 9.522v10.431h-1.303v1.304H61.72v-1.303h-1.304V12.13h1.304v-1.304h15.647v1.304h1.303ZM63.025 6.915V5.61h13.039v1.304h-13.04Zm.739.395v.508h-.509V7.31h.509Zm12.304.909v1.304h-13.04V8.219h13.04ZM63.763 9.918v.508h-.509v-.508h.509ZM76.97 8.049v.509h-.508v-.509h.508Zm-.508-2.1v-.508h.508v.509h-.508Zm3.516 3.574H77.37V4.307H61.725v5.216h-2.608v-6.52h1.304V1.699h18.254v1.304h1.304v6.52Z" fill="#231815"/><path d="M76.058 19.954H63.019v1.304h13.039v-1.304Zm0-3.912H63.019v1.304h13.039v-1.304Zm30.954-3.912h-1.304v1.304h1.304V12.13Z" fill="#231815"/><path d="M110.021 2.608h-1.474v-.565h-1.134v-.74h-1.474V.74h-1.134V0h-4.707v1.304H97.49v1.304h-2.608v.739h-.508v-.74h-.17v-.564H93.07v-.74h-6.011v1.305h-1.304v21.658h1.134v.739h3.404v-3.912h3.911v-1.304h1.304v-4.65h.509v.738h.17v.565h1.133v.74h.17v2.381h-1.304v1.304h-1.304v3.403h1.135v.74h3.403v-2.608h.682v1.868h1.135v.74h4.707v-2.608h.683v1.868h1.134v.74h3.403v-3.404h-1.134v-.739h-.169v-.57h-1.135v-.739h-.169V17.69h-1.135v-.509h2.439v-1.304h1.303V11.17h-1.134v-.739h-.169v-.565h-1.135v-.739h-.169V6.745h2.607V3.342h-1.134v-.739l-.009.005Zm-16.043 5.61h-1.303v3.912h1.303v6.52h-1.303v1.304h-3.912v3.912h-2.608V3.003h1.304V1.7h5.215v1.304h1.304V8.22Zm.909 4.251h-.508v-.739h-.17V9.35h1.304V6.002h.508v.739h1.474v1.868h1.134v.509h-2.438v1.304h-1.304v2.047Zm1.7 3.573v-1.304h-1.305v-3.911h1.304V9.523h3.912v1.304h1.304v3.911h-1.304v1.304h-3.912Zm7.427-.17v.566h1.135v.508h-1.135v2.608h-1.304v.739h-.508v-.74h-.17v-1.868h-1.134v-.508h1.134v-1.304h1.304v-.74h.509v.74h.169Zm-1.304-4.707h-.508v-.738h-.17v-.565h-1.134v-.509h3.116v1.078h-1.304v.74-.005Zm5.611 8.789v1.304h1.304v2.608h-2.608v-2.608h-2.607v2.608h-3.912v-2.608H97.89v2.608h-2.608v-2.608h1.304v-1.304h1.304v-2.608h2.608v2.608h1.304v1.304h1.304v-1.304h1.304v-2.608h2.607v2.608h1.304Zm1.304-9.127v3.911h-1.304v1.304h-3.911v-1.304h-1.304v-3.911h1.304V9.523h3.911v1.304h1.304Zm0-5.216h-2.608v2.608H97.89V5.61h-2.608V3.003h2.608V1.7h2.608V.395h3.912V1.7h2.607v1.304h2.608v2.608Z" fill="#231815"/><path d="M104.405 4.307V3.003h-3.912v1.304h-2.608v1.304h9.128V4.307h-2.608Zm.739.909h-3.116V4.138h1.986v.57h1.134v.508h-.004ZM99.19 12.13h-1.305v1.304h1.304V12.13Zm-10.432 5.216h2.608V12.13h-1.304V8.22h1.304V4.307h-2.608v13.04Zm1.53-4.82h.508v.739h.17v3.686h-.678v-4.425Zm0-7.084h.678v2.381h-.678V5.442Zm48.079-.226h-2.777V.739h-1.134V0h-3.404v5.216h-3.29V.739h-1.134V0h-3.404v5.216h-1.986V2.038h-1.135V1.3H116.7v3.912h-2.608v3.403h1.135v.74h1.473v13.608h1.135v.739h.169v.57h1.134v.738h19.05v-3.403h-1.134v-.739h-15.816V9.357h1.986v7.085h1.135v.74h.169v.569h1.135v.739h8.619v-1.304h1.303V9.363h3.912V5.959h-1.134V5.22l.004-.004Zm-.395 3.003h-3.912v7.823h-1.304v1.304h-7.823v-1.304h-1.304V8.22h-3.912v13.039h16.951v2.608h-18.254v-1.304h-1.304V8.219h-2.608V5.61h2.608V1.699h2.607v3.912h3.912V.395h2.608v5.216h5.215V.395h2.608v5.216h3.912v2.608Z" fill="#231815"/><path d="M126.232 14.738h5.216v-6.52h-5.216v6.52Zm1.53-5.385h3.29v4.99h-3.29v-4.99Zm38.952 4.99h-2.777v-.57h-1.135v-.508h2.439V11.96h1.303V3.347h-1.134v-.74h-.169v-.564h-1.135v-.74h-19.05v1.305h-1.304v8.619h1.135v.739h.169v.564h1.134v.74h.17v1.077h-3.912v3.404h1.135v.739h4.081v1.078h-1.304v1.304h-2.608v3.403h1.135v.739h4.707V23.71h1.304v-1.304h1.304v-6.52h1.303v-1.303h1.304v-1.304h.683v.57h1.134v.739h.17v.564h1.134v.74h.17v8.392h1.134v.74h3.403v-7.26h.509v.74h4.707V15.1h-1.134v-.739l-.005-.018Zm-.395 3.003h-3.912v-1.304h-1.304v7.823h-2.608v-9.127h-1.304v-1.304h-1.304V12.13h-2.607v1.304h-1.304v1.304h-1.304v6.52h-1.304v1.303h-1.304v1.304h-3.912v-2.607h2.608v-1.304h1.304v-3.912h-1.304v1.304h-3.912v-2.608h3.912v-1.304h2.608V12.13h-3.912v-1.304h-1.304V3.003h1.304V1.699h18.255v1.304h1.304v7.823h-1.304v1.304h-3.912v1.304h2.608v1.304h3.912v2.608Z" fill="#231815"/><path d="M162.402 8.219h-6.519v1.304h6.519V8.219Zm0-3.912h-6.519v1.304h6.519V4.307Zm-9.127 3.912h-6.52v1.304h6.52V8.219Zm0-3.912h-6.52v1.304h6.52V4.307Z" fill="#231815"/></g><defs><clipPath id="clip0_799_32959"><path fill="#fff" transform="translate(.714)" d="M0 0h167.134v25H0z"/></clipPath></defs></svg>