<svg fill="none" xmlns="http://www.w3.org/2000/svg" viewBox="0 0 140 25"><g clip-path="url(#clip0_799_32997)"><path d="M78.84 10.827h-2.61v2.607h1.304v2.608h1.304v3.912h2.608v-5.216h-1.304v-2.607H78.84v-1.304Zm-10.432 5.215h1.304v-5.215h-2.608v3.911H65.8v2.608h-1.304v2.608h2.608V18.65h1.304v-2.608ZM95.45 18.65h-1.303v-1.304h-2.608v2.608h1.304v1.309h1.304v1.303h-2.608v1.304h3.912v-1.303h1.304v-1.304h1.303v-3.917h-2.607v1.304ZM64.496.396h-2.608v3.911h-1.304v2.608h-1.303v2.608h-1.304v2.608h2.607v11.74h2.608V4.306h1.304V.396Z" fill="#E2CCAF"/><path d="M80.143 3.003h-9.127V.396h-2.608v2.607h-1.304v2.608H65.8v1.304h-1.304v2.608h2.608V8.219h1.304V6.915h1.304V5.611h2.608v15.652h-3.912v2.607h5.215v-1.303h1.304V5.61h3.912v1.304h-1.304v2.608h2.608V6.915h1.304V4.307h-1.304V3.003ZM40.061 6.915h10.431V4.307h-2.608V3.003h1.304V.396H46.58v1.303h-1.303v2.608h-3.912V3.003h1.304V.396H40.06v2.607h-1.304v1.304h-1.304V1.7H36.15V.396h-2.607v2.607h1.303v1.304h-2.607v2.608h5.215v1.304H29.63v2.608h5.216v1.304h-2.608v1.303H29.63v2.608h2.608v-1.304h1.304v7.824h1.303v1.304h13.04v-1.304h1.303v-7.824h1.304v1.304H53.1v-2.608h-2.608v-1.303h-2.608v-1.304H53.1V8.219H40.061V6.915Zm6.52 14.343H36.148v-1.304H46.58v1.304Zm0-2.608H36.148v-1.304H46.58v1.304Zm0-2.608H36.148v-1.304H46.58v1.304Zm-1.304-5.215v1.304h-7.824v-1.304h7.824ZM23.45 3.003h-1.304V1.7H10.41v1.304H9.108v7.823H7.803v9.128h2.608V12.13h3.911v2.608h-2.608v2.608h3.912v-1.304h2.608v1.304h1.304v2.608h3.912V18.65h1.303v-7.823H23.45V3.002Zm-9.128 6.52h-2.608V8.219h2.608v1.304Zm0-3.912h-2.608V4.307h2.608v1.304Zm2.608-1.304h3.912v1.304H16.93V4.307Zm1.304 9.127H16.93V12.13h1.304v1.304ZM16.93 9.523V8.219h3.912v1.304H16.93Zm5.216 7.823h-1.304V12.13h1.304v5.216Z" fill="#E2CCAF"/><path d="M6.499 13.434H5.195V12.13H1.283v2.608h2.608v5.216H2.587v1.308H1.283v2.608h2.608v-1.304h2.608v1.304h18.26v-2.608H7.802v-1.308H6.499v-6.52Zm119.906-6.519h9.128V4.307h-9.128V.396h-2.607v9.127h-9.128v2.608h9.128v11.74h2.607v-7.829h1.304v1.304h2.608v1.304h2.608v1.304h2.608v-2.608h-1.304v-1.304h-2.608v-1.304h-2.608v-1.303h-2.608V12.13h11.736V9.523h-11.736V6.915ZM3.891 4.307h2.608V1.7H3.89V.396H1.283v2.607h2.608v1.304Zm0 1.303H1.283v2.61h2.608v1.304h2.608V6.915H3.89V5.61Zm101.991 14.344v-2.608h-2.608v1.304h-1.303v-1.304h-2.608v6.524h2.608v-2.607h2.607v-1.309h1.304Z" fill="#E2CCAF"/><path d="M108.49 1.7h-7.823v1.303h-1.304V8.22h1.304v2.607h-1.304v2.608h1.304v1.304h-1.304v1.304h6.519v-2.608h-1.304v1.304h-1.304v-1.304h1.304V12.13h1.304v-1.304h-2.608v1.304h-1.303v-1.304h1.303V9.523h3.912v11.735h-2.608v2.608h3.912v-1.304h1.304V3.003h-1.304V1.7Zm-1.304 6.519h-5.215V6.915h5.215v1.304Zm0-2.608h-5.215V4.307h5.215v1.304ZM96.755 1.7H88.93v1.303h-1.304v20.863h2.608V9.523h2.608v1.303h-1.304v2.608h1.304v1.304h-1.304v1.304h6.52v-2.608h-1.304v1.304H95.45v-1.304h1.304V12.13h1.304v-1.304H95.45v1.304h-1.304v-1.304h1.304V9.523h1.304V8.219h1.304V3.003h-1.304V1.7ZM95.45 8.218h-5.216V6.915h5.216v1.304Zm0-2.608h-5.216V4.307h5.216v1.304Z" fill="#E2CCAF"/><path d="M2.022 4.138h1.473v.57H4.63v.738h3.403V2.043H6.9v-.74H5.425V.74H4.291V0H.888v3.403h1.134v.74-.005Zm-.739-1.135V.395h2.608V1.7h2.608v2.608H3.89V3.003H1.283Zm13.039 5.216h-2.608v1.304h2.608V8.219Zm6.519-3.912H16.93v1.304h3.911V4.307Z" fill="#231815"/><path d="M25.153 10.431h-.17V3.347H23.85v-.74h-.169v-.564h-1.134v-.74H10.015v1.305H8.711v7.823H8.03V7.258H6.894V6.52H5.421v-.565H4.286v-.739H.888V8.62h1.134v.739h1.473v.565H4.63v.739h2.777v3.116H6.9v-.74h-.17v-.564H5.595v-.74H.888v3.404h1.134v.74h1.473v3.685H2.192v1.304H.888v3.403h1.134v.74h3.403v-1.305h.678v.57h1.135v.739h19.05V21.61h-1.135v-.74h-.17v-1.077h1.305v-8.62h-1.135v-.743Zm-18.65-.908H3.896V8.219H1.283V5.61h2.608v1.304h2.608v2.608h.004Zm18.255 9.127h-1.304v1.304h-3.912v-2.608h-1.304v-1.304h-2.607v1.304h-3.912v-2.608h2.608V12.13h-3.912v7.824H7.807v1.304h16.951v2.607H6.498v-1.303H3.892v1.303H1.283v-2.607h1.304v-1.304h1.304v-5.216H1.283V12.13h3.912v1.304h1.304v6.52h1.304v-9.128h1.303V3.003h1.304V1.699h11.735v1.304h1.304v7.823h1.304v7.824h.005Zm-7.598-.17v-1.304h.683v.57h1.134v.739h.17v1.869h1.134v.508H11.95v-3.116h.508v.739h4.707l-.005-.005Zm-5.215-4.137v-1.078h1.986v1.078h-1.986Z" fill="#231815"/><path d="M14.322 4.307h-2.608v1.304h2.608V4.307Zm7.824 7.823h-1.304v5.216h1.304V12.13Zm-1.305-3.911H16.93v1.304h3.911V8.219Zm-2.607 3.911H16.93v1.304h1.304V12.13Zm28.346 5.216H36.15v1.304h10.43v-1.304Zm0-2.608H36.15v1.304h10.43v-1.304Zm0 5.216H36.15v1.304h10.43v-1.304Z" fill="#231815"/><path d="M53.5 7.823h-1.473V4.646h-1.135v-.739h-.17V.739H49.59V0h-3.404v1.304h-1.304v2.608H44.2V.739h-1.135V0h-3.403v2.608h-.683v-.565h-1.134v-.74h-.17V.74H36.54V0h-3.403v3.403h1.134v.509h-2.438v3.403h1.134v.508h-3.742v3.404h1.134v.739h1.474v1.078h-2.608v3.403h1.134v.739h2.778v5.785h1.134v.74h.17v.569h1.134v.739H49.41v-1.304h1.304v-7.259h.508v.74h3.403v-3.404h-1.134v-.739h-1.474v-.565h-1.134v-.508h3.742V8.577h-1.134v-.74l.01-.014Zm-.395 3.004h-5.216v1.303h2.608v1.304h2.608v2.608h-2.608v-1.304h-1.304v7.824H47.89v1.304H34.85v-1.304h-1.304v-7.824h-1.304v1.304h-2.607v-2.608h2.607v-1.303h2.608v-1.304h-5.215V8.219h7.823V6.915h-5.216V4.307h2.608V3.003h-1.304V.395h2.608V1.7h1.304v2.608h1.304V3.003h1.304V.395h2.608v2.608H41.37v1.304h3.911V1.7h1.304V.395h2.608v2.608H47.89v1.304h2.608v2.608H40.066v1.304h13.039v2.608Z" fill="#231815"/><path d="M45.276 10.827h-7.823v1.304h7.823v-1.304Zm36.571-6.915h-.17v-.565h-1.134v-.74H72.55V.74h-1.134V0h-3.403v2.608h-1.304v2.608h-.683V.739h-1.134V0h-3.404v3.912h-1.303v2.607H58.88v2.608h-1.304v3.404h1.134v.739h1.474v11h1.134v.74h3.403v-4.651h.509v.739h2.777v3.177h1.134v.74h6.011V23.71h1.304v-9.866h.509v.739h.17v1.869h1.134v.739h.169v3.177h1.135v.74h3.403v-6.012h-1.135v-.739h-.17v-1.869h-1.134v-.739h-.169v-.57h-1.135v-.508h2.439V8.063h1.304V4.66h-1.135v-.739l.005-.01Zm-17.12 1.53h.682v1.077h-.682V5.442Zm-1.53 18.424H60.59V12.13h-2.608V9.523h1.304V6.915h1.304V4.307h1.304V.395h2.608v3.912h-1.304v19.559Zm3.912-5.216v1.304H64.5v-2.608h1.304v-2.608h1.304v-3.911h2.608v5.215h-1.304v2.608h-1.304Zm-.396-7.993v3.686H65.41v2.608h-.683V9.923h.508v.739h1.474l.004-.005Zm3.404.508v-.738h-1.474V9.349h1.304V8.045h1.304V6.74h.683v14.117h-3.29V19.78h1.303v-2.608h1.304V11.16h-1.134v.005Zm10.035.966v2.607h1.304v5.216h-2.608v-3.912h-1.303v-2.608H76.24v-2.607h2.608v1.303h1.303Zm-1.868-2.213v.509H76.47V6.74h.678v3.172h1.135v.005Zm3.172-3.003h-1.304v2.608h-2.607V6.915h1.303V5.61h-3.911v16.95h-1.304v1.305h-5.216v-2.608h3.912V5.61h-2.608v1.304h-1.304v1.304h-1.303v1.304h-2.608V6.915h1.304V5.61h1.303V3.003h1.304V.395h2.608v2.608h9.127v1.304h1.304v2.608Zm25.73 0h-5.216v1.304h5.216V6.915Zm-3.912 3.912h-1.304v1.304h1.304v-1.304Zm1.304 2.608h-1.304v1.303h1.304v-1.303ZM95.45 4.307h-5.215v1.304h5.216V4.307Zm1.305 9.128H95.45v1.303h1.304v-1.303Zm10.431-9.128h-5.216v1.304h5.216V4.307Z" fill="#231815"/><path d="M110.194 2.608h-.17v-.565h-1.134v-.74h-8.619v1.305h-1.304v.739h-.508v-.74h-.17v-.564h-1.134v-.74h-8.62v1.305h-1.303v21.657h1.134v.74h3.404v-.74h.508v.74h4.707V23.7h1.304v-1.304h.683v1.869h1.134v.739h3.403v-2.608h.683v1.869h1.134v.739h4.708V23.7h1.304V3.347h-1.135v-.74h-.009Zm-12.13 18.65h-1.305v1.303h-1.304v1.304h-3.911v-1.303h2.608v-1.304h-1.304v-1.304h-1.304v-2.608h2.608v1.304h1.303v-1.304h2.608v3.912Zm-5.612-.17v.565h1.135v.508h-1.813V20.35h.509v.74h.17Zm-.682-4.137v-.509h.508v.509h-.508Zm2.777.738v-.508h.508v.508h-.508Zm3.516-9.466H96.76v1.304h-1.304v1.304h2.608v1.304H96.76v1.304h1.304v2.608h-6.52v-1.304h1.305v-1.304h-1.304V10.83h1.304V9.527H90.24V23.87h-2.608V3.003h1.304V1.699h7.823v1.304h1.304v5.22Zm-6.293 6.124v-.508h.508v.508h-.508Zm7.202 3.347h-.509v-.508h.509v.508Zm0-3.911h-.509v-.509h.509v.509Zm0-2.608h-.509v-.74h-.17V9.359h1.305v-.74h.508v.74h.17v1.078h-1.304v.739Zm10.826 11.396h-1.304v1.304h-3.911v-2.608h-2.608v2.608h-2.608v-6.52h2.608v1.304h1.304v-1.304h2.608v2.608h-1.304v1.304h2.608V9.532h-3.912v1.304h2.608v1.304h-1.304v1.304h1.304v2.607h-6.52v-1.303h1.304v-1.304h-1.304v-2.608h1.304V8.228h-1.304V3.003h1.304V1.699h7.823v1.304h1.304v19.568ZM99.593 16.96v-.509h.508v.509h-.508Zm2.777.739v-.509h.509v.509h-.509Zm4.42-4.42v.508h-.508v-.508h.508Zm-.508-2.1v-.508h.508v.508h-.508Zm.508 6.011v.509h-.508v-.509h.508Zm-7.202-2.833v-.509h.509v.509h-.509Z" fill="#231815"/><path d="M95.45 10.827h-1.303v1.304h1.304v-1.304Zm0-3.912h-5.215v1.304h5.216V6.915Zm43.091 2.212H127.94V8.05h9.127V4.646h-1.134v-.739h-7.993V.739h-1.135V0h-3.403v9.127h-9.127v3.404h1.134v.739h7.993v11h1.135v.74h3.403v-7.26h.508v.74h1.474v.565h1.134v.739h1.473v.57h1.135v.738h3.403V17.7h-1.134v-.739h-.17v-.565h-1.134v-.739h-1.473v-.565h-1.135v-.739h-1.473v-.57h-1.135v-.508h10.262V9.871h-1.134v-.744Zm-.396 3.003H126.41v1.304h2.608v1.304h2.608v1.304h2.607v1.304h1.304v2.608h-2.607V18.65h-2.608v-1.304h-2.608v-1.304h-1.304v7.824h-2.608V12.13h-9.127V9.523h9.127V.395h2.608v3.912h9.127v2.608h-9.127v2.608h11.735v2.607Z" fill="#231815"/></g><defs><clipPath id="clip0_799_32997"><path fill="#fff" transform="translate(.888)" d="M0 0h138.787v25H0z"/></clipPath></defs></svg>