<svg fill="none" xmlns="http://www.w3.org/2000/svg" viewBox="0 0 166 200"><path d="m148.769 189.066-84.475-4.701c-9.914-.555-18.097-10.224-18.297-21.602L43.624 20.736c-.155-9.67 5.5-17.432 13.262-19.228l-42.492 9.78C6.609 13.086.954 20.87 1.109 30.538l2.373 142.028c.2 11.377 8.383 21.047 18.297 21.601l84.475 4.702c1.486.089 2.95-.044 4.325-.355l42.515-9.803a15.469 15.469 0 0 1-4.325.355Z" fill="#FFE600" stroke="#231815" stroke-miterlimit="10"/><path d="M143.491 5.833c9.913.554 18.097 10.224 18.297 21.601l2.373 142.027c.199 11.377-7.696 20.16-17.61 19.605l-84.475-4.701c-9.914-.555-18.097-10.224-18.297-21.602L41.406 20.736c-.2-11.377 7.696-20.16 17.61-19.605l84.475 4.702Z" fill="#fff" stroke="#231815" stroke-miterlimit="10"/><path d="m146.485 189.199-84.476-4.701c-9.913-.555-18.097-10.224-18.252-21.602L41.694 20.803c-.066-4.857 1.33-9.248 3.726-12.62 2.395-3.393 5.788-5.766 9.714-6.653L33.865 6.254c-7.85 1.752-13.573 9.559-13.44 19.273l2.063 142.093c.155 11.378 8.339 21.047 18.252 21.602l84.476 4.701a15.557 15.557 0 0 0 4.214-.332l21.268-4.724a15.55 15.55 0 0 1-4.213.332Z" fill="#fff" stroke="#231815" stroke-miterlimit="10"/><path d="M143.824 5.9c9.913.554 18.075 10.223 18.252 21.6l2.063 142.094c.155 11.378-7.74 20.16-17.654 19.605l-84.475-4.701c-9.914-.555-18.098-10.224-18.253-21.601L41.695 20.803C41.539 9.426 49.435.643 59.348 1.198l84.476 4.701Z" fill="#fff" stroke="#231815" stroke-miterlimit="10"/><path d="M65.665 80.951c5.256-7.222 12.724-14.553 22.308-22.333 1.747-1.227 3.044-2.44 3.959-3.557.641-.995 1.474-.559 2.58 1.336.915 1.894 1.747 3.215 2.58 4.115.737.994-1.01 2.33-5.256 4.006-7.194 2.439-10.785 5.11-10.88 7.998v.45c.464-.45 1.57-.327 3.221.327 3.222 1.226 4.424 2.562 3.59 3.897-.368.45-.736 3.448-1.01 8.667a56.011 56.011 0 0 1 4.52-1.336c2.853-1.103 4.327-1.226 4.518-.558 0 .885 0 2.112.191 3.338 0 1.445-.641 2.44-2.034 2.998-2.307 1.117-4.983 2.221-7.645 3.23-.368 6.445-.273 9.892.464 10.451 2.116-.218 4.246 0 6.089.449 5.256 2.003 7.372 3.666 6.457 4.783-1.474.995-2.853 4.006-4.327 8.558-1.475 4.673-2.212 7.889-2.212 9.783.191.995-.191 1.772-1.01 2.003-5.993-.327-10.512.45-13.365 2.331-.738.327-1.106.109-1.01-.559-.096-.668-.547-1.663-1.38-3.23-3.59-5.886-5.624-12.113-5.801-18.559-.547-.994-.369-1.662.737-1.894.737 0 3.413-.667 8.109-2.112 0-.109.191-.327.56-.559.368-.449.546-2.33.546-5.777V95.64c-.737.218-1.475.45-2.034.56-6.266 1.784-10.048 3.556-11.331 5.218-.738 1.226-1.57-.109-2.854-4.006-1.474-3.884-1.665-5.669-.641-5.328.737.218 6.361-1.117 17.242-4.442 0-.559 0-1.118.096-1.663.177-5.45.177-8.666.095-9.674-.368-.777-.464-1.445-.368-2.004-.929 1.336-2.676 2.78-5.16 4.007-4.329 2.561-7.373 3.897-9.038 4.333-1.57.45-1.748-.11-.465-1.663l-.04-.027Zm21.01 40.893c3.591-4.006 4.246-7.89 2.117-11.896-.737-1.226-2.676-1.444-5.625-.777-3.222.668-5.16 1.554-5.802 2.44-1.379 4.891-.737 8.775 2.034 11.786.191.218 1.297.109 3.222-.218 2.02-.449 3.318-.885 4.055-1.335Zm19.55 3.447c-1.474-8.884-2.034-19.226-1.843-31.122v-2.221c-1.01.327-1.843.667-2.58.994-.915.668-2.116-.558-3.686-3.665-1.665-3.107-.833-4.224 2.485-3.339 1.297-.45 2.58-.885 3.959-1.335 0-6.336.191-10.342.546-12.114.191-2.33.273-4.674.464-7.222-.369-1.553 1.106-1.553 4.519-.218 3.222 1.554 4.423 2.889 3.59 4.006a94.682 94.682 0 0 0-2.034 13.777c3.044-.777 6.266-1.445 9.775-2.33 1.474-.341 2.853-.56 4.423-.777 0-3.775.191-7.44.464-11.228.191-7.89.464-13.45.642-16.556-.369-1.227 1.106-1.554 4.423-.886 3.14.777 4.519 1.553 4.328 2.33-1.748 3.556-3.14 12.005-3.878 25.454h.369c3.413-.218 5.434-.45 6.089-.886.464-.327.915.11 1.474 1.445.369 1.335 1.01 2.22 1.843 2.562.737.558 1.01 2.112 1.01 4.673-.177 2.671-.832 3.557-1.938 2.562-2.853-.886-5.993-1.335-9.311-1.444-.832 15.888-.928 31.899-.368 47.896 0 1.663-.191 2.671-.546 3.339-.546.668-1.379.327-2.581-1.226-3.413-3.898-6.361-7.113-8.846-9.553-.737-1.117-1.201-1.553-1.201-1.117-.191.45-.464.559-.738.327-2.853-.109-5.897.218-9.133.886-1.105.886-1.747-.109-1.747-2.998l.027-.014Zm8.847-18a12.133 12.133 0 0 0-4.615 2.221v9.116c0 1.894.833 2.562 2.403 1.894 1.474-.668 3.222-1.335 5.529-2.003 1.379.341 1.843 1.785 1.474 4.115-.464 2.33-.191 4.115 1.106 5.11 1.297.995 2.307 1.445 3.045.995.546-1.445.737-5.219.737-11.446-.191-6.228-.096-13.886.464-23.11 0-2.222.096-4.225.273-6.337-1.474.11-2.676.218-3.959.45-3.959.558-7.468 1.226-10.321 1.894-.191 2.562-.368 5.45-.464 8.217.928 1.894 2.116 2.67 3.686 2.221 1.106-.109 2.307-.327 3.686-.45.915-.109 1.379.777 1.379 2.889-.178 2.112-.464 3.338-1.01 3.338-1.106.218-2.308.559-3.413.886Z" fill="#FFE600" stroke="#231815"/></svg>