<svg fill="none" xmlns="http://www.w3.org/2000/svg" viewBox="0 0 166 200"><path d="m148.769 189.066-84.475-4.701c-9.914-.555-18.097-10.224-18.297-21.602L43.624 20.736c-.155-9.67 5.5-17.432 13.262-19.228l-42.492 9.78C6.609 13.086.954 20.87 1.109 30.538l2.373 142.028c.2 11.377 8.383 21.047 18.297 21.601l84.475 4.702c1.486.089 2.95-.044 4.325-.355l42.515-9.803a15.469 15.469 0 0 1-4.325.355Z" fill="#E86546" stroke="#231815" stroke-miterlimit="10"/><path d="M143.491 5.833c9.913.554 18.097 10.224 18.297 21.601l2.373 142.027c.199 11.377-7.696 20.16-17.61 19.605l-84.475-4.701c-9.914-.555-18.097-10.224-18.297-21.602L41.406 20.736c-.2-11.377 7.696-20.16 17.61-19.605l84.475 4.702Z" fill="#fff" stroke="#231815" stroke-miterlimit="10"/><path d="m146.485 189.199-84.476-4.701c-9.913-.555-18.097-10.224-18.252-21.602L41.694 20.803c-.066-4.857 1.33-9.248 3.726-12.62 2.395-3.393 5.788-5.766 9.714-6.653L33.865 6.254c-7.85 1.752-13.573 9.559-13.44 19.273l2.063 142.093c.155 11.378 8.339 21.047 18.252 21.602l84.476 4.701a15.557 15.557 0 0 0 4.214-.332l21.268-4.724a15.55 15.55 0 0 1-4.213.332Z" fill="#fff" stroke="#231815" stroke-miterlimit="10"/><path d="M143.824 5.9c9.913.554 18.075 10.223 18.252 21.6l2.063 142.094c.155 11.377-7.74 20.16-17.654 19.605l-84.475-4.701c-9.914-.555-18.098-10.224-18.253-21.601L41.695 20.803C41.539 9.426 49.435.643 59.348 1.198l84.476 4.701Z" fill="#fff" stroke="#231815" stroke-miterlimit="10"/><path d="M120.394 84.643c.786 9.533 2.174 17.818 4.262 24.658a51.43 51.43 0 0 1 1.13-2.692c2.861-7.134 4.347-11.662 4.347-13.681-.172-.576.958-.38 3.132.391 2.088.869 2.776 1.921 2.346 3.084-3.734 8.285-6.951 14.55-9.297 18.687a8.93 8.93 0 0 0 .958 2.41c3.218 8.665 6.165 13.107 8.867 13.205.7.098 1.474-1.922 2.518-6.168.786-4.136.872-8.578.258-13.388-.344-1.444 0-1.542.786-.379 1.56 3.953 2.69 8.187 3.476 12.617.7 4.528.958 7.905.786 9.924-.344 2.215-.43 4.235-.172 5.972.344 2.79-.43 3.463-2.432 1.922-4.606-1.922-9.211-6.548-13.559-14.061-1.744-2.411-3.046-5.103-4.09-7.906-2.432 3.659-3.476 6.07-3.304 7.416 0 .967-1.302 2.509-4.004 4.724-2.69 2.215-6.35 2.888-10.956 1.921-1.044-.196-.958-.477.086-1.15 4.262-2.888 7.738-5.678 10.428-8.579 2.002-2.508 3.991-5.396 5.993-8.958a24.013 24.013 0 0 1-1.559-5.298c-1.044 1.064-2.002 2.692-2.874 4.821-1.474 3.084-2.26 5.397-2.26 6.743.344.771.086 1.346-.786 1.64-3.39.098-5.822.673-7.394 1.738-.614.195-.872 0-.786-.576 0-.575-.344-1.444-1.044-2.594a15.823 15.823 0 0 1-3.132-4.724c-.172.098-.172.196-.086.294-1.744 2.019-3.476 3.757-5.306 4.822 0 3.952.172 7.905.344 11.662.172 1.836-.516 2.117-1.83 1.248a39.556 39.556 0 0 0-3.046-2.79c-.958-.771-1.916-1.64-2.69-2.692-.516-.38-.872-.673-.958-1.065-.086-.391-.43-.575-.872-.575-5.134.869-8.438 1.542-9.826 1.836-1.83.195-3.218.575-3.918 1.15-.786.575-1.474 0-1.916-1.64-1.216-2.888-1.83-7.514-2.002-14.061-.172-6.363 0-14.452.516-24.377 0-1.15.43-1.542 1.302-1.542.7.098 2.174-.196 4.606-.869.872-.38 1.83-.77 3.218-1.15-.172-.196-.172-.392 0-.771-.172-16.863.43-25.527 1.744-26.103.7-.195 2.174.478 4.434 1.738 2.26 1.444 2.861 2.313 2.088 2.595-1.56.77-2.432 4.05-2.604 9.63.7.196 2.346 0 4.692-.77 2.69-.772 4.433-1.543 5.133-2.216.787-.966 1.216-.097 1.388 2.411 0 2.693-.257 3.855-.7 3.757-.786-.098-4.348 1.346-10.783 4.332 0 1.738 0 3.084.086 3.855 2.603-.477 4.433-.673 5.821-.575 5.22 1.065 7.48 2.888 6.78 5.2-.7 2.889-1.216 6.364-1.474 10.305-.344 3.953-.344 9.056.086 15.125 0 .576 0 1.163.086 1.738.344-.575.7-1.15 1.216-1.921 2.002-4.528 3.046-9.925 3.218-16.276 0-6.266-.086-11.075-.344-14.453-.344-1.346.172-1.835 1.56-1.541.172.097.43.195.786.195.258-.098.7-.098 1.388-.098 4.262-.575 7.996-1.541 11.385-2.986-.343-3.377-.429-6.645-.257-9.63.171-7.71-.086-12.336-.701-13.976-.7-2.41.344-2.79 3.046-1.064 2.604 1.64 3.476 3.083 2.776 4.05-1.388 1.836-1.646 8.285-.7 18.98 1.474-.575 2.96-.966 4.262-1.15.786-.098 1.302.575 1.646 2.215.172 1.64-.086 2.509-.786 2.888-1.646.967-3.304 1.836-4.606 2.607l.074-.061Zm-31.553 18.405h-1.744c-.516.098-.786 0-.872-.379-.516-.673-.786-1.347-.872-1.836-.344.673-.516 1.64-.614 2.607-.172.575-.344 1.15-.516 1.541 2.69 1.922 5.035 4.051 7.295 6.07-.172-5.396-.258-9.924-.258-13.583 0-4.528-.7-7.135-2.002-8.09-.786-.672-2.603-.672-5.305-.097-2.862.77-4.95 1.542-6.166 2.215-1.302.77-2.088 1.346-2.26 1.64-.516.673-1.044 4.527-1.474 11.662.172.196.43.575.872 1.15.344.575.786 1.163 1.388 1.542.516.392.958.869 1.302 1.248.086.196 0 .478-.172 1.065-.344.575-.958.869-1.744.771h-2.002c-.172 2.411-.258 4.43-.172 6.266 2.874-2.595 5.22-6.07 7.124-10.402-2.088-2.215-3.82-4.137-5.22-5.678-.516-.674-.344-.967.7-.967 1.83 1.162 3.733 2.215 5.564 3.377 1.388-4.148 2.002-7.134 2.002-9.251-.172-1.15.7-1.542 2.517-1.065 1.745.477 2.26 1.163 1.745 1.836-.516.477-.873 1.15-1.216 2.117.171.196.515.575 1.043 1.248.344.771.7 1.444 1.216 1.934.516.575.959.966 1.388 1.346.172.196.086.575-.086 1.064-.344.478-.786.673-1.474.673l.013-.024Zm-8.782 10.402c1.83.379 3.734.967 5.392 1.64.172.195.258 1.248.086 2.986-.344 1.921-.7 2.986-1.044 3.181-.516.196-.958.098-1.216-.293-.344-.478-.7-1.151-1.216-2.117-1.302-1.542-2.346-2.791-3.132-3.953-2.002 2.215-3.82 3.659-5.306 4.136 0 2.509.258 4.234.7 5.201.172.196 1.744 0 4.606-.771 2.874-.673 5.822-1.15 8.696-1.346.516.196.872.771.872 1.738s.086 1.542.43 1.737c.872.674 1.744.967 2.518.771.344-.575.43-4.332.258-11.466-.172-.379-.172-.771-.086-1.248a.49.49 0 0 0-.086.575c-.344 2.019-.873 3.084-1.388 3.279-.7.196-1.044 0-1.216-.477-.344-.477-.7-1.248-1.13-2.215a95.606 95.606 0 0 1-5.036-5.776c-.872 1.64-1.744 3.182-2.69 4.43l-.012-.012Zm-1.744-15.7c-.786-1.543-1.216-2.987-1.044-4.15.344-1.443.786-1.835 1.646-1.248.172.196.43.575.786 1.163.344.77.786 1.444 1.302 1.836.258.575.7 1.064 1.044 1.444.172.195.086.391-.086.77-.344.478-.7.674-1.216.576H79.1c-.516 0-.786-.098-.786-.38v-.012Zm28.593 8.663c3.562-1.444 6.608-2.019 9.125-1.64 1.388.478 2.432 1.065 3.476 1.444-.7-2.41-1.13-4.907-1.474-7.318-.171-.391-.257-.77-.171-1.15-2.174.967-4.176 1.836-5.908 2.594-1.83.771-3.132.967-3.82.576-.872-.196-1.916-.098-3.218.293-.344 2.117-.872 4.137-1.388 6.07-.172.196-.258.38-.172.477.872-.293 2.088-.771 3.562-1.346h-.012Zm-1.216-10.977c2.346-.294 4.52-.77 6.35-1.444 2.002-.77 3.648-1.162 5.035-1.346-.343-2.02-.614-3.855-.7-5.593-2.689 1.542-4.605 2.118-5.649 1.836-1.13-.391-2.776 0-4.606.967a25.157 25.157 0 0 0-.258 3.659c-.172.77-.172 1.444-.172 1.921Zm4.52 21c2.518-2.019 3.304-4.234 2.26-6.841-.7-.575-1.83-.392-3.39.379-1.744.869-2.69 1.542-2.96 2.117-.516 2.411.086 4.235 1.744 5.201 0 .098.344 0 1.044-.293.516-.098.958-.294 1.302-.575v.012Zm17.563-37.092c-2.26-3.561-3.046-6.645-2.776-9.533.701-3.66 2.002-4.822 3.734-3.463.516.379 1.216 1.444 2.26 2.888.872 1.64 1.744 2.986 2.96 3.952 1.216 1.065 2.088 2.117 2.862 3.182.344.392.258 1.065-.086 2.02-.516 1.15-1.56 1.737-3.132 1.64-1.646 0-2.96.097-3.906.195-1.044.196-1.646-.098-1.916-.869v-.012Z" fill="#E86546" stroke="#231815"/></svg>