<svg fill="none" xmlns="http://www.w3.org/2000/svg" viewBox="0 0 166 200"><path d="m148.769 189.066-84.475-4.701c-9.914-.555-18.097-10.224-18.297-21.602L43.624 20.736c-.155-9.67 5.5-17.432 13.262-19.228l-42.492 9.78C6.609 13.086.954 20.87 1.109 30.538l2.373 142.028c.2 11.377 8.383 21.047 18.297 21.601l84.475 4.702c1.486.089 2.95-.044 4.325-.355l42.515-9.803a15.469 15.469 0 0 1-4.325.355Z" fill="#F590A8" stroke="#231815" stroke-miterlimit="10"/><path d="M143.491 5.833c9.913.554 18.097 10.224 18.297 21.601l2.373 142.027c.199 11.377-7.696 20.16-17.61 19.605l-84.475-4.701c-9.914-.555-18.097-10.224-18.297-21.602L41.406 20.736c-.2-11.377 7.696-20.16 17.61-19.605l84.475 4.702Z" fill="#fff" stroke="#231815" stroke-miterlimit="10"/><path d="m146.485 189.199-84.476-4.701c-9.913-.555-18.097-10.224-18.252-21.602L41.694 20.803c-.066-4.857 1.33-9.248 3.726-12.62 2.395-3.393 5.788-5.766 9.714-6.653L33.865 6.254c-7.85 1.752-13.573 9.559-13.44 19.273l2.063 142.093c.155 11.378 8.339 21.047 18.252 21.602l84.476 4.701a15.557 15.557 0 0 0 4.214-.332l21.268-4.724a15.55 15.55 0 0 1-4.213.332Z" fill="#fff" stroke="#231815" stroke-miterlimit="10"/><path d="M143.824 5.9c9.913.554 18.075 10.223 18.252 21.6l2.063 142.094c.155 11.377-7.74 20.16-17.654 19.605l-84.475-4.701c-9.914-.555-18.098-10.224-18.253-21.601L41.695 20.803C41.539 9.426 49.435.643 59.348 1.198l84.476 4.701Z" fill="#fff" stroke="#231815" stroke-miterlimit="10"/><mask id="path-5-outside-1_799_36220" maskUnits="userSpaceOnUse" x="59.98" y="48.987" width="87" height="93" fill="#000"><path fill="#fff" d="M59.98 48.987h87v93h-87z"/><path d="M65.87 75.872c6.711-.618 14.252-2.276 22.253-5.185 1.303-.618 2.605.408 4 3.211 1.303 2.79 1.027 3.935-.75 3.316-1.487-.513-3.54-.21-6.33.83-.184 1.04.185 1.552 1.027 1.552.75.21 1.869.724 3.066 1.448 1.119.829 1.395 1.658.658 2.382-.552.724-1.026 1.553-1.487 2.382-.46.934-1.21 1.974-1.96 3-.37.619-.659 1.25-.659 1.869 1.869-.316 3.817-.724 6.146-1.237.46-.316.934.829 1.395 3.21.368 2.488-.368 3.317-2.053 2.488-2.606.316-5.211.724-7.725 1.342-.934 1.25-1.487 3.527-1.869 6.738a305.94 305.94 0 0 1 8.291-2.171c.553-.316 1.119.724 1.671 3.421.277 2.593-.368 3.527-2.237 2.698-2.698.421-5.593 1.04-8.567 1.658-.184.935-.368 1.869-.368 2.698-.46 2.382-.369 4.975.092 7.975 0 1.04-1.21 3.211-3.632 6.211-2.514 3.001-6.896 5.699-13.042 8.081-.934.105-1.026-.422-.092-1.869 5.593-6.633 9.225-11.291 11.08-14.094.935-2.593 1.58-5.185 2.054-8.08-3.632 1.144-5.685 1.868-6.054 2.276-2.053 1.553-3.08 1.764-3.264.619-.368-1.04-.934-2.172-1.67-3.317-.738-1.144-.751-1.763 0-1.868a6.66 6.66 0 0 0 2.328-.408c1.961-.724 5.028-1.658 9.028-2.593 0-2.171-.184-4.25-.46-6.527-.185 0-.369.105-.369.105-5.777 1.658-9.04 2.79-9.778 3.317-1.96 1.552-3.171 1.763-3.448.513a20.853 20.853 0 0 0-1.671-3.527c-.658-1.237-.658-1.763 0-1.974.75 0 1.487-.105 2.421-.316 2.882-.829 7.265-1.869 12.858-3.21.552-.211 1.21-.317 2.053-.409 1.118-1.658 1.96-3 2.697-4.04.935-1.763 1.395-3.106 1.487-3.935.185-1.552-.276-2.382-1.579-2.592-1.395-.105-2.513.21-3.171.829-2.33 4.04-3.909 6.738-4.659 7.975-.553 1.145-1.303 1.447-2.421.934-1.303-.513-1.58-1.658-1.027-3.316 1.672-3.83 2.514-6.212 2.698-7.462-2.514.514-4.29 1.145-5.12 1.974-1.118.935-1.868 0-2.329-2.895-.75-2.592-.552-3.935.461-4.04l.026.013Zm12.29-11.186c-1.118-4.145-1.21-7.461-.183-9.949 1.868-3.619 3.355-4.448 4.842-2.382.369.62.935 1.764 1.395 3.527.369 1.87 1.119 3.422 2.053 4.764.935 1.448 1.672 2.698 2.145 3.83.185.618-.092 1.342-.658 2.066-.934 1.04-2.145 1.25-3.632.618-1.671-.513-3.08-.723-4.093-.934-1.118-.21-1.763-.724-1.868-1.553v.013Zm35.112 41.125c-.185 8.396-.185 17.41-.093 27.135.369 4.659 0 7.041-.934 7.041-2.513-.619-4.659-1.553-6.054-2.593-1.302-.723-1.302-1.553.093-2.276 1.21-.829 1.868-1.764 1.868-3.106-.368-8.488-.46-16.371-.46-23.833-1.764 1.448-3.817 3.725-5.962 6.738-3.816 5.08-8.935 9.423-15.186 13.055-.935.408-1.869.618-2.606.408-.934-.105-.75-.935.658-2.382 6.238-5.909 11.739-12.015 16.489-18.437 1.869-2.592 3.448-4.974 4.751-6.935-.553.316-1.026.513-1.303.724-1.763 1.237-2.79 1.658-3.066 1.237-.368-.408-.842-1.145-1.211-2.067a18.476 18.476 0 0 0-1.671-2.592c-2.237-3-3.356-6.738-3.448-11.186-.553-1.342-.46-2.066.092-2.066.553 0 1.487-.316 3.08-.934 2.513-.935 5.593-1.869 9.225-2.698h.092c0-1.974 0-3.935.092-5.803-2.329.21-4.566.934-6.804 2.066-2.145 1.763-3.448 1.658-3.632-.211-.184-1.869-.552-3.422-1.026-5.08-.46-1.342-.184-1.974 1.21-1.868 1.119.618 3.54.513 7.357-.514.934-.21 1.869-.42 2.882-.829 0-5.277.092-10.054.276-14.397 0-1.763-.092-3-.276-3.724-.276-.618.276-.829 2.145-.618a42.24 42.24 0 0 1 5.501 1.447c1.487.21 1.671.83.75 1.869-1.027.934-1.579 2.698-1.579 5.08-.184 2.697-.369 5.487-.369 8.396 0 0 .185 0 .369-.106 2.513-.934 5.487-1.763 8.935-2.381 1.119-.422 1.764-.211 1.961.618 0 .829.461 1.553 1.395 2.382.658.829 1.211 2.276 1.579 4.25.185 2.067-.658 2.593-2.421 1.448-3.448-1.04-6.712-.934-9.502.21-.934.409-1.763.724-2.513.935-.184 1.763-.184 3.724-.184 5.488 1.579-.21 3.54-.316 5.593-.514 4.184-.513 7.54.106 10.343 1.87 2.514 1.868 3.54 2.789 2.882 2.789-1.671 2.487-4.184 6.843-7.54 13.055-.935 1.974-1.869 2.79-2.79 2.487-1.303-.21-2.698-.316-4.277-.316h-4.185a16.8 16.8 0 0 0 2.698 3.211c1.118 1.145 3.448 3.724 7.08 7.869 1.869 2.488 4.935 4.554 9.317 6.422a48.32 48.32 0 0 1 11.554 6.633c.935.934.843 1.553-.46 1.974-3.08 1.145-7.172 1.448-12.292.934-5.027-.513-7.724-1.763-7.83-3.724-.552-4.251-2.053-7.672-4.75-10.251-2.422-2.172-4.277-4.251-5.778-6.317l-.065-.013Zm-5.593-11.502c-.185-2.895-.185-5.803-.093-8.501-2.145.724-3.54 1.342-4.092 1.763-.935 0-1.487.408-1.869 1.145-.368.83-.553 2.277-.368 4.25 0 2.067.552 3.107 1.868 2.896 1.211-.513 2.79-1.04 4.567-1.553h-.013Zm5.961-10.251c-.184 3.105-.276 6.211-.184 9.225 1.303-.106 2.698-.211 4.382-.421 1.763-.83 2.974-2.698 3.54-5.383.369-2.79-.461-4.04-2.421-3.83-1.869 0-3.725.106-5.304.409h-.013Z"/></mask><path d="M65.87 75.872c6.711-.618 14.252-2.276 22.253-5.185 1.303-.618 2.605.408 4 3.211 1.303 2.79 1.027 3.935-.75 3.316-1.487-.513-3.54-.21-6.33.83-.184 1.04.185 1.552 1.027 1.552.75.21 1.869.724 3.066 1.448 1.119.829 1.395 1.658.658 2.382-.552.724-1.026 1.553-1.487 2.382-.46.934-1.21 1.974-1.96 3-.37.619-.659 1.25-.659 1.869 1.869-.316 3.817-.724 6.146-1.237.46-.316.934.829 1.395 3.21.368 2.488-.368 3.317-2.053 2.488-2.606.316-5.211.724-7.725 1.342-.934 1.25-1.487 3.527-1.869 6.738a305.94 305.94 0 0 1 8.291-2.171c.553-.316 1.119.724 1.671 3.421.277 2.593-.368 3.527-2.237 2.698-2.698.421-5.593 1.04-8.567 1.658-.184.935-.368 1.869-.368 2.698-.46 2.382-.369 4.975.092 7.975 0 1.04-1.21 3.211-3.632 6.211-2.514 3.001-6.896 5.699-13.042 8.081-.934.105-1.026-.422-.092-1.869 5.593-6.633 9.225-11.291 11.08-14.094.935-2.593 1.58-5.185 2.054-8.08-3.632 1.144-5.685 1.868-6.054 2.276-2.053 1.553-3.08 1.764-3.264.619-.368-1.04-.934-2.172-1.67-3.317-.738-1.144-.751-1.763 0-1.868a6.66 6.66 0 0 0 2.328-.408c1.961-.724 5.028-1.658 9.028-2.593 0-2.171-.184-4.25-.46-6.527-.185 0-.369.105-.369.105-5.777 1.658-9.04 2.79-9.778 3.317-1.96 1.552-3.171 1.763-3.448.513a20.853 20.853 0 0 0-1.671-3.527c-.658-1.237-.658-1.763 0-1.974.75 0 1.487-.105 2.421-.316 2.882-.829 7.265-1.869 12.858-3.21.552-.211 1.21-.317 2.053-.409 1.118-1.658 1.96-3 2.697-4.04.935-1.763 1.395-3.106 1.487-3.935.185-1.552-.276-2.382-1.579-2.592-1.395-.105-2.513.21-3.171.829-2.33 4.04-3.909 6.738-4.659 7.975-.553 1.145-1.303 1.447-2.421.934-1.303-.513-1.58-1.658-1.027-3.316 1.672-3.83 2.514-6.212 2.698-7.462-2.514.514-4.29 1.145-5.12 1.974-1.118.935-1.868 0-2.329-2.895-.75-2.592-.552-3.935.461-4.04l.026.013Zm12.29-11.186c-1.118-4.145-1.21-7.461-.183-9.949 1.868-3.619 3.355-4.448 4.842-2.382.369.62.935 1.764 1.395 3.527.369 1.87 1.119 3.422 2.053 4.764.935 1.448 1.672 2.698 2.145 3.83.185.618-.092 1.342-.658 2.066-.934 1.04-2.145 1.25-3.632.618-1.671-.513-3.08-.723-4.093-.934-1.118-.21-1.763-.724-1.868-1.553v.013Zm35.112 41.125c-.185 8.396-.185 17.41-.093 27.135.369 4.659 0 7.041-.934 7.041-2.513-.619-4.659-1.553-6.054-2.593-1.302-.723-1.302-1.553.093-2.276 1.21-.829 1.868-1.764 1.868-3.106-.368-8.488-.46-16.371-.46-23.833-1.764 1.448-3.817 3.725-5.962 6.738-3.816 5.08-8.935 9.423-15.186 13.055-.935.408-1.869.618-2.606.408-.934-.105-.75-.935.658-2.382 6.238-5.909 11.739-12.015 16.489-18.437 1.869-2.592 3.448-4.974 4.751-6.935-.553.316-1.026.513-1.303.724-1.763 1.237-2.79 1.658-3.066 1.237-.368-.408-.842-1.145-1.211-2.067a18.476 18.476 0 0 0-1.671-2.592c-2.237-3-3.356-6.738-3.448-11.186-.553-1.342-.46-2.066.092-2.066.553 0 1.487-.316 3.08-.934 2.513-.935 5.593-1.869 9.225-2.698h.092c0-1.974 0-3.935.092-5.803-2.329.21-4.566.934-6.804 2.066-2.145 1.763-3.448 1.658-3.632-.211-.184-1.869-.552-3.422-1.026-5.08-.46-1.342-.184-1.974 1.21-1.868 1.119.618 3.54.513 7.357-.514.934-.21 1.869-.42 2.882-.829 0-5.277.092-10.054.276-14.397 0-1.763-.092-3-.276-3.724-.276-.618.276-.829 2.145-.618a42.24 42.24 0 0 1 5.501 1.447c1.487.21 1.671.83.75 1.869-1.027.934-1.579 2.698-1.579 5.08-.184 2.697-.369 5.487-.369 8.396 0 0 .185 0 .369-.106 2.513-.934 5.487-1.763 8.935-2.381 1.119-.422 1.764-.211 1.961.618 0 .829.461 1.553 1.395 2.382.658.829 1.211 2.276 1.579 4.25.185 2.067-.658 2.593-2.421 1.448-3.448-1.04-6.712-.934-9.502.21-.934.409-1.763.724-2.513.935-.184 1.763-.184 3.724-.184 5.488 1.579-.21 3.54-.316 5.593-.514 4.184-.513 7.54.106 10.343 1.87 2.514 1.868 3.54 2.789 2.882 2.789-1.671 2.487-4.184 6.843-7.54 13.055-.935 1.974-1.869 2.79-2.79 2.487-1.303-.21-2.698-.316-4.277-.316h-4.185a16.8 16.8 0 0 0 2.698 3.211c1.118 1.145 3.448 3.724 7.08 7.869 1.869 2.488 4.935 4.554 9.317 6.422a48.32 48.32 0 0 1 11.554 6.633c.935.934.843 1.553-.46 1.974-3.08 1.145-7.172 1.448-12.292.934-5.027-.513-7.724-1.763-7.83-3.724-.552-4.251-2.053-7.672-4.75-10.251-2.422-2.172-4.277-4.251-5.778-6.317l-.065-.013Zm-5.593-11.502c-.185-2.895-.185-5.803-.093-8.501-2.145.724-3.54 1.342-4.092 1.763-.935 0-1.487.408-1.869 1.145-.368.83-.553 2.277-.368 4.25 0 2.067.552 3.107 1.868 2.896 1.211-.513 2.79-1.04 4.567-1.553h-.013Zm5.961-10.251c-.184 3.105-.276 6.211-.184 9.225 1.303-.106 2.698-.211 4.382-.421 1.763-.83 2.974-2.698 3.54-5.383.369-2.79-.461-4.04-2.421-3.83-1.869 0-3.725.106-5.304.409h-.013Z" fill="#F590A8"/><path d="M65.87 75.872c6.711-.618 14.252-2.276 22.253-5.185 1.303-.618 2.605.408 4 3.211 1.303 2.79 1.027 3.935-.75 3.316-1.487-.513-3.54-.21-6.33.83-.184 1.04.185 1.552 1.027 1.552.75.21 1.869.724 3.066 1.448 1.119.829 1.395 1.658.658 2.382-.552.724-1.026 1.553-1.487 2.382-.46.934-1.21 1.974-1.96 3-.37.619-.659 1.25-.659 1.869 1.869-.316 3.817-.724 6.146-1.237.46-.316.934.829 1.395 3.21.368 2.488-.368 3.317-2.053 2.488-2.606.316-5.211.724-7.725 1.342-.934 1.25-1.487 3.527-1.869 6.738a305.94 305.94 0 0 1 8.291-2.171c.553-.316 1.119.724 1.671 3.421.277 2.593-.368 3.527-2.237 2.698-2.698.421-5.593 1.04-8.567 1.658-.184.935-.368 1.869-.368 2.698-.46 2.382-.369 4.975.092 7.975 0 1.04-1.21 3.211-3.632 6.211-2.514 3.001-6.896 5.699-13.042 8.081-.934.105-1.026-.422-.092-1.869 5.593-6.633 9.225-11.291 11.08-14.094.935-2.593 1.58-5.185 2.054-8.08-3.632 1.144-5.685 1.868-6.054 2.276-2.053 1.553-3.08 1.764-3.264.619-.368-1.04-.934-2.172-1.67-3.317-.738-1.144-.751-1.763 0-1.868a6.66 6.66 0 0 0 2.328-.408c1.961-.724 5.028-1.658 9.028-2.593 0-2.171-.184-4.25-.46-6.527-.185 0-.369.105-.369.105-5.777 1.658-9.04 2.79-9.778 3.317-1.96 1.552-3.171 1.763-3.448.513a20.853 20.853 0 0 0-1.671-3.527c-.658-1.237-.658-1.763 0-1.974.75 0 1.487-.105 2.421-.316 2.882-.829 7.265-1.869 12.858-3.21.552-.211 1.21-.317 2.053-.409 1.118-1.658 1.96-3 2.697-4.04.935-1.763 1.395-3.106 1.487-3.935.185-1.552-.276-2.382-1.579-2.592-1.395-.105-2.513.21-3.171.829-2.33 4.04-3.909 6.738-4.659 7.975-.553 1.145-1.303 1.447-2.421.934-1.303-.513-1.58-1.658-1.027-3.316 1.672-3.83 2.514-6.212 2.698-7.462-2.514.514-4.29 1.145-5.12 1.974-1.118.935-1.868 0-2.329-2.895-.75-2.592-.552-3.935.461-4.04l.026.013Zm12.29-11.186c-1.118-4.145-1.21-7.461-.183-9.949 1.868-3.619 3.355-4.448 4.842-2.382.369.62.935 1.764 1.395 3.527.369 1.87 1.119 3.422 2.053 4.764.935 1.448 1.672 2.698 2.145 3.83.185.618-.092 1.342-.658 2.066-.934 1.04-2.145 1.25-3.632.618-1.671-.513-3.08-.723-4.093-.934-1.118-.21-1.763-.724-1.868-1.553v.013Zm35.112 41.125c-.185 8.396-.185 17.41-.093 27.135.369 4.659 0 7.041-.934 7.041-2.513-.619-4.659-1.553-6.054-2.593-1.302-.723-1.302-1.553.093-2.276 1.21-.829 1.868-1.764 1.868-3.106-.368-8.488-.46-16.371-.46-23.833-1.764 1.448-3.817 3.725-5.962 6.738-3.816 5.08-8.935 9.423-15.186 13.055-.935.408-1.869.618-2.606.408-.934-.105-.75-.935.658-2.382 6.238-5.909 11.739-12.015 16.489-18.437 1.869-2.592 3.448-4.974 4.751-6.935-.553.316-1.026.513-1.303.724-1.763 1.237-2.79 1.658-3.066 1.237-.368-.408-.842-1.145-1.211-2.067a18.476 18.476 0 0 0-1.671-2.592c-2.237-3-3.356-6.738-3.448-11.186-.553-1.342-.46-2.066.092-2.066.553 0 1.487-.316 3.08-.934 2.513-.935 5.593-1.869 9.225-2.698h.092c0-1.974 0-3.935.092-5.803-2.329.21-4.566.934-6.804 2.066-2.145 1.763-3.448 1.658-3.632-.211-.184-1.869-.552-3.422-1.026-5.08-.46-1.342-.184-1.974 1.21-1.868 1.119.618 3.54.513 7.357-.514.934-.21 1.869-.42 2.882-.829 0-5.277.092-10.054.276-14.397 0-1.763-.092-3-.276-3.724-.276-.618.276-.829 2.145-.618a42.24 42.24 0 0 1 5.501 1.447c1.487.21 1.671.83.75 1.869-1.027.934-1.579 2.698-1.579 5.08-.184 2.697-.369 5.487-.369 8.396 0 0 .185 0 .369-.106 2.513-.934 5.487-1.763 8.935-2.381 1.119-.422 1.764-.211 1.961.618 0 .829.461 1.553 1.395 2.382.658.829 1.211 2.276 1.579 4.25.185 2.067-.658 2.593-2.421 1.448-3.448-1.04-6.712-.934-9.502.21-.934.409-1.763.724-2.513.935-.184 1.763-.184 3.724-.184 5.488 1.579-.21 3.54-.316 5.593-.514 4.184-.513 7.54.106 10.343 1.87 2.514 1.868 3.54 2.789 2.882 2.789-1.671 2.487-4.184 6.843-7.54 13.055-.935 1.974-1.869 2.79-2.79 2.487-1.303-.21-2.698-.316-4.277-.316h-4.185a16.8 16.8 0 0 0 2.698 3.211c1.118 1.145 3.448 3.724 7.08 7.869 1.869 2.488 4.935 4.554 9.317 6.422a48.32 48.32 0 0 1 11.554 6.633c.935.934.843 1.553-.46 1.974-3.08 1.145-7.172 1.448-12.292.934-5.027-.513-7.724-1.763-7.83-3.724-.552-4.251-2.053-7.672-4.75-10.251-2.422-2.172-4.277-4.251-5.778-6.317l-.065-.013Zm-5.593-11.502c-.185-2.895-.185-5.803-.093-8.501-2.145.724-3.54 1.342-4.092 1.763-.935 0-1.487.408-1.869 1.145-.368.83-.553 2.277-.368 4.25 0 2.067.552 3.107 1.868 2.896 1.211-.513 2.79-1.04 4.567-1.553h-.013Zm5.961-10.251c-.184 3.105-.276 6.211-.184 9.225 1.303-.106 2.698-.211 4.382-.421 1.763-.83 2.974-2.698 3.54-5.383.369-2.79-.461-4.04-2.421-3.83-1.869 0-3.725.106-5.304.409h-.013Z" stroke="#231815" stroke-width="2" mask="url(#path-5-outside-1_799_36220)"/></svg>