<svg fill="none" xmlns="http://www.w3.org/2000/svg" viewBox="0 0 54 65"><g clip-path="url(#clip0_799_32884)" stroke="#231815" stroke-miterlimit="10"><path d="m48.35 61.447-27.455-1.528c-3.221-.18-5.881-3.323-5.946-7.02l-.771-46.16c-.05-3.142 1.787-5.665 4.31-6.249L4.678 3.67C2.148 4.253.31 6.783.36 9.925l.772 46.159c.064 3.698 2.724 6.84 5.946 7.02l27.455 1.528c.483.03.958-.014 1.405-.115l13.817-3.186a5.058 5.058 0 0 1-1.405.116Z" fill="#fff"/><path d="M46.634 1.896c3.222.18 5.882 3.322 5.947 7.02l.771 46.159c.065 3.697-2.501 6.552-5.723 6.371l-27.455-1.528c-3.221-.18-5.881-3.322-5.946-7.02l-.771-46.159c-.065-3.697 2.5-6.552 5.723-6.372l27.454 1.529Z" fill="#fff"/><path d="m47.608 61.49-27.455-1.528c-3.222-.18-5.881-3.323-5.932-7.02l-.67-46.18c-.022-1.58.432-3.007 1.21-4.102.78-1.103 1.882-1.874 3.158-2.162l-6.913 1.535c-2.551.57-4.41 3.106-4.368 6.263l.67 46.18c.051 3.698 2.71 6.841 5.933 7.021l27.454 1.528c.476.03.93-.014 1.37-.108l6.912-1.535a5.04 5.04 0 0 1-1.37.108Z" fill="#E2CCAF"/><path d="M46.742 1.917c3.222.18 5.875 3.323 5.933 7.02l.67 46.181c.05 3.698-2.516 6.552-5.738 6.372l-27.454-1.528c-3.222-.18-5.882-3.323-5.932-7.02l-.67-46.18C13.5 3.063 16.066.208 19.288.388l27.454 1.528Z" fill="#E2CCAF"/></g><defs><clipPath id="clip0_799_32884"><path fill="#fff" d="M0 0h53.713v65H0z"/></clipPath></defs></svg>