<svg fill="none" xmlns="http://www.w3.org/2000/svg" viewBox="0 0 166 200"><path d="m148.769 189.066-84.475-4.701c-9.914-.555-18.097-10.224-18.297-21.602L43.624 20.736c-.155-9.67 5.5-17.432 13.262-19.228l-42.492 9.78C6.609 13.086.954 20.87 1.109 30.538l2.373 142.028c.2 11.377 8.383 21.047 18.297 21.601l84.475 4.702c1.486.089 2.95-.044 4.325-.355l42.515-9.803a15.469 15.469 0 0 1-4.325.355Z" fill="#74D194" stroke="#231815" stroke-miterlimit="10"/><path d="M143.491 5.833c9.913.554 18.097 10.224 18.297 21.601l2.373 142.027c.199 11.377-7.696 20.16-17.61 19.605l-84.475-4.701c-9.914-.555-18.097-10.224-18.297-21.602L41.406 20.736c-.2-11.377 7.696-20.16 17.61-19.605l84.475 4.702Z" fill="#fff" stroke="#231815" stroke-miterlimit="10"/><path d="m146.485 189.199-84.476-4.701c-9.913-.555-18.097-10.224-18.252-21.602L41.694 20.803c-.066-4.857 1.33-9.248 3.726-12.62 2.395-3.393 5.788-5.766 9.714-6.653L33.865 6.254c-7.85 1.752-13.573 9.559-13.44 19.273l2.063 142.093c.155 11.378 8.339 21.047 18.252 21.602l84.476 4.701a15.557 15.557 0 0 0 4.214-.332l21.268-4.724a15.55 15.55 0 0 1-4.213.332Z" fill="#fff" stroke="#231815" stroke-miterlimit="10"/><path d="M143.824 5.9c9.913.554 18.075 10.223 18.252 21.6l2.063 142.094c.155 11.377-7.74 20.16-17.654 19.605l-84.475-4.701c-9.914-.555-18.098-10.224-18.253-21.601L41.695 20.803C41.539 9.426 49.435.643 59.348 1.198l84.476 4.701Z" fill="#fff" stroke="#231815" stroke-miterlimit="10"/><mask id="path-5-outside-1_799_36227" maskUnits="userSpaceOnUse" x="61.99" y="52.016" width="84" height="86" fill="#000"><path fill="#fff" d="M61.99 52.016h84v86h-84z"/><path d="M64.467 122.107c-2.043-4.427-1.951-15.875.183-34.436 0-1.336.184-2.07.655-2.07.275 0 .747-.209 1.297-.615 1.297-.825 3.432-1.86 6.575-3.09-.366-1.14-.654-2.267-.93-3.406-.746-1.337 0-1.86 2.136-1.86 2.043.104 2.868.72 2.685 2.16a7.186 7.186 0 0 0-.275 1.965c.183 0 .366 0 .55-.21.93-.313 1.86-.615 2.868-.929.367-3.406.55-5.881.655-7.322-1.663.314-3.34.72-4.82.93-4.362.616-7.047 1.546-8.252 2.685-1.297.93-2.227-.105-2.777-3.51-.746-3.301-.55-4.951.55-4.951 7.78-.72 16.124-2.882 25.398-6.288 1.48-.825 3.065.511 4.912 3.917 1.572 3.405 1.205 4.846-.93 4.021-1.664-.51-4.165-.105-7.505 1.231-.55.21-1.022.42-1.389.42-.183 0-.183.104-.091.104-.55 1.441-1.022 4.021-1.572 7.728 2.135-.419 4.073-.51 5.75-.419 5.095.93 6.955 2.161 5.842 3.707-.93 1.65-1.389 3.615-1.48 5.986-.367 2.37-.367 5.567-.184 9.182v2.685s.092 0 .367-.105c3.052-1.86 5.095-3.3 6.117-4.335 2.41-2.266 3.89-5.462 4.728-9.379.55-1.336 1.664-1.336 3.249 0 1.48 1.546 1.951 2.58 1.388 3.091-.55.42-1.205 1.337-1.951 2.79-.655 1.441-1.297 2.58-1.756 3.51-.746 1.035-1.113 2.372-1.296 3.708-.184.615-1.205 1.336-3.065 1.964-1.952.826-4.637.93-7.873.315-.183 5.567-.458 15.77-1.021 30.309 0 1.651-1.86 1.14-5.567-1.65-3.615-2.58-6.955-5.776-10.295-9.588-1.952.511-3.615 1.035-4.729 1.441-2.777 1.035-4.362 2.161-4.912 3.301-1.113 2.37-2.135 1.336-3.248-2.987h.013ZM75.68 97.05c-2.685 2.986-5.278 4.427-7.597 4.231-.366 0-.655 0-.655-.105-.55 5.357-.458 10.204.092 14.644 0 1.336 1.113 1.546 3.157.72 1.86-.825 4.165-1.44 6.955-2.056 2.79-.616 4.637-1.231 5.842-1.86.55-.21 1.388.825 2.318 2.777.93 2.266.655 3.405-.655 3.196-1.951.419-3.706.825-5.095 1.139 3.052 1.965 5.095 2.777 6.3 2.266 1.297-.615 1.952-6.902 2.135-19.176 0-2.777-.091-5.16-.091-7.426-.184 0-.184.104-.092.104-2.96 1.65-4.912 2.057-5.934 1.14-1.388-1.035-2.226-2.266-2.501-3.615-.55-1.65-.55-4.532-.092-8.973-1.113.42-2.227.826-3.052 1.035-.183 1.336-.275 2.79-.458 4.126-.55 1.86-.55 3.51-.092 4.847.367 1.44.183 2.475-.459 2.986h-.026Zm-3.431-4.021c.55-2.476.838-4.637 1.021-6.707-.183 0-.275.105-.183.105-2.594 1.035-3.982 2.266-4.545 3.406-.55 3.51-.93 6.81-.93 9.797 2.501-2.986 4.073-5.252 4.636-6.601Zm-2.777 15.259c-.55-1.545-.367-2.475.55-2.777 5.278-1.859 9.732-3.196 13.347-4.427 1.113-.419 1.663.315 1.952 1.965.183 1.86-.092 2.79-.55 2.79-4.912 1.336-9.366 2.777-13.531 4.126-.747.616-1.389.105-1.755-1.65l-.013-.027ZM83.84 82.825c-.746 4.532-.654 7.322.184 8.357.367.825 1.48.825 3.523-.105.184-.21.367-.314.655-.42-.183-4.426-.458-6.81-.838-7.216-.367-.826-1.572-1.035-3.523-.616Zm13.256 35.785c5.279-6.903 8.802-11.959 10.662-15.666 1.572-3.405 2.502-5.671 2.777-7.007.367-1.86 1.388-1.965 2.96-.511 1.48 1.545 2.594 2.58 3.432 3.09.746.617.458 1.337-.655 2.057-.458.315-1.022.721-1.388 1.232.183 0 .55 0 .93-.105 3.248-.825 6.575-.105 10.19 1.965 2.502 2.056 3.157 3.3 1.86 3.811-1.205.616-2.227 1.231-2.869 1.86-.93 1.035-2.685 3.511-5.278 7.427-.367.419-.747.825-.93 1.244.183.21.458.511.838.721 2.502 2.685 4.82 4.637 7.047 5.671 2.318 1.756 5.279 3.616 8.985 5.358 3.616 1.86 6.301 3.706 7.886 5.462.746.93.55 1.44-.459 1.65-1.572.314-5.475.105-11.683-.616-6.301-.825-9.182-1.86-8.803-3.3.367-2.987-1.205-5.567-4.82-7.938-1.296-.616-2.226-1.14-3.065-1.965-1.113 1.14-2.135 2.161-2.96 2.987-2.777 2.266-4.074 3.916-4.257 5.056 0 1.755-1.205 3.091-3.34 3.706-2.96.721-5.842.826-8.802.105-1.48 0-1.297-.511.458-1.964 2.135-1.337 4.166-2.476 5.842-3.301 1.664-.825 3.432-2.162 5.659-4.441a105.016 105.016 0 0 0 4.073-4.846c-.93-.616-1.663-1.14-2.226-1.86-1.756-1.86-3.34-2.79-4.637-2.986a25.387 25.387 0 0 1-4.545 4.23c-1.86 1.232-3.065 1.756-3.707 1.441-.93-.209-.655-1.035.838-2.58l-.013.013Zm4.912-44.024c2.318-2.58 6.3-9.483 11.867-20.617.55-1.44 1.952-1.23 4.165.511 2.135 1.755 2.502 2.987 1.297 3.615-1.113 1.035-2.227 2.686-3.432 5.161-1.48 2.37-3.052 4.847-4.637 7.112-1.86 2.371-1.663 3.707.551 3.812 1.571-.314 3.156-.51 4.636-.72.93-.511 1.572-1.336 2.135-2.685.93-1.65 1.952-2.686 3.34-3.51 1.297-.721 3.432.405 6.484 3.405 3.615 3.405 5.187 6.903 4.729 10.308-.184 2.266-2.135 2.58-5.751.93-3.981-1.44-5.462-2.37-4.257-2.777 1.022-.419 1.952-.825 2.869-1.23 1.48-.826 2.043-1.756 2.043-3.092-.183-1.231-.55-2.057-.838-2.58-1.86-1.14-3.34-1.337-4.257-.72-1.113.72-1.755 1.65-2.135 2.986-.55 1.44-.838 2.776-.747 4.23-.275 1.14-1.205 1.441-2.776.93-4.729-.406-9.274 1.231-13.806 4.742-.747.72-1.663.21-2.593-1.65-1.022-1.756-2.044-2.987-2.869-3.812-.93-.825-.655-1.546.838-2.266 1.297-.616 2.319-1.231 3.157-2.057l-.013-.026Zm13.347 40.212c2.502-4.126 3.524-6.811 2.96-7.833-.93-1.231-3.052-1.44-6.3-.406h-.367c-.746.721-1.388 1.651-2.043 2.686.183 1.65 1.205 2.881 2.96 3.811.747.511 1.664 1.14 2.777 1.755l.013-.013Zm3.34-28.869c-.93-.72-.655-1.14.747-1.23 4.453.93 8.343 2.37 11.867 4.02.275.21.367 1.65.183 4.428-.275 2.685-.746 4.23-1.388 4.636-.747.42-1.389.315-1.755-.51-.367-.616-.93-1.546-1.756-2.882-3.431-3.602-6.116-6.392-7.885-8.462h-.013Z"/></mask><path d="M64.467 122.107c-2.043-4.427-1.951-15.875.183-34.436 0-1.336.184-2.07.655-2.07.275 0 .747-.209 1.297-.615 1.297-.825 3.432-1.86 6.575-3.09-.366-1.14-.654-2.267-.93-3.406-.746-1.337 0-1.86 2.136-1.86 2.043.104 2.868.72 2.685 2.16a7.186 7.186 0 0 0-.275 1.965c.183 0 .366 0 .55-.21.93-.313 1.86-.615 2.868-.929.367-3.406.55-5.881.655-7.322-1.663.314-3.34.72-4.82.93-4.362.616-7.047 1.546-8.252 2.685-1.297.93-2.227-.105-2.777-3.51-.746-3.301-.55-4.951.55-4.951 7.78-.72 16.124-2.882 25.398-6.288 1.48-.825 3.065.511 4.912 3.917 1.572 3.405 1.205 4.846-.93 4.021-1.664-.51-4.165-.105-7.505 1.231-.55.21-1.022.42-1.389.42-.183 0-.183.104-.091.104-.55 1.441-1.022 4.021-1.572 7.728 2.135-.419 4.073-.51 5.75-.419 5.095.93 6.955 2.161 5.842 3.707-.93 1.65-1.389 3.615-1.48 5.986-.367 2.37-.367 5.567-.184 9.182v2.685s.092 0 .367-.105c3.052-1.86 5.095-3.3 6.117-4.335 2.41-2.266 3.89-5.462 4.728-9.379.55-1.336 1.664-1.336 3.249 0 1.48 1.546 1.951 2.58 1.388 3.091-.55.42-1.205 1.337-1.951 2.79-.655 1.441-1.297 2.58-1.756 3.51-.746 1.035-1.113 2.372-1.296 3.708-.184.615-1.205 1.336-3.065 1.964-1.952.826-4.637.93-7.873.315-.183 5.567-.458 15.77-1.021 30.309 0 1.651-1.86 1.14-5.567-1.65-3.615-2.58-6.955-5.776-10.295-9.588-1.952.511-3.615 1.035-4.729 1.441-2.777 1.035-4.362 2.161-4.912 3.301-1.113 2.37-2.135 1.336-3.248-2.987h.013ZM75.68 97.05c-2.685 2.986-5.278 4.427-7.597 4.231-.366 0-.655 0-.655-.105-.55 5.357-.458 10.204.092 14.644 0 1.336 1.113 1.546 3.157.72 1.86-.825 4.165-1.44 6.955-2.056 2.79-.616 4.637-1.231 5.842-1.86.55-.21 1.388.825 2.318 2.777.93 2.266.655 3.405-.655 3.196-1.951.419-3.706.825-5.095 1.139 3.052 1.965 5.095 2.777 6.3 2.266 1.297-.615 1.952-6.902 2.135-19.176 0-2.777-.091-5.16-.091-7.426-.184 0-.184.104-.092.104-2.96 1.65-4.912 2.057-5.934 1.14-1.388-1.035-2.226-2.266-2.501-3.615-.55-1.65-.55-4.532-.092-8.973-1.113.42-2.227.826-3.052 1.035-.183 1.336-.275 2.79-.458 4.126-.55 1.86-.55 3.51-.092 4.847.367 1.44.183 2.475-.459 2.986h-.026Zm-3.431-4.021c.55-2.476.838-4.637 1.021-6.707-.183 0-.275.105-.183.105-2.594 1.035-3.982 2.266-4.545 3.406-.55 3.51-.93 6.81-.93 9.797 2.501-2.986 4.073-5.252 4.636-6.601Zm-2.777 15.259c-.55-1.545-.367-2.475.55-2.777 5.278-1.859 9.732-3.196 13.347-4.427 1.113-.419 1.663.315 1.952 1.965.183 1.86-.092 2.79-.55 2.79-4.912 1.336-9.366 2.777-13.531 4.126-.747.616-1.389.105-1.755-1.65l-.013-.027ZM83.84 82.825c-.746 4.532-.654 7.322.184 8.357.367.825 1.48.825 3.523-.105.184-.21.367-.314.655-.42-.183-4.426-.458-6.81-.838-7.216-.367-.826-1.572-1.035-3.523-.616Zm13.256 35.785c5.279-6.903 8.802-11.959 10.662-15.666 1.572-3.405 2.502-5.671 2.777-7.007.367-1.86 1.388-1.965 2.96-.511 1.48 1.545 2.594 2.58 3.432 3.09.746.617.458 1.337-.655 2.057-.458.315-1.022.721-1.388 1.232.183 0 .55 0 .93-.105 3.248-.825 6.575-.105 10.19 1.965 2.502 2.056 3.157 3.3 1.86 3.811-1.205.616-2.227 1.231-2.869 1.86-.93 1.035-2.685 3.511-5.278 7.427-.367.419-.747.825-.93 1.244.183.21.458.511.838.721 2.502 2.685 4.82 4.637 7.047 5.671 2.318 1.756 5.279 3.616 8.985 5.358 3.616 1.86 6.301 3.706 7.886 5.462.746.93.55 1.44-.459 1.65-1.572.314-5.475.105-11.683-.616-6.301-.825-9.182-1.86-8.803-3.3.367-2.987-1.205-5.567-4.82-7.938-1.296-.616-2.226-1.14-3.065-1.965-1.113 1.14-2.135 2.161-2.96 2.987-2.777 2.266-4.074 3.916-4.257 5.056 0 1.755-1.205 3.091-3.34 3.706-2.96.721-5.842.826-8.802.105-1.48 0-1.297-.511.458-1.964 2.135-1.337 4.166-2.476 5.842-3.301 1.664-.825 3.432-2.162 5.659-4.441a105.016 105.016 0 0 0 4.073-4.846c-.93-.616-1.663-1.14-2.226-1.86-1.756-1.86-3.34-2.79-4.637-2.986a25.387 25.387 0 0 1-4.545 4.23c-1.86 1.232-3.065 1.756-3.707 1.441-.93-.209-.655-1.035.838-2.58l-.013.013Zm4.912-44.024c2.318-2.58 6.3-9.483 11.867-20.617.55-1.44 1.952-1.23 4.165.511 2.135 1.755 2.502 2.987 1.297 3.615-1.113 1.035-2.227 2.686-3.432 5.161-1.48 2.37-3.052 4.847-4.637 7.112-1.86 2.371-1.663 3.707.551 3.812 1.571-.314 3.156-.51 4.636-.72.93-.511 1.572-1.336 2.135-2.685.93-1.65 1.952-2.686 3.34-3.51 1.297-.721 3.432.405 6.484 3.405 3.615 3.405 5.187 6.903 4.729 10.308-.184 2.266-2.135 2.58-5.751.93-3.981-1.44-5.462-2.37-4.257-2.777 1.022-.419 1.952-.825 2.869-1.23 1.48-.826 2.043-1.756 2.043-3.092-.183-1.231-.55-2.057-.838-2.58-1.86-1.14-3.34-1.337-4.257-.72-1.113.72-1.755 1.65-2.135 2.986-.55 1.44-.838 2.776-.747 4.23-.275 1.14-1.205 1.441-2.776.93-4.729-.406-9.274 1.231-13.806 4.742-.747.72-1.663.21-2.593-1.65-1.022-1.756-2.044-2.987-2.869-3.812-.93-.825-.655-1.546.838-2.266 1.297-.616 2.319-1.231 3.157-2.057l-.013-.026Zm13.347 40.212c2.502-4.126 3.524-6.811 2.96-7.833-.93-1.231-3.052-1.44-6.3-.406h-.367c-.746.721-1.388 1.651-2.043 2.686.183 1.65 1.205 2.881 2.96 3.811.747.511 1.664 1.14 2.777 1.755l.013-.013Zm3.34-28.869c-.93-.72-.655-1.14.747-1.23 4.453.93 8.343 2.37 11.867 4.02.275.21.367 1.65.183 4.428-.275 2.685-.746 4.23-1.388 4.636-.747.42-1.389.315-1.755-.51-.367-.616-.93-1.546-1.756-2.882-3.431-3.602-6.116-6.392-7.885-8.462h-.013Z" fill="#74D194"/><path d="M64.467 122.107c-2.043-4.427-1.951-15.875.183-34.436 0-1.336.184-2.07.655-2.07.275 0 .747-.209 1.297-.615 1.297-.825 3.432-1.86 6.575-3.09-.366-1.14-.654-2.267-.93-3.406-.746-1.337 0-1.86 2.136-1.86 2.043.104 2.868.72 2.685 2.16a7.186 7.186 0 0 0-.275 1.965c.183 0 .366 0 .55-.21.93-.313 1.86-.615 2.868-.929.367-3.406.55-5.881.655-7.322-1.663.314-3.34.72-4.82.93-4.362.616-7.047 1.546-8.252 2.685-1.297.93-2.227-.105-2.777-3.51-.746-3.301-.55-4.951.55-4.951 7.78-.72 16.124-2.882 25.398-6.288 1.48-.825 3.065.511 4.912 3.917 1.572 3.405 1.205 4.846-.93 4.021-1.664-.51-4.165-.105-7.505 1.231-.55.21-1.022.42-1.389.42-.183 0-.183.104-.091.104-.55 1.441-1.022 4.021-1.572 7.728 2.135-.419 4.073-.51 5.75-.419 5.095.93 6.955 2.161 5.842 3.707-.93 1.65-1.389 3.615-1.48 5.986-.367 2.37-.367 5.567-.184 9.182v2.685s.092 0 .367-.105c3.052-1.86 5.095-3.3 6.117-4.335 2.41-2.266 3.89-5.462 4.728-9.379.55-1.336 1.664-1.336 3.249 0 1.48 1.546 1.951 2.58 1.388 3.091-.55.42-1.205 1.337-1.951 2.79-.655 1.441-1.297 2.58-1.756 3.51-.746 1.035-1.113 2.372-1.296 3.708-.184.615-1.205 1.336-3.065 1.964-1.952.826-4.637.93-7.873.315-.183 5.567-.458 15.77-1.021 30.309 0 1.651-1.86 1.14-5.567-1.65-3.615-2.58-6.955-5.776-10.295-9.588-1.952.511-3.615 1.035-4.729 1.441-2.777 1.035-4.362 2.161-4.912 3.301-1.113 2.37-2.135 1.336-3.248-2.987h.013ZM75.68 97.05c-2.685 2.986-5.278 4.427-7.597 4.231-.366 0-.655 0-.655-.105-.55 5.357-.458 10.204.092 14.644 0 1.336 1.113 1.546 3.157.72 1.86-.825 4.165-1.44 6.955-2.056 2.79-.616 4.637-1.231 5.842-1.86.55-.21 1.388.825 2.318 2.777.93 2.266.655 3.405-.655 3.196-1.951.419-3.706.825-5.095 1.139 3.052 1.965 5.095 2.777 6.3 2.266 1.297-.615 1.952-6.902 2.135-19.176 0-2.777-.091-5.16-.091-7.426-.184 0-.184.104-.092.104-2.96 1.65-4.912 2.057-5.934 1.14-1.388-1.035-2.226-2.266-2.501-3.615-.55-1.65-.55-4.532-.092-8.973-1.113.42-2.227.826-3.052 1.035-.183 1.336-.275 2.79-.458 4.126-.55 1.86-.55 3.51-.092 4.847.367 1.44.183 2.475-.459 2.986h-.026Zm-3.431-4.021c.55-2.476.838-4.637 1.021-6.707-.183 0-.275.105-.183.105-2.594 1.035-3.982 2.266-4.545 3.406-.55 3.51-.93 6.81-.93 9.797 2.501-2.986 4.073-5.252 4.636-6.601Zm-2.777 15.259c-.55-1.545-.367-2.475.55-2.777 5.278-1.859 9.732-3.196 13.347-4.427 1.113-.419 1.663.315 1.952 1.965.183 1.86-.092 2.79-.55 2.79-4.912 1.336-9.366 2.777-13.531 4.126-.747.616-1.389.105-1.755-1.65l-.013-.027ZM83.84 82.825c-.746 4.532-.654 7.322.184 8.357.367.825 1.48.825 3.523-.105.184-.21.367-.314.655-.42-.183-4.426-.458-6.81-.838-7.216-.367-.826-1.572-1.035-3.523-.616Zm13.256 35.785c5.279-6.903 8.802-11.959 10.662-15.666 1.572-3.405 2.502-5.671 2.777-7.007.367-1.86 1.388-1.965 2.96-.511 1.48 1.545 2.594 2.58 3.432 3.09.746.617.458 1.337-.655 2.057-.458.315-1.022.721-1.388 1.232.183 0 .55 0 .93-.105 3.248-.825 6.575-.105 10.19 1.965 2.502 2.056 3.157 3.3 1.86 3.811-1.205.616-2.227 1.231-2.869 1.86-.93 1.035-2.685 3.511-5.278 7.427-.367.419-.747.825-.93 1.244.183.21.458.511.838.721 2.502 2.685 4.82 4.637 7.047 5.671 2.318 1.756 5.279 3.616 8.985 5.358 3.616 1.86 6.301 3.706 7.886 5.462.746.93.55 1.44-.459 1.65-1.572.314-5.475.105-11.683-.616-6.301-.825-9.182-1.86-8.803-3.3.367-2.987-1.205-5.567-4.82-7.938-1.296-.616-2.226-1.14-3.065-1.965-1.113 1.14-2.135 2.161-2.96 2.987-2.777 2.266-4.074 3.916-4.257 5.056 0 1.755-1.205 3.091-3.34 3.706-2.96.721-5.842.826-8.802.105-1.48 0-1.297-.511.458-1.964 2.135-1.337 4.166-2.476 5.842-3.301 1.664-.825 3.432-2.162 5.659-4.441a105.016 105.016 0 0 0 4.073-4.846c-.93-.616-1.663-1.14-2.226-1.86-1.756-1.86-3.34-2.79-4.637-2.986a25.387 25.387 0 0 1-4.545 4.23c-1.86 1.232-3.065 1.756-3.707 1.441-.93-.209-.655-1.035.838-2.58l-.013.013Zm4.912-44.024c2.318-2.58 6.3-9.483 11.867-20.617.55-1.44 1.952-1.23 4.165.511 2.135 1.755 2.502 2.987 1.297 3.615-1.113 1.035-2.227 2.686-3.432 5.161-1.48 2.37-3.052 4.847-4.637 7.112-1.86 2.371-1.663 3.707.551 3.812 1.571-.314 3.156-.51 4.636-.72.93-.511 1.572-1.336 2.135-2.685.93-1.65 1.952-2.686 3.34-3.51 1.297-.721 3.432.405 6.484 3.405 3.615 3.405 5.187 6.903 4.729 10.308-.184 2.266-2.135 2.58-5.751.93-3.981-1.44-5.462-2.37-4.257-2.777 1.022-.419 1.952-.825 2.869-1.23 1.48-.826 2.043-1.756 2.043-3.092-.183-1.231-.55-2.057-.838-2.58-1.86-1.14-3.34-1.337-4.257-.72-1.113.72-1.755 1.65-2.135 2.986-.55 1.44-.838 2.776-.747 4.23-.275 1.14-1.205 1.441-2.776.93-4.729-.406-9.274 1.231-13.806 4.742-.747.72-1.663.21-2.593-1.65-1.022-1.756-2.044-2.987-2.869-3.812-.93-.825-.655-1.546.838-2.266 1.297-.616 2.319-1.231 3.157-2.057l-.013-.026Zm13.347 40.212c2.502-4.126 3.524-6.811 2.96-7.833-.93-1.231-3.052-1.44-6.3-.406h-.367c-.746.721-1.388 1.651-2.043 2.686.183 1.65 1.205 2.881 2.96 3.811.747.511 1.664 1.14 2.777 1.755l.013-.013Zm3.34-28.869c-.93-.72-.655-1.14.747-1.23 4.453.93 8.343 2.37 11.867 4.02.275.21.367 1.65.183 4.428-.275 2.685-.746 4.23-1.388 4.636-.747.42-1.389.315-1.755-.51-.367-.616-.93-1.546-1.756-2.882-3.431-3.602-6.116-6.392-7.885-8.462h-.013Z" stroke="#231815" stroke-width="2" mask="url(#path-5-outside-1_799_36227)"/></svg>