<svg fill="none" xmlns="http://www.w3.org/2000/svg" viewBox="0 0 126 151"><g clip-path="url(#clip0_799_33623)" stroke="#231815" stroke-width="2"><path d="m111.769 141.909-63.357-3.526c-7.435-.416-13.572-7.668-13.722-16.201l-1.78-106.52C32.794 8.41 37.035 2.588 42.857 1.24l-31.87 7.335C5.15 9.923.907 15.762 1.024 23.014l1.78 106.52c.15 8.533 6.287 15.785 13.722 16.201l63.357 3.526a11.6 11.6 0 0 0 3.243-.266l31.887-7.352c-1.032.233-2.13.333-3.244.266Z" fill="#C860FF" stroke-miterlimit="10"/><path d="M109.474 4.484c7.435.416 13.573 7.668 13.723 16.201l1.779 106.521c.15 8.533-5.771 15.119-13.207 14.704l-63.356-3.527c-7.435-.416-13.573-7.668-13.723-16.201l-1.78-106.52C32.76 7.129 38.682.542 46.117.958l63.357 3.526Z" fill="#fff" stroke-miterlimit="10"/><path d="m111.719 142.009-63.356-3.526c-7.435-.416-13.573-7.668-13.69-16.201l-1.547-106.57c-.05-3.643.998-6.936 2.795-9.465 1.796-2.545 4.341-4.324 7.285-4.99L27.255 4.8c-5.888 1.314-10.18 7.17-10.08 14.455l1.547 106.57c.116 8.533 6.254 15.785 13.69 16.201l63.356 3.526a11.656 11.656 0 0 0 3.16-.249l15.952-3.543a11.662 11.662 0 0 1-3.161.249Z" fill="#fff" stroke-miterlimit="10"/><path d="M109.723 4.534c7.436.416 13.557 7.668 13.69 16.201l1.547 106.57c.116 8.533-5.805 15.12-13.24 14.704l-63.357-3.526c-7.435-.416-13.573-7.668-13.69-16.201l-1.546-106.57C33.01 7.179 38.932.592 46.367 1.008l63.356 3.526Z" fill="#fff" stroke-miterlimit="10"/><path d="M82.96 107.645a.777.777 0 0 1-.465-.15c-1.514-1.048-37.026-25.815-33.933-47.489 1.68-11.793 9.182-15.984 15.653-15.984 6.47 0 13.772 3.909 17.398 12.575 2.91-8.084 9.83-13.523 17.515-13.523 6.121 0 13.44 3.975 15.652 15.136 4.275 21.474-29.84 48.137-31.304 49.268a.828.828 0 0 1-.516.167Z" fill="#fff"/><path d="M53.27 57.462c3.06-21.407 26.78-19.012 32.285-.882 4.508-18.413 28.06-22.089 32.285-.881 4.209 21.207-30.988 48.436-30.988 48.436s-36.626-25.282-33.566-46.69l-.017.017Z" fill="#C860FF" stroke-linejoin="round"/></g><defs><clipPath id="clip0_799_33623"><path fill="#fff" transform="translate(.192 .11)" d="M0 0h125.615v150H0z"/></clipPath></defs></svg>