<svg fill="none" xmlns="http://www.w3.org/2000/svg" viewBox="0 0 280 506"><rect x=".5" y=".5" width="279" height="504.35" rx="4.5" fill="#F590A8"/><g clip-path="url(#clip0_799_40507)" stroke="#231815" stroke-miterlimit="10"><path d="M84.32 27.21c.34 1.64 1.95 2.83 3.83 2.84l103.68.44c1.88 0 3.5-1.17 3.85-2.81l4.41-20.48c.67-3.11-1.07-6.21-3.48-6.22L83.06.5C80.7.49 79.29 2.97 79.92 6l4.4 21.2v.01Z" fill="#00698A"/><path d="M116.48 17.4c.14 1.03.82 1.78 1.61 1.79l43.77.23c.79 0 1.48-.74 1.63-1.77l1.87-12.91c.28-1.96-.45-3.91-1.47-3.92L115.95.57c-.99 0-1.59 1.56-1.33 3.47l1.85 13.36h.01Zm69.19-7.19c0-1.42 1.16-2.56 2.58-2.55 1.42 0 2.56 1.16 2.55 2.58 0 1.42-1.16 2.56-2.57 2.55-1.42 0-2.56-1.16-2.55-2.58h-.01Zm-10.74-.02c0-1.42 1.16-2.56 2.58-2.55 1.42 0 2.56 1.16 2.55 2.58 0 1.42-1.16 2.56-2.58 2.55-1.42 0-2.56-1.16-2.55-2.58Zm-80.59-.28c0-1.42-1.15-2.57-2.56-2.57-1.42 0-2.57 1.15-2.57 2.56 0 1.42 1.15 2.57 2.56 2.57 1.42 0 2.57-1.15 2.57-2.56Zm10.73.02c0-1.42-1.15-2.57-2.56-2.57-1.42 0-2.57 1.15-2.57 2.56 0 1.42 1.15 2.57 2.56 2.57 1.42 0 2.57-1.15 2.57-2.56Z" fill="#FFE177"/></g><path d="M108.8 47.062h-2.736c.504 1.08 1.032 2.328 1.296 3.216l-1.776.768h1.992c.48-1.2.96-2.76 1.224-3.984Zm2.928 11.04h-2.736c-.36 2.328-1.488 4.704-4.056 6.288-.456-.696-1.488-1.8-2.208-2.352 1.92-.96 2.664-2.472 2.952-3.936h-2.496V55.27h2.64v-1.392h-3.36v-2.832h2.208c-.288-1.008-.84-2.376-1.32-3.432l1.344-.552h-1.848V44.23h3.36a28.167 28.167 0 0 0-1.104-1.896l2.808-1.128c.6.816 1.272 1.896 1.632 2.592l-.936.432h3.336v2.832h-2.304l2.256.48c-.528 1.2-1.08 2.448-1.584 3.504h1.896v2.832h-3.072v1.392h2.592v2.832Zm3.888-7.368v2.256h.984v-2.256h-.984Zm5.28 0h-.96v2.256h.96v-2.256Zm3.216 4.848h-3.288c1.128 1.992 2.88 3.912 4.656 5.064-.744.6-1.8 1.776-2.328 2.592-1.176-.96-2.256-2.352-3.216-3.888v4.896H116.6v-4.728c-1.272 1.632-2.76 3.048-4.32 4.032-.504-.768-1.536-1.968-2.256-2.592 2.256-1.176 4.416-3.24 5.784-5.376h-3.216v-7.44h4.008v-1.224h-4.296v-2.976h4.296v-2.496h3.336v2.496h4.8v2.976h-4.8v1.224h4.176v7.44Zm22.248-2.88v.744l.984-.024c-.12-.168-.24-.336-.36-.48l.552-.24h-1.176Zm-4.368-1.8h1.416v-.648h-1.416v.648Zm0-2.976v.624h1.416v-.624h-1.416Zm5.784 0h-1.416v.624h1.416v-.624Zm0 2.976v-.648h-1.416v.648h1.416Zm-8.832 5.088-.192-2.424c1.296 0 2.904-.024 4.656-.072v-.792h-4.104v-6.576h4.104v-.624h-4.416v-2.52h4.416V41.47h2.952v1.512h4.632v2.52h-4.632v.624h4.248v6.576h-.696c.648.888 1.248 1.896 1.584 2.64l-2.424 1.176c-.096-.24-.216-.528-.36-.816-3.528.144-7.128.216-9.768.288Zm6.6 5.28v-2.04h-2.688c.552.648 1.032 1.368 1.296 1.944l-.696.432c.696.024 1.416.024 1.632.024.336-.024.456-.096.456-.36Zm-13.824-8.112v.984h.912v-.984h-.912Zm0-3.192v.96h.912v-.96h-.912Zm4.104.96v-.96h-.984v.96h.984Zm0 3.216v-.984h-.984v.984h.984Zm12.912 1.8v.768h2.616v2.52h-2.616v2.136c0 1.416-.264 2.136-1.272 2.568-1.008.408-2.28.432-3.96.432-.096-.72-.408-1.608-.696-2.352l-1.128.696c-.336-.84-1.128-2.088-1.944-2.952l.912-.528H138.8v1.44h-3.528v3.576H132.2V60.67h-3.672v-3.024h3.672v-1.128h-2.88V47.59h2.88v-1.008h-3.312v-2.976h3.312v-2.112h3.072v2.112h3.24v2.976h-3.24v1.008h3.048v8.928h-3.048v1.128h3.528v-.936h6.744v-.768h3.192Zm24.024-3.24v.744l.984-.024c-.12-.168-.24-.336-.36-.48l.552-.24h-1.176Zm-4.368-1.8h1.416v-.648h-1.416v.648Zm0-2.976v.624h1.416v-.624h-1.416Zm5.784 0h-1.416v.624h1.416v-.624Zm0 2.976v-.648h-1.416v.648h1.416Zm-8.832 5.088-.192-2.424c1.296 0 2.904-.024 4.656-.072v-.792h-4.104v-6.576h4.104v-.624h-4.416v-2.52h4.416V41.47h2.952v1.512h4.632v2.52h-4.632v.624h4.248v6.576h-.696c.648.888 1.248 1.896 1.584 2.64l-2.424 1.176c-.096-.24-.216-.528-.36-.816-3.528.144-7.128.216-9.768.288Zm6.6 5.28v-2.04h-2.688c.552.648 1.032 1.368 1.296 1.944l-.696.432c.696.024 1.416.024 1.632.024.336-.024.456-.096.456-.36Zm-13.824-8.112v.984h.912v-.984h-.912Zm0-3.192v.96h.912v-.96h-.912Zm4.104.96v-.96h-.984v.96h.984Zm0 3.216v-.984h-.984v.984h.984Zm12.912 1.8v.768h2.616v2.52h-2.616v2.136c0 1.416-.264 2.136-1.272 2.568-1.008.408-2.28.432-3.96.432-.096-.72-.408-1.608-.696-2.352l-1.128.696c-.336-.84-1.128-2.088-1.944-2.952l.912-.528H165.2v1.44h-3.528v3.576H158.6V60.67h-3.672v-3.024h3.672v-1.128h-2.88V47.59h2.88v-1.008h-3.312v-2.976h3.312v-2.112h3.072v2.112h3.24v2.976h-3.24v1.008h3.048v8.928h-3.048v1.128h3.528v-.936h6.744v-.768h3.192Z" fill="#231815"/><path d="M15.5 199.99c0-68.759 55.74-124.5 124.5-124.5 68.759 0 124.5 55.741 124.5 124.5v120a4.5 4.5 0 0 1-4.5 4.5H20a4.5 4.5 0 0 1-4.5-4.5v-120Z" fill="#fff" stroke="#231815"/><g clip-path="url(#clip1_799_40507)"><path d="M128.25 163.63c7.99-21.76 27.76-21.05 40.24-11.23 12.49 9.82 16.73 36.07-4.07 54.57-16.43 14.61-36.78 17.33-36.78 17.33s-20.31-6.59-30.55-30.22c-10.23-23.63-.73-40.96 7.84-46.41 8.57-5.46 24.83-6.2 30.89 3.59" fill="#F590A8"/><path d="M128.25 163.63c7.99-21.76 27.76-21.05 40.24-11.23 12.49 9.82 16.73 36.07-4.07 54.57-16.43 14.61-36.78 17.33-36.78 17.33s-20.31-6.59-30.55-30.22c-10.23-23.63-.73-40.96 7.84-46.41 8.57-5.46 24.83-6.2 30.89 3.59" stroke="#231815" stroke-width=".75" stroke-linecap="round" stroke-linejoin="round"/><path d="M104.83 285.7c-3.28 0-5.87-.44-8.14-1.39-.52-.22-1.52-.69-2.29-1.37-.48-.43-.79-.87-.94-1.33-.5-1.56.4-3.35 1.46-4.34 1.15-1.09 2.63-1.69 4.06-2.27l.55-.22c.7-.29 1.43-.62 1.89-1.17.58-.69.38-1.3.1-2.15-.06-.2-.13-.4-.19-.6l-2.14-7.74c-.03-.11 0-.23.06-.33s.18-.15.3-.15l14.48-.05c.16 0 .31.1.36.26.66 2.61 1.31 5.19 1.93 7.77.17.71.36 1.43.55 2.14.22.85.44 1.69.64 2.53.52 2.21-.48 5.29-1.69 6.89-1.2 1.57-2.93 2.37-4.17 2.76-1.63.52-3.31.65-4.88.72-.64.03-1.28.04-1.92.04h-.02Z" fill="#333434"/><path d="M114.02 262.97v.01c.65 2.57 1.3 5.15 1.92 7.73.38 1.56.82 3.12 1.18 4.67.47 2.01-.4 4.96-1.63 6.58-.98 1.29-2.44 2.14-3.98 2.63-1.54.49-3.17.64-4.78.71-.63.03-1.26.04-1.9.04-2.74 0-5.49-.31-8-1.36-.65-.27-1.53-.72-2.18-1.31-.39-.35-.7-.74-.83-1.17-.45-1.38.37-3.02 1.36-3.96 1.24-1.18 2.91-1.76 4.49-2.42.75-.31 1.51-.66 2.03-1.28.87-1.04.29-1.99-.01-3.09-.33-1.2-.67-2.41-1-3.61l-1.14-4.12 14.48-.05m0-.75-14.48.05c-.23 0-.45.11-.59.3-.14.19-.19.43-.13.65l.57 2.06.57 2.06.33 1.2.67 2.41c.06.21.13.42.19.62.29.87.4 1.28-.03 1.79-.41.49-1.09.79-1.74 1.07l-.55.22c-1.46.59-2.97 1.2-4.18 2.34-1.14 1.08-2.11 3.02-1.55 4.73.17.52.52 1.02 1.05 1.49.81.72 1.84 1.21 2.39 1.44 2.32.97 4.96 1.42 8.29 1.42.61 0 1.24-.01 1.93-.05 1.52-.07 3.3-.21 4.98-.74 1.85-.59 3.36-1.59 4.35-2.89 1.3-1.7 2.31-4.86 1.76-7.2-.2-.85-.42-1.7-.64-2.54-.19-.71-.37-1.42-.54-2.14-.57-2.35-1.2-4.88-1.92-7.74a.769.769 0 0 0-.73-.58v.03Z" fill="#231815"/><path d="M181.39 286.92c-1.39 0-2.8-.1-4.17-.29-1.74-.24-3.92-.73-5.25-2.36-.88-1.06-1.31-2.58-1.23-4.26.03-.66.18-1.25.32-1.82.27-1.08.48-1.93-.15-2.84-.56-.8-1.18-1.59-1.78-2.35-.31-.39-.61-.77-.91-1.16l-3.63-4.72a.367.367 0 0 1-.04-.39c.06-.13.19-.21.33-.21l14.73-.34c.33 0 .64.3 1.51 1.48.1.14.18.25.22.29l3.22 3.68c.34.38.67.77 1 1.17.65.76 1.32 1.55 2.01 2.27.53.55 1.14 1.01 1.74 1.46 1 .75 2.03 1.53 2.74 2.75.86 1.46.97 3.22.29 4.47-.06.12-.14.23-.22.35-.84 1.18-2.29 1.67-3.6 1.98-2.32.56-4.72.85-7.12.85l-.01-.01Z" fill="#333434"/><path d="M179.62 266.55c.28 0 1.26 1.44 1.43 1.64 1.07 1.23 2.15 2.45 3.22 3.68 1 1.15 1.97 2.35 3.02 3.45 1.42 1.48 3.33 2.26 4.43 4.14.72 1.24.96 2.86.28 4.1-.06.11-.12.21-.19.31-.76 1.07-2.11 1.53-3.38 1.84-2.3.56-4.67.84-7.03.84-1.38 0-2.76-.1-4.12-.29-1.85-.26-3.82-.78-5.01-2.22-.9-1.1-1.21-2.59-1.14-4 .09-1.87 1.2-3.32.11-4.89-.84-1.21-1.81-2.35-2.7-3.52-1.21-1.57-2.42-3.15-3.63-4.72l14.73-.34m0-.75h-.01s-.26 0-14.73.34c-.28 0-.54.17-.66.43-.12.25-.09.56.08.78l3.45 4.49.18.23c.3.39.61.78.92 1.17.6.76 1.22 1.54 1.77 2.33.51.73.38 1.4.09 2.53-.14.56-.3 1.2-.33 1.9-.09 1.78.38 3.38 1.31 4.52 1.43 1.74 3.82 2.26 5.49 2.49 1.39.2 2.81.29 4.23.29 2.43 0 4.86-.29 7.21-.86 1.38-.33 2.9-.85 3.82-2.13.09-.12.17-.25.24-.39.74-1.37.63-3.26-.3-4.84-.75-1.28-1.81-2.08-2.84-2.86-.61-.46-1.19-.9-1.69-1.42-.69-.72-1.35-1.5-2-2.26-.33-.39-.67-.78-1-1.17l-1.61-1.84-1.61-1.84s-.11-.14-.2-.27c-.92-1.24-1.29-1.63-1.8-1.63l-.01.01Z" fill="#231815"/><path d="M185.71 264.16c.13-3.56-.85-7.55-1.56-10.27-1.43-5.5-3.9-10.71-6.96-15.49-3.53-5.51-7.82-10.47-12.34-15.18-1.56-1.63-5.42-4.18-5.19-6.47.12-1.19.31-2.38.5-3.57.1-.65-.4-1.24-1.06-1.24h-49.89c-.73.01-1.25.73-1.02 1.42l1.59 4.81s-.09.06-.26.18c-8.72 2.15-15.61 9.56-18.4 18.1-2.79 8.54-1.85 17.99 1.25 26.42 1.17 3.17 2.78 6.4 5.64 8.2 3.16 1.99 7.16 1.85 10.88 1.53 4.12-.35 8.89-1.18 11.19-5.06 1.83-3.09 1.04-7.35.94-10.76-.12-4.33.53-9.84 3.06-13.49 2.53-3.65 7.78-6.11 12.32-5.53 7.39.95 10.96 8.17 13.7 14.19 1.69 3.71 3.45 7.44 5.95 10.69 3.74 4.86 8.4 9.68 14.46 10.64 2.53.4 5.13.09 7.62-.49 4.48-1.04 7.41-3.94 7.59-8.62l-.01-.01Z" fill="#00698A" stroke="#231815" stroke-width=".75" stroke-linecap="round" stroke-linejoin="round"/><path d="m155.21 216.63-.13-3.27s6.28 1.48 13.99-1.65 8.89-13.31 16.9-19.63c8.01-6.32 25.72.61 37.86-5.02l3.72 10.37s-6.09 2.12-14.33 1.69c-8.24-.43-16.82-4.09-22.9-1.85-6.08 2.24-9.66 15.08-16.53 18.05-7.23 3.11-18.57 1.32-18.57 1.32l-.01-.01Z" fill="#E2CCAF" stroke="#231815" stroke-width=".75" stroke-linecap="round" stroke-linejoin="round"/><path d="m221.13 241.05 4.74-9.15s-5.66 2.59-13.37-.54c-7.71-3.13-8.65-10.93-16.9-16.93-9.91-7.22-26.83 7.36-40.42.83l-1.25 2.61c14.43 6.08 30.5-3.31 37.32-.05 5.85 2.79 9.49 15.05 16.53 19.35 6.71 4.1 13.35 3.88 13.35 3.88Z" fill="#E2CCAF" stroke="#231815" stroke-width=".75" stroke-linecap="round" stroke-linejoin="round"/><path d="m159.42 218.91.66-4.62a.768.768 0 0 0-.76-.88h-50.28c-.51.01-.88.5-.74.99l1.32 4.61c.09.33.4.56.74.56h48.3c.38 0 .71-.28.76-.66Z" fill="#E2CCAF" stroke="#231815" stroke-width=".75" stroke-linecap="round" stroke-linejoin="round"/><path d="M90.88 201.89c3.55 1.1 5.65 4.5 6.31 7.99.4 2.13.3 4.32.08 6.47-.23 2.18-.54 4.35-.88 6.51-.66 4.1-1.56 8.18-3.09 12.06-1.56 3.95-3.82 7.64-6.9 10.58-1.81 1.72-3.97 3.26-6.33 4.25-1.74.97-3.61 1.68-5.61 1.98-.72.11-1.25-.89-.73-1.42 5.32-5.43 8.49-12.9 8.52-20.53.02-4.52-1.05-8.95-2.04-13.33-.49-2.16-1.06-4.35-1.26-6.57-.17-1.88-.02-3.92 1.06-5.53 1.12-1.67 3.22-2.11 5.07-2.51 1.9-.41 3.91-.54 5.79.04l.01.01Z" fill="#FF002A" stroke="#231815" stroke-width=".75" stroke-linecap="round" stroke-linejoin="round"/><path d="M87.37 200.11c1.25-.05 3.47.74 3.82 2.05.07.24.08.46.06.67-.14 1.31-2.05 2.41-3.32 2.44-1.46.03-3.79-.19-4.36-1.79-.65-1.81 2.28-3.27 3.72-3.37h.08Z" fill="#81AA39" stroke="#231815" stroke-width=".75" stroke-linecap="round" stroke-linejoin="round"/><path d="M89.35 234.48c5.99-7.47 7.09-18.39 2.79-27.08a1.81 1.81 0 0 0-2.42-.84c-.97.46-1.32 1.69-.75 2.6 4.74 7.39 4.68 17.47-.09 24.99-.18.29.24.62.47.33Z" fill="#F590A8" stroke="#231815" stroke-width=".75" stroke-linecap="round" stroke-linejoin="round"/><path d="M86.7 198.94c-1.6 0-2.9-1.24-2.97-2.83l-.09-2.03a2.97 2.97 0 0 1 2.84-3.09h.13c1.6 0 2.9 1.24 2.97 2.83l.09 2.03a2.97 2.97 0 0 1-2.84 3.09h-.13Zm-.12-5.67c-.18 0-.35.09-.47.22s-.19.3-.18.48l.09 2.03c.02.36.31.64.68.64.4-.02.7-.33.68-.71l-.09-2.03a.673.673 0 0 0-.68-.64v-.5l-.03.5v.01Z" fill="#333434"/><path d="M86.61 191.49c1.31 0 2.41 1.03 2.47 2.35l.09 2.03c.06 1.36-1 2.51-2.36 2.57h-.11c-1.31 0-2.41-1.03-2.47-2.35l-.09-2.03c-.06-1.36 1-2.51 2.36-2.57h.11Zm.09 5.67h.05c.65-.03 1.16-.58 1.13-1.23l-.09-2.03c-.03-.63-.55-1.12-1.18-1.12h-.05c-.65.03-1.16.58-1.13 1.23l.09 2.03c.03.63.55 1.12 1.18 1.12Zm-.09-6.67h-.15c-.93.04-1.78.44-2.41 1.12-.63.68-.95 1.57-.91 2.49l.09 2.03c.08 1.86 1.6 3.31 3.47 3.31h.15c.93-.04 1.78-.44 2.41-1.12.63-.68.95-1.57.91-2.49l-.09-2.03a3.46 3.46 0 0 0-3.47-3.31Zm.09 5.67c-.09 0-.17-.07-.18-.17l-.09-2.03c0-.09.07-.18.17-.18s.18.07.19.17l.09 2.03c0 .1-.07.18-.17.18h-.01Z" fill="#231815"/><path d="M85.66 173.84c-1.59 0-2.9-1.24-2.97-2.83l-.09-2.03a2.97 2.97 0 0 1 2.84-3.09h.13c1.6 0 2.9 1.24 2.97 2.83l.09 2.03c.03.79-.24 1.55-.78 2.13-.54.58-1.27.92-2.06.96h-.13Zm-.12-5.67c-.37.02-.67.33-.65.7l.09 2.03c.02.36.31.64.68.64.21 0 .38-.09.5-.22s.19-.31.18-.49l-.09-2.03a.682.682 0 0 0-.68-.65v-.5l-.03.5v.02Z" fill="#333434"/><path d="M85.58 166.39c1.31 0 2.41 1.03 2.47 2.35l.09 2.03c.06 1.36-1 2.51-2.36 2.57h-.11c-1.31 0-2.41-1.03-2.47-2.35l-.09-2.03c-.06-1.36 1-2.51 2.36-2.57h.11Zm.09 5.67h.05c.65-.03 1.16-.58 1.13-1.23l-.09-2.03c-.03-.63-.55-1.12-1.18-1.12h-.05c-.65.03-1.16.58-1.13 1.23l.09 2.03c.03.63.55 1.12 1.18 1.12Zm-.09-6.67h-.15c-.93.04-1.78.44-2.41 1.12-.63.68-.95 1.57-.91 2.49l.09 2.03c.08 1.86 1.6 3.31 3.47 3.31h.15c.93-.04 1.78-.44 2.41-1.12.63-.68.95-1.57.91-2.49l-.09-2.03a3.46 3.46 0 0 0-3.47-3.31Zm.09 5.67c-.09 0-.17-.07-.18-.17l-.09-2.03c0-.06.02-.1.05-.12.02-.03.06-.06.13-.06.1 0 .18.07.19.17l.09 2.03c0 .06-.02.1-.05.12-.02.03-.06.06-.13.06h-.01Z" fill="#231815"/><path d="M86.04 182.34c-1.6 0-2.9-1.24-2.97-2.83l-.09-2.03a2.97 2.97 0 0 1 2.84-3.09h.13c1.6 0 2.9 1.24 2.97 2.83l.09 2.03a2.97 2.97 0 0 1-2.84 3.09h-.13Zm-.12-5.67c-.18 0-.35.09-.47.22s-.19.3-.18.48l.09 2.03c.02.36.31.64.68.64.21 0 .38-.09.51-.22.12-.13.18-.3.18-.48l-.09-2.03a.673.673 0 0 0-.68-.64v-.5l-.03.5h-.01Z" fill="#333434"/><path d="M85.95 174.88c1.31 0 2.41 1.03 2.47 2.35l.09 2.03c.06 1.36-1 2.51-2.36 2.57h-.11c-1.31 0-2.41-1.03-2.47-2.35l-.09-2.03c-.06-1.36 1-2.51 2.36-2.57h.11Zm.09 5.67h.05c.65-.03 1.16-.58 1.13-1.23l-.09-2.03c-.03-.63-.55-1.12-1.18-1.12h-.05c-.65.03-1.16.58-1.13 1.23l.09 2.03c.03.63.55 1.12 1.18 1.12Zm-.09-6.67h-.15c-.93.04-1.78.44-2.41 1.12-.63.68-.95 1.57-.91 2.49l.09 2.03a3.46 3.46 0 0 0 3.47 3.31h.15c.93-.04 1.78-.44 2.41-1.12.63-.68.95-1.57.91-2.49l-.09-2.03a3.46 3.46 0 0 0-3.47-3.31Zm.09 5.67c-.09 0-.17-.07-.18-.17l-.09-2.03c0-.09.07-.18.17-.18s.18.07.19.17l.09 2.03c0 .09-.07.18-.17.18h-.01Z" fill="#231815"/><path d="M86.41 190.73c-1.6 0-2.9-1.24-2.97-2.83l-.09-2.03a2.97 2.97 0 0 1 2.84-3.09h.13c1.6 0 2.9 1.24 2.97 2.83l.09 2.03a2.97 2.97 0 0 1-2.84 3.09h-.13Zm-.12-5.67c-.37.02-.67.33-.65.7l.09 2.03c.02.36.31.64.68.64.21 0 .38-.09.5-.22s.19-.3.18-.48L87 185.7a.682.682 0 0 0-.68-.65v-.5l-.03.5v.01Z" fill="#333434"/><path d="M86.32 183.28c1.31 0 2.41 1.03 2.47 2.35l.09 2.03c.06 1.36-1 2.51-2.36 2.57h-.11c-1.31 0-2.41-1.03-2.47-2.35l-.09-2.03c-.06-1.36 1-2.51 2.36-2.57h.11Zm.09 5.67h.05c.65-.03 1.16-.58 1.13-1.23l-.09-2.03c-.03-.63-.55-1.12-1.18-1.12h-.05c-.65.03-1.16.58-1.13 1.23l.09 2.03c.03.63.55 1.12 1.18 1.12Zm-.09-6.67h-.15c-1.91.08-3.4 1.7-3.32 3.61l.09 2.03a3.46 3.46 0 0 0 3.47 3.31h.15c.93-.04 1.78-.44 2.41-1.12.63-.68.95-1.57.91-2.49l-.09-2.03a3.46 3.46 0 0 0-3.47-3.31Zm.09 5.67c-.09 0-.17-.07-.18-.17l-.09-2.03c0-.09.07-.18.17-.18s.18.07.19.17l.09 2.03c0 .09-.07.18-.17.18h-.01Z" fill="#231815"/><path d="M85.56 169.6c-.61 0-1.12-.48-1.14-1.09l-.25-5.66c-.01-.31.09-.6.3-.82.21-.22.49-.36.79-.37.67 0 1.17.48 1.19 1.09l.25 5.66c.01.31-.09.6-.3.82-.21.22-.49.36-.79.37h-.05Z" fill="#3F4252"/><path d="M85.31 162.15c.34 0 .63.27.65.62l.25 5.66c.02.36-.26.66-.62.67h-.03c-.34 0-.63-.27-.65-.62l-.25-5.66c-.02-.36.26-.66.62-.67h.03Zm0-1h-.07c-.44.02-.84.21-1.14.53-.3.32-.45.74-.43 1.18l.25 5.66c.04.88.76 1.57 1.64 1.57h.07c.44-.02.84-.21 1.14-.53.3-.32.45-.74.43-1.18l-.25-5.66a1.64 1.64 0 0 0-1.64-1.57Z" fill="#231815"/><path d="M85.93 178.1c-.62 0-1.12-.48-1.15-1.09l-.25-5.66c-.01-.31.09-.6.3-.82.21-.22.49-.36.79-.37.67 0 1.17.48 1.19 1.09l.25 5.66c.01.31-.09.6-.3.82-.21.22-.49.36-.8.37h-.05.02Z" fill="#3F4252"/><path d="M85.68 170.64c.34 0 .63.27.65.62l.25 5.66c.02.36-.26.66-.62.67h-.03c-.34 0-.63-.27-.65-.62l-.25-5.66c-.02-.36.26-.66.62-.67h.03Zm0-1h-.07c-.44.02-.84.21-1.14.53-.3.32-.45.74-.43 1.18l.25 5.66c.04.88.76 1.57 1.64 1.57H86c.44-.02.84-.21 1.14-.53.3-.32.45-.74.43-1.18l-.25-5.66a1.64 1.64 0 0 0-1.64-1.57Z" fill="#231815"/><path d="M86.3 186.49c-.62 0-1.12-.48-1.15-1.09l-.25-5.66c-.01-.31.09-.6.3-.82.21-.22.49-.36.79-.37.67 0 1.17.48 1.19 1.09l.25 5.66c.01.31-.09.6-.3.82-.21.23-.49.36-.79.37h-.05.01Z" fill="#3F4252"/><path d="M86.05 179.04c.34 0 .63.27.65.62l.25 5.66c.02.36-.26.66-.62.67h-.03c-.34 0-.63-.27-.65-.62l-.25-5.66c-.02-.36.26-.66.62-.67h.03Zm0-1h-.07c-.91.04-1.61.81-1.57 1.72l.25 5.66c.04.88.76 1.57 1.64 1.57h.07c.44-.02.84-.21 1.14-.53.3-.32.45-.74.43-1.18l-.25-5.66a1.64 1.64 0 0 0-1.64-1.57v-.01Z" fill="#231815"/><path d="M86.67 194.98c-.62 0-1.12-.48-1.15-1.09l-.25-5.66c-.01-.31.09-.6.3-.82.21-.22.49-.36.79-.37.67 0 1.17.48 1.19 1.09l.25 5.66c.01.31-.09.6-.3.82-.21.22-.49.36-.79.37h-.05.01Z" fill="#3F4252"/><path d="M86.43 187.53c.34 0 .63.27.65.62l.25 5.66c.02.36-.26.66-.62.67h-.03c-.34 0-.63-.27-.65-.62l-.25-5.66c-.02-.36.26-.66.62-.67h.03Zm0-1h-.07c-.44.02-.84.21-1.14.53-.3.32-.45.74-.43 1.18l.25 5.66c.04.88.76 1.57 1.64 1.57h.07c.44-.02.84-.21 1.14-.53.3-.32.45-.74.43-1.18l-.25-5.66a1.64 1.64 0 0 0-1.64-1.57Z" fill="#231815"/><path d="M87.04 203.59c-.62 0-1.12-.48-1.15-1.09l-.25-5.66c-.01-.31.09-.6.3-.82.21-.22.49-.36.79-.37.67 0 1.17.48 1.19 1.09l.25 5.66c.01.31-.09.6-.3.82-.21.22-.49.36-.79.37h-.05.01Z" fill="#3F4252"/><path d="M86.79 196.14c.34 0 .63.27.65.62l.25 5.66c.02.36-.26.66-.62.67h-.03c-.34 0-.63-.27-.65-.62l-.25-5.66c-.02-.36.26-.66.62-.67h.03Zm0-1h-.07c-.91.04-1.61.81-1.57 1.72l.25 5.66c.04.88.76 1.57 1.64 1.57h.07c.44-.02.84-.21 1.14-.53.3-.32.45-.74.43-1.18l-.25-5.66a1.64 1.64 0 0 0-1.64-1.57v-.01Z" fill="#231815"/><path d="M74.05 233.79c-.22-1.86-.86-3.66-2.08-5.22-.31-.4-1.25-.31-1.17.28.13.97.03 1.93-.31 2.85-.05-.6-.21-1.19-.38-1.68-.5-1.41-1.42-2.64-2.38-3.83-1.76-2.17-4.32-5.13-2.56-7.87.32-.51-.33-1.1-.92-.8-2.74 1.39-4.99 3.67-5.74 6.39a7.4 7.4 0 0 0-.16 3.14c-.92-.64-1.9-1.22-2.93-1.73-.52-.25-1.07.07-1.11.56-.04.42.12.78.27 1.17.17.44.26.88.28 1.34.03.84-.15 1.66-.41 2.46-1.38 4.16-3.98 9.88.58 13.3 5.95 4.47 16.28 2.71 18.38-4.17.6-1.97.88-4.11.64-6.18v-.01Z" fill="#FF002A" stroke="#231815" stroke-width=".75" stroke-linecap="round" stroke-linejoin="round"/><path d="M69.76 234.71c-.14-.37-.72-.55-.93-.12-.38.76-.97 1.37-1.71 1.76.06-.67.08-1.34-.02-2.01-.13-.89-.53-1.64-1.11-2.32-.55-.65-1.21-1.2-1.64-1.95-.45-.79-.62-1.68-.55-2.58.03-.39-.44-.6-.75-.43-1.32.73-2.17 2.06-2.54 3.49-.27 1.04-.3 2.1-.22 3.17-.52-.74-1.11-1.43-1.76-2.06-.37-.35-.9 0-.81.47.23 1.16-.43 2.31-.6 3.44-.14.95-.07 1.93.2 2.86.51 1.79 1.71 3.46 3.35 4.37 1.55.86 3.91.72 5.53.08 1.99-.79 3.43-2.56 3.84-4.66.23-1.18.16-2.4-.28-3.53v.02Z" fill="#F590A8" stroke="#231815" stroke-width=".75" stroke-linecap="round" stroke-linejoin="round"/><path d="M99.51 124.5c-1.29-.74-3.22-1.66-4.56-.56-.19.16-.31.5-.17.73.93 1.58 1.79 3.29 1.95 5.14.15 1.79-.61 3.43-1.36 5.01-.76 1.61-1.5 3.26-1.5 5.07 0 1.73.78 3.31 2.3 4.18 5.92 3.4 13.91-5.54 10.67-11.21-.24-.42-1.02-.57-1.18.03-.1.39-.25.75-.43 1.09-.1-2.36-.97-4.67-2.41-6.56-.89-1.17-2.02-2.2-3.31-2.93v.01Z" fill="#FF002A" stroke="#231815" stroke-width=".75" stroke-linecap="round" stroke-linejoin="round"/><path d="M103.89 135.9c-.57.41-1.15.78-1.76 1.12.19-1.16.15-2.35.02-3.52-.18-1.67-.6-3.45-1.99-4.54-.35-.27-.86.03-.81.46.19 1.74.38 3.54-.04 5.27-.15.62-.51 1.27-.83 1.92-.45.9-1.36 1.84-1.39 2.9-.03 1.31 1.28 2.04 2.45 1.99 1.21-.05 2.42-.7 3.29-1.52 1.01-.96 1.69-2.2 1.91-3.58.07-.47-.48-.76-.85-.5Z" fill="#F590A8" stroke="#231815" stroke-width=".75" stroke-linecap="round" stroke-linejoin="round"/><path d="M156.85 189.54a344.444 344.444 0 0 0-54.49 42.96l-.05.05c-1.46 1.41-3.11 3.01-5.27 3.99-1.25.56-2.55.84-3.8.84-1.62 0-3.16-.47-4.4-1.39a2.635 2.635 0 0 1-.54-3.69 2.635 2.635 0 0 1 3.69-.54c.62.46 1.8.45 2.87-.03 1.33-.6 2.52-1.75 3.78-2.97l.05-.05a350.238 350.238 0 0 1 55.32-43.62" fill="#F590A8"/><path d="M156.85 189.54a344.444 344.444 0 0 0-54.49 42.96l-.05.05c-1.46 1.41-3.11 3.01-5.27 3.99-1.25.56-2.55.84-3.8.84-1.62 0-3.16-.47-4.4-1.39a2.635 2.635 0 0 1-.54-3.69 2.635 2.635 0 0 1 3.69-.54c.62.46 1.8.45 2.87-.03 1.33-.6 2.52-1.75 3.78-2.97l.05-.05a350.238 350.238 0 0 1 55.32-43.62" stroke="#231815" stroke-width=".75" stroke-linecap="round" stroke-linejoin="round"/><path d="m96.86 195.41-19.95.45c-.26 0-.83.06-1.43.11-1.58.14-3.01.26-4.28.26-2.7 0-4.63-.5-5.5-2.24-1-2.01 0-4.8 1.64-8.82.24-.59.47-1.15.56-1.41 3.88-11.85 9.06-23.29 15.38-34 .58-.97 1.49-1.61 2.59-1.79 1.26-.21 2.62.22 3.73 1.17 1.73 1.49 2.14 4.16.93 6.1a2.65 2.65 0 0 1-3.64.84c-.3-.19-.56-.43-.75-.71-5.37 9.53-9.81 19.62-13.22 30.04-.14.44-.38 1.03-.68 1.76-.33.8-1.04 2.55-1.41 3.8 1.34.02 3.29-.16 4.18-.24.76-.07 1.35-.12 1.79-.13l18.03-.45" fill="#F590A8"/><path d="m96.86 195.41-19.95.45c-.26 0-.83.06-1.43.11-1.58.14-3.01.26-4.28.26-2.7 0-4.63-.5-5.5-2.24-1-2.01 0-4.8 1.64-8.82.24-.59.47-1.15.56-1.41 3.88-11.85 9.06-23.29 15.38-34 .58-.97 1.49-1.61 2.59-1.79 1.26-.21 2.62.22 3.73 1.17 1.73 1.49 2.14 4.16.93 6.1a2.65 2.65 0 0 1-3.64.84c-.3-.19-.56-.43-.75-.71-5.37 9.53-9.81 19.62-13.22 30.04-.14.44-.38 1.03-.68 1.76-.33.8-1.04 2.55-1.41 3.8 1.34.02 3.29-.16 4.18-.24.76-.07 1.35-.12 1.79-.13l18.03-.45" stroke="#231815" stroke-width=".75" stroke-linecap="round" stroke-linejoin="round"/><path d="M88.66 160.44c2.59-2.48 2.96-6.32 2.03-9.63-.56-2.02-1.6-3.87-2.71-5.63a109.91 109.91 0 0 0-3.56-5.25c-2.33-3.27-4.87-6.41-7.85-9.11-3.04-2.75-6.59-4.98-10.52-6.19-2.3-.71-4.84-1.12-7.3-.96-1.93-.09-3.84.1-5.7.7-.67.21-.7 1.31-.02 1.54 6.94 2.41 12.89 7.52 16.19 14.1 1.96 3.91 2.94 8.19 3.96 12.41.51 2.08.96 4.22 1.73 6.23.66 1.7 1.67 3.4 3.29 4.33 1.69.96 3.7.44 5.47-.01 1.82-.47 3.62-1.21 5-2.52l-.01-.01Z" fill="#FF002A" stroke="#231815" stroke-width=".75" stroke-linecap="round" stroke-linejoin="round"/><path d="M86.39 163.49c1.11-.5 2.68-2.13 2.43-3.42-.05-.23-.13-.44-.24-.61-.69-1.07-2.81-1.2-3.92-.68-1.27.6-3.19 1.79-3.01 3.42.21 1.84 3.37 1.85 4.67 1.32.02 0 .05-.02.07-.03Z" fill="#81AA39" stroke="#231815" stroke-width=".75" stroke-linecap="round" stroke-linejoin="round"/><path d="M73.34 132.89c8.39 3.89 14.03 12.87 14.04 22.23.01.97-.77 1.76-1.73 1.77-1.04.02-1.87-.9-1.76-1.93.92-8.43-3.46-17.13-10.82-21.59-.28-.17-.06-.64.27-.49v.01Z" fill="#F590A8" stroke="#231815" stroke-width=".75" stroke-linecap="round" stroke-linejoin="round"/><path d="M85.56 181.04c-.62 0-1.12-.48-1.15-1.09l-.25-5.66c-.01-.31.09-.6.3-.82.21-.22.49-.36.79-.37.67 0 1.17.48 1.19 1.09l.25 5.66c.03.63-.46 1.16-1.09 1.19h-.05.01Z" fill="#3F4252"/><path d="M85.31 173.58c.34 0 .63.27.65.62l.25 5.66c.02.36-.26.66-.62.67h-.03c-.34 0-.63-.27-.65-.62l-.25-5.66c-.02-.36.26-.66.62-.67h.03Zm0-1h-.07c-.91.04-1.61.81-1.57 1.72l.25 5.66c.04.88.76 1.57 1.64 1.57h.07c.44-.02.84-.21 1.14-.53.3-.32.45-.74.43-1.18l-.25-5.66a1.64 1.64 0 0 0-1.64-1.57v-.01Z" fill="#231815"/><path d="m119.66 183.09-.31 2.48a2.435 2.435 0 0 1-2.71 2.1 2.435 2.435 0 0 1-2.1-2.71l.31-2.48" stroke="#231815" stroke-width="2" stroke-linecap="round" stroke-linejoin="round"/><path d="M114.47 178.03c-1.66 0-3.01-1.35-3.01-3.01 0-1.66 1.35-3.01 3.01-3.01 1.66 0 3.01 1.35 3.01 3.01 0 1.66-1.35 3.01-3.01 3.01Z" fill="#333434"/><path d="M114.47 172.38c1.46 0 2.64 1.18 2.64 2.64 0 1.46-1.18 2.64-2.64 2.64-1.46 0-2.64-1.18-2.64-2.64 0-1.46 1.18-2.64 2.64-2.64Zm0-.75c-1.87 0-3.39 1.52-3.39 3.39s1.52 3.39 3.39 3.39 3.39-1.52 3.39-3.39-1.52-3.39-3.39-3.39Z" fill="#231815"/><path d="M122.39 179.2c-1.66 0-3.01-1.35-3.01-3.01 0-1.66 1.35-3.01 3.01-3.01 1.66 0 3.01 1.35 3.01 3.01 0 1.66-1.35 3.01-3.01 3.01Z" fill="#333434"/><path d="M122.39 173.55c1.46 0 2.64 1.18 2.64 2.64 0 1.46-1.18 2.64-2.64 2.64-1.46 0-2.64-1.18-2.64-2.64 0-1.46 1.18-2.64 2.64-2.64Zm0-.75c-1.87 0-3.39 1.52-3.39 3.39s1.52 3.39 3.39 3.39 3.39-1.52 3.39-3.39-1.52-3.39-3.39-3.39Z" fill="#231815"/></g><path d="M26.547 344.522h-5.824v.644h5.824v-.644Zm-5.824 2.38h5.824v-.644h-5.824v.644Zm0 1.778h5.824v-.672h-5.824v.672Zm-1.61 1.68v-7.014h9.1v6.944h-1.666v-.406h-5.824v.476h-1.61Zm7.672-10.584v1.092H20.47v-1.092h6.314Zm-.014 2.842h-6.286v-1.106h6.286v1.106Zm-8.596-4.662h10.892v5.012h-1.68v-3.836h-7.602v3.85h-1.61v-5.026Zm21.28 2.492h2.996a14.213 14.213 0 0 1-1.652-1.26c-.42.448-.868.868-1.344 1.26Zm-.588 1.246v-.812c-.434.308-.91.602-1.386.854-.21-.294-.686-.798-1.022-1.092-.154.518-.28 1.022-.42 1.456.714 1.078.854 2.086.854 2.884 0 .924-.154 1.526-.56 1.848-.196.168-.448.266-.742.308-.224.042-.532.042-.812.042-.014-.406-.126-1.022-.336-1.442.21.028.364.028.518.014a.454.454 0 0 0 .322-.112c.154-.126.21-.434.21-.854 0-.644-.112-1.568-.784-2.534.224-.84.476-1.988.672-2.912h-1.022v11.004h-1.386v-12.488h2.842l.224-.056 1.036.602c-.182.658-.392 1.4-.588 2.128 1.596-.826 3.066-2.128 3.85-3.402l1.596.56c-.084.14-.168.294-.266.434 1.036.84 2.562 1.666 3.934 2.114a7.609 7.609 0 0 0-.63 1.582 16.88 16.88 0 0 1-1.988-1.036v.91h-4.116Zm3.57 1.82v1.288h.98v-1.288h-.98Zm-1.204 2.394v-3.514h3.472v3.514h-3.472Zm-2.814-2.394v1.288h.938v-1.288h-.938Zm-1.19 2.394v-3.514h3.374v3.514h-3.374Zm1.092.154 1.456.308c-.084.28-.196.56-.308.826.49.322 1.036.714 1.33 1.008l-.84 1.106c-.238-.28-.672-.644-1.106-.966a7.132 7.132 0 0 1-2.002 2.086c-.224-.28-.756-.826-1.078-1.05 1.232-.728 2.128-1.904 2.548-3.318Zm3.864-.014 1.498.21a7.54 7.54 0 0 1-.322 1.134c.784.546 1.694 1.204 2.17 1.68l-.98 1.12c-.392-.42-1.078-.994-1.778-1.512-.42.7-.938 1.288-1.554 1.736-.21-.28-.742-.84-1.064-1.05 1.092-.714 1.764-1.89 2.03-3.318Zm12.39-5.824h5.67s-.014.574-.042.798c-.28 5.572-.56 7.672-1.176 8.4-.42.546-.826.7-1.428.784-.518.07-1.386.07-2.24.028-.028-.504-.252-1.246-.574-1.722.882.07 1.708.07 2.072.07.294 0 .462-.042.658-.224.42-.434.7-2.268.924-6.426h-3.92c-.224 2.898-1.204 6.3-5.138 8.526-.266-.42-.896-1.05-1.302-1.358 3.472-1.89 4.41-4.718 4.648-7.168h-4.214v-1.708h4.284v-2.884h1.778v2.884Z" fill="#231815"/><g clip-path="url(#clip2_799_40507)"><path d="M72.784 335.49c.85 0 2.2 2.79 2.91 3.15.49.25 2.39-.54 2.78-.16.39.38-.17 2.53.08 3.05.35.7 3.14 1.8 3.14 2.64 0 .87-2.86 2.13-3.23 2.85-.26.5.42 2.5.02 2.89-.4.39-2.52-.26-3.05-.01-.68.32-1.77 2.94-2.57 2.94-.8 0-2.04-2.63-2.73-2.96-.52-.25-2.53.46-2.93.07-.4-.39.31-2.39.05-2.9-.36-.71-3.11-1.95-3.11-2.8 0-.85 2.65-1.98 2.98-2.66.26-.53-.42-2.61-.01-3.02.41-.41 2.36.3 2.86.04.71-.36 1.675-3.11 2.525-3.11l.285-.01Z" fill="#00698A" stroke="#231815" stroke-miterlimit="10"/></g><g clip-path="url(#clip3_799_40507)"><path d="M93.345 335.49c.85 0 2.2 2.79 2.91 3.15.49.25 2.39-.54 2.78-.16.39.38-.17 2.53.08 3.05.35.7 3.14 1.8 3.14 2.64 0 .87-2.86 2.13-3.23 2.85-.26.5.42 2.5.02 2.89-.4.39-2.52-.26-3.05-.01-.68.32-1.77 2.94-2.57 2.94-.8 0-2.04-2.63-2.73-2.96-.52-.25-2.53.46-2.93.07-.4-.39.31-2.39.05-2.9-.36-.71-3.11-1.95-3.11-2.8 0-.85 2.65-1.98 2.98-2.66.26-.53-.42-2.61-.01-3.02.41-.41 2.36.3 2.86.04.71-.36 1.97-3.11 2.82-3.11l-.01-.01Z" fill="#00698A" stroke="#231815" stroke-miterlimit="10"/></g><path d="m165.733 346.322 1.484.504c-.574.784-1.4 1.764-2.058 2.338-.28-.266-.896-.714-1.26-.938a9.44 9.44 0 0 0 1.834-1.904Zm4.676.672 1.204-.7c.63.644 1.526 1.554 1.988 2.128l-1.288.784c-.42-.56-1.26-1.526-1.904-2.212Zm.392-3.206v-.518h-3.598v.518h3.598Zm0 1.456v-.532h-3.598v.532h3.598Zm-6.552-6.342v3.108c0 .378-.014.784-.028 1.204a7.623 7.623 0 0 0 1.204-.728c-.266-.224-.56-.462-.826-.644l.84-.742c.266.168.588.392.868.602.21-.21.406-.434.574-.672h-2.142v-1.246h2.884c.112-.294.224-.588.308-.882h-3.682Zm5.292 2.128h-.938c-.266.434-.56.854-.91 1.26h2.702a7.67 7.67 0 0 1-.854-1.26Zm3.08 0h-1.568c.21.28.462.546.742.798.294-.266.616-.574.826-.798Zm.07 0 .91.672c-.294.28-.63.56-.952.798.42.266.868.504 1.33.658a4.81 4.81 0 0 0-.966 1.176 6.639 6.639 0 0 1-.756-.406v2.296h-2.45v1.792c0 .686-.126 1.022-.644 1.246-.476.21-1.106.21-1.946.21-.098-.42-.336-.966-.518-1.33.518.014 1.092.014 1.274.014.168 0 .224-.056.224-.196v-1.736h-2.38v-2.31c-.266.182-.546.35-.84.504a3.555 3.555 0 0 0-.77-.91c-.14 2.03-.63 4.396-2.044 5.95-.21-.308-.84-.91-1.148-1.106.924-1.022 1.344-2.324 1.54-3.626-.504.308-.994.602-1.484.868l-.462-1.498c.546-.224 1.302-.602 2.1-1.008.014-.364.014-.728.014-1.078v-.476l-1.232.56c-.14-.714-.476-1.918-.77-2.814l1.232-.49c.266.784.588 1.792.77 2.478v-3.766h4.648l-.28-.84 1.694-.336c.14.364.28.784.406 1.176h4.578v1.4h-5.264l.98.126c-.084.266-.182.504-.28.756h4.438v1.246h-.952Zm7.728 8.162-1.26-.7c.49-.504.952-1.316 1.204-2.002l1.246.546c-.294.714-.686 1.596-1.19 2.156Zm4.368-4.522v-2.716h1.176v2.716h-1.176Zm3.346-2.856v3.136c0 .588-.084.854-.49 1.036-.392.182-.91.182-1.638.182-.056-.336-.238-.77-.406-1.078.448.014.882.014 1.036 0 .14-.014.182-.042.182-.168v-3.108h1.316Zm-4.746 4.606 1.05-.658c.434.364 1.05.924 1.344 1.288l-1.078.728c-.28-.392-.854-.952-1.316-1.358Zm-1.764-2.24h1.4v-.392h-1.386c0 .126 0 .266-.014.392Zm1.4-1.442h-1.386v.35h1.386v-.35Zm1.19-.812v3.234c0 .476-.084.658-.406.798-.28.14-.728.14-1.316.14-.028-.266-.168-.574-.28-.812.28.014.574.014.672.014.098 0 .14-.028.14-.14v-.28h-1.484c-.112.504-.322.966-.742 1.33-.196-.224-.714-.63-.98-.784.602-.462.644-1.078.644-1.68v-1.82h3.752Zm-.476 6.272h1.54c.364 0 .448-.112.49-.84.266.182.798.336 1.148.406-.14 1.19-.49 1.498-1.498 1.498h-1.862c-1.414 0-1.75-.322-1.75-1.4v-1.33h1.358v1.316c0 .322.084.35.574.35Zm2.674-1.26 1.19-.532c.518.658 1.134 1.554 1.414 2.156l-1.26.588c-.238-.574-.826-1.526-1.344-2.212Zm-3.024-6.272h2.142a18.048 18.048 0 0 1-1.148-.588c-.322.21-.644.406-.994.588Zm-3.64-1.708v1.694c1.47-.364 3.108-.938 4.158-1.694h-4.158Zm5.698.28-.14.14a17.324 17.324 0 0 0 3.962 1.19c-.308.28-.686.742-.868 1.134a20.442 20.442 0 0 1-2.212-.742v.602h-3.668v-.476c-.686.28-1.4.546-2.086.742a4.917 4.917 0 0 0-.686-.924v1.162c0 2.226-.294 5.488-2.086 7.434-.21-.308-.84-.896-1.148-1.092.924-1.022 1.344-2.338 1.54-3.654-.504.308-.994.616-1.484.896l-.462-1.498c.546-.238 1.302-.616 2.1-1.008.014-.378.014-.742.014-1.078v-.49l-1.232.574c-.07-.742-.392-1.918-.756-2.814l1.19-.504c.35.784.672 1.764.798 2.45v-3.724h4.83a11.057 11.057 0 0 0-.294-.952l1.68-.322c.154.392.322.854.448 1.274h4.242v1.4h-4.256l.574.28Zm12.81.056h5.67s-.014.574-.042.798c-.28 5.572-.56 7.672-1.176 8.4-.42.546-.826.7-1.428.784-.518.07-1.386.07-2.24.028-.028-.504-.252-1.246-.574-1.722.882.07 1.708.07 2.072.07.294 0 .462-.042.658-.224.42-.434.7-2.268.924-6.426h-3.92c-.224 2.898-1.204 6.3-5.138 8.526-.266-.42-.896-1.05-1.302-1.358 3.472-1.89 4.41-4.718 4.648-7.168h-4.214v-1.708h4.284v-2.884h1.778v2.884Z" fill="#231815"/><g clip-path="url(#clip4_799_40507)" stroke="#231815" stroke-miterlimit="10"><path d="M219.405 335.49c-1.34 0-2.54.55-3.41 1.44a4.741 4.741 0 0 0-3.41-1.44c-2.64 0-4.77 2.13-4.77 4.77 0 4.79 8.18 10.62 8.18 10.62s8.18-5.83 8.18-10.62a4.77 4.77 0 0 0-4.77-4.77Z" fill="#FF002A"/><path d="M215.995 336.93c.87-.89 2.07-1.44 3.41-1.44a4.77 4.77 0 0 1 4.77 4.77c0 4.79-8.18 10.62-8.18 10.62v-13.95Z" fill="#fff"/></g><path d="M15.5 368.35a4.5 4.5 0 0 1 4.5-4.5h44.5v33H20a4.5 4.5 0 0 1-4.5-4.5v-24Z" fill="#00698A"/><path d="M33.778 377.916v-.798H31.86v.798h1.918Zm0 2.212v-.868H31.86v.868h1.918Zm0 2.226v-.882H31.86v.882h1.918Zm-3.528 1.988v-5.81c-.238.28-.476.518-.714.756-.154-.336-.616-1.162-.896-1.526 1.12-1.008 2.128-2.604 2.688-4.242l1.512.42c-.21.602-.476 1.19-.756 1.778h2.086a13.32 13.32 0 0 0-.658-1.512l1.568-.448c.35.602.714 1.372.896 1.96h2.212v1.4H35.36v.798h2.254v1.344H35.36v.868h2.198v1.344H35.36v.882h2.982v1.4H31.86v.588h-1.61Zm-1.68-8.526-1.526.532c-.154-.63-.518-1.652-.756-2.408l1.47-.448c.266.756.616 1.694.812 2.324Zm.126 3.962.714.252c-.252 1.274-.63 2.59-1.106 3.64.224.14.49.336.868.56.952.574 2.268.658 3.906.658 1.61 0 4.116-.14 5.656-.364-.182.448-.462 1.26-.476 1.708-1.162.07-3.626.168-5.264.168-1.862 0-3.038-.154-4.046-.742-.588-.322-1.078-.784-1.372-.784-.322 0-.812.952-1.162 1.75l-1.106-1.582c.476-.588.994-1.05 1.47-1.33.308-.7.588-1.582.798-2.436h-1.764c.322-.826.7-1.946 1.008-3.038h-1.26v-1.484h3.276c-.294.98-.63 2.1-.952 3.08h.56l.252-.056Zm15.652-6.23 1.554.518a21.66 21.66 0 0 1-1.358 2.66v9.842h-1.582v-7.546c-.448.56-.882 1.05-1.344 1.484-.154-.406-.616-1.316-.882-1.736 1.428-1.232 2.814-3.22 3.612-5.222Zm5.026 11.228h2.044c.714 0 .826-.588.952-2.898.378.294 1.036.616 1.47.7-.182 2.702-.602 3.668-2.296 3.668h-2.338c-1.722 0-2.212-.56-2.212-2.464v-10.024h1.61v3.556h4.872v1.596h-4.872v4.9c0 .826.098.966.77.966Z" fill="#fff"/><path d="M15.5 368.35a4.5 4.5 0 0 1 4.5-4.5h44.5v33H20a4.5 4.5 0 0 1-4.5-4.5v-24Z" stroke="#231815"/><path d="M64.5 363.85H260a4.5 4.5 0 0 1 4.5 4.5v24a4.5 4.5 0 0 1-4.5 4.5H64.5v-33Z" fill="#fff"/><path d="m79.768 375.592.854-.308c-.798.042-1.582.098-2.38.126.28.35.532.756.63 1.064l-.588.252h2.044c-.112-.35-.336-.784-.56-1.134Zm1.176 1.134H83.1c.308-.504.714-1.204.966-1.778-.91.112-1.89.21-2.884.294.28.378.532.84.602 1.176l-.84.308ZM76.604 378v1.288h-1.582v-2.562h2.31a5.052 5.052 0 0 0-.588-.98l.714-.308-1.722.042a4.371 4.371 0 0 0-.322-1.204c3.43-.07 7.504-.336 9.8-.798l1.106 1.106c-.546.112-1.148.224-1.778.294l1.246.406c-.35.504-.714 1.008-1.05 1.442h2.254v2.758h-1.33c.378.35.686.7.882 1.008l-1.19.896c-.406-.658-1.33-1.596-2.142-2.24l1.12-.798c.322.238.672.532 1.008.826V378h-3.794c.378.196.7.42.938.616l-.826.924c-.434-.378-1.288-.896-2.002-1.204l.308-.336h-3.36Zm.476.476 1.26.546c-.308.798-.756 1.652-1.498 2.226l-1.162-.896c.63-.42 1.134-1.162 1.4-1.876Zm1.918 4.452-.028.014c.658.406 1.4.728 2.226 1.022.686-.294 1.274-.63 1.764-1.036h-3.962Zm5.432-1.246 1.05.686c-.588.868-1.358 1.568-2.296 2.142 1.302.252 2.744.434 4.298.518-.336.378-.742 1.078-.938 1.54-2.072-.168-3.92-.518-5.53-1.064-1.666.574-3.57.91-5.544 1.106-.14-.378-.532-1.05-.84-1.386 1.568-.084 3.08-.28 4.424-.588a9.76 9.76 0 0 1-1.414-.91c-.504.266-1.008.49-1.484.686-.266-.294-.812-.854-1.148-1.092.518-.154 1.036-.35 1.512-.574a10.509 10.509 0 0 1-.854-1.036l1.316-.532c.238.322.518.63.826.91.546-.336 1.05-.714 1.442-1.12-.616-.182-.784-.574-.784-1.386v-.966h1.526v.966c0 .322.098.35.574.35h1.47c.336 0 .434-.084.476-.644.308.182.882.35 1.274.42-.154 1.078-.532 1.372-1.582 1.372h-1.288l.084.028c-.168.21-.336.42-.532.616h3.682l.28-.042Zm8.54-.238v-5.138h-1.106v5.138h1.106Zm4.69 3.276h3.122c.532 0 .728-.224.784-1.96.462.252.994.448 1.498.546-.182 2.534-.826 3.038-2.38 3.038h-2.968c-1.862 0-2.702-.742-2.702-1.876 0-.77.182-1.582 3.598-4.494h-2.66v-1.484a6.851 6.851 0 0 1-.406.49c-.238-.224-.7-.63-1.078-.91v4.998h-2.604v1.12h-1.526v-9.478h4.13v2.898c.98-1.05 1.764-2.576 2.226-4.13l1.652.406c-.168.532-.378 1.05-.602 1.568h4.928v1.554H96.96c-.294.532-.63.994-.966 1.428h4.76l.378-.042 1.12.63c-.056.084-.14.182-.238.28-4.914 3.794-5.278 4.48-5.278 4.928 0 .35.35.49.924.49Zm20.692-8.428-1.386.532c-.126-.63-.546-1.666-.98-2.422l1.302-.476c.462.742.91 1.708 1.064 2.366Zm-7.182-.728v-.84h-.77v.84h.77Zm1.246-1.792v2.716h-3.178v-2.716h3.178Zm-5.11 5.656v.602h1.036v-.602h-1.036Zm0-1.512v.588h1.036v-.588h-1.036Zm3.458.588v-.588h-1.078v.588h1.078Zm0 1.526v-.602h-1.078v.602h1.078Zm-4.928.98v-4.074h6.454v4.074h-6.454Zm1.75-5.446v-.84h-.714v.84h.714Zm1.19-1.792v2.716h-3.066v-2.716h3.066Zm4.116 7.644v1.176h-7.63v-1.176h7.63Zm-5.292 3.486h2.94v-.77h-2.94v.77Zm10.668-6.132h-2.198c.364 2.688 1.05 5.152 2.45 6.454-.378.294-.91.924-1.162 1.372-.994-1.05-1.624-2.548-2.058-4.34-.42 1.54-1.148 3.066-2.352 4.312a7.367 7.367 0 0 0-.812-.812v.616h-1.596v-.322h-2.94v.504h-1.512v-3.542h6.048v1.96c1.61-1.82 2.002-4.214 2.1-6.202H112.5v-1.54h1.764v-3.724h1.624v3.724h2.38v1.54Z" fill="#231815"/><path d="M64.5 363.85H260a4.5 4.5 0 0 1 4.5 4.5v24a4.5 4.5 0 0 1-4.5 4.5H64.5v-33Z" stroke="#231815"/><path d="M15.5 412.35a4.5 4.5 0 0 1 4.5-4.5h44.5v33H20a4.5 4.5 0 0 1-4.5-4.5v-24Z" fill="#00698A"/><path d="M33.918 420.978v2.002h-1.526v-2.002h1.526Zm1.512 7.644h-.462c.21.252.406.504.546.77h.308c.14 0 .238-.028.322-.154.154-.196.266-.896.35-2.772h-3.472v.392h2.408v1.764Zm-2.408.406.896-.042a3.952 3.952 0 0 0-.196-.252l.28-.112h-.98v.406Zm1.148-1.064v-.448h-1.148v.448h1.148Zm-3.724 0h1.176v-.448h-1.176v.448Zm1.176-1.498h-1.134c-.14.14-.28.266-.434.392h1.568v-.392Zm-3.374-5.684v1.372c0 1.302-.056 2.954-.308 4.564.868-.476 1.54-1.036 2.002-1.596h-1.148v-1.96h.28l-.238-.826c.588-.098 1.386-.224 2.24-.392a15.106 15.106 0 0 0-1.96-.406l.238-.728c.84.098 1.792.266 2.38.462l-.238.602.532-.098.014.826c-.896.21-1.82.42-2.59.56h7.266c-.658-.196-1.568-.378-2.408-.49l.238-.714.294.014-.322-.658c.504-.084 1.246-.336 1.806-.532h-8.078Zm7.896-1.722h-7.896v.658h7.896v-.658Zm-.042 5.39v-.616h-1.19v.616h1.19Zm-2.45 0v-.616H32.49v.616h1.162Zm-2.422 0v-.616h-1.134v.616h1.134Zm.112 1.092h6.678s0 .35-.014.518c-.112 2.604-.252 3.598-.56 3.976-.224.294-.504.392-.812.434-.294.056-.77.056-1.26.042a2.693 2.693 0 0 0-.098-.532l-.602.252a3.58 3.58 0 0 0-.154-.336c-2.156.154-4.382.294-5.992.392l-.098-1.078c.868-.028 1.974-.084 3.192-.14v-.448h-2.366v-1.176a12.67 12.67 0 0 1-.56.364c-.182-.252-.518-.56-.798-.77-.224 1.274-.546 2.492-1.078 3.486-.308-.252-1.022-.658-1.442-.812 1.162-2.156 1.26-5.334 1.26-7.56v-4.144h11.13v2.772h-.966l.364.644c-.686.266-1.624.448-2.282.56.854.098 1.778.28 2.324.448l-.266.728h.532v1.96H31.65c-.098.14-.196.28-.308.42Zm19.222 2.996h3.304v1.582H45.16v-1.582h3.738v-2.8h-2.702v-1.554h2.702v-2.296h-1.54c-.21.728-.49 1.4-.784 1.932a14.722 14.722 0 0 0-1.484-.756c.14-.252.28-.518.42-.812l-.798.364c-.084-.42-.294-1.036-.532-1.61v9.562h-1.666v-10.01c-.084 1.176-.308 2.716-.63 3.71l-1.232-.448c.336-.924.588-2.492.686-3.64l1.176.168v-2.856h1.666v2.646l.812-.336c.28.546.574 1.218.77 1.764.35-1.022.602-2.226.742-3.416l1.624.224c-.098.658-.21 1.316-.35 1.946h1.12v-2.744h1.666v2.744h2.856v1.568h-2.856v2.296h2.562v1.554h-2.562v2.8Z" fill="#fff"/><path d="M15.5 412.35a4.5 4.5 0 0 1 4.5-4.5h44.5v33H20a4.5 4.5 0 0 1-4.5-4.5v-24Z" stroke="#231815"/><path d="M64.5 407.85H260a4.5 4.5 0 0 1 4.5 4.5v24a4.5 4.5 0 0 1-4.5 4.5H64.5v-33Z" fill="#fff"/><path d="M79.922 426.872H78.2c-.168 1.344-.756 2.786-2.282 3.752a6.7 6.7 0 0 0-1.064-1.134c1.204-.644 1.624-1.68 1.75-2.618h-1.638V425.5h1.694v-1.064h-2.086v-1.372h1.428c-.154-.602-.518-1.498-.84-2.156l.882-.364h-1.26v-1.358h2.212a11.54 11.54 0 0 0-.756-1.26l1.344-.56c.364.49.77 1.12.98 1.554l-.56.266h2.03v1.358h-3.612c.336.658.7 1.498.868 2.058l-1.078.462h1.372a16.81 16.81 0 0 0 .868-2.52l1.47.336c-.322.728-.672 1.526-1.008 2.184h1.274v1.372h-1.932v1.064h1.666v1.372Zm2.002-4.242v1.596h.98v-1.596h-.98Zm3.57 0H84.5v1.596h.994v-1.596Zm1.54 2.856H84.99c.672 1.246 1.764 2.492 2.814 3.192-.35.294-.854.84-1.12 1.246-.77-.658-1.554-1.638-2.184-2.73v3.374h-1.596v-3.192c-.812 1.106-1.792 2.072-2.814 2.716a6.58 6.58 0 0 0-1.092-1.246c1.344-.714 2.66-2.016 3.472-3.36h-2.002v-4.116h2.436v-.924h-2.646v-1.442h2.646v-1.512H84.5v1.512h2.898v1.442H84.5v.924h2.534v4.116Zm12.88-1.568v.588l.896-.014a9.752 9.752 0 0 0-.336-.392l.392-.182h-.952Zm-2.548-.896H98.5v-.56h-1.134v.56Zm0-1.96v.546H98.5v-.546h-1.134Zm3.738 0h-1.19v.546h1.19v-.546Zm0 1.96v-.56h-1.19v.56h1.19Zm-5.32 2.744-.084-1.19c.77 0 1.736-.014 2.8-.042v-.616h-2.436v-3.752H98.5v-.518h-2.674v-1.218H98.5v-.924h1.414v.924h2.814v1.218h-2.814v.518h2.562v3.752h-.588c.462.532.882 1.148 1.12 1.61l-1.162.574c-.07-.14-.154-.308-.266-.49-2.1.07-4.256.126-5.796.154Zm4.032 3.318v-1.54h-2.1c.434.434.826.966 1.022 1.358l-.574.364c.56.028 1.204.028 1.386.028.196-.014.266-.056.266-.21Zm-8.33-4.998v.826h.798v-.826h-.798Zm0-1.918v.826h.798v-.826h-.798Zm2.73.826v-.826h-.854v.826h.854Zm0 1.918v-.826h-.854v.826h.854Zm7.112.868v.546h1.596v1.218h-1.596v1.582c0 .714-.112 1.064-.644 1.274-.518.196-1.19.21-2.17.21-.042-.406-.238-.924-.406-1.302l-.56.35c-.224-.49-.7-1.204-1.204-1.708l.686-.406h-1.316v.812h-2.156v2.212h-1.47v-2.212h-2.254V426.9h2.254v-.84h-1.792v-5.054h1.792v-.728H90.03v-1.442h2.058v-1.33h1.47v1.33h1.988v1.442h-1.988v.728h1.862v5.054h-1.862v.84h2.156v-.574h4.102v-.546h1.512Zm13.986-1.862v.588l.896-.014a9.752 9.752 0 0 0-.336-.392l.392-.182h-.952Zm-2.548-.896h1.134v-.56h-1.134v.56Zm0-1.96v.546h1.134v-.546h-1.134Zm3.738 0h-1.19v.546h1.19v-.546Zm0 1.96v-.56h-1.19v.56h1.19Zm-5.32 2.744-.084-1.19c.77 0 1.736-.014 2.8-.042v-.616h-2.436v-3.752h2.436v-.518h-2.674v-1.218h2.674v-.924h1.414v.924h2.814v1.218h-2.814v.518h2.562v3.752h-.588c.462.532.882 1.148 1.12 1.61l-1.162.574a6.108 6.108 0 0 0-.266-.49c-2.1.07-4.256.126-5.796.154Zm4.032 3.318v-1.54h-2.1c.434.434.826.966 1.022 1.358l-.574.364c.56.028 1.204.028 1.386.028.196-.014.266-.056.266-.21Zm-8.33-4.998v.826h.798v-.826h-.798Zm0-1.918v.826h.798v-.826h-.798Zm2.73.826v-.826h-.854v.826h.854Zm0 1.918v-.826h-.854v.826h.854Zm7.112.868v.546h1.596v1.218h-1.596v1.582c0 .714-.112 1.064-.644 1.274-.518.196-1.19.21-2.17.21-.042-.406-.238-.924-.406-1.302l-.56.35c-.224-.49-.7-1.204-1.204-1.708l.686-.406h-1.316v.812h-2.156v2.212h-1.47v-2.212h-2.254V426.9h2.254v-.84h-1.792v-5.054h1.792v-.728h-2.058v-1.442h2.058v-1.33h1.47v1.33h1.988v1.442h-1.988v.728h1.862v5.054h-1.862v.84h2.156v-.574h4.102v-.546h1.512Z" fill="#231815"/><path d="M64.5 407.85H260a4.5 4.5 0 0 1 4.5 4.5v24a4.5 4.5 0 0 1-4.5 4.5H64.5v-33Z" stroke="#231815"/><path d="M15.5 456.35a4.5 4.5 0 0 1 4.5-4.5h44.5v33H20a4.5 4.5 0 0 1-4.5-4.5v-24Z" fill="#00698A"/><path d="m30.138 467.442.21 1.526c-.49.14-.994.28-1.498.406v3.346c0 .812-.154 1.204-.63 1.47-.462.252-1.134.294-2.114.294a7.24 7.24 0 0 0-.476-1.512c.546.014 1.12.014 1.302.014.21 0 .266-.07.266-.28v-2.884l-1.358.336-.434-1.582c.518-.098 1.12-.238 1.792-.406v-2.478h-1.61v-1.54h1.61v-2.66h1.652v2.66h1.372v1.54H28.85v2.072l1.288-.322Zm5.852.756h-3.402a8.001 8.001 0 0 0 1.652 2.478 7.802 7.802 0 0 0 1.75-2.478Zm1.05-1.568 1.064.448c-.532 1.946-1.428 3.472-2.604 4.648.91.644 1.988 1.106 3.234 1.414-.35.336-.826 1.008-1.064 1.442-1.358-.406-2.52-.98-3.486-1.764-1.092.756-2.324 1.316-3.682 1.722-.182-.448-.588-1.148-.896-1.512 1.232-.294 2.366-.742 3.346-1.372-.826-.938-1.484-2.044-1.988-3.332l.42-.126h-.728V466.7h2.758v-1.68h-3.01v-1.54h3.01v-2.002h1.652v2.002h3.136v1.54h-3.136v1.68h1.68l.294-.07Zm15.274 1.036h-2.128c-1.68 0-2.128-.616-2.128-2.17v-3.976h1.652v1.652h3.444v1.428H49.71v.924c0 .518.084.714.532.714h2.044c.392 0 .98-.042 1.288-.112.028.434.098 1.036.154 1.414-.294.098-.882.126-1.414.126Zm-9.044 1.498v.504c0 .532-.028 1.162-.098 1.792.63-.28 1.456-.7 2.296-1.148v-.462l-.672.658c-.35-.364-.994-.91-1.526-1.344Zm2.198-1.26H43.27v.994l.7-.602c.476.336 1.078.826 1.498 1.19v-1.582Zm1.568-1.4v6.524c0 .686-.126 1.036-.588 1.26-.448.21-1.078.238-1.932.238-.07-.392-.294-.938-.504-1.302.504.028 1.05.028 1.218.028.182 0 .238-.056.238-.238v-1.428c-.7.504-1.4.98-2.03 1.386l-.35-.98c-.154.952-.462 1.904-.994 2.632-.238-.322-.868-.924-1.162-1.12.742-1.092.798-2.632.798-3.85v-3.15h5.306Zm-2.128-3.486 1.344-.49c.588 1.008 1.33 2.38 1.666 3.22l-1.456.588c-.084-.252-.21-.546-.35-.882-3.542.35-4.116.434-4.522.602a17.634 17.634 0 0 0-.518-1.498c.252-.056.49-.252.77-.56.28-.308 1.134-1.386 1.652-2.492l1.68.476c-.476.812-1.106 1.624-1.722 2.324l2.044-.154c-.21-.406-.406-.798-.588-1.134Zm5.446 9.996h1.596c.476 0 .574-.238.644-1.526.336.252 1.008.504 1.442.602-.168 1.834-.602 2.38-1.932 2.38h-1.988c-1.652 0-2.058-.49-2.058-2.016v-4.396h1.652v1.4h3.542v1.47H49.71v1.526c0 .49.098.56.644.56Z" fill="#fff"/><path d="M15.5 456.35a4.5 4.5 0 0 1 4.5-4.5h44.5v33H20a4.5 4.5 0 0 1-4.5-4.5v-24Z" stroke="#231815"/><path d="M64.5 451.85H260a4.5 4.5 0 0 1 4.5 4.5v24a4.5 4.5 0 0 1-4.5 4.5H64.5v-33Z" fill="#fff"/><path d="M77.024 464.502v2.268c0 2.212-.196 5.628-1.33 7.756-.308-.294-1.05-.812-1.414-.994.994-1.932 1.064-4.774 1.064-6.762v-3.85h5.53c-.14-.42-.294-.826-.448-1.19l1.708-.406c.224.49.462 1.078.644 1.596h4.592v1.582H77.024Zm.49 4.998v-1.12h1.008v1.148c0 1.288-.14 2.926-1.078 4.186-.168-.238-.546-.588-.77-.756.756-1.064.84-2.408.84-3.458Zm4.256-1.638h-1.442v6.692H78.9v-6.692h-1.624v-1.414H78.9v-1.666h1.428v1.666h1.442v1.414Zm.588 1.876v-1.358h1.05v1.386c0 1.316-.14 2.898-1.148 4.116a3.596 3.596 0 0 0-.798-.798c.154-.196.294-.406.392-.616h-.294c-.728 0-.868-.35-.868-1.106v-3.01h.966v3.024c0 .294.014.378.14.378h.014c.07 0 .21 0 .336-.028.182-.672.21-1.372.21-1.988Zm4.942-1.89h-2.072v6.692H83.8v-6.692h-1.708v-1.4H83.8v-1.666h1.428v1.666H87.3v1.4Zm-.504 4.69h.266c.14 0 .322-.014.462-.07.028.294.056.728.098.98-.154.056-.364.07-.56.07h-.322c-.966 0-1.148-.392-1.148-1.47v-3.626h1.078v3.654c0 .364.014.462.126.462Zm8.526-1.666H93.6c-.168 1.344-.756 2.786-2.282 3.752a6.7 6.7 0 0 0-1.064-1.134c1.204-.644 1.624-1.68 1.75-2.618h-1.638V469.5h1.694v-1.064h-2.086v-1.372h1.428c-.154-.602-.518-1.498-.84-2.156l.882-.364h-1.26v-1.358h2.212a11.54 11.54 0 0 0-.756-1.26l1.344-.56c.364.49.77 1.12.98 1.554l-.56.266h2.03v1.358h-3.612c.336.658.7 1.498.868 2.058l-1.078.462h1.372a16.81 16.81 0 0 0 .868-2.52l1.47.336c-.322.728-.672 1.526-1.008 2.184h1.274v1.372h-1.932v1.064h1.666v1.372Zm2.002-4.242v1.596h.98v-1.596h-.98Zm3.57 0H99.9v1.596h.994v-1.596Zm1.54 2.856h-2.044c.672 1.246 1.764 2.492 2.814 3.192-.35.294-.854.84-1.12 1.246-.77-.658-1.554-1.638-2.184-2.73v3.374h-1.596v-3.192c-.812 1.106-1.792 2.072-2.814 2.716a6.58 6.58 0 0 0-1.092-1.246c1.344-.714 2.66-2.016 3.472-3.36h-2.002v-4.116h2.436v-.924h-2.646v-1.442h2.646v-1.512H99.9v1.512h2.898v1.442H99.9v.924h2.534v4.116Zm6.468-4.956v-.532h-1.008v.532h1.008Zm0 1.498v-.532h-1.008v.532h1.008Zm0 1.512v-.532h-1.008v.532h1.008Zm5.964-3.01v-.532h-.98v.532h.98Zm0 1.498v-.532h-.98v.532h.98Zm0 1.512v-.532h-.98v.532h.98Zm-8.372 1.036v-3.15c-.168.182-.336.364-.504.532-.14-.294-.546-.924-.798-1.19.84-.784 1.596-2.002 2.002-3.248l1.274.35a8.673 8.673 0 0 1-.434 1.078h1.064a9.222 9.222 0 0 0-.42-1.022l1.372-.378c.21.434.476.98.616 1.4h1.022v1.05h-1.456v.532h1.176v.028c.728-.812 1.372-1.918 1.75-3.038l1.302.364c-.126.364-.28.714-.448 1.078h1.078a9.197 9.197 0 0 0-.406-.994l1.372-.378c.21.42.462.952.616 1.372h1.26v1.036h-1.736v.532h1.372v.966h-1.372v.532h1.372v.98h-1.372v.532h1.904v1.036h-5.614v-3.136c-.168.21-.35.406-.504.588a9.575 9.575 0 0 0-.574-.784v.252h-1.176v.532h1.176v.98h-1.176v.532h1.582v1.036h-5.32Zm7.518 1.932h-4.354c.616.49 1.386.882 2.296 1.218.798-.336 1.484-.728 2.058-1.218Zm1.638-1.414 1.134.686c-.672 1.064-1.596 1.904-2.716 2.576 1.26.266 2.632.448 4.074.546-.364.392-.812 1.12-1.036 1.582-1.932-.182-3.71-.532-5.25-1.106-1.75.616-3.724.994-5.768 1.204-.126-.448-.406-1.106-.672-1.498 1.526-.112 3.01-.322 4.382-.644a10.56 10.56 0 0 1-2.1-1.638l.644-.294H106.2v-1.344h9.156l.294-.07Zm8.708-5.376h-.91a13.183 13.183 0 0 1-1.302 1.722h2.408c-.294-.35-.686-.756-1.008-1.05l.812-.672Zm1.176 3.696v-.728h-2.408v.728h2.408Zm-2.408 1.778h2.408v-.588h-2.408v.588Zm1.246 1.89 1.316-.588c.686.966 1.498 2.198 1.89 3.024l-1.358.7c-.126-.294-.322-.644-.532-1.022-3.08.756-3.612.91-3.934 1.106-.112-.364-.49-1.008-.742-1.288.266-.196.588-.602.588-1.232v-6.132c-.266-.392-.7-.952-.952-1.218.854-.742 1.666-1.904 2.114-3.052l1.638.49c-.056.154-.126.294-.196.448h2.926v1.4h-2.128c.378.322.77.714.994.994l-.868.728h1.96v4.998h-3.962v1.876l1.792-.392c-.182-.294-.378-.574-.546-.84Zm3.99-5.642h2.45c-.28-.35-.714-.812-1.092-1.148l.7-.574h-1.05a12.409 12.409 0 0 1-1.008 1.722Zm5.25-3.122v1.4h-2.338c.336.308.686.644.868.882l-.994.84h2.002v5.796c0 .77-.126 1.19-.672 1.442-.504.252-1.218.266-2.24.266-.056-.448-.28-1.106-.476-1.526.63.028 1.33.028 1.526.014.21 0 .28-.056.28-.238v-4.242h-2.184v7.574h-1.568v-8.61c-.308-.336-.868-.882-1.218-1.134.798-.812 1.484-2.1 1.834-3.402l1.694.42c-.056.168-.112.35-.168.518h3.654Zm12.796 1.806v-.784h-3.612v.784h3.612Zm0 1.946v-.784h-3.612v.784h3.612Zm1.638-3.976v5.222h-6.832v-5.222h6.832Zm-6.93 6.846-.952 1.148a19.112 19.112 0 0 0-.798-1.792v6.258h-1.498v-5.404c-.364 1.148-.784 2.184-1.26 2.912-.154-.49-.518-1.246-.784-1.694.826-1.092 1.554-3.052 1.932-4.732H136.3v-1.54h1.568v-2.604h1.498v2.604h1.4v1.54h-1.4v.574c.448.63 1.512 2.31 1.75 2.73Zm1.89 3.598 1.582-.364c.042.392.168.966.252 1.288-2.646.728-3.15.924-3.444 1.134-.07-.42-.266-1.148-.49-1.498.266-.098.49-.224.49-.714v-4.774h1.61v1.526h1.624v1.4h-1.624v2.002Zm3.822.448h.672c.252 0 .322-.21.35-1.47.308.238.924.476 1.33.574-.154 1.75-.532 2.254-1.512 2.254h-1.106c-1.232 0-1.512-.448-1.512-1.834v-4.872h1.498v1.512h2.156v1.4h-2.156v1.96c0 .434.042.476.28.476Z" fill="#231815"/><path d="M64.5 451.85H260a4.5 4.5 0 0 1 4.5 4.5v24a4.5 4.5 0 0 1-4.5 4.5H64.5v-33Z" stroke="#231815"/><rect x=".5" y=".5" width="279" height="504.35" rx="4.5" stroke="#231815"/><defs><clipPath id="clip0_799_40507"><path fill="#fff" transform="translate(79.27)" d="M0 0h121.46v30.99H0z"/></clipPath><clipPath id="clip1_799_40507"><path d="M25 89.99h230v225a5 5 0 0 1-5 5H30a5 5 0 0 1-5-5v-225Z" fill="#fff"/></clipPath><clipPath id="clip2_799_40507"><path fill="#fff" transform="translate(63.635 334.99)" d="M0 0h18.56v18.36H0z"/></clipPath><clipPath id="clip3_799_40507"><path fill="#fff" transform="translate(84.195 334.99)" d="M0 0h18.56v18.36H0z"/></clipPath><clipPath id="clip4_799_40507"><path fill="#fff" transform="translate(207.315 334.99)" d="M0 0h17.35v16.5H0z"/></clipPath></defs></svg>