<svg fill="none" xmlns="http://www.w3.org/2000/svg" viewBox="0 0 280 506"><rect x=".5" y=".5" width="279" height="504.35" rx="4.5" fill="#E68169"/><g clip-path="url(#clip0_799_41927)" stroke="#231815" stroke-miterlimit="10"><path d="M84.32 27.21c.34 1.64 1.95 2.83 3.83 2.84l103.68.44c1.88 0 3.5-1.17 3.85-2.81l4.41-20.48c.67-3.11-1.07-6.21-3.48-6.22L83.06.5C80.7.49 79.29 2.97 79.92 6l4.4 21.2v.01Z" fill="#00698A"/><path d="M116.479 17.4c.14 1.03.82 1.78 1.61 1.79l43.77.23c.79 0 1.48-.74 1.63-1.77l1.87-12.91c.28-1.96-.45-3.91-1.47-3.92l-47.94-.25c-.99 0-1.59 1.56-1.33 3.47l1.85 13.36h.01Zm69.191-7.19c0-1.42 1.16-2.56 2.58-2.55 1.42 0 2.56 1.16 2.55 2.58 0 1.42-1.16 2.56-2.57 2.55-1.42 0-2.56-1.16-2.55-2.58h-.01Zm-10.74-.02c0-1.42 1.16-2.56 2.58-2.55 1.42 0 2.56 1.16 2.55 2.58 0 1.42-1.16 2.56-2.58 2.55-1.42 0-2.56-1.16-2.55-2.58Zm-80.59-.28c0-1.42-1.15-2.57-2.56-2.57-1.42 0-2.57 1.15-2.57 2.56 0 1.42 1.15 2.57 2.56 2.57 1.42 0 2.57-1.15 2.57-2.56Zm10.729.02c0-1.42-1.15-2.57-2.56-2.57-1.42 0-2.57 1.15-2.57 2.56 0 1.42 1.15 2.57 2.56 2.57 1.42 0 2.57-1.15 2.57-2.56Z" fill="#FFE177"/></g><path d="M117.584 57.454v-2.568h-.456v2.568h.456Zm4.032-11.784h1.32c-.24-.816-.768-1.992-1.344-2.832 0 .936.024 1.896.024 2.832Zm-13.368 14.4h1.824v-2.184l-1.104.96c-.312-.6-.768-1.296-1.296-2.04-.648.984-1.344 1.896-2.04 2.64a14.511 14.511 0 0 0-.576-.552v1.176h2.328a10.52 10.52 0 0 0-.888-1.392l1.2-1.056c.48.576.984 1.32 1.248 1.824l-.696.624Zm-3.192-3.6v.816a14.61 14.61 0 0 0 1.488-2.016 37.05 37.05 0 0 0-1.488-1.8v.672c.408.432.792.936 1.032 1.272l-1.032 1.056Zm1.536-6.216h-1.536v2.112l.696-.576a32.267 32.267 0 0 1 1.704 1.872c.48-.888.888-1.848 1.224-2.784l1.392.384v-1.008h-2.856c.432.408.84.864 1.08 1.2l-1.128 1.344c-.264-.456-.84-1.152-1.344-1.632l.768-.912Zm3.48 3.552V52.27a28.983 28.983 0 0 1-1.392 2.88 39.65 39.65 0 0 1 1.392 2.016v-1.2c-.288-.384-.648-.84-.96-1.176l.96-.984Zm12.696-4.056 2.52.36c-.6 3.384-1.512 6.336-2.808 8.784.192 1.248.408 1.968.624 1.968.24 0 .408-.96.504-2.592.408.624 1.44 1.416 1.848 1.704-.6 3.552-1.728 4.272-2.472 4.272-.984 0-1.728-.936-2.28-2.64a14.077 14.077 0 0 1-2.616 2.592c-.384-.456-1.44-1.368-2.016-1.752a12.107 12.107 0 0 0 3-2.856h-1.944v1.296h-1.512v-8.112h3.504v6.768c.288-.408.576-.816.84-1.248-.432-2.592-.672-5.928-.792-9.72h-3.744v4.656c0 3.264-.216 7.944-1.608 10.944-.288-.264-.84-.6-1.344-.888v.24h-2.4v-.792h-5.016v1.44h-2.304V47.59h3.264v-6.144h2.976v1.92h3.552v2.664h-3.552v1.56h3.48v12.792c.504-2.352.552-5.04.552-7.152v-7.56h6.048L119 41.446h2.592v1.32l2.088-1.032c.672.864 1.272 2.064 1.512 2.904l-1.968 1.032h1.752v2.904h-3.264c.048 1.776.144 3.456.24 4.968.336-1.176.6-2.448.816-3.792Zm-3.816-.24v2.208h-3.144V49.51h3.144Zm27.408 3.192v.744l.984-.024c-.12-.168-.24-.336-.36-.48l.552-.24h-1.176Zm-4.368-1.8h1.416v-.648h-1.416v.648Zm0-2.976v.624h1.416v-.624h-1.416Zm5.784 0h-1.416v.624h1.416v-.624Zm0 2.976v-.648h-1.416v.648h1.416Zm-8.832 5.088-.192-2.424c1.296 0 2.904-.024 4.656-.072v-.792h-4.104v-6.576h4.104v-.624h-4.416v-2.52h4.416V41.47h2.952v1.512h4.632v2.52h-4.632v.624h4.248v6.576h-.696c.648.888 1.248 1.896 1.584 2.64l-2.424 1.176c-.096-.24-.216-.528-.36-.816-3.528.144-7.128.216-9.768.288Zm6.6 5.28v-2.04h-2.688c.552.648 1.032 1.368 1.296 1.944l-.696.432c.696.024 1.416.024 1.632.024.336-.024.456-.096.456-.36Zm-13.824-8.112v.984h.912v-.984h-.912Zm0-3.192v.96h.912v-.96h-.912Zm4.104.96v-.96h-.984v.96h.984Zm0 3.216v-.984h-.984v.984h.984Zm12.912 1.8v.768h2.616v2.52h-2.616v2.136c0 1.416-.264 2.136-1.272 2.568-1.008.408-2.28.432-3.96.432-.096-.72-.408-1.608-.696-2.352l-1.128.696c-.336-.84-1.128-2.088-1.944-2.952l.912-.528H138.8v1.44h-3.528v3.576H132.2V60.67h-3.672v-3.024h3.672v-1.128h-2.88V47.59h2.88v-1.008h-3.312v-2.976h3.312v-2.112h3.072v2.112h3.24v2.976h-3.24v1.008h3.048v8.928h-3.048v1.128h3.528v-.936h6.744v-.768h3.192Zm24.024-3.24v.744l.984-.024c-.12-.168-.24-.336-.36-.48l.552-.24h-1.176Zm-4.368-1.8h1.416v-.648h-1.416v.648Zm0-2.976v.624h1.416v-.624h-1.416Zm5.784 0h-1.416v.624h1.416v-.624Zm0 2.976v-.648h-1.416v.648h1.416Zm-8.832 5.088-.192-2.424c1.296 0 2.904-.024 4.656-.072v-.792h-4.104v-6.576h4.104v-.624h-4.416v-2.52h4.416V41.47h2.952v1.512h4.632v2.52h-4.632v.624h4.248v6.576h-.696c.648.888 1.248 1.896 1.584 2.64l-2.424 1.176c-.096-.24-.216-.528-.36-.816-3.528.144-7.128.216-9.768.288Zm6.6 5.28v-2.04h-2.688c.552.648 1.032 1.368 1.296 1.944l-.696.432c.696.024 1.416.024 1.632.024.336-.024.456-.096.456-.36Zm-13.824-8.112v.984h.912v-.984h-.912Zm0-3.192v.96h.912v-.96h-.912Zm4.104.96v-.96h-.984v.96h.984Zm0 3.216v-.984h-.984v.984h.984Zm12.912 1.8v.768h2.616v2.52h-2.616v2.136c0 1.416-.264 2.136-1.272 2.568-1.008.408-2.28.432-3.96.432-.096-.72-.408-1.608-.696-2.352l-1.128.696c-.336-.84-1.128-2.088-1.944-2.952l.912-.528H165.2v1.44h-3.528v3.576H158.6V60.67h-3.672v-3.024h3.672v-1.128h-2.88V47.59h2.88v-1.008h-3.312v-2.976h3.312v-2.112h3.072v2.112h3.24v2.976h-3.24v1.008h3.048v8.928h-3.048v1.128h3.528v-.936h6.744v-.768h3.192Z" fill="#231815"/><path d="M15.5 199.99c0-68.759 55.74-124.5 124.5-124.5 68.759 0 124.5 55.741 124.5 124.5v120a4.5 4.5 0 0 1-4.5 4.5H20a4.5 4.5 0 0 1-4.5-4.5v-120Z" fill="#fff" stroke="#231815"/><g clip-path="url(#clip1_799_41927)"><path d="M129.47 219.56c-6.57 2.36-12.5 3.53-17.95 3.53-2.8 0-5.47-.31-8.03-.93-9.76-2.35-17.36-9.73-18.9-18.37a2.449 2.449 0 0 1 4.82-.86c.6 3.38 2.43 6.56 5.29 9.19 2.73 2.52 6.26 4.39 9.94 5.28 6.59 1.59 14.17.78 23.18-2.45" fill="#E86546"/><path d="M129.47 219.56c-6.57 2.36-12.5 3.53-17.95 3.53-2.8 0-5.47-.31-8.03-.93-9.76-2.35-17.36-9.73-18.9-18.37a2.449 2.449 0 0 1 4.82-.86c.6 3.38 2.43 6.56 5.29 9.19 2.73 2.52 6.26 4.39 9.94 5.28 6.59 1.59 14.17.78 23.18-2.45" stroke="#231815" stroke-width=".75" stroke-linecap="round" stroke-linejoin="round"/><path d="M150.48 187.22c6.67-20.42 25.01-20.42 36.9-11.73 11.89 8.68 16.7 32.85-1.96 50.68-14.73 14.08-33.49 17.27-33.49 17.27s-19.03-5.43-29.3-26.98c-10.26-21.54-2.04-37.91 5.72-43.25 7.76-5.34 22.79-6.57 28.73 2.3" fill="#E86546"/><path d="M150.48 187.22c6.67-20.42 25.01-20.42 36.9-11.73 11.89 8.68 16.7 32.85-1.96 50.68-14.73 14.08-33.49 17.27-33.49 17.27s-19.03-5.43-29.3-26.98c-10.26-21.54-2.04-37.91 5.72-43.25 7.76-5.34 22.79-6.57 28.73 2.3" stroke="#231815" stroke-width=".75" stroke-linecap="round" stroke-linejoin="round"/><path d="m142.15 204.23-.29 2.3a2.25 2.25 0 0 1-2.51 1.95 2.25 2.25 0 0 1-1.95-2.51l.29-2.3" stroke="#231815" stroke-width="2" stroke-linecap="round" stroke-linejoin="round"/><path d="M137.34 199.57a2.82 2.82 0 1 0 0-5.64 2.82 2.82 0 0 0 0 5.64Z" fill="#333434"/><path d="M137.34 194.3c1.35 0 2.45 1.09 2.45 2.45s-1.09 2.45-2.45 2.45-2.45-1.09-2.45-2.45 1.09-2.45 2.45-2.45Zm0-.75c-1.76 0-3.2 1.43-3.2 3.2 0 1.77 1.43 3.2 3.2 3.2 1.77 0 3.2-1.43 3.2-3.2 0-1.77-1.43-3.2-3.2-3.2Z" fill="#231815"/><path d="M144.68 200.65a2.82 2.82 0 1 0 .001-5.639 2.82 2.82 0 0 0-.001 5.639Z" fill="#333434"/><path d="M144.68 195.39c1.35 0 2.45 1.09 2.45 2.45s-1.09 2.45-2.45 2.45-2.45-1.09-2.45-2.45 1.09-2.45 2.45-2.45Zm0-.75c-1.76 0-3.2 1.43-3.2 3.2 0 1.77 1.43 3.2 3.2 3.2 1.77 0 3.2-1.43 3.2-3.2 0-1.77-1.43-3.2-3.2-3.2Z" fill="#231815"/><path d="M181.08 212.62c7.47-.79 14.91-5.29 20.4-12.36 4.45-5.73 7.78-13.07 10.48-23.07.35-1.3 1.69-2.08 3-1.73 1.3.35 2.08 1.69 1.73 3-2.87 10.66-6.47 18.54-11.34 24.8-6.3 8.12-14.96 13.3-23.75 14.23-.09 0-.17.01-.26.01" fill="#E86546"/><path d="M181.08 212.62c7.47-.79 14.91-5.29 20.4-12.36 4.45-5.73 7.78-13.07 10.48-23.07.35-1.3 1.69-2.08 3-1.73 1.3.35 2.08 1.69 1.73 3-2.87 10.66-6.47 18.54-11.34 24.8-6.3 8.12-14.96 13.3-23.75 14.23-.09 0-.17.01-.26.01" stroke="#231815" stroke-width=".75" stroke-linecap="round" stroke-linejoin="round"/><path d="M90.73 163.44c-.16.21-.38.38-.65.48-.73.26-1.54-.12-1.8-.86-.88-2.49-1.8-5.07-3.1-7.35-1.41-2.47-3.12-4.28-5.06-5.39-2.19-1.24-4.7-1.5-6.71-.71-2.09.83-3.57 2.97-3.46 4.98.04.78-.55 1.44-1.32 1.49-.78.04-1.44-.55-1.49-1.32-.18-3.22 2.02-6.48 5.23-7.76 2.8-1.11 6.22-.78 9.14.87 2.39 1.36 4.45 3.52 6.12 6.44 1.43 2.5 2.38 5.2 3.31 7.8.16.46.07.95-.2 1.32l-.01.01Z" fill="#FF002A" stroke="#231815" stroke-width=".75" stroke-linecap="round" stroke-linejoin="round"/><path d="M101.96 198a8.15 8.15 0 0 1-4.93-1.65l-5.46-4.12a.36.36 0 0 1-.07-.52l15.09-19.98c.07-.1.19-.15.3-.15.08 0 .16.02.23.08l5.46 4.12c3.6 2.72 4.32 7.86 1.6 11.47l-5.67 7.52a8.123 8.123 0 0 1-6.54 3.25l-.01-.02Z" fill="#333434"/><path d="m106.89 171.95 5.46 4.12c3.44 2.6 4.13 7.5 1.53 10.94l-5.67 7.52a7.817 7.817 0 0 1-6.24 3.11c-1.64 0-3.29-.51-4.7-1.58l-5.46-4.12 15.09-19.98m0-.75c-.23 0-.45.1-.6.3l-15.09 19.98c-.12.16-.17.36-.14.56.03.2.13.38.29.49l5.46 4.12a8.498 8.498 0 0 0 5.15 1.73c2.71 0 5.21-1.24 6.84-3.4l5.67-7.52a8.557 8.557 0 0 0-1.67-11.99l-5.46-4.12a.76.76 0 0 0-.45-.15Z" fill="#231815"/><path d="m79.02 182.28 14.68 11.09c.68.51 4.6-3.55 8.77-9.07 4.17-5.52 7-10.41 6.32-10.92l-14.68-11.09-15.09 19.98v.01Z" fill="#E86546" stroke="#231815" stroke-width=".75" stroke-linecap="round" stroke-linejoin="round"/><path d="M79.22 182.75c-.13 0-.26-.04-.36-.11l-4.15-3.13a.407.407 0 0 1-.15-.25c-.02-.1.01-.2.07-.28L89.72 159c.07-.1.19-.15.3-.15.08 0 .16.02.23.08 0 0 4.13 3.12 4.14 3.12 1.39 1.05-5.01 9.68-6.31 11.4-2.43 3.22-7.41 9.31-8.87 9.31l.01-.01Z" fill="#333434"/><path d="m90.03 159.22 4.08 3.08v.02s.05.02.07.03c.64.48-2.22 5.35-6.39 10.86-3.94 5.22-7.64 9.16-8.57 9.16-.05 0-.1-.01-.13-.04a.18.18 0 0 1-.05-.07v.02l-4.09-3.08 15.09-19.98m0-.75c-.23 0-.45.1-.6.3l-15.09 19.98c-.25.33-.18.8.15 1.05l4.08 3.08s.02.02.03.02c.01 0 .02.02.03.03.17.13.37.19.58.19 1.93 0 7.98-7.88 9.17-9.46 2.03-2.69 3.82-5.32 5.04-7.39 1.85-3.14 1.84-4.04 1.2-4.52-.01 0-.02-.02-.04-.03-.01 0-.02-.02-.03-.03l-4.08-3.08a.76.76 0 0 0-.45-.15l.01.01Z" fill="#231815"/><path d="M75.17 179.68c-.15 0-.28-.04-.39-.12 0 0-.02-.01-.03-.03a.318.318 0 0 1-.12-.11l-2.58-3.66a.392.392 0 0 1 0-.44l13.45-17.81c.07-.1.18-.15.3-.15.04 0 .08 0 .12.02l4.22 1.47c.06.02.11.05.15.1h.01c1.55 1.17-5.38 10.44-6.18 11.5-3.35 4.44-7.59 9.21-8.97 9.21l.02.02Z" fill="#333434"/><path d="m85.81 157.74 4.22 1.47v.02s.04.02.07.04c.71.54-2.09 5.45-6.25 10.97-3.92 5.19-7.65 9.07-8.67 9.07-.07 0-.12-.02-.16-.05a.435.435 0 0 1-.06-.07v.02l-2.59-3.66 13.45-17.81m0-.75c-.23 0-.45.11-.6.3L71.77 175.1c-.2.26-.2.62-.01.88l2.57 3.66c.06.09.14.16.23.21.17.13.39.2.62.2 2.14 0 8.55-8.41 9.27-9.36 2.03-2.69 3.81-5.33 5.01-7.43 1.8-3.15 1.75-4.09 1.1-4.59 0 0-.02-.01-.03-.02a.722.722 0 0 0-.24-.14l-4.22-1.47a.69.69 0 0 0-.25-.04v-.01Z" fill="#231815"/><path d="M72.39 175.93a.352.352 0 0 1-.27-.2c-3.26-6.28-5.73-10.19-8.01-12.67a.39.39 0 0 1-.04-.46c2.11-3.32 4.41-6.36 7.02-9.3.07-.08.18-.13.28-.13.06 0 .12.01.17.04 3.01 1.52 7.45 2.82 14.38 4.24.12.02.21.1.26.21.05.11.05.23 0 .33a67.472 67.472 0 0 1-13.47 17.84c-.07.07-.16.1-.26.1h-.06Z" fill="#333434"/><path d="M71.37 153.55c2.73 1.37 6.84 2.71 14.48 4.27a66.916 66.916 0 0 1-13.39 17.74c-3.59-6.92-6-10.51-8.07-12.75 2.11-3.31 4.37-6.32 6.99-9.25m0-.75c-.21 0-.41.09-.56.25a71.389 71.389 0 0 0-7.06 9.35c-.18.29-.15.66.08.91 2.26 2.45 4.71 6.34 7.96 12.59.11.21.31.35.54.39.04 0 .08.01.13.01.19 0 .37-.07.51-.2 5.43-5.11 10.11-11.32 13.54-17.94.11-.21.11-.46.01-.67-.1-.21-.3-.36-.53-.41-6.91-1.41-11.31-2.71-14.29-4.2a.808.808 0 0 0-.34-.08h.01Z" fill="#231815"/><path d="m56.731 153.844 3.923-5.195a.58.58 0 0 1 .812-.114l2.123 1.603-4.621 6.121-2.123-1.602a.581.581 0 0 1-.114-.813Z" fill="#FF002A" stroke="#231815" stroke-width=".75" stroke-linecap="round" stroke-linejoin="round"/><path d="m63.797 149.86-5.031 6.664 1.628 1.23 5.03-6.665-1.627-1.229Z" fill="#fff" stroke="#231815" stroke-width=".75" stroke-linecap="round" stroke-linejoin="round"/><path d="m60.157 158.079 5.513-7.302a.792.792 0 0 1 1.106-.155l1.133.856-6.465 8.564-1.133-.856a.792.792 0 0 1-.154-1.107Z" fill="#FF002A" stroke="#231815" stroke-width=".75" stroke-linecap="round" stroke-linejoin="round"/><path d="m68.11 151.21-6.875 9.107 3.672 2.771 6.874-9.106-3.671-2.772Z" fill="#FF002A" stroke="#231815" stroke-width=".75" stroke-linecap="round" stroke-linejoin="round"/><path d="M96.63 173.65c-.32.1-.63.24-.92.45a3.234 3.234 0 0 0-.82 4.47h.03s.01-.02.02-.02a3.29 3.29 0 0 1 1.66-1.13c.95-.27 2.01-.11 2.85.53.28.21.52.46.71.74.82-1.09.89-2.62.06-3.8a3.239 3.239 0 0 0-3.59-1.25v.01Z" fill="#fff" stroke="#231815" stroke-width=".75" stroke-linecap="round" stroke-linejoin="round"/><path d="M93.04 172.42a3.246 3.246 0 0 0-2.29 3.03c0 .33.04.68.14 1.01a3.204 3.204 0 0 0 2 2.1c.62.22 1.32.26 2 .06 0 0 .01-.02.02-.02 0 0-.01-.02-.02-.02a3.232 3.232 0 0 1 .82-4.47c.29-.2.6-.35.92-.45a3.236 3.236 0 0 0-3.59-1.23v-.01Z" fill="#fff" stroke="#231815" stroke-width=".75" stroke-linecap="round" stroke-linejoin="round"/><path d="M94.91 178.59h-.03s.01.02.02.02l.01-.02Zm1.68-1.16c-.64.18-1.22.57-1.66 1.13v.03s.02 0 .03.01c.67.24 1.21.68 1.58 1.23a3.238 3.238 0 0 1-.1 3.78c1.29.44 2.77.03 3.63-1.11.86-1.14.85-2.68.08-3.8-.19-.27-.43-.52-.71-.74-.85-.64-1.91-.8-2.85-.53Zm-1.66 1.16v-.03s-.01.02-.02.02l.02.01Z" fill="#fff" stroke="#231815" stroke-width=".75" stroke-linecap="round" stroke-linejoin="round"/><path d="M94.96 178.6h-.03v.03c-.02.71-.27 1.36-.68 1.89-.6.78-1.56 1.27-2.62 1.25-.35 0-.69-.07-1.01-.18-.02 1.36.82 2.64 2.18 3.11a3.231 3.231 0 0 0 4.11-2c.35-1 .17-2.06-.38-2.88-.37-.55-.91-.99-1.58-1.23l.01.01Z" fill="#fff" stroke="#231815" stroke-width=".75" stroke-linecap="round" stroke-linejoin="round"/><path d="M94.94 178.6h.03s-.02 0-.03-.01v.01Zm-2.05-.04a3.225 3.225 0 0 1-2.14-3.11c-1.3.4-2.26 1.6-2.28 3.03a3.242 3.242 0 0 0 5.8 2.05c.41-.52.66-1.17.68-1.89 0 0-.01-.02-.02-.02h-.03c-.68.2-1.38.16-2-.06h-.01Z" fill="#fff" stroke="#231815" stroke-width=".75" stroke-linecap="round" stroke-linejoin="round"/><path d="M94.93 178.61s.01.02.02.02v-.03l-.02.01Zm-.02 0s-.01.02-.02.02h.03l-.01-.02Z" fill="#fff" stroke="#231815" stroke-width=".75" stroke-linecap="round" stroke-linejoin="round"/><path d="m94.92 178.58-.01.01v.02h.03v-.02h-.01l-.01-.01Z" fill="#fff" stroke="#231815" stroke-width=".75" stroke-linecap="round" stroke-linejoin="round"/><path d="M138.75 138.95a1.417 1.417 0 0 1-.19-2.48c2.22-1.43 4.52-2.9 6.45-4.69 2.08-1.94 3.46-4.01 4.09-6.16.71-2.41.39-4.92-.84-6.7-1.28-1.84-3.7-2.8-5.64-2.23a1.41 1.41 0 0 1-1.75-.95c-.22-.75.21-1.53.95-1.75 3.09-.91 6.77.48 8.75 3.32 1.72 2.47 2.18 5.87 1.23 9.1-.78 2.64-2.42 5.14-4.88 7.42-2.11 1.96-4.52 3.51-6.84 5-.41.27-.91.29-1.33.1v.02Z" fill="#FF002A" stroke="#231815" stroke-width=".75" stroke-linecap="round" stroke-linejoin="round"/><path d="M124.23 167.9c-1.14 0-2.26-.24-3.31-.7l-8.61-3.81c-4.13-1.83-6-6.67-4.17-10.8l2.77-6.25c.06-.14.2-.22.34-.22.05 0 .1 0 .15.03l22.9 10.14c.09.04.16.12.2.21.04.09.03.2 0 .29l-2.77 6.25a8.201 8.201 0 0 1-7.49 4.88l-.01-.02Z" fill="#333434"/><path d="m111.25 146.48 22.9 10.14-2.77 6.25a7.806 7.806 0 0 1-10.31 3.98l-8.61-3.81a7.809 7.809 0 0 1-3.98-10.31l2.77-6.25Zm0-.75c-.09 0-.18.02-.27.05a.72.72 0 0 0-.42.4l-2.77 6.25a8.503 8.503 0 0 0-.16 6.55 8.48 8.48 0 0 0 4.52 4.74l8.61 3.81a8.56 8.56 0 0 0 11.29-4.37l2.77-6.25c.17-.38 0-.82-.38-.99l-22.9-10.14c-.1-.04-.2-.06-.3-.06l.01.01Z" fill="#231815"/><path d="m117.73 131.84-7.45 16.82c-.34.77 4.51 3.67 10.83 6.47s11.73 4.44 12.07 3.67l7.45-16.82-22.9-10.14Z" fill="#E86546" stroke="#231815" stroke-width=".75" stroke-linecap="round" stroke-linejoin="round"/><path d="M140.07 142.6c-1.65 0-6.33-1.59-11.67-3.95-3.07-1.36-5.9-2.78-7.96-3.99-3.2-1.88-3.27-2.48-3.09-2.9l2.1-4.75c.06-.14.2-.22.34-.22.05 0 .1 0 .15.03l22.9 10.14c.19.08.28.31.19.49l-2.07 4.67s-.03.07-.04.08c-.17.39-.69.39-.86.39l.01.01Z" fill="#333434"/><path d="m119.8 127.17 22.9 10.14-2.07 4.67h-.02s0 .05-.01.08c-.05.12-.23.17-.52.17-1.54 0-6.2-1.56-11.52-3.92-6.32-2.8-11.19-5.66-10.86-6.39.01-.03.03-.05.06-.07h-.02l2.07-4.68m0-.75c-.09 0-.18.02-.27.05a.72.72 0 0 0-.42.4l-2.07 4.67s-.01.03-.02.04c0 .01-.01.03-.02.04-.33.73.1 1.52 3.24 3.37 2.08 1.22 4.92 2.65 8 4.01 5.38 2.38 10.13 3.98 11.82 3.98.62 0 1.02-.21 1.21-.62 0-.01.01-.03.02-.04 0-.01.01-.02.02-.04l2.07-4.67c.17-.38 0-.82-.38-.99l-22.9-10.14c-.1-.04-.2-.06-.3-.06Z" fill="#231815"/><path d="M142.02 137.97c-1.77 0-6.43-1.54-11.61-3.83-1.21-.53-11.77-5.27-10.99-7.04l.02-.04c.01-.05.04-.1.07-.14l2.97-3.34c.07-.08.18-.13.28-.13.05 0 .1.01.15.03l20.41 9.03c.15.07.24.22.22.38l-.47 4.45c0 .06-.03.12-.06.17v.01c-.2.44-.79.44-.99.44v.01Z" fill="#333434"/><path d="m122.77 123.82 20.41 9.03-.47 4.45h-.02s0 .05-.02.08c-.06.14-.29.21-.64.21-1.66 0-6.26-1.5-11.46-3.8-6.32-2.8-11.16-5.73-10.79-6.55.01-.03.03-.05.05-.07h-.02l2.97-3.35m0-.75c-.21 0-.41.09-.56.25l-2.97 3.34c-.07.08-.12.17-.16.27-.33.75.08 1.59 3.19 3.48 2.07 1.25 4.9 2.7 7.99 4.06 5.22 2.31 9.95 3.87 11.77 3.87.69 0 1.13-.22 1.33-.66 0-.01 0-.02.01-.03.04-.08.07-.17.08-.27l.47-4.45a.768.768 0 0 0-.44-.77l-20.41-9.03c-.1-.04-.2-.06-.3-.06Z" fill="#231815"/><path d="M143.1 133.29s-.06 0-.09-.01a67.262 67.262 0 0 1-20.44-9.05.369.369 0 0 1-.17-.29c0-.12.04-.23.13-.31 5.38-4.61 8.62-7.91 10.51-10.69a.384.384 0 0 1 .43-.14c3.71 1.3 7.2 2.84 10.66 4.72.15.08.23.25.19.42-.79 3.27-1.05 7.89-.85 14.97 0 .12-.05.23-.14.3a.4.4 0 0 1-.23.08Z" fill="#333434"/><path d="M133.36 113.15a70.58 70.58 0 0 1 10.6 4.69c-.72 2.97-1.08 7.27-.86 15.07a66.836 66.836 0 0 1-20.32-9c5.92-5.07 8.86-8.24 10.58-10.77m0-.75c-.24 0-.48.12-.62.33-1.87 2.76-5.1 6.03-10.45 10.62a.757.757 0 0 0 .07 1.2c6.22 4.12 13.32 7.27 20.55 9.1.06.02.12.02.18.02.17 0 .33-.06.47-.16.18-.15.29-.37.28-.61-.2-7.04.06-11.63.84-14.87a.74.74 0 0 0-.37-.83 71.038 71.038 0 0 0-10.71-4.74.69.69 0 0 0-.25-.04l.01-.02Z" fill="#231815"/><path d="m140.335 103.661 5.953 2.635a.58.58 0 0 1 .295.765l-1.077 2.432-7.013-3.105 1.077-2.432a.58.58 0 0 1 .765-.295Z" fill="#FF002A" stroke="#231815" stroke-width=".75" stroke-linecap="round" stroke-linejoin="round"/><path d="m145.822 109.632-7.635-3.381-.826 1.866 7.635 3.38.826-1.865Z" fill="#fff" stroke="#231815" stroke-width=".75" stroke-linecap="round" stroke-linejoin="round"/><path d="m137.001 107.952 8.366 3.704c.403.178.577.649.403 1.042l-.575 1.299-9.811-4.344.575-1.298a.791.791 0 0 1 1.042-.403Zm8.492 6.185-10.433-4.619-1.863 4.206 10.434 4.619 1.862-4.206Z" fill="#FF002A" stroke="#231815" stroke-width=".75" stroke-linecap="round" stroke-linejoin="round"/><path d="M130.15 147.02a3.22 3.22 0 0 0-.64-.79c-.79-.71-1.83-.96-2.8-.76-.65.13-1.26.46-1.74.98v.03s.02 0 .03.01a3.244 3.244 0 0 1 1.62 4.26c-.14.32-.33.61-.56.86 1.25.55 2.75.27 3.71-.8s1.07-2.6.39-3.78l-.01-.01Z" fill="#fff" stroke="#231815" stroke-width=".75" stroke-linecap="round" stroke-linejoin="round"/><path d="M130.53 143.24a3.242 3.242 0 0 0-3.47-1.54c-.33.07-.65.19-.95.37-.92.53-1.48 1.45-1.59 2.43-.08.66.05 1.34.4 1.96 0 0 .02 0 .03.01l.02-.02a3.235 3.235 0 0 1 5.18.57c.91-1.02 1.1-2.54.38-3.78Z" fill="#fff" stroke="#231815" stroke-width=".75" stroke-linecap="round" stroke-linejoin="round"/><path d="M124.95 146.47v-.03l-.02.02.02.01Zm1.51 1.37c-.32-.58-.83-1.06-1.48-1.36h-.03v.03c-.08.71-.38 1.34-.83 1.82-.67.73-1.66 1.14-2.71 1.03a3.61 3.61 0 0 1-.99-.26 3.234 3.234 0 0 0 5.62 2.49c.22-.25.41-.54.56-.86.43-.97.34-2.04-.14-2.9v.01Z" fill="#fff" stroke="#231815" stroke-width=".75" stroke-linecap="round" stroke-linejoin="round"/><path d="M124.95 146.49h.03s-.02 0-.03-.01v.01Zm0 .03s-.01-.02-.02-.02h-.03a3.2 3.2 0 0 1-1.99-.23c-.9-.41-1.59-1.23-1.82-2.26-.07-.34-.09-.69-.05-1.02a3.237 3.237 0 0 0-.63 6.12c.31.14.64.23.99.26 1.06.11 2.05-.3 2.71-1.03.45-.49.75-1.12.83-1.82h.01Z" fill="#fff" stroke="#231815" stroke-width=".75" stroke-linecap="round" stroke-linejoin="round"/><path d="M124.94 146.5s.01.02.02.02v-.03l-.02.01Zm-.43-2.01c.11-.98.67-1.89 1.59-2.43.31-.18.63-.3.95-.37a3.237 3.237 0 0 0-3.48-1.53c-1.4.3-2.4 1.47-2.54 2.82a3.208 3.208 0 0 0 1.87 3.28c.6.28 1.29.37 1.99.23l.02-.02s0-.02-.01-.03c-.35-.62-.47-1.31-.4-1.96l.01.01Zm.42 2-.02.02h.03l-.01-.02Z" fill="#fff" stroke="#231815" stroke-width=".75" stroke-linecap="round" stroke-linejoin="round"/><path d="M124.93 146.48s-.02 0-.03-.01c0 0 0 .02.01.03l.02-.02Z" fill="#fff" stroke="#231815" stroke-width=".75" stroke-linecap="round" stroke-linejoin="round"/><path d="M124.95 146.48v-.01h-.01l-.01.01h-.01l.01.01v.01h.02v-.02Z" fill="#fff" stroke="#231815" stroke-width=".75" stroke-linecap="round" stroke-linejoin="round"/><path d="M188.58 160.96c.05-.26.18-.51.38-.71.55-.55 1.44-.56 1.99 0 1.88 1.86 3.82 3.78 5.98 5.27 2.35 1.61 4.67 2.5 6.9 2.65 2.51.17 4.88-.69 6.35-2.28 1.52-1.65 1.93-4.23.95-5.99a1.4 1.4 0 0 1 .55-1.91 1.4 1.4 0 0 1 1.91.55c1.57 2.82 1 6.71-1.34 9.26-2.04 2.22-5.26 3.41-8.61 3.19-2.74-.18-5.54-1.24-8.31-3.14-2.37-1.63-4.41-3.64-6.37-5.59a1.41 1.41 0 0 1-.39-1.28l.01-.02Z" fill="#FF002A" stroke="#231815" stroke-width=".75" stroke-linecap="round" stroke-linejoin="round"/><path d="m170.26 160.69-6.71-1.34a8.176 8.176 0 0 1-5.21-3.49c-1.21-1.82-1.65-4-1.22-6.15l1.84-9.24a8.19 8.19 0 0 1 9.63-6.42l6.71 1.34c.1.02.18.08.24.16s.08.18.06.28l-4.9 24.56c-.02.1-.08.18-.16.24a.37.37 0 0 1-.21.06h-.07Z" fill="#333434"/><path d="M167 134.27c.51 0 1.02.05 1.54.15l6.71 1.34-4.9 24.56-6.71-1.34a7.806 7.806 0 0 1-6.13-9.19l1.84-9.24c.74-3.71 4-6.28 7.65-6.28Zm0-.75c-4.06 0-7.59 2.9-8.39 6.89l-1.84 9.24c-.92 4.63 2.09 9.15 6.72 10.07l6.71 1.34s.1.01.15.01c.15 0 .29-.04.42-.13.17-.11.28-.28.32-.48l4.9-24.56c.08-.41-.18-.8-.59-.88l-6.71-1.34c-.56-.11-1.12-.17-1.69-.17v.01Z" fill="#231815"/><path d="m190.94 138.9-18.04-3.6c-.83-.17-2.6 5.2-3.96 11.98-1.35 6.78-1.78 12.41-.95 12.58l18.04 3.6 4.9-24.56h.01Z" fill="#E86546" stroke="#231815" stroke-width=".75" stroke-linecap="round" stroke-linejoin="round"/><path d="M190.98 164.82s-5.09-1.02-5.1-1.02c-.44-.09-.89-.49-.58-4.19.2-2.39.67-5.51 1.32-8.81.25-1.26 2.51-12.3 4.21-12.3h.11c.02 0 5.09 1.02 5.09 1.02.2.04.33.24.29.44l-4.9 24.56c-.02.1-.08.18-.16.24a.37.37 0 0 1-.21.06h-.07Z" fill="#333434"/><path d="M190.83 138.88h.03c.03 0 .05.02.08.04v-.02l5.02 1-4.9 24.56-5.01-1v-.02h-.08c-.78-.16-.32-5.78 1.03-12.56 1.34-6.68 3.04-12 3.84-12m0-.75c-.6 0-1.25.31-2.43 4.01-.73 2.28-1.49 5.33-2.14 8.59-.66 3.31-1.13 6.45-1.33 8.85-.3 3.63.1 4.44.89 4.59h.08l5.01 1s.1.01.15.01c.15 0 .29-.04.42-.13.17-.11.28-.28.32-.48l4.9-24.56c.08-.41-.18-.8-.59-.88l-5.01-1h-.08c-.05 0-.13-.02-.18-.02l-.01.02Z" fill="#231815"/><path d="M191.05 164.83s-.09 0-.14-.03h-.02c-.48-.1-.94-.67-.7-4.21.16-2.39.62-5.53 1.27-8.82.25-1.26 2.5-12.27 4.37-12.27.03 0 .09 0 .12.01.02 0 .03 0 .05.01.05 0 .1.02.15.04l3.91 2.17c.14.08.22.24.19.4l-4.37 21.88c-.03.16-.16.28-.33.3 0 0-4.47.51-4.49.51l-.01.01Z" fill="#333434"/><path d="M195.83 139.88h.04c.03 0 .05.02.08.03v-.02l3.91 2.18-4.37 21.88-4.44.51v-.02h-.08c-.88-.18-.49-5.81.87-12.6 1.33-6.67 3.11-11.97 4-11.97m0-.75c-.75 0-1.43.67-2.54 3.99-.76 2.28-1.54 5.32-2.19 8.58-.66 3.31-1.12 6.46-1.28 8.87-.25 3.62.2 4.45 1.01 4.61h.03c.07.02.13.03.2.03h.08l4.44-.51c.32-.04.59-.28.65-.6l4.37-21.88a.76.76 0 0 0-.37-.8l-3.91-2.18a.802.802 0 0 0-.3-.09c-.05 0-.14-.02-.19-.02Z" fill="#231815"/><path d="M195.42 164.27c-.08 0-.17-.03-.23-.08a.39.39 0 0 1-.14-.3c.21-7.41 1.72-14.99 4.38-21.92.04-.11.13-.19.25-.23.03 0 .07-.01.1-.01.08 0 .16.03.22.08 5.67 4.24 9.59 6.69 12.73 7.93.16.06.25.22.23.39-.46 3.91-1.2 7.65-2.28 11.43-.05.16-.19.27-.36.27h-.37c-3.34 0-7.79.75-14.44 2.44-.03 0-.06.01-.09.01v-.01Z" fill="#333434"/><path d="M199.78 142.1c6.24 4.67 9.97 6.85 12.81 7.98-.46 3.9-1.19 7.59-2.27 11.37h-.37c-3.03 0-7.26.61-14.52 2.45.21-7.37 1.71-14.91 4.35-21.8Zm0-.75c-.07 0-.14 0-.21.03-.23.07-.41.23-.49.45a67.648 67.648 0 0 0-4.4 22.04c0 .24.1.46.28.61.13.11.3.16.47.16.06 0 .12 0 .18-.02 6.62-1.68 11.04-2.43 14.34-2.43h.37c.33 0 .63-.22.72-.54a71.25 71.25 0 0 0 2.29-11.49.734.734 0 0 0-.47-.78c-3.1-1.23-7-3.66-12.64-7.88a.738.738 0 0 0-.45-.15h.01Z" fill="#231815"/><path d="m223.385 154.829-1.274 6.384a.58.58 0 0 1-.682.455l-2.609-.52 1.502-7.522 2.608.521a.58.58 0 0 1 .455.682Z" fill="#FF002A" stroke="#231815" stroke-width=".75" stroke-linecap="round" stroke-linejoin="round"/><path d="m218.758 161.489 1.635-8.188-2.001-.4-1.635 8.189 2.001.399Z" fill="#fff" stroke="#231815" stroke-width=".75" stroke-linecap="round" stroke-linejoin="round"/><path d="m218.461 152.507-1.792 8.973a.79.79 0 0 1-.929.62l-1.393-.278 2.101-10.522 1.393.278a.792.792 0 0 1 .62.929Zm-4.183 9.64 2.234-11.189-4.511-.901-2.234 11.19 4.511.9Z" fill="#FF002A" stroke="#231815" stroke-width=".75" stroke-linecap="round" stroke-linejoin="round"/><path d="M178.83 154.32c.25-.23.46-.49.64-.8.52-.93.53-2 .14-2.9-.27-.61-.72-1.13-1.34-1.49h-.03v.03c-.15.7-.51 1.29-1 1.74a3.224 3.224 0 0 1-3.76.41c-.26 1.34.34 2.75 1.59 3.45 1.25.7 2.77.48 3.77-.44h-.01Z" fill="#fff" stroke="#231815" stroke-width=".75" stroke-linecap="round" stroke-linejoin="round"/><path d="M182.6 153.87a3.25 3.25 0 0 0 .75-3.72c-.14-.3-.33-.59-.57-.85a3.215 3.215 0 0 0-2.72-1.02c-.66.07-1.3.34-1.83.82v.03s.02.01.03.02a3.234 3.234 0 0 1 1.2 4.39c-.17.31-.39.58-.64.8 1.19.66 2.72.52 3.77-.45l.01-.02Z" fill="#fff" stroke="#231815" stroke-width=".75" stroke-linecap="round" stroke-linejoin="round"/><path d="M178.23 149.13h.03s-.02-.01-.03-.02v.02Zm-1.01 1.77c.49-.44.85-1.04 1-1.74 0 0 0-.02-.01-.03h-.03c-.71.07-1.39-.08-1.96-.42a3.218 3.218 0 0 1-1.59-2.43c-.04-.35-.02-.69.04-1.02a3.235 3.235 0 0 0-1.21 6.03 3.224 3.224 0 0 0 3.76-.41v.02Zm1-1.76s0 .02.01.03v-.03h-.01Z" fill="#fff" stroke="#231815" stroke-width=".75" stroke-linecap="round" stroke-linejoin="round"/><path d="m178.18 149.14.02-.02s0-.02-.01-.03a3.2 3.2 0 0 1-.21-1.99c.21-.96.85-1.82 1.81-2.27.32-.15.65-.24.99-.28a3.24 3.24 0 0 0-3.32-1.85 3.256 3.256 0 0 0-2.8 2.57c-.07.33-.08.67-.04 1.02.12 1.05.74 1.93 1.59 2.43.57.33 1.25.49 1.96.42h.01Zm.03-.01-.02.02h.03l-.01-.02Z" fill="#fff" stroke="#231815" stroke-width=".75" stroke-linecap="round" stroke-linejoin="round"/><path d="M180.07 148.27a3.244 3.244 0 0 1 3.29 1.87 3.237 3.237 0 0 0-3.56-5.31c-.96.44-1.61 1.3-1.81 2.27a3.2 3.2 0 0 0 .21 1.99s.02 0 .03.01l.02-.02c.53-.48 1.17-.75 1.83-.82l-.01.01Zm-1.86.84s-.02 0-.03-.01c0 0 0 .02.01.03l.02-.02Z" fill="#fff" stroke="#231815" stroke-width=".75" stroke-linecap="round" stroke-linejoin="round"/><path d="M178.23 149.11v-.03l-.02.02.02.01Zm0 .03v-.01l.01-.01-.01-.01h-.02l-.01.01.01.01v.01h.02Z" fill="#fff" stroke="#231815" stroke-width=".75" stroke-linecap="round" stroke-linejoin="round"/><path d="M147.33 304.54a.4.4 0 0 1-.23-.08c-10.73-8.15-18.81-18.21-26.62-27.95-1.88-2.34-3.83-4.77-5.78-7.13-1.69-2.04-2.34-4.51-1.85-6.96.47-2.33 1.95-4.42 4.18-5.88l19.07-12.47c1.16-.76 1.97-1.83 2.28-3.03l1-3.84c.04-.17.2-.28.36-.28h.08c4.72 1.07 10.92 2.3 16.98 2.3 4.9 0 9.14-.77 12.98-2.35.05-.02.09-.03.14-.03.11 0 .21.05.28.13 4.21 4.91 5.7 9.55 4.3 13.42-1.58 4.37-5.47 7.81-11.92 10.52-4.04 1.7-8.37 2.91-12.1 3.91-1.17.31-2.38.51-3.56.71-.99.16-2.02.33-3 .57-1.23.3-2.48.66-3.68 1.01-.94.28-1.9.56-2.87.81 2.23.99 4.6 1.33 7.09 1.68 1.62.23 3.3.47 4.94.9 3.97 1.06 7.83 2.49 11.45 4.27 3.8 1.87 7.32 4.09 10.44 6.61.08.06 7.8 7.41 7.7 7.99a.37.37 0 0 1-.25.29c-11 3.99-21.51 8.97-31.24 14.81a.34.34 0 0 1-.19.05l.02.02Z" fill="#00698A"/><path d="M169.92 237.23c3.09 3.6 5.89 8.45 4.23 13.05-1.78 4.92-6.37 8.06-11.71 10.3-3.85 1.61-7.96 2.79-12.05 3.89-2.15.58-4.39.76-6.55 1.28-2.53.61-5 1.47-7.55 2.07 4.04 2.18 8.62 1.89 13.02 3.06 3.97 1.05 7.79 2.48 11.38 4.24 3.75 1.84 7.24 4.04 10.37 6.56.73.59 7.75 7.58 7.57 7.64-11.03 4-21.54 8.98-31.3 14.84-13.26-10.07-22.25-22.83-32.34-35.02-1.6-1.94-2.24-4.32-1.77-6.65.45-2.23 1.88-4.24 4.02-5.64l19.07-12.47c1.24-.81 2.1-1.96 2.44-3.25l1-3.84c5.55 1.26 11.36 2.31 17.06 2.31 4.5 0 8.94-.66 13.12-2.38m0-.75c-.1 0-.19.02-.29.06-3.79 1.56-7.99 2.32-12.83 2.32-6.03 0-12.2-1.22-16.9-2.29-.06-.01-.11-.02-.17-.02-.33 0-.64.22-.73.56l-1 3.84c-.29 1.1-1.04 2.1-2.12 2.81l-19.07 12.47c-2.31 1.51-3.85 3.68-4.34 6.12-.51 2.56.17 5.14 1.93 7.27 1.95 2.36 3.9 4.78 5.78 7.13 7.83 9.75 15.92 19.84 26.69 28.02.13.1.29.15.45.15.13 0 .27-.04.39-.11 9.71-5.83 20.2-10.8 31.17-14.78a.78.78 0 0 0 .49-.59c.08-.47.09-.53-3.71-4.33-1.69-1.7-3.71-3.68-4.13-4.01-3.15-2.54-6.69-4.77-10.51-6.65a62.357 62.357 0 0 0-11.52-4.29c-1.66-.44-3.35-.68-4.98-.91-2.08-.29-4.07-.58-5.96-1.24.6-.17 1.2-.35 1.79-.52 1.2-.35 2.44-.72 3.66-1.01.97-.23 1.99-.4 2.97-.56 1.18-.2 2.4-.4 3.59-.72 3.74-1 8.08-2.22 12.15-3.92 6.54-2.74 10.51-6.26 12.12-10.73 1.45-4.01-.06-8.78-4.37-13.79a.762.762 0 0 0-.57-.26l.02-.02Z" fill="#231815"/><path d="M149.4 257.43c-6.38 13.88-20.67 25.02-37.72 29.4 8.05 6.52 16.7 12.73 24.4 19.51.86.76 19.58-14.13 21.05-15.55 6.46-6.25 11.63-13.44 15.15-21.17 4.53-9.96 6.08-21.84-.83-30.89" fill="#00698A"/><path d="M149.4 257.43c-6.38 13.88-20.67 25.02-37.72 29.4 8.05 6.52 16.7 12.73 24.4 19.51.86.76 19.58-14.13 21.05-15.55 6.46-6.25 11.63-13.44 15.15-21.17 4.53-9.96 6.08-21.84-.83-30.89" stroke="#231815" stroke-width=".75" stroke-linecap="round" stroke-linejoin="round"/><mask id="mask0_799_41927" style="mask-type:luminance" maskUnits="userSpaceOnUse" x="113" y="237" width="66" height="68"><path d="M171.07 281.68c-3.13-2.52-6.62-4.72-10.37-6.56a61.752 61.752 0 0 0-11.38-4.24c-4.4-1.17-8.98-.88-13.02-3.06 2.54-.6 5.01-1.47 7.55-2.07 2.16-.52 4.4-.7 6.55-1.28 4.09-1.1 8.2-2.28 12.05-3.89 5.34-2.24 9.93-5.37 11.71-10.3 1.66-4.6-1.14-9.44-4.23-13.05-9.47 3.91-20.24 2.33-30.18.07l-1 3.84c-.33 1.29-1.2 2.43-2.44 3.25l-19.07 12.47c-2.13 1.4-3.57 3.41-4.02 5.64-.47 2.32.17 4.71 1.77 6.65 10.09 12.2 19.08 24.95 32.34 35.02 9.76-5.86 20.27-10.84 31.3-14.84.19-.07-6.84-7.06-7.57-7.64l.01-.01Z" fill="#fff"/></mask><g mask="url(#mask0_799_41927)"><path d="M139.721 242.541c.9.49 1.97.67 2.97.4 2.1-.57 3.2-2 5.28-.65 1.25.81 2.54 2.65 4.23 2.44 1.55-.19 2.6-2.21 4.14-2.47 2.07-.34 3.64 2.56 5.72 2.66 1.35.06 2.4-1.04 3.44-1.91 1.24-1.03 2.07-.81 3.44.15.89.63 1.83 1.35 2.87 1.28 1.31-.09 2.38-1.53 2.53-3.09.15-1.56-.5-3.12-1.46-4.18-1.69-1.85-3.57-1.57-5.66-1.7-2.56-.16-5.13-.03-7.69.17-5.1.4-10.25 1.1-15.35.27-1.59-.26-4.23-1.09-5.45.25-1.06 1.16-1.43 2.97-.83 4.41.35.84 1.01 1.53 1.82 1.97Z" fill="#E2CCAF" stroke="#231815" stroke-width=".75" stroke-linecap="round" stroke-linejoin="round"/></g></g><path d="M26.547 344.522h-5.824v.644h5.824v-.644Zm-5.824 2.38h5.824v-.644h-5.824v.644Zm0 1.778h5.824v-.672h-5.824v.672Zm-1.61 1.68v-7.014h9.1v6.944h-1.666v-.406h-5.824v.476h-1.61Zm7.672-10.584v1.092H20.47v-1.092h6.314Zm-.014 2.842h-6.286v-1.106h6.286v1.106Zm-8.596-4.662h10.892v5.012h-1.68v-3.836h-7.602v3.85h-1.61v-5.026Zm21.28 2.492h2.996a14.213 14.213 0 0 1-1.652-1.26c-.42.448-.868.868-1.344 1.26Zm-.588 1.246v-.812c-.434.308-.91.602-1.386.854-.21-.294-.686-.798-1.022-1.092-.154.518-.28 1.022-.42 1.456.714 1.078.854 2.086.854 2.884 0 .924-.154 1.526-.56 1.848-.196.168-.448.266-.742.308-.224.042-.532.042-.812.042-.014-.406-.126-1.022-.336-1.442.21.028.364.028.518.014a.454.454 0 0 0 .322-.112c.154-.126.21-.434.21-.854 0-.644-.112-1.568-.784-2.534.224-.84.476-1.988.672-2.912h-1.022v11.004h-1.386v-12.488h2.842l.224-.056 1.036.602c-.182.658-.392 1.4-.588 2.128 1.596-.826 3.066-2.128 3.85-3.402l1.596.56c-.084.14-.168.294-.266.434 1.036.84 2.562 1.666 3.934 2.114a7.609 7.609 0 0 0-.63 1.582 16.88 16.88 0 0 1-1.988-1.036v.91h-4.116Zm3.57 1.82v1.288h.98v-1.288h-.98Zm-1.204 2.394v-3.514h3.472v3.514h-3.472Zm-2.814-2.394v1.288h.938v-1.288h-.938Zm-1.19 2.394v-3.514h3.374v3.514h-3.374Zm1.092.154 1.456.308c-.084.28-.196.56-.308.826.49.322 1.036.714 1.33 1.008l-.84 1.106c-.238-.28-.672-.644-1.106-.966a7.132 7.132 0 0 1-2.002 2.086c-.224-.28-.756-.826-1.078-1.05 1.232-.728 2.128-1.904 2.548-3.318Zm3.864-.014 1.498.21a7.54 7.54 0 0 1-.322 1.134c.784.546 1.694 1.204 2.17 1.68l-.98 1.12c-.392-.42-1.078-.994-1.778-1.512-.42.7-.938 1.288-1.554 1.736-.21-.28-.742-.84-1.064-1.05 1.092-.714 1.764-1.89 2.03-3.318Zm12.39-5.824h5.67s-.014.574-.042.798c-.28 5.572-.56 7.672-1.176 8.4-.42.546-.826.7-1.428.784-.518.07-1.386.07-2.24.028-.028-.504-.252-1.246-.574-1.722.882.07 1.708.07 2.072.07.294 0 .462-.042.658-.224.42-.434.7-2.268.924-6.426h-3.92c-.224 2.898-1.204 6.3-5.138 8.526-.266-.42-.896-1.05-1.302-1.358 3.472-1.89 4.41-4.718 4.648-7.168h-4.214v-1.708h4.284v-2.884h1.778v2.884Z" fill="#231815"/><g clip-path="url(#clip2_799_41927)"><path d="M72.784 335.49c.85 0 2.2 2.79 2.91 3.15.49.25 2.39-.54 2.78-.16.39.38-.17 2.53.08 3.05.35.7 3.14 1.8 3.14 2.64 0 .87-2.86 2.13-3.23 2.85-.26.5.42 2.5.02 2.89-.4.39-2.52-.26-3.05-.01-.68.32-1.77 2.94-2.57 2.94-.8 0-2.04-2.63-2.73-2.96-.52-.25-2.53.46-2.93.07-.4-.39.31-2.39.05-2.9-.36-.71-3.11-1.95-3.11-2.8 0-.85 2.65-1.98 2.98-2.66.26-.53-.42-2.61-.01-3.02.41-.41 2.36.3 2.86.04.71-.36 1.675-3.11 2.525-3.11l.285-.01Z" fill="#00698A" stroke="#231815" stroke-miterlimit="10"/></g><g clip-path="url(#clip3_799_41927)"><path d="M93.344 335.49c.85 0 2.2 2.79 2.91 3.15.49.25 2.39-.54 2.78-.16.39.38-.17 2.53.08 3.05.35.7 3.14 1.8 3.14 2.64 0 .87-2.86 2.13-3.23 2.85-.26.5.42 2.5.02 2.89-.4.39-2.52-.26-3.05-.01-.68.32-1.77 2.94-2.57 2.94-.8 0-2.04-2.63-2.73-2.96-.52-.25-2.53.46-2.93.07-.4-.39.31-2.39.05-2.9-.36-.71-3.11-1.95-3.11-2.8 0-.85 2.65-1.98 2.98-2.66.26-.53-.42-2.61-.01-3.02.41-.41 2.36.3 2.86.04.71-.36 1.97-3.11 2.82-3.11l-.01-.01Z" fill="#00698A" stroke="#231815" stroke-miterlimit="10"/></g><g clip-path="url(#clip4_799_41927)"><path d="M113.905 335.49c.85 0 2.2 2.79 2.91 3.15.49.25 2.39-.54 2.78-.16.39.38-.17 2.53.08 3.05.35.7 3.14 1.8 3.14 2.64 0 .87-2.86 2.13-3.23 2.85-.26.5.42 2.5.02 2.89-.4.39-2.52-.26-3.05-.01-.68.32-1.77 2.94-2.57 2.94-.8 0-2.04-2.63-2.73-2.96-.52-.25-2.53.46-2.93.07-.4-.39.31-2.39.05-2.9-.36-.71-3.11-1.95-3.11-2.8 0-.85 2.65-1.98 2.98-2.66.26-.53-.42-2.61-.01-3.02.41-.41 2.36.3 2.86.04.71-.36 1.97-3.11 2.82-3.11l-.01-.01Z" fill="#00698A" stroke="#231815" stroke-miterlimit="10"/><path d="M116.695 338.64c-.71-.36-2.06-3.15-2.91-3.15v17.35h.08c.8 0 1.89-2.62 2.57-2.94.53-.25 2.65.4 3.05.01.4-.39-.28-2.39-.02-2.89.37-.72 3.23-1.98 3.23-2.85 0-.84-2.79-1.94-3.14-2.64-.25-.52.31-2.67-.08-3.05-.39-.38-2.29.41-2.78.16Z" fill="#fff"/><path d="M113.785 335.49c.85 0 2.2 2.79 2.91 3.15.49.25 2.39-.54 2.78-.16.39.38-.17 2.53.08 3.05.35.7 3.14 1.8 3.14 2.64 0 .87-2.86 2.13-3.23 2.85-.26.5.42 2.5.02 2.89-.4.39-2.52-.26-3.05-.01-.68.32-1.77 2.94-2.57 2.94h-.08v-17.35Zm0 0 .01.01" stroke="#231815" stroke-miterlimit="10"/></g><path d="m165.732 346.322 1.484.504c-.574.784-1.4 1.764-2.058 2.338-.28-.266-.896-.714-1.26-.938a9.44 9.44 0 0 0 1.834-1.904Zm4.676.672 1.204-.7c.63.644 1.526 1.554 1.988 2.128l-1.288.784c-.42-.56-1.26-1.526-1.904-2.212Zm.392-3.206v-.518h-3.598v.518h3.598Zm0 1.456v-.532h-3.598v.532h3.598Zm-6.552-6.342v3.108c0 .378-.014.784-.028 1.204a7.623 7.623 0 0 0 1.204-.728c-.266-.224-.56-.462-.826-.644l.84-.742c.266.168.588.392.868.602.21-.21.406-.434.574-.672h-2.142v-1.246h2.884c.112-.294.224-.588.308-.882h-3.682Zm5.292 2.128h-.938c-.266.434-.56.854-.91 1.26h2.702a7.67 7.67 0 0 1-.854-1.26Zm3.08 0h-1.568c.21.28.462.546.742.798.294-.266.616-.574.826-.798Zm.07 0 .91.672c-.294.28-.63.56-.952.798.42.266.868.504 1.33.658a4.81 4.81 0 0 0-.966 1.176 6.639 6.639 0 0 1-.756-.406v2.296h-2.45v1.792c0 .686-.126 1.022-.644 1.246-.476.21-1.106.21-1.946.21-.098-.42-.336-.966-.518-1.33.518.014 1.092.014 1.274.014.168 0 .224-.056.224-.196v-1.736h-2.38v-2.31c-.266.182-.546.35-.84.504a3.555 3.555 0 0 0-.77-.91c-.14 2.03-.63 4.396-2.044 5.95-.21-.308-.84-.91-1.148-1.106.924-1.022 1.344-2.324 1.54-3.626-.504.308-.994.602-1.484.868l-.462-1.498c.546-.224 1.302-.602 2.1-1.008.014-.364.014-.728.014-1.078v-.476l-1.232.56c-.14-.714-.476-1.918-.77-2.814l1.232-.49c.266.784.588 1.792.77 2.478v-3.766h4.648l-.28-.84 1.694-.336c.14.364.28.784.406 1.176h4.578v1.4h-5.264l.98.126c-.084.266-.182.504-.28.756h4.438v1.246h-.952Zm7.728 8.162-1.26-.7c.49-.504.952-1.316 1.204-2.002l1.246.546c-.294.714-.686 1.596-1.19 2.156Zm4.368-4.522v-2.716h1.176v2.716h-1.176Zm3.346-2.856v3.136c0 .588-.084.854-.49 1.036-.392.182-.91.182-1.638.182-.056-.336-.238-.77-.406-1.078.448.014.882.014 1.036 0 .14-.014.182-.042.182-.168v-3.108h1.316Zm-4.746 4.606 1.05-.658c.434.364 1.05.924 1.344 1.288l-1.078.728c-.28-.392-.854-.952-1.316-1.358Zm-1.764-2.24h1.4v-.392h-1.386c0 .126 0 .266-.014.392Zm1.4-1.442h-1.386v.35h1.386v-.35Zm1.19-.812v3.234c0 .476-.084.658-.406.798-.28.14-.728.14-1.316.14-.028-.266-.168-.574-.28-.812.28.014.574.014.672.014.098 0 .14-.028.14-.14v-.28h-1.484c-.112.504-.322.966-.742 1.33-.196-.224-.714-.63-.98-.784.602-.462.644-1.078.644-1.68v-1.82h3.752Zm-.476 6.272h1.54c.364 0 .448-.112.49-.84.266.182.798.336 1.148.406-.14 1.19-.49 1.498-1.498 1.498h-1.862c-1.414 0-1.75-.322-1.75-1.4v-1.33h1.358v1.316c0 .322.084.35.574.35Zm2.674-1.26 1.19-.532c.518.658 1.134 1.554 1.414 2.156l-1.26.588c-.238-.574-.826-1.526-1.344-2.212Zm-3.024-6.272h2.142a18.048 18.048 0 0 1-1.148-.588c-.322.21-.644.406-.994.588Zm-3.64-1.708v1.694c1.47-.364 3.108-.938 4.158-1.694h-4.158Zm5.698.28-.14.14a17.324 17.324 0 0 0 3.962 1.19c-.308.28-.686.742-.868 1.134a20.442 20.442 0 0 1-2.212-.742v.602h-3.668v-.476c-.686.28-1.4.546-2.086.742a4.917 4.917 0 0 0-.686-.924v1.162c0 2.226-.294 5.488-2.086 7.434-.21-.308-.84-.896-1.148-1.092.924-1.022 1.344-2.338 1.54-3.654-.504.308-.994.616-1.484.896l-.462-1.498c.546-.238 1.302-.616 2.1-1.008.014-.378.014-.742.014-1.078v-.49l-1.232.574c-.07-.742-.392-1.918-.756-2.814l1.19-.504c.35.784.672 1.764.798 2.45v-3.724h4.83a11.057 11.057 0 0 0-.294-.952l1.68-.322c.154.392.322.854.448 1.274h4.242v1.4h-4.256l.574.28Zm12.81.056h5.67s-.014.574-.042.798c-.28 5.572-.56 7.672-1.176 8.4-.42.546-.826.7-1.428.784-.518.07-1.386.07-2.24.028-.028-.504-.252-1.246-.574-1.722.882.07 1.708.07 2.072.07.294 0 .462-.042.658-.224.42-.434.7-2.268.924-6.426h-3.92c-.224 2.898-1.204 6.3-5.138 8.526-.266-.42-.896-1.05-1.302-1.358 3.472-1.89 4.41-4.718 4.648-7.168h-4.214v-1.708h4.284v-2.884h1.778v2.884Z" fill="#231815"/><g clip-path="url(#clip5_799_41927)"><path d="M219.404 335.49c-1.34 0-2.54.55-3.41 1.44a4.741 4.741 0 0 0-3.41-1.44c-2.64 0-4.77 2.13-4.77 4.77 0 4.79 8.18 10.62 8.18 10.62s8.18-5.83 8.18-10.62a4.77 4.77 0 0 0-4.77-4.77Z" fill="#FF002A" stroke="#231815" stroke-miterlimit="10"/></g><path d="M15.5 368.35a4.5 4.5 0 0 1 4.5-4.5h44.5v33H20a4.5 4.5 0 0 1-4.5-4.5v-24Z" fill="#00698A"/><path d="M33.778 377.916v-.798H31.86v.798h1.918Zm0 2.212v-.868H31.86v.868h1.918Zm0 2.226v-.882H31.86v.882h1.918Zm-3.528 1.988v-5.81c-.238.28-.476.518-.714.756-.154-.336-.616-1.162-.896-1.526 1.12-1.008 2.128-2.604 2.688-4.242l1.512.42c-.21.602-.476 1.19-.756 1.778h2.086a13.32 13.32 0 0 0-.658-1.512l1.568-.448c.35.602.714 1.372.896 1.96h2.212v1.4H35.36v.798h2.254v1.344H35.36v.868h2.198v1.344H35.36v.882h2.982v1.4H31.86v.588h-1.61Zm-1.68-8.526-1.526.532c-.154-.63-.518-1.652-.756-2.408l1.47-.448c.266.756.616 1.694.812 2.324Zm.126 3.962.714.252c-.252 1.274-.63 2.59-1.106 3.64.224.14.49.336.868.56.952.574 2.268.658 3.906.658 1.61 0 4.116-.14 5.656-.364-.182.448-.462 1.26-.476 1.708-1.162.07-3.626.168-5.264.168-1.862 0-3.038-.154-4.046-.742-.588-.322-1.078-.784-1.372-.784-.322 0-.812.952-1.162 1.75l-1.106-1.582c.476-.588.994-1.05 1.47-1.33.308-.7.588-1.582.798-2.436h-1.764c.322-.826.7-1.946 1.008-3.038h-1.26v-1.484h3.276c-.294.98-.63 2.1-.952 3.08h.56l.252-.056Zm15.652-6.23 1.554.518a21.66 21.66 0 0 1-1.358 2.66v9.842h-1.582v-7.546c-.448.56-.882 1.05-1.344 1.484-.154-.406-.616-1.316-.882-1.736 1.428-1.232 2.814-3.22 3.612-5.222Zm5.026 11.228h2.044c.714 0 .826-.588.952-2.898.378.294 1.036.616 1.47.7-.182 2.702-.602 3.668-2.296 3.668h-2.338c-1.722 0-2.212-.56-2.212-2.464v-10.024h1.61v3.556h4.872v1.596h-4.872v4.9c0 .826.098.966.77.966Z" fill="#fff"/><path d="M15.5 368.35a4.5 4.5 0 0 1 4.5-4.5h44.5v33H20a4.5 4.5 0 0 1-4.5-4.5v-24Z" stroke="#231815"/><path d="M64.5 363.85H260a4.5 4.5 0 0 1 4.5 4.5v24a4.5 4.5 0 0 1-4.5 4.5H64.5v-33Z" fill="#fff"/><path d="m79.768 375.592.854-.308c-.798.042-1.582.098-2.38.126.28.35.532.756.63 1.064l-.588.252h2.044c-.112-.35-.336-.784-.56-1.134Zm1.176 1.134H83.1c.308-.504.714-1.204.966-1.778-.91.112-1.89.21-2.884.294.28.378.532.84.602 1.176l-.84.308ZM76.604 378v1.288h-1.582v-2.562h2.31a5.052 5.052 0 0 0-.588-.98l.714-.308-1.722.042a4.371 4.371 0 0 0-.322-1.204c3.43-.07 7.504-.336 9.8-.798l1.106 1.106c-.546.112-1.148.224-1.778.294l1.246.406c-.35.504-.714 1.008-1.05 1.442h2.254v2.758h-1.33c.378.35.686.7.882 1.008l-1.19.896c-.406-.658-1.33-1.596-2.142-2.24l1.12-.798c.322.238.672.532 1.008.826V378h-3.794c.378.196.7.42.938.616l-.826.924c-.434-.378-1.288-.896-2.002-1.204l.308-.336h-3.36Zm.476.476 1.26.546c-.308.798-.756 1.652-1.498 2.226l-1.162-.896c.63-.42 1.134-1.162 1.4-1.876Zm1.918 4.452-.028.014c.658.406 1.4.728 2.226 1.022.686-.294 1.274-.63 1.764-1.036h-3.962Zm5.432-1.246 1.05.686c-.588.868-1.358 1.568-2.296 2.142 1.302.252 2.744.434 4.298.518-.336.378-.742 1.078-.938 1.54-2.072-.168-3.92-.518-5.53-1.064-1.666.574-3.57.91-5.544 1.106-.14-.378-.532-1.05-.84-1.386 1.568-.084 3.08-.28 4.424-.588a9.76 9.76 0 0 1-1.414-.91c-.504.266-1.008.49-1.484.686-.266-.294-.812-.854-1.148-1.092.518-.154 1.036-.35 1.512-.574a10.509 10.509 0 0 1-.854-1.036l1.316-.532c.238.322.518.63.826.91.546-.336 1.05-.714 1.442-1.12-.616-.182-.784-.574-.784-1.386v-.966h1.526v.966c0 .322.098.35.574.35h1.47c.336 0 .434-.084.476-.644.308.182.882.35 1.274.42-.154 1.078-.532 1.372-1.582 1.372h-1.288l.084.028c-.168.21-.336.42-.532.616h3.682l.28-.042Zm8.54-.238v-5.138h-1.106v5.138h1.106Zm4.69 3.276h3.122c.532 0 .728-.224.784-1.96.462.252.994.448 1.498.546-.182 2.534-.826 3.038-2.38 3.038h-2.968c-1.862 0-2.702-.742-2.702-1.876 0-.77.182-1.582 3.598-4.494h-2.66v-1.484a6.851 6.851 0 0 1-.406.49c-.238-.224-.7-.63-1.078-.91v4.998h-2.604v1.12h-1.526v-9.478h4.13v2.898c.98-1.05 1.764-2.576 2.226-4.13l1.652.406c-.168.532-.378 1.05-.602 1.568h4.928v1.554H96.96c-.294.532-.63.994-.966 1.428h4.76l.378-.042 1.12.63c-.056.084-.14.182-.238.28-4.914 3.794-5.278 4.48-5.278 4.928 0 .35.35.49.924.49Zm20.692-8.428-1.386.532c-.126-.63-.546-1.666-.98-2.422l1.302-.476c.462.742.91 1.708 1.064 2.366Zm-7.182-.728v-.84h-.77v.84h.77Zm1.246-1.792v2.716h-3.178v-2.716h3.178Zm-5.11 5.656v.602h1.036v-.602h-1.036Zm0-1.512v.588h1.036v-.588h-1.036Zm3.458.588v-.588h-1.078v.588h1.078Zm0 1.526v-.602h-1.078v.602h1.078Zm-4.928.98v-4.074h6.454v4.074h-6.454Zm1.75-5.446v-.84h-.714v.84h.714Zm1.19-1.792v2.716h-3.066v-2.716h3.066Zm4.116 7.644v1.176h-7.63v-1.176h7.63Zm-5.292 3.486h2.94v-.77h-2.94v.77Zm10.668-6.132h-2.198c.364 2.688 1.05 5.152 2.45 6.454-.378.294-.91.924-1.162 1.372-.994-1.05-1.624-2.548-2.058-4.34-.42 1.54-1.148 3.066-2.352 4.312a7.367 7.367 0 0 0-.812-.812v.616h-1.596v-.322h-2.94v.504h-1.512v-3.542h6.048v1.96c1.61-1.82 2.002-4.214 2.1-6.202H112.5v-1.54h1.764v-3.724h1.624v3.724h2.38v1.54Z" fill="#231815"/><path d="M64.5 363.85H260a4.5 4.5 0 0 1 4.5 4.5v24a4.5 4.5 0 0 1-4.5 4.5H64.5v-33Z" stroke="#231815"/><path d="M15.5 412.35a4.5 4.5 0 0 1 4.5-4.5h44.5v33H20a4.5 4.5 0 0 1-4.5-4.5v-24Z" fill="#00698A"/><path d="M33.918 420.978v2.002h-1.526v-2.002h1.526Zm1.512 7.644h-.462c.21.252.406.504.546.77h.308c.14 0 .238-.028.322-.154.154-.196.266-.896.35-2.772h-3.472v.392h2.408v1.764Zm-2.408.406.896-.042a3.952 3.952 0 0 0-.196-.252l.28-.112h-.98v.406Zm1.148-1.064v-.448h-1.148v.448h1.148Zm-3.724 0h1.176v-.448h-1.176v.448Zm1.176-1.498h-1.134c-.14.14-.28.266-.434.392h1.568v-.392Zm-3.374-5.684v1.372c0 1.302-.056 2.954-.308 4.564.868-.476 1.54-1.036 2.002-1.596h-1.148v-1.96h.28l-.238-.826c.588-.098 1.386-.224 2.24-.392a15.106 15.106 0 0 0-1.96-.406l.238-.728c.84.098 1.792.266 2.38.462l-.238.602.532-.098.014.826c-.896.21-1.82.42-2.59.56h7.266c-.658-.196-1.568-.378-2.408-.49l.238-.714.294.014-.322-.658c.504-.084 1.246-.336 1.806-.532h-8.078Zm7.896-1.722h-7.896v.658h7.896v-.658Zm-.042 5.39v-.616h-1.19v.616h1.19Zm-2.45 0v-.616H32.49v.616h1.162Zm-2.422 0v-.616h-1.134v.616h1.134Zm.112 1.092h6.678s0 .35-.014.518c-.112 2.604-.252 3.598-.56 3.976-.224.294-.504.392-.812.434-.294.056-.77.056-1.26.042a2.693 2.693 0 0 0-.098-.532l-.602.252a3.58 3.58 0 0 0-.154-.336c-2.156.154-4.382.294-5.992.392l-.098-1.078c.868-.028 1.974-.084 3.192-.14v-.448h-2.366v-1.176a12.67 12.67 0 0 1-.56.364c-.182-.252-.518-.56-.798-.77-.224 1.274-.546 2.492-1.078 3.486-.308-.252-1.022-.658-1.442-.812 1.162-2.156 1.26-5.334 1.26-7.56v-4.144h11.13v2.772h-.966l.364.644c-.686.266-1.624.448-2.282.56.854.098 1.778.28 2.324.448l-.266.728h.532v1.96H31.65c-.098.14-.196.28-.308.42Zm19.222 2.996h3.304v1.582H45.16v-1.582h3.738v-2.8h-2.702v-1.554h2.702v-2.296h-1.54c-.21.728-.49 1.4-.784 1.932a14.722 14.722 0 0 0-1.484-.756c.14-.252.28-.518.42-.812l-.798.364c-.084-.42-.294-1.036-.532-1.61v9.562h-1.666v-10.01c-.084 1.176-.308 2.716-.63 3.71l-1.232-.448c.336-.924.588-2.492.686-3.64l1.176.168v-2.856h1.666v2.646l.812-.336c.28.546.574 1.218.77 1.764.35-1.022.602-2.226.742-3.416l1.624.224c-.098.658-.21 1.316-.35 1.946h1.12v-2.744h1.666v2.744h2.856v1.568h-2.856v2.296h2.562v1.554h-2.562v2.8Z" fill="#fff"/><path d="M15.5 412.35a4.5 4.5 0 0 1 4.5-4.5h44.5v33H20a4.5 4.5 0 0 1-4.5-4.5v-24Z" stroke="#231815"/><path d="M64.5 407.85H260a4.5 4.5 0 0 1 4.5 4.5v24a4.5 4.5 0 0 1-4.5 4.5H64.5v-33Z" fill="#fff"/><path d="m87.636 419.284-1.078.602c-.154-.49-.574-1.204-.994-1.708l1.008-.546c.462.49.882 1.176 1.064 1.652Zm-4.242 5.712h-.518v1.82h.518v-1.82Zm-1.288 3.598v-4.634h2.086v3.906h-1.316v.728h-.77Zm2.058-6.468v1.078h-2.03v-1.078h2.03Zm-6.314 6.188h1.19v-1.4l-.644.532c-.196-.378-.49-.84-.84-1.316-.392.616-.812 1.19-1.246 1.652-.084-.084-.224-.21-.364-.336v.868h1.638a5.932 5.932 0 0 0-.686-1.022l.616-.504c.294.35.63.798.798 1.12l-.462.406Zm-1.904-2.478v.966c.364-.434.728-.924 1.05-1.456-.35-.448-.7-.882-1.05-1.274v.574c.28.266.546.63.714.854l-.574.56a5.21 5.21 0 0 0-.14-.224Zm1.022-3.5h-1.022v1.386l.448-.378c.35.364.714.77 1.05 1.176.294-.546.532-1.134.742-1.722l.854.224v-.686h-1.904c.308.266.588.602.77.826l-.574.672c-.168-.28-.518-.7-.826-.98l.462-.518Zm2.072 4.438v-.952a6.312 6.312 0 0 0-.672-.84l.518-.518.154.154v-1.512c-.28.756-.616 1.484-.994 2.184.406.532.756 1.05.994 1.484Zm7.322-4.508 1.218.182c-.336 1.862-.84 3.5-1.554 4.886.154.994.322 1.582.504 1.582.168 0 .28-.63.35-1.708.21.28.7.658.91.798-.322 2.072-.882 2.548-1.316 2.548-.574 0-1.008-.658-1.33-1.778a9.645 9.645 0 0 1-1.652 1.722c-.196-.224-.7-.658-.98-.854.924-.658 1.68-1.512 2.268-2.548-.252-1.54-.392-3.514-.49-5.712h-2.422v2.926c0 1.862-.126 4.494-.98 6.216-.14-.14-.406-.308-.658-.448v.028h-1.19v-.504h-3.094v.854h-1.148v-9.422h1.96v-3.542h1.428v1.204h2.226v1.288h-2.226v1.05h2.044v7.868c.434-1.47.476-3.22.476-4.578v-4.34h3.542c-.028-.812-.042-1.652-.056-2.506h1.26c0 .84.014 1.68.042 2.506h2.03v1.4h-1.988c.056 1.246.126 2.436.21 3.486.266-.812.462-1.68.616-2.604Zm13.552 1.652v.588l.896-.014a9.752 9.752 0 0 0-.336-.392l.392-.182h-.952Zm-2.548-.896H98.5v-.56h-1.134v.56Zm0-1.96v.546H98.5v-.546h-1.134Zm3.738 0h-1.19v.546h1.19v-.546Zm0 1.96v-.56h-1.19v.56h1.19Zm-5.32 2.744-.084-1.19c.77 0 1.736-.014 2.8-.042v-.616h-2.436v-3.752H98.5v-.518h-2.674v-1.218H98.5v-.924h1.414v.924h2.814v1.218h-2.814v.518h2.562v3.752h-.588c.462.532.882 1.148 1.12 1.61l-1.162.574c-.07-.14-.154-.308-.266-.49-2.1.07-4.256.126-5.796.154Zm4.032 3.318v-1.54h-2.1c.434.434.826.966 1.022 1.358l-.574.364c.56.028 1.204.028 1.386.028.196-.014.266-.056.266-.21Zm-8.33-4.998v.826h.798v-.826h-.798Zm0-1.918v.826h.798v-.826h-.798Zm2.73.826v-.826h-.854v.826h.854Zm0 1.918v-.826h-.854v.826h.854Zm7.112.868v.546h1.596v1.218h-1.596v1.582c0 .714-.112 1.064-.644 1.274-.518.196-1.19.21-2.17.21-.042-.406-.238-.924-.406-1.302l-.56.35c-.224-.49-.7-1.204-1.204-1.708l.686-.406h-1.316v.812h-2.156v2.212h-1.47v-2.212h-2.254V426.9h2.254v-.84h-1.792v-5.054h1.792v-.728H90.03v-1.442h2.058v-1.33h1.47v1.33h1.988v1.442h-1.988v.728h1.862v5.054h-1.862v.84h2.156v-.574h4.102v-.546h1.512Zm13.986-1.862v.588l.896-.014a9.752 9.752 0 0 0-.336-.392l.392-.182h-.952Zm-2.548-.896h1.134v-.56h-1.134v.56Zm0-1.96v.546h1.134v-.546h-1.134Zm3.738 0h-1.19v.546h1.19v-.546Zm0 1.96v-.56h-1.19v.56h1.19Zm-5.32 2.744-.084-1.19c.77 0 1.736-.014 2.8-.042v-.616h-2.436v-3.752h2.436v-.518h-2.674v-1.218h2.674v-.924h1.414v.924h2.814v1.218h-2.814v.518h2.562v3.752h-.588c.462.532.882 1.148 1.12 1.61l-1.162.574a6.108 6.108 0 0 0-.266-.49c-2.1.07-4.256.126-5.796.154Zm4.032 3.318v-1.54h-2.1c.434.434.826.966 1.022 1.358l-.574.364c.56.028 1.204.028 1.386.028.196-.014.266-.056.266-.21Zm-8.33-4.998v.826h.798v-.826h-.798Zm0-1.918v.826h.798v-.826h-.798Zm2.73.826v-.826h-.854v.826h.854Zm0 1.918v-.826h-.854v.826h.854Zm7.112.868v.546h1.596v1.218h-1.596v1.582c0 .714-.112 1.064-.644 1.274-.518.196-1.19.21-2.17.21-.042-.406-.238-.924-.406-1.302l-.56.35c-.224-.49-.7-1.204-1.204-1.708l.686-.406h-1.316v.812h-2.156v2.212h-1.47v-2.212h-2.254V426.9h2.254v-.84h-1.792v-5.054h1.792v-.728h-2.058v-1.442h2.058v-1.33h1.47v1.33h1.988v1.442h-1.988v.728h1.862v5.054h-1.862v.84h2.156v-.574h4.102v-.546h1.512Z" fill="#231815"/><path d="M64.5 407.85H260a4.5 4.5 0 0 1 4.5 4.5v24a4.5 4.5 0 0 1-4.5 4.5H64.5v-33Z" stroke="#231815"/><path d="M15.5 456.35a4.5 4.5 0 0 1 4.5-4.5h44.5v33H20a4.5 4.5 0 0 1-4.5-4.5v-24Z" fill="#00698A"/><path d="m30.138 467.442.21 1.526c-.49.14-.994.28-1.498.406v3.346c0 .812-.154 1.204-.63 1.47-.462.252-1.134.294-2.114.294a7.24 7.24 0 0 0-.476-1.512c.546.014 1.12.014 1.302.014.21 0 .266-.07.266-.28v-2.884l-1.358.336-.434-1.582c.518-.098 1.12-.238 1.792-.406v-2.478h-1.61v-1.54h1.61v-2.66h1.652v2.66h1.372v1.54H28.85v2.072l1.288-.322Zm5.852.756h-3.402a8.001 8.001 0 0 0 1.652 2.478 7.802 7.802 0 0 0 1.75-2.478Zm1.05-1.568 1.064.448c-.532 1.946-1.428 3.472-2.604 4.648.91.644 1.988 1.106 3.234 1.414-.35.336-.826 1.008-1.064 1.442-1.358-.406-2.52-.98-3.486-1.764-1.092.756-2.324 1.316-3.682 1.722-.182-.448-.588-1.148-.896-1.512 1.232-.294 2.366-.742 3.346-1.372-.826-.938-1.484-2.044-1.988-3.332l.42-.126h-.728V466.7h2.758v-1.68h-3.01v-1.54h3.01v-2.002h1.652v2.002h3.136v1.54h-3.136v1.68h1.68l.294-.07Zm15.274 1.036h-2.128c-1.68 0-2.128-.616-2.128-2.17v-3.976h1.652v1.652h3.444v1.428H49.71v.924c0 .518.084.714.532.714h2.044c.392 0 .98-.042 1.288-.112.028.434.098 1.036.154 1.414-.294.098-.882.126-1.414.126Zm-9.044 1.498v.504c0 .532-.028 1.162-.098 1.792.63-.28 1.456-.7 2.296-1.148v-.462l-.672.658c-.35-.364-.994-.91-1.526-1.344Zm2.198-1.26H43.27v.994l.7-.602c.476.336 1.078.826 1.498 1.19v-1.582Zm1.568-1.4v6.524c0 .686-.126 1.036-.588 1.26-.448.21-1.078.238-1.932.238-.07-.392-.294-.938-.504-1.302.504.028 1.05.028 1.218.028.182 0 .238-.056.238-.238v-1.428c-.7.504-1.4.98-2.03 1.386l-.35-.98c-.154.952-.462 1.904-.994 2.632-.238-.322-.868-.924-1.162-1.12.742-1.092.798-2.632.798-3.85v-3.15h5.306Zm-2.128-3.486 1.344-.49c.588 1.008 1.33 2.38 1.666 3.22l-1.456.588c-.084-.252-.21-.546-.35-.882-3.542.35-4.116.434-4.522.602a17.634 17.634 0 0 0-.518-1.498c.252-.056.49-.252.77-.56.28-.308 1.134-1.386 1.652-2.492l1.68.476c-.476.812-1.106 1.624-1.722 2.324l2.044-.154c-.21-.406-.406-.798-.588-1.134Zm5.446 9.996h1.596c.476 0 .574-.238.644-1.526.336.252 1.008.504 1.442.602-.168 1.834-.602 2.38-1.932 2.38h-1.988c-1.652 0-2.058-.49-2.058-2.016v-4.396h1.652v1.4h3.542v1.47H49.71v1.526c0 .49.098.56.644.56Z" fill="#fff"/><path d="M15.5 456.35a4.5 4.5 0 0 1 4.5-4.5h44.5v33H20a4.5 4.5 0 0 1-4.5-4.5v-24Z" stroke="#231815"/><path d="M64.5 451.85H260a4.5 4.5 0 0 1 4.5 4.5v24a4.5 4.5 0 0 1-4.5 4.5H64.5v-33Z" fill="#fff"/><path d="M85.256 462.71h-2.128c.308.252.616.518.854.756a5.11 5.11 0 0 0 1.274-.756Zm-5.852 2.436h.686a3.942 3.942 0 0 0-.504-.756c1.218-.098 2.422-.294 3.472-.602a15.752 15.752 0 0 0-1.134-.966c-.574.182-1.246.35-1.974.49-.126-.28-.434-.714-.658-.896 1.652-.196 2.926-.504 3.64-.952l1.19.266a3.964 3.964 0 0 1-.392.28h2.31l.238-.042.77.42c-1.106 1.61-3.29 2.366-5.74 2.758h3.024v-.686h1.512v.686h1.498v.966h-1.498v.686c0 .644-.14.896-.616 1.064-.448.154-1.092.168-1.96.154a4.415 4.415 0 0 0-.462-1.092c.518.028 1.134.028 1.302.028.168-.014.224-.042.224-.21v-.63h-2.674c.378.28.756.588.966.826l-.98.854c-.308-.364-.966-.896-1.498-1.246l.518-.434h-1.26v-.966Zm2.814-1.904.014.588c-.854.154-1.568.266-2.268.378l-.126-.812c.672-.042 1.47-.098 2.38-.154Zm-5.502 2.562v.056c0 .462-.182 1.596-1.008 2.198-.224-.182-.784-.462-1.106-.602.7-.504.826-1.288.826-1.652h-.784v-1.064h2.94v-.532h-2.436v-2.506h1.33v1.47h1.106v-1.68h1.484v6.482h-1.484v-2.17h-.868Zm1.554 7.266v-.812h5.558v.812H78.27Zm3.164-3.262v-.448h-1.19v.448h1.19Zm3.402.854h-2.128v.098c0 .322.084.35.448.35h1.33c.21 0 .308-.014.35-.07v-.378Zm-7.798 2.786h7.798v-1.554h-1.848c-1.246 0-1.554-.224-1.554-1.148v-.084h-1.246c-.168.7-.784 1.288-2.366 1.638a4.148 4.148 0 0 0-.742-.91c1.078-.154 1.554-.42 1.75-.728h-1.792v2.786Zm10.332-4.088h-4.662v.448h3.766v4.746h-1.638v-.28h-7.798v.294H75.47v-4.76h3.5v-.448h-4.326v-1.064H87.37v1.064Zm11.746.854h-5.278v.756h5.278v-.756Zm-5.278 2.66h5.278v-.77h-5.278v.77Zm3.43-4.242h-1.736v-1.988c-.882.91-1.988 1.708-3.164 2.31h8.498v5.6h-1.75v-.42h-5.278v.434h-1.666v-5.516a9.42 9.42 0 0 1-1.302.532c-.252-.392-.77-1.064-1.134-1.414 1.498-.406 3.01-1.148 4.144-2.016h-3.71v-1.484h5.362v-.98a58.6 58.6 0 0 1-3.78.21c-.042-.406-.238-1.036-.406-1.414 3.066-.112 6.552-.448 8.652-.966l1.176 1.33c-1.162.294-2.506.504-3.906.672v1.148h5.39v1.484h-3.36c1.386.77 2.8 1.652 3.626 2.324l-.994 1.274c-.994-.896-2.954-2.17-4.662-3.108v1.988Zm19.026-6.622 1.624.574c-.518.966-1.106 2.002-1.568 2.674l-1.302-.518c.434-.742.966-1.89 1.246-2.73Zm-4.004 2.702-1.512.63c-.224-.686-.812-1.848-1.274-2.716l1.414-.546c.462.812 1.092 1.932 1.372 2.632Zm.42 7.574v-5.054h-3.556v-1.54h3.556v-3.99h1.652v3.99h3.654v1.54h-3.654v5.054h-1.652Zm1.848-4.242 1.176-.77c.826 1.036 1.946 2.464 2.45 3.346l-1.26.91c-.476-.924-1.54-2.408-2.366-3.486Zm-3.5-.686 1.33.49c-.574 1.372-1.582 2.898-2.492 3.78-.266-.392-.798-.938-1.176-1.232.868-.7 1.834-1.932 2.338-3.038Zm-2.562-3.542-1.61.546c-.182-.644-.546-1.652-.798-2.408l1.554-.448c.266.742.63 1.694.854 2.31Zm0 3.962.714.252c-.252 1.274-.63 2.59-1.106 3.64.224.14.49.336.868.56.952.574 2.268.658 3.906.658 1.61 0 4.116-.14 5.67-.364-.196.448-.476 1.26-.49 1.708-1.148.07-3.626.168-5.264.168-1.862 0-3.038-.154-4.046-.742-.588-.322-1.078-.784-1.372-.784-.322 0-.826.952-1.162 1.75l-1.12-1.582c.49-.588 1.008-1.05 1.47-1.344.322-.686.602-1.568.812-2.422h-1.806c.35-.826.728-1.946 1.064-3.038h-1.274v-1.484h3.402c-.308.98-.672 2.1-.994 3.08h.476l.252-.056Zm16.59 1.862 1.372-.56c.714 1.4 1.526 3.248 1.792 4.424l-1.498.672c-.084-.462-.252-1.008-.462-1.61-3.766.644-4.41.812-4.83 1.008-.098-.322-.364-1.148-.574-1.596.392-.126.742-.504 1.288-1.204.35-.406 1.134-1.54 1.918-2.94-1.974.182-2.422.28-2.73.42-.084-.35-.35-1.162-.546-1.61.322-.098.574-.406.924-.91.378-.49 1.456-2.422 2.086-4.256l1.666.686a24.866 24.866 0 0 1-2.366 4.242l1.792-.112c.224-.448.434-.924.616-1.4l1.652.756a35.171 35.171 0 0 1-3.598 5.782l2.142-.322a24.32 24.32 0 0 0-.644-1.47Zm8.204-6.846v.812c-.168 6.622-.308 8.974-.854 9.716-.378.546-.756.714-1.316.826-.518.084-1.358.07-2.17.028-.014-.462-.238-1.176-.532-1.652.84.07 1.568.07 1.932.07.252 0 .42-.07.56-.252.406-.476.56-2.632.686-7.952h-4.732v-1.596h6.426Zm15.638-.252v1.47h-3.332v-1.47h3.332Zm-3.388 1.358-1.078.602c-.196-.476-.644-1.246-1.064-1.806l1.008-.546c.434.532.91 1.274 1.134 1.75Zm-7.168-2.394 1.512.518c-.728 1.246-1.848 2.59-2.912 3.43-.196-.336-.588-.952-.854-1.232.868-.7 1.82-1.82 2.254-2.716Zm1.792 5.544h1.162c0 2.66-.154 4.424-1.232 5.488-.14-.294-.504-.756-.784-.966.784-.882.84-2.24.854-4.522Zm5.082 5.096h-.266c-1.106 0-1.316-.42-1.316-1.638v-3.444h1.19v3.458c0 .378 0 .49.084.49h.322c.14 0 .322-.028.462-.07.028.308.07.854.112 1.12-.168.084-.364.084-.588.084Zm3.892-6.244-.014 1.498h-1.078v5.236c0 .784-.112 1.218-.616 1.498-.476.266-1.162.28-2.086.28-.042-.462-.238-1.134-.448-1.61.56.028 1.148.028 1.33.014.182 0 .238-.042.238-.21V467.4h-1.218v-1.106h-2.044v8.218h-1.456v-8.218h-1.848v-.966c-.224.49-.504 1.022-.812 1.526v7.714h-1.54v-5.572c-.266.308-.532.588-.784.826-.154-.336-.63-1.176-.91-1.526 1.064-.938 2.128-2.394 2.73-3.864l1.316.434v-.098h1.848v-3.248h1.456v3.248h2.1v1.134h3.836Z" fill="#231815"/><path d="M64.5 451.85H260a4.5 4.5 0 0 1 4.5 4.5v24a4.5 4.5 0 0 1-4.5 4.5H64.5v-33Z" stroke="#231815"/><rect x=".5" y=".5" width="279" height="504.35" rx="4.5" stroke="#231815"/><defs><clipPath id="clip0_799_41927"><path fill="#fff" transform="translate(79.27)" d="M0 0h121.46v30.99H0z"/></clipPath><clipPath id="clip1_799_41927"><path d="M25 89.99h230v225a5 5 0 0 1-5 5H30a5 5 0 0 1-5-5v-225Z" fill="#fff"/></clipPath><clipPath id="clip2_799_41927"><path fill="#fff" transform="translate(63.635 334.99)" d="M0 0h18.56v18.36H0z"/></clipPath><clipPath id="clip3_799_41927"><path fill="#fff" transform="translate(84.194 334.99)" d="M0 0h18.56v18.36H0z"/></clipPath><clipPath id="clip4_799_41927"><path fill="#fff" transform="translate(104.755 334.99)" d="M0 0h18.56v18.36H0z"/></clipPath><clipPath id="clip5_799_41927"><path fill="#fff" transform="translate(207.314 334.99)" d="M0 0h17.35v16.5H0z"/></clipPath></defs></svg>