<svg fill="none" xmlns="http://www.w3.org/2000/svg" viewBox="0 0 280 506"><rect x=".5" y=".5" width="279" height="504.35" rx="4.5" fill="#74D194"/><g clip-path="url(#clip0_799_41176)" stroke="#231815" stroke-miterlimit="10"><path d="M84.32 27.21c.34 1.64 1.95 2.83 3.83 2.84l103.68.44c1.88 0 3.5-1.17 3.85-2.81l4.41-20.48c.67-3.11-1.07-6.21-3.48-6.22L83.06.5C80.7.49 79.29 2.97 79.92 6l4.4 21.2v.01Z" fill="#00698A"/><path d="M116.479 17.4c.14 1.03.82 1.78 1.61 1.79l43.77.23c.79 0 1.48-.74 1.63-1.77l1.87-12.91c.28-1.96-.45-3.91-1.47-3.92l-47.94-.25c-.99 0-1.59 1.56-1.33 3.47l1.85 13.36h.01Zm69.191-7.19c0-1.42 1.16-2.56 2.58-2.55 1.42 0 2.56 1.16 2.55 2.58 0 1.42-1.16 2.56-2.57 2.55-1.42 0-2.56-1.16-2.55-2.58h-.01Zm-10.74-.02c0-1.42 1.16-2.56 2.58-2.55 1.42 0 2.56 1.16 2.55 2.58 0 1.42-1.16 2.56-2.58 2.55-1.42 0-2.56-1.16-2.55-2.58Zm-80.59-.28c0-1.42-1.15-2.57-2.56-2.57-1.42 0-2.57 1.15-2.57 2.56 0 1.42 1.15 2.57 2.56 2.57 1.42 0 2.57-1.15 2.57-2.56Zm10.729.02c0-1.42-1.15-2.57-2.56-2.57-1.42 0-2.57 1.15-2.57 2.56 0 1.42 1.15 2.57 2.56 2.57 1.42 0 2.57-1.15 2.57-2.56Z" fill="#FFE177"/></g><path d="M105.872 59.038v-2.592h3.576v2.592h-3.576Zm6.792-1.128v3.504a14.9 14.9 0 0 0 3.528-1.44c-.192-.24-.384-.456-.576-.696-.288.264-.576.504-.888.744-.408-.552-1.44-1.584-2.064-2.112Zm-7.344 2.16h4.728v-5.256h-.648c-1.104 0-1.416-.384-1.416-1.92V49.99h-.528v1.752c0 1.248-.168 2.88-1.08 3.984-.216-.24-.72-.672-1.056-.912v5.256Zm.648-10.08h-.648v4.56c.6-.888.648-1.944.648-2.832V49.99Zm1.416-4.8v1.944h.72V45.19h-.72Zm2.088 4.8v2.88c0 .312.024.336.144.336h.144c.192 0 .24-.024.288-.048V49.99h-.576Zm3.6 4.392 2.52-1.08c.072.216.144.456.24.672.288-.6.504-1.224.672-1.896-.576.6-1.392 1.128-2.496 1.536-.24-.6-.816-1.464-1.344-2.04v6.192c.48-.312.912-.672 1.32-1.104a16.726 16.726 0 0 1-.912-2.28Zm7.056 1.8h-2.112c-.144.264-.312.528-.48.792.336.384.696.792 1.08 1.152.6-.6 1.104-1.248 1.512-1.944Zm2.16-2.784 2.136.84c-.696 2.328-1.776 4.2-3.192 5.712 1.128.576 2.472 1.032 4.008 1.32-.648.648-1.536 2.04-1.944 2.904-1.824-.48-3.384-1.176-4.68-2.064-1.344.864-2.904 1.56-4.584 2.088a16.48 16.48 0 0 0-1.368-2.232v1.92h-2.616v-1.152h-4.728v1.488h-2.496V47.134h2.352V45.19h-2.616v-2.856h10.176v2.856h-2.376v1.944h2.304v3.984c1.704-.576 2.208-1.464 2.4-2.664-.672.096-1.032.168-1.32.288-.168-.624-.672-2.112-1.032-2.928.456-.12.864-.432 1.32-.888.456-.432 1.824-2.016 2.664-3.672l3.336.912c-.768 1.152-1.752 2.328-2.712 3.336l3.048-.144-.96-1.416 2.472-1.248c1.008 1.392 2.448 3.312 3.144 4.488l-2.64 1.464c-.12-.24-.264-.48-.408-.768l-.24.024v1.44c0 .504.048.72.36.72h1.2c.408 0 1.032-.048 1.392-.168.048.744.12 1.92.216 2.616-.384.144-.984.192-1.536.192h-1.392c-2.616 0-3.168-.936-3.168-3.384v-1.224l-.744.072c-.168 1.536-.528 2.832-1.488 3.84l2.928.576-.288.936h2.52l.552-.12Zm24.072-.696v.744l.984-.024c-.12-.168-.24-.336-.36-.48l.552-.24h-1.176Zm-4.368-1.8h1.416v-.648h-1.416v.648Zm0-2.976v.624h1.416v-.624h-1.416Zm5.784 0h-1.416v.624h1.416v-.624Zm0 2.976v-.648h-1.416v.648h1.416Zm-8.832 5.088-.192-2.424c1.296 0 2.904-.024 4.656-.072v-.792h-4.104v-6.576h4.104v-.624h-4.416v-2.52h4.416V41.47h2.952v1.512h4.632v2.52h-4.632v.624h4.248v6.576h-.696c.648.888 1.248 1.896 1.584 2.64l-2.424 1.176c-.096-.24-.216-.528-.36-.816-3.528.144-7.128.216-9.768.288Zm6.6 5.28v-2.04h-2.688c.552.648 1.032 1.368 1.296 1.944l-.696.432c.696.024 1.416.024 1.632.024.336-.024.456-.096.456-.36Zm-13.824-8.112v.984h.912v-.984h-.912Zm0-3.192v.96h.912v-.96h-.912Zm4.104.96v-.96h-.984v.96h.984Zm0 3.216v-.984h-.984v.984h.984Zm12.912 1.8v.768h2.616v2.52h-2.616v2.136c0 1.416-.264 2.136-1.272 2.568-1.008.408-2.28.432-3.96.432-.096-.72-.408-1.608-.696-2.352l-1.128.696c-.336-.84-1.128-2.088-1.944-2.952l.912-.528H138.8v1.44h-3.528v3.576H132.2V60.67h-3.672v-3.024h3.672v-1.128h-2.88V47.59h2.88v-1.008h-3.312v-2.976h3.312v-2.112h3.072v2.112h3.24v2.976h-3.24v1.008h3.048v8.928h-3.048v1.128h3.528v-.936h6.744v-.768h3.192Zm24.024-3.24v.744l.984-.024c-.12-.168-.24-.336-.36-.48l.552-.24h-1.176Zm-4.368-1.8h1.416v-.648h-1.416v.648Zm0-2.976v.624h1.416v-.624h-1.416Zm5.784 0h-1.416v.624h1.416v-.624Zm0 2.976v-.648h-1.416v.648h1.416Zm-8.832 5.088-.192-2.424c1.296 0 2.904-.024 4.656-.072v-.792h-4.104v-6.576h4.104v-.624h-4.416v-2.52h4.416V41.47h2.952v1.512h4.632v2.52h-4.632v.624h4.248v6.576h-.696c.648.888 1.248 1.896 1.584 2.64l-2.424 1.176c-.096-.24-.216-.528-.36-.816-3.528.144-7.128.216-9.768.288Zm6.6 5.28v-2.04h-2.688c.552.648 1.032 1.368 1.296 1.944l-.696.432c.696.024 1.416.024 1.632.024.336-.024.456-.096.456-.36Zm-13.824-8.112v.984h.912v-.984h-.912Zm0-3.192v.96h.912v-.96h-.912Zm4.104.96v-.96h-.984v.96h.984Zm0 3.216v-.984h-.984v.984h.984Zm12.912 1.8v.768h2.616v2.52h-2.616v2.136c0 1.416-.264 2.136-1.272 2.568-1.008.408-2.28.432-3.96.432-.096-.72-.408-1.608-.696-2.352l-1.128.696c-.336-.84-1.128-2.088-1.944-2.952l.912-.528H165.2v1.44h-3.528v3.576H158.6V60.67h-3.672v-3.024h3.672v-1.128h-2.88V47.59h2.88v-1.008h-3.312v-2.976h3.312v-2.112h3.072v2.112h3.24v2.976h-3.24v1.008h3.048v8.928h-3.048v1.128h3.528v-.936h6.744v-.768h3.192Z" fill="#231815"/><path d="M15.5 199.99c0-68.759 55.74-124.5 124.5-124.5 68.759 0 124.5 55.741 124.5 124.5v120a4.5 4.5 0 0 1-4.5 4.5H20a4.5 4.5 0 0 1-4.5-4.5v-120Z" fill="#fff" stroke="#231815"/><g clip-path="url(#clip1_799_41176)"><path d="M154.064 177.983c-8.961 11.106-24.721 15.892-38.347 11.642-.705-.216-1.401-.461-2.078-.696-2.097-.724-4.081-1.41-5.981-1.363-1.749.047-3.855 1.26-3.855 2.708a2.62 2.62 0 0 1-2.605 2.623 2.612 2.612 0 0 1-2.614-2.604c0-2.257 1.081-4.335 3.056-5.868 1.646-1.27 3.79-2.031 5.877-2.088 2.849-.075 5.388.8 7.833 1.646a60.11 60.11 0 0 0 1.928.649c5.576 1.739 11.905 1.711 17.838-.094 5.934-1.796 11.209-5.294 14.876-9.836" fill="#74D194"/><path d="M154.064 177.983c-8.961 11.106-24.721 15.892-38.347 11.642-.705-.216-1.401-.461-2.078-.696-2.097-.724-4.081-1.41-5.981-1.363-1.749.047-3.855 1.26-3.855 2.708a2.62 2.62 0 0 1-2.605 2.623 2.612 2.612 0 0 1-2.614-2.604c0-2.257 1.081-4.335 3.056-5.868 1.646-1.27 3.79-2.031 5.877-2.088 2.849-.075 5.388.8 7.833 1.646a60.11 60.11 0 0 0 1.928.649c5.576 1.739 11.905 1.711 17.838-.094 5.934-1.796 11.209-5.294 14.876-9.836" stroke="#231815" stroke-miterlimit="10"/><path d="M161.248 207.266c23.734 0 42.974-19.24 42.974-42.974 0-23.733-19.24-42.973-42.974-42.973-23.734 0-42.974 19.24-42.974 42.973 0 23.734 19.24 42.974 42.974 42.974Z" fill="#74D194" stroke="#231815" stroke-miterlimit="10"/><path d="m137.533 166.822-.63 2.718a2.71 2.71 0 0 1-3.244 2.021 2.71 2.71 0 0 1-2.022-3.244l.63-2.717" stroke="#231815" stroke-linecap="round" stroke-linejoin="round"/><path d="M144.605 201.784c4.701-2.633 11.434-1.618 14.443 2.858 1.731 2.577 2.079 5.802 2.417 8.877 2.059 18.948 5.003 38.027 10.005 56.392-.178-.658-13.296.01-14.641.029-4.448.075-8.952.394-13.381.075.329-3.696-.555-7.241-.837-10.946-.291-3.855-.385-7.729-.931-11.566a692.027 692.027 0 0 0-2.783-18.149c-.771-4.626-2.586-9.901-1.947-14.603.687-5.106 3-10.363 7.664-12.977l-.009.01Z" fill="#00698A" stroke="#231815" stroke-miterlimit="10"/><mask id="mask0_799_41176" style="mask-type:luminance" maskUnits="userSpaceOnUse" x="136" y="200" width="36" height="71"><path d="M144.605 201.784c4.701-2.633 11.434-1.618 14.443 2.858 1.731 2.577 2.079 5.802 2.417 8.877 2.059 18.948 5.003 38.027 10.005 56.392-.178-.658-13.296.01-14.641.029-4.448.075-8.952.394-13.381.075.329-3.696-.555-7.241-.837-10.946-.291-3.855-.385-7.729-.931-11.566a692.027 692.027 0 0 0-2.783-18.149c-.771-4.626-2.586-9.901-1.947-14.603.687-5.106 3-10.363 7.664-12.977l-.009.01Z" fill="#fff"/></mask><g mask="url(#mask0_799_41176)"><path d="m136.857 251.424 6.093 10.664c1.862-6.272 3.714-12.535 5.576-18.807 1.712 6.422 3.423 12.854 5.135 19.277 1.532-2.934 3.056-5.868 4.588-8.802 2.473 3.423 4.937 6.846 7.41 10.269.856-1.674 1.721-3.339 2.577-5.012a66.631 66.631 0 0 1 6.404 16.992 325.42 325.42 0 0 1-39.043 9.506c-1.063-6.3-.668-12.356-.894-18.665-.084-2.464-.31-4.608.066-7.128.216-1.439 2.586-7.419 2.078-8.294h.01Z" fill="#fff" stroke="#231815" stroke-linecap="round" stroke-linejoin="round"/></g><path d="M144.605 201.784c4.701-2.633 11.434-1.618 14.443 2.858 1.731 2.577 2.079 5.802 2.417 8.877 2.059 18.948 5.003 38.027 10.005 56.392-.178-.658-13.296.01-14.641.029-4.448.075-8.952.394-13.381.075.329-3.696-.555-7.241-.837-10.946-.291-3.855-.385-7.729-.931-11.566a692.027 692.027 0 0 0-2.783-18.149c-.771-4.626-2.586-9.901-1.947-14.603.687-5.106 3-10.363 7.664-12.977l-.009.01Z" stroke="#231815" stroke-linecap="round" stroke-linejoin="round"/><mask id="mask1_799_41176" style="mask-type:luminance" maskUnits="userSpaceOnUse" x="115" y="197" width="72" height="61"><path d="M158.183 210.096c-5.529-3.432-11.209-6.93-17.584-8.237-6.376-1.307-13.691 0-17.951 4.937-3.122 3.62-4.157 8.594-4.363 13.371-.499 11.877-2.276 24.44-3.056 36.307 9.036 1.335 23.959.827 33.062.084-2.182-7.598-4.373-15.195-6.554-22.793-.884-3.075-1.768-6.16-2.342-9.3-.141-.753-1.279-7.354.075-7.062.198.047.546.996.659 1.175.743 1.213 1.73 2.342 2.623 3.442 1.806 2.238 3.752 4.372 5.915 6.272 3.837 3.347 8.463 5.943 13.503 6.695 5.041.752 10.495-.508 14.228-3.968 4.015-3.733 5.576-9.404 6.253-14.848.677-5.445 1.852-10.927 3.526-16.146-17.217-1.345-35.667-2.294-52.932-2.642-.009 1.448-.122 2.821.132 4.241" fill="#fff"/></mask><g mask="url(#mask1_799_41176)"><path d="m116.78 233.614 6.094 10.664c1.862-6.273 3.714-12.535 5.576-18.807 1.712 6.422 3.423 12.854 5.134 19.277 1.533-2.934 3.056-5.868 4.589-8.802 2.473 3.423 4.937 6.846 7.41 10.269.856-1.674 1.721-3.339 2.577-5.012a66.591 66.591 0 0 1 6.403 16.992 325.374 325.374 0 0 1-39.043 9.506c-1.062-6.3-.667-12.356-.893-18.665-.085-2.464-.31-4.608.066-7.128.216-1.439 2.586-7.419 2.078-8.294h.009Z" fill="#fff" stroke="#231815" stroke-linecap="round" stroke-linejoin="round"/></g><path d="M158.183 210.096c-5.529-3.432-11.209-6.93-17.584-8.237-6.376-1.307-13.691 0-17.951 4.937-3.122 3.62-4.157 8.594-4.363 13.371-.499 11.877-2.276 24.44-3.056 36.307 9.036 1.335 23.959.827 33.062.084-2.182-7.598-4.373-15.195-6.554-22.793-.884-3.075-1.768-6.16-2.342-9.3-.141-.753-1.279-7.354.075-7.062.198.047.546.996.659 1.175.743 1.213 1.73 2.342 2.623 3.442 1.806 2.238 3.752 4.372 5.915 6.272 3.837 3.347 8.463 5.943 13.503 6.695 5.041.752 10.495-.508 14.228-3.968 4.015-3.733 5.576-9.404 6.253-14.848.677-5.445 1.852-10.927 3.526-16.146-17.217-1.345-35.667-2.294-52.932-2.642-.009 1.448-.122 2.821.132 4.241" stroke="#231815" stroke-linecap="round" stroke-linejoin="round"/><path d="M158.183 210.096c-5.529-3.432-11.209-6.93-17.584-8.237-6.376-1.307-13.691 0-17.951 4.937-3.122 3.62-4.157 8.594-4.363 13.371-.499 11.877-2.276 24.44-3.056 36.307 9.036 1.335 23.959.827 33.062.084-2.182-7.598-4.373-15.195-6.554-22.793-.884-3.075-1.768-6.16-2.342-9.3-.141-.753-1.279-7.354.075-7.062.198.047.546.996.659 1.175.743 1.213 1.73 2.342 2.623 3.442 1.806 2.238 3.752 4.372 5.915 6.272 3.837 3.347 8.463 5.943 13.503 6.695 5.041.752 10.495-.508 14.228-3.968 4.015-3.733 5.576-9.404 6.253-14.848.677-5.445 1.852-10.927 3.526-16.146-17.217-1.345-35.667-2.294-52.932-2.642-.009 1.448-.122 2.821.132 4.241" fill="#00698A"/><path d="M158.183 210.096c-5.529-3.432-11.209-6.93-17.584-8.237-6.376-1.307-13.691 0-17.951 4.937-3.122 3.62-4.157 8.594-4.363 13.371-.499 11.877-2.276 24.44-3.056 36.307 9.036 1.335 23.959.827 33.062.084-2.182-7.598-4.373-15.195-6.554-22.793-.884-3.075-1.768-6.16-2.342-9.3-.141-.753-1.279-7.354.075-7.062.198.047.546.996.659 1.175.743 1.213 1.73 2.342 2.623 3.442 1.806 2.238 3.752 4.372 5.915 6.272 3.837 3.347 8.463 5.943 13.503 6.695 5.041.752 10.495-.508 14.228-3.968 4.015-3.733 5.576-9.404 6.253-14.848.677-5.445 1.852-10.927 3.526-16.146-17.217-1.345-35.667-2.294-52.932-2.642-.009 1.448-.122 2.821.132 4.241" stroke="#231815" stroke-miterlimit="10"/><path d="M172.42 213.5c-1.288 2.887-2.464 5.925-2.398 9.084.066 3.16 1.646 6.47 4.542 7.73 2.229.968 3.555-.282 4.73-2.088a20.984 20.984 0 0 0 2.727-6.131c.132-.489 1.091-5.322.677-5.36a16.601 16.601 0 0 1-4.081-.949c-2.069-.762-4.128-1.524-6.197-2.286ZM70.703 242.688v5.737s25.126 7.748 27.552 33.476l13.071-.047s-7.918-6.771-10.034-14.049c-2.115-7.278-4.203-17.105-11.481-21.111-7.269-4.006-19.108-3.996-19.108-3.996v-.01Z" fill="#74D194" stroke="#231815" stroke-miterlimit="10"/><path d="M70.9 255.317h-.197a.47.47 0 0 0-.47.471v31.172c0 .26.21.47.47.47h.197c.26 0 .47-.21.47-.47v-31.172a.47.47 0 0 0-.47-.471Z" fill="#333434"/><path d="M70.91 255.788v31.172h-.197v-31.172h.197Zm0-.941h-.197a.943.943 0 0 0-.94.941v31.172c0 .517.423.94.94.94h.197c.517 0 .94-.423.94-.94v-31.172a.943.943 0 0 0-.94-.941Z" fill="#231815"/><path d="M74.887 255.317h-.197a.47.47 0 0 0-.47.471v31.172c0 .26.21.47.47.47h.197c.26 0 .47-.21.47-.47v-31.172a.47.47 0 0 0-.47-.471Z" fill="#333434"/><path d="M74.888 255.788v31.172h-.198v-31.172h.198Zm0-.941h-.198a.943.943 0 0 0-.94.941v31.172c0 .517.423.94.94.94h.198c.517 0 .94-.423.94-.94v-31.172a.943.943 0 0 0-.94-.941Z" fill="#231815"/><path d="M88.39 268.811H57.219a.47.47 0 0 0-.47.47v.198c0 .259.21.47.47.47H88.39a.47.47 0 0 0 .47-.47v-.198a.47.47 0 0 0-.47-.47Z" fill="#333434"/><path d="M88.382 269.281v.198H57.219v-.198H88.39m0-.94H57.219a.943.943 0 0 0-.94.94v.198c0 .517.422.94.94.94H88.39c.517 0 .94-.423.94-.94v-.198a.943.943 0 0 0-.94-.94Z" fill="#231815"/><path d="M88.39 272.789H57.219a.47.47 0 0 0-.47.47v.197c0 .26.21.47.47.47H88.39c.26 0 .47-.21.47-.47v-.197a.47.47 0 0 0-.47-.47Z" fill="#333434"/><path d="M88.382 273.259v.198H57.219v-.198H88.39m0-.94H57.219a.943.943 0 0 0-.94.94v.198c0 .517.422.94.94.94H88.39c.517 0 .94-.423.94-.94v-.198a.943.943 0 0 0-.94-.94Z" fill="#231815"/><path d="M69.217 287.157a.487.487 0 0 1-.32-.169.454.454 0 0 1-.103-.348l2.915-31.031a.49.49 0 0 1 .169-.32.485.485 0 0 1 .3-.103c.02 0 .245.018.245.018a.472.472 0 0 1 .424.508l-2.915 31.031a.464.464 0 0 1-.47.424c-.02 0-.245-.019-.245-.019v.009Z" fill="#333434"/><path d="m72.17 255.656.197.018-2.915 31.032-.197-.019 2.915-31.031Zm0-.941a.946.946 0 0 0-.94.856l-2.916 31.031a.94.94 0 0 0 .847 1.025l.197.019h.085a.945.945 0 0 0 .602-.216.978.978 0 0 0 .338-.64l2.915-31.031a.94.94 0 0 0-.846-1.025l-.198-.019h-.094.01Z" fill="#231815"/><path d="M73.186 287.533a.487.487 0 0 1-.32-.169.454.454 0 0 1-.103-.348l2.914-31.031a.463.463 0 0 1 .47-.423c.02 0 .245.018.245.018.122.01.235.076.32.17a.454.454 0 0 1 .103.348L73.9 287.129a.464.464 0 0 1-.47.423c-.019 0-.244-.019-.244-.019Z" fill="#333434"/><path d="m76.138 256.032.197.019-2.915 31.031-.197-.019 2.915-31.031Zm0-.94a.932.932 0 0 0-.931.855l-2.915 31.032a.956.956 0 0 0 .216.686c.16.188.386.311.64.339l.197.019h.085a.93.93 0 0 0 .93-.856l2.916-31.031a.957.957 0 0 0-.217-.687.975.975 0 0 0-.639-.338l-.198-.019h-.084Z" fill="#231815"/><path d="M57.416 268.501a.493.493 0 0 1-.32-.17.494.494 0 0 1-.103-.348l.018-.197a.47.47 0 0 1 .47-.423c.02 0 31.079 2.915 31.079 2.915a.487.487 0 0 1 .32.169.495.495 0 0 1 .103.348l-.019.198a.47.47 0 0 1-.47.423c-.019 0-31.078-2.915-31.078-2.915Z" fill="#333434"/><path d="m57.482 267.833 31.031 2.915-.019.198-31.03-2.915.018-.198Zm0-.94a.932.932 0 0 0-.931.856l-.019.197a.957.957 0 0 0 .216.687c.16.188.386.31.64.338l31.031 2.915h.085a.93.93 0 0 0 .93-.855l.02-.198a.956.956 0 0 0-.217-.686.977.977 0 0 0-.64-.339l-31.03-2.915h-.085Z" fill="#231815"/><path d="M57.04 272.469a.492.492 0 0 1-.32-.169.496.496 0 0 1-.103-.348l.019-.198a.47.47 0 0 1 .47-.423c.018 0 31.078 2.915 31.078 2.915.122.01.235.075.32.169a.496.496 0 0 1 .103.348l-.019.198a.47.47 0 0 1-.47.423c-.019 0-31.078-2.915-31.078-2.915Z" fill="#333434"/><path d="m57.106 271.792 31.03 2.915-.018.197-31.031-2.915.019-.197Zm0-.94a.945.945 0 0 0-.602.216.975.975 0 0 0-.339.639l-.018.198a.94.94 0 0 0 .846 1.025l31.031 2.915h.085a.93.93 0 0 0 .93-.856l.02-.197a.958.958 0 0 0-.217-.687.975.975 0 0 0-.64-.338l-31.03-2.915h-.085.019Z" fill="#231815"/><path d="M60.444 281.524a.441.441 0 0 1-.33-.141l-.14-.141a.482.482 0 0 1 0-.667l22.041-22.042a.456.456 0 0 1 .658 0l.142.141a.466.466 0 0 1 0 .668l-22.042 22.041a.477.477 0 0 1-.329.141Z" fill="#333434"/><path d="m82.335 258.872.14.141-22.04 22.041-.142-.141 22.042-22.041Zm0-.941a.962.962 0 0 0-.668.273l-22.041 22.042a.935.935 0 0 0 0 1.325l.14.141a.93.93 0 0 0 .668.273.968.968 0 0 0 .668-.273l22.042-22.041a.932.932 0 0 0 .272-.668.968.968 0 0 0-.272-.667l-.142-.141a.962.962 0 0 0-.667-.273v.009Z" fill="#231815"/><path d="M63.256 284.346a.441.441 0 0 1-.33-.141l-.14-.141a.48.48 0 0 1-.142-.33.44.44 0 0 1 .142-.329l22.041-22.041a.456.456 0 0 1 .658 0l.141.141a.465.465 0 0 1 0 .667l-22.041 22.042a.477.477 0 0 1-.33.141v-.009Z" fill="#333434"/><path d="m85.156 261.693.141.141-22.041 22.042-.141-.142 22.041-22.041Zm0-.94a.966.966 0 0 0-.668.272l-22.041 22.042a.937.937 0 0 0 0 1.326l.141.141a.933.933 0 0 0 .668.272.972.972 0 0 0 .667-.272l22.042-22.042a.93.93 0 0 0 .272-.667.972.972 0 0 0-.272-.668l-.141-.141a.962.962 0 0 0-.668-.273v.01Z" fill="#231815"/><path d="M59.184 279.766a.496.496 0 0 1-.31-.179l-.122-.159a.469.469 0 0 1 .094-.659l24.806-18.872a.461.461 0 0 1 .282-.094c.141 0 .282.066.376.188l.123.16a.47.47 0 0 1 .093.348.498.498 0 0 1-.178.31l-24.806 18.873a.449.449 0 0 1-.282.094h-.066l-.01-.01Z" fill="#333434"/><path d="m83.934 260.273.122.16-24.806 18.872-.122-.159 24.806-18.873Zm0-.94a.962.962 0 0 0-.564.188l-24.806 18.872a.97.97 0 0 0-.367.621.893.893 0 0 0 .188.696l.122.16a.93.93 0 0 0 .752.366.969.969 0 0 0 .565-.188l24.806-18.872a.972.972 0 0 0 .367-.621.892.892 0 0 0-.189-.696l-.122-.16a.93.93 0 0 0-.752-.366Z" fill="#231815"/><path d="M61.6 282.935a.5.5 0 0 1-.31-.179l-.122-.159a.469.469 0 0 1 .094-.659l24.806-18.872a.443.443 0 0 1 .282-.094h.066a.494.494 0 0 1 .31.178l.123.16a.467.467 0 0 1-.095.658l-24.806 18.873a.443.443 0 0 1-.282.094H61.6Z" fill="#333434"/><path d="m86.35 263.442.122.16-24.806 18.872-.122-.16 24.806-18.872Zm0-.941a.963.963 0 0 0-.564.189L60.98 281.562a.97.97 0 0 0-.367.621.893.893 0 0 0 .188.696l.122.16a.93.93 0 0 0 .752.366.969.969 0 0 0 .565-.188l24.806-18.872a.972.972 0 0 0 .367-.621.892.892 0 0 0-.188-.696l-.123-.16a.932.932 0 0 0-.752-.367Z" fill="#231815"/><path d="M85.156 281.524a.441.441 0 0 1-.329-.141l-22.041-22.041a.48.48 0 0 1-.142-.329.44.44 0 0 1 .142-.33l.14-.141a.456.456 0 0 1 .659 0l22.041 22.042a.466.466 0 0 1 0 .668l-.14.141a.482.482 0 0 1-.33.141v-.01Z" fill="#333434"/><path d="m63.255 258.872 22.042 22.042-.141.141-22.042-22.042.141-.141Zm0-.94a.965.965 0 0 0-.667.272l-.142.141a.932.932 0 0 0-.272.668.97.97 0 0 0 .273.668l22.041 22.041a.93.93 0 0 0 .668.273.968.968 0 0 0 .667-.273l.141-.141a.936.936 0 0 0 0-1.326l-22.041-22.041a.924.924 0 0 0-.668-.273v-.009Z" fill="#231815"/><path d="M82.335 284.346a.441.441 0 0 1-.33-.141l-22.04-22.042a.466.466 0 0 1 0-.668l.14-.141a.456.456 0 0 1 .658 0l22.042 22.042a.466.466 0 0 1 0 .668l-.14.141a.482.482 0 0 1-.33.141Z" fill="#333434"/><path d="m60.444 261.693 22.041 22.041-.14.141-22.042-22.041.14-.141Zm0-.941a.962.962 0 0 0-.668.273l-.141.141a.932.932 0 0 0-.273.668.97.97 0 0 0 .273.667l22.042 22.042a.93.93 0 0 0 .667.273.973.973 0 0 0 .668-.273l.14-.141a.936.936 0 0 0 0-1.326l-22.04-22.041a.92.92 0 0 0-.668-.273v-.01Z" fill="#231815"/><path d="M86.463 279.578a.461.461 0 0 1-.282-.094L61.1 260.978a.472.472 0 0 1-.102-.658l.122-.16a.477.477 0 0 1 .376-.188c.094 0 .197.028.282.094l25.079 18.506a.47.47 0 0 1 .103.658l-.122.16a.477.477 0 0 1-.376.188Z" fill="#333434"/><path d="m61.507 260.433 25.078 18.506-.122.159-25.079-18.505.123-.16Zm0-.941a.928.928 0 0 0-.753.376l-.122.16a.967.967 0 0 0-.179.696.91.91 0 0 0 .376.621l25.08 18.506a.92.92 0 0 0 .554.188c.047 0 .094 0 .141-.01a.94.94 0 0 0 .62-.376l.123-.16a.944.944 0 0 0-.197-1.316l-25.08-18.506a.963.963 0 0 0-.554-.188l-.01.009Z" fill="#231815"/><path d="M84.094 282.775a.461.461 0 0 1-.282-.094l-25.08-18.506a.47.47 0 0 1-.103-.658l.123-.16a.477.477 0 0 1 .376-.188c.094 0 .197.028.282.094l25.079 18.506a.471.471 0 0 1 .103.658l-.122.16a.477.477 0 0 1-.376.188Z" fill="#333434"/><path d="m59.137 263.639 25.079 18.506-.123.16-25.079-18.506.123-.16Zm0-.94a.939.939 0 0 0-.762.385l-.122.16a.919.919 0 0 0-.17.696c.038.244.17.47.367.621l25.08 18.506a.926.926 0 0 0 1.307-.189l.121-.159a.967.967 0 0 0 .18-.696.91.91 0 0 0-.377-.621l-25.079-18.506a.963.963 0 0 0-.555-.188l.01-.009Z" fill="#231815"/><path d="M72.8 294.52c-12.864 0-23.33-10.466-23.33-23.33 0-12.864 10.466-23.33 23.33-23.33 12.863 0 23.33 10.466 23.33 23.33 0 12.864-10.467 23.33-23.33 23.33Zm0-40.848c-9.658 0-17.519 7.861-17.519 17.518s7.861 17.519 17.519 17.519c9.657 0 17.518-7.862 17.518-17.519 0-9.657-7.861-17.518-17.518-17.518Z" fill="#333434"/><path d="M72.8 248.33c12.629 0 22.86 10.231 22.86 22.86s-10.231 22.86-22.86 22.86-22.86-10.24-22.86-22.86c0-12.619 10.231-22.86 22.86-22.86Zm0 40.849c9.93 0 17.989-8.049 17.989-17.989 0-9.939-8.05-17.989-17.989-17.989-9.94 0-17.989 8.05-17.989 17.989 0 9.94 8.05 17.989 17.989 17.989Zm0-41.789c-13.127 0-23.8 10.673-23.8 23.8s10.673 23.8 23.8 23.8 23.8-10.673 23.8-23.8-10.673-23.8-23.8-23.8Zm0 40.849c-9.403 0-17.048-7.645-17.048-17.049 0-9.403 7.645-17.048 17.048-17.048 9.403 0 17.048 7.645 17.048 17.048 0 9.404-7.645 17.049-17.048 17.049Z" fill="#231815"/><path d="M72.8 291.078c-10.974 0-19.898-8.923-19.898-19.897 0-10.974 8.924-19.898 19.898-19.898s19.898 8.924 19.898 19.898-8.924 19.897-19.898 19.897Zm0-34.83c-8.37 0-15.168 6.808-15.168 15.168s6.808 15.168 15.168 15.168 15.168-6.808 15.168-15.168-6.808-15.168-15.168-15.168Z" fill="#333434"/><path d="M72.8 251.763c10.73 0 19.428 8.698 19.428 19.427S83.53 290.617 72.8 290.617c-10.729 0-19.427-8.698-19.427-19.427s8.698-19.427 19.427-19.427Zm0 35.3c8.642 0 15.638-7.006 15.638-15.638s-7.005-15.638-15.638-15.638c-8.632 0-15.637 7.006-15.637 15.638s7.005 15.638 15.637 15.638Zm0-36.241c-11.227 0-20.367 9.131-20.367 20.368 0 11.237 9.13 20.368 20.367 20.368s20.368-9.131 20.368-20.368c0-11.237-9.13-20.368-20.368-20.368Zm0 35.301c-8.105 0-14.697-6.592-14.697-14.698 0-8.106 6.592-14.697 14.697-14.697 8.106 0 14.698 6.591 14.698 14.697 0 8.106-6.592 14.698-14.698 14.698Z" fill="#231815"/><path d="M72.8 276.108a4.743 4.743 0 0 1-4.74-4.739 4.744 4.744 0 0 1 4.74-4.74 4.744 4.744 0 0 1 4.74 4.74 4.743 4.743 0 0 1-4.74 4.739Z" fill="#333434"/><path d="M72.8 267.1c2.36 0 4.27 1.908 4.27 4.269a4.266 4.266 0 0 1-4.27 4.269 4.266 4.266 0 0 1-4.269-4.269 4.265 4.265 0 0 1 4.27-4.269Zm0-.941a5.209 5.209 0 1 0-.001 10.42 5.209 5.209 0 0 0 .001-10.42Z" fill="#231815"/><path d="M74.775 271.369a1.984 1.984 0 1 1-3.969 0 1.984 1.984 0 0 1 3.969 0Z" fill="#74D194" stroke="#231815" stroke-miterlimit="10"/><path d="M81.583 246.657c-20.048-6.714-29.62 10.475-29.62 10.475-2.643 3.574 3.902 4.533 3.902 4.533s29.743 3.347 32.648 4.673c3.094 1.42 4.665 4.617 5.436 7.758.348 1.401.602 2.802.677 4.25.094 1.834-.132 4.006 2.398 3.959 2.416-.047 2.2-3.206 2.2-3.206 2.595-27.853-17.631-32.442-17.631-32.442h-.01Z" fill="#00698A" stroke="#231815" stroke-miterlimit="10"/><path d="M189.036 255.317h-.198a.47.47 0 0 0-.47.471v31.172c0 .26.211.47.47.47h.198a.47.47 0 0 0 .47-.47v-31.172a.47.47 0 0 0-.47-.471Z" fill="#333434"/><path d="M189.045 255.788v31.172h-.197v-31.172h.197Zm0-.941h-.197a.943.943 0 0 0-.941.941v31.172c0 .517.423.94.941.94h.197c.517 0 .94-.423.94-.94v-31.172a.943.943 0 0 0-.94-.941Z" fill="#231815"/><path d="M193.022 255.317h-.197a.471.471 0 0 0-.471.471v31.172c0 .26.211.47.471.47h.197c.26 0 .47-.21.47-.47v-31.172a.47.47 0 0 0-.47-.471Z" fill="#333434"/><path d="M193.023 255.788v31.172h-.198v-31.172h.198Zm0-.941h-.198a.943.943 0 0 0-.94.941v31.172c0 .517.423.94.94.94h.198c.517 0 .94-.423.94-.94v-31.172a.943.943 0 0 0-.94-.941Z" fill="#231815"/><path d="M206.526 268.811h-31.172a.47.47 0 0 0-.47.47v.198c0 .259.21.47.47.47h31.172a.47.47 0 0 0 .47-.47v-.198a.47.47 0 0 0-.47-.47Z" fill="#333434"/><path d="M206.517 269.281v.198h-31.172v-.198h31.172Zm0-.94h-31.172a.943.943 0 0 0-.941.94v.198c0 .517.423.94.941.94h31.172c.517 0 .94-.423.94-.94v-.198a.943.943 0 0 0-.94-.94Z" fill="#231815"/><path d="M206.526 272.789h-31.172a.47.47 0 0 0-.47.47v.197c0 .26.21.47.47.47h31.172c.26 0 .47-.21.47-.47v-.197a.47.47 0 0 0-.47-.47Z" fill="#333434"/><path d="M206.517 273.259v.198h-31.172v-.198h31.172Zm0-.94h-31.172a.943.943 0 0 0-.941.94v.198c0 .517.423.94.941.94h31.172c.517 0 .94-.423.94-.94v-.198a.943.943 0 0 0-.94-.94Z" fill="#231815"/><path d="M187.353 287.157a.487.487 0 0 1-.32-.169.454.454 0 0 1-.104-.348l2.916-31.031a.487.487 0 0 1 .169-.32.483.483 0 0 1 .301-.103c.019 0 .244.018.244.018a.47.47 0 0 1 .423.508l-2.915 31.031a.463.463 0 0 1-.47.424c-.019 0-.244-.019-.244-.019v.009Z" fill="#333434"/><path d="m190.305 255.656.197.018-2.915 31.032-.197-.019 2.915-31.031Zm0-.941a.944.944 0 0 0-.941.856l-2.915 31.031a.94.94 0 0 0 .847 1.025l.197.019h.085a.948.948 0 0 0 .602-.216.977.977 0 0 0 .338-.64l2.915-31.031a.94.94 0 0 0-.846-1.025l-.198-.019h-.094.01Z" fill="#231815"/><path d="M191.312 287.533a.487.487 0 0 1-.32-.169.454.454 0 0 1-.104-.348l2.916-31.031a.462.462 0 0 1 .47-.423c.018 0 .244.018.244.018.122.01.235.076.32.17a.45.45 0 0 1 .103.348l-2.915 31.031a.463.463 0 0 1-.47.423c-.019 0-.244-.019-.244-.019Z" fill="#333434"/><path d="m194.274 256.032.197.019-2.915 31.031-.197-.019 2.915-31.031Zm0-.94a.932.932 0 0 0-.931.855l-2.915 31.032a.954.954 0 0 0 .216.686c.16.188.385.311.639.339l.198.019h.084c.48 0 .894-.367.931-.856l2.915-31.031a.955.955 0 0 0-.216-.687.974.974 0 0 0-.639-.338l-.198-.019h-.084Z" fill="#231815"/><path d="M175.552 268.501a.49.49 0 0 1-.32-.17.498.498 0 0 1-.104-.348l.019-.197a.47.47 0 0 1 .47-.423c.019 0 31.079 2.915 31.079 2.915a.485.485 0 0 1 .319.169.493.493 0 0 1 .104.348l-.019.198a.47.47 0 0 1-.47.423c-.019 0-31.078-2.915-31.078-2.915Z" fill="#333434"/><path d="m175.617 267.833 31.031 2.915-.019.198-31.031-2.915.019-.198Zm0-.94a.932.932 0 0 0-.931.856l-.019.197a.955.955 0 0 0 .216.687c.16.188.386.31.64.338l31.031 2.915h.084a.93.93 0 0 0 .931-.855l.019-.198a.954.954 0 0 0-.216-.686.978.978 0 0 0-.639-.339l-31.032-2.915h-.084Z" fill="#231815"/><path d="M175.175 272.469a.49.49 0 0 1-.32-.169.5.5 0 0 1-.104-.348l.019-.198a.47.47 0 0 1 .47-.423c.019 0 31.079 2.915 31.079 2.915a.49.49 0 0 1 .319.169.495.495 0 0 1 .104.348l-.019.198a.47.47 0 0 1-.47.423c-.019 0-31.078-2.915-31.078-2.915Z" fill="#333434"/><path d="m175.24 271.792 31.032 2.915-.019.197-31.031-2.915.018-.197Zm0-.94a.943.943 0 0 0-.94.855l-.019.198a.94.94 0 0 0 .847 1.025l31.031 2.915h.084c.48 0 .894-.367.931-.856l.019-.197a.955.955 0 0 0-.216-.687.977.977 0 0 0-.639-.338l-31.032-2.915h-.084.018Z" fill="#231815"/><path d="M178.579 281.524a.44.44 0 0 1-.329-.141l-.141-.141a.481.481 0 0 1 0-.667l22.041-22.042a.455.455 0 0 1 .658 0l.141.141a.464.464 0 0 1 0 .668l-22.041 22.041a.478.478 0 0 1-.329.141Z" fill="#333434"/><path d="m200.47 258.872.141.141-22.042 22.041-.141-.141 22.042-22.041Zm0-.941a.962.962 0 0 0-.668.273l-22.042 22.042a.937.937 0 0 0 0 1.325l.141.141a.93.93 0 0 0 .668.273.97.97 0 0 0 .668-.273l22.041-22.041a.93.93 0 0 0 .273-.668.965.965 0 0 0-.273-.667l-.141-.141a.92.92 0 0 0-.667-.273v.009Z" fill="#231815"/><path d="M181.39 284.346a.442.442 0 0 1-.329-.141l-.141-.141a.483.483 0 0 1 0-.668l22.042-22.042a.472.472 0 0 1 .329-.141c.113 0 .244.047.329.141l.141.141a.466.466 0 0 1 0 .668l-22.042 22.042a.479.479 0 0 1-.329.141Z" fill="#333434"/><path d="m203.291 261.693.141.141-22.042 22.042-.141-.142 22.042-22.041Zm0-.94a.965.965 0 0 0-.668.272l-22.041 22.042a.936.936 0 0 0 0 1.326l.141.141a.93.93 0 0 0 .667.272.973.973 0 0 0 .668-.272l22.042-22.042a.932.932 0 0 0 .272-.667.973.973 0 0 0-.272-.668l-.141-.141a.965.965 0 0 0-.668-.273v.01Z" fill="#231815"/><path d="M177.319 279.766a.495.495 0 0 1-.31-.179l-.122-.159a.469.469 0 0 1 .094-.659l24.806-18.872a.44.44 0 0 1 .282-.094h.066a.498.498 0 0 1 .31.178l.122.16a.467.467 0 0 1-.094.658l-24.806 18.873a.444.444 0 0 1-.282.094h-.066Z" fill="#333434"/><path d="m202.068 260.273.123.16-24.807 18.872-.122-.159 24.806-18.873Zm0-.94a.966.966 0 0 0-.573.188l-24.806 18.872a.965.965 0 0 0-.367.621.89.89 0 0 0 .188.696l.122.16a.931.931 0 0 0 .752.366.972.972 0 0 0 .565-.188l24.806-18.872a.941.941 0 0 0 .178-1.317l-.122-.16a.966.966 0 0 0-.62-.366h-.132.009Z" fill="#231815"/><path d="M179.735 282.935a.5.5 0 0 1-.31-.179l-.122-.159a.469.469 0 0 1 .094-.659l24.806-18.872a.44.44 0 0 1 .282-.094h.066a.494.494 0 0 1 .31.178l.122.16a.467.467 0 0 1-.094.658l-24.806 18.873a.444.444 0 0 1-.282.094h-.066Z" fill="#333434"/><path d="m204.486 263.442.122.16-24.806 18.872-.122-.16 24.806-18.872Zm0-.941a.96.96 0 0 0-.564.189l-24.807 18.872a.968.968 0 0 0-.366.621.89.89 0 0 0 .188.696l.122.16a.931.931 0 0 0 .752.366.966.966 0 0 0 .564-.188l24.807-18.872a.97.97 0 0 0 .366-.621.89.89 0 0 0-.188-.696l-.122-.16a.932.932 0 0 0-.752-.367Z" fill="#231815"/><path d="M203.291 281.524a.442.442 0 0 1-.329-.141l-22.042-22.041a.466.466 0 0 1 0-.668l.141-.141a.474.474 0 0 1 .33-.141c.112 0 .244.047.329.141l22.041 22.042a.465.465 0 0 1 0 .667l-.141.141a.476.476 0 0 1-.329.141Z" fill="#333434"/><path d="m181.391 258.872 22.042 22.042-.142.141-22.041-22.042.141-.141Zm0-.94a.965.965 0 0 0-.668.272l-.141.141a.934.934 0 0 0-.272.668c0 .254.103.489.272.668l22.042 22.041a.93.93 0 0 0 .667.273.97.97 0 0 0 .668-.273l.141-.141a.936.936 0 0 0 0-1.326l-22.041-22.041a.925.925 0 0 0-.668-.273v-.009Z" fill="#231815"/><path d="M200.47 284.346a.44.44 0 0 1-.329-.141l-22.042-22.042a.466.466 0 0 1 0-.668l.141-.141a.455.455 0 0 1 .658 0l22.042 22.042a.466.466 0 0 1 0 .668l-.141.141a.483.483 0 0 1-.329.141Z" fill="#333434"/><path d="m178.578 261.693 22.042 22.041-.141.141-22.042-22.041.141-.141Zm0-.941a.961.961 0 0 0-.667.273l-.141.141a.93.93 0 0 0-.273.668.97.97 0 0 0 .273.667l22.041 22.042a.93.93 0 0 0 .668.273.974.974 0 0 0 .668-.273l.141-.141a.938.938 0 0 0 0-1.326l-22.042-22.041a.92.92 0 0 0-.668-.273v-.01Z" fill="#231815"/><path d="M204.599 279.578a.44.44 0 0 1-.282-.094l-25.079-18.506a.466.466 0 0 1-.188-.31.465.465 0 0 1 .084-.348l.122-.16a.479.479 0 0 1 .377-.188c.094 0 .197.028.282.094l25.079 18.506a.478.478 0 0 1 .103.658l-.122.16a.47.47 0 0 1-.311.188h-.075.01Z" fill="#333434"/><path d="m179.641 260.433 25.079 18.506-.122.159-25.079-18.505.122-.16Zm0-.941a.928.928 0 0 0-.752.376l-.122.16a.966.966 0 0 0-.179.696c.038.245.169.47.376.621l25.079 18.506a.963.963 0 0 0 .555.188.943.943 0 0 0 .762-.386l.122-.16a.918.918 0 0 0 .169-.696.943.943 0 0 0-.376-.62l-25.079-18.506a.963.963 0 0 0-.555-.188v.009Z" fill="#231815"/><path d="M202.228 282.775a.462.462 0 0 1-.282-.094l-25.079-18.506a.478.478 0 0 1-.103-.658l.122-.16a.473.473 0 0 1 .311-.188h.075c.103 0 .197.028.282.094l25.079 18.506a.473.473 0 0 1 .103.658l-.122.16a.477.477 0 0 1-.376.188h-.01Z" fill="#333434"/><path d="m177.272 263.639 25.078 18.506-.122.16-25.079-18.506.123-.16Zm0-.94a.939.939 0 0 0-.762.385l-.122.16a.92.92 0 0 0-.17.696c.038.244.17.47.376.621l25.079 18.506a.924.924 0 0 0 1.307-.189l.123-.159a.965.965 0 0 0 .178-.696.941.941 0 0 0-.376-.621l-25.079-18.506a.96.96 0 0 0-.554-.188v-.009Z" fill="#231815"/><path d="M190.935 294.52c-12.864 0-23.33-10.466-23.33-23.33 0-12.864 10.466-23.33 23.33-23.33 12.864 0 23.33 10.466 23.33 23.33 0 12.864-10.466 23.33-23.33 23.33Zm0-40.848c-9.657 0-17.518 7.861-17.518 17.518s7.861 17.519 17.518 17.519c9.658 0 17.519-7.862 17.519-17.519 0-9.657-7.861-17.518-17.519-17.518Z" fill="#333434"/><path d="M190.935 248.33c12.629 0 22.859 10.231 22.859 22.86s-10.23 22.86-22.859 22.86c-12.629 0-22.86-10.231-22.86-22.86s10.231-22.86 22.86-22.86Zm0 40.849c9.93 0 17.989-8.049 17.989-17.989 0-9.939-8.05-17.989-17.989-17.989-9.94 0-17.989 8.05-17.989 17.989 0 9.94 8.049 17.989 17.989 17.989Zm0-41.789c-13.127 0-23.8 10.673-23.8 23.8s10.673 23.8 23.8 23.8 23.8-10.673 23.8-23.8-10.673-23.8-23.8-23.8Zm0 40.849c-9.404 0-17.049-7.645-17.049-17.049 0-9.403 7.645-17.048 17.049-17.048 9.403 0 17.048 7.645 17.048 17.048 0 9.404-7.645 17.049-17.048 17.049Z" fill="#231815"/><path d="M190.935 291.078c-10.974 0-19.898-8.923-19.898-19.897 0-10.974 8.924-19.898 19.898-19.898 10.973 0 19.897 8.924 19.897 19.898s-8.924 19.897-19.897 19.897Zm0-34.83c-8.369 0-15.168 6.808-15.168 15.168s6.808 15.168 15.168 15.168c8.359 0 15.167-6.808 15.167-15.168s-6.808-15.168-15.167-15.168Z" fill="#333434"/><path d="M190.935 251.763c10.729 0 19.428 8.698 19.428 19.427s-8.699 19.427-19.428 19.427c-10.729 0-19.427-8.698-19.427-19.427s8.698-19.427 19.427-19.427Zm0 35.3c8.642 0 15.638-7.006 15.638-15.638s-7.006-15.638-15.638-15.638-15.638 7.006-15.638 15.638 7.006 15.638 15.638 15.638Zm0-36.241c-11.228 0-20.368 9.131-20.368 20.368 0 11.237 9.131 20.368 20.368 20.368 11.237 0 20.368-9.131 20.368-20.368 0-11.237-9.131-20.368-20.368-20.368Zm0 35.301c-8.106 0-14.697-6.592-14.697-14.698 0-8.106 6.591-14.697 14.697-14.697 8.106 0 14.698 6.591 14.698 14.697 0 8.106-6.592 14.698-14.698 14.698Z" fill="#231815"/><path d="M190.935 276.108a4.743 4.743 0 0 1-4.74-4.739 4.744 4.744 0 0 1 4.74-4.74 4.744 4.744 0 0 1 4.739 4.74 4.743 4.743 0 0 1-4.739 4.739Z" fill="#333434"/><path d="M190.935 267.1a4.265 4.265 0 0 1 4.269 4.269 4.266 4.266 0 0 1-4.269 4.269 4.266 4.266 0 0 1-4.269-4.269 4.265 4.265 0 0 1 4.269-4.269Zm0-.941a5.209 5.209 0 1 0 0 10.42 5.209 5.209 0 0 0 0-10.42Z" fill="#231815"/><path d="M190.935 273.823a2.457 2.457 0 0 1-2.455-2.454 2.456 2.456 0 0 1 4.909 0c0 1.354-1.1 2.454-2.454 2.454Z" fill="#333434"/><path d="M190.935 269.394a1.984 1.984 0 1 1 0 3.969 1.984 1.984 0 0 1 0-3.969Zm0-.94a2.927 2.927 0 0 0-2.924 2.924 2.922 2.922 0 0 0 2.924 2.925 2.922 2.922 0 0 0 2.925-2.925 2.922 2.922 0 0 0-2.925-2.924Zm.865-2.116c0 1.157-.94 2.097-2.097 2.097h-44.929a2.098 2.098 0 0 1-2.097-2.097 2.1 2.1 0 0 1 2.097-2.097h44.929a2.1 2.1 0 0 1 2.097 2.097Z" fill="#231815"/><path d="M185.613 282.747c-.733 0-1.523-.057-2.492-.169l-37.52-1.279c-.197 0-4.917-.245-8.152-3.78-2.097-2.295-3.066-5.426-2.887-9.319 0-.085.639-4.73 5.877-4.73.339 0 .696.019 1.072.056l44.948-2.294c.264-.019.536-.028.8-.028 5.566 0 10.259 4.353 10.682 9.92a10.634 10.634 0 0 1-2.567 7.796 10.654 10.654 0 0 1-7.326 3.695l-.47.038c-.686.056-1.279.103-1.965.103v-.009Z" fill="#888"/><path d="M187.267 261.665c5.313 0 9.808 4.099 10.213 9.488.423 5.642-3.809 10.56-9.46 10.983-.894.066-1.58.131-2.408.131-.658 0-1.41-.047-2.435-.169l-37.557-1.288s-11.162-.461-10.588-12.61c0 0 .526-4.279 5.406-4.279.32 0 .659.019 1.016.057l45.024-2.295c.263-.018.517-.028.771-.028m0-.94c-.282 0-.565.009-.847.028l-44.929 2.294a10.13 10.13 0 0 0-1.044-.056c-4.523 0-6.122 3.338-6.347 5.106v.066c-.188 4.025.818 7.269 3.009 9.657 3.366 3.677 8.275 3.921 8.482 3.931l37.519 1.288a21.29 21.29 0 0 0 2.511.169c.752 0 1.317-.047 2.012-.103l.471-.038a11.111 11.111 0 0 0 7.645-3.855 11.158 11.158 0 0 0 2.679-8.134c-.432-5.802-5.331-10.353-11.152-10.353h-.009Z" fill="#231815"/><path d="M138.906 272.271c-1.655 0-2.943-.855-2.943-1.937 0-1.081 1.298-1.918 2.943-1.918l37.04.085c1.655 0 2.943.855 2.943 1.937 0 1.081-1.297 1.918-2.943 1.918l-37.04-.085Z" fill="#888"/><path d="m138.906 268.887 37.031.084c1.363 0 2.473.658 2.473 1.467 0 .799-1.11 1.448-2.473 1.448h-.01l-37.03-.084c-1.373 0-2.473-.659-2.473-1.467 0-.8 1.109-1.448 2.473-1.448m0-.941c-1.947 0-3.414 1.025-3.414 2.389 0 .724.433 1.401 1.185 1.843.611.357 1.401.564 2.229.564l37.03.085c1.956 0 3.423-1.025 3.423-2.389 0-.724-.432-1.401-1.185-1.843-.611-.357-1.401-.564-2.228-.564l-37.031-.085h-.009Z" fill="#231815"/><path d="M179.661 271.623c.31 4.203 3.977 7.353 8.181 7.043 4.203-.31 7.353-3.978 7.043-8.181-.31-4.203-3.978-7.353-8.181-7.043-4.203.31-7.354 3.978-7.043 8.181Z" fill="#74D194" stroke="#231815" stroke-miterlimit="10"/><path d="m89.614 202.667-6.075 24.882s-1.382 4.231 0 4.984l8.266 3.272 6.63-22.7s4.071-6.629 6.535-11.453c0 0 3.056-6.893 2.614-6.893-4.664 0-12.14-7.09-12.14-7.09s-4.787.414-4.843 1.627c-.047 1.213-.987 13.362-.987 13.362v.009Z" fill="#00698A" stroke="#231815" stroke-miterlimit="10"/><path d="M99.59 196.33c-.065 4.777-6.742 9.441-16.173 8.66-1.806-.15-3.282-3.874-3.282-8.66s1.504-8.379 3.282-8.661c7.945-1.241 16.22 4.655 16.173 8.661Z" fill="#00698A" stroke="#231815" stroke-miterlimit="10"/><path d="M83.53 187.66s-.076 0-.104.009c-1.777.282-3.282 3.874-3.282 8.661 0 4.786 1.477 8.51 3.282 8.66h.104v-17.34.01Z" fill="#74D194" stroke="#231815" stroke-miterlimit="10"/><path d="M81.686 189.146c-.921 1.523-1.551 4.109-1.551 7.193 0 3.084.62 5.746 1.551 7.269v-14.462Z" fill="#fff" stroke="#231815" stroke-linecap="round" stroke-linejoin="round"/><path d="M105.157 189.926c-3.959-1.27-5.538-1.382-7.043-1.947-1.542-.479-2.962-1.025-4.41-.968-1.59.066-3.837 0-4.523.893.113 4.523-.085 15.525 0 17.171 7.814 2.134 10.964 1.326 12.732.846 1.279-.517 3.404-2.482 5.022-6.027 0 0 2.67-8.539-1.768-9.968h-.01Z" fill="#00698A" stroke="#231815" stroke-miterlimit="10"/><path d="M94.447 199.893c0 .866-.696 1.561-1.561 1.561h-4.298a1.557 1.557 0 0 1-1.56-1.561c0-.865.695-1.56 1.56-1.56h4.298c.865 0 1.56.695 1.56 1.56Z" fill="#74D194" stroke="#231815" stroke-miterlimit="10"/><path d="M110.752 170.696c-1.542 0-2.868-3.63-3.441-7.006-.32-1.89-.424-3.714-.282-5.115.159-1.646.63-2.548 1.382-2.671.028 0 .141-.009.169-.009 1.542 0 2.868 3.63 3.442 7.006.602 3.563.526 7.522-1.091 7.795-.028 0-.141.009-.169.009l-.01-.009Z" fill="#888"/><path d="M108.571 156.356c1.034 0 2.341 2.896 2.981 6.62.649 3.827.329 7.071-.715 7.25h-.094c-1.034 0-2.341-2.896-2.981-6.62-.649-3.827-.329-7.071.715-7.25h.094Zm0-.94c-.085 0-.169 0-.245.018-.987.17-1.579 1.213-1.767 3.094-.141 1.448-.038 3.31.291 5.247.207 1.232 1.382 7.401 3.902 7.401.085 0 .17 0 .245-.019 2.736-.47 1.617-7.532 1.476-8.341-.207-1.232-1.382-7.4-3.902-7.4Z" fill="#231815"/><path d="M110.752 170.696a1.22 1.22 0 0 1-.527-.131.469.469 0 0 1-.254-.395c0-.17.076-.329.217-.424.526-.329.931-2.905.291-6.695-.583-3.404-1.683-5.82-2.417-6.197a.463.463 0 0 1-.253-.395.5.5 0 0 1 .216-.423c.122-.075.254-.131.385-.15.029 0 .141-.01.17-.01 1.542 0 2.868 3.63 3.441 7.006.602 3.564.527 7.523-1.09 7.795-.029 0-.142.01-.17.01l-.009.009Z" fill="#888"/><path d="M108.57 156.356c1.035 0 2.342 2.896 2.981 6.62.649 3.827.329 7.071-.715 7.25h-.084a.64.64 0 0 1-.311-.085c.875-.554 1.11-3.611.499-7.165-.574-3.357-1.702-6.046-2.671-6.535a.557.557 0 0 1 .207-.085h.094Zm0-.94c-.084 0-.169 0-.244.018a1.466 1.466 0 0 0-.555.217.933.933 0 0 0 .085 1.627c.432.216 1.551 2.219 2.172 5.858.62 3.63.225 5.886-.113 6.244a.927.927 0 0 0-.423.827c.019.339.225.63.526.781.235.122.489.178.734.178.084 0 .169 0 .244-.018 2.737-.471 1.618-7.533 1.477-8.341-.207-1.232-1.383-7.401-3.903-7.401v.01Z" fill="#231815"/><path d="M105.515 195.239c-1.054 0-2.022-1.109-2.248-2.576-.244-1.608.461-3.009 1.608-3.188.075-.01.16-.019.235-.019 1.053 0 2.022 1.11 2.248 2.577.112.733.028 1.457-.236 2.04-.291.64-.789 1.053-1.363 1.147a1.86 1.86 0 0 1-.235.019h-.009Z" fill="#333434"/><path d="M105.101 189.936c.818 0 1.598.931 1.786 2.172.207 1.326-.338 2.52-1.213 2.652-.056 0-.113.009-.16.009-.818 0-1.598-.931-1.786-2.182-.207-1.326.338-2.52 1.213-2.651.056 0 .113-.01.16-.01m0-.94c-.104 0-.207 0-.301.019-.734.112-1.364.63-1.721 1.41-.301.668-.405 1.486-.273 2.304.263 1.721 1.411 2.971 2.718 2.971.103 0 .207 0 .301-.018.733-.113 1.363-.63 1.72-1.411.301-.667.405-1.486.273-2.304-.263-1.721-1.41-2.971-2.717-2.971Z" fill="#231815"/><path d="M105.975 194.9c-.743 0-1.429-.667-1.711-1.072-.414-.573-.762-1.504-.499-2.388.198-.677.818-1.458 1.561-1.589l6.056-1.044s.104-.01.132-.01c.818 0 1.326 1.251 1.514 2.314.216 1.25.056 2.576-.771 2.717a927.802 927.802 0 0 1-6.141 1.044s-.056.009-.122.009l-.019.019Z" fill="#333434"/><path d="M111.505 189.277c.404 0 .856.837 1.044 1.928.197 1.128.018 2.106-.395 2.172l-6.056 1.044c-.038 0-.085.009-.122.009-.518 0-1.072-.508-1.336-.874-.395-.546-.63-1.317-.432-1.975.15-.489.639-1.157 1.185-1.251l6.055-1.043h.047m0-.941c-.065 0-.141 0-.206.019l-6.056 1.044c-1.053.178-1.73 1.241-1.928 1.918-.31 1.044.094 2.135.574 2.802.423.583 1.222 1.26 2.097 1.26.094 0 .188 0 .282-.028l6.056-1.044c.357-.065.987-.329 1.184-1.448.094-.517.085-1.156-.028-1.815-.226-1.307-.865-2.708-1.975-2.708Z" fill="#231815"/><path d="M111.928 194.317c-1.053 0-2.012-1.062-2.276-2.52-.291-1.608.376-3.018 1.524-3.225.094-.019.178-.029.272-.029 1.063 0 2.022 1.063 2.276 2.521.291 1.608-.376 3.018-1.523 3.225a1.332 1.332 0 0 1-.273.028Z" fill="#333434"/><path d="M111.438 189.014c.809 0 1.599.903 1.815 2.135.235 1.326-.273 2.52-1.138 2.68-.065.009-.122.018-.188.018-.808 0-1.589-.902-1.815-2.134-.235-1.326.273-2.52 1.138-2.68.066-.01.122-.019.188-.019Zm0-.94a2.26 2.26 0 0 0-.357.028c-1.401.254-2.238 1.909-1.899 3.771.3 1.683 1.457 2.905 2.736 2.905.122 0 .244-.009.357-.028 1.401-.254 2.238-1.909 1.9-3.771-.301-1.683-1.458-2.905-2.737-2.905Z" fill="#231815"/><path d="M88.41 195.765s-5.473 1.185-4.467 4.796c.526 1.881 6.385 3.62 8.322 2.548.827-.46.959-5.143.207-6.808-.395-.865-2.502-.912-4.053-.536h-.01Z" fill="#74D194" stroke="#231815" stroke-miterlimit="10"/><path d="M101.762 192.963c-.366 0-.62-.225-.667-.263a.411.411 0 0 1-.104-.141l-1.58-3.338c-1.41-2.511.696-6.385.791-6.554l7.748-19.842a.481.481 0 0 1 .442-.301h.075a.869.869 0 0 1 .649.452c.301.555-.028 1.373-.094 1.533l-7.861 20.283c-.734 1.946-.367 3.404-.358 3.413.565 1.166 1.552 3.216 1.655 3.404.198.357.151.724.057.94a.538.538 0 0 1-.104.142.968.968 0 0 1-.649.263v.009Z" fill="#888"/><path d="M108.382 162.995c.724.122.207 1.335.207 1.335l-7.861 20.302c-.79 2.116-.376 3.705-.376 3.705s1.551 3.253 1.702 3.517c.15.263.037.498.037.498a.481.481 0 0 1-.329.141c-.197 0-.348-.141-.348-.141l-1.58-3.338c-1.307-2.342.771-6.122.771-6.122l7.777-19.897Zm0-.941a.935.935 0 0 0-.874.602l-7.758 19.841c-.348.64-2.191 4.326-.762 6.949l1.57 3.31a.987.987 0 0 0 .207.282c.094.094.461.395.997.395.357 0 .687-.131.959-.385a.996.996 0 0 0 .207-.282 1.49 1.49 0 0 0-.066-1.373c-.103-.188-.902-1.853-1.626-3.357-.057-.292-.217-1.514.366-3.066l7.861-20.292c.104-.235.452-1.176.057-1.909a1.348 1.348 0 0 0-.987-.696c-.057 0-.104-.009-.16-.009l.009-.01Z" fill="#231815"/><path d="M102.571 274.886c2.163 5.049 5.266 10.061 9.122 10.428h41.929s14.294 1.1 17.34-10.428h-68.391Z" fill="#74D194" stroke="#231815" stroke-miterlimit="10"/><path d="M159.039 281.703h-44.168c-1.909 0-3.46.188-5.247-.733-1.786-.922-3.084-2.408-4.1-4.063-2.097-3.385-3.065-7.419-3.93-11.237-3.066-13.428-4.683-12.563-8.633-19.126-3.95-6.564.922-15.215 3.8-24.891 1.288-4.335 1.598-7.118 1.55-8.877-.338-1.062-.987-2.106-1.814-2.708-.376-.273-.762-.555-1.185-.743-1.044-.461-3.235-1.194-4.372-1.279-2.04-.15-3.15.301-7.316 3.705-7.908 6.451-14.237 18.92-14.801 29.555 0 0-.705 3.649 2.924 3.037 3.63-.601 23.857 1.561 27.703 21.45 0 0 4.325 18.769 12.243 19.53h41.93s7.654.583 12.948-3.62h-7.532Z" fill="#00698A" stroke="#231815" stroke-miterlimit="10"/><path d="M228.022 269.187c-3.949-1.006-3.394-5.04-3.394-5.04-.273-17.114-11.98-26.8-11.98-26.8-17.105-13.089-38.338-3.658-38.338-3.658-5.351 2.229-3.432-7.457-3.432-7.457h-7.871l-.564 3.771c-.085.536-.16 1.082-.235 1.618l-19.541-.8v.903h-6.225s-.808 5.247 1.307 6.253c2.116 1.006 10.918 3.122 11.209 10.382.292 7.259-17.001 6.178-16.521 24.608 0 0 94.081-1.354 96.018-2.097 2.877-1.109-.414-1.692-.414-1.692l-.019.009Z" fill="#00698A" stroke="#231815" stroke-miterlimit="10"/><path d="M214.34 232.843c-.301 0-.536-.019-.668-.037h-24.138a1.68 1.68 0 0 1-1.683-1.674c0-.922.752-1.683 1.683-1.683h24.27c.075 0 .16 0 .235.018.056 0 .16.019.292.019.489 0 .912-.094 1.119-.254.056-.037.15-.112.178-.413.282-2.408 0-8.868-.009-8.934a1.682 1.682 0 0 1 1.598-1.758c.978 0 1.712.705 1.749 1.599.047 1.156.283 6.967-.009 9.478-.132 1.11-.639 2.041-1.467 2.68-1.025.79-2.276.95-3.15.95v.009Z" fill="#333434"/><path d="M217.292 218.597c.64 0 1.185.508 1.213 1.157.01.272.301 6.77 0 9.403-.112.987-.564 1.806-1.288 2.36-.94.724-2.116.856-2.868.856-.273 0-.498-.019-.621-.028h-24.194a1.217 1.217 0 0 1-1.214-1.213c0-.668.546-1.213 1.214-1.213h24.27c.056 0 .113 0 .169.009.075.01.207.019.357.019.423 0 1.035-.066 1.401-.357.141-.113.311-.292.358-.724.291-2.445 0-8.943 0-9.009a1.209 1.209 0 0 1 1.156-1.26h.057m0-.94h-.094a2.148 2.148 0 0 0-1.495.696 2.188 2.188 0 0 0-.565 1.551c0 .066.292 6.507.01 8.858-.01.094-.028.122-.028.122-.057.029-.348.123-.809.123-.104 0-.188 0-.245-.01a2.77 2.77 0 0 0-.291-.019h-24.27a2.16 2.16 0 0 0-2.154 2.154 2.16 2.16 0 0 0 2.154 2.153h24.138c.16.019.386.028.668.028.95 0 2.313-.178 3.442-1.053.93-.714 1.504-1.758 1.655-2.999.31-2.652.047-8.858.009-9.554a2.151 2.151 0 0 0-2.153-2.05h.028Z" fill="#231815"/><path d="M196.718 232.204a1.682 1.682 0 0 1-1.683-1.683v-7.862c0-.931.752-1.683 1.683-1.683s1.684.752 1.684 1.683v7.862c0 .93-.753 1.683-1.684 1.683Z" fill="#333434"/><path d="M196.718 221.455c.667 0 1.213.546 1.213 1.214v7.861c0 .667-.546 1.213-1.213 1.213a1.216 1.216 0 0 1-1.213-1.213v-7.861c0-.668.545-1.214 1.213-1.214Zm0-.94a2.16 2.16 0 0 0-2.154 2.154v7.861a2.16 2.16 0 0 0 2.154 2.153 2.158 2.158 0 0 0 2.153-2.153v-7.861a2.16 2.16 0 0 0-2.153-2.154Z" fill="#231815"/><path d="M210.898 237.075s8.811 7.466 11.529 17.669c0 0 .677 2.266 1.213 7.711.527 5.444.903 6.968 3.931 7.259 0 0-3.931.762-4.439-3.018-.583-4.382-.931-17.97-12.234-29.631v.01Z" fill="#74D194" stroke="#231815" stroke-miterlimit="10"/><path d="M228.022 269.187c-3.949-1.006-3.394-5.04-3.394-5.04-.273-17.114-11.98-26.8-11.98-26.8-17.105-13.089-38.338-3.658-38.338-3.658-5.351 2.229-3.432-7.457-3.432-7.457h-7.871l-.564 3.771c-.085.536-.16 1.082-.235 1.618l-19.541-.8v.903h-6.225s-.808 5.247 1.307 6.253c2.116 1.006 10.918 3.122 11.209 10.382.292 7.259-17.001 6.178-16.521 24.608 0 0 10.23-.15 24.006-.376 1.326-11.105 6.865-29.555 28.897-32.404 23.697-3.065 33.561 14.547 37.144 31.031 3.516-.122 5.689-.244 5.961-.348 2.878-1.109-.413-1.692-.413-1.692l-.01.009Z" fill="#00698A" stroke="#231815" stroke-miterlimit="10"/><path d="M185.33 240.196c-22.032 2.859-27.571 21.299-28.896 32.405 4.259-.066 65.353-1.354 66.04-1.373-3.583-16.484-13.447-34.097-37.144-31.032Z" fill="#00698A" stroke="#231815" stroke-miterlimit="10"/><path d="M186.365 242.933c-20.979 2.718-21.948 24.336-21.882 29.442 18.468-.32 39.09-.715 50.224-1.072-2.069-13.644-9.112-30.862-28.342-28.37Z" fill="#00698A" stroke="#231815" stroke-miterlimit="10"/><path d="M204.147 238.636c0 .865-.696 1.561-1.561 1.561h-4.298c-.865 0-1.56-.696-1.56-1.561s.695-1.561 1.56-1.561h4.298c.865 0 1.561.696 1.561 1.561Z" fill="#74D194" stroke="#231815" stroke-miterlimit="10"/><path d="M208.576 237.987c-.019-.066-.047-.122-.066-.179a.07.07 0 0 0-.018-.037 13.463 13.463 0 0 1-.085-.17c0-.009-.01-.018-.019-.028a3.37 3.37 0 0 0-.508-.696c-.047-.056-.103-.103-.15-.15l-.01-.01a6.193 6.193 0 0 0-.883-.677c-.066-.037-.123-.075-.189-.112a8.773 8.773 0 0 0-.94-.471h-.009c-.057-.028-.113-.047-.179-.075-.235-.094-.451-.169-.639-.235h-.029c-.037-.009-.075-.028-.112-.037-.01 0-.019 0-.029-.01a1.603 1.603 0 0 1-.103-.028h-.019c-.103-.028-.188-.057-.263-.075h-.028c-.019 0-.029 0-.047-.01h-.113a8.624 8.624 0 0 0-1.411-.207 7.86 7.86 0 0 0-.649-.009h-.253a4.11 4.11 0 0 0-.508.066c-.038 0-.066.009-.104.019-.037 0-.075.018-.113.028-.047.009-.094.028-.141.037-.037.01-.075.019-.103.038a8.255 8.255 0 0 1-.141.056c-.019.01-.047.019-.066.029a.447.447 0 0 0-.122.066c-.019 0-.028.018-.047.028-.047.028-.094.066-.141.103-.01 0-.019.019-.028.028a.465.465 0 0 0-.094.094c-.01.01-.019.029-.029.038-.028.047-.066.085-.084.132-.029.065-.057.141-.085.207a.129.129 0 0 1-.019.056c-.019.066-.047.132-.066.197 0 .019 0 .029-.009.047-.028.085-.047.179-.066.264v.037l-.056.254c0 .019 0 .038-.01.057-.037.207-.065.423-.094.649v.037l-.028.339c-.16 1.965.085 4.325.649 4.636.066.037.141.065.216.103.028.009.047.019.075.028.057.019.104.038.17.057.028 0 .056.018.094.028a.95.95 0 0 0 .178.037c.029 0 .066.01.094.019l.198.028a.25.25 0 0 1 .085.01c.084 0 .169.019.253.019h.047c.33.018.687 0 1.054-.029 2.435-.235 5.501-1.495 5.877-2.839.178-.649.15-1.223-.019-1.721l-.066-.066Z" fill="#74D194" stroke="#231815" stroke-miterlimit="10"/><path d="M186.722 235.213c-.367 0-.583-.029-.583-.029h-38.29c-.489-.056-1.12-.103-1.862-.159-3.687-.254-9.244-.649-10.344-3.404-.517-1.307.047-2.868 1.74-4.759a.47.47 0 0 1 .112-.31 7.131 7.131 0 0 1 1.937-1.542c2.173-1.194 4.815-1.411 7.335-1.476.357 0 .724-.01 1.082-.01 1.965 0 3.949.122 5.867.245 1.89.122 3.856.235 5.783.235 1.204 0 2.304-.047 3.348-.141 6.084-.555 12.121-2.069 17.96-3.527l.565-.141c2.51-.63 5.219-1.231 8.021-1.429.197-.009.649-.037.658-.037h.094c2.915.573 3.103 2.35 3.094 2.849.16.517.818 3.159 0 8.265-.8 4.956-5.182 5.341-6.507 5.341l-.01.029Z" fill="#333434"/><path d="M190.051 219.208c2.991.593 2.718 2.455 2.718 2.455s.903 2.567 0 8.134c-.733 4.523-4.608 4.946-6.037 4.946-.329 0-.527-.019-.527-.019h-38.347c-3.15-.423-16.954-.103-9.958-7.701.038-.038-.019-.094-.037-.141.479-.555 1.081-1.035 1.805-1.439 2.135-1.166 4.749-1.354 7.128-1.42.357 0 .714-.009 1.072-.009 3.902 0 7.758.479 11.651.479 1.128 0 2.256-.037 3.394-.141 6.319-.583 12.46-2.144 18.6-3.677 2.605-.648 5.257-1.232 7.946-1.42.188-.009.404-.028.621-.037m0-.941h-.047c-.226.01-.442.029-.64.038-2.849.198-5.576.809-8.106 1.448l-.564.141c-5.82 1.458-11.839 2.962-17.894 3.517a36.313 36.313 0 0 1-3.31.141c-1.919 0-3.865-.122-5.755-.235-1.919-.122-3.912-.244-5.896-.244-.367 0-.724 0-1.091.009-2.586.066-5.294.292-7.551 1.533a7.785 7.785 0 0 0-2.069 1.645.927.927 0 0 0-.207.414c-1.739 1.984-2.303 3.667-1.72 5.134 1.203 3.028 6.949 3.433 10.748 3.696.733.047 1.363.094 1.768.15h38.422c.094 0 .301.019.573.019 1.42 0 6.113-.414 6.968-5.736.8-4.918.226-7.645.019-8.388.019-1.006-.658-2.717-3.479-3.272a1.088 1.088 0 0 0-.179-.019l.01.009Z" fill="#231815"/><path d="M70.703 238.673c2.708-.883 4.636-17.584 18.44-26.931 0 0 3.47-3.376-.94-2.859-1.241.546-2.821 1.42-4.58 2.859-7.005 5.717-12.77 16.146-14.387 25.85.245.837.696 1.335 1.467 1.081Z" fill="#74D194" stroke="#231815" stroke-miterlimit="10"/><path d="M92.961 247.024a.477.477 0 0 1-.338-.141c-6.667-6.818-2.859-16.607.207-24.468.94-2.417 1.833-4.702 2.303-6.629.922-3.743.17-4.683-1.072-6.235a.505.505 0 0 1-.056-.536.474.474 0 0 1 .404-.254h.057c.122.019 2.934.405 3.987 3.931.508 1.702.14 4.419-1.25 9.102-.65 2.201-1.411 4.345-2.135 6.413-2.492 7.091-4.655 13.212-1.712 18.102a.465.465 0 0 1-.113.611.469.469 0 0 1-.291.094l.01.01Z" fill="#333434"/><path d="M94.418 209.231s2.615.329 3.593 3.592c.507 1.683.037 4.495-1.251 8.83-2.878 9.676-7.748 18.327-3.799 24.891-8.482-8.68.62-22.474 2.633-30.655.978-3.987.122-5.031-1.185-6.667m0-.941a.94.94 0 0 0-.733 1.524l.019.019c1.231 1.542 1.852 2.313.987 5.83-.47 1.899-1.354 4.165-2.285 6.573-3.113 7.983-6.987 17.932-.104 24.966a.923.923 0 0 0 .677.282.947.947 0 0 0 .809-1.43c-2.83-4.701-.705-10.729 1.75-17.706.733-2.078 1.485-4.232 2.143-6.441 1.439-4.834 1.796-7.551 1.25-9.366-1.146-3.809-4.25-4.241-4.381-4.26h-.113l-.019.009Z" fill="#231815"/><path d="M115.52 276.475c-2.323 0-4.288-.188-6.009-.574-1.58-.357-2.887-1.391-3.676-2.924-.978-1.89-1.072-4.288-.245-6.253.875-2.107 2.793-3.771 5.003-4.345a8.47 8.47 0 0 1 1.401-.244c.63-.066 1.269-.085 1.88-.104.978-.028 1.891-.056 2.793-.244 1.928-.423 3.639-1.618 5.285-2.774a40.36 40.36 0 0 1 1.335-.912c2.68-1.778 4.984-1.862 7.655-1.975.714-.028 1.457-.057 2.238-.122 1.222-.104 2.539-.198 3.846-.198s2.35.085 3.366.263c5.172.884 7.777 4.871 7.156 10.937-.724 6.996-8.425 7.504-14.058 7.88-.809.056-1.58.103-2.285.169-1.411.132-2.934.32-4.514.508-3.517.423-7.513.912-11.18.912h.009Z" fill="#333434"/><path d="M137.035 256.267c1.1 0 2.21.066 3.291.254 5.463.931 7.306 5.228 6.77 10.428-.78 7.561-10.296 7.1-15.92 7.636-4.626.432-10.4 1.42-15.647 1.42-2.087 0-4.09-.16-5.905-.564-3.677-.828-4.928-5.351-3.602-8.539.828-1.974 2.614-3.535 4.693-4.071a9.355 9.355 0 0 1 1.335-.236c1.57-.159 3.178-.018 4.73-.357 2.539-.555 4.607-2.313 6.78-3.752 3.281-2.172 6.037-1.721 9.676-2.022 1.26-.103 2.539-.197 3.808-.197m0-.94c-1.326 0-2.652.094-3.883.197-.772.066-1.505.094-2.22.122-2.623.104-5.106.207-7.899 2.05-.451.301-.893.612-1.344.922-1.683 1.185-3.282 2.294-5.116 2.699-.855.188-1.758.216-2.708.235-.62.019-1.269.037-1.918.103a9.289 9.289 0 0 0-1.476.263c-2.342.612-4.382 2.389-5.323 4.627-.874 2.097-.771 4.645.263 6.648.856 1.655 2.276 2.774 3.997 3.16 1.758.395 3.752.583 6.112.583 3.696 0 7.702-.489 11.237-.912 1.589-.198 3.094-.377 4.495-.508.696-.066 1.467-.113 2.276-.169 5.792-.386 13.729-.913 14.49-8.304.659-6.347-2.097-10.522-7.541-11.453-1.053-.179-2.182-.263-3.451-.263h.009Z" fill="#231815"/><path d="M158.183 210.096c-5.529-3.432-11.209-6.93-17.584-8.237-6.376-1.307-13.691 0-17.951 4.937-3.122 3.62-4.157 8.594-4.363 13.371-.499 11.877-2.276 24.44-3.056 36.307 9.036 1.335 23.959.827 33.062.084-2.182-7.598-4.373-15.195-6.554-22.793-.884-3.075-1.768-6.16-2.342-9.3-.141-.753-1.279-7.354.075-7.062.198.047.546.996.659 1.175.743 1.213 1.73 2.342 2.623 3.442 1.806 2.238 3.752 4.372 5.915 6.272 3.837 3.347 8.463 5.943 13.503 6.695 5.041.752 10.495-.508 14.228-3.968 4.015-3.733 5.576-9.404 6.253-14.848.677-5.445 1.852-10.927 3.526-16.146-17.217-1.345-35.667-2.294-52.932-2.642-.009 1.448-.122 2.821.132 4.241" fill="#00698A"/><path d="M158.183 210.096c-5.529-3.432-11.209-6.93-17.584-8.237-6.376-1.307-13.691 0-17.951 4.937-3.122 3.62-4.157 8.594-4.363 13.371-.499 11.877-2.276 24.44-3.056 36.307 9.036 1.335 23.959.827 33.062.084-2.182-7.598-4.373-15.195-6.554-22.793-.884-3.075-1.768-6.16-2.342-9.3-.141-.753-1.279-7.354.075-7.062.198.047.546.996.659 1.175.743 1.213 1.73 2.342 2.623 3.442 1.806 2.238 3.752 4.372 5.915 6.272 3.837 3.347 8.463 5.943 13.503 6.695 5.041.752 10.495-.508 14.228-3.968 4.015-3.733 5.576-9.404 6.253-14.848.677-5.445 1.852-10.927 3.526-16.146-17.217-1.345-35.667-2.294-52.932-2.642-.009 1.448-.122 2.821.132 4.241" stroke="#231815" stroke-miterlimit="10"/><path d="M172.42 213.5c-1.288 2.887-2.464 5.925-2.398 9.084.066 3.16 1.646 6.47 4.542 7.73 2.229.968 3.555-.282 4.73-2.088a20.984 20.984 0 0 0 2.727-6.131c.132-.489 1.091-5.322.677-5.36a16.601 16.601 0 0 1-4.081-.949c-2.069-.762-4.128-1.524-6.197-2.286Z" fill="#74D194" stroke="#231815" stroke-miterlimit="10"/><path d="M132.982 160.032a3.413 3.413 0 1 0 0-6.826 3.413 3.413 0 0 0 0 6.826Z" fill="#333434"/><path d="M132.982 153.676a2.942 2.942 0 0 1 2.944 2.943 2.942 2.942 0 0 1-2.944 2.943 2.94 2.94 0 0 1-2.943-2.943 2.94 2.94 0 0 1 2.943-2.943Zm0-.941a3.885 3.885 0 0 0 0 7.768 3.885 3.885 0 0 0 3.884-3.884 3.885 3.885 0 0 0-3.884-3.884Z" fill="#231815"/><path d="M141.473 161.659a3.418 3.418 0 0 1-3.413-3.413 3.418 3.418 0 0 1 3.413-3.413 3.418 3.418 0 0 1 3.413 3.413 3.418 3.418 0 0 1-3.413 3.413Z" fill="#333434"/><path d="M141.482 155.312a2.942 2.942 0 0 1 2.944 2.943 2.942 2.942 0 0 1-2.944 2.943 2.94 2.94 0 0 1-2.943-2.943 2.94 2.94 0 0 1 2.943-2.943Zm0-.94a3.884 3.884 0 1 0 .001 7.767 3.884 3.884 0 0 0-.001-7.767Z" fill="#231815"/><path d="M159.001 180.476c-8.962 11.105-24.722 15.891-38.347 11.641-.706-.216-1.402-.461-2.079-.696-2.097-.724-4.081-1.41-5.98-1.363-1.749.047-3.856 1.26-3.856 2.708a2.62 2.62 0 0 1-2.604 2.623 2.612 2.612 0 0 1-2.614-2.604c0-2.257 1.081-4.335 3.056-5.868 1.645-1.269 3.789-2.031 5.877-2.088 2.849-.075 5.388.8 7.833 1.646a59.25 59.25 0 0 0 1.927.649c5.577 1.739 11.905 1.711 17.839-.094 5.933-1.796 11.209-5.294 14.876-9.836" fill="#74D194"/><path d="M159.001 180.476c-8.962 11.105-24.722 15.891-38.347 11.641-.706-.216-1.402-.461-2.079-.696-2.097-.724-4.081-1.41-5.98-1.363-1.749.047-3.856 1.26-3.856 2.708a2.62 2.62 0 0 1-2.604 2.623 2.612 2.612 0 0 1-2.614-2.604c0-2.257 1.081-4.335 3.056-5.868 1.645-1.269 3.789-2.031 5.877-2.088 2.849-.075 5.388.8 7.833 1.646a59.25 59.25 0 0 0 1.927.649c5.577 1.739 11.905 1.711 17.839-.094 5.933-1.796 11.209-5.294 14.876-9.836" stroke="#231815" stroke-miterlimit="10"/><path d="M132.841 144.414c.658-1.383 1.354-2.756 2.181-4.044 1.571-2.426 3.752-4.551 6.329-5.933 2.228-1.195 6.178-2.69 8.548-1.185.583-.649.959-1.42 1.363-2.172.404-.753.658-1.627.489-2.483-.282-1.42-1.589-2.398-2.915-2.99-3.225-1.448-7.09-1.354-10.24.235-2.436 1.232-4.401 3.338-5.52 5.83-1.204 2.689-2.643 5.228-3.16 8.19a17.645 17.645 0 0 0-.15 4.975c.16 1.41.893 4.137 1.758 5.247-.16-.442-.047-1.025.019-1.467.113-.724.292-1.429.489-2.135.198-.695.47-1.391.79-2.068h.019Z" fill="#333434" stroke="#231815" stroke-linecap="round" stroke-linejoin="round"/><path d="M162.509 124.657c-2.568-2.614-5.962-4.345-9.498-5.435-9.403-2.906-20.227-1.251-28.163 4.476-7.937 5.736-12.713 15.459-12.102 25.05 5.19-.225 14.142.734 19.249 1.655-.988-7.485.573-13.889 5.914-17.424 5.341-3.536 10.824-3.621 18.638-1.919 4.006.875 7.419 3.216 9.253 6.856 1.749-4.824.367-9.536-3.282-13.25l-.009-.009Z" fill="#333434" stroke="#231815" stroke-linecap="round" stroke-linejoin="round"/><path d="M161.728 143.257c1.034 5.529-1.825 11.576-6.771 14.274 3.874 1.223 7.88 2.276 11.942 2.182 4.063-.094 8.247-1.448 11.012-4.429 2.2-2.37 3.338-5.586 3.742-8.802.395-3.216.113-6.469-.216-9.695-.31-3.093-.78-6.45-3.018-8.613-2.257-2.182-5.661-2.53-8.793-2.755-3.686-.264-7.428-.527-11.03.282-2.351.526-4.645 1.561-6.45 3.178-.499.442-1.223 1.072-1.355 1.768-.169.912-.451 1.805-.724 2.699 2.182-.442 4.279.113 6.066 1.41 2.811 2.041 4.955 5.05 5.595 8.492v.009Z" fill="#333434" stroke="#231815" stroke-linecap="round" stroke-linejoin="round"/><path d="M159.631 121.178a30.683 30.683 0 0 1 5.604-3.019c6.677-2.745 14.171-3.234 21.327-2.181 7.617 1.119 13.899 4.006 18.986 9.666 8.933 9.93 10.532 22.757 7.56 35.32-14.998 0-30.006-.386-44.967-1.166 3.498-3.875 5.642-8.783 5.379-13.711-.179-3.422-1.599-6.751-3.931-9.318-2.379-2.624-5.717-4.382-9.29-4.852-2.097-.283-4.232-.104-6.319.263-1.392.244-2.68.517-3.959 1.081-.104-2.84 3.601-6.77 5.51-8.689a29.055 29.055 0 0 1 4.1-3.394Z" fill="#333434" stroke="#231815" stroke-linecap="round" stroke-linejoin="round"/><path d="M166.261 127.534c6.037-.244 11.557 4.354 13.738 9.987 2.182 5.642 1.533 12.017-.291 17.781m2.651-27.608c2.389.546 4.458 2.116 5.906 4.091 1.448 1.975 2.313 4.316 2.84 6.704 1.316 5.934.601 12.3-2.003 17.801m13.324 4.307c2.398-6.799 2.445-14.397.141-21.224s-6.949-12.845-12.967-16.794m-37.557 5.661c-6.573-.828-12.366-.395-17.557 2.012-5.519 2.548-10.071 7.73-10.673 13.776" stroke="#231815" stroke-linecap="round" stroke-linejoin="round"/><path d="M155.324 124.413c-6.827-2.191-14.453-1.74-20.979 1.222-6.526 2.962-11.886 8.416-14.726 14.989" stroke="#231815" stroke-linecap="round" stroke-linejoin="round"/></g><path d="M26.547 344.522h-5.824v.644h5.824v-.644Zm-5.824 2.38h5.824v-.644h-5.824v.644Zm0 1.778h5.824v-.672h-5.824v.672Zm-1.61 1.68v-7.014h9.1v6.944h-1.666v-.406h-5.824v.476h-1.61Zm7.672-10.584v1.092H20.47v-1.092h6.314Zm-.014 2.842h-6.286v-1.106h6.286v1.106Zm-8.596-4.662h10.892v5.012h-1.68v-3.836h-7.602v3.85h-1.61v-5.026Zm21.28 2.492h2.996a14.213 14.213 0 0 1-1.652-1.26c-.42.448-.868.868-1.344 1.26Zm-.588 1.246v-.812c-.434.308-.91.602-1.386.854-.21-.294-.686-.798-1.022-1.092-.154.518-.28 1.022-.42 1.456.714 1.078.854 2.086.854 2.884 0 .924-.154 1.526-.56 1.848-.196.168-.448.266-.742.308-.224.042-.532.042-.812.042-.014-.406-.126-1.022-.336-1.442.21.028.364.028.518.014a.454.454 0 0 0 .322-.112c.154-.126.21-.434.21-.854 0-.644-.112-1.568-.784-2.534.224-.84.476-1.988.672-2.912h-1.022v11.004h-1.386v-12.488h2.842l.224-.056 1.036.602c-.182.658-.392 1.4-.588 2.128 1.596-.826 3.066-2.128 3.85-3.402l1.596.56c-.084.14-.168.294-.266.434 1.036.84 2.562 1.666 3.934 2.114a7.609 7.609 0 0 0-.63 1.582 16.88 16.88 0 0 1-1.988-1.036v.91h-4.116Zm3.57 1.82v1.288h.98v-1.288h-.98Zm-1.204 2.394v-3.514h3.472v3.514h-3.472Zm-2.814-2.394v1.288h.938v-1.288h-.938Zm-1.19 2.394v-3.514h3.374v3.514h-3.374Zm1.092.154 1.456.308c-.084.28-.196.56-.308.826.49.322 1.036.714 1.33 1.008l-.84 1.106c-.238-.28-.672-.644-1.106-.966a7.132 7.132 0 0 1-2.002 2.086c-.224-.28-.756-.826-1.078-1.05 1.232-.728 2.128-1.904 2.548-3.318Zm3.864-.014 1.498.21a7.54 7.54 0 0 1-.322 1.134c.784.546 1.694 1.204 2.17 1.68l-.98 1.12c-.392-.42-1.078-.994-1.778-1.512-.42.7-.938 1.288-1.554 1.736-.21-.28-.742-.84-1.064-1.05 1.092-.714 1.764-1.89 2.03-3.318Zm12.39-5.824h5.67s-.014.574-.042.798c-.28 5.572-.56 7.672-1.176 8.4-.42.546-.826.7-1.428.784-.518.07-1.386.07-2.24.028-.028-.504-.252-1.246-.574-1.722.882.07 1.708.07 2.072.07.294 0 .462-.042.658-.224.42-.434.7-2.268.924-6.426h-3.92c-.224 2.898-1.204 6.3-5.138 8.526-.266-.42-.896-1.05-1.302-1.358 3.472-1.89 4.41-4.718 4.648-7.168h-4.214v-1.708h4.284v-2.884h1.778v2.884Z" fill="#231815"/><g clip-path="url(#clip2_799_41176)"><path d="M72.784 335.49c.85 0 2.2 2.79 2.91 3.15.49.25 2.39-.54 2.78-.16.39.38-.17 2.53.08 3.05.35.7 3.14 1.8 3.14 2.64 0 .87-2.86 2.13-3.23 2.85-.26.5.42 2.5.02 2.89-.4.39-2.52-.26-3.05-.01-.68.32-1.77 2.94-2.57 2.94-.8 0-2.04-2.63-2.73-2.96-.52-.25-2.53.46-2.93.07-.4-.39.31-2.39.05-2.9-.36-.71-3.11-1.95-3.11-2.8 0-.85 2.65-1.98 2.98-2.66.26-.53-.42-2.61-.01-3.02.41-.41 2.36.3 2.86.04.71-.36 1.675-3.11 2.525-3.11l.285-.01Z" fill="#00698A" stroke="#231815" stroke-miterlimit="10"/></g><g clip-path="url(#clip3_799_41176)"><path d="M93.344 335.49c.85 0 2.2 2.79 2.91 3.15.49.25 2.39-.54 2.78-.16.39.38-.17 2.53.08 3.05.35.7 3.14 1.8 3.14 2.64 0 .87-2.86 2.13-3.23 2.85-.26.5.42 2.5.02 2.89-.4.39-2.52-.26-3.05-.01-.68.32-1.77 2.94-2.57 2.94-.8 0-2.04-2.63-2.73-2.96-.52-.25-2.53.46-2.93.07-.4-.39.31-2.39.05-2.9-.36-.71-3.11-1.95-3.11-2.8 0-.85 2.65-1.98 2.98-2.66.26-.53-.42-2.61-.01-3.02.41-.41 2.36.3 2.86.04.71-.36 1.97-3.11 2.82-3.11l-.01-.01Z" fill="#00698A" stroke="#231815" stroke-miterlimit="10"/></g><g clip-path="url(#clip4_799_41176)"><path d="M113.905 335.49c.85 0 2.2 2.79 2.91 3.15.49.25 2.39-.54 2.78-.16.39.38-.17 2.53.08 3.05.35.7 3.14 1.8 3.14 2.64 0 .87-2.86 2.13-3.23 2.85-.26.5.42 2.5.02 2.89-.4.39-2.52-.26-3.05-.01-.68.32-1.77 2.94-2.57 2.94-.8 0-2.04-2.63-2.73-2.96-.52-.25-2.53.46-2.93.07-.4-.39.31-2.39.05-2.9-.36-.71-3.11-1.95-3.11-2.8 0-.85 2.65-1.98 2.98-2.66.26-.53-.42-2.61-.01-3.02.41-.41 2.36.3 2.86.04.71-.36 1.97-3.11 2.82-3.11l-.01-.01Z" fill="#00698A" stroke="#231815" stroke-miterlimit="10"/><path d="M116.695 338.64c-.71-.36-2.06-3.15-2.91-3.15v17.35h.08c.8 0 1.89-2.62 2.57-2.94.53-.25 2.65.4 3.05.01.4-.39-.28-2.39-.02-2.89.37-.72 3.23-1.98 3.23-2.85 0-.84-2.79-1.94-3.14-2.64-.25-.52.31-2.67-.08-3.05-.39-.38-2.29.41-2.78.16Z" fill="#fff"/><path d="M113.785 335.49c.85 0 2.2 2.79 2.91 3.15.49.25 2.39-.54 2.78-.16.39.38-.17 2.53.08 3.05.35.7 3.14 1.8 3.14 2.64 0 .87-2.86 2.13-3.23 2.85-.26.5.42 2.5.02 2.89-.4.39-2.52-.26-3.05-.01-.68.32-1.77 2.94-2.57 2.94h-.08v-17.35Zm0 0 .01.01" stroke="#231815" stroke-miterlimit="10"/></g><path d="m165.732 346.322 1.484.504c-.574.784-1.4 1.764-2.058 2.338-.28-.266-.896-.714-1.26-.938a9.44 9.44 0 0 0 1.834-1.904Zm4.676.672 1.204-.7c.63.644 1.526 1.554 1.988 2.128l-1.288.784c-.42-.56-1.26-1.526-1.904-2.212Zm.392-3.206v-.518h-3.598v.518h3.598Zm0 1.456v-.532h-3.598v.532h3.598Zm-6.552-6.342v3.108c0 .378-.014.784-.028 1.204a7.623 7.623 0 0 0 1.204-.728c-.266-.224-.56-.462-.826-.644l.84-.742c.266.168.588.392.868.602.21-.21.406-.434.574-.672h-2.142v-1.246h2.884c.112-.294.224-.588.308-.882h-3.682Zm5.292 2.128h-.938c-.266.434-.56.854-.91 1.26h2.702a7.67 7.67 0 0 1-.854-1.26Zm3.08 0h-1.568c.21.28.462.546.742.798.294-.266.616-.574.826-.798Zm.07 0 .91.672c-.294.28-.63.56-.952.798.42.266.868.504 1.33.658a4.81 4.81 0 0 0-.966 1.176 6.639 6.639 0 0 1-.756-.406v2.296h-2.45v1.792c0 .686-.126 1.022-.644 1.246-.476.21-1.106.21-1.946.21-.098-.42-.336-.966-.518-1.33.518.014 1.092.014 1.274.014.168 0 .224-.056.224-.196v-1.736h-2.38v-2.31c-.266.182-.546.35-.84.504a3.555 3.555 0 0 0-.77-.91c-.14 2.03-.63 4.396-2.044 5.95-.21-.308-.84-.91-1.148-1.106.924-1.022 1.344-2.324 1.54-3.626-.504.308-.994.602-1.484.868l-.462-1.498c.546-.224 1.302-.602 2.1-1.008.014-.364.014-.728.014-1.078v-.476l-1.232.56c-.14-.714-.476-1.918-.77-2.814l1.232-.49c.266.784.588 1.792.77 2.478v-3.766h4.648l-.28-.84 1.694-.336c.14.364.28.784.406 1.176h4.578v1.4h-5.264l.98.126c-.084.266-.182.504-.28.756h4.438v1.246h-.952Zm7.728 8.162-1.26-.7c.49-.504.952-1.316 1.204-2.002l1.246.546c-.294.714-.686 1.596-1.19 2.156Zm4.368-4.522v-2.716h1.176v2.716h-1.176Zm3.346-2.856v3.136c0 .588-.084.854-.49 1.036-.392.182-.91.182-1.638.182-.056-.336-.238-.77-.406-1.078.448.014.882.014 1.036 0 .14-.014.182-.042.182-.168v-3.108h1.316Zm-4.746 4.606 1.05-.658c.434.364 1.05.924 1.344 1.288l-1.078.728c-.28-.392-.854-.952-1.316-1.358Zm-1.764-2.24h1.4v-.392h-1.386c0 .126 0 .266-.014.392Zm1.4-1.442h-1.386v.35h1.386v-.35Zm1.19-.812v3.234c0 .476-.084.658-.406.798-.28.14-.728.14-1.316.14-.028-.266-.168-.574-.28-.812.28.014.574.014.672.014.098 0 .14-.028.14-.14v-.28h-1.484c-.112.504-.322.966-.742 1.33-.196-.224-.714-.63-.98-.784.602-.462.644-1.078.644-1.68v-1.82h3.752Zm-.476 6.272h1.54c.364 0 .448-.112.49-.84.266.182.798.336 1.148.406-.14 1.19-.49 1.498-1.498 1.498h-1.862c-1.414 0-1.75-.322-1.75-1.4v-1.33h1.358v1.316c0 .322.084.35.574.35Zm2.674-1.26 1.19-.532c.518.658 1.134 1.554 1.414 2.156l-1.26.588c-.238-.574-.826-1.526-1.344-2.212Zm-3.024-6.272h2.142a18.048 18.048 0 0 1-1.148-.588c-.322.21-.644.406-.994.588Zm-3.64-1.708v1.694c1.47-.364 3.108-.938 4.158-1.694h-4.158Zm5.698.28-.14.14a17.324 17.324 0 0 0 3.962 1.19c-.308.28-.686.742-.868 1.134a20.442 20.442 0 0 1-2.212-.742v.602h-3.668v-.476c-.686.28-1.4.546-2.086.742a4.917 4.917 0 0 0-.686-.924v1.162c0 2.226-.294 5.488-2.086 7.434-.21-.308-.84-.896-1.148-1.092.924-1.022 1.344-2.338 1.54-3.654-.504.308-.994.616-1.484.896l-.462-1.498c.546-.238 1.302-.616 2.1-1.008.014-.378.014-.742.014-1.078v-.49l-1.232.574c-.07-.742-.392-1.918-.756-2.814l1.19-.504c.35.784.672 1.764.798 2.45v-3.724h4.83a11.057 11.057 0 0 0-.294-.952l1.68-.322c.154.392.322.854.448 1.274h4.242v1.4h-4.256l.574.28Zm12.81.056h5.67s-.014.574-.042.798c-.28 5.572-.56 7.672-1.176 8.4-.42.546-.826.7-1.428.784-.518.07-1.386.07-2.24.028-.028-.504-.252-1.246-.574-1.722.882.07 1.708.07 2.072.07.294 0 .462-.042.658-.224.42-.434.7-2.268.924-6.426h-3.92c-.224 2.898-1.204 6.3-5.138 8.526-.266-.42-.896-1.05-1.302-1.358 3.472-1.89 4.41-4.718 4.648-7.168h-4.214v-1.708h4.284v-2.884h1.778v2.884Z" fill="#231815"/><g clip-path="url(#clip5_799_41176)"><path d="M219.404 335.49c-1.34 0-2.54.55-3.41 1.44a4.741 4.741 0 0 0-3.41-1.44c-2.64 0-4.77 2.13-4.77 4.77 0 4.79 8.18 10.62 8.18 10.62s8.18-5.83 8.18-10.62a4.77 4.77 0 0 0-4.77-4.77Z" fill="#FF002A" stroke="#231815" stroke-miterlimit="10"/></g><g clip-path="url(#clip6_799_41176)"><path d="M238.754 335.49c-1.34 0-2.54.55-3.41 1.44a4.741 4.741 0 0 0-3.41-1.44c-2.64 0-4.77 2.13-4.77 4.77 0 4.79 8.18 10.62 8.18 10.62s8.18-5.83 8.18-10.62a4.77 4.77 0 0 0-4.77-4.77Z" fill="#FF002A" stroke="#231815" stroke-miterlimit="10"/></g><g clip-path="url(#clip7_799_41176)" stroke="#231815" stroke-miterlimit="10"><path d="M258.105 335.49c-1.34 0-2.54.55-3.41 1.44a4.741 4.741 0 0 0-3.41-1.44c-2.64 0-4.77 2.13-4.77 4.77 0 4.79 8.18 10.62 8.18 10.62s8.18-5.83 8.18-10.62a4.77 4.77 0 0 0-4.77-4.77Z" fill="#FF002A"/><path d="M254.995 336.93c.87-.89 2.07-1.44 3.41-1.44a4.77 4.77 0 0 1 4.77 4.77c0 4.79-8.18 10.62-8.18 10.62v-13.95Z" fill="#fff"/></g><path d="M15.5 368.35a4.5 4.5 0 0 1 4.5-4.5h44.5v33H20a4.5 4.5 0 0 1-4.5-4.5v-24Z" fill="#00698A"/><path d="M33.778 377.916v-.798H31.86v.798h1.918Zm0 2.212v-.868H31.86v.868h1.918Zm0 2.226v-.882H31.86v.882h1.918Zm-3.528 1.988v-5.81c-.238.28-.476.518-.714.756-.154-.336-.616-1.162-.896-1.526 1.12-1.008 2.128-2.604 2.688-4.242l1.512.42c-.21.602-.476 1.19-.756 1.778h2.086a13.32 13.32 0 0 0-.658-1.512l1.568-.448c.35.602.714 1.372.896 1.96h2.212v1.4H35.36v.798h2.254v1.344H35.36v.868h2.198v1.344H35.36v.882h2.982v1.4H31.86v.588h-1.61Zm-1.68-8.526-1.526.532c-.154-.63-.518-1.652-.756-2.408l1.47-.448c.266.756.616 1.694.812 2.324Zm.126 3.962.714.252c-.252 1.274-.63 2.59-1.106 3.64.224.14.49.336.868.56.952.574 2.268.658 3.906.658 1.61 0 4.116-.14 5.656-.364-.182.448-.462 1.26-.476 1.708-1.162.07-3.626.168-5.264.168-1.862 0-3.038-.154-4.046-.742-.588-.322-1.078-.784-1.372-.784-.322 0-.812.952-1.162 1.75l-1.106-1.582c.476-.588.994-1.05 1.47-1.33.308-.7.588-1.582.798-2.436h-1.764c.322-.826.7-1.946 1.008-3.038h-1.26v-1.484h3.276c-.294.98-.63 2.1-.952 3.08h.56l.252-.056Zm15.652-6.23 1.554.518a21.66 21.66 0 0 1-1.358 2.66v9.842h-1.582v-7.546c-.448.56-.882 1.05-1.344 1.484-.154-.406-.616-1.316-.882-1.736 1.428-1.232 2.814-3.22 3.612-5.222Zm5.026 11.228h2.044c.714 0 .826-.588.952-2.898.378.294 1.036.616 1.47.7-.182 2.702-.602 3.668-2.296 3.668h-2.338c-1.722 0-2.212-.56-2.212-2.464v-10.024h1.61v3.556h4.872v1.596h-4.872v4.9c0 .826.098.966.77.966Z" fill="#fff"/><path d="M15.5 368.35a4.5 4.5 0 0 1 4.5-4.5h44.5v33H20a4.5 4.5 0 0 1-4.5-4.5v-24Z" stroke="#231815"/><path d="M64.5 363.85H260a4.5 4.5 0 0 1 4.5 4.5v24a4.5 4.5 0 0 1-4.5 4.5H64.5v-33Z" fill="#fff"/><path d="m77.304 373.52 1.568.644c-.91 1.288-2.324 2.66-3.626 3.5a9.764 9.764 0 0 0-.826-1.414c1.106-.658 2.31-1.806 2.884-2.73Zm.35 3.052 1.442.616a16.164 16.164 0 0 1-1.162 1.722v7.644h-1.596v-5.81a15.45 15.45 0 0 1-1.274 1.148c-.112-.378-.532-1.316-.77-1.722 1.218-.868 2.576-2.24 3.36-3.598Zm1.61 6.244 1.372-.714c.588.686 1.386 1.666 1.764 2.282l-1.47.826c-.336-.644-1.092-1.666-1.666-2.394Zm6.482-3.178v.798h1.708v1.512h-1.708v2.884c0 .826-.154 1.232-.742 1.47-.574.238-1.386.266-2.464.252-.07-.462-.308-1.106-.518-1.554.7.042 1.498.042 1.722.028.238 0 .294-.056.294-.238v-2.842h-5.586v-1.512h5.586v-.798h1.708Zm-1.974-4.536h3.738v1.526h-3.738v1.134h3.122v1.512h-7.882v-1.512h3.052v-1.134h-3.528v-1.526h3.528v-1.54h1.708v1.54Zm16.142 4.816v.588l.896-.014a9.752 9.752 0 0 0-.336-.392l.392-.182h-.952Zm-2.548-.896H98.5v-.56h-1.134v.56Zm0-1.96v.546H98.5v-.546h-1.134Zm3.738 0h-1.19v.546h1.19v-.546Zm0 1.96v-.56h-1.19v.56h1.19Zm-5.32 2.744-.084-1.19c.77 0 1.736-.014 2.8-.042v-.616h-2.436v-3.752H98.5v-.518h-2.674v-1.218H98.5v-.924h1.414v.924h2.814v1.218h-2.814v.518h2.562v3.752h-.588c.462.532.882 1.148 1.12 1.61l-1.162.574c-.07-.14-.154-.308-.266-.49-2.1.07-4.256.126-5.796.154Zm4.032 3.318v-1.54h-2.1c.434.434.826.966 1.022 1.358l-.574.364c.56.028 1.204.028 1.386.028.196-.014.266-.056.266-.21Zm-8.33-4.998v.826h.798v-.826h-.798Zm0-1.918v.826h.798v-.826h-.798Zm2.73.826v-.826h-.854v.826h.854Zm0 1.918v-.826h-.854v.826h.854Zm7.112.868v.546h1.596v1.218h-1.596v1.582c0 .714-.112 1.064-.644 1.274-.518.196-1.19.21-2.17.21-.042-.406-.238-.924-.406-1.302l-.56.35c-.224-.49-.7-1.204-1.204-1.708l.686-.406h-1.316v.812h-2.156v2.212h-1.47v-2.212h-2.254V382.9h2.254v-.84h-1.792v-5.054h1.792v-.728H90.03v-1.442h2.058v-1.33h1.47v1.33h1.988v1.442h-1.988v.728h1.862v5.054h-1.862v.84h2.156v-.574h4.102v-.546h1.512Zm17.024-5.488-1.386.532c-.126-.63-.546-1.666-.98-2.422l1.302-.476c.462.742.91 1.708 1.064 2.366Zm-7.182-.728v-.84h-.77v.84h.77Zm1.246-1.792v2.716h-3.178v-2.716h3.178Zm-5.11 5.656v.602h1.036v-.602h-1.036Zm0-1.512v.588h1.036v-.588h-1.036Zm3.458.588v-.588h-1.078v.588h1.078Zm0 1.526v-.602h-1.078v.602h1.078Zm-4.928.98v-4.074h6.454v4.074h-6.454Zm1.75-5.446v-.84h-.714v.84h.714Zm1.19-1.792v2.716h-3.066v-2.716h3.066Zm4.116 7.644v1.176h-7.63v-1.176h7.63Zm-5.292 3.486h2.94v-.77h-2.94v.77Zm10.668-6.132h-2.198c.364 2.688 1.05 5.152 2.45 6.454-.378.294-.91.924-1.162 1.372-.994-1.05-1.624-2.548-2.058-4.34-.42 1.54-1.148 3.066-2.352 4.312a7.367 7.367 0 0 0-.812-.812v.616h-1.596v-.322h-2.94v.504h-1.512v-3.542h6.048v1.96c1.61-1.82 2.002-4.214 2.1-6.202H112.5v-1.54h1.764v-3.724h1.624v3.724h2.38v1.54Z" fill="#231815"/><path d="M64.5 363.85H260a4.5 4.5 0 0 1 4.5 4.5v24a4.5 4.5 0 0 1-4.5 4.5H64.5v-33Z" stroke="#231815"/><path d="M15.5 412.35a4.5 4.5 0 0 1 4.5-4.5h44.5v33H20a4.5 4.5 0 0 1-4.5-4.5v-24Z" fill="#00698A"/><path d="M33.918 420.978v2.002h-1.526v-2.002h1.526Zm1.512 7.644h-.462c.21.252.406.504.546.77h.308c.14 0 .238-.028.322-.154.154-.196.266-.896.35-2.772h-3.472v.392h2.408v1.764Zm-2.408.406.896-.042a3.952 3.952 0 0 0-.196-.252l.28-.112h-.98v.406Zm1.148-1.064v-.448h-1.148v.448h1.148Zm-3.724 0h1.176v-.448h-1.176v.448Zm1.176-1.498h-1.134c-.14.14-.28.266-.434.392h1.568v-.392Zm-3.374-5.684v1.372c0 1.302-.056 2.954-.308 4.564.868-.476 1.54-1.036 2.002-1.596h-1.148v-1.96h.28l-.238-.826c.588-.098 1.386-.224 2.24-.392a15.106 15.106 0 0 0-1.96-.406l.238-.728c.84.098 1.792.266 2.38.462l-.238.602.532-.098.014.826c-.896.21-1.82.42-2.59.56h7.266c-.658-.196-1.568-.378-2.408-.49l.238-.714.294.014-.322-.658c.504-.084 1.246-.336 1.806-.532h-8.078Zm7.896-1.722h-7.896v.658h7.896v-.658Zm-.042 5.39v-.616h-1.19v.616h1.19Zm-2.45 0v-.616H32.49v.616h1.162Zm-2.422 0v-.616h-1.134v.616h1.134Zm.112 1.092h6.678s0 .35-.014.518c-.112 2.604-.252 3.598-.56 3.976-.224.294-.504.392-.812.434-.294.056-.77.056-1.26.042a2.693 2.693 0 0 0-.098-.532l-.602.252a3.58 3.58 0 0 0-.154-.336c-2.156.154-4.382.294-5.992.392l-.098-1.078c.868-.028 1.974-.084 3.192-.14v-.448h-2.366v-1.176a12.67 12.67 0 0 1-.56.364c-.182-.252-.518-.56-.798-.77-.224 1.274-.546 2.492-1.078 3.486-.308-.252-1.022-.658-1.442-.812 1.162-2.156 1.26-5.334 1.26-7.56v-4.144h11.13v2.772h-.966l.364.644c-.686.266-1.624.448-2.282.56.854.098 1.778.28 2.324.448l-.266.728h.532v1.96H31.65c-.098.14-.196.28-.308.42Zm19.222 2.996h3.304v1.582H45.16v-1.582h3.738v-2.8h-2.702v-1.554h2.702v-2.296h-1.54c-.21.728-.49 1.4-.784 1.932a14.722 14.722 0 0 0-1.484-.756c.14-.252.28-.518.42-.812l-.798.364c-.084-.42-.294-1.036-.532-1.61v9.562h-1.666v-10.01c-.084 1.176-.308 2.716-.63 3.71l-1.232-.448c.336-.924.588-2.492.686-3.64l1.176.168v-2.856h1.666v2.646l.812-.336c.28.546.574 1.218.77 1.764.35-1.022.602-2.226.742-3.416l1.624.224c-.098.658-.21 1.316-.35 1.946h1.12v-2.744h1.666v2.744h2.856v1.568h-2.856v2.296h2.562v1.554h-2.562v2.8Z" fill="#fff"/><path d="M15.5 412.35a4.5 4.5 0 0 1 4.5-4.5h44.5v33H20a4.5 4.5 0 0 1-4.5-4.5v-24Z" stroke="#231815"/><path d="M64.5 407.85H260a4.5 4.5 0 0 1 4.5 4.5v24a4.5 4.5 0 0 1-4.5 4.5H64.5v-33Z" fill="#fff"/><path d="M76.436 427.432v-1.26h2.254v1.26h-2.254Zm8.61-1.582h-1.61a7.539 7.539 0 0 1-.35.56c.238.308.518.616.84.91.448-.434.826-.91 1.12-1.47Zm-9.002 2.492h3.08v-3.318h-.504c-.602 0-.784-.182-.784-.994v-1.876h-.49v1.036c0 .756-.14 1.764-.784 2.436-.112-.126-.336-.35-.518-.448v3.164Zm.546-6.188h-.546v2.87c.476-.56.546-1.26.546-1.848v-1.022Zm.728-2.744v1.372h.56v-1.372h-.56Zm1.806 4.788v-2.044h-.532v1.862c0 .182.014.196.126.196h.224c.112 0 .154 0 .182-.014Zm6.958.294.994.42c-.42 1.358-1.078 2.436-1.918 3.304.7.406 1.526.714 2.506.91-.322.322-.742.994-.952 1.386a8.2 8.2 0 0 1-2.8-1.288c-.826.574-1.764.994-2.8 1.302a6.528 6.528 0 0 0-.714-1.134v.938h-1.274v-.7h-3.08v.896h-1.218v-9.744h1.414v-1.372h-1.61v-1.386h5.838v1.386h-1.484v1.372h1.414v2.422c1.148-.364 1.498-.98 1.638-1.848-.588.07-.812.126-.994.196-.084-.308-.322-1.036-.504-1.428.252-.056.49-.238.77-.518.266-.266 1.134-1.232 1.68-2.212l1.596.448c-.504.742-1.148 1.484-1.75 2.114l2.324-.126a19.56 19.56 0 0 0-.658-.91l1.176-.616c.616.784 1.484 1.862 1.904 2.52l-1.274.728c-.07-.154-.182-.322-.294-.518l-.476.042v1.064c0 .322.028.434.224.434h.84c.224 0 .574-.028.784-.084.014.35.056.924.098 1.26-.196.07-.532.098-.84.098h-.938c-1.302 0-1.582-.476-1.582-1.722v-.952l-.644.056c-.154 1.47-.63 2.506-2.324 3.15-.126-.322-.476-.812-.756-1.078v5.922a8.622 8.622 0 0 0 2.352-.994 9.971 9.971 0 0 1-.616-.728 4.528 4.528 0 0 1-.63.532 7.31 7.31 0 0 0-1.036-1.05c.322-.21.616-.448.882-.742-.196-.406-.378-.84-.518-1.246l1.19-.574c.07.196.154.406.238.602a6.74 6.74 0 0 0 .616-1.498l1.428.294c-.07.252-.154.504-.252.742h1.75l.28-.07Zm13.832-.574v.588l.896-.014a9.752 9.752 0 0 0-.336-.392l.392-.182h-.952Zm-2.548-.896H98.5v-.56h-1.134v.56Zm0-1.96v.546H98.5v-.546h-1.134Zm3.738 0h-1.19v.546h1.19v-.546Zm0 1.96v-.56h-1.19v.56h1.19Zm-5.32 2.744-.084-1.19c.77 0 1.736-.014 2.8-.042v-.616h-2.436v-3.752H98.5v-.518h-2.674v-1.218H98.5v-.924h1.414v.924h2.814v1.218h-2.814v.518h2.562v3.752h-.588c.462.532.882 1.148 1.12 1.61l-1.162.574c-.07-.14-.154-.308-.266-.49-2.1.07-4.256.126-5.796.154Zm4.032 3.318v-1.54h-2.1c.434.434.826.966 1.022 1.358l-.574.364c.56.028 1.204.028 1.386.028.196-.014.266-.056.266-.21Zm-8.33-4.998v.826h.798v-.826h-.798Zm0-1.918v.826h.798v-.826h-.798Zm2.73.826v-.826h-.854v.826h.854Zm0 1.918v-.826h-.854v.826h.854Zm7.112.868v.546h1.596v1.218h-1.596v1.582c0 .714-.112 1.064-.644 1.274-.518.196-1.19.21-2.17.21-.042-.406-.238-.924-.406-1.302l-.56.35c-.224-.49-.7-1.204-1.204-1.708l.686-.406h-1.316v.812h-2.156v2.212h-1.47v-2.212h-2.254V426.9h2.254v-.84h-1.792v-5.054h1.792v-.728H90.03v-1.442h2.058v-1.33h1.47v1.33h1.988v1.442h-1.988v.728h1.862v5.054h-1.862v.84h2.156v-.574h4.102v-.546h1.512Zm13.986-1.862v.588l.896-.014a9.752 9.752 0 0 0-.336-.392l.392-.182h-.952Zm-2.548-.896h1.134v-.56h-1.134v.56Zm0-1.96v.546h1.134v-.546h-1.134Zm3.738 0h-1.19v.546h1.19v-.546Zm0 1.96v-.56h-1.19v.56h1.19Zm-5.32 2.744-.084-1.19c.77 0 1.736-.014 2.8-.042v-.616h-2.436v-3.752h2.436v-.518h-2.674v-1.218h2.674v-.924h1.414v.924h2.814v1.218h-2.814v.518h2.562v3.752h-.588c.462.532.882 1.148 1.12 1.61l-1.162.574a6.108 6.108 0 0 0-.266-.49c-2.1.07-4.256.126-5.796.154Zm4.032 3.318v-1.54h-2.1c.434.434.826.966 1.022 1.358l-.574.364c.56.028 1.204.028 1.386.028.196-.014.266-.056.266-.21Zm-8.33-4.998v.826h.798v-.826h-.798Zm0-1.918v.826h.798v-.826h-.798Zm2.73.826v-.826h-.854v.826h.854Zm0 1.918v-.826h-.854v.826h.854Zm7.112.868v.546h1.596v1.218h-1.596v1.582c0 .714-.112 1.064-.644 1.274-.518.196-1.19.21-2.17.21-.042-.406-.238-.924-.406-1.302l-.56.35c-.224-.49-.7-1.204-1.204-1.708l.686-.406h-1.316v.812h-2.156v2.212h-1.47v-2.212h-2.254V426.9h2.254v-.84h-1.792v-5.054h1.792v-.728h-2.058v-1.442h2.058v-1.33h1.47v1.33h1.988v1.442h-1.988v.728h1.862v5.054h-1.862v.84h2.156v-.574h4.102v-.546h1.512Z" fill="#231815"/><path d="M64.5 407.85H260a4.5 4.5 0 0 1 4.5 4.5v24a4.5 4.5 0 0 1-4.5 4.5H64.5v-33Z" stroke="#231815"/><path d="M15.5 456.35a4.5 4.5 0 0 1 4.5-4.5h44.5v33H20a4.5 4.5 0 0 1-4.5-4.5v-24Z" fill="#00698A"/><path d="m30.138 467.442.21 1.526c-.49.14-.994.28-1.498.406v3.346c0 .812-.154 1.204-.63 1.47-.462.252-1.134.294-2.114.294a7.24 7.24 0 0 0-.476-1.512c.546.014 1.12.014 1.302.014.21 0 .266-.07.266-.28v-2.884l-1.358.336-.434-1.582c.518-.098 1.12-.238 1.792-.406v-2.478h-1.61v-1.54h1.61v-2.66h1.652v2.66h1.372v1.54H28.85v2.072l1.288-.322Zm5.852.756h-3.402a8.001 8.001 0 0 0 1.652 2.478 7.802 7.802 0 0 0 1.75-2.478Zm1.05-1.568 1.064.448c-.532 1.946-1.428 3.472-2.604 4.648.91.644 1.988 1.106 3.234 1.414-.35.336-.826 1.008-1.064 1.442-1.358-.406-2.52-.98-3.486-1.764-1.092.756-2.324 1.316-3.682 1.722-.182-.448-.588-1.148-.896-1.512 1.232-.294 2.366-.742 3.346-1.372-.826-.938-1.484-2.044-1.988-3.332l.42-.126h-.728V466.7h2.758v-1.68h-3.01v-1.54h3.01v-2.002h1.652v2.002h3.136v1.54h-3.136v1.68h1.68l.294-.07Zm15.274 1.036h-2.128c-1.68 0-2.128-.616-2.128-2.17v-3.976h1.652v1.652h3.444v1.428H49.71v.924c0 .518.084.714.532.714h2.044c.392 0 .98-.042 1.288-.112.028.434.098 1.036.154 1.414-.294.098-.882.126-1.414.126Zm-9.044 1.498v.504c0 .532-.028 1.162-.098 1.792.63-.28 1.456-.7 2.296-1.148v-.462l-.672.658c-.35-.364-.994-.91-1.526-1.344Zm2.198-1.26H43.27v.994l.7-.602c.476.336 1.078.826 1.498 1.19v-1.582Zm1.568-1.4v6.524c0 .686-.126 1.036-.588 1.26-.448.21-1.078.238-1.932.238-.07-.392-.294-.938-.504-1.302.504.028 1.05.028 1.218.028.182 0 .238-.056.238-.238v-1.428c-.7.504-1.4.98-2.03 1.386l-.35-.98c-.154.952-.462 1.904-.994 2.632-.238-.322-.868-.924-1.162-1.12.742-1.092.798-2.632.798-3.85v-3.15h5.306Zm-2.128-3.486 1.344-.49c.588 1.008 1.33 2.38 1.666 3.22l-1.456.588c-.084-.252-.21-.546-.35-.882-3.542.35-4.116.434-4.522.602a17.634 17.634 0 0 0-.518-1.498c.252-.056.49-.252.77-.56.28-.308 1.134-1.386 1.652-2.492l1.68.476c-.476.812-1.106 1.624-1.722 2.324l2.044-.154c-.21-.406-.406-.798-.588-1.134Zm5.446 9.996h1.596c.476 0 .574-.238.644-1.526.336.252 1.008.504 1.442.602-.168 1.834-.602 2.38-1.932 2.38h-1.988c-1.652 0-2.058-.49-2.058-2.016v-4.396h1.652v1.4h3.542v1.47H49.71v1.526c0 .49.098.56.644.56Z" fill="#fff"/><path d="M15.5 456.35a4.5 4.5 0 0 1 4.5-4.5h44.5v33H20a4.5 4.5 0 0 1-4.5-4.5v-24Z" stroke="#231815"/><path d="M64.5 451.85H260a4.5 4.5 0 0 1 4.5 4.5v24a4.5 4.5 0 0 1-4.5 4.5H64.5v-33Z" fill="#fff"/><path d="M76.436 471.432v-1.26h2.254v1.26h-2.254Zm8.61-1.582h-1.61a7.539 7.539 0 0 1-.35.56c.238.308.518.616.84.91.448-.434.826-.91 1.12-1.47Zm-9.002 2.492h3.08v-3.318h-.504c-.602 0-.784-.182-.784-.994v-1.876h-.49v1.036c0 .756-.14 1.764-.784 2.436-.112-.126-.336-.35-.518-.448v3.164Zm.546-6.188h-.546v2.87c.476-.56.546-1.26.546-1.848v-1.022Zm.728-2.744v1.372h.56v-1.372h-.56Zm1.806 4.788v-2.044h-.532v1.862c0 .182.014.196.126.196h.224c.112 0 .154 0 .182-.014Zm6.958.294.994.42c-.42 1.358-1.078 2.436-1.918 3.304.7.406 1.526.714 2.506.91-.322.322-.742.994-.952 1.386a8.2 8.2 0 0 1-2.8-1.288c-.826.574-1.764.994-2.8 1.302a6.528 6.528 0 0 0-.714-1.134v.938h-1.274v-.7h-3.08v.896h-1.218v-9.744h1.414v-1.372h-1.61v-1.386h5.838v1.386h-1.484v1.372h1.414v2.422c1.148-.364 1.498-.98 1.638-1.848-.588.07-.812.126-.994.196-.084-.308-.322-1.036-.504-1.428.252-.056.49-.238.77-.518.266-.266 1.134-1.232 1.68-2.212l1.596.448c-.504.742-1.148 1.484-1.75 2.114l2.324-.126a19.56 19.56 0 0 0-.658-.91l1.176-.616c.616.784 1.484 1.862 1.904 2.52l-1.274.728c-.07-.154-.182-.322-.294-.518l-.476.042v1.064c0 .322.028.434.224.434h.84c.224 0 .574-.028.784-.084.014.35.056.924.098 1.26-.196.07-.532.098-.84.098h-.938c-1.302 0-1.582-.476-1.582-1.722v-.952l-.644.056c-.154 1.47-.63 2.506-2.324 3.15-.126-.322-.476-.812-.756-1.078v5.922a8.622 8.622 0 0 0 2.352-.994 9.971 9.971 0 0 1-.616-.728 4.528 4.528 0 0 1-.63.532 7.31 7.31 0 0 0-1.036-1.05c.322-.21.616-.448.882-.742-.196-.406-.378-.84-.518-1.246l1.19-.574c.07.196.154.406.238.602a6.74 6.74 0 0 0 .616-1.498l1.428.294c-.07.252-.154.504-.252.742h1.75l.28-.07Zm7.028-.238h3.29a14.35 14.35 0 0 1-.21-1.582h-3.08v1.582Zm6.748-4.592H93.11v1.47h6.748v-1.47Zm2.688 6.146h-4.004c.616 1.736 1.526 2.94 2.296 2.94.35 0 .49-.588.574-1.974.378.336.98.644 1.442.784-.238 2.324-.84 2.842-2.1 2.842-1.75 0-3.22-1.932-3.99-4.592H93.11v2.618l3.332-.7c.014.476.098 1.204.182 1.582-4.116.952-4.802 1.092-5.236 1.33-.112-.42-.49-1.148-.742-1.47.308-.196.714-.588.714-1.204v-9.842h10.192v4.55h-3.654c.042.546.126 1.064.224 1.582h4.424v1.554Zm7.028-4.27h4.69a16.095 16.095 0 0 1-2.422-1.82c-.672.7-1.442 1.288-2.268 1.82Zm5.152 4.48h-2.044v2.73h1.75l-.938-.392c.434-.63.952-1.61 1.232-2.338Zm-3.836 0h-2.114c.49.686 1.022 1.61 1.218 2.226l-1.148.504h2.044v-2.73Zm4.606-2.954h-2.814v1.456h4.466v1.498h-2.212l1.4.504a44.177 44.177 0 0 1-1.47 2.226h3.01v1.526h-12.11v-1.526h2.758c-.224-.644-.7-1.568-1.162-2.268l1.106-.462h-2.03v-1.498h4.452v-1.456h-2.842v-.686c-.588.28-1.19.532-1.806.756-.224-.49-.686-1.12-1.106-1.54 2.632-.756 5.152-2.17 6.482-4.256l1.582.714c-.126.182-.252.364-.392.56 1.372 1.232 3.64 2.394 5.74 2.982a8.08 8.08 0 0 0-1.148 1.456 18.496 18.496 0 0 1-1.904-.812v.826Zm6.874-2.058h2.632a13.782 13.782 0 0 0-1.68-1.33c-.294.476-.616.91-.952 1.33Zm1.582 7.084 1.582-.308.084 1.316c-1.596.392-3.276.756-4.536 1.064l-.294-1.498c.532-.084 1.19-.21 1.904-.35v-3.486h-1.722v-1.414h1.722v-1.022h-.98v-.616c-.21.21-.406.406-.616.588a15.945 15.945 0 0 0-.546-1.708c.952-.756 1.988-1.974 2.576-3.248l1.12.56c-.07.168-.154.336-.238.504.784.504 1.568 1.092 2.03 1.568l-.63 1.372c-.098-.098-.196-.21-.308-.322v1.302h-1.148v1.022h1.568v1.414h-1.568v3.262Zm-2.884-2.464.938-.294c.21.77.406 1.764.476 2.394l-.98.322c-.056-.658-.252-1.666-.434-2.422Zm3.864 2.24-.868-.308c.168-.63.364-1.638.448-2.352l1.092.322c-.252.826-.49 1.75-.672 2.338Zm2.954-2.702v.616h1.19v-.616h-1.19Zm0-1.512v.602h1.19v-.602h-1.19Zm3.808.602v-.602h-1.232v.602h1.232Zm0 1.526v-.616h-1.232v.616h1.232Zm-1.134 2.66v.616h3.22v1.176h-7.994v-1.176h3.206v-.616h-2.688v-1.148h2.688v-.532h-2.506v-4.088h6.678v4.088h-2.604v.532h2.758v1.148h-2.758Zm.336-8.54h-2.254c.168.35.322.784.378 1.078h1.526c.14-.364.28-.742.35-1.078Zm1.162 1.078h1.778v1.26h-8.008v-1.26h1.708a6.356 6.356 0 0 0-.322-.91l.882-.168h-1.946v-1.246h2.87a3.976 3.976 0 0 0-.392-.854l1.54-.364c.266.364.49.84.588 1.218h2.702v1.246h-1.988l1.036.182c-.154.322-.308.616-.448.896Zm7.168 4.956v.532h6.65v-.532h-6.65Zm0-1.554v.532h6.65v-.532h-6.65Zm1.008-4.354v-.896h-1.568v.896h1.568Zm1.526-.896v.896h1.582v-.896h-1.582Zm3.108 0v.896h1.638v-.896h-1.638Zm4.032 8.96.014 1.274h-5.488v1.19h-1.694v-1.19h-5.418v-1.274h5.418v-.546h-4.116v-4.242h3.948v-2.086h-4.494v-3.262h11.102v3.262h-4.928v.476h4.872v1.106h-4.872v.504h4.326v4.242h-4.144v.546h5.474Z" fill="#231815"/><path d="M64.5 451.85H260a4.5 4.5 0 0 1 4.5 4.5v24a4.5 4.5 0 0 1-4.5 4.5H64.5v-33Z" stroke="#231815"/><rect x=".5" y=".5" width="279" height="504.35" rx="4.5" stroke="#231815"/><defs><clipPath id="clip0_799_41176"><path fill="#fff" transform="translate(79.27)" d="M0 0h121.46v30.99H0z"/></clipPath><clipPath id="clip1_799_41176"><path fill="#fff" transform="translate(49 114.99)" d="M0 0h181.834v180H0z"/></clipPath><clipPath id="clip2_799_41176"><path fill="#fff" transform="translate(63.635 334.99)" d="M0 0h18.56v18.36H0z"/></clipPath><clipPath id="clip3_799_41176"><path fill="#fff" transform="translate(84.194 334.99)" d="M0 0h18.56v18.36H0z"/></clipPath><clipPath id="clip4_799_41176"><path fill="#fff" transform="translate(104.755 334.99)" d="M0 0h18.56v18.36H0z"/></clipPath><clipPath id="clip5_799_41176"><path fill="#fff" transform="translate(207.314 334.99)" d="M0 0h17.35v16.5H0z"/></clipPath><clipPath id="clip6_799_41176"><path fill="#fff" transform="translate(226.664 334.99)" d="M0 0h17.35v16.5H0z"/></clipPath><clipPath id="clip7_799_41176"><path fill="#fff" transform="translate(246.015 334.99)" d="M0 0h17.35v16.5H0z"/></clipPath></defs></svg>