<svg fill="none" xmlns="http://www.w3.org/2000/svg" viewBox="0 0 280 506"><rect x=".5" y=".5" width="279" height="504.35" rx="4.5" fill="#74D194"/><g clip-path="url(#clip0_799_41177)" stroke="#231815" stroke-miterlimit="10"><path d="M84.32 27.21c.34 1.64 1.95 2.83 3.83 2.84l103.68.44c1.88 0 3.5-1.17 3.85-2.81l4.41-20.48c.67-3.11-1.07-6.21-3.48-6.22L83.06.5C80.7.49 79.29 2.97 79.92 6l4.4 21.2v.01Z" fill="#00698A"/><path d="M116.48 17.4c.14 1.03.82 1.78 1.61 1.79l43.77.23c.79 0 1.48-.74 1.63-1.77l1.87-12.91c.28-1.96-.45-3.91-1.47-3.92L115.95.57c-.99 0-1.59 1.56-1.33 3.47l1.85 13.36h.01Z" fill="#FFE177"/><path d="M185.67 10.21c0-1.42 1.16-2.56 2.58-2.55 1.42 0 2.56 1.16 2.55 2.58 0 1.42-1.16 2.56-2.57 2.55-1.42 0-2.56-1.16-2.55-2.58h-.01Zm-10.74-.02c0-1.42 1.16-2.56 2.58-2.55 1.42 0 2.56 1.16 2.55 2.58 0 1.42-1.16 2.56-2.58 2.55-1.42 0-2.56-1.16-2.55-2.58Zm-80.59-.28c0-1.42-1.15-2.57-2.56-2.57-1.42 0-2.57 1.15-2.57 2.56 0 1.42 1.15 2.57 2.56 2.57 1.42 0 2.57-1.15 2.57-2.56Zm10.73.02c0-1.42-1.15-2.57-2.56-2.57-1.42 0-2.57 1.15-2.57 2.56 0 1.42 1.15 2.57 2.56 2.57 1.42 0 2.57-1.15 2.57-2.56Z" fill="#E2CCAF"/></g><path d="M105.872 59.038v-2.592h3.576v2.592h-3.576Zm6.792-1.128v3.504a14.9 14.9 0 0 0 3.528-1.44c-.192-.24-.384-.456-.576-.696-.288.264-.576.504-.888.744-.408-.552-1.44-1.584-2.064-2.112Zm-7.344 2.16h4.728v-5.256h-.648c-1.104 0-1.416-.384-1.416-1.92V49.99h-.528v1.752c0 1.248-.168 2.88-1.08 3.984-.216-.24-.72-.672-1.056-.912v5.256Zm.648-10.08h-.648v4.56c.6-.888.648-1.944.648-2.832V49.99Zm1.416-4.8v1.944h.72V45.19h-.72Zm2.088 4.8v2.88c0 .312.024.336.144.336h.144c.192 0 .24-.024.288-.048V49.99h-.576Zm3.6 4.392 2.52-1.08c.072.216.144.456.24.672.288-.6.504-1.224.672-1.896-.576.6-1.392 1.128-2.496 1.536-.24-.6-.816-1.464-1.344-2.04v6.192c.48-.312.912-.672 1.32-1.104a16.726 16.726 0 0 1-.912-2.28Zm7.056 1.8h-2.112c-.144.264-.312.528-.48.792.336.384.696.792 1.08 1.152.6-.6 1.104-1.248 1.512-1.944Zm2.16-2.784 2.136.84c-.696 2.328-1.776 4.2-3.192 5.712 1.128.576 2.472 1.032 4.008 1.32-.648.648-1.536 2.04-1.944 2.904-1.824-.48-3.384-1.176-4.68-2.064-1.344.864-2.904 1.56-4.584 2.088a16.48 16.48 0 0 0-1.368-2.232v1.92h-2.616v-1.152h-4.728v1.488h-2.496V47.134h2.352V45.19h-2.616v-2.856h10.176v2.856h-2.376v1.944h2.304v3.984c1.704-.576 2.208-1.464 2.4-2.664-.672.096-1.032.168-1.32.288-.168-.624-.672-2.112-1.032-2.928.456-.12.864-.432 1.32-.888.456-.432 1.824-2.016 2.664-3.672l3.336.912c-.768 1.152-1.752 2.328-2.712 3.336l3.048-.144-.96-1.416 2.472-1.248c1.008 1.392 2.448 3.312 3.144 4.488l-2.64 1.464c-.12-.24-.264-.48-.408-.768l-.24.024v1.44c0 .504.048.72.36.72h1.2c.408 0 1.032-.048 1.392-.168.048.744.12 1.92.216 2.616-.384.144-.984.192-1.536.192h-1.392c-2.616 0-3.168-.936-3.168-3.384v-1.224l-.744.072c-.168 1.536-.528 2.832-1.488 3.84l2.928.576-.288.936h2.52l.552-.12Zm24.072-.696v.744l.984-.024c-.12-.168-.24-.336-.36-.48l.552-.24h-1.176Zm-4.368-1.8h1.416v-.648h-1.416v.648Zm0-2.976v.624h1.416v-.624h-1.416Zm5.784 0h-1.416v.624h1.416v-.624Zm0 2.976v-.648h-1.416v.648h1.416Zm-8.832 5.088-.192-2.424c1.296 0 2.904-.024 4.656-.072v-.792h-4.104v-6.576h4.104v-.624h-4.416v-2.52h4.416V41.47h2.952v1.512h4.632v2.52h-4.632v.624h4.248v6.576h-.696c.648.888 1.248 1.896 1.584 2.64l-2.424 1.176c-.096-.24-.216-.528-.36-.816-3.528.144-7.128.216-9.768.288Zm6.6 5.28v-2.04h-2.688c.552.648 1.032 1.368 1.296 1.944l-.696.432c.696.024 1.416.024 1.632.024.336-.024.456-.096.456-.36Zm-13.824-8.112v.984h.912v-.984h-.912Zm0-3.192v.96h.912v-.96h-.912Zm4.104.96v-.96h-.984v.96h.984Zm0 3.216v-.984h-.984v.984h.984Zm12.912 1.8v.768h2.616v2.52h-2.616v2.136c0 1.416-.264 2.136-1.272 2.568-1.008.408-2.28.432-3.96.432-.096-.72-.408-1.608-.696-2.352l-1.128.696c-.336-.84-1.128-2.088-1.944-2.952l.912-.528H138.8v1.44h-3.528v3.576H132.2V60.67h-3.672v-3.024h3.672v-1.128h-2.88V47.59h2.88v-1.008h-3.312v-2.976h3.312v-2.112h3.072v2.112h3.24v2.976h-3.24v1.008h3.048v8.928h-3.048v1.128h3.528v-.936h6.744v-.768h3.192Zm24.024-3.24v.744l.984-.024c-.12-.168-.24-.336-.36-.48l.552-.24h-1.176Zm-4.368-1.8h1.416v-.648h-1.416v.648Zm0-2.976v.624h1.416v-.624h-1.416Zm5.784 0h-1.416v.624h1.416v-.624Zm0 2.976v-.648h-1.416v.648h1.416Zm-8.832 5.088-.192-2.424c1.296 0 2.904-.024 4.656-.072v-.792h-4.104v-6.576h4.104v-.624h-4.416v-2.52h4.416V41.47h2.952v1.512h4.632v2.52h-4.632v.624h4.248v6.576h-.696c.648.888 1.248 1.896 1.584 2.64l-2.424 1.176c-.096-.24-.216-.528-.36-.816-3.528.144-7.128.216-9.768.288Zm6.6 5.28v-2.04h-2.688c.552.648 1.032 1.368 1.296 1.944l-.696.432c.696.024 1.416.024 1.632.024.336-.024.456-.096.456-.36Zm-13.824-8.112v.984h.912v-.984h-.912Zm0-3.192v.96h.912v-.96h-.912Zm4.104.96v-.96h-.984v.96h.984Zm0 3.216v-.984h-.984v.984h.984Zm12.912 1.8v.768h2.616v2.52h-2.616v2.136c0 1.416-.264 2.136-1.272 2.568-1.008.408-2.28.432-3.96.432-.096-.72-.408-1.608-.696-2.352l-1.128.696c-.336-.84-1.128-2.088-1.944-2.952l.912-.528H165.2v1.44h-3.528v3.576H158.6V60.67h-3.672v-3.024h3.672v-1.128h-2.88V47.59h2.88v-1.008h-3.312v-2.976h3.312v-2.112h3.072v2.112h3.24v2.976h-3.24v1.008h3.048v8.928h-3.048v1.128h3.528v-.936h6.744v-.768h3.192Z" fill="#231815"/><path d="M15.5 199.99c0-68.759 55.74-124.5 124.5-124.5 68.759 0 124.5 55.741 124.5 124.5v120a4.5 4.5 0 0 1-4.5 4.5H20a4.5 4.5 0 0 1-4.5-4.5v-120Z" fill="#fff" stroke="#231815"/><path d="m149.414 171.429 8.763-5.719c.128-.083.061-.278-.088-.273l-5.134.201 10.76-10.382c.122-.117-.011-.312-.16-.239l-14.274 6.537 2.108-4.607c.061-.133-.094-.267-.216-.183l-10.191 6.904 4.664-.111-.476 3.243 5.206-.45-.968 5.085.006-.006Z" fill="url(#paint0_linear_799_41177)"/><path d="m194.471 228.885 7.088-4.891c.16-.111.077-.361-.117-.35l-4.138.206 7.635-6.855c.155-.139.005-.4-.194-.328l-9.61 3.427 2.169-3.327a.194.194 0 0 0-.21-.295l-6.805 2.02 3.131 1.491-2.163 3.839 3.889.924-.664 4.139h-.011Z" fill="url(#paint1_linear_799_41177)"/><path d="m189.747 189.55 7.635-6.765c.155-.139.033-.401-.172-.368l-4.548.746 9.611-8.551c.177-.156 0-.44-.216-.356l-13.002 4.996 3.176-4.841c.111-.172-.061-.389-.255-.311l-10.816 4.456 6.053 1.653-2.103 4.473h5.234l-.597 4.862v.006Z" fill="url(#paint2_linear_799_41177)"/><path d="m121.474 180.988 21.24-7.645c1.25-.45 2.65.089 3.264 1.28.847 1.641 2.141 3.772 3.48 4.607 2.302 1.424 14.999-5.052 17.893-2.855 2.893 2.198-.587 6.12.885 7.962 1.477 1.836 12.758-1.547 15.475 1.836 2.716 3.388-2.125 10.159-1.123 12.412 1.006 2.259 9.864 2.677 10.456 5.82.587 3.149-.708 5.642-9.804 18.293-2.777 4.156 4.548 3.567 4.664 6.654.117 3.088-22.927 30.183-53.412 35.29-30.484 5.108-48.09-8.757-56.073-24.452-7.983-15.689-1.422-37.081 27.448-53.806 4.199-9.474 8.503-18.593 10.324-22.415.298-.629 1.211-.523 1.366.155l3.917 16.864Z" fill="#74D194"/><path d="M102.569 193.968a506.801 506.801 0 0 1 3.297-7.584c4.2-9.474 8.504-18.593 10.324-22.415.299-.629 1.212-.523 1.367.155l3.917 16.864 2.672 11.505" stroke="#231815" stroke-miterlimit="10"/><path d="M105.867 186.384c-28.87 16.725-35.431 38.117-27.448 53.806 7.984 15.695 25.589 29.56 56.073 24.452 30.485-5.107 53.529-32.202 53.412-35.29-.116-3.088-7.441-2.498-4.664-6.654 9.096-12.652 10.391-15.144 9.804-18.293-.592-3.144-9.45-3.561-10.456-5.82-1.002-2.253 3.839-9.024 1.123-12.412-2.717-3.383-13.998 0-15.475-1.836-1.472-1.842 2.008-5.764-.885-7.962-2.894-2.197-15.591 4.279-17.893 2.854-1.339-.834-2.633-2.965-3.48-4.606a2.657 2.657 0 0 0-3.264-1.28l-21.24 7.645" stroke="#231815" stroke-miterlimit="10"/><path d="M124.877 221.869c-2.556 0-4.637-2.092-4.637-4.662 0-2.571 2.081-4.663 4.637-4.663 2.556 0 4.63 2.092 4.63 4.663 0 2.57-2.08 4.662-4.63 4.662Z" fill="#333434"/><path d="M124.877 212.828c2.406 0 4.354 1.964 4.354 4.379 0 2.415-1.953 4.378-4.354 4.378s-4.354-1.963-4.354-4.378 1.953-4.379 4.354-4.379Zm0-.556c-2.706 0-4.908 2.214-4.908 4.935 0 2.721 2.202 4.935 4.908 4.935 2.705 0 4.907-2.214 4.907-4.935 0-2.721-2.202-4.935-4.907-4.935Z" fill="#231815"/><path d="M95.609 221.869c-2.556 0-4.631-2.092-4.631-4.662 0-2.571 2.08-4.663 4.63-4.663 2.551 0 4.637 2.092 4.637 4.663 0 2.57-2.08 4.662-4.636 4.662Z" fill="#333434"/><path d="M95.61 212.828c2.406 0 4.353 1.964 4.353 4.379 0 2.415-1.953 4.378-4.354 4.378s-4.354-1.963-4.354-4.378 1.953-4.379 4.354-4.379Zm0-.556c-2.706 0-4.908 2.214-4.908 4.935 0 2.721 2.202 4.935 4.907 4.935 2.706 0 4.908-2.214 4.908-4.935 0-2.721-2.203-4.935-4.908-4.935Zm-69.063 132.25h-5.824v.644h5.824v-.644Zm-5.824 2.38h5.824v-.644h-5.824v.644Zm0 1.778h5.824v-.672h-5.824v.672Zm-1.61 1.68v-7.014h9.1v6.944h-1.666v-.406h-5.824v.476h-1.61Zm7.672-10.584v1.092H20.47v-1.092h6.314Zm-.014 2.842h-6.286v-1.106h6.286v1.106Zm-8.596-4.662h10.892v5.012h-1.68v-3.836h-7.602v3.85h-1.61v-5.026Zm21.28 2.492h2.996a14.213 14.213 0 0 1-1.652-1.26c-.42.448-.868.868-1.344 1.26Zm-.588 1.246v-.812c-.434.308-.91.602-1.386.854-.21-.294-.686-.798-1.022-1.092-.154.518-.28 1.022-.42 1.456.714 1.078.854 2.086.854 2.884 0 .924-.154 1.526-.56 1.848-.196.168-.448.266-.742.308-.224.042-.532.042-.812.042-.014-.406-.126-1.022-.336-1.442.21.028.364.028.518.014a.454.454 0 0 0 .322-.112c.154-.126.21-.434.21-.854 0-.644-.112-1.568-.784-2.534.224-.84.476-1.988.672-2.912h-1.022v11.004h-1.386v-12.488h2.842l.224-.056 1.036.602c-.182.658-.392 1.4-.588 2.128 1.596-.826 3.066-2.128 3.85-3.402l1.596.56c-.084.14-.168.294-.266.434 1.036.84 2.562 1.666 3.934 2.114a7.609 7.609 0 0 0-.63 1.582 16.88 16.88 0 0 1-1.988-1.036v.91h-4.116Zm3.57 1.82v1.288h.98v-1.288h-.98Zm-1.204 2.394v-3.514h3.472v3.514h-3.472Zm-2.814-2.394v1.288h.938v-1.288h-.938Zm-1.19 2.394v-3.514h3.374v3.514h-3.374Zm1.092.154 1.456.308c-.084.28-.196.56-.308.826.49.322 1.036.714 1.33 1.008l-.84 1.106c-.238-.28-.672-.644-1.106-.966a7.132 7.132 0 0 1-2.002 2.086c-.224-.28-.756-.826-1.078-1.05 1.232-.728 2.128-1.904 2.548-3.318Zm3.864-.014 1.498.21a7.54 7.54 0 0 1-.322 1.134c.784.546 1.694 1.204 2.17 1.68l-.98 1.12c-.392-.42-1.078-.994-1.778-1.512-.42.7-.938 1.288-1.554 1.736-.21-.28-.742-.84-1.064-1.05 1.092-.714 1.764-1.89 2.03-3.318Zm12.39-5.824h5.67s-.014.574-.042.798c-.28 5.572-.56 7.672-1.176 8.4-.42.546-.826.7-1.428.784-.518.07-1.386.07-2.24.028-.028-.504-.252-1.246-.574-1.722.882.07 1.708.07 2.072.07.294 0 .462-.042.658-.224.42-.434.7-2.268.924-6.426h-3.92c-.224 2.898-1.204 6.3-5.138 8.526-.266-.42-.896-1.05-1.302-1.358 3.472-1.89 4.41-4.718 4.648-7.168h-4.214v-1.708h4.284v-2.884h1.778v2.884Z" fill="#231815"/><g clip-path="url(#clip1_799_41177)"><path d="M72.784 335.49c.85 0 2.2 2.79 2.91 3.15.49.25 2.39-.54 2.78-.16.39.38-.17 2.53.08 3.05.35.7 3.14 1.8 3.14 2.64 0 .87-2.86 2.13-3.23 2.85-.26.5.42 2.5.02 2.89-.4.39-2.52-.26-3.05-.01-.68.32-1.77 2.94-2.57 2.94-.8 0-2.04-2.63-2.73-2.96-.52-.25-2.53.46-2.93.07-.4-.39.31-2.39.05-2.9-.36-.71-3.11-1.95-3.11-2.8 0-.85 2.65-1.98 2.98-2.66.26-.53-.42-2.61-.01-3.02.41-.41 2.36.3 2.86.04.71-.36 1.675-3.11 2.525-3.11l.285-.01Z" fill="#00698A" stroke="#231815" stroke-miterlimit="10"/></g><path d="m165.733 346.322 1.484.504c-.574.784-1.4 1.764-2.058 2.338-.28-.266-.896-.714-1.26-.938a9.44 9.44 0 0 0 1.834-1.904Zm4.676.672 1.204-.7c.63.644 1.526 1.554 1.988 2.128l-1.288.784c-.42-.56-1.26-1.526-1.904-2.212Zm.392-3.206v-.518h-3.598v.518h3.598Zm0 1.456v-.532h-3.598v.532h3.598Zm-6.552-6.342v3.108c0 .378-.014.784-.028 1.204a7.623 7.623 0 0 0 1.204-.728c-.266-.224-.56-.462-.826-.644l.84-.742c.266.168.588.392.868.602.21-.21.406-.434.574-.672h-2.142v-1.246h2.884c.112-.294.224-.588.308-.882h-3.682Zm5.292 2.128h-.938c-.266.434-.56.854-.91 1.26h2.702a7.67 7.67 0 0 1-.854-1.26Zm3.08 0h-1.568c.21.28.462.546.742.798.294-.266.616-.574.826-.798Zm.07 0 .91.672c-.294.28-.63.56-.952.798.42.266.868.504 1.33.658a4.81 4.81 0 0 0-.966 1.176 6.639 6.639 0 0 1-.756-.406v2.296h-2.45v1.792c0 .686-.126 1.022-.644 1.246-.476.21-1.106.21-1.946.21-.098-.42-.336-.966-.518-1.33.518.014 1.092.014 1.274.014.168 0 .224-.056.224-.196v-1.736h-2.38v-2.31c-.266.182-.546.35-.84.504a3.555 3.555 0 0 0-.77-.91c-.14 2.03-.63 4.396-2.044 5.95-.21-.308-.84-.91-1.148-1.106.924-1.022 1.344-2.324 1.54-3.626-.504.308-.994.602-1.484.868l-.462-1.498c.546-.224 1.302-.602 2.1-1.008.014-.364.014-.728.014-1.078v-.476l-1.232.56c-.14-.714-.476-1.918-.77-2.814l1.232-.49c.266.784.588 1.792.77 2.478v-3.766h4.648l-.28-.84 1.694-.336c.14.364.28.784.406 1.176h4.578v1.4h-5.264l.98.126c-.084.266-.182.504-.28.756h4.438v1.246h-.952Zm7.728 8.162-1.26-.7c.49-.504.952-1.316 1.204-2.002l1.246.546c-.294.714-.686 1.596-1.19 2.156Zm4.368-4.522v-2.716h1.176v2.716h-1.176Zm3.346-2.856v3.136c0 .588-.084.854-.49 1.036-.392.182-.91.182-1.638.182-.056-.336-.238-.77-.406-1.078.448.014.882.014 1.036 0 .14-.014.182-.042.182-.168v-3.108h1.316Zm-4.746 4.606 1.05-.658c.434.364 1.05.924 1.344 1.288l-1.078.728c-.28-.392-.854-.952-1.316-1.358Zm-1.764-2.24h1.4v-.392h-1.386c0 .126 0 .266-.014.392Zm1.4-1.442h-1.386v.35h1.386v-.35Zm1.19-.812v3.234c0 .476-.084.658-.406.798-.28.14-.728.14-1.316.14-.028-.266-.168-.574-.28-.812.28.014.574.014.672.014.098 0 .14-.028.14-.14v-.28h-1.484c-.112.504-.322.966-.742 1.33-.196-.224-.714-.63-.98-.784.602-.462.644-1.078.644-1.68v-1.82h3.752Zm-.476 6.272h1.54c.364 0 .448-.112.49-.84.266.182.798.336 1.148.406-.14 1.19-.49 1.498-1.498 1.498h-1.862c-1.414 0-1.75-.322-1.75-1.4v-1.33h1.358v1.316c0 .322.084.35.574.35Zm2.674-1.26 1.19-.532c.518.658 1.134 1.554 1.414 2.156l-1.26.588c-.238-.574-.826-1.526-1.344-2.212Zm-3.024-6.272h2.142a18.048 18.048 0 0 1-1.148-.588c-.322.21-.644.406-.994.588Zm-3.64-1.708v1.694c1.47-.364 3.108-.938 4.158-1.694h-4.158Zm5.698.28-.14.14a17.324 17.324 0 0 0 3.962 1.19c-.308.28-.686.742-.868 1.134a20.442 20.442 0 0 1-2.212-.742v.602h-3.668v-.476c-.686.28-1.4.546-2.086.742a4.917 4.917 0 0 0-.686-.924v1.162c0 2.226-.294 5.488-2.086 7.434-.21-.308-.84-.896-1.148-1.092.924-1.022 1.344-2.338 1.54-3.654-.504.308-.994.616-1.484.896l-.462-1.498c.546-.238 1.302-.616 2.1-1.008.014-.378.014-.742.014-1.078v-.49l-1.232.574c-.07-.742-.392-1.918-.756-2.814l1.19-.504c.35.784.672 1.764.798 2.45v-3.724h4.83a11.057 11.057 0 0 0-.294-.952l1.68-.322c.154.392.322.854.448 1.274h4.242v1.4h-4.256l.574.28Zm12.81.056h5.67s-.014.574-.042.798c-.28 5.572-.56 7.672-1.176 8.4-.42.546-.826.7-1.428.784-.518.07-1.386.07-2.24.028-.028-.504-.252-1.246-.574-1.722.882.07 1.708.07 2.072.07.294 0 .462-.042.658-.224.42-.434.7-2.268.924-6.426h-3.92c-.224 2.898-1.204 6.3-5.138 8.526-.266-.42-.896-1.05-1.302-1.358 3.472-1.89 4.41-4.718 4.648-7.168h-4.214v-1.708h4.284v-2.884h1.778v2.884Z" fill="#231815"/><path d="M15.5 368.35a4.5 4.5 0 0 1 4.5-4.5h44.5v33H20a4.5 4.5 0 0 1-4.5-4.5v-24Z" fill="#00698A"/><path d="M33.778 377.916v-.798H31.86v.798h1.918Zm0 2.212v-.868H31.86v.868h1.918Zm0 2.226v-.882H31.86v.882h1.918Zm-3.528 1.988v-5.81c-.238.28-.476.518-.714.756-.154-.336-.616-1.162-.896-1.526 1.12-1.008 2.128-2.604 2.688-4.242l1.512.42c-.21.602-.476 1.19-.756 1.778h2.086a13.32 13.32 0 0 0-.658-1.512l1.568-.448c.35.602.714 1.372.896 1.96h2.212v1.4H35.36v.798h2.254v1.344H35.36v.868h2.198v1.344H35.36v.882h2.982v1.4H31.86v.588h-1.61Zm-1.68-8.526-1.526.532c-.154-.63-.518-1.652-.756-2.408l1.47-.448c.266.756.616 1.694.812 2.324Zm.126 3.962.714.252c-.252 1.274-.63 2.59-1.106 3.64.224.14.49.336.868.56.952.574 2.268.658 3.906.658 1.61 0 4.116-.14 5.656-.364-.182.448-.462 1.26-.476 1.708-1.162.07-3.626.168-5.264.168-1.862 0-3.038-.154-4.046-.742-.588-.322-1.078-.784-1.372-.784-.322 0-.812.952-1.162 1.75l-1.106-1.582c.476-.588.994-1.05 1.47-1.33.308-.7.588-1.582.798-2.436h-1.764c.322-.826.7-1.946 1.008-3.038h-1.26v-1.484h3.276c-.294.98-.63 2.1-.952 3.08h.56l.252-.056Zm15.652-6.23 1.554.518a21.66 21.66 0 0 1-1.358 2.66v9.842h-1.582v-7.546c-.448.56-.882 1.05-1.344 1.484-.154-.406-.616-1.316-.882-1.736 1.428-1.232 2.814-3.22 3.612-5.222Zm5.026 11.228h2.044c.714 0 .826-.588.952-2.898.378.294 1.036.616 1.47.7-.182 2.702-.602 3.668-2.296 3.668h-2.338c-1.722 0-2.212-.56-2.212-2.464v-10.024h1.61v3.556h4.872v1.596h-4.872v4.9c0 .826.098.966.77.966Z" fill="#fff"/><path d="M15.5 368.35a4.5 4.5 0 0 1 4.5-4.5h44.5v33H20a4.5 4.5 0 0 1-4.5-4.5v-24Z" stroke="#231815"/><path d="M64.5 363.85H260a4.5 4.5 0 0 1 4.5 4.5v24a4.5 4.5 0 0 1-4.5 4.5H64.5v-33Z" fill="#fff"/><path d="M77.192 377.104v1.974h2.954v-1.974h-2.954Zm7.602 0h-2.912v1.974h2.912v-1.974Zm1.722 3.57h-4.648c-.098 1.12-.378 2.156-1.05 3.066 1.722.742 3.962.924 6.874.966-.336.406-.658 1.148-.77 1.736-3.038-.154-5.474-.49-7.364-1.47-.952.672-2.268 1.232-4.088 1.638-.196-.392-.644-1.106-1.008-1.484 1.61-.294 2.772-.686 3.612-1.162a8.095 8.095 0 0 1-1.932-2.59l1.526-.546a6.712 6.712 0 0 0 1.694 2.058c.49-.672.686-1.4.756-2.212h-4.55v-5.166h4.578v-1.946h1.736v1.946h4.634v5.166Zm12.082-3.976v-.882h-1.946v-1.47h1.946v-.854h1.652v.854h2.366v1.47h-2.366v.882h-1.652Zm-5.964 0v-.882H90.17v-1.47h2.464v-.854h1.638v.854h1.904v1.47h-1.904v.882h-1.638Zm-.392 2.156 1.498.266a8.652 8.652 0 0 1-.294.91c.518.49 1.162 1.12 1.484 1.54l-1.204.798c-.182-.28-.518-.672-.882-1.064a6.779 6.779 0 0 1-1.4 1.652c-.28-.252-.91-.728-1.26-.91 1.036-.728 1.75-1.862 2.058-3.192Zm10.29 3.01-1.176.966c-.322-.392-.868-.938-1.442-1.47a5.044 5.044 0 0 1-.742 1.036c-.294-.168-.91-.434-1.316-.588 1.218 1.428 3.038 2.548 5.166 3.094-.378.322-.868 1.008-1.092 1.456-1.904-.63-3.5-1.722-4.718-3.164v3.374H95.56v-3.416a10.744 10.744 0 0 1-4.648 3.262c-.252-.42-.742-1.078-1.12-1.428 2.52-.742 4.662-2.38 5.768-4.326v-1.904h-5.292V377.3h5.292v-.966h1.652v.966h5.334v1.456h-5.334v2.142c.168.28.35.546.56.798.728-.686 1.218-1.722 1.442-2.842l1.54.238c-.056.322-.14.63-.238.924.686.588 1.568 1.33 2.016 1.848Zm6.132-4.074-1.162.084a68.346 68.346 0 0 1-.56 2.912c.322.322.672.658 1.022.994.532-1.386.672-2.8.7-3.99Zm1.988-.14-.602.042c-.042 1.512-.224 3.374-1.008 5.166.518.546.98 1.064 1.302 1.47l-.98 1.274c-.266-.392-.644-.854-1.064-1.358a9.62 9.62 0 0 1-2.03 2.212c-.21-.308-.7-.798-1.036-1.022.896-.7 1.568-1.47 2.058-2.282a61.71 61.71 0 0 0-1.862-1.904c.238-.896.476-2.058.672-3.29l-.728.042-.154-1.498 1.106-.042c.14-.994.238-1.988.294-2.87l1.414.056a54.89 54.89 0 0 1-.308 2.744l.952-.056v-.868h1.372v.784l.616-.028-.014 1.428Zm2.45-1.274 1.064-.658c.49.532 1.162 1.302 1.47 1.778l-1.12.742c-.28-.476-.938-1.288-1.414-1.862Zm2.394 5.6-1.12.784c-.308-.532-1.022-1.386-1.54-2.016l1.064-.672c.532.574 1.274 1.386 1.596 1.904Zm-3.22.924h3.626c.056-.742.112-1.722.154-2.982h-3.542c-.084 1.05-.154 2.086-.238 2.982Zm3.878-7.42h-3.388c-.056.952-.112 1.974-.168 2.954h3.5c.014-.868.028-1.862.056-2.954Zm2.226 4.438h-.784a83.826 83.826 0 0 1-.14 2.982h.644v1.498h-.784c-.098.63-.21 1.022-.35 1.246-.308.518-.63.686-1.106.784-.434.084-1.078.07-1.722.056-.014-.406-.196-1.036-.434-1.442a13.68 13.68 0 0 0 1.358.056c.238 0 .364-.07.49-.294.056-.07.112-.21.154-.406h-4.032v-.014h-1.148c.154-1.218.322-2.786.448-4.466h-.7v-1.484h.798c.098-1.512.182-3.052.224-4.41h6.426s-.014.616-.014.812c-.028 1.372-.056 2.548-.07 3.598h.742v1.484Z" fill="#231815"/><path d="M64.5 363.85H260a4.5 4.5 0 0 1 4.5 4.5v24a4.5 4.5 0 0 1-4.5 4.5H64.5v-33Z" stroke="#231815"/><path d="M15.5 412.35a4.5 4.5 0 0 1 4.5-4.5h44.5v33H20a4.5 4.5 0 0 1-4.5-4.5v-24Z" fill="#00698A"/><path d="M33.918 420.978v2.002h-1.526v-2.002h1.526Zm1.512 7.644h-.462c.21.252.406.504.546.77h.308c.14 0 .238-.028.322-.154.154-.196.266-.896.35-2.772h-3.472v.392h2.408v1.764Zm-2.408.406.896-.042a3.952 3.952 0 0 0-.196-.252l.28-.112h-.98v.406Zm1.148-1.064v-.448h-1.148v.448h1.148Zm-3.724 0h1.176v-.448h-1.176v.448Zm1.176-1.498h-1.134c-.14.14-.28.266-.434.392h1.568v-.392Zm-3.374-5.684v1.372c0 1.302-.056 2.954-.308 4.564.868-.476 1.54-1.036 2.002-1.596h-1.148v-1.96h.28l-.238-.826c.588-.098 1.386-.224 2.24-.392a15.106 15.106 0 0 0-1.96-.406l.238-.728c.84.098 1.792.266 2.38.462l-.238.602.532-.098.014.826c-.896.21-1.82.42-2.59.56h7.266c-.658-.196-1.568-.378-2.408-.49l.238-.714.294.014-.322-.658c.504-.084 1.246-.336 1.806-.532h-8.078Zm7.896-1.722h-7.896v.658h7.896v-.658Zm-.042 5.39v-.616h-1.19v.616h1.19Zm-2.45 0v-.616H32.49v.616h1.162Zm-2.422 0v-.616h-1.134v.616h1.134Zm.112 1.092h6.678s0 .35-.014.518c-.112 2.604-.252 3.598-.56 3.976-.224.294-.504.392-.812.434-.294.056-.77.056-1.26.042a2.693 2.693 0 0 0-.098-.532l-.602.252a3.58 3.58 0 0 0-.154-.336c-2.156.154-4.382.294-5.992.392l-.098-1.078c.868-.028 1.974-.084 3.192-.14v-.448h-2.366v-1.176a12.67 12.67 0 0 1-.56.364c-.182-.252-.518-.56-.798-.77-.224 1.274-.546 2.492-1.078 3.486-.308-.252-1.022-.658-1.442-.812 1.162-2.156 1.26-5.334 1.26-7.56v-4.144h11.13v2.772h-.966l.364.644c-.686.266-1.624.448-2.282.56.854.098 1.778.28 2.324.448l-.266.728h.532v1.96H31.65c-.098.14-.196.28-.308.42Zm19.222 2.996h3.304v1.582H45.16v-1.582h3.738v-2.8h-2.702v-1.554h2.702v-2.296h-1.54c-.21.728-.49 1.4-.784 1.932a14.722 14.722 0 0 0-1.484-.756c.14-.252.28-.518.42-.812l-.798.364c-.084-.42-.294-1.036-.532-1.61v9.562h-1.666v-10.01c-.084 1.176-.308 2.716-.63 3.71l-1.232-.448c.336-.924.588-2.492.686-3.64l1.176.168v-2.856h1.666v2.646l.812-.336c.28.546.574 1.218.77 1.764.35-1.022.602-2.226.742-3.416l1.624.224c-.098.658-.21 1.316-.35 1.946h1.12v-2.744h1.666v2.744h2.856v1.568h-2.856v2.296h2.562v1.554h-2.562v2.8Z" fill="#fff"/><path d="M15.5 412.35a4.5 4.5 0 0 1 4.5-4.5h44.5v33H20a4.5 4.5 0 0 1-4.5-4.5v-24Z" stroke="#231815"/><path d="M64.5 407.85H260a4.5 4.5 0 0 1 4.5 4.5v24a4.5 4.5 0 0 1-4.5 4.5H64.5v-33Z" fill="#fff"/><path d="M76.436 427.432v-1.26h2.254v1.26h-2.254Zm8.61-1.582h-1.61a7.539 7.539 0 0 1-.35.56c.238.308.518.616.84.91.448-.434.826-.91 1.12-1.47Zm-9.002 2.492h3.08v-3.318h-.504c-.602 0-.784-.182-.784-.994v-1.876h-.49v1.036c0 .756-.14 1.764-.784 2.436-.112-.126-.336-.35-.518-.448v3.164Zm.546-6.188h-.546v2.87c.476-.56.546-1.26.546-1.848v-1.022Zm.728-2.744v1.372h.56v-1.372h-.56Zm1.806 4.788v-2.044h-.532v1.862c0 .182.014.196.126.196h.224c.112 0 .154 0 .182-.014Zm6.958.294.994.42c-.42 1.358-1.078 2.436-1.918 3.304.7.406 1.526.714 2.506.91-.322.322-.742.994-.952 1.386a8.2 8.2 0 0 1-2.8-1.288c-.826.574-1.764.994-2.8 1.302a6.528 6.528 0 0 0-.714-1.134v.938h-1.274v-.7h-3.08v.896h-1.218v-9.744h1.414v-1.372h-1.61v-1.386h5.838v1.386h-1.484v1.372h1.414v2.422c1.148-.364 1.498-.98 1.638-1.848-.588.07-.812.126-.994.196-.084-.308-.322-1.036-.504-1.428.252-.056.49-.238.77-.518.266-.266 1.134-1.232 1.68-2.212l1.596.448c-.504.742-1.148 1.484-1.75 2.114l2.324-.126a19.56 19.56 0 0 0-.658-.91l1.176-.616c.616.784 1.484 1.862 1.904 2.52l-1.274.728c-.07-.154-.182-.322-.294-.518l-.476.042v1.064c0 .322.028.434.224.434h.84c.224 0 .574-.028.784-.084.014.35.056.924.098 1.26-.196.07-.532.098-.84.098h-.938c-1.302 0-1.582-.476-1.582-1.722v-.952l-.644.056c-.154 1.47-.63 2.506-2.324 3.15-.126-.322-.476-.812-.756-1.078v5.922a8.622 8.622 0 0 0 2.352-.994 9.971 9.971 0 0 1-.616-.728 4.528 4.528 0 0 1-.63.532 7.31 7.31 0 0 0-1.036-1.05c.322-.21.616-.448.882-.742-.196-.406-.378-.84-.518-1.246l1.19-.574c.07.196.154.406.238.602a6.74 6.74 0 0 0 .616-1.498l1.428.294c-.07.252-.154.504-.252.742h1.75l.28-.07Zm13.832-.574v.588l.896-.014a9.752 9.752 0 0 0-.336-.392l.392-.182h-.952Zm-2.548-.896H98.5v-.56h-1.134v.56Zm0-1.96v.546H98.5v-.546h-1.134Zm3.738 0h-1.19v.546h1.19v-.546Zm0 1.96v-.56h-1.19v.56h1.19Zm-5.32 2.744-.084-1.19c.77 0 1.736-.014 2.8-.042v-.616h-2.436v-3.752H98.5v-.518h-2.674v-1.218H98.5v-.924h1.414v.924h2.814v1.218h-2.814v.518h2.562v3.752h-.588c.462.532.882 1.148 1.12 1.61l-1.162.574c-.07-.14-.154-.308-.266-.49-2.1.07-4.256.126-5.796.154Zm4.032 3.318v-1.54h-2.1c.434.434.826.966 1.022 1.358l-.574.364c.56.028 1.204.028 1.386.028.196-.014.266-.056.266-.21Zm-8.33-4.998v.826h.798v-.826h-.798Zm0-1.918v.826h.798v-.826h-.798Zm2.73.826v-.826h-.854v.826h.854Zm0 1.918v-.826h-.854v.826h.854Zm7.112.868v.546h1.596v1.218h-1.596v1.582c0 .714-.112 1.064-.644 1.274-.518.196-1.19.21-2.17.21-.042-.406-.238-.924-.406-1.302l-.56.35c-.224-.49-.7-1.204-1.204-1.708l.686-.406h-1.316v.812h-2.156v2.212h-1.47v-2.212h-2.254V426.9h2.254v-.84h-1.792v-5.054h1.792v-.728H90.03v-1.442h2.058v-1.33h1.47v1.33h1.988v1.442h-1.988v.728h1.862v5.054h-1.862v.84h2.156v-.574h4.102v-.546h1.512Zm13.986-1.862v.588l.896-.014a9.752 9.752 0 0 0-.336-.392l.392-.182h-.952Zm-2.548-.896h1.134v-.56h-1.134v.56Zm0-1.96v.546h1.134v-.546h-1.134Zm3.738 0h-1.19v.546h1.19v-.546Zm0 1.96v-.56h-1.19v.56h1.19Zm-5.32 2.744-.084-1.19c.77 0 1.736-.014 2.8-.042v-.616h-2.436v-3.752h2.436v-.518h-2.674v-1.218h2.674v-.924h1.414v.924h2.814v1.218h-2.814v.518h2.562v3.752h-.588c.462.532.882 1.148 1.12 1.61l-1.162.574a6.108 6.108 0 0 0-.266-.49c-2.1.07-4.256.126-5.796.154Zm4.032 3.318v-1.54h-2.1c.434.434.826.966 1.022 1.358l-.574.364c.56.028 1.204.028 1.386.028.196-.014.266-.056.266-.21Zm-8.33-4.998v.826h.798v-.826h-.798Zm0-1.918v.826h.798v-.826h-.798Zm2.73.826v-.826h-.854v.826h.854Zm0 1.918v-.826h-.854v.826h.854Zm7.112.868v.546h1.596v1.218h-1.596v1.582c0 .714-.112 1.064-.644 1.274-.518.196-1.19.21-2.17.21-.042-.406-.238-.924-.406-1.302l-.56.35c-.224-.49-.7-1.204-1.204-1.708l.686-.406h-1.316v.812h-2.156v2.212h-1.47v-2.212h-2.254V426.9h2.254v-.84h-1.792v-5.054h1.792v-.728h-2.058v-1.442h2.058v-1.33h1.47v1.33h1.988v1.442h-1.988v.728h1.862v5.054h-1.862v.84h2.156v-.574h4.102v-.546h1.512Z" fill="#231815"/><path d="M64.5 407.85H260a4.5 4.5 0 0 1 4.5 4.5v24a4.5 4.5 0 0 1-4.5 4.5H64.5v-33Z" stroke="#231815"/><path d="M15.5 456.35a4.5 4.5 0 0 1 4.5-4.5h44.5v33H20a4.5 4.5 0 0 1-4.5-4.5v-24Z" fill="#00698A"/><path d="m30.138 467.442.21 1.526c-.49.14-.994.28-1.498.406v3.346c0 .812-.154 1.204-.63 1.47-.462.252-1.134.294-2.114.294a7.24 7.24 0 0 0-.476-1.512c.546.014 1.12.014 1.302.014.21 0 .266-.07.266-.28v-2.884l-1.358.336-.434-1.582c.518-.098 1.12-.238 1.792-.406v-2.478h-1.61v-1.54h1.61v-2.66h1.652v2.66h1.372v1.54H28.85v2.072l1.288-.322Zm5.852.756h-3.402a8.001 8.001 0 0 0 1.652 2.478 7.802 7.802 0 0 0 1.75-2.478Zm1.05-1.568 1.064.448c-.532 1.946-1.428 3.472-2.604 4.648.91.644 1.988 1.106 3.234 1.414-.35.336-.826 1.008-1.064 1.442-1.358-.406-2.52-.98-3.486-1.764-1.092.756-2.324 1.316-3.682 1.722-.182-.448-.588-1.148-.896-1.512 1.232-.294 2.366-.742 3.346-1.372-.826-.938-1.484-2.044-1.988-3.332l.42-.126h-.728V466.7h2.758v-1.68h-3.01v-1.54h3.01v-2.002h1.652v2.002h3.136v1.54h-3.136v1.68h1.68l.294-.07Zm15.274 1.036h-2.128c-1.68 0-2.128-.616-2.128-2.17v-3.976h1.652v1.652h3.444v1.428H49.71v.924c0 .518.084.714.532.714h2.044c.392 0 .98-.042 1.288-.112.028.434.098 1.036.154 1.414-.294.098-.882.126-1.414.126Zm-9.044 1.498v.504c0 .532-.028 1.162-.098 1.792.63-.28 1.456-.7 2.296-1.148v-.462l-.672.658c-.35-.364-.994-.91-1.526-1.344Zm2.198-1.26H43.27v.994l.7-.602c.476.336 1.078.826 1.498 1.19v-1.582Zm1.568-1.4v6.524c0 .686-.126 1.036-.588 1.26-.448.21-1.078.238-1.932.238-.07-.392-.294-.938-.504-1.302.504.028 1.05.028 1.218.028.182 0 .238-.056.238-.238v-1.428c-.7.504-1.4.98-2.03 1.386l-.35-.98c-.154.952-.462 1.904-.994 2.632-.238-.322-.868-.924-1.162-1.12.742-1.092.798-2.632.798-3.85v-3.15h5.306Zm-2.128-3.486 1.344-.49c.588 1.008 1.33 2.38 1.666 3.22l-1.456.588c-.084-.252-.21-.546-.35-.882-3.542.35-4.116.434-4.522.602a17.634 17.634 0 0 0-.518-1.498c.252-.056.49-.252.77-.56.28-.308 1.134-1.386 1.652-2.492l1.68.476c-.476.812-1.106 1.624-1.722 2.324l2.044-.154c-.21-.406-.406-.798-.588-1.134Zm5.446 9.996h1.596c.476 0 .574-.238.644-1.526.336.252 1.008.504 1.442.602-.168 1.834-.602 2.38-1.932 2.38h-1.988c-1.652 0-2.058-.49-2.058-2.016v-4.396h1.652v1.4h3.542v1.47H49.71v1.526c0 .49.098.56.644.56Z" fill="#fff"/><path d="M15.5 456.35a4.5 4.5 0 0 1 4.5-4.5h44.5v33H20a4.5 4.5 0 0 1-4.5-4.5v-24Z" stroke="#231815"/><path d="M64.5 451.85H260a4.5 4.5 0 0 1 4.5 4.5v24a4.5 4.5 0 0 1-4.5 4.5H64.5v-33Z" fill="#fff"/><path d="M76.436 471.432v-1.26h2.254v1.26h-2.254Zm8.61-1.582h-1.61a7.539 7.539 0 0 1-.35.56c.238.308.518.616.84.91.448-.434.826-.91 1.12-1.47Zm-9.002 2.492h3.08v-3.318h-.504c-.602 0-.784-.182-.784-.994v-1.876h-.49v1.036c0 .756-.14 1.764-.784 2.436-.112-.126-.336-.35-.518-.448v3.164Zm.546-6.188h-.546v2.87c.476-.56.546-1.26.546-1.848v-1.022Zm.728-2.744v1.372h.56v-1.372h-.56Zm1.806 4.788v-2.044h-.532v1.862c0 .182.014.196.126.196h.224c.112 0 .154 0 .182-.014Zm6.958.294.994.42c-.42 1.358-1.078 2.436-1.918 3.304.7.406 1.526.714 2.506.91-.322.322-.742.994-.952 1.386a8.2 8.2 0 0 1-2.8-1.288c-.826.574-1.764.994-2.8 1.302a6.528 6.528 0 0 0-.714-1.134v.938h-1.274v-.7h-3.08v.896h-1.218v-9.744h1.414v-1.372h-1.61v-1.386h5.838v1.386h-1.484v1.372h1.414v2.422c1.148-.364 1.498-.98 1.638-1.848-.588.07-.812.126-.994.196-.084-.308-.322-1.036-.504-1.428.252-.056.49-.238.77-.518.266-.266 1.134-1.232 1.68-2.212l1.596.448c-.504.742-1.148 1.484-1.75 2.114l2.324-.126a19.56 19.56 0 0 0-.658-.91l1.176-.616c.616.784 1.484 1.862 1.904 2.52l-1.274.728c-.07-.154-.182-.322-.294-.518l-.476.042v1.064c0 .322.028.434.224.434h.84c.224 0 .574-.028.784-.084.014.35.056.924.098 1.26-.196.07-.532.098-.84.098h-.938c-1.302 0-1.582-.476-1.582-1.722v-.952l-.644.056c-.154 1.47-.63 2.506-2.324 3.15-.126-.322-.476-.812-.756-1.078v5.922a8.622 8.622 0 0 0 2.352-.994 9.971 9.971 0 0 1-.616-.728 4.528 4.528 0 0 1-.63.532 7.31 7.31 0 0 0-1.036-1.05c.322-.21.616-.448.882-.742-.196-.406-.378-.84-.518-1.246l1.19-.574c.07.196.154.406.238.602a6.74 6.74 0 0 0 .616-1.498l1.428.294c-.07.252-.154.504-.252.742h1.75l.28-.07Zm8.666 1.652v1.638c.882-.154 1.792-.308 2.674-.448l.084 1.428c-2.45.476-5.096.952-7 1.288l-.364-1.54c.84-.112 1.89-.28 3.024-.462v-1.904h-2.548v-1.442h2.548v-1.246h1.582v1.246h2.52v1.442h-2.52Zm-2.1-4.424 2.534-.14a20.375 20.375 0 0 0-.812-1.148l1.176-.686h-1.68c-.35.672-.784 1.372-1.218 1.974Zm-2.366-1.974v-1.428h7.28v1.428h-1.974c.728.91 1.596 2.156 1.946 2.982l-1.26.826a9.58 9.58 0 0 0-.322-.7c-3.864.322-4.466.392-4.872.56a25.491 25.491 0 0 0-.532-1.512c.21-.056.434-.28.644-.588.154-.21.532-.84.868-1.568h-1.778Zm9.366-.952v8.456h-1.54v-8.456h1.54Zm1.134-1.148h1.624v10.836c0 .882-.168 1.302-.7 1.568-.532.252-1.33.308-2.422.308-.07-.434-.336-1.148-.56-1.596.742.028 1.498.028 1.736.028s.322-.084.322-.322v-10.822Zm10.248.056h3.458c.644 2.044 2.072 4.032 4.018 5.04-.336.35-.91 1.064-1.176 1.54a9.72 9.72 0 0 1-1.064-.812c-.154 4.13-.322 5.74-.812 6.314-.35.462-.728.602-1.274.672-.476.07-1.288.07-2.114.042-.028-.504-.252-1.204-.546-1.68.77.056 1.498.07 1.848.07.252 0 .406-.028.56-.196.28-.308.434-1.554.56-4.466h-2.758c-.35 2.688-1.26 5.082-4.886 6.44-.21-.476-.7-1.162-1.106-1.54 3.164-1.022 3.892-2.87 4.172-4.9h-2.366v-.924c-.336.364-.686.7-1.05 1.008-.294-.336-1.008-.952-1.4-1.232 1.582-1.134 2.828-3.01 3.472-5.11l1.75.42c-.518 1.568-1.288 3.024-2.198 4.214h7.252a11.628 11.628 0 0 1-2.114-3.346h-2.226v-1.554Zm13.636 6.58v.868c1.456-.098 3.038-.21 4.592-.322l.266-.224v-.322h-4.858Zm4.858-4.032h-4.858v.812h4.858v-.812Zm0 2.828v-.826h-4.858v.826h4.858Zm2.422-1.33 1.638.784a15.517 15.517 0 0 1-2.338 2.786v3.192c0 .966-.182 1.442-.812 1.736-.602.28-1.512.308-2.842.308-.07-.49-.35-1.288-.588-1.75.854.042 1.862.028 2.128.028.294 0 .392-.098.392-.35v-1.708c-2.212 1.638-4.844 2.856-7.644 3.682a12.92 12.92 0 0 0-1.12-1.526c2.296-.588 4.438-1.414 6.286-2.52-2.086.168-4.102.308-5.628.434l-.168-1.484c.532-.028 1.106-.07 1.75-.098v-6.44h2.898c.182-.476.35-.952.448-1.358l2.044.21c-.196.406-.42.784-.644 1.148h3.5v3.948c.252-.336.49-.672.7-1.022Zm16.982-3.206v1.47h-3.332v-1.47h3.332Zm-3.388 1.358-1.078.602c-.196-.476-.644-1.246-1.064-1.806l1.008-.546c.434.532.91 1.274 1.134 1.75Zm-7.168-2.394 1.512.518c-.728 1.246-1.848 2.59-2.912 3.43-.196-.336-.588-.952-.854-1.232.868-.7 1.82-1.82 2.254-2.716Zm1.792 5.544h1.162c0 2.66-.154 4.424-1.232 5.488-.14-.294-.504-.756-.784-.966.784-.882.84-2.24.854-4.522Zm5.082 5.096h-.266c-1.106 0-1.316-.42-1.316-1.638v-3.444h1.19v3.458c0 .378 0 .49.084.49h.322c.14 0 .322-.028.462-.07.028.308.07.854.112 1.12-.168.084-.364.084-.588.084Zm3.892-6.244-.014 1.498h-1.078v5.236c0 .784-.112 1.218-.616 1.498-.476.266-1.162.28-2.086.28-.042-.462-.238-1.134-.448-1.61.56.028 1.148.028 1.33.014.182 0 .238-.042.238-.21V467.4h-1.218v-1.106h-2.044v8.218h-1.456v-8.218h-1.848v-.966c-.224.49-.504 1.022-.812 1.526v7.714h-1.54v-5.572c-.266.308-.532.588-.784.826-.154-.336-.63-1.176-.91-1.526 1.064-.938 2.128-2.394 2.73-3.864l1.316.434v-.098h1.848v-3.248h1.456v3.248h2.1v1.134h3.836Z" fill="#231815"/><path d="M64.5 451.85H260a4.5 4.5 0 0 1 4.5 4.5v24a4.5 4.5 0 0 1-4.5 4.5H64.5v-33Z" stroke="#231815"/><rect x=".5" y=".5" width="279" height="504.35" rx="4.5" stroke="#231815"/><defs><linearGradient id="paint0_linear_799_41177" x1="142.624" y1="167.474" x2="161.776" y2="155.227" gradientUnits="userSpaceOnUse"><stop stop-color="#00C7FF" stop-opacity=".1"/><stop offset=".36" stop-color="#FFD600" stop-opacity=".43"/><stop offset=".67" stop-color="#FFD600" stop-opacity=".69"/><stop offset=".89" stop-color="#FFD600" stop-opacity=".84"/><stop offset="1" stop-color="#FFD600" stop-opacity=".9"/></linearGradient><linearGradient id="paint1_linear_799_41177" x1="191.349" y1="225.892" x2="204.769" y2="218.557" gradientUnits="userSpaceOnUse"><stop stop-color="#00C7FF" stop-opacity=".1"/><stop offset=".36" stop-color="#FFD600" stop-opacity=".43"/><stop offset=".67" stop-color="#FFD600" stop-opacity=".69"/><stop offset=".89" stop-color="#FFD600" stop-opacity=".84"/><stop offset="1" stop-color="#FFD600" stop-opacity=".9"/></linearGradient><linearGradient id="paint2_linear_799_41177" x1="182.687" y1="185.822" x2="200.62" y2="174.491" gradientUnits="userSpaceOnUse"><stop stop-color="#00C7FF" stop-opacity=".1"/><stop offset=".36" stop-color="#FFD600" stop-opacity=".43"/><stop offset=".67" stop-color="#FFD600" stop-opacity=".69"/><stop offset=".89" stop-color="#FFD600" stop-opacity=".84"/><stop offset="1" stop-color="#FFD600" stop-opacity=".9"/></linearGradient><clipPath id="clip0_799_41177"><path fill="#fff" transform="translate(79.27)" d="M0 0h121.46v30.99H0z"/></clipPath><clipPath id="clip1_799_41177"><path fill="#fff" transform="translate(63.635 334.99)" d="M0 0h18.56v18.36H0z"/></clipPath></defs></svg>