<svg fill="none" xmlns="http://www.w3.org/2000/svg" viewBox="0 0 280 506"><rect x=".5" y=".5" width="279" height="504.35" rx="4.5" fill="#F590A8"/><g clip-path="url(#clip0_799_40508)" stroke="#231815" stroke-miterlimit="10"><path d="M84.32 27.21c.34 1.64 1.95 2.83 3.83 2.84l103.68.44c1.88 0 3.5-1.17 3.85-2.81l4.41-20.48c.67-3.11-1.07-6.21-3.48-6.22L83.06.5C80.7.49 79.29 2.97 79.92 6l4.4 21.2v.01Z" fill="#00698A"/><path d="M116.48 17.4c.14 1.03.82 1.78 1.61 1.79l43.77.23c.79 0 1.48-.74 1.63-1.77l1.87-12.91c.28-1.96-.45-3.91-1.47-3.92L115.95.57c-.99 0-1.59 1.56-1.33 3.47l1.85 13.36h.01Zm69.19-7.19c0-1.42 1.16-2.56 2.58-2.55 1.42 0 2.56 1.16 2.55 2.58 0 1.42-1.16 2.56-2.57 2.55-1.42 0-2.56-1.16-2.55-2.58h-.01Zm-10.74-.02c0-1.42 1.16-2.56 2.58-2.55 1.42 0 2.56 1.16 2.55 2.58 0 1.42-1.16 2.56-2.58 2.55-1.42 0-2.56-1.16-2.55-2.58Zm-80.59-.28c0-1.42-1.15-2.57-2.56-2.57-1.42 0-2.57 1.15-2.57 2.56 0 1.42 1.15 2.57 2.56 2.57 1.42 0 2.57-1.15 2.57-2.56Zm10.73.02c0-1.42-1.15-2.57-2.56-2.57-1.42 0-2.57 1.15-2.57 2.56 0 1.42 1.15 2.57 2.56 2.57 1.42 0 2.57-1.15 2.57-2.56Z" fill="#FFE177"/></g><path d="M108.8 47.062h-2.736c.504 1.08 1.032 2.328 1.296 3.216l-1.776.768h1.992c.48-1.2.96-2.76 1.224-3.984Zm2.928 11.04h-2.736c-.36 2.328-1.488 4.704-4.056 6.288-.456-.696-1.488-1.8-2.208-2.352 1.92-.96 2.664-2.472 2.952-3.936h-2.496V55.27h2.64v-1.392h-3.36v-2.832h2.208c-.288-1.008-.84-2.376-1.32-3.432l1.344-.552h-1.848V44.23h3.36a28.167 28.167 0 0 0-1.104-1.896l2.808-1.128c.6.816 1.272 1.896 1.632 2.592l-.936.432h3.336v2.832h-2.304l2.256.48c-.528 1.2-1.08 2.448-1.584 3.504h1.896v2.832h-3.072v1.392h2.592v2.832Zm3.888-7.368v2.256h.984v-2.256h-.984Zm5.28 0h-.96v2.256h.96v-2.256Zm3.216 4.848h-3.288c1.128 1.992 2.88 3.912 4.656 5.064-.744.6-1.8 1.776-2.328 2.592-1.176-.96-2.256-2.352-3.216-3.888v4.896H116.6v-4.728c-1.272 1.632-2.76 3.048-4.32 4.032-.504-.768-1.536-1.968-2.256-2.592 2.256-1.176 4.416-3.24 5.784-5.376h-3.216v-7.44h4.008v-1.224h-4.296v-2.976h4.296v-2.496h3.336v2.496h4.8v2.976h-4.8v1.224h4.176v7.44Zm22.248-2.88v.744l.984-.024c-.12-.168-.24-.336-.36-.48l.552-.24h-1.176Zm-4.368-1.8h1.416v-.648h-1.416v.648Zm0-2.976v.624h1.416v-.624h-1.416Zm5.784 0h-1.416v.624h1.416v-.624Zm0 2.976v-.648h-1.416v.648h1.416Zm-8.832 5.088-.192-2.424c1.296 0 2.904-.024 4.656-.072v-.792h-4.104v-6.576h4.104v-.624h-4.416v-2.52h4.416V41.47h2.952v1.512h4.632v2.52h-4.632v.624h4.248v6.576h-.696c.648.888 1.248 1.896 1.584 2.64l-2.424 1.176c-.096-.24-.216-.528-.36-.816-3.528.144-7.128.216-9.768.288Zm6.6 5.28v-2.04h-2.688c.552.648 1.032 1.368 1.296 1.944l-.696.432c.696.024 1.416.024 1.632.024.336-.024.456-.096.456-.36Zm-13.824-8.112v.984h.912v-.984h-.912Zm0-3.192v.96h.912v-.96h-.912Zm4.104.96v-.96h-.984v.96h.984Zm0 3.216v-.984h-.984v.984h.984Zm12.912 1.8v.768h2.616v2.52h-2.616v2.136c0 1.416-.264 2.136-1.272 2.568-1.008.408-2.28.432-3.96.432-.096-.72-.408-1.608-.696-2.352l-1.128.696c-.336-.84-1.128-2.088-1.944-2.952l.912-.528H138.8v1.44h-3.528v3.576H132.2V60.67h-3.672v-3.024h3.672v-1.128h-2.88V47.59h2.88v-1.008h-3.312v-2.976h3.312v-2.112h3.072v2.112h3.24v2.976h-3.24v1.008h3.048v8.928h-3.048v1.128h3.528v-.936h6.744v-.768h3.192Zm24.024-3.24v.744l.984-.024c-.12-.168-.24-.336-.36-.48l.552-.24h-1.176Zm-4.368-1.8h1.416v-.648h-1.416v.648Zm0-2.976v.624h1.416v-.624h-1.416Zm5.784 0h-1.416v.624h1.416v-.624Zm0 2.976v-.648h-1.416v.648h1.416Zm-8.832 5.088-.192-2.424c1.296 0 2.904-.024 4.656-.072v-.792h-4.104v-6.576h4.104v-.624h-4.416v-2.52h4.416V41.47h2.952v1.512h4.632v2.52h-4.632v.624h4.248v6.576h-.696c.648.888 1.248 1.896 1.584 2.64l-2.424 1.176c-.096-.24-.216-.528-.36-.816-3.528.144-7.128.216-9.768.288Zm6.6 5.28v-2.04h-2.688c.552.648 1.032 1.368 1.296 1.944l-.696.432c.696.024 1.416.024 1.632.024.336-.024.456-.096.456-.36Zm-13.824-8.112v.984h.912v-.984h-.912Zm0-3.192v.96h.912v-.96h-.912Zm4.104.96v-.96h-.984v.96h.984Zm0 3.216v-.984h-.984v.984h.984Zm12.912 1.8v.768h2.616v2.52h-2.616v2.136c0 1.416-.264 2.136-1.272 2.568-1.008.408-2.28.432-3.96.432-.096-.72-.408-1.608-.696-2.352l-1.128.696c-.336-.84-1.128-2.088-1.944-2.952l.912-.528H165.2v1.44h-3.528v3.576H158.6V60.67h-3.672v-3.024h3.672v-1.128h-2.88V47.59h2.88v-1.008h-3.312v-2.976h3.312v-2.112h3.072v2.112h3.24v2.976h-3.24v1.008h3.048v8.928h-3.048v1.128h3.528v-.936h6.744v-.768h3.192Z" fill="#231815"/><path d="M15.5 199.99c0-68.759 55.74-124.5 124.5-124.5 68.759 0 124.5 55.741 124.5 124.5v120a4.5 4.5 0 0 1-4.5 4.5H20a4.5 4.5 0 0 1-4.5-4.5v-120Z" fill="#fff" stroke="#231815"/><g clip-path="url(#clip1_799_40508)"><path d="M149.251 183.353c-8.551 10.596-23.589 15.163-36.59 11.108-.673-.207-1.337-.44-1.983-.664-2.001-.691-3.894-1.346-5.707-1.301-1.669.045-3.679 1.202-3.679 2.584a2.5 2.5 0 0 1-2.485 2.503 2.492 2.492 0 0 1-2.495-2.485c0-2.154 1.032-4.137 2.917-5.599a9.82 9.82 0 0 1 5.608-1.992c2.718-.072 5.141.763 7.474 1.57.637.224 1.238.431 1.839.619 5.321 1.66 11.359 1.633 17.021-.089 5.662-1.714 10.696-5.052 14.195-9.386" fill="#F590A8"/><path d="M149.251 183.353c-8.551 10.596-23.589 15.163-36.59 11.108-.673-.207-1.337-.44-1.983-.664-2.001-.691-3.894-1.346-5.707-1.301-1.669.045-3.679 1.202-3.679 2.584a2.5 2.5 0 0 1-2.485 2.503 2.492 2.492 0 0 1-2.495-2.485c0-2.154 1.032-4.137 2.917-5.599a9.82 9.82 0 0 1 5.608-1.992c2.718-.072 5.141.763 7.474 1.57.637.224 1.238.431 1.839.619 5.321 1.66 11.359 1.633 17.021-.089 5.662-1.714 10.696-5.052 14.195-9.386" stroke="#231815" stroke-width=".75" stroke-linecap="round" stroke-linejoin="round"/><path d="M118.062 178.812c-.206 0-.412-.008-.628-.026l-.52-.027c-2.503-.054-3.921-.844-5.707-1.84a46.86 46.86 0 0 0-1.22-.673c-.7-.377-1.489-.646-2.243-.915-.978-.35-1.992-.709-2.898-1.283-1.579-1.005-2.728-2.961-2.19-4.675-1.857-.206-3.643-1.202-4.773-2.692-1.157-1.525-1.624-3.571-1.274-5.446-1.624-.17-3.078-.879-3.966-1.947-1.175-1.427-1.624-3.427-1.193-5.213-.808-.26-1.544-.826-2.064-1.588-.62-.915-.852-2.001-.646-2.997.386-1.839 2.117-3.132 4.2-3.132.188 0 .376.009.564.036-.206-1.48.512-2.996 1.83-3.678a3.5 3.5 0 0 1 1.589-.377 3.97 3.97 0 0 1 1.929.511c0-1.041.52-2.09 1.418-2.656a2.965 2.965 0 0 1 1.579-.439c.475 0 .933.098 1.355.287-.171-.817-.171-1.597 0-2.315.332-1.418 1.364-2.539 2.629-2.845.206-.053.421-.071.637-.071.7 0 1.355.242 1.857.646.036-1.059.153-2.163.512-3.204.61-1.758 1.857-3.032 3.346-3.418.234-.063.485-.09.736-.09.233 0 .476.027.727.081a3.204 3.204 0 0 1 .718-2.683c.753-.87 1.947-1.373 3.275-1.373h.107c.404 0 .969.207 1.571.413.538.188 1.139.395 1.453.395.233-.09.404-.673.494-.951.053-.18.098-.341.152-.458.521-1.274 1.104-2.71 3.105-2.979a5.62 5.62 0 0 1 .673-.045c1.462 0 3.05.655 4.513 1.858.449-2.091 1.965-3.921 3.966-4.702a6.279 6.279 0 0 1 2.315-.431c1.426 0 2.817.458 3.93 1.274.682-1.794 2.333-3.23 4.226-3.598a5.54 5.54 0 0 1 1.014-.098c1.489 0 3.006.619 4.064 1.669.126.036.252.071.395.134.718-.7 1.741-1.103 2.8-1.103a3.66 3.66 0 0 1 1.965.547c.834.529 1.435 1.418 1.66 2.458.053.045.107.09.152.135.467.431 2.1 1.974 3.347 3.903a5.983 5.983 0 0 1 1.265 2.665c.188.655.251 1.31.188 1.893a.452.452 0 0 1-.197.323c-.224.96-.718 1.741-1.453 2.306.969 1.14 1.345 2.764.933 4.208-.422 1.472-1.642 2.656-3.105 3.087.278 1.328-.152 2.799-1.148 3.733a4.023 4.023 0 0 1-2.728 1.058h-.117c.332.772.323 1.732.027 2.54-.26.717-.682 1.346-1.085 1.947-.261.394-.512.762-.727 1.157-.332.628-.557 1.31-.799 2.019-.278.825-.556 1.687-1.032 2.467-.735 1.221-2.09 2.064-3.311 2.064-.125 0-.251 0-.367-.027.314 1.31.044 2.764-.772 3.85-.844 1.112-2.252 1.812-3.679 1.812h-.17c.224 1.633-.341 3.347-1.508 4.504-.978.969-2.36 1.535-3.777 1.535a5.03 5.03 0 0 1-.826-.063c-.107.861-.511 1.696-1.184 2.395-.942.978-2.288 1.562-3.58 1.562-.341 0-.664-.036-.978-.117.152.574.152 1.202.009 1.848-.323 1.418-1.31 2.728-2.584 3.428-.817.449-1.768.511-2.674.574-.808.054-1.561.108-2.064.422-.377.242-.673.565-.987.915-.457.512-.933 1.032-1.705 1.328a3.522 3.522 0 0 1-1.301.224l-.045-.036Z" fill="#333434"/><path d="M145.151 115.887c1.427 0 2.844.601 3.831 1.624.225.045.476.135.736.261.655-.772 1.678-1.194 2.692-1.194.61 0 1.211.153 1.723.476.807.511 1.318 1.382 1.489 2.324.09.071.17.143.26.224.933.852 2.27 2.261 3.275 3.813l.027.027c.592.7.996 1.579 1.176 2.486.17.601.242 1.193.179 1.758l-.144.036c-.179 1.05-.735 1.992-1.767 2.575 1.139 1.014 1.624 2.692 1.202 4.155-.422 1.462-1.732 2.629-3.23 2.88.458 1.274.099 2.808-.897 3.741-.646.611-1.535.934-2.423.934-.466 0-.933-.09-1.364-.279 1.059.512 1.256 2.001.853 3.105-.404 1.104-1.239 2.001-1.786 3.042-.754 1.417-.987 3.086-1.812 4.468-.619 1.023-1.804 1.848-2.925 1.848a2.05 2.05 0 0 1-1.122-.323c.691 1.364.529 3.105-.386 4.325-.771 1.023-2.046 1.633-3.32 1.633-.242 0-.484-.018-.726-.071.439 1.642-.063 3.508-1.266 4.701-.906.897-2.189 1.4-3.463 1.4-.422 0-.844-.054-1.247-.171.072 2.244-2.181 4.056-4.352 4.056a3.369 3.369 0 0 1-1.875-.538c1.337 1.848.107 4.648-1.894 5.742-1.462.799-3.562.251-4.764 1.014-1.014.646-1.436 1.759-2.611 2.207a3.109 3.109 0 0 1-1.14.198c-.367 0-.726-.036-1.139-.045-2.916-.063-4.244-1.14-6.73-2.459-1.642-.87-3.544-1.193-5.114-2.189-1.57-.996-2.719-3.113-1.759-4.702-1.965-.018-3.903-.987-5.087-2.557-1.184-1.57-1.597-3.697-1.086-5.59-1.516-.045-3.167-.61-4.172-1.821-1.184-1.436-1.57-3.491-.978-5.249-1.848-.323-3.212-2.333-2.826-4.172.368-1.768 2.072-2.773 3.76-2.773.394 0 .789.054 1.166.17-.52-1.426.062-3.158 1.435-3.867a2.98 2.98 0 0 1 1.382-.323c1.032 0 2.082.485 2.692 1.337-.664-1.166-.251-2.826.888-3.535.404-.251.87-.368 1.337-.368.861 0 1.741.404 2.234 1.122-.475-1.095-.718-2.333-.448-3.491.269-1.166 1.139-2.225 2.297-2.512a2.19 2.19 0 0 1 .538-.063c1.014 0 2.046.646 2.288 1.633 0-1.516.018-3.059.511-4.486.494-1.427 1.571-2.755 3.033-3.132a2.55 2.55 0 0 1 .628-.08c.503 0 1.005.143 1.454.332-.575-.978-.413-2.243.323-3.096.718-.825 1.839-1.211 2.943-1.211h.098c.691.018 2.28.807 3.033.807a.69.69 0 0 0 .251-.045c.485-.224.629-1.211.808-1.65.565-1.4 1.077-2.477 2.746-2.71a4.74 4.74 0 0 1 .61-.045c1.794 0 3.517 1.032 4.836 2.288.162-2.252 1.705-4.343 3.804-5.168a5.879 5.879 0 0 1 2.154-.395c1.516 0 3.042.556 4.154 1.597.449-1.947 2.118-3.553 4.083-3.93.305-.063.619-.09.933-.09m0-.897c-.368 0-.745.036-1.104.108-1.893.368-3.508 1.66-4.343 3.364a7.16 7.16 0 0 0-3.723-1.04 6.78 6.78 0 0 0-2.477.457c-1.92.754-3.427 2.405-4.055 4.352-1.149-.826-2.611-1.534-4.262-1.534-.242 0-.494.018-.736.044-2.261.306-2.925 1.939-3.463 3.258a5.566 5.566 0 0 0-.162.502c-.045.153-.126.44-.206.61-.296-.054-.808-.233-1.158-.359-.664-.233-1.229-.43-1.705-.439h-.116c-1.463 0-2.773.556-3.616 1.525a3.69 3.69 0 0 0-.888 2.458h-.225c-.287 0-.574.036-.852.108-1.633.422-2.997 1.804-3.661 3.706-.296.843-.431 1.723-.494 2.575a3.417 3.417 0 0 0-1.453-.323c-.251 0-.503.027-.745.09-1.426.35-2.593 1.588-2.961 3.176a5.25 5.25 0 0 0-.107 1.768 3.96 3.96 0 0 0-.799-.09c-.655 0-1.283.17-1.812.502-.844.53-1.391 1.409-1.57 2.351a4.243 4.243 0 0 0-1.535-.287c-.637 0-1.256.144-1.795.431-1.319.682-2.117 2.117-2.108 3.598h-.08c-2.298 0-4.209 1.435-4.64 3.481-.233 1.113.027 2.333.71 3.338a4.554 4.554 0 0 0 1.92 1.615c-.315 1.821.179 3.795 1.363 5.222.888 1.068 2.234 1.786 3.795 2.046-.215 1.866.297 3.84 1.427 5.339 1.104 1.453 2.791 2.467 4.585 2.799-.26 1.777.915 3.679 2.495 4.684.951.601 1.991.969 2.987 1.328.772.278 1.508.538 2.181.888.43.233.834.449 1.211.664 1.84 1.032 3.302 1.839 5.922 1.902.18 0 .341.018.503.027.224.009.439.027.655.027.34 0 .861-.027 1.462-.251.879-.332 1.409-.924 1.875-1.454.287-.323.566-.628.898-.834.403-.26 1.112-.305 1.857-.359.915-.063 1.956-.135 2.862-.628 1.382-.754 2.459-2.181 2.809-3.724.107-.475.143-.951.098-1.4.144.009.287.018.431.018 1.418 0 2.88-.637 3.903-1.696.628-.646 1.05-1.408 1.229-2.207.153.009.305.018.458.018 1.543 0 3.033-.601 4.091-1.66 1.149-1.148 1.759-2.772 1.687-4.387 1.454-.099 2.854-.835 3.715-1.974.781-1.032 1.104-2.369.951-3.643 1.337-.072 2.737-.969 3.526-2.279.494-.826.79-1.705 1.077-2.557.233-.7.449-1.355.772-1.957.197-.367.439-.735.7-1.112.421-.628.861-1.274 1.139-2.037a4.08 4.08 0 0 0 .153-2.27c.96-.108 1.875-.511 2.557-1.149 1.005-.942 1.498-2.395 1.346-3.759 1.435-.547 2.602-1.777 3.033-3.266.412-1.445.116-3.051-.745-4.271a4.504 4.504 0 0 0 1.238-2.118.851.851 0 0 0 .242-.52c.072-.637 0-1.337-.197-2.073-.215-1.049-.691-2.063-1.355-2.844-1.229-1.893-2.773-3.374-3.383-3.93-.018-.018-.036-.036-.054-.045-.269-1.095-.924-2.028-1.821-2.593a4.107 4.107 0 0 0-2.207-.619 4.586 4.586 0 0 0-2.907 1.041c-.018 0-.045-.018-.063-.018a6.35 6.35 0 0 0-4.289-1.714h.009Z" fill="#231815"/><path d="M111.162 185.3c-1.767 0-3.517-.449-5.105-1.337-5.079-2.827-6.9-9.251-4.083-14.321 2.827-5.078 9.251-6.9 14.321-4.082a1.24 1.24 0 0 1 .484 1.687 1.24 1.24 0 0 1-1.687.484c-3.876-2.153-8.793-.762-10.946 3.123-2.163 3.876-.763 8.793 3.122 10.946a7.965 7.965 0 0 0 6.12.709 8.011 8.011 0 0 0 4.827-3.822c1.606-2.88 1.265-6.523-.844-9.063a1.24 1.24 0 0 1 .162-1.749 1.24 1.24 0 0 1 1.75.161c2.763 3.32 3.203 8.085 1.103 11.853a10.49 10.49 0 0 1-6.317 5.007c-.96.269-1.929.404-2.898.404h-.009Z" fill="#FFE600" stroke="#231815" stroke-miterlimit="10"/><path d="M156.107 211.294c22.646 0 41.004-18.359 41.004-41.005 0-22.647-18.358-41.005-41.004-41.005-22.647 0-41.005 18.358-41.005 41.005 0 22.646 18.358 41.005 41.005 41.005Z" fill="#F590A8" stroke="#231815" stroke-width=".75" stroke-linecap="round" stroke-linejoin="round"/><path d="m133.477 172.693-.601 2.593a2.586 2.586 0 0 1-3.095 1.93 2.587 2.587 0 0 1-1.929-3.096l.601-2.593" stroke="#231815" stroke-linecap="round" stroke-linejoin="round"/><path d="M140.225 206.053c4.486-2.512 10.91-1.543 13.782 2.728 1.65 2.459 1.982 5.536 2.305 8.47 1.966 18.08 4.774 36.286 9.547 53.809-.17-.628-12.687.009-13.97.027-4.244.072-8.542.377-12.768.072.314-3.526-.529-6.909-.799-10.444-.269-3.536-.368-7.376-.888-11.037a659.363 659.363 0 0 0-2.656-17.317c-.736-4.414-2.467-9.448-1.857-13.934.655-4.872 2.862-9.888 7.313-12.383l-.009.009Z" fill="#00698A" stroke="#231815" stroke-miterlimit="10"/><mask id="mask0_799_40508" style="mask-type:luminance" maskUnits="userSpaceOnUse" x="132" y="204" width="34" height="68"><path d="M140.225 206.053c4.486-2.512 10.91-1.543 13.782 2.728 1.65 2.459 1.982 5.536 2.305 8.47 1.966 18.08 4.774 36.286 9.547 53.809-.17-.628-12.687.009-13.97.027-4.244.072-8.542.377-12.768.072.314-3.526-.529-6.909-.799-10.444-.269-3.536-.368-7.376-.888-11.037a659.363 659.363 0 0 0-2.656-17.317c-.736-4.414-2.467-9.448-1.857-13.934.655-4.872 2.862-9.888 7.313-12.383l-.009.009Z" fill="#fff"/></mask><g mask="url(#mask0_799_40508)"><path d="m132.831 253.42 5.814 10.175c1.777-5.985 3.544-11.961 5.321-17.946l4.899 18.394c1.463-2.799 2.916-5.599 4.379-8.398 2.36 3.266 4.71 6.532 7.07 9.798.817-1.597 1.642-3.185 2.459-4.782a63.575 63.575 0 0 1 6.11 16.213 310.573 310.573 0 0 1-37.254 9.072c-1.014-6.012-.637-11.791-.853-17.811-.081-2.351-.296-4.397.063-6.801.206-1.373 2.468-7.08 1.983-7.914h.009Z" fill="#fff" stroke="#231815" stroke-linecap="round" stroke-linejoin="round"/></g><path d="M140.225 206.053c4.486-2.512 10.91-1.543 13.782 2.728 1.65 2.459 1.982 5.536 2.305 8.47 1.966 18.08 4.774 36.286 9.547 53.809-.17-.628-12.687.009-13.97.027-4.244.072-8.542.377-12.768.072.314-3.526-.529-6.909-.799-10.444-.269-3.536-.368-7.376-.888-11.037a659.363 659.363 0 0 0-2.656-17.317c-.736-4.414-2.467-9.448-1.857-13.934.655-4.872 2.862-9.888 7.313-12.383l-.009.009Z" stroke="#231815" stroke-linecap="round" stroke-linejoin="round"/><mask id="mask1_799_40508" style="mask-type:luminance" maskUnits="userSpaceOnUse" x="112" y="201" width="68" height="59"><path d="M153.181 213.994c-5.276-3.275-10.695-6.613-16.778-7.86-6.084-1.247-13.065 0-17.129 4.711-2.979 3.454-3.966 8.201-4.164 12.759-.475 11.332-2.171 23.32-2.916 34.643 8.623 1.274 22.863.79 31.548.081-2.082-7.25-4.172-14.5-6.254-21.75-.843-2.934-1.687-5.877-2.234-8.874-.135-.717-1.22-7.016.072-6.738.188.045.52.951.628 1.122.709 1.157 1.651 2.234 2.503 3.284 1.723 2.135 3.58 4.172 5.644 5.984 3.661 3.195 8.075 5.671 12.885 6.389 4.809.718 10.013-.485 13.575-3.787 3.832-3.562 5.321-8.972 5.967-14.167.646-5.196 1.768-10.427 3.365-15.406-16.429-1.283-34.033-2.19-50.507-2.522-.009 1.382-.117 2.692.126 4.047" fill="#fff"/></mask><g mask="url(#mask1_799_40508)"><path d="m113.675 236.426 5.814 10.175c1.777-5.985 3.544-11.96 5.321-17.945l4.899 18.394c1.462-2.8 2.916-5.599 4.378-8.399 2.36 3.266 4.711 6.532 7.071 9.798.816-1.597 1.642-3.185 2.458-4.782a63.547 63.547 0 0 1 6.111 16.214 310.539 310.539 0 0 1-37.255 9.071c-1.014-6.012-.637-11.79-.852-17.811-.081-2.351-.296-4.396.063-6.801.206-1.373 2.467-7.079 1.983-7.914h.009Z" fill="#fff" stroke="#231815" stroke-linecap="round" stroke-linejoin="round"/></g><path d="M153.181 213.994c-5.276-3.275-10.695-6.613-16.778-7.86-6.084-1.247-13.065 0-17.129 4.711-2.979 3.454-3.966 8.201-4.164 12.759-.475 11.332-2.171 23.32-2.916 34.643 8.623 1.274 22.863.79 31.548.081-2.082-7.25-4.172-14.5-6.254-21.75-.843-2.934-1.687-5.877-2.234-8.874-.135-.717-1.22-7.016.072-6.738.188.045.52.951.628 1.122.709 1.157 1.651 2.234 2.503 3.284 1.723 2.135 3.58 4.172 5.644 5.984 3.661 3.195 8.075 5.671 12.885 6.389 4.809.718 10.013-.485 13.575-3.787 3.832-3.562 5.321-8.972 5.967-14.167.646-5.196 1.768-10.427 3.365-15.406-16.429-1.283-34.033-2.19-50.507-2.522-.009 1.382-.117 2.692.126 4.047" stroke="#231815" stroke-linecap="round" stroke-linejoin="round"/><path d="M153.181 213.994c-5.276-3.275-10.695-6.613-16.778-7.86-6.084-1.247-13.065 0-17.129 4.711-2.979 3.454-3.966 8.201-4.164 12.759-.475 11.332-2.171 23.32-2.916 34.643 8.623 1.274 22.863.79 31.548.081-2.082-7.25-4.172-14.5-6.254-21.75-.843-2.934-1.687-5.877-2.234-8.874-.135-.717-1.22-7.016.072-6.738.188.045.52.951.628 1.122.709 1.157 1.651 2.234 2.503 3.284 1.723 2.135 3.58 4.172 5.644 5.984 3.661 3.195 8.075 5.671 12.885 6.389 4.809.718 10.013-.485 13.575-3.787 3.832-3.562 5.321-8.972 5.967-14.167.646-5.196 1.768-10.427 3.365-15.406-16.429-1.283-34.033-2.19-50.507-2.522-.009 1.382-.117 2.692.126 4.047" fill="#00698A"/><path d="M153.181 213.994c-5.276-3.275-10.695-6.613-16.778-7.86-6.084-1.247-13.065 0-17.129 4.711-2.979 3.454-3.966 8.201-4.164 12.759-.475 11.332-2.171 23.32-2.916 34.643 8.623 1.274 22.863.79 31.548.081-2.082-7.25-4.172-14.5-6.254-21.75-.843-2.934-1.687-5.877-2.234-8.874-.135-.717-1.22-7.016.072-6.738.188.045.52.951.628 1.122.709 1.157 1.651 2.234 2.503 3.284 1.723 2.135 3.58 4.172 5.644 5.984 3.661 3.195 8.075 5.671 12.885 6.389 4.809.718 10.013-.485 13.575-3.787 3.832-3.562 5.321-8.972 5.967-14.167.646-5.196 1.768-10.427 3.365-15.406-16.429-1.283-34.033-2.19-50.507-2.522-.009 1.382-.117 2.692.126 4.047" stroke="#231815" stroke-miterlimit="10"/><path d="M166.766 217.233c-1.23 2.755-2.351 5.653-2.288 8.668.062 3.015 1.57 6.173 4.333 7.375 2.127.925 3.392-.269 4.514-1.991a20.057 20.057 0 0 0 2.602-5.851c.125-.466 1.041-5.078.646-5.114a15.889 15.889 0 0 1-3.894-.906c-1.974-.727-3.939-1.454-5.913-2.181Zm-97.057 27.86v5.474s23.975 7.393 26.29 31.942l12.472-.045s-7.555-6.46-9.574-13.405c-2.019-6.945-4.01-16.321-10.956-20.143-6.936-3.823-18.232-3.814-18.232-3.814v-.009Z" fill="#F590A8" stroke="#231815" stroke-width=".75" stroke-linecap="round" stroke-linejoin="round"/><path d="M69.897 257.135h-.188a.449.449 0 0 0-.449.448v29.745c0 .247.201.448.449.448h.188a.449.449 0 0 0 .449-.448v-29.745c0-.247-.2-.448-.449-.448Z" fill="#333434"/><path d="M69.906 257.583v29.745h-.188v-29.745h.188Zm0-.897h-.188a.9.9 0 0 0-.898.897v29.745a.9.9 0 0 0 .898.897h.188a.9.9 0 0 0 .897-.897v-29.745a.9.9 0 0 0-.897-.897Z" fill="#231815"/><path d="M73.701 257.135h-.188a.449.449 0 0 0-.449.448v29.745c0 .247.201.448.45.448h.188a.449.449 0 0 0 .448-.448v-29.745c0-.247-.2-.448-.449-.448Z" fill="#333434"/><path d="M73.702 257.583v29.745h-.189v-29.745h.189Zm0-.897h-.189a.9.9 0 0 0-.897.897v29.745a.9.9 0 0 0 .897.897h.189a.9.9 0 0 0 .897-.897v-29.745a.9.9 0 0 0-.897-.897Z" fill="#231815"/><path d="M86.587 270.01H56.841a.449.449 0 0 0-.448.449v.188c0 .248.2.449.448.449h29.745a.449.449 0 0 0 .448-.449v-.188c0-.248-.2-.449-.448-.449Z" fill="#333434"/><path d="M86.577 270.459v.189H56.842v-.189h29.744m0-.897H56.842a.9.9 0 0 0-.897.897v.189a.9.9 0 0 0 .897.897h29.744a.9.9 0 0 0 .898-.897v-.189a.9.9 0 0 0-.898-.897Z" fill="#231815"/><path d="M86.587 273.815H56.841a.449.449 0 0 0-.448.449v.188c0 .248.2.449.448.449h29.745a.449.449 0 0 0 .448-.449v-.188c0-.248-.2-.449-.448-.449Z" fill="#333434"/><path d="M86.577 274.263v.189H56.842v-.189h29.744m0-.897H56.842a.9.9 0 0 0-.897.897v.189a.9.9 0 0 0 .897.897h29.744a.9.9 0 0 0 .898-.897v-.189a.9.9 0 0 0-.898-.897Z" fill="#231815"/><path d="M68.282 287.525a.45.45 0 0 1-.403-.485l2.781-29.609a.464.464 0 0 1 .162-.305.462.462 0 0 1 .287-.099c.018 0 .233.018.233.018a.45.45 0 0 1 .404.484l-2.782 29.61a.466.466 0 0 1-.161.305.462.462 0 0 1-.287.099c-.018 0-.234-.018-.234-.018Z" fill="#333434"/><path d="m71.108 257.467.189.018-2.782 29.609-.188-.018 2.781-29.609Zm0-.898a.9.9 0 0 0-.897.817l-2.781 29.61a.897.897 0 0 0 .807.978l.189.018h.08a.9.9 0 0 0 .897-.817l2.782-29.61a.897.897 0 0 0-.808-.978l-.188-.018h-.09.01Z" fill="#231815"/><path d="M72.068 287.875a.45.45 0 0 1-.403-.485l2.781-29.609a.465.465 0 0 1 .162-.305.463.463 0 0 1 .287-.099c.018 0 .233.018.233.018a.45.45 0 0 1 .404.484l-2.782 29.61a.467.467 0 0 1-.161.305.463.463 0 0 1-.287.099c-.018 0-.234-.018-.234-.018Z" fill="#333434"/><path d="m74.895 257.817.189.018-2.782 29.609-.188-.018 2.781-29.609Zm0-.898a.89.89 0 0 0-.888.817l-2.782 29.61a.914.914 0 0 0 .207.655.934.934 0 0 0 .61.323l.188.018h.081a.89.89 0 0 0 .888-.817l2.782-29.61a.914.914 0 0 0-.206-.655.934.934 0 0 0-.61-.323l-.19-.018h-.08Z" fill="#231815"/><path d="M57.03 269.714a.47.47 0 0 1-.305-.161.435.435 0 0 1-.098-.332l.018-.189a.442.442 0 0 1 .448-.404c.018 0 29.655 2.782 29.655 2.782a.47.47 0 0 1 .305.161c.072.09.108.207.099.332l-.018.189a.442.442 0 0 1-.449.404c-.018 0-29.655-2.782-29.655-2.782Z" fill="#333434"/><path d="m57.093 269.077 29.61 2.782-.018.188-29.61-2.781.018-.189Zm0-.897a.89.89 0 0 0-.888.817l-.018.188a.912.912 0 0 0 .207.655.93.93 0 0 0 .61.323l29.61 2.782h.08a.89.89 0 0 0 .888-.817l.019-.188a.912.912 0 0 0-.207-.655.93.93 0 0 0-.61-.323l-29.61-2.782h-.08Z" fill="#231815"/><path d="M56.672 273.501a.45.45 0 0 1-.404-.485l.018-.188a.464.464 0 0 1 .448-.413c.018 0 29.655 2.782 29.655 2.782a.465.465 0 0 1 .305.161c.08.09.108.206.099.332l-.018.188a.442.442 0 0 1-.449.404c-.018 0-29.654-2.781-29.654-2.781Z" fill="#333434"/><path d="m56.734 272.864 29.61 2.781-.018.189-29.61-2.782.018-.188Zm0-.898a.9.9 0 0 0-.897.817l-.018.188a.896.896 0 0 0 .808.978l29.61 2.782h.08a.89.89 0 0 0 .889-.817l.017-.188a.912.912 0 0 0-.206-.655.93.93 0 0 0-.61-.323l-29.61-2.782h-.08.017Z" fill="#231815"/><path d="M59.92 282.142a.42.42 0 0 1-.314-.135l-.135-.135a.46.46 0 0 1 0-.637l21.032-21.032a.453.453 0 0 1 .314-.134c.108 0 .233.045.314.134l.135.135a.46.46 0 0 1 .134.314.42.42 0 0 1-.134.314l-21.032 21.032a.456.456 0 0 1-.314.135v.009Z" fill="#333434"/><path d="m80.808 260.526.134.135-21.031 21.032-.135-.135 21.032-21.032Zm0-.897a.92.92 0 0 0-.637.26l-21.032 21.032a.893.893 0 0 0 0 1.265l.134.135c.171.17.395.26.638.26a.929.929 0 0 0 .637-.26l21.031-21.032a.885.885 0 0 0 .26-.637.926.926 0 0 0-.26-.637l-.134-.135a.921.921 0 0 0-.637-.26v.009Z" fill="#231815"/><path d="M62.602 284.833a.42.42 0 0 1-.314-.134l-.134-.135a.46.46 0 0 1 0-.637l21.032-21.032a.453.453 0 0 1 .314-.134c.107 0 .233.045.314.134l.134.135a.456.456 0 0 1 .135.314.42.42 0 0 1-.135.314L62.916 284.69a.455.455 0 0 1-.314.134v.009Z" fill="#333434"/><path d="m83.5 263.218.134.135-21.032 21.032-.134-.135L83.5 263.218Zm0-.897a.92.92 0 0 0-.637.26L61.83 283.613a.893.893 0 0 0 0 1.265l.134.135c.17.17.395.26.637.26a.929.929 0 0 0 .638-.26l21.031-21.032a.89.89 0 0 0 .26-.637.926.926 0 0 0-.26-.637l-.134-.135a.921.921 0 0 0-.637-.26v.009Z" fill="#231815"/><path d="M58.717 280.463a.47.47 0 0 1-.296-.17l-.116-.153a.446.446 0 0 1 .09-.628l23.67-18.008a.422.422 0 0 1 .268-.089h.063a.47.47 0 0 1 .296.17l.117.153a.446.446 0 0 1-.09.628l-23.67 18.008a.422.422 0 0 1-.269.089h-.063Z" fill="#333434"/><path d="m82.334 261.863.116.153-23.67 18.008-.116-.153 23.67-18.008Zm0-.897a.927.927 0 0 0-.539.179l-23.67 18.008a.926.926 0 0 0-.35.593.852.852 0 0 0 .18.664l.117.152c.179.233.44.35.717.35a.927.927 0 0 0 .539-.179l23.67-18.009a.92.92 0 0 0 .35-.592.851.851 0 0 0-.18-.664l-.117-.152a.886.886 0 0 0-.717-.35Z" fill="#231815"/><path d="M61.023 283.496a.478.478 0 0 1-.296-.17l-.116-.153a.447.447 0 0 1 .09-.628l23.67-18.008a.42.42 0 0 1 .268-.09h.063a.475.475 0 0 1 .296.171l.117.152a.446.446 0 0 1-.09.628l-23.67 18.008a.422.422 0 0 1-.269.09h-.063Z" fill="#333434"/><path d="m84.64 264.887.116.153-23.67 18.008-.117-.153 23.67-18.008Zm0-.897a.927.927 0 0 0-.54.179l-23.669 18.008a.926.926 0 0 0-.35.592.85.85 0 0 0 .18.664l.116.153c.18.233.44.35.718.35a.921.921 0 0 0 .538-.18l23.67-18.008a.923.923 0 0 0 .35-.592.852.852 0 0 0-.18-.664l-.116-.152a.886.886 0 0 0-.718-.35Z" fill="#231815"/><path d="M83.5 282.141a.423.423 0 0 1-.314-.134l-21.032-21.032a.457.457 0 0 1-.135-.314.42.42 0 0 1 .135-.314l.135-.135a.453.453 0 0 1 .314-.134c.107 0 .233.045.314.134l21.032 21.032c.18.18.18.458 0 .637l-.135.135a.46.46 0 0 1-.314.134v-.009Z" fill="#333434"/><path d="m62.603 260.526 21.032 21.032-.135.135-21.032-21.032.135-.135Zm0-.897a.921.921 0 0 0-.637.26l-.135.135a.887.887 0 0 0-.26.637.93.93 0 0 0 .26.637l21.032 21.032c.17.17.395.26.637.26a.929.929 0 0 0 .637-.26l.135-.135a.893.893 0 0 0 0-1.265L63.24 259.898a.883.883 0 0 0-.637-.26v-.009Z" fill="#231815"/><path d="M80.808 284.833a.42.42 0 0 1-.314-.134l-21.032-21.032a.444.444 0 0 1 0-.637l.135-.135a.453.453 0 0 1 .314-.134c.108 0 .233.045.314.134l21.032 21.032c.17.171.18.458 0 .637l-.135.135a.455.455 0 0 1-.314.134Z" fill="#333434"/><path d="m59.92 263.218 21.03 21.032-.134.135-21.032-21.032.135-.135Zm0-.897a.921.921 0 0 0-.638.26l-.134.135a.886.886 0 0 0-.26.637c0 .242.098.466.26.637l21.032 21.032c.17.17.394.26.637.26a.929.929 0 0 0 .637-.26l.135-.135a.893.893 0 0 0 0-1.265L60.556 262.59a.883.883 0 0 0-.638-.26v-.009Z" fill="#231815"/><path d="M84.747 280.284a.423.423 0 0 1-.27-.09l-23.93-17.658a.45.45 0 0 1-.179-.296.434.434 0 0 1 .08-.332l.118-.152a.454.454 0 0 1 .358-.18.44.44 0 0 1 .27.09l23.93 17.658a.455.455 0 0 1 .098.628l-.116.153a.452.452 0 0 1-.296.179h-.063Z" fill="#333434"/><path d="m60.934 262.016 23.93 17.658-.117.152-23.93-17.658.117-.152Zm0-.898a.885.885 0 0 0-.718.359l-.117.153a.92.92 0 0 0-.17.664.902.902 0 0 0 .358.592l23.93 17.658c.153.117.341.18.53.18.045 0 .09 0 .135-.009a.903.903 0 0 0 .592-.359l.116-.153a.901.901 0 0 0-.188-1.256l-23.93-17.658a.916.916 0 0 0-.53-.18l-.008.009Z" fill="#231815"/><path d="M82.486 283.344a.423.423 0 0 1-.27-.09l-23.93-17.658a.452.452 0 0 1-.098-.628l.117-.153a.456.456 0 0 1 .359-.179c.09 0 .188.027.269.089l23.93 17.659c.197.143.242.43.099.628l-.117.152a.45.45 0 0 1-.296.18h-.063Z" fill="#333434"/><path d="m58.672 265.075 23.93 17.659-.116.152-23.93-17.658.116-.153Zm0-.897a.898.898 0 0 0-.726.368l-.117.153a.902.902 0 0 0 .197 1.256l23.93 17.658c.162.117.35.179.53.179a.882.882 0 0 0 .718-.359l.116-.152a.921.921 0 0 0 .17-.664.866.866 0 0 0-.358-.592l-23.93-17.658a.915.915 0 0 0-.53-.18v-.009Z" fill="#231815"/><path d="M71.71 294.542c-12.275 0-22.261-9.987-22.261-22.261 0-12.275 9.986-22.261 22.26-22.261 12.275 0 22.262 9.986 22.262 22.261 0 12.274-9.987 22.261-22.261 22.261Zm0-38.977c-9.215 0-16.716 7.501-16.716 16.716s7.5 16.716 16.716 16.716c9.215 0 16.716-7.501 16.716-16.716s-7.501-16.716-16.716-16.716Z" fill="#333434"/><path d="M71.71 250.468c12.05 0 21.812 9.762 21.812 21.813 0 12.05-9.762 21.812-21.812 21.812s-21.813-9.762-21.813-21.812c0-12.051 9.763-21.813 21.813-21.813Zm0 38.977c9.475 0 17.164-7.68 17.164-17.164 0-9.485-7.68-17.165-17.164-17.165-9.484 0-17.165 7.68-17.165 17.165 0 9.484 7.68 17.164 17.165 17.164Zm0-39.874c-12.526 0-22.71 10.184-22.71 22.71 0 12.525 10.184 22.709 22.71 22.709 12.526 0 22.71-10.184 22.71-22.709 0-12.526-10.184-22.71-22.71-22.71Zm0 38.977c-8.973 0-16.268-7.295-16.268-16.267 0-8.973 7.295-16.268 16.268-16.268 8.972 0 16.267 7.295 16.267 16.268 0 8.972-7.295 16.267-16.267 16.267Z" fill="#231815"/><path d="M71.71 291.267c-10.471 0-18.986-8.515-18.986-18.986 0-10.472 8.515-18.987 18.986-18.987 10.47 0 18.986 8.515 18.986 18.987 0 10.471-8.515 18.986-18.986 18.986Zm0-33.235c-7.986 0-14.473 6.496-14.473 14.473s6.496 14.473 14.473 14.473c7.976 0 14.473-6.496 14.473-14.473s-6.497-14.473-14.473-14.473Z" fill="#333434"/><path d="M71.71 253.752c10.237 0 18.537 8.299 18.537 18.537s-8.3 18.538-18.537 18.538c-10.238 0-18.538-8.3-18.538-18.538s8.3-18.537 18.538-18.537Zm0 33.683c8.246 0 14.921-6.685 14.921-14.921 0-8.237-6.684-14.922-14.921-14.922-8.237 0-14.922 6.685-14.922 14.922 0 8.236 6.685 14.921 14.922 14.921Zm0-34.581c-10.714 0-19.435 8.713-19.435 19.435 0 10.723 8.712 19.435 19.435 19.435 10.722 0 19.434-8.712 19.434-19.435 0-10.722-8.712-19.435-19.434-19.435Zm0 33.684c-7.735 0-14.025-6.29-14.025-14.024 0-7.735 6.29-14.025 14.025-14.025 7.734 0 14.024 6.29 14.024 14.025 0 7.734-6.29 14.024-14.024 14.024Z" fill="#231815"/><path d="M71.71 276.982a4.526 4.526 0 0 1-4.522-4.522 4.526 4.526 0 0 1 4.522-4.522 4.526 4.526 0 0 1 4.522 4.522 4.526 4.526 0 0 1-4.522 4.522Z" fill="#333434"/><path d="M71.71 268.387a4.07 4.07 0 0 1 4.073 4.073 4.071 4.071 0 0 1-4.073 4.074 4.071 4.071 0 0 1-4.074-4.074 4.07 4.07 0 0 1 4.074-4.073Zm0-.898a4.97 4.97 0 1 0 0 9.943 4.97 4.97 0 0 0 0-9.943Z" fill="#231815"/><path d="M73.594 272.46a1.893 1.893 0 1 1-3.787 0 1.893 1.893 0 0 1 3.787 0Z" fill="#F590A8" stroke="#231815" stroke-width=".75" stroke-linecap="round" stroke-linejoin="round"/><path d="M80.09 248.88c-19.13-6.406-28.264 9.996-28.264 9.996-2.521 3.409 3.724 4.324 3.724 4.324s28.38 3.195 31.153 4.46c2.952 1.355 4.45 4.405 5.186 7.402.332 1.337.574 2.674.646 4.056.09 1.75-.126 3.822 2.288 3.777 2.306-.045 2.1-3.059 2.1-3.059 2.476-26.577-16.824-30.956-16.824-30.956h-.009Z" fill="#00698A" stroke="#231815" stroke-miterlimit="10"/><path d="M182.62 257.135h-.188a.449.449 0 0 0-.449.448v29.745c0 .247.201.448.449.448h.188a.449.449 0 0 0 .449-.448v-29.745a.449.449 0 0 0-.449-.448Z" fill="#333434"/><path d="M182.63 257.583v29.745h-.189v-29.745h.189Zm0-.897h-.189a.9.9 0 0 0-.897.897v29.745a.9.9 0 0 0 .897.897h.189a.9.9 0 0 0 .897-.897v-29.745a.9.9 0 0 0-.897-.897Z" fill="#231815"/><path d="M186.425 257.135h-.189a.448.448 0 0 0-.448.448v29.745c0 .247.2.448.448.448h.189a.449.449 0 0 0 .448-.448v-29.745a.449.449 0 0 0-.448-.448Z" fill="#333434"/><path d="M186.425 257.583v29.745h-.188v-29.745h.188Zm0-.897h-.188a.9.9 0 0 0-.898.897v29.745a.9.9 0 0 0 .898.897h.188a.9.9 0 0 0 .897-.897v-29.745a.9.9 0 0 0-.897-.897Z" fill="#231815"/><path d="M199.31 270.01h-29.745a.449.449 0 0 0-.448.449v.188c0 .248.201.449.448.449h29.745a.449.449 0 0 0 .448-.449v-.188a.449.449 0 0 0-.448-.449Z" fill="#333434"/><path d="M199.301 270.459v.189h-29.745v-.189h29.745Zm0-.897h-29.745a.9.9 0 0 0-.897.897v.189a.9.9 0 0 0 .897.897h29.745a.9.9 0 0 0 .897-.897v-.189a.9.9 0 0 0-.897-.897Z" fill="#231815"/><path d="M199.31 273.815h-29.745a.449.449 0 0 0-.448.449v.188c0 .248.201.449.448.449h29.745a.449.449 0 0 0 .448-.449v-.188a.449.449 0 0 0-.448-.449Z" fill="#333434"/><path d="M199.301 274.263v.189h-29.745v-.189h29.745Zm0-.897h-29.745a.9.9 0 0 0-.897.897v.189a.9.9 0 0 0 .897.897h29.745a.9.9 0 0 0 .897-.897v-.189a.9.9 0 0 0-.897-.897Z" fill="#231815"/><path d="M181.005 287.525a.449.449 0 0 1-.403-.485l2.781-29.609a.464.464 0 0 1 .162-.305.46.46 0 0 1 .287-.099c.018 0 .233.018.233.018a.45.45 0 0 1 .404.484l-2.782 29.61a.465.465 0 0 1-.161.305.464.464 0 0 1-.287.099c-.018 0-.234-.018-.234-.018Z" fill="#333434"/><path d="m183.832 257.467.188.018-2.781 29.609-.189-.018 2.782-29.609Zm0-.898a.9.9 0 0 0-.897.817l-2.782 29.61a.897.897 0 0 0 .808.978l.188.018h.081a.9.9 0 0 0 .897-.817l2.782-29.61a.897.897 0 0 0-.808-.978l-.188-.018h-.09.009Z" fill="#231815"/><path d="M184.792 287.875a.45.45 0 0 1-.404-.485l2.782-29.609a.467.467 0 0 1 .161-.305.464.464 0 0 1 .287-.099c.018 0 .234.018.234.018a.45.45 0 0 1 .404.484l-2.782 29.61a.466.466 0 0 1-.162.305.46.46 0 0 1-.287.099c-.018 0-.233-.018-.233-.018Z" fill="#333434"/><path d="m187.618 257.817.189.018-2.782 29.609-.188-.018 2.781-29.609Zm0-.898a.89.89 0 0 0-.888.817l-2.781 29.61a.911.911 0 0 0 .206.655.933.933 0 0 0 .61.323l.188.018h.081c.458 0 .853-.35.888-.817l2.782-29.61a.916.916 0 0 0-.206-.655.935.935 0 0 0-.611-.323l-.188-.018h-.081Z" fill="#231815"/><path d="M169.754 269.714a.471.471 0 0 1-.306-.161.437.437 0 0 1-.098-.332l.018-.189a.442.442 0 0 1 .448-.404c.018 0 29.655 2.782 29.655 2.782a.47.47 0 0 1 .305.161c.072.09.108.207.099.332l-.018.189a.443.443 0 0 1-.449.404c-.018 0-29.654-2.782-29.654-2.782Z" fill="#333434"/><path d="m169.817 269.077 29.609 2.782-.018.188-29.609-2.781.018-.189Zm0-.897a.89.89 0 0 0-.889.817l-.018.188a.91.91 0 0 0 .207.655c.152.18.368.296.61.323l29.61 2.782h.08a.89.89 0 0 0 .889-.817l.018-.188a.91.91 0 0 0-.817-.978l-29.61-2.782h-.08Z" fill="#231815"/><path d="M169.395 273.501a.45.45 0 0 1-.404-.485l.018-.188a.467.467 0 0 1 .161-.305.424.424 0 0 1 .287-.108c.018 0 29.655 2.782 29.655 2.782a.449.449 0 0 1 .404.484l-.018.189a.468.468 0 0 1-.162.305.424.424 0 0 1-.287.107c-.018 0-29.654-2.781-29.654-2.781Z" fill="#333434"/><path d="m169.458 272.864 29.609 2.781-.018.189-29.609-2.782.018-.188Zm0-.898a.902.902 0 0 0-.898.817l-.018.188a.896.896 0 0 0 .808.978l29.61 2.782h.08a.89.89 0 0 0 .889-.817l.018-.188a.91.91 0 0 0-.207-.655.929.929 0 0 0-.61-.323l-29.61-2.782h-.08.018Z" fill="#231815"/><path d="M172.643 282.142a.42.42 0 0 1-.314-.135l-.135-.135a.462.462 0 0 1 0-.637l21.032-21.032a.453.453 0 0 1 .314-.134c.108 0 .233.045.314.134l.135.135a.445.445 0 0 1 0 .637l-21.032 21.032a.456.456 0 0 1-.314.135Z" fill="#333434"/><path d="m193.531 260.526.135.135-21.032 21.032-.135-.135 21.032-21.032Zm0-.897a.92.92 0 0 0-.637.26l-21.032 21.032a.893.893 0 0 0 0 1.265l.135.135c.17.17.394.26.637.26a.93.93 0 0 0 .637-.26l21.032-21.032a.89.89 0 0 0 .26-.637.928.928 0 0 0-.26-.637l-.135-.135a.882.882 0 0 0-.637-.26v.009Z" fill="#231815"/><path d="M175.326 284.833a.421.421 0 0 1-.315-.134l-.134-.135a.46.46 0 0 1 0-.637l21.032-21.032a.451.451 0 0 1 .314-.134c.107 0 .233.045.314.134l.134.135c.18.179.18.458 0 .637l-21.031 21.032a.457.457 0 0 1-.314.134Z" fill="#333434"/><path d="m196.223 263.218.134.135-21.031 21.032-.135-.135 21.032-21.032Zm0-.897a.92.92 0 0 0-.637.26l-21.032 21.032a.893.893 0 0 0 0 1.265l.135.135c.17.17.394.26.637.26a.93.93 0 0 0 .637-.26l21.032-21.032a.891.891 0 0 0 .26-.637.928.928 0 0 0-.26-.637l-.135-.135a.922.922 0 0 0-.637-.26v.009Z" fill="#231815"/><path d="M171.44 280.463a.472.472 0 0 1-.296-.17l-.116-.153a.446.446 0 0 1 .089-.628l23.67-18.008a.423.423 0 0 1 .269-.089h.063c.117.017.225.08.296.17l.117.153a.446.446 0 0 1-.09.628l-23.67 18.008a.42.42 0 0 1-.269.089h-.063Z" fill="#333434"/><path d="m195.056 261.863.117.153-23.67 18.008-.116-.153 23.669-18.008Zm0-.897a.934.934 0 0 0-.547.179l-23.67 18.008a.928.928 0 0 0-.35.593.85.85 0 0 0 .18.664l.116.152c.18.233.44.35.718.35a.929.929 0 0 0 .539-.179l23.669-18.009a.898.898 0 0 0 .171-1.256l-.117-.152a.921.921 0 0 0-.592-.35h-.126.009Z" fill="#231815"/><path d="M173.747 283.496a.48.48 0 0 1-.297-.17l-.116-.153a.446.446 0 0 1 .09-.628l23.669-18.008a.443.443 0 0 1 .27-.09c.134 0 .269.063.358.18l.117.152a.449.449 0 0 1 .09.332.472.472 0 0 1-.171.296l-23.669 18.008a.425.425 0 0 1-.27.09h-.062l-.009-.009Z" fill="#333434"/><path d="m197.362 264.887.117.153-23.67 18.008-.116-.153 23.669-18.008Zm0-.897a.928.928 0 0 0-.538.179l-23.67 18.008a.928.928 0 0 0-.35.592.848.848 0 0 0 .18.664l.116.153c.18.233.44.35.718.35a.923.923 0 0 0 .539-.18l23.669-18.008a.921.921 0 0 0 .35-.592.853.853 0 0 0-.179-.664l-.117-.152a.884.884 0 0 0-.718-.35Z" fill="#231815"/><path d="M196.223 282.141a.424.424 0 0 1-.314-.134l-21.032-21.032a.46.46 0 0 1-.134-.314c0-.117.045-.233.134-.314l.135-.135a.453.453 0 0 1 .314-.134c.108 0 .233.045.314.134l21.032 21.032a.453.453 0 0 1 0 .637l-.135.135a.46.46 0 0 1-.314.134v-.009Z" fill="#333434"/><path d="m175.326 260.526 21.032 21.032-.135.135-21.032-21.032.135-.135Zm0-.897a.92.92 0 0 0-.637.26l-.135.135a.89.89 0 0 0-.26.637.93.93 0 0 0 .26.637l21.032 21.032c.17.17.395.26.637.26a.928.928 0 0 0 .637-.26l.135-.135a.893.893 0 0 0 0-1.265l-21.032-21.032a.884.884 0 0 0-.637-.26v-.009Z" fill="#231815"/><path d="M193.531 284.833a.42.42 0 0 1-.314-.134l-21.032-21.032a.445.445 0 0 1 0-.637l.135-.135a.46.46 0 0 1 .314-.134c.117 0 .233.045.314.134l21.032 21.032a.453.453 0 0 1 0 .637l-.135.135a.453.453 0 0 1-.314.134Z" fill="#333434"/><path d="m172.643 263.218 21.032 21.032-.135.135-21.032-21.032.135-.135Zm0-.897a.919.919 0 0 0-.637.26l-.135.135a.888.888 0 0 0-.26.637.93.93 0 0 0 .26.637l21.032 21.032c.17.17.395.26.637.26a.928.928 0 0 0 .637-.26l.135-.135a.893.893 0 0 0 0-1.265L173.28 262.59a.884.884 0 0 0-.637-.26v-.009Z" fill="#231815"/><path d="M197.47 280.284a.422.422 0 0 1-.269-.09l-23.93-17.658a.45.45 0 0 1-.099-.628l.117-.152a.453.453 0 0 1 .359-.18c.089 0 .188.027.269.09l23.93 17.658a.456.456 0 0 1 .099.628l-.117.153a.454.454 0 0 1-.296.179h-.063Z" fill="#333434"/><path d="m173.657 262.016 23.93 17.658-.117.152-23.93-17.658.117-.152Zm0-.898a.884.884 0 0 0-.718.359l-.117.153a.922.922 0 0 0-.17.664.867.867 0 0 0 .359.592l23.93 17.658c.161.117.35.18.529.18a.9.9 0 0 0 .727-.368l.116-.153a.904.904 0 0 0-.197-1.256l-23.93-17.658a.914.914 0 0 0-.529-.18v.009Z" fill="#231815"/><path d="M195.209 283.344a.424.424 0 0 1-.269-.09l-23.93-17.658a.45.45 0 0 1-.179-.296.435.435 0 0 1 .08-.332l.117-.153a.456.456 0 0 1 .359-.179c.09 0 .188.027.269.089l23.93 17.659c.197.143.242.43.099.628l-.117.152a.45.45 0 0 1-.296.18h-.063Z" fill="#333434"/><path d="m171.396 265.075 23.93 17.659-.117.152-23.93-17.658.117-.153Zm0-.897a.896.896 0 0 0-.727.368l-.117.153a.877.877 0 0 0-.161.664.9.9 0 0 0 .359.592l23.93 17.658a.883.883 0 0 0 1.247-.18l.116-.152a.92.92 0 0 0 .171-.664.868.868 0 0 0-.359-.592l-23.93-17.658a.916.916 0 0 0-.529-.18v-.009Z" fill="#231815"/><path d="M184.433 294.542c-12.275 0-22.261-9.987-22.261-22.261 0-12.275 9.986-22.261 22.261-22.261 12.275 0 22.261 9.986 22.261 22.261 0 12.274-9.986 22.261-22.261 22.261Zm0-38.977c-9.215 0-16.716 7.501-16.716 16.716s7.501 16.716 16.716 16.716 16.716-7.501 16.716-16.716-7.501-16.716-16.716-16.716Z" fill="#333434"/><path d="M184.433 250.468c12.05 0 21.812 9.762 21.812 21.813 0 12.05-9.762 21.812-21.812 21.812s-21.813-9.762-21.813-21.812c0-12.051 9.763-21.813 21.813-21.813Zm0 38.977c9.475 0 17.165-7.68 17.165-17.164 0-9.485-7.681-17.165-17.165-17.165-9.484 0-17.165 7.68-17.165 17.165 0 9.484 7.681 17.164 17.165 17.164Zm0-39.874c-12.526 0-22.71 10.184-22.71 22.71 0 12.525 10.184 22.709 22.71 22.709 12.526 0 22.71-10.184 22.71-22.709 0-12.526-10.184-22.71-22.71-22.71Zm0 38.977c-8.973 0-16.268-7.295-16.268-16.267 0-8.973 7.295-16.268 16.268-16.268s16.267 7.295 16.267 16.268c0 8.972-7.294 16.267-16.267 16.267Z" fill="#231815"/><path d="M184.433 291.267c-10.471 0-18.986-8.515-18.986-18.986 0-10.472 8.515-18.987 18.986-18.987s18.986 8.515 18.986 18.987c0 10.471-8.515 18.986-18.986 18.986Zm0-33.235c-7.986 0-14.473 6.496-14.473 14.473s6.496 14.473 14.473 14.473 14.473-6.496 14.473-14.473-6.496-14.473-14.473-14.473Z" fill="#333434"/><path d="M184.433 253.752c10.238 0 18.537 8.299 18.537 18.537s-8.299 18.538-18.537 18.538-18.538-8.3-18.538-18.538 8.3-18.537 18.538-18.537Zm0 33.683c8.246 0 14.921-6.685 14.921-14.921 0-8.237-6.684-14.922-14.921-14.922-8.237 0-14.922 6.685-14.922 14.922 0 8.236 6.685 14.921 14.922 14.921Zm0-34.581c-10.714 0-19.435 8.713-19.435 19.435 0 10.723 8.712 19.435 19.435 19.435 10.722 0 19.435-8.712 19.435-19.435 0-10.722-8.713-19.435-19.435-19.435Zm0 33.684c-7.735 0-14.024-6.29-14.024-14.024 0-7.735 6.289-14.025 14.024-14.025 7.734 0 14.024 6.29 14.024 14.025 0 7.734-6.29 14.024-14.024 14.024Z" fill="#231815"/><path d="M184.433 276.982a4.523 4.523 0 1 0-.001-9.045 4.523 4.523 0 0 0 .001 9.045Z" fill="#333434"/><path d="M184.433 268.387a4.07 4.07 0 0 1 4.073 4.073 4.07 4.07 0 0 1-4.073 4.074 4.071 4.071 0 0 1-4.074-4.074 4.07 4.07 0 0 1 4.074-4.073Zm0-.898a4.97 4.97 0 1 0-.002 9.944 4.97 4.97 0 0 0 .002-9.944Z" fill="#231815"/><path d="M184.433 274.802a2.342 2.342 0 1 0 0-4.684 2.342 2.342 0 0 0 0 4.684Z" fill="#333434"/><path d="M184.433 270.567a1.893 1.893 0 1 1 0 3.786 1.893 1.893 0 0 1 0-3.786Zm0-.898a2.794 2.794 0 0 0-2.79 2.791 2.787 2.787 0 0 0 2.79 2.79 2.788 2.788 0 0 0 2.791-2.79 2.789 2.789 0 0 0-2.791-2.791Zm.825-2.009c0 1.103-.897 2-2.001 2h-42.871a2.003 2.003 0 0 1-2.001-2c0-1.104.898-2.001 2.001-2.001h42.871c1.104 0 2.001.897 2.001 2.001Z" fill="#231815"/><path d="M179.354 283.308c-.7 0-1.462-.054-2.377-.162l-35.801-1.22c-.198 0-4.693-.233-7.78-3.607-2-2.189-2.934-5.177-2.754-8.892 0-.081.61-4.513 5.608-4.513.323 0 .664.018 1.023.054l42.889-2.19c.251-.018.502-.027.762-.027 5.321 0 9.79 4.155 10.193 9.467.422 5.625-3.813 10.542-9.439 10.964l-.448.036c-.655.054-1.221.099-1.876.099v-.009Z" fill="#888"/><path d="M180.933 263.2a9.784 9.784 0 0 1 9.745 9.054c.404 5.383-3.634 10.076-9.027 10.48-.852.062-1.507.125-2.297.125-.628 0-1.346-.045-2.324-.161l-35.836-1.23s-10.651-.439-10.103-12.032c0 0 .502-4.082 5.159-4.082.305 0 .628.018.969.053l42.961-2.189c.251-.018.493-.027.736-.027m0-.897c-.27 0-.539.009-.808.027l-42.871 2.189a9.487 9.487 0 0 0-.996-.054c-4.316 0-5.841 3.186-6.057 4.872v.063c-.179 3.841.781 6.936 2.872 9.215 3.212 3.509 7.895 3.742 8.093 3.751l35.801 1.229c.915.108 1.678.162 2.395.162.718 0 1.257-.045 1.92-.099l.449-.036a10.599 10.599 0 0 0 7.295-3.679 10.65 10.65 0 0 0 2.557-7.761c-.413-5.536-5.087-9.879-10.641-9.879h-.009Z" fill="#231815"/><path d="M134.787 273.321c-1.579 0-2.808-.816-2.808-1.848s1.238-1.83 2.808-1.83l35.344.08c.708 0 1.381.171 1.902.476.592.35.915.834.906 1.373 0 1.032-1.238 1.83-2.808 1.83l-35.344-.081Z" fill="#888"/><path d="m134.788 270.091 35.334.081c1.301 0 2.36.628 2.36 1.4 0 .762-1.059 1.381-2.36 1.381h-.009l-35.334-.08c-1.31 0-2.36-.628-2.36-1.4 0-.763 1.059-1.382 2.36-1.382m0-.897c-1.858 0-3.258.978-3.258 2.279s1.4 2.288 3.258 2.297l35.334.081c1.866 0 3.266-.978 3.266-2.279 0-.691-.413-1.337-1.131-1.759-.583-.341-1.337-.538-2.126-.538l-35.334-.081h-.009Z" fill="#231815"/><path d="M173.675 272.702c.296 4.011 3.795 7.017 7.806 6.721 4.011-.296 7.017-3.796 6.721-7.806-.296-4.011-3.796-7.017-7.807-6.721-4.01.296-7.016 3.796-6.72 7.806Z" fill="#F590A8" stroke="#231815" stroke-width=".75" stroke-linecap="round" stroke-linejoin="round"/><path d="m87.753 206.906-5.797 23.742s-1.319 4.037 0 4.755l7.887 3.123 6.326-21.66s3.885-6.326 6.236-10.929c0 0 2.916-6.577 2.494-6.577-4.45 0-11.583-6.765-11.583-6.765s-4.567.395-4.621 1.552c-.045 1.157-.942 12.75-.942 12.75v.009Z" fill="#00698A" stroke="#231815" stroke-miterlimit="10"/><path d="M97.273 200.859c-.063 4.558-6.433 9.008-15.433 8.263-1.723-.143-3.132-3.696-3.132-8.263 0-4.568 1.436-7.995 3.132-8.264 7.582-1.185 15.478 4.441 15.433 8.264Z" fill="#00698A" stroke="#231815" stroke-miterlimit="10"/><path d="M81.947 192.586s-.071 0-.098.009c-1.696.269-3.132 3.696-3.132 8.263s1.409 8.121 3.132 8.264h.098v-16.545.009Z" fill="#F590A8" stroke="#231815" stroke-width=".75" stroke-linecap="round" stroke-linejoin="round"/><path d="M80.189 193.994c-.88 1.454-1.48 3.921-1.48 6.864s.592 5.482 1.48 6.936v-13.8Z" fill="#fff" stroke="#231815" stroke-linecap="round" stroke-linejoin="round"/><path d="M102.585 194.748c-3.778-1.212-5.285-1.319-6.72-1.858-1.472-.457-2.827-.978-4.21-.924-1.515.063-3.66 0-4.315.853.108 4.315-.08 14.813 0 16.384 7.456 2.036 10.462 1.265 12.149.807 1.22-.493 3.248-2.369 4.791-5.751 0 0 2.549-8.147-1.686-9.511h-.009Z" fill="#00698A" stroke="#231815" stroke-miterlimit="10"/><path d="M92.365 204.25c0 .826-.664 1.49-1.49 1.49h-4.1c-.826 0-1.49-.664-1.49-1.49 0-.825.664-1.489 1.49-1.489h4.1c.826 0 1.49.664 1.49 1.489Z" fill="#F590A8" stroke="#231815" stroke-width=".75" stroke-linecap="round" stroke-linejoin="round"/><path d="M107.923 176.399c-1.471 0-2.737-3.464-3.284-6.685-.305-1.803-.404-3.535-.269-4.881.152-1.57.601-2.432 1.319-2.548.027 0 .135-.009.161-.009 1.472 0 2.737 3.463 3.284 6.684.575 3.401.494 7.179-1.04 7.439-.027 0-.135.009-.162.009l-.009-.009Z" fill="#888"/><path d="M105.842 162.707c.987 0 2.234 2.763 2.844 6.317.619 3.651.314 6.747-.682 6.917h-.09c-.987 0-2.234-2.763-2.844-6.316-.619-3.652-.314-6.748.682-6.918h.09Zm0-.897c-.081 0-.162 0-.234.018-.942.161-1.507 1.157-1.687 2.952-.134 1.381-.035 3.158.279 5.006.197 1.176 1.319 7.062 3.723 7.062.081 0 .162 0 .234-.018 2.611-.449 1.543-7.187 1.408-7.959-.197-1.175-1.319-7.061-3.723-7.061Z" fill="#231815"/><path d="M107.923 176.399c-.161 0-.331-.045-.493-.126a.426.426 0 0 1-.242-.377c0-.161.072-.314.206-.403.503-.323.888-2.773.278-6.389-.556-3.248-1.606-5.554-2.306-5.913a.445.445 0 0 1-.242-.377c0-.161.072-.314.206-.403a.949.949 0 0 1 .359-.144c.027 0 .135-.018.162-.018 1.471 0 2.736 3.463 3.284 6.685.574 3.4.502 7.178-1.041 7.438-.027 0-.135.009-.162.009l-.009.018Z" fill="#888"/><path d="M105.842 162.707c.987 0 2.243 2.763 2.844 6.316.619 3.652.314 6.748-.682 6.918h-.081a.615.615 0 0 1-.296-.081c.835-.529 1.059-3.445.476-6.837-.547-3.203-1.624-5.769-2.548-6.236a.529.529 0 0 1 .197-.08h.09Zm0-.898c-.081 0-.162 0-.233.018-.18.027-.359.099-.53.207a.889.889 0 0 0-.413.798c.018.323.207.61.494.754.413.206 1.48 2.117 2.073 5.59.592 3.463.215 5.617-.108 5.958a.885.885 0 0 0-.404.789.892.892 0 0 0 .503.745c.224.117.466.17.699.17.081 0 .162 0 .234-.018 2.611-.448 1.543-7.187 1.408-7.958-.197-1.176-1.319-7.062-3.723-7.062v.009Z" fill="#231815"/><path d="M102.925 199.817c-1.005 0-1.929-1.058-2.144-2.458-.108-.7-.027-1.391.224-1.947.278-.61.754-1.005 1.301-1.095.072-.009.153-.018.225-.018 1.005 0 1.929 1.059 2.144 2.459.135.888-.036 1.776-.467 2.36-.278.376-.646.619-1.058.682a1.893 1.893 0 0 1-.225.017Z" fill="#333434"/><path d="M102.53 194.748c.781 0 1.526.888 1.705 2.073.198 1.265-.323 2.404-1.157 2.53-.054 0-.108.009-.153.009-.78 0-1.525-.889-1.705-2.073-.197-1.265.324-2.405 1.158-2.53.054 0 .108-.009.152-.009Zm0-.897c-.098 0-.197 0-.287.018-.699.107-1.301.601-1.642 1.345-.287.637-.385 1.418-.26 2.199.251 1.642 1.346 2.835 2.593 2.835.099 0 .198 0 .287-.018.7-.108 1.301-.601 1.642-1.346.288-.637.386-1.417.261-2.198-.252-1.642-1.346-2.835-2.594-2.835Z" fill="#231815"/><path d="M103.374 199.485c-.709 0-1.364-.637-1.633-1.023-.395-.547-.727-1.435-.475-2.279.188-.646.771-1.39 1.489-1.516l5.778-.996s.099-.009.126-.009c.781 0 1.265 1.193 1.445 2.207.125.754.134 1.741-.225 2.253a.771.771 0 0 1-.511.34s-5.698.978-5.779.996a1.442 1.442 0 0 1-.197.018l-.018.009Z" fill="#333434"/><path d="M108.641 194.12c.386 0 .817.798.996 1.839.189 1.077.018 2.01-.377 2.073l-5.778.996c-.036 0-.081.009-.117.009-.493 0-1.022-.485-1.274-.835-.377-.52-.601-1.256-.412-1.884.143-.467.61-1.104 1.13-1.193l5.778-.996h.045m0-.898c-.062 0-.134 0-.197.018l-5.778.996c-1.005.171-1.651 1.185-1.84 1.831-.296.996.09 2.037.548 2.674.403.556 1.166 1.202 2 1.202.09 0 .18 0 .27-.027l5.778-.996c.341-.063.942-.314 1.131-1.382.089-.493.08-1.103-.027-1.731-.216-1.248-.826-2.585-1.885-2.585Z" fill="#231815"/><path d="M109.045 198.929c-1.005 0-1.92-1.014-2.171-2.404-.126-.7-.063-1.391.179-1.956.26-.62.727-1.032 1.274-1.131.09-.018.171-.027.26-.027 1.005 0 1.921 1.014 2.172 2.405.278 1.534-.359 2.88-1.454 3.077-.089.018-.17.027-.26.027v.009Z" fill="#333434"/><path d="M108.578 193.878c.772 0 1.525.861 1.732 2.037.224 1.265-.26 2.404-1.086 2.557-.063.009-.117.018-.179.018-.772 0-1.517-.862-1.732-2.037-.224-1.265.26-2.405 1.086-2.557.062-.009.116-.018.179-.018Zm0-.898c-.117 0-.224.009-.341.027-1.337.243-2.135 1.822-1.812 3.598.287 1.607 1.39 2.773 2.611 2.773.116 0 .233-.009.341-.027 1.337-.242 2.135-1.821 1.812-3.598-.287-1.606-1.391-2.773-2.611-2.773Z" fill="#231815"/><path d="M86.604 200.311s-5.222 1.131-4.262 4.576c.503 1.795 6.093 3.455 7.941 2.432.79-.44.915-4.908.198-6.496-.377-.826-2.387-.871-3.868-.512h-.009Z" fill="#F590A8" stroke="#231815" stroke-width=".75" stroke-linecap="round" stroke-linejoin="round"/><path d="M99.346 197.637c-.35 0-.593-.215-.638-.251a.375.375 0 0 1-.098-.135l-1.508-3.185c-1.346-2.396.664-6.092.754-6.254l7.393-18.932a.459.459 0 0 1 .422-.287h.081a.83.83 0 0 1 .619.43c.287.53-.027 1.31-.09 1.463l-7.5 19.354c-.692 1.839-.35 3.248-.342 3.257.539 1.113 1.48 3.069 1.579 3.248.189.341.144.691.054.897a.38.38 0 0 1-.099.135.927.927 0 0 1-.619.251l-.008.009Z" fill="#888"/><path d="M105.662 169.041c.691.117.197 1.274.197 1.274l-7.5 19.372c-.754 2.019-.36 3.536-.36 3.536s1.48 3.104 1.625 3.355c.143.252.035.476.035.476a.456.456 0 0 1-.314.134c-.188 0-.332-.134-.332-.134l-1.507-3.185c-1.247-2.235.736-5.842.736-5.842l7.42-18.986Zm0-.897a.89.89 0 0 0-.834.574l-7.403 18.933c-.332.61-2.09 4.127-.727 6.63l1.499 3.159a.96.96 0 0 0 .197.269c.09.09.44.377.951.377.341 0 .655-.126.916-.368a.975.975 0 0 0 .197-.269 1.425 1.425 0 0 0-.063-1.31c-.099-.18-.861-1.768-1.552-3.204-.054-.278-.207-1.444.35-2.925l7.501-19.363c.099-.224.431-1.121.054-1.821a1.287 1.287 0 0 0-.942-.664c-.054 0-.099-.009-.153-.009l.009-.009Z" fill="#231815"/><path d="M100.117 275.816c2.064 4.818 5.025 9.601 8.704 9.951h40.009s13.638 1.049 16.545-9.951h-65.258Z" fill="#F590A8" stroke="#231815" stroke-width=".75" stroke-linecap="round" stroke-linejoin="round"/><path d="M153.998 282.321h-42.144c-1.822 0-3.302.179-5.007-.7-1.705-.879-2.943-2.297-3.912-3.876-2.001-3.23-2.925-7.08-3.75-10.722-2.926-12.813-4.47-11.988-8.238-18.251-3.768-6.263.88-14.517 3.625-23.75 1.23-4.137 1.526-6.793 1.48-8.47-.322-1.014-.941-2.01-1.731-2.585-.359-.26-.727-.529-1.13-.708-.996-.44-3.087-1.14-4.173-1.221-1.947-.143-3.006.287-6.98 3.535-7.546 6.156-13.585 18.053-14.123 28.201 0 0-.673 3.482 2.79 2.899 3.463-.575 22.764 1.489 26.433 20.466 0 0 4.128 17.91 11.683 18.636h40.009s7.303.557 12.355-3.454h-7.187Z" fill="#00698A" stroke="#231815" stroke-miterlimit="10"/><path d="M219.821 270.378c-3.768-.96-3.239-4.809-3.239-4.809-.26-16.33-11.431-25.572-11.431-25.572-16.321-12.49-36.582-3.491-36.582-3.491-5.105 2.127-3.275-7.115-3.275-7.115h-7.51l-.538 3.598c-.081.512-.153 1.032-.224 1.543l-18.645-.762v.861h-5.94s-.772 5.007 1.247 5.967 10.417 2.979 10.695 9.906c.278 6.927-16.222 5.895-15.765 23.481 0 0 89.772-1.292 91.62-2.001 2.746-1.059-.395-1.615-.395-1.615l-.018.009Z" fill="#00698A" stroke="#231815" stroke-miterlimit="10"/><path d="M206.766 235.699c-.287 0-.512-.018-.637-.036h-23.033a1.603 1.603 0 0 1-1.606-1.597 1.61 1.61 0 0 1 1.606-1.606h23.158a.95.95 0 0 1 .225.018c.053 0 .152.018.278.018.466 0 .87-.09 1.067-.243.045-.035.144-.107.171-.394.269-2.27 0-8.462-.009-8.524a1.61 1.61 0 0 1 1.525-1.678c.933 0 1.633.673 1.669 1.525.027.664.287 6.55-.009 9.045-.125 1.058-.61 1.947-1.408 2.557-.979.753-2.172.906-3.006.906l.009.009Z" fill="#333434"/><path d="M209.583 222.106c.61 0 1.131.484 1.158 1.103.009.261.287 6.461 0 8.973-.108.942-.539 1.723-1.229 2.252-.898.691-2.019.817-2.737.817-.26 0-.476-.018-.592-.027h-23.087a1.16 1.16 0 0 1-1.157-1.158c0-.637.52-1.157 1.157-1.157h23.158c.054 0 .108 0 .162.009.072.009.197.018.341.018.404 0 .987-.063 1.337-.341.134-.108.296-.278.341-.691.278-2.333 0-8.533 0-8.596a1.153 1.153 0 0 1 1.103-1.202h.054m0-.898h-.089a2.06 2.06 0 0 0-1.427.664 2.088 2.088 0 0 0-.538 1.481c0 .063.278 6.209.009 8.452-.009.09-.027.117-.027.117-.054.027-.332.116-.772.116-.099 0-.179 0-.233-.009a2.862 2.862 0 0 0-.278-.017h-23.159a2.06 2.06 0 0 0-2.055 2.054 2.06 2.06 0 0 0 2.055 2.055h23.033c.152.018.368.027.637.027.906 0 2.207-.171 3.284-1.005.888-.682 1.436-1.678 1.579-2.862.296-2.531.045-8.452.009-9.116a2.054 2.054 0 0 0-2.055-1.957h.027Z" fill="#231815"/><path d="M189.96 235.089a1.605 1.605 0 0 1-1.606-1.606v-7.501a1.605 1.605 0 1 1 3.212 0v7.501c0 .888-.718 1.606-1.606 1.606Z" fill="#333434"/><path d="M189.951 224.833c.637 0 1.158.521 1.158 1.158v7.501a1.16 1.16 0 0 1-1.158 1.157 1.16 1.16 0 0 1-1.157-1.157v-7.501c0-.637.52-1.158 1.157-1.158Zm0-.897a2.06 2.06 0 0 0-2.055 2.055v7.501c0 1.13.925 2.055 2.055 2.055a2.06 2.06 0 0 0 2.055-2.055v-7.501a2.06 2.06 0 0 0-2.055-2.055Z" fill="#231815"/><path d="M203.482 239.737s8.407 7.124 11 16.86c0 0 .646 2.162 1.158 7.357.502 5.195.861 6.649 3.75 6.927 0 0-3.75.727-4.235-2.88-.556-4.181-.888-17.147-11.673-28.273v.009Z" fill="#F590A8" stroke="#231815" stroke-width=".75" stroke-linecap="round" stroke-linejoin="round"/><path d="M219.821 270.378c-3.768-.96-3.239-4.809-3.239-4.809-.26-16.33-11.431-25.572-11.431-25.572-16.321-12.49-36.582-3.491-36.582-3.491-5.105 2.127-3.275-7.115-3.275-7.115h-7.51l-.538 3.598c-.081.512-.153 1.032-.224 1.543l-18.645-.762v.861h-5.94s-.772 5.007 1.247 5.967 10.417 2.979 10.695 9.906c.278 6.927-16.222 5.895-15.765 23.481 0 0 9.763-.143 22.907-.359 1.266-10.596 6.55-28.201 27.573-30.92 22.611-2.925 32.024 13.881 35.442 29.61 3.356-.116 5.429-.233 5.689-.332 2.746-1.059-.395-1.615-.395-1.615l-.009.009Z" fill="#00698A" stroke="#231815" stroke-miterlimit="10"/><path d="M179.085 242.716c-21.023 2.727-26.308 20.323-27.573 30.919 4.065-.063 62.36-1.292 63.015-1.31-3.419-15.729-12.831-32.534-35.442-29.609Z" fill="#00698A" stroke="#231815" stroke-miterlimit="10"/><path d="M180.072 245.327c-20.018 2.593-20.942 23.221-20.879 28.093 17.622-.305 37.299-.682 47.923-1.023-1.974-13.019-8.695-29.448-27.044-27.07Z" fill="#00698A" stroke="#231815" stroke-miterlimit="10"/><path d="M197.039 241.226c0 .826-.664 1.49-1.489 1.49h-4.101a1.486 1.486 0 0 1-1.489-1.49c0-.825.664-1.489 1.489-1.489h4.101c.825 0 1.489.664 1.489 1.489Z" fill="#F590A8" stroke="#231815" stroke-width=".75" stroke-linecap="round" stroke-linejoin="round"/><path d="M201.266 240.607c-.018-.063-.045-.117-.063-.17a.068.068 0 0 0-.018-.036l-.081-.162c0-.009-.009-.018-.018-.027a3.249 3.249 0 0 0-.484-.664c-.045-.054-.099-.098-.144-.143l-.009-.009a5.748 5.748 0 0 0-.843-.646c-.063-.036-.117-.072-.18-.108a8.526 8.526 0 0 0-.897-.449h-.009c-.054-.027-.108-.044-.17-.071-.225-.09-.431-.162-.611-.225h-.027c-.035-.009-.071-.027-.107-.036-.009 0-.018 0-.027-.009l-.099-.026h-.018c-.098-.027-.179-.054-.251-.072h-.027c-.018 0-.027 0-.045-.009h-.107a8.096 8.096 0 0 0-1.346-.198 7.158 7.158 0 0 0-.619-.009h-.243c-.17.009-.332.036-.484.063-.036 0-.063.009-.099.018-.036 0-.072.018-.108.027-.044.009-.089.027-.134.036a.322.322 0 0 0-.099.036l-.135.054c-.017.009-.044.018-.062.027a.482.482 0 0 0-.117.062c-.018 0-.027.018-.045.027-.045.027-.09.063-.134.099-.009 0-.018.018-.027.027a.427.427 0 0 0-.09.09c-.009.009-.018.027-.027.036-.027.044-.063.08-.081.125-.027.063-.054.135-.08.198 0 .018-.009.035-.018.053-.018.063-.045.126-.063.189 0 .018 0 .027-.009.045-.027.08-.045.17-.063.251v.036l-.054.242c0 .018 0 .036-.009.054-.036.197-.063.404-.09.619v.036l-.026.323c-.153 1.875.08 4.127.619 4.423.062.036.134.063.206.099.027.009.045.018.072.027.054.018.098.036.161.054.027 0 .054.018.09.027a.956.956 0 0 0 .171.036.32.32 0 0 1 .089.018l.189.027a.24.24 0 0 1 .08.009c.081 0 .162.017.243.017h.045c.314.018.655 0 1.004-.026 2.324-.225 5.249-1.427 5.608-2.71.171-.619.144-1.167-.018-1.642l-.062-.063Z" fill="#F590A8" stroke="#231815" stroke-width=".75" stroke-linecap="round" stroke-linejoin="round"/><path d="M180.413 237.951c-.35 0-.556-.027-.556-.027H143.32c-.466-.054-1.067-.098-1.776-.152-3.517-.243-8.82-.619-9.87-3.248-.494-1.248.045-2.737 1.66-4.541 0-.107.036-.215.108-.296a6.655 6.655 0 0 1 1.848-1.471c2.073-1.14 4.594-1.346 7.008-1.409.341 0 .69-.009 1.031-.009 1.876 0 3.769.117 5.59.233 1.804.117 3.679.225 5.519.225 1.148 0 2.198-.045 3.194-.135 5.805-.529 11.566-1.974 17.129-3.365l.547-.134c2.387-.601 4.971-1.176 7.654-1.364.188-.009.619-.036.619-.036h.089c2.782.547 2.961 2.243 2.952 2.719.153.493.781 3.015 0 7.887-.762 4.728-4.944 5.096-6.209 5.096v.027Z" fill="#333434"/><path d="M183.589 222.689c2.854.565 2.594 2.342 2.594 2.342s.861 2.449 0 7.761c-.7 4.316-4.397 4.72-5.761 4.72-.314 0-.502-.018-.502-.018h-36.591c-3.006-.404-16.177-.099-9.502-7.349.036-.036-.018-.09-.036-.135a6.315 6.315 0 0 1 1.723-1.372c2.037-1.113 4.531-1.292 6.801-1.355.341 0 .682-.009 1.023-.009 3.724 0 7.403.457 11.117.457 1.077 0 2.154-.036 3.239-.134 6.03-.557 11.889-2.046 17.748-3.509 2.486-.619 5.016-1.175 7.582-1.354.18-.009.386-.027.592-.036m0-.898h-.045c-.215.009-.421.027-.61.036-2.718.189-5.32.772-7.734 1.382l-.538.135c-5.554 1.39-11.297 2.826-17.075 3.356-.987.089-2.019.134-3.159.134-1.83 0-3.687-.117-5.491-.224-1.83-.117-3.733-.234-5.626-.234-.35 0-.691 0-1.041.009-2.467.063-5.051.279-7.205 1.463a7.431 7.431 0 0 0-1.974 1.57.873.873 0 0 0-.197.395c-1.66 1.893-2.198 3.499-1.642 4.899 1.148 2.889 6.631 3.275 10.256 3.526.7.045 1.301.09 1.687.144h36.662c.089 0 .287.018.547.018 1.355 0 5.832-.395 6.649-5.473.762-4.693.215-7.295.018-8.004.018-.96-.628-2.593-3.32-3.123a1.1 1.1 0 0 0-.171-.017l.009.008Z" fill="#231815"/><path d="M69.709 241.262c2.584-.844 4.423-16.779 17.595-25.698 0 0 3.311-3.221-.897-2.727-1.184.52-2.692 1.354-4.37 2.727-6.684 5.456-12.185 15.406-13.728 24.666.233.799.664 1.274 1.4 1.032Z" fill="#F590A8" stroke="#231815" stroke-width=".75" stroke-linecap="round" stroke-linejoin="round"/><path d="M90.947 249.221a.455.455 0 0 1-.323-.135c-6.362-6.505-2.728-15.845.197-23.346.898-2.306 1.75-4.487 2.199-6.326.879-3.571.161-4.468-1.023-5.949a.464.464 0 0 1-.054-.511.451.451 0 0 1 .386-.243h.054c.116.018 2.8.386 3.804 3.751.485 1.624.126 4.217-1.193 8.685-.62 2.1-1.346 4.146-2.037 6.12-2.378 6.765-4.442 12.606-1.633 17.272a.444.444 0 0 1-.108.583.448.448 0 0 1-.278.09l.009.009Z" fill="#333434"/><path d="M92.338 213.169s2.494.314 3.427 3.427c.485 1.606.036 4.289-1.193 8.425-2.746 9.233-7.393 17.488-3.625 23.751-8.093-8.282.592-21.445 2.512-29.251.934-3.804.117-4.8-1.13-6.361m0-.898a.896.896 0 0 0-.7 1.454l.018.018c1.175 1.471 1.768 2.207.942 5.563-.448 1.812-1.292 3.975-2.18 6.272-2.97 7.618-6.667 17.111-.099 23.822.17.18.404.269.646.269a.905.905 0 0 0 .772-1.364c-2.701-4.486-.673-10.237 1.669-16.895.7-1.983 1.417-4.038 2.045-6.146 1.373-4.612 1.714-7.205 1.194-8.937-1.095-3.634-4.056-4.047-4.181-4.065h-.108l-.018.009Z" fill="#231815"/><path d="M112.473 277.332c-2.217 0-4.092-.179-5.734-.547-1.507-.341-2.755-1.328-3.508-2.791-.933-1.803-1.023-4.091-.234-5.966.844-2.01 2.665-3.598 4.774-4.146a9.069 9.069 0 0 1 1.337-.233c.601-.063 1.211-.081 1.794-.099.934-.027 1.804-.054 2.665-.233 1.84-.404 3.473-1.543 5.043-2.647.422-.296.843-.592 1.265-.87 2.557-1.696 4.755-1.777 7.304-1.885.682-.027 1.39-.053 2.135-.116 1.167-.099 2.423-.189 3.67-.189 1.247 0 2.234.081 3.212.252 4.935.843 7.421 4.647 6.828 10.435-.691 6.675-8.039 7.169-13.414 7.519-.771.054-1.507.099-2.18.161-1.346.126-2.791.305-4.298.485-3.365.413-7.169.87-10.677.87h.018Z" fill="#333434"/><path d="M133.002 258.05c1.05 0 2.109.063 3.14.242 5.213.889 6.972 4.989 6.461 9.951-.745 7.214-9.825 6.774-15.191 7.286-4.415.413-9.924 1.355-14.93 1.355-1.992 0-3.904-.153-5.635-.539-3.509-.789-4.702-5.105-3.437-8.147.79-1.884 2.495-3.374 4.478-3.885a8.757 8.757 0 0 1 1.274-.224c1.498-.153 3.032-.018 4.513-.341 2.423-.53 4.396-2.208 6.469-3.58 3.132-2.073 5.761-1.642 9.233-1.929 1.202-.099 2.423-.189 3.634-.189m0-.897c-1.265 0-2.53.09-3.706.188-.736.063-1.435.09-2.117.117-2.504.099-4.872.197-7.537 1.956-.431.287-.853.583-1.283.879-1.607 1.131-3.132 2.19-4.882 2.575-.816.18-1.677.207-2.584.225-.592.018-1.211.036-1.83.098-.52.054-.978.135-1.409.252-2.234.583-4.181 2.279-5.078 4.414-.835 2.001-.736 4.433.251 6.344.816 1.579 2.171 2.647 3.813 3.015 1.678.376 3.58.556 5.833.556 3.526 0 7.348-.467 10.722-.87 1.516-.189 2.952-.359 4.289-.485.664-.063 1.399-.108 2.171-.161 5.527-.368 13.1-.871 13.827-7.923.628-6.057-2.001-10.041-7.196-10.929-1.005-.17-2.082-.251-3.293-.251h.009Z" fill="#231815"/><path d="M153.181 213.994c-5.276-3.275-10.695-6.613-16.778-7.86-6.084-1.247-13.065 0-17.129 4.711-2.979 3.454-3.966 8.201-4.164 12.759-.475 11.332-2.171 23.32-2.916 34.643 8.623 1.274 22.863.79 31.548.081-2.082-7.25-4.172-14.5-6.254-21.75-.843-2.934-1.687-5.877-2.234-8.874-.135-.717-1.22-7.016.072-6.738.188.045.52.951.628 1.122.709 1.157 1.651 2.234 2.503 3.284 1.723 2.135 3.58 4.172 5.644 5.984 3.661 3.195 8.075 5.671 12.885 6.389 4.809.718 10.013-.485 13.575-3.787 3.832-3.562 5.321-8.972 5.967-14.167.646-5.196 1.768-10.427 3.365-15.406-16.429-1.283-34.033-2.19-50.507-2.522-.009 1.382-.117 2.692.126 4.047" fill="#00698A"/><path d="M153.181 213.994c-5.276-3.275-10.695-6.613-16.778-7.86-6.084-1.247-13.065 0-17.129 4.711-2.979 3.454-3.966 8.201-4.164 12.759-.475 11.332-2.171 23.32-2.916 34.643 8.623 1.274 22.863.79 31.548.081-2.082-7.25-4.172-14.5-6.254-21.75-.843-2.934-1.687-5.877-2.234-8.874-.135-.717-1.22-7.016.072-6.738.188.045.52.951.628 1.122.709 1.157 1.651 2.234 2.503 3.284 1.723 2.135 3.58 4.172 5.644 5.984 3.661 3.195 8.075 5.671 12.885 6.389 4.809.718 10.013-.485 13.575-3.787 3.832-3.562 5.321-8.972 5.967-14.167.646-5.196 1.768-10.427 3.365-15.406-16.429-1.283-34.033-2.19-50.507-2.522-.009 1.382-.117 2.692.126 4.047" stroke="#231815" stroke-miterlimit="10"/><path d="M166.766 217.233c-1.23 2.755-2.351 5.653-2.288 8.668.062 3.015 1.57 6.173 4.333 7.375 2.127.925 3.392-.269 4.514-1.991a20.057 20.057 0 0 0 2.602-5.851c.125-.466 1.041-5.078.646-5.114a15.889 15.889 0 0 1-3.894-.906c-1.974-.727-3.939-1.454-5.913-2.181Z" fill="#F590A8" stroke="#231815" stroke-width=".75" stroke-linecap="round" stroke-linejoin="round"/><path d="M129.135 166.215a3.257 3.257 0 1 0 0-6.515 3.257 3.257 0 0 0 0 6.515Z" fill="#333434"/><path d="M129.134 160.15a2.807 2.807 0 0 1 2.809 2.808 2.808 2.808 0 1 1-5.617 0 2.806 2.806 0 0 1 2.808-2.808Zm0-.898a3.707 3.707 0 0 0 0 7.412 3.707 3.707 0 0 0 0-7.412Z" fill="#231815"/><path d="M137.246 167.776a3.262 3.262 0 0 1-3.257-3.257 3.263 3.263 0 0 1 3.257-3.257 3.263 3.263 0 0 1 3.257 3.257 3.263 3.263 0 0 1-3.257 3.257Z" fill="#333434"/><path d="M137.246 161.711a2.806 2.806 0 0 1 2.808 2.808 2.808 2.808 0 1 1-5.617 0 2.807 2.807 0 0 1 2.809-2.808Zm0-.898a3.707 3.707 0 0 0 0 7.412 3.707 3.707 0 0 0 0-7.412Z" fill="#231815"/><path d="M153.962 185.731c-8.551 10.596-23.589 15.163-36.59 11.108-.673-.207-1.337-.44-1.983-.664-2.001-.691-3.895-1.346-5.707-1.301-1.669.045-3.679 1.202-3.679 2.584a2.5 2.5 0 0 1-2.485 2.503 2.493 2.493 0 0 1-2.495-2.485c0-2.154 1.032-4.137 2.917-5.599a9.817 9.817 0 0 1 5.607-1.992c2.719-.072 5.142.763 7.475 1.57.637.224 1.238.431 1.839.619 5.321 1.66 11.359 1.633 17.021-.09 5.662-1.713 10.695-5.051 14.195-9.385" fill="#F590A8"/><path d="M153.962 185.731c-8.551 10.596-23.589 15.163-36.59 11.108-.673-.207-1.337-.44-1.983-.664-2.001-.691-3.895-1.346-5.707-1.301-1.669.045-3.679 1.202-3.679 2.584a2.5 2.5 0 0 1-2.485 2.503 2.493 2.493 0 0 1-2.495-2.485c0-2.154 1.032-4.137 2.917-5.599a9.817 9.817 0 0 1 5.607-1.992c2.719-.072 5.142.763 7.475 1.57.637.224 1.238.431 1.839.619 5.321 1.66 11.359 1.633 17.021-.09 5.662-1.713 10.695-5.051 14.195-9.385" stroke="#231815" stroke-width=".75" stroke-linecap="round" stroke-linejoin="round"/><path d="M191.512 194.416c-1.758 0-3.571-.557-5.177-1.041-1.148-.35-2.414-.879-3.042-2.145-.385-.78-.35-2.018.099-2.88.036-.071.072-.134.108-.197-1.265-.171-2.441-.826-3.221-1.822a4.983 4.983 0 0 1-.88-4.324c-1.758-.117-3.373-1.292-3.993-2.925-.628-1.642-.161-3.634 1.077-4.882a6.812 6.812 0 0 0-.305-.206c-2.252-1.525-4.585-3.095-3.993-6.433h-.287c-1.669 0-3.311-.808-4.289-2.109-.987-1.31-1.283-3.06-.834-4.711a4.922 4.922 0 0 1-.521.027c-.888 0-1.974-.233-2.907-.628-1.319-.556-2.306-1.543-2.71-2.718a3.535 3.535 0 0 1 .315-2.97c-1.364-.207-2.612-1.086-3.222-2.324-.87-1.759-.233-4.388.88-6.245a5.992 5.992 0 0 0-.96-.063c-.171 0-.88.018-1.05.018-.987 0-2.037-.117-3.006-.96-1.095-.96-1.705-2.423-1.669-3.867a2.921 2.921 0 0 1-.484.036c-1.095 0-2.145-.494-2.8-1.31-.7-.88-.933-2.118-.61-3.24.018-.071.045-.143.072-.206-1.463-.251-2.728-1.436-2.988-2.907-.269-1.516.565-3.123 1.911-3.831-.673-1.23-.619-2.818.197-3.984.682-.969 1.876-1.57 3.105-1.57h.099a4.126 4.126 0 0 1-.279-2.226c.171-1.166.79-2.171 1.696-2.754.584-.377 1.274-.566 2.01-.566 1.265 0 2.459.566 3.203 1.463 1.059-2.055 3.473-3.508 5.958-3.508 2.037 0 3.643.987 4.469 2.736a5.979 5.979 0 0 1 2.557-.556c2.736 0 5.285 1.642 6.245 3.966a6.871 6.871 0 0 1 2.494-.458c1.176 0 2.324.287 3.32.835 1.75.96 3.033 2.71 3.437 4.666a6.377 6.377 0 0 1 1.606-.198c1.283 0 2.566.377 3.607 1.068 1.516 1.005 2.566 2.701 2.826 4.495.879-.143 1.777-.278 2.692-.278.386 0 .745.027 1.085.072 3.374.448 4.236 3.033 5.07 5.527l.027.09a6.792 6.792 0 0 1 2.916-.646c1.929 0 3.751.753 4.998 2.063 1.848 1.938 2.315 5.052 1.256 7.493.242-.036.493-.054.754-.054 1.516 0 3.023.664 4.019 1.776 1.14 1.265 1.642 3.06 1.391 4.792a4.683 4.683 0 0 1 1.983-.449 4.46 4.46 0 0 1 2.037.494c1.175.619 2.01 1.776 2.279 3.059a3.616 3.616 0 0 1 2.494-1.023c.225 0 .44.027.655.072 1.597.332 2.836 1.929 2.764 3.562-.036.844-.368 1.588-.691 2.315-.144.314-.278.628-.395.951-.359 1.014-.439 2.091-.52 3.239-.045.602-.09 1.221-.18 1.822-.619 4.181-3.598 8.048-7.573 9.843-.242.107-.583.197-.978.296-.448.117-1.372.35-1.507.556-.036.117 0 .655.027 1.014.045.61.09 1.238-.036 1.651a9.965 9.965 0 0 1-3.984 5.348c-1.57 1.032-3.499 1.606-5.446 1.606a9.652 9.652 0 0 1-3.051-.485c-1.444 3.248-4.899 5.474-8.56 5.474-.475 0-.951-.036-1.417-.117-1.203.933-2.567 1.391-4.173 1.391Z" fill="#333434"/><path d="M163.006 116.856c1.804 0 3.491.871 4.235 2.916.853-.502 1.813-.735 2.791-.735 2.575 0 5.213 1.615 5.985 4.118a6.485 6.485 0 0 1 2.754-.61c1.077 0 2.154.26 3.105.781 1.776.978 3.042 2.835 3.293 4.845a5.84 5.84 0 0 1 1.965-.332 6.1 6.1 0 0 1 3.356.996c1.543 1.023 2.566 2.799 2.682 4.648 1.023-.171 2.055-.35 3.087-.35.341 0 .691.018 1.032.063 3.338.439 3.966 3.068 4.899 5.814a6.262 6.262 0 0 1 3.176-.844c1.732 0 3.473.664 4.675 1.929 1.965 2.064 2.27 5.51.691 7.887a4.481 4.481 0 0 1 1.642-.305c1.373 0 2.763.602 3.688 1.633 1.301 1.454 1.668 3.634 1.031 5.483.727-.646 1.705-.987 2.683-.987a3.94 3.94 0 0 1 1.831.439c1.426.754 2.297 2.432 2.099 4.029.44-1.148 1.66-1.938 2.88-1.938.189 0 .377.018.566.054 1.39.287 2.467 1.678 2.404 3.104-.053 1.104-.691 2.091-1.058 3.132-.575 1.642-.476 3.427-.727 5.141-.61 4.136-3.526 7.788-7.313 9.502-.601.269-2.378.494-2.692 1.032-.224.377.153 2.1-.053 2.764-.629 2.063-2.001 3.921-3.805 5.105-1.534 1.005-3.365 1.525-5.195 1.525a9.227 9.227 0 0 1-3.302-.601c-1.274 3.32-4.773 5.59-8.309 5.59a7.404 7.404 0 0 1-1.534-.152c-1.274 1.049-2.638 1.417-4.047 1.417-1.66 0-3.382-.511-5.051-1.023-1.095-.332-2.216-.798-2.773-1.911-.475-.942-.206-3.113 1.167-3.338a4.478 4.478 0 0 1-.691.054c-1.355 0-2.701-.628-3.544-1.696-.987-1.247-1.23-3.041-.611-4.504a3.86 3.86 0 0 1-.323.018c-1.659 0-3.284-1.086-3.876-2.647-.628-1.66-.036-3.697 1.382-4.764-2.692-1.867-5.491-3.266-4.459-7.116a4.658 4.658 0 0 1-.862.081c-1.507 0-3.023-.718-3.93-1.929-1.103-1.463-1.211-3.419-.502-5.07-.359.144-.772.198-1.211.198-.943 0-1.983-.278-2.737-.592-1.095-.467-2.073-1.328-2.459-2.45-.385-1.13-.098-2.512.853-3.239-.117.009-.225.018-.341.018-1.418 0-2.818-.843-3.446-2.118-.924-1.875.063-4.737 1.203-6.334-.557-.18-1.122-.216-1.687-.216-.35 0-.709.018-1.05.018-.942 0-1.848-.098-2.71-.852-1.139-1.005-1.714-2.62-1.453-4.118-.323.116-.655.17-.996.17-.933 0-1.867-.413-2.45-1.149-.628-.78-.807-1.875-.529-2.835.081-.26.188-.511.332-.745h-.135c-1.462 0-2.853-1.139-3.104-2.584-.27-1.489.709-3.095 2.144-3.544-.87-1.104-.915-2.781-.108-3.93.611-.87 1.678-1.382 2.737-1.382.341 0 .673.054.996.162-1.301-1.508-.915-4.137.763-5.213a3.257 3.257 0 0 1 1.767-.503c1.346 0 2.719.736 3.293 1.974.763-2.413 3.419-4.028 5.877-4.028m0-.898c-2.431 0-4.8 1.319-6.047 3.23a4.72 4.72 0 0 0-3.114-1.175c-.825 0-1.606.224-2.252.637-1.014.655-1.705 1.777-1.902 3.069a4.664 4.664 0 0 0 .099 1.875c-1.185.144-2.279.781-2.943 1.723-.835 1.175-.96 2.754-.413 4.064-1.292.88-2.055 2.522-1.777 4.083.27 1.489 1.436 2.719 2.872 3.158-.27 1.194 0 2.477.753 3.401.745.924 1.92 1.48 3.15 1.48h.045c.089 1.409.744 2.791 1.812 3.724 1.077.942 2.225 1.077 3.302 1.077h1.283c-.87 1.74-1.489 4.172-.556 6.047.583 1.176 1.696 2.064 2.961 2.432a3.998 3.998 0 0 0-.072 2.799c.449 1.292 1.525 2.378 2.961 2.988.969.413 2.099.655 3.042.664-.279 1.606.08 3.239 1.04 4.513 1.014 1.355 2.692 2.217 4.424 2.279-.305 3.204 2.019 4.837 4.145 6.272-1.085 1.364-1.444 3.311-.816 4.953.619 1.633 2.153 2.845 3.876 3.15-.242 1.471.135 3.032 1.068 4.217a5.467 5.467 0 0 0 2.916 1.875c-.359.951-.35 2.153.054 2.952.708 1.409 2.072 1.992 3.311 2.369 1.633.502 3.481 1.068 5.311 1.068 1.633 0 3.042-.449 4.289-1.364a9.1 9.1 0 0 0 1.301.098c3.697 0 7.196-2.171 8.802-5.383.898.26 1.84.386 2.809.386 2.028 0 4.047-.593 5.689-1.678a10.373 10.373 0 0 0 4.163-5.59c.143-.485.099-1.131.054-1.813a10.81 10.81 0 0 1-.036-.744c.278-.135.852-.279 1.184-.359.422-.108.781-.198 1.05-.323 4.118-1.858 7.187-5.859 7.833-10.184.09-.628.144-1.247.189-1.858.08-1.112.161-2.162.502-3.122.108-.296.242-.601.377-.924.341-.763.682-1.553.727-2.477.08-1.875-1.283-3.634-3.123-4.019a3.428 3.428 0 0 0-.745-.081c-.807 0-1.597.26-2.252.7-.412-1.131-1.229-2.118-2.315-2.692a4.79 4.79 0 0 0-2.243-.547c-.502 0-1.005.071-1.48.224.045-1.624-.503-3.23-1.562-4.415-1.085-1.211-2.709-1.929-4.36-1.929h-.081c.799-2.485.224-5.374-1.606-7.304-1.337-1.399-3.275-2.207-5.321-2.207-.924 0-1.821.171-2.647.485-.843-2.504-1.83-4.998-5.312-5.456a9.549 9.549 0 0 0-1.148-.071c-.79 0-1.579.098-2.324.206-.377-1.75-1.454-3.365-2.943-4.361a7.082 7.082 0 0 0-5.132-1.032c-.521-1.893-1.822-3.571-3.554-4.522a7.33 7.33 0 0 0-3.535-.888c-.771 0-1.534.117-2.261.35-1.139-2.279-3.724-3.858-6.487-3.858a6.4 6.4 0 0 0-2.351.43c-.942-1.669-2.602-2.611-4.675-2.611l-.009.009Z" fill="#231815"/><path d="M146.479 124.259c2.153-.754 4.666-.359 6.487 1.023 1.669 1.274 2.835 3.49 2.728 5.617-.09 1.839-1.75 3.715-3.715 3.427-.018 1.095-.736 2.145-1.759 2.549a2.842 2.842 0 0 1-3.023-.655c.017 1.094-.629 2.162-1.598 2.665a3.041 3.041 0 0 1-3.104-.225c.242 1.427-.467 2.97-1.696 3.715-1.229.745-2.925.664-4.082-.206-.44 2.368-3.509 3.795-5.608 2.611.125 1.372-.575 2.781-1.741 3.517-1.247.781-2.701.655-3.975.027.063.879-.637 1.749-1.391 2.135a2.716 2.716 0 0 1-2.413.018c-1.068 1.167-2.907 1.902-4.334.781-.763-.601-1.122-1.678-.87-2.62-.97-.09-1.571-1.158-1.651-2.127-.153-1.866 1.067-3.759 2.826-4.378" fill="#333434"/><path d="M146.479 124.259c2.153-.754 4.666-.359 6.487 1.023 1.669 1.274 2.835 3.49 2.728 5.617-.09 1.839-1.75 3.715-3.715 3.427-.018 1.095-.736 2.145-1.759 2.549a2.842 2.842 0 0 1-3.023-.655c.017 1.094-.629 2.162-1.598 2.665a3.041 3.041 0 0 1-3.104-.225c.242 1.427-.467 2.97-1.696 3.715-1.229.745-2.925.664-4.082-.206-.44 2.368-3.509 3.795-5.608 2.611.125 1.372-.575 2.781-1.741 3.517-1.247.781-2.701.655-3.975.027.063.879-.637 1.749-1.391 2.135a2.716 2.716 0 0 1-2.413.018c-1.068 1.167-2.907 1.902-4.334.781-.763-.601-1.122-1.678-.87-2.62-.97-.09-1.571-1.158-1.651-2.127-.153-1.866 1.067-3.759 2.826-4.378" stroke="#231815" stroke-linecap="round" stroke-linejoin="round"/><path d="M178.367 192.478c-.96 0-1.929-.117-2.88-.35a11.9 11.9 0 0 1-7.402-5.438 11.93 11.93 0 0 1-1.391-9.08 11.902 11.902 0 0 1 5.437-7.402 1.235 1.235 0 0 1 1.705.421 1.235 1.235 0 0 1-.421 1.705 9.442 9.442 0 0 0-4.307 5.868 9.418 9.418 0 0 0 1.103 7.196 9.442 9.442 0 0 0 5.868 4.307 9.42 9.42 0 0 0 7.197-1.103c4.486-2.719 5.93-8.587 3.212-13.074-2.019-3.337-5.967-5.123-9.807-4.441a1.241 1.241 0 0 1-1.436-1.005 1.241 1.241 0 0 1 1.005-1.436c4.845-.852 9.807 1.391 12.364 5.599 3.428 5.662 1.615 13.056-4.046 16.483a11.95 11.95 0 0 1-6.201 1.741v.009Z" fill="#FFE600" stroke="#231815" stroke-miterlimit="10"/></g><path d="M26.547 344.522h-5.824v.644h5.824v-.644Zm-5.824 2.38h5.824v-.644h-5.824v.644Zm0 1.778h5.824v-.672h-5.824v.672Zm-1.61 1.68v-7.014h9.1v6.944h-1.666v-.406h-5.824v.476h-1.61Zm7.672-10.584v1.092H20.47v-1.092h6.314Zm-.014 2.842h-6.286v-1.106h6.286v1.106Zm-8.596-4.662h10.892v5.012h-1.68v-3.836h-7.602v3.85h-1.61v-5.026Zm21.28 2.492h2.996a14.213 14.213 0 0 1-1.652-1.26c-.42.448-.868.868-1.344 1.26Zm-.588 1.246v-.812c-.434.308-.91.602-1.386.854-.21-.294-.686-.798-1.022-1.092-.154.518-.28 1.022-.42 1.456.714 1.078.854 2.086.854 2.884 0 .924-.154 1.526-.56 1.848-.196.168-.448.266-.742.308-.224.042-.532.042-.812.042-.014-.406-.126-1.022-.336-1.442.21.028.364.028.518.014a.454.454 0 0 0 .322-.112c.154-.126.21-.434.21-.854 0-.644-.112-1.568-.784-2.534.224-.84.476-1.988.672-2.912h-1.022v11.004h-1.386v-12.488h2.842l.224-.056 1.036.602c-.182.658-.392 1.4-.588 2.128 1.596-.826 3.066-2.128 3.85-3.402l1.596.56c-.084.14-.168.294-.266.434 1.036.84 2.562 1.666 3.934 2.114a7.609 7.609 0 0 0-.63 1.582 16.88 16.88 0 0 1-1.988-1.036v.91h-4.116Zm3.57 1.82v1.288h.98v-1.288h-.98Zm-1.204 2.394v-3.514h3.472v3.514h-3.472Zm-2.814-2.394v1.288h.938v-1.288h-.938Zm-1.19 2.394v-3.514h3.374v3.514h-3.374Zm1.092.154 1.456.308c-.084.28-.196.56-.308.826.49.322 1.036.714 1.33 1.008l-.84 1.106c-.238-.28-.672-.644-1.106-.966a7.132 7.132 0 0 1-2.002 2.086c-.224-.28-.756-.826-1.078-1.05 1.232-.728 2.128-1.904 2.548-3.318Zm3.864-.014 1.498.21a7.54 7.54 0 0 1-.322 1.134c.784.546 1.694 1.204 2.17 1.68l-.98 1.12c-.392-.42-1.078-.994-1.778-1.512-.42.7-.938 1.288-1.554 1.736-.21-.28-.742-.84-1.064-1.05 1.092-.714 1.764-1.89 2.03-3.318Zm12.39-5.824h5.67s-.014.574-.042.798c-.28 5.572-.56 7.672-1.176 8.4-.42.546-.826.7-1.428.784-.518.07-1.386.07-2.24.028-.028-.504-.252-1.246-.574-1.722.882.07 1.708.07 2.072.07.294 0 .462-.042.658-.224.42-.434.7-2.268.924-6.426h-3.92c-.224 2.898-1.204 6.3-5.138 8.526-.266-.42-.896-1.05-1.302-1.358 3.472-1.89 4.41-4.718 4.648-7.168h-4.214v-1.708h4.284v-2.884h1.778v2.884Z" fill="#231815"/><g clip-path="url(#clip2_799_40508)"><path d="M72.784 335.49c.85 0 2.2 2.79 2.91 3.15.49.25 2.39-.54 2.78-.16.39.38-.17 2.53.08 3.05.35.7 3.14 1.8 3.14 2.64 0 .87-2.86 2.13-3.23 2.85-.26.5.42 2.5.02 2.89-.4.39-2.52-.26-3.05-.01-.68.32-1.77 2.94-2.57 2.94-.8 0-2.04-2.63-2.73-2.96-.52-.25-2.53.46-2.93.07-.4-.39.31-2.39.05-2.9-.36-.71-3.11-1.95-3.11-2.8 0-.85 2.65-1.98 2.98-2.66.26-.53-.42-2.61-.01-3.02.41-.41 2.36.3 2.86.04.71-.36 1.675-3.11 2.525-3.11l.285-.01Z" fill="#00698A" stroke="#231815" stroke-miterlimit="10"/></g><g clip-path="url(#clip3_799_40508)"><path d="M93.345 335.49c.85 0 2.2 2.79 2.91 3.15.49.25 2.39-.54 2.78-.16.39.38-.17 2.53.08 3.05.35.7 3.14 1.8 3.14 2.64 0 .87-2.86 2.13-3.23 2.85-.26.5.42 2.5.02 2.89-.4.39-2.52-.26-3.05-.01-.68.32-1.77 2.94-2.57 2.94-.8 0-2.04-2.63-2.73-2.96-.52-.25-2.53.46-2.93.07-.4-.39.31-2.39.05-2.9-.36-.71-3.11-1.95-3.11-2.8 0-.85 2.65-1.98 2.98-2.66.26-.53-.42-2.61-.01-3.02.41-.41 2.36.3 2.86.04.71-.36 1.97-3.11 2.82-3.11l-.01-.01Z" fill="#00698A" stroke="#231815" stroke-miterlimit="10"/></g><g clip-path="url(#clip4_799_40508)"><path d="M113.905 335.49c.85 0 2.2 2.79 2.91 3.15.49.25 2.39-.54 2.78-.16.39.38-.17 2.53.08 3.05.35.7 3.14 1.8 3.14 2.64 0 .87-2.86 2.13-3.23 2.85-.26.5.42 2.5.02 2.89-.4.39-2.52-.26-3.05-.01-.68.32-1.77 2.94-2.57 2.94-.8 0-2.04-2.63-2.73-2.96-.52-.25-2.53.46-2.93.07-.4-.39.31-2.39.05-2.9-.36-.71-3.11-1.95-3.11-2.8 0-.85 2.65-1.98 2.98-2.66.26-.53-.42-2.61-.01-3.02.41-.41 2.36.3 2.86.04.71-.36 1.97-3.11 2.82-3.11l-.01-.01Z" fill="#00698A" stroke="#231815" stroke-miterlimit="10"/></g><path d="m165.733 346.322 1.484.504c-.574.784-1.4 1.764-2.058 2.338-.28-.266-.896-.714-1.26-.938a9.44 9.44 0 0 0 1.834-1.904Zm4.676.672 1.204-.7c.63.644 1.526 1.554 1.988 2.128l-1.288.784c-.42-.56-1.26-1.526-1.904-2.212Zm.392-3.206v-.518h-3.598v.518h3.598Zm0 1.456v-.532h-3.598v.532h3.598Zm-6.552-6.342v3.108c0 .378-.014.784-.028 1.204a7.623 7.623 0 0 0 1.204-.728c-.266-.224-.56-.462-.826-.644l.84-.742c.266.168.588.392.868.602.21-.21.406-.434.574-.672h-2.142v-1.246h2.884c.112-.294.224-.588.308-.882h-3.682Zm5.292 2.128h-.938c-.266.434-.56.854-.91 1.26h2.702a7.67 7.67 0 0 1-.854-1.26Zm3.08 0h-1.568c.21.28.462.546.742.798.294-.266.616-.574.826-.798Zm.07 0 .91.672c-.294.28-.63.56-.952.798.42.266.868.504 1.33.658a4.81 4.81 0 0 0-.966 1.176 6.639 6.639 0 0 1-.756-.406v2.296h-2.45v1.792c0 .686-.126 1.022-.644 1.246-.476.21-1.106.21-1.946.21-.098-.42-.336-.966-.518-1.33.518.014 1.092.014 1.274.014.168 0 .224-.056.224-.196v-1.736h-2.38v-2.31c-.266.182-.546.35-.84.504a3.555 3.555 0 0 0-.77-.91c-.14 2.03-.63 4.396-2.044 5.95-.21-.308-.84-.91-1.148-1.106.924-1.022 1.344-2.324 1.54-3.626-.504.308-.994.602-1.484.868l-.462-1.498c.546-.224 1.302-.602 2.1-1.008.014-.364.014-.728.014-1.078v-.476l-1.232.56c-.14-.714-.476-1.918-.77-2.814l1.232-.49c.266.784.588 1.792.77 2.478v-3.766h4.648l-.28-.84 1.694-.336c.14.364.28.784.406 1.176h4.578v1.4h-5.264l.98.126c-.084.266-.182.504-.28.756h4.438v1.246h-.952Zm7.728 8.162-1.26-.7c.49-.504.952-1.316 1.204-2.002l1.246.546c-.294.714-.686 1.596-1.19 2.156Zm4.368-4.522v-2.716h1.176v2.716h-1.176Zm3.346-2.856v3.136c0 .588-.084.854-.49 1.036-.392.182-.91.182-1.638.182-.056-.336-.238-.77-.406-1.078.448.014.882.014 1.036 0 .14-.014.182-.042.182-.168v-3.108h1.316Zm-4.746 4.606 1.05-.658c.434.364 1.05.924 1.344 1.288l-1.078.728c-.28-.392-.854-.952-1.316-1.358Zm-1.764-2.24h1.4v-.392h-1.386c0 .126 0 .266-.014.392Zm1.4-1.442h-1.386v.35h1.386v-.35Zm1.19-.812v3.234c0 .476-.084.658-.406.798-.28.14-.728.14-1.316.14-.028-.266-.168-.574-.28-.812.28.014.574.014.672.014.098 0 .14-.028.14-.14v-.28h-1.484c-.112.504-.322.966-.742 1.33-.196-.224-.714-.63-.98-.784.602-.462.644-1.078.644-1.68v-1.82h3.752Zm-.476 6.272h1.54c.364 0 .448-.112.49-.84.266.182.798.336 1.148.406-.14 1.19-.49 1.498-1.498 1.498h-1.862c-1.414 0-1.75-.322-1.75-1.4v-1.33h1.358v1.316c0 .322.084.35.574.35Zm2.674-1.26 1.19-.532c.518.658 1.134 1.554 1.414 2.156l-1.26.588c-.238-.574-.826-1.526-1.344-2.212Zm-3.024-6.272h2.142a18.048 18.048 0 0 1-1.148-.588c-.322.21-.644.406-.994.588Zm-3.64-1.708v1.694c1.47-.364 3.108-.938 4.158-1.694h-4.158Zm5.698.28-.14.14a17.324 17.324 0 0 0 3.962 1.19c-.308.28-.686.742-.868 1.134a20.442 20.442 0 0 1-2.212-.742v.602h-3.668v-.476c-.686.28-1.4.546-2.086.742a4.917 4.917 0 0 0-.686-.924v1.162c0 2.226-.294 5.488-2.086 7.434-.21-.308-.84-.896-1.148-1.092.924-1.022 1.344-2.338 1.54-3.654-.504.308-.994.616-1.484.896l-.462-1.498c.546-.238 1.302-.616 2.1-1.008.014-.378.014-.742.014-1.078v-.49l-1.232.574c-.07-.742-.392-1.918-.756-2.814l1.19-.504c.35.784.672 1.764.798 2.45v-3.724h4.83a11.057 11.057 0 0 0-.294-.952l1.68-.322c.154.392.322.854.448 1.274h4.242v1.4h-4.256l.574.28Zm12.81.056h5.67s-.014.574-.042.798c-.28 5.572-.56 7.672-1.176 8.4-.42.546-.826.7-1.428.784-.518.07-1.386.07-2.24.028-.028-.504-.252-1.246-.574-1.722.882.07 1.708.07 2.072.07.294 0 .462-.042.658-.224.42-.434.7-2.268.924-6.426h-3.92c-.224 2.898-1.204 6.3-5.138 8.526-.266-.42-.896-1.05-1.302-1.358 3.472-1.89 4.41-4.718 4.648-7.168h-4.214v-1.708h4.284v-2.884h1.778v2.884Z" fill="#231815"/><g clip-path="url(#clip5_799_40508)"><path d="M219.405 335.49c-1.34 0-2.54.55-3.41 1.44a4.741 4.741 0 0 0-3.41-1.44c-2.64 0-4.77 2.13-4.77 4.77 0 4.79 8.18 10.62 8.18 10.62s8.18-5.83 8.18-10.62a4.77 4.77 0 0 0-4.77-4.77Z" fill="#FF002A" stroke="#231815" stroke-miterlimit="10"/></g><g clip-path="url(#clip6_799_40508)" stroke="#231815" stroke-miterlimit="10"><path d="M238.755 335.49c-1.34 0-2.54.55-3.41 1.44a4.741 4.741 0 0 0-3.41-1.44c-2.64 0-4.77 2.13-4.77 4.77 0 4.79 8.18 10.62 8.18 10.62s8.18-5.83 8.18-10.62a4.77 4.77 0 0 0-4.77-4.77Z" fill="#FF002A"/><path d="M234.995 336.93c.87-.89 2.07-1.44 3.41-1.44a4.77 4.77 0 0 1 4.77 4.77c0 4.79-8.18 10.62-8.18 10.62v-13.95Z" fill="#fff"/></g><path d="M15.5 368.35a4.5 4.5 0 0 1 4.5-4.5h44.5v33H20a4.5 4.5 0 0 1-4.5-4.5v-24Z" fill="#00698A"/><path d="M33.778 377.916v-.798H31.86v.798h1.918Zm0 2.212v-.868H31.86v.868h1.918Zm0 2.226v-.882H31.86v.882h1.918Zm-3.528 1.988v-5.81c-.238.28-.476.518-.714.756-.154-.336-.616-1.162-.896-1.526 1.12-1.008 2.128-2.604 2.688-4.242l1.512.42c-.21.602-.476 1.19-.756 1.778h2.086a13.32 13.32 0 0 0-.658-1.512l1.568-.448c.35.602.714 1.372.896 1.96h2.212v1.4H35.36v.798h2.254v1.344H35.36v.868h2.198v1.344H35.36v.882h2.982v1.4H31.86v.588h-1.61Zm-1.68-8.526-1.526.532c-.154-.63-.518-1.652-.756-2.408l1.47-.448c.266.756.616 1.694.812 2.324Zm.126 3.962.714.252c-.252 1.274-.63 2.59-1.106 3.64.224.14.49.336.868.56.952.574 2.268.658 3.906.658 1.61 0 4.116-.14 5.656-.364-.182.448-.462 1.26-.476 1.708-1.162.07-3.626.168-5.264.168-1.862 0-3.038-.154-4.046-.742-.588-.322-1.078-.784-1.372-.784-.322 0-.812.952-1.162 1.75l-1.106-1.582c.476-.588.994-1.05 1.47-1.33.308-.7.588-1.582.798-2.436h-1.764c.322-.826.7-1.946 1.008-3.038h-1.26v-1.484h3.276c-.294.98-.63 2.1-.952 3.08h.56l.252-.056Zm15.652-6.23 1.554.518a21.66 21.66 0 0 1-1.358 2.66v9.842h-1.582v-7.546c-.448.56-.882 1.05-1.344 1.484-.154-.406-.616-1.316-.882-1.736 1.428-1.232 2.814-3.22 3.612-5.222Zm5.026 11.228h2.044c.714 0 .826-.588.952-2.898.378.294 1.036.616 1.47.7-.182 2.702-.602 3.668-2.296 3.668h-2.338c-1.722 0-2.212-.56-2.212-2.464v-10.024h1.61v3.556h4.872v1.596h-4.872v4.9c0 .826.098.966.77.966Z" fill="#fff"/><path d="M15.5 368.35a4.5 4.5 0 0 1 4.5-4.5h44.5v33H20a4.5 4.5 0 0 1-4.5-4.5v-24Z" stroke="#231815"/><path d="M64.5 363.85H260a4.5 4.5 0 0 1 4.5 4.5v24a4.5 4.5 0 0 1-4.5 4.5H64.5v-33Z" fill="#fff"/><path d="m77.304 373.52 1.568.644c-.91 1.288-2.324 2.66-3.626 3.5a9.764 9.764 0 0 0-.826-1.414c1.106-.658 2.31-1.806 2.884-2.73Zm.35 3.052 1.442.616a16.164 16.164 0 0 1-1.162 1.722v7.644h-1.596v-5.81a15.45 15.45 0 0 1-1.274 1.148c-.112-.378-.532-1.316-.77-1.722 1.218-.868 2.576-2.24 3.36-3.598Zm1.61 6.244 1.372-.714c.588.686 1.386 1.666 1.764 2.282l-1.47.826c-.336-.644-1.092-1.666-1.666-2.394Zm6.482-3.178v.798h1.708v1.512h-1.708v2.884c0 .826-.154 1.232-.742 1.47-.574.238-1.386.266-2.464.252-.07-.462-.308-1.106-.518-1.554.7.042 1.498.042 1.722.028.238 0 .294-.056.294-.238v-2.842h-5.586v-1.512h5.586v-.798h1.708Zm-1.974-4.536h3.738v1.526h-3.738v1.134h3.122v1.512h-7.882v-1.512h3.052v-1.134h-3.528v-1.526h3.528v-1.54h1.708v1.54Zm16.142 4.816v.588l.896-.014a9.752 9.752 0 0 0-.336-.392l.392-.182h-.952Zm-2.548-.896H98.5v-.56h-1.134v.56Zm0-1.96v.546H98.5v-.546h-1.134Zm3.738 0h-1.19v.546h1.19v-.546Zm0 1.96v-.56h-1.19v.56h1.19Zm-5.32 2.744-.084-1.19c.77 0 1.736-.014 2.8-.042v-.616h-2.436v-3.752H98.5v-.518h-2.674v-1.218H98.5v-.924h1.414v.924h2.814v1.218h-2.814v.518h2.562v3.752h-.588c.462.532.882 1.148 1.12 1.61l-1.162.574c-.07-.14-.154-.308-.266-.49-2.1.07-4.256.126-5.796.154Zm4.032 3.318v-1.54h-2.1c.434.434.826.966 1.022 1.358l-.574.364c.56.028 1.204.028 1.386.028.196-.014.266-.056.266-.21Zm-8.33-4.998v.826h.798v-.826h-.798Zm0-1.918v.826h.798v-.826h-.798Zm2.73.826v-.826h-.854v.826h.854Zm0 1.918v-.826h-.854v.826h.854Zm7.112.868v.546h1.596v1.218h-1.596v1.582c0 .714-.112 1.064-.644 1.274-.518.196-1.19.21-2.17.21-.042-.406-.238-.924-.406-1.302l-.56.35c-.224-.49-.7-1.204-1.204-1.708l.686-.406h-1.316v.812h-2.156v2.212h-1.47v-2.212h-2.254V382.9h2.254v-.84h-1.792v-5.054h1.792v-.728H90.03v-1.442h2.058v-1.33h1.47v1.33h1.988v1.442h-1.988v.728h1.862v5.054h-1.862v.84h2.156v-.574h4.102v-.546h1.512Zm17.024-5.488-1.386.532c-.126-.63-.546-1.666-.98-2.422l1.302-.476c.462.742.91 1.708 1.064 2.366Zm-7.182-.728v-.84h-.77v.84h.77Zm1.246-1.792v2.716h-3.178v-2.716h3.178Zm-5.11 5.656v.602h1.036v-.602h-1.036Zm0-1.512v.588h1.036v-.588h-1.036Zm3.458.588v-.588h-1.078v.588h1.078Zm0 1.526v-.602h-1.078v.602h1.078Zm-4.928.98v-4.074h6.454v4.074h-6.454Zm1.75-5.446v-.84h-.714v.84h.714Zm1.19-1.792v2.716h-3.066v-2.716h3.066Zm4.116 7.644v1.176h-7.63v-1.176h7.63Zm-5.292 3.486h2.94v-.77h-2.94v.77Zm10.668-6.132h-2.198c.364 2.688 1.05 5.152 2.45 6.454-.378.294-.91.924-1.162 1.372-.994-1.05-1.624-2.548-2.058-4.34-.42 1.54-1.148 3.066-2.352 4.312a7.367 7.367 0 0 0-.812-.812v.616h-1.596v-.322h-2.94v.504h-1.512v-3.542h6.048v1.96c1.61-1.82 2.002-4.214 2.1-6.202H112.5v-1.54h1.764v-3.724h1.624v3.724h2.38v1.54Z" fill="#231815"/><path d="M64.5 363.85H260a4.5 4.5 0 0 1 4.5 4.5v24a4.5 4.5 0 0 1-4.5 4.5H64.5v-33Z" stroke="#231815"/><path d="M15.5 412.35a4.5 4.5 0 0 1 4.5-4.5h44.5v33H20a4.5 4.5 0 0 1-4.5-4.5v-24Z" fill="#00698A"/><path d="M33.918 420.978v2.002h-1.526v-2.002h1.526Zm1.512 7.644h-.462c.21.252.406.504.546.77h.308c.14 0 .238-.028.322-.154.154-.196.266-.896.35-2.772h-3.472v.392h2.408v1.764Zm-2.408.406.896-.042a3.952 3.952 0 0 0-.196-.252l.28-.112h-.98v.406Zm1.148-1.064v-.448h-1.148v.448h1.148Zm-3.724 0h1.176v-.448h-1.176v.448Zm1.176-1.498h-1.134c-.14.14-.28.266-.434.392h1.568v-.392Zm-3.374-5.684v1.372c0 1.302-.056 2.954-.308 4.564.868-.476 1.54-1.036 2.002-1.596h-1.148v-1.96h.28l-.238-.826c.588-.098 1.386-.224 2.24-.392a15.106 15.106 0 0 0-1.96-.406l.238-.728c.84.098 1.792.266 2.38.462l-.238.602.532-.098.014.826c-.896.21-1.82.42-2.59.56h7.266c-.658-.196-1.568-.378-2.408-.49l.238-.714.294.014-.322-.658c.504-.084 1.246-.336 1.806-.532h-8.078Zm7.896-1.722h-7.896v.658h7.896v-.658Zm-.042 5.39v-.616h-1.19v.616h1.19Zm-2.45 0v-.616H32.49v.616h1.162Zm-2.422 0v-.616h-1.134v.616h1.134Zm.112 1.092h6.678s0 .35-.014.518c-.112 2.604-.252 3.598-.56 3.976-.224.294-.504.392-.812.434-.294.056-.77.056-1.26.042a2.693 2.693 0 0 0-.098-.532l-.602.252a3.58 3.58 0 0 0-.154-.336c-2.156.154-4.382.294-5.992.392l-.098-1.078c.868-.028 1.974-.084 3.192-.14v-.448h-2.366v-1.176a12.67 12.67 0 0 1-.56.364c-.182-.252-.518-.56-.798-.77-.224 1.274-.546 2.492-1.078 3.486-.308-.252-1.022-.658-1.442-.812 1.162-2.156 1.26-5.334 1.26-7.56v-4.144h11.13v2.772h-.966l.364.644c-.686.266-1.624.448-2.282.56.854.098 1.778.28 2.324.448l-.266.728h.532v1.96H31.65c-.098.14-.196.28-.308.42Zm19.222 2.996h3.304v1.582H45.16v-1.582h3.738v-2.8h-2.702v-1.554h2.702v-2.296h-1.54c-.21.728-.49 1.4-.784 1.932a14.722 14.722 0 0 0-1.484-.756c.14-.252.28-.518.42-.812l-.798.364c-.084-.42-.294-1.036-.532-1.61v9.562h-1.666v-10.01c-.084 1.176-.308 2.716-.63 3.71l-1.232-.448c.336-.924.588-2.492.686-3.64l1.176.168v-2.856h1.666v2.646l.812-.336c.28.546.574 1.218.77 1.764.35-1.022.602-2.226.742-3.416l1.624.224c-.098.658-.21 1.316-.35 1.946h1.12v-2.744h1.666v2.744h2.856v1.568h-2.856v2.296h2.562v1.554h-2.562v2.8Z" fill="#fff"/><path d="M15.5 412.35a4.5 4.5 0 0 1 4.5-4.5h44.5v33H20a4.5 4.5 0 0 1-4.5-4.5v-24Z" stroke="#231815"/><path d="M64.5 407.85H260a4.5 4.5 0 0 1 4.5 4.5v24a4.5 4.5 0 0 1-4.5 4.5H64.5v-33Z" fill="#fff"/><path d="M79.922 426.872H78.2c-.168 1.344-.756 2.786-2.282 3.752a6.7 6.7 0 0 0-1.064-1.134c1.204-.644 1.624-1.68 1.75-2.618h-1.638V425.5h1.694v-1.064h-2.086v-1.372h1.428c-.154-.602-.518-1.498-.84-2.156l.882-.364h-1.26v-1.358h2.212a11.54 11.54 0 0 0-.756-1.26l1.344-.56c.364.49.77 1.12.98 1.554l-.56.266h2.03v1.358h-3.612c.336.658.7 1.498.868 2.058l-1.078.462h1.372a16.81 16.81 0 0 0 .868-2.52l1.47.336c-.322.728-.672 1.526-1.008 2.184h1.274v1.372h-1.932v1.064h1.666v1.372Zm2.002-4.242v1.596h.98v-1.596h-.98Zm3.57 0H84.5v1.596h.994v-1.596Zm1.54 2.856H84.99c.672 1.246 1.764 2.492 2.814 3.192-.35.294-.854.84-1.12 1.246-.77-.658-1.554-1.638-2.184-2.73v3.374h-1.596v-3.192c-.812 1.106-1.792 2.072-2.814 2.716a6.58 6.58 0 0 0-1.092-1.246c1.344-.714 2.66-2.016 3.472-3.36h-2.002v-4.116h2.436v-.924h-2.646v-1.442h2.646v-1.512H84.5v1.512h2.898v1.442H84.5v.924h2.534v4.116Zm12.88-1.568v.588l.896-.014a9.752 9.752 0 0 0-.336-.392l.392-.182h-.952Zm-2.548-.896H98.5v-.56h-1.134v.56Zm0-1.96v.546H98.5v-.546h-1.134Zm3.738 0h-1.19v.546h1.19v-.546Zm0 1.96v-.56h-1.19v.56h1.19Zm-5.32 2.744-.084-1.19c.77 0 1.736-.014 2.8-.042v-.616h-2.436v-3.752H98.5v-.518h-2.674v-1.218H98.5v-.924h1.414v.924h2.814v1.218h-2.814v.518h2.562v3.752h-.588c.462.532.882 1.148 1.12 1.61l-1.162.574c-.07-.14-.154-.308-.266-.49-2.1.07-4.256.126-5.796.154Zm4.032 3.318v-1.54h-2.1c.434.434.826.966 1.022 1.358l-.574.364c.56.028 1.204.028 1.386.028.196-.014.266-.056.266-.21Zm-8.33-4.998v.826h.798v-.826h-.798Zm0-1.918v.826h.798v-.826h-.798Zm2.73.826v-.826h-.854v.826h.854Zm0 1.918v-.826h-.854v.826h.854Zm7.112.868v.546h1.596v1.218h-1.596v1.582c0 .714-.112 1.064-.644 1.274-.518.196-1.19.21-2.17.21-.042-.406-.238-.924-.406-1.302l-.56.35c-.224-.49-.7-1.204-1.204-1.708l.686-.406h-1.316v.812h-2.156v2.212h-1.47v-2.212h-2.254V426.9h2.254v-.84h-1.792v-5.054h1.792v-.728H90.03v-1.442h2.058v-1.33h1.47v1.33h1.988v1.442h-1.988v.728h1.862v5.054h-1.862v.84h2.156v-.574h4.102v-.546h1.512Zm13.986-1.862v.588l.896-.014a9.752 9.752 0 0 0-.336-.392l.392-.182h-.952Zm-2.548-.896h1.134v-.56h-1.134v.56Zm0-1.96v.546h1.134v-.546h-1.134Zm3.738 0h-1.19v.546h1.19v-.546Zm0 1.96v-.56h-1.19v.56h1.19Zm-5.32 2.744-.084-1.19c.77 0 1.736-.014 2.8-.042v-.616h-2.436v-3.752h2.436v-.518h-2.674v-1.218h2.674v-.924h1.414v.924h2.814v1.218h-2.814v.518h2.562v3.752h-.588c.462.532.882 1.148 1.12 1.61l-1.162.574a6.108 6.108 0 0 0-.266-.49c-2.1.07-4.256.126-5.796.154Zm4.032 3.318v-1.54h-2.1c.434.434.826.966 1.022 1.358l-.574.364c.56.028 1.204.028 1.386.028.196-.014.266-.056.266-.21Zm-8.33-4.998v.826h.798v-.826h-.798Zm0-1.918v.826h.798v-.826h-.798Zm2.73.826v-.826h-.854v.826h.854Zm0 1.918v-.826h-.854v.826h.854Zm7.112.868v.546h1.596v1.218h-1.596v1.582c0 .714-.112 1.064-.644 1.274-.518.196-1.19.21-2.17.21-.042-.406-.238-.924-.406-1.302l-.56.35c-.224-.49-.7-1.204-1.204-1.708l.686-.406h-1.316v.812h-2.156v2.212h-1.47v-2.212h-2.254V426.9h2.254v-.84h-1.792v-5.054h1.792v-.728h-2.058v-1.442h2.058v-1.33h1.47v1.33h1.988v1.442h-1.988v.728h1.862v5.054h-1.862v.84h2.156v-.574h4.102v-.546h1.512Z" fill="#231815"/><path d="M64.5 407.85H260a4.5 4.5 0 0 1 4.5 4.5v24a4.5 4.5 0 0 1-4.5 4.5H64.5v-33Z" stroke="#231815"/><path d="M15.5 456.35a4.5 4.5 0 0 1 4.5-4.5h44.5v33H20a4.5 4.5 0 0 1-4.5-4.5v-24Z" fill="#00698A"/><path d="m30.138 467.442.21 1.526c-.49.14-.994.28-1.498.406v3.346c0 .812-.154 1.204-.63 1.47-.462.252-1.134.294-2.114.294a7.24 7.24 0 0 0-.476-1.512c.546.014 1.12.014 1.302.014.21 0 .266-.07.266-.28v-2.884l-1.358.336-.434-1.582c.518-.098 1.12-.238 1.792-.406v-2.478h-1.61v-1.54h1.61v-2.66h1.652v2.66h1.372v1.54H28.85v2.072l1.288-.322Zm5.852.756h-3.402a8.001 8.001 0 0 0 1.652 2.478 7.802 7.802 0 0 0 1.75-2.478Zm1.05-1.568 1.064.448c-.532 1.946-1.428 3.472-2.604 4.648.91.644 1.988 1.106 3.234 1.414-.35.336-.826 1.008-1.064 1.442-1.358-.406-2.52-.98-3.486-1.764-1.092.756-2.324 1.316-3.682 1.722-.182-.448-.588-1.148-.896-1.512 1.232-.294 2.366-.742 3.346-1.372-.826-.938-1.484-2.044-1.988-3.332l.42-.126h-.728V466.7h2.758v-1.68h-3.01v-1.54h3.01v-2.002h1.652v2.002h3.136v1.54h-3.136v1.68h1.68l.294-.07Zm15.274 1.036h-2.128c-1.68 0-2.128-.616-2.128-2.17v-3.976h1.652v1.652h3.444v1.428H49.71v.924c0 .518.084.714.532.714h2.044c.392 0 .98-.042 1.288-.112.028.434.098 1.036.154 1.414-.294.098-.882.126-1.414.126Zm-9.044 1.498v.504c0 .532-.028 1.162-.098 1.792.63-.28 1.456-.7 2.296-1.148v-.462l-.672.658c-.35-.364-.994-.91-1.526-1.344Zm2.198-1.26H43.27v.994l.7-.602c.476.336 1.078.826 1.498 1.19v-1.582Zm1.568-1.4v6.524c0 .686-.126 1.036-.588 1.26-.448.21-1.078.238-1.932.238-.07-.392-.294-.938-.504-1.302.504.028 1.05.028 1.218.028.182 0 .238-.056.238-.238v-1.428c-.7.504-1.4.98-2.03 1.386l-.35-.98c-.154.952-.462 1.904-.994 2.632-.238-.322-.868-.924-1.162-1.12.742-1.092.798-2.632.798-3.85v-3.15h5.306Zm-2.128-3.486 1.344-.49c.588 1.008 1.33 2.38 1.666 3.22l-1.456.588c-.084-.252-.21-.546-.35-.882-3.542.35-4.116.434-4.522.602a17.634 17.634 0 0 0-.518-1.498c.252-.056.49-.252.77-.56.28-.308 1.134-1.386 1.652-2.492l1.68.476c-.476.812-1.106 1.624-1.722 2.324l2.044-.154c-.21-.406-.406-.798-.588-1.134Zm5.446 9.996h1.596c.476 0 .574-.238.644-1.526.336.252 1.008.504 1.442.602-.168 1.834-.602 2.38-1.932 2.38h-1.988c-1.652 0-2.058-.49-2.058-2.016v-4.396h1.652v1.4h3.542v1.47H49.71v1.526c0 .49.098.56.644.56Z" fill="#fff"/><path d="M15.5 456.35a4.5 4.5 0 0 1 4.5-4.5h44.5v33H20a4.5 4.5 0 0 1-4.5-4.5v-24Z" stroke="#231815"/><path d="M64.5 451.85H260a4.5 4.5 0 0 1 4.5 4.5v24a4.5 4.5 0 0 1-4.5 4.5H64.5v-33Z" fill="#fff"/><path d="M82.036 470.578v2.03h2.786v-2.03h-2.786Zm2.786-6.846h-2.786v1.89h2.786v-1.89Zm-2.786 3.388v1.96h2.786v-1.96h-2.786Zm-4.032-1.33-1.008.07c-.196.966-.42 1.904-.63 2.73.336.28.672.56 1.008.854.462-1.274.602-2.562.63-3.654Zm8.498 6.818h.994v1.54h-8.232v-1.33l-.28.364c-.294-.35-.672-.77-1.12-1.204-.574.924-1.344 1.792-2.394 2.576-.224-.35-.77-.882-1.12-1.134a8.514 8.514 0 0 0 2.366-2.534c-.7-.644-1.4-1.26-2.016-1.806.266-.84.532-1.946.77-3.122l-.91.056-.154-1.484c.406-.014.854-.042 1.33-.056.168-1.008.308-2.002.378-2.912l1.54.098a44.587 44.587 0 0 1-.392 2.744l.756-.042v-.91h1.484v.84l.448-.028v1.386l-.448.028c-.028 1.428-.21 3.15-.882 4.83.546.504 1.036.98 1.372 1.358l-.56.742h.994v-10.416h6.076v10.416Zm8.82-1.736H93.6c-.168 1.344-.756 2.786-2.282 3.752a6.7 6.7 0 0 0-1.064-1.134c1.204-.644 1.624-1.68 1.75-2.618h-1.638V469.5h1.694v-1.064h-2.086v-1.372h1.428c-.154-.602-.518-1.498-.84-2.156l.882-.364h-1.26v-1.358h2.212a11.54 11.54 0 0 0-.756-1.26l1.344-.56c.364.49.77 1.12.98 1.554l-.56.266h2.03v1.358h-3.612c.336.658.7 1.498.868 2.058l-1.078.462h1.372a16.81 16.81 0 0 0 .868-2.52l1.47.336c-.322.728-.672 1.526-1.008 2.184h1.274v1.372h-1.932v1.064h1.666v1.372Zm2.002-4.242v1.596h.98v-1.596h-.98Zm3.57 0H99.9v1.596h.994v-1.596Zm1.54 2.856h-2.044c.672 1.246 1.764 2.492 2.814 3.192-.35.294-.854.84-1.12 1.246-.77-.658-1.554-1.638-2.184-2.73v3.374h-1.596v-3.192c-.812 1.106-1.792 2.072-2.814 2.716a6.58 6.58 0 0 0-1.092-1.246c1.344-.714 2.66-2.016 3.472-3.36h-2.002v-4.116h2.436v-.924h-2.646v-1.442h2.646v-1.512H99.9v1.512h2.898v1.442H99.9v.924h2.534v4.116Zm9.156-3.262v3.542c.462-.714.798-1.736.966-2.73-.098.042-.196.098-.294.14-.126-.28-.406-.672-.672-.952Zm-2.156 3.458h.798v-1.162h-.798v1.162Zm-1.89-1.162v.238c0 .294 0 .602-.014.924h.812v-1.162h-.798Zm1.47-4.466h-1.12c-.154.35-.308.7-.476 1.022h1.204c.14-.308.266-.672.392-1.022Zm.42 2.24v1.05h.798v-1.05h-.798Zm-1.89 0v1.05h.798v-1.05h-.798Zm10.822 4.48v1.428h-2.38v2.31h-1.582v-2.31h-2.59v-1.428h2.59v-1.26h-1.162c-.168.406-.35.77-.56 1.078-.238-.168-.742-.434-1.092-.588v2.954c0 .658-.112 1.078-.532 1.316-.434.238-1.008.28-1.862.28-.042-.406-.266-1.036-.476-1.414.56.028 1.106.028 1.274.028.168 0 .238-.056.238-.238v-2.016h-2.786c-.14 1.316-.462 2.674-1.106 3.682-.238-.224-.84-.602-1.148-.742.938-1.442 1.008-3.528 1.008-5.096v-2.072a9.02 9.02 0 0 0-1.092-.896c.952-1.022 1.694-2.66 2.072-4.298l1.47.308c-.084.336-.182.672-.294.994h1.274l.21-.07.952.588c-.196.546-.476 1.19-.77 1.764h1.568v.854c1.162-.532 1.582-1.344 1.778-2.366H111.8v-1.358h6.216s-.014.35-.028.532c-.07 2.226-.182 3.192-.49 3.556-.238.294-.504.406-.854.462-.308.042-.854.056-1.414.042-.028-.434-.168-.994-.378-1.344.434.042.812.056 1.008.056.168 0 .28-.028.378-.154.126-.154.196-.63.252-1.792h-1.624c-.238 1.456-.77 2.618-2.198 3.402l1.246.252c-.056.294-.112.602-.196.896h.686v-1.26h1.582v1.26h2.1v1.4h-2.1v1.26h2.38Zm7.756.098H124.4c-.168 1.344-.756 2.786-2.282 3.752a6.7 6.7 0 0 0-1.064-1.134c1.204-.644 1.624-1.68 1.75-2.618h-1.638V469.5h1.694v-1.064h-2.086v-1.372h1.428c-.154-.602-.518-1.498-.84-2.156l.882-.364h-1.26v-1.358h2.212a11.54 11.54 0 0 0-.756-1.26l1.344-.56c.364.49.77 1.12.98 1.554l-.56.266h2.03v1.358h-3.612c.336.658.7 1.498.868 2.058l-1.078.462h1.372a16.81 16.81 0 0 0 .868-2.52l1.47.336c-.322.728-.672 1.526-1.008 2.184h1.274v1.372h-1.932v1.064h1.666v1.372Zm2.002-4.242v1.596h.98v-1.596h-.98Zm3.57 0h-.994v1.596h.994v-1.596Zm1.54 2.856h-2.044c.672 1.246 1.764 2.492 2.814 3.192-.35.294-.854.84-1.12 1.246-.77-.658-1.554-1.638-2.184-2.73v3.374h-1.596v-3.192c-.812 1.106-1.792 2.072-2.814 2.716a6.58 6.58 0 0 0-1.092-1.246c1.344-.714 2.66-2.016 3.472-3.36h-2.002v-4.116h2.436v-.924h-2.646v-1.442h2.646v-1.512h1.596v1.512h2.898v1.442H130.7v.924h2.534v4.116Zm13.706-5.488 1.288.854c-1.764 2.618-4.662 5.376-7.476 7.224.868.532 2.044.63 3.514.63 1.428 0 3.57-.14 4.9-.336-.168.462-.448 1.33-.476 1.778a80.45 80.45 0 0 1-4.48.154c-1.722 0-2.842-.182-3.794-.77-.602-.35-1.064-.826-1.372-.826-.434 0-1.064.938-1.638 1.834l-1.204-1.568c1.008-1.078 2.114-1.82 2.884-1.82h.084c2.296-1.372 4.69-3.528 6.188-5.432h-8.442v-1.638h5.46c-.336-.602-.854-1.372-1.26-1.96l1.498-.798c.518.7 1.246 1.666 1.568 2.268l-.854.49h3.29l.322-.084Zm17.388-1.456v1.47h-3.332v-1.47h3.332Zm-3.388 1.358-1.078.602c-.196-.476-.644-1.246-1.064-1.806l1.008-.546c.434.532.91 1.274 1.134 1.75Zm-7.168-2.394 1.512.518c-.728 1.246-1.848 2.59-2.912 3.43-.196-.336-.588-.952-.854-1.232.868-.7 1.82-1.82 2.254-2.716Zm1.792 5.544h1.162c0 2.66-.154 4.424-1.232 5.488-.14-.294-.504-.756-.784-.966.784-.882.84-2.24.854-4.522Zm5.082 5.096h-.266c-1.106 0-1.316-.42-1.316-1.638v-3.444h1.19v3.458c0 .378 0 .49.084.49h.322c.14 0 .322-.028.462-.07.028.308.07.854.112 1.12-.168.084-.364.084-.588.084Zm3.892-6.244-.014 1.498h-1.078v5.236c0 .784-.112 1.218-.616 1.498-.476.266-1.162.28-2.086.28-.042-.462-.238-1.134-.448-1.61.56.028 1.148.028 1.33.014.182 0 .238-.042.238-.21V467.4h-1.218v-1.106h-2.044v8.218h-1.456v-8.218h-1.848v-.966c-.224.49-.504 1.022-.812 1.526v7.714h-1.54v-5.572c-.266.308-.532.588-.784.826-.154-.336-.63-1.176-.91-1.526 1.064-.938 2.128-2.394 2.73-3.864l1.316.434v-.098h1.848v-3.248h1.456v3.248h2.1v1.134h3.836Z" fill="#231815"/><path d="M64.5 451.85H260a4.5 4.5 0 0 1 4.5 4.5v24a4.5 4.5 0 0 1-4.5 4.5H64.5v-33Z" stroke="#231815"/><rect x=".5" y=".5" width="279" height="504.35" rx="4.5" stroke="#231815"/><defs><clipPath id="clip0_799_40508"><path fill="#fff" transform="translate(79.27)" d="M0 0h121.46v30.99H0z"/></clipPath><clipPath id="clip1_799_40508"><path fill="#fff" transform="translate(49 114.99)" d="M0 0h181.445v180H0z"/></clipPath><clipPath id="clip2_799_40508"><path fill="#fff" transform="translate(63.635 334.99)" d="M0 0h18.56v18.36H0z"/></clipPath><clipPath id="clip3_799_40508"><path fill="#fff" transform="translate(84.195 334.99)" d="M0 0h18.56v18.36H0z"/></clipPath><clipPath id="clip4_799_40508"><path fill="#fff" transform="translate(104.755 334.99)" d="M0 0h18.56v18.36H0z"/></clipPath><clipPath id="clip5_799_40508"><path fill="#fff" transform="translate(207.315 334.99)" d="M0 0h17.35v16.5H0z"/></clipPath><clipPath id="clip6_799_40508"><path fill="#fff" transform="translate(226.665 334.99)" d="M0 0h17.35v16.5H0z"/></clipPath></defs></svg>