<svg fill="none" xmlns="http://www.w3.org/2000/svg" viewBox="0 0 280 506"><rect x=".5" y=".5" width="279" height="504.35" rx="4.5" fill="#FFE177"/><g clip-path="url(#clip0_799_36249)" stroke="#231815" stroke-miterlimit="10"><path d="M84.32 27.21c.34 1.64 1.95 2.83 3.83 2.84l103.68.44c1.88 0 3.5-1.17 3.85-2.81l4.41-20.48c.67-3.11-1.07-6.21-3.48-6.22L83.06.5C80.7.49 79.29 2.97 79.92 6l4.4 21.2v.01Z" fill="#00698A"/><path d="M116.48 17.4c.14 1.03.82 1.78 1.61 1.79l43.77.23c.79 0 1.48-.74 1.63-1.77l1.87-12.91c.28-1.96-.45-3.91-1.47-3.92L115.95.57c-.99 0-1.59 1.56-1.33 3.47l1.85 13.36h.01Zm69.19-7.19c0-1.42 1.16-2.56 2.58-2.55 1.42 0 2.56 1.16 2.55 2.58 0 1.42-1.16 2.56-2.57 2.55-1.42 0-2.56-1.16-2.55-2.58h-.01Zm-10.74-.02c0-1.42 1.16-2.56 2.58-2.55 1.42 0 2.56 1.16 2.55 2.58 0 1.42-1.16 2.56-2.58 2.55-1.42 0-2.56-1.16-2.55-2.58Zm-80.59-.28c0-1.42-1.15-2.57-2.56-2.57-1.42 0-2.57 1.15-2.57 2.56 0 1.42 1.15 2.57 2.56 2.57 1.42 0 2.57-1.15 2.57-2.56Zm10.73.02c0-1.42-1.15-2.57-2.56-2.57-1.42 0-2.57 1.15-2.57 2.56 0 1.42 1.15 2.57 2.56 2.57 1.42 0 2.57-1.15 2.57-2.56Z" fill="#FFE177"/></g><path d="M119.912 52.702V49.03h-2.904v3.672h2.904Zm-2.904 6.984h2.904V55.99h-2.904v3.696Zm-10.992-.096h2.952v-2.568h-2.952v2.568Zm19.008-13.92v3.36h-1.56v15.144h-3.552v-1.2h-2.904v1.296h-3.48V49.03h-.96v2.448h-3.336v2.448h3v9.456h-3.264v-.696h-2.952v1.296h-3.096V53.926h2.76v-2.448h-3.504v-3.24h3.504v-3.12h-3.072v-3.24h9.408v3.24h-2.784v3.12h2.712V45.67h1.584v-4.08h3.48v4.08h2.904v-4.08h3.552v4.08h1.56Zm21.336 7.032v.744l.984-.024c-.12-.168-.24-.336-.36-.48l.552-.24h-1.176Zm-4.368-1.8h1.416v-.648h-1.416v.648Zm0-2.976v.624h1.416v-.624h-1.416Zm5.784 0h-1.416v.624h1.416v-.624Zm0 2.976v-.648h-1.416v.648h1.416Zm-8.832 5.088-.192-2.424c1.296 0 2.904-.024 4.656-.072v-.792h-4.104v-6.576h4.104v-.624h-4.416v-2.52h4.416V41.47h2.952v1.512h4.632v2.52h-4.632v.624h4.248v6.576h-.696c.648.888 1.248 1.896 1.584 2.64l-2.424 1.176c-.096-.24-.216-.528-.36-.816-3.528.144-7.128.216-9.768.288Zm6.6 5.28v-2.04h-2.688c.552.648 1.032 1.368 1.296 1.944l-.696.432c.696.024 1.416.024 1.632.024.336-.024.456-.096.456-.36Zm-13.824-8.112v.984h.912v-.984h-.912Zm0-3.192v.96h.912v-.96h-.912Zm4.104.96v-.96h-.984v.96h.984Zm0 3.216v-.984h-.984v.984h.984Zm12.912 1.8v.768h2.616v2.52h-2.616v2.136c0 1.416-.264 2.136-1.272 2.568-1.008.408-2.28.432-3.96.432-.096-.72-.408-1.608-.696-2.352l-1.128.696c-.336-.84-1.128-2.088-1.944-2.952l.912-.528H138.8v1.44h-3.528v3.576H132.2V60.67h-3.672v-3.024h3.672v-1.128h-2.88V47.59h2.88v-1.008h-3.312v-2.976h3.312v-2.112h3.072v2.112h3.24v2.976h-3.24v1.008h3.048v8.928h-3.048v1.128h3.528v-.936h6.744v-.768h3.192Zm24.024-3.24v.744l.984-.024c-.12-.168-.24-.336-.36-.48l.552-.24h-1.176Zm-4.368-1.8h1.416v-.648h-1.416v.648Zm0-2.976v.624h1.416v-.624h-1.416Zm5.784 0h-1.416v.624h1.416v-.624Zm0 2.976v-.648h-1.416v.648h1.416Zm-8.832 5.088-.192-2.424c1.296 0 2.904-.024 4.656-.072v-.792h-4.104v-6.576h4.104v-.624h-4.416v-2.52h4.416V41.47h2.952v1.512h4.632v2.52h-4.632v.624h4.248v6.576h-.696c.648.888 1.248 1.896 1.584 2.64l-2.424 1.176c-.096-.24-.216-.528-.36-.816-3.528.144-7.128.216-9.768.288Zm6.6 5.28v-2.04h-2.688c.552.648 1.032 1.368 1.296 1.944l-.696.432c.696.024 1.416.024 1.632.024.336-.024.456-.096.456-.36Zm-13.824-8.112v.984h.912v-.984h-.912Zm0-3.192v.96h.912v-.96h-.912Zm4.104.96v-.96h-.984v.96h.984Zm0 3.216v-.984h-.984v.984h.984Zm12.912 1.8v.768h2.616v2.52h-2.616v2.136c0 1.416-.264 2.136-1.272 2.568-1.008.408-2.28.432-3.96.432-.096-.72-.408-1.608-.696-2.352l-1.128.696c-.336-.84-1.128-2.088-1.944-2.952l.912-.528H165.2v1.44h-3.528v3.576H158.6V60.67h-3.672v-3.024h3.672v-1.128h-2.88V47.59h2.88v-1.008h-3.312v-2.976h3.312v-2.112h3.072v2.112h3.24v2.976h-3.24v1.008h3.048v8.928h-3.048v1.128h3.528v-.936h6.744v-.768h3.192Z" fill="#231815"/><path d="M15.5 199.99c0-68.759 55.74-124.5 124.5-124.5 68.759 0 124.5 55.741 124.5 124.5v120a4.5 4.5 0 0 1-4.5 4.5H20a4.5 4.5 0 0 1-4.5-4.5v-120Z" fill="#fff" stroke="#231815"/><g clip-path="url(#clip1_799_36249)"><path d="M184.65 218.48c-.25 0-.5-.05-.75-.15l-3.97-1.7a1.92 1.92 0 0 1-1.15-1.91 32.44 32.44 0 0 0-4.62-19.46c-1.53-2.5-4.77-6.76-9.3-7.26a1.906 1.906 0 0 1-1.68-2.1c.12-1.04 1.06-1.8 2.1-1.68 4.56.5 8.86 3.72 12.13 9.05 3.72 6.08 5.56 13.27 5.25 20.39l2.74 1.17a1.902 1.902 0 0 1-.75 3.65Z" fill="#FFE177" stroke="#231815" stroke-width=".75" stroke-linecap="round" stroke-linejoin="round"/><path d="M145.5 285.31c15.541 0 28.14-5.346 28.14-11.94 0-6.594-12.599-11.94-28.14-11.94s-28.14 5.346-28.14 11.94c0 6.594 12.599 11.94 28.14 11.94Z" fill="#00698A" stroke="#231815" stroke-width=".75" stroke-linecap="round" stroke-linejoin="round"/><path d="M145.5 224.12H83.22s.51 37.04 37.07 51.82a67.359 67.359 0 0 0 50.43 0c36.55-14.78 37.07-51.82 37.07-51.82H145.5Z" fill="#00698A" stroke="#231815" stroke-width=".75" stroke-linecap="round" stroke-linejoin="round"/><path d="M145.5 251.67c34.397 0 62.28-12.334 62.28-27.55 0-15.215-27.883-27.55-62.28-27.55-34.396 0-62.28 12.335-62.28 27.55 0 15.216 27.884 27.55 62.28 27.55Z" fill="#fff" stroke="#231815" stroke-width=".75" stroke-linecap="round" stroke-linejoin="round"/><path d="M145.5 249.82c33.374 0 60.43-11.506 60.43-25.7 0-14.193-27.056-25.7-60.43-25.7-33.375 0-60.43 11.507-60.43 25.7 0 14.194 27.055 25.7 60.43 25.7Z" fill="#368AA5" stroke="#231815" stroke-width=".75" stroke-linecap="round" stroke-linejoin="round"/><path d="M145.5 212.99c-28.55 0-51.69 9.84-51.69 21.98 0 .93.14 1.84.4 2.74 10.67 7.27 29.65 12.11 51.29 12.11s40.62-4.84 51.29-12.11c.26-.9.4-1.81.4-2.74 0-12.14-23.14-21.98-51.69-21.98Z" fill="#FFEEA9" stroke="#231815" stroke-width=".75" stroke-linecap="round" stroke-linejoin="round"/><path d="M130.53 177.77c-9.53-21.22-29.28-19.11-41.09-8.4-11.81 10.72-14.21 37.3 7.93 54.35 17.48 13.47 38.05 14.75 38.05 14.75s19.87-8.04 28.45-32.42c8.58-24.38-2.16-41.06-11.13-45.92-8.97-4.86-25.3-4.45-30.68 5.77" fill="#FFE177"/><path d="M130.53 177.77c-9.53-21.22-29.28-19.11-41.09-8.4-11.81 10.72-14.21 37.3 7.93 54.35 17.48 13.47 38.05 14.75 38.05 14.75s19.87-8.04 28.45-32.42c8.58-24.38-2.16-41.06-11.13-45.92-8.97-4.86-25.3-4.45-30.68 5.77" stroke="#231815" stroke-width=".75" stroke-linecap="round" stroke-linejoin="round"/><path d="m148.16 198.47.57 2.44c.3 1.3 1.62 2.12 2.92 1.82 1.3-.3 2.12-1.62 1.82-2.92l-.57-2.44" stroke="#231815" stroke-width="2" stroke-linecap="round" stroke-linejoin="round"/><path d="M93.61 205.9c-7.75 2.01-13.85 9.26-14.51 17.25-.66 7.99 4.19 16.13 11.51 19.37.66.29 1.09.93 1.13 1.64.16 3.15-.95 6.3-3.05 8.65a1.892 1.892 0 0 1-2.68.16c-.78-.7-.86-1.9-.16-2.69a8.391 8.391 0 0 0 2.07-4.84c-8.11-4.19-13.36-13.49-12.62-22.61.78-9.54 8.07-18.22 17.34-20.62" fill="#FFE177"/><path d="M93.61 205.9c-7.75 2.01-13.85 9.26-14.51 17.25-.66 7.99 4.19 16.13 11.51 19.37.66.29 1.09.93 1.13 1.64.16 3.15-.95 6.3-3.05 8.65a1.892 1.892 0 0 1-2.68.16c-.78-.7-.86-1.9-.16-2.69a8.391 8.391 0 0 0 2.07-4.84c-8.11-4.19-13.36-13.49-12.62-22.61.78-9.54 8.07-18.22 17.34-20.62" stroke="#231815" stroke-width=".75" stroke-linecap="round" stroke-linejoin="round"/><path d="M130.98 230.08c10.32-.72 20.74-3.56 29-9.78.55-.41 1.15-.86 1.84-.83.92.04 1.57.91 1.98 1.74 2.06 4.21 1.37 9.46-1.18 13.4-2.55 3.94-6.74 6.63-11.22 7.99-4.48 1.36-9.26 1.5-13.94 1.13-10.38-.82-20.4-4.05-30.22-7.49-2.13-.75-6.59-2.05-6.31-5 .32-3.44 4.7-2.28 6.86-2.04 7.69.84 15.45 1.42 23.19.88Z" fill="#FFEEA9"/><path d="M163.21 221.13c-.02-.38 0-.78.19-1.12.19-.34.59-.57.96-.47.38.11.59.55.57.94-.02.39-.21.76-.41 1.11-.13.24-.27.48-.49.63-.87.58-.8-.61-.82-1.1v.01Zm-1.24-3.72c.31-.23.65-.44 1.03-.48.38-.04.81.16.93.52.13.38-.12.8-.45 1-.33.2-.75.26-1.14.3-.27.03-.55.05-.8-.05-.97-.38.05-1 .44-1.3l-.01.01Zm5.53-.07c.31-.23.65-.44 1.03-.48.38-.04.81.16.93.52.13.38-.12.8-.45 1-.33.2-.75.26-1.14.3-.27.03-.55.05-.8-.05-.97-.38.05-1 .44-1.3l-.01.01Zm-1.08 5.68c.31-.23.65-.44 1.03-.48.38-.04.81.16.93.52.13.38-.12.8-.45 1-.33.2-.75.26-1.14.3-.27.03-.55.05-.8-.05-.97-.38.05-1 .44-1.3l-.01.01Zm5.09-3.33c.31-.23.65-.44 1.03-.48.38-.04.81.16.93.52.13.38-.12.8-.45 1-.33.2-.75.26-1.14.3-.27.03-.55.05-.8-.05-.97-.38.05-1 .44-1.3l-.01.01Zm-7.03 12.27c.26-.03.54-.02.78.18.24.2.42.61.36 1-.06.41-.35.64-.63.63-.28-.01-.53-.21-.78-.4-.17-.13-.34-.27-.46-.51-.44-.9.39-.86.73-.9Zm.99-2.39c.23-.02.47-.01.68.11.21.12.36.41.31.67-.06.27-.31.43-.55.42-.24-.01-.46-.14-.67-.26-.15-.09-.3-.18-.39-.34-.37-.6.35-.58.64-.61l-.02.01Zm-6.56-3.63c.23-.02.47-.01.68.11.21.12.36.41.31.67-.06.27-.31.43-.55.42-.24-.01-.46-.14-.67-.26-.15-.09-.3-.18-.39-.34-.37-.6.35-.58.64-.61l-.02.01Zm8.95-5.52c.23-.02.47-.01.68.11.21.12.36.41.31.67-.06.27-.31.43-.55.42-.24-.01-.46-.14-.67-.26-.15-.09-.3-.18-.39-.34-.37-.6.35-.58.64-.61l-.02.01Zm-38.39 15.1c-.02-.38 0-.78.19-1.12.19-.34.59-.57.96-.47.38.11.59.55.57.94-.02.39-.21.76-.41 1.11-.13.24-.27.48-.49.63-.87.58-.8-.61-.82-1.1v.01Zm-1.24-3.71c.31-.23.65-.44 1.03-.48.38-.04.81.16.93.52.13.38-.12.8-.45 1-.33.2-.75.26-1.14.3-.27.03-.55.05-.8-.05-.97-.38.05-1 .44-1.3l-.01.01Zm5.53-.07c.31-.23.65-.44 1.03-.48.38-.04.81.16.93.52.13.38-.12.8-.45 1-.33.2-.75.26-1.14.3-.27.03-.55.05-.8-.05-.97-.38.05-1 .44-1.3l-.01.01Zm-3.25 8.67c.31-.23.65-.44 1.03-.48.38-.04.81.16.93.52.13.38-.12.8-.45 1-.33.2-.75.26-1.14.3-.27.03-.55.05-.8-.05-.97-.38.05-1 .44-1.3l-.01.01Zm10.25-6.59c.31-.23.65-.44 1.03-.48.38-.04.81.16.93.52.13.38-.12.8-.45 1-.33.2-.75.26-1.14.3-.27.03-.55.05-.8-.05-.97-.38.05-1 .44-1.3l-.01.01Zm-10.02 12.54c.26-.03.54-.02.78.18.24.2.42.61.36 1-.06.41-.35.64-.63.63-.28-.01-.53-.21-.78-.4-.17-.13-.34-.27-.46-.51-.44-.9.39-.86.73-.9Zm.98-2.39c.23-.02.47-.01.68.11.21.12.36.41.31.67-.06.27-.31.43-.55.42-.24-.01-.46-.14-.67-.26-.15-.09-.3-.18-.39-.34-.37-.6.35-.58.64-.61l-.02.01Zm-6.28-3.64c.31-.03.64-.02.92.15.28.17.49.53.41.88-.08.36-.43.57-.75.56-.32-.01-.63-.18-.92-.35-.2-.11-.4-.24-.54-.44-.5-.79.47-.77.87-.8h.01Zm8.68-5.51c.23-.02.47-.01.68.11.21.12.36.41.31.67-.06.27-.31.43-.55.42-.24-.01-.46-.14-.67-.26-.15-.09-.3-.18-.39-.34-.37-.6.35-.58.64-.61l-.02.01Zm-13.85 9.01c.38-.04.78-.04 1.13.13.35.17.61.55.52.93-.09.39-.51.62-.91.62s-.77-.17-1.13-.34c-.24-.12-.5-.24-.66-.46-.63-.83.56-.83 1.05-.88Zm-5.51-.45c.23-.02.47-.01.68.11.21.12.36.41.31.67-.06.27-.31.43-.55.42-.24-.01-.46-.14-.67-.26-.15-.09-.3-.18-.39-.34-.37-.6.35-.58.64-.61l-.02.01Zm11.13.68c.15.17.3.37.32.61.02.24-.11.53-.35.65-.25.12-.53 0-.67-.18s-.17-.45-.2-.7c-.02-.17-.04-.35.03-.52.26-.66.67-.07.87.14Zm12.81 2.89c.15.17.3.37.32.61.02.24-.11.53-.35.65-.25.12-.53 0-.67-.18s-.17-.45-.2-.7c-.02-.17-.04-.35.03-.52.26-.66.67-.07.87.14Zm-41.72-10.9c.31-.03.64-.02.92.15.28.17.49.53.41.88-.08.36-.43.57-.75.56-.32-.01-.63-.18-.92-.35-.2-.11-.4-.24-.54-.44-.5-.79.47-.77.87-.8h.01Zm2.99-7.37c.38-.04.78-.04 1.13.13.35.17.61.55.52.93-.09.39-.51.62-.91.62s-.77-.17-1.13-.34c-.24-.12-.5-.24-.66-.46-.63-.83.56-.83 1.05-.88Zm-3.62 2.53c.23-.02.47-.01.68.11.21.12.36.41.31.67-.06.27-.31.43-.55.42-.24-.01-.46-.14-.67-.26-.15-.09-.3-.18-.39-.34-.37-.6.35-.58.64-.61l-.02.01Zm4.07 7.75c.15.17.3.37.32.61.02.24-.11.53-.35.65-.25.12-.53 0-.67-.18s-.17-.45-.2-.7c-.02-.17-.04-.35.03-.52.26-.66.67-.07.87.14Zm68.87 1.94c-.02-.38 0-.78.19-1.12.19-.34.59-.57.96-.47.38.11.59.55.57.94-.02.39-.21.76-.41 1.11-.13.24-.27.48-.49.63-.87.58-.8-.61-.82-1.1v.01Zm-1.24-3.72c.31-.23.65-.44 1.03-.48.38-.04.81.16.93.52.13.38-.12.8-.45 1-.33.2-.75.26-1.14.3-.27.03-.55.05-.8-.05-.97-.38.05-1 .44-1.3l-.01.01Zm5.53-.06c.31-.23.65-.44 1.03-.48.38-.04.81.16.93.52.13.38-.12.8-.45 1-.33.2-.75.26-1.14.3-.27.03-.55.05-.8-.05-.97-.38.05-1 .44-1.3l-.01.01Zm-1.08 5.67c.31-.23.65-.44 1.03-.48.38-.04.81.16.93.52.13.38-.12.8-.45 1-.33.2-.75.26-1.14.3-.27.03-.55.05-.8-.05-.97-.38.05-1 .44-1.3l-.01.01Zm5.09-3.33c.31-.23.65-.44 1.03-.48.38-.04.81.16.93.52.13.38-.12.8-.45 1-.33.2-.75.26-1.14.3-.27.03-.55.05-.8-.05-.97-.38.05-1 .44-1.3l-.01.01Zm-3.65.73c.23-.02.47-.01.68.11.21.12.36.41.31.67-.06.27-.31.43-.55.42-.24-.01-.46-.14-.67-.26-.15-.09-.3-.18-.39-.34-.37-.6.35-.58.64-.61l-.02.01Zm7.85-3.1c-.02-.38 0-.78.19-1.12.19-.34.59-.57.96-.47.38.11.59.55.57.94-.02.39-.21.76-.41 1.11-.13.24-.27.48-.49.63-.87.58-.8-.61-.82-1.1v.01Zm-1.24-3.71c.31-.23.65-.44 1.03-.48.38-.04.81.16.93.52.13.38-.12.8-.45 1-.33.2-.75.26-1.14.3-.27.03-.55.05-.8-.05-.97-.38.05-1 .44-1.3l-.01.01Zm5.53-.07c.31-.23.65-.44 1.03-.48.38-.04.81.16.93.52.13.38-.12.8-.45 1-.33.2-.75.26-1.14.3-.27.03-.55.05-.8-.05-.97-.38.05-1 .44-1.3l-.01.01Zm-1.08 5.68c.31-.23.65-.44 1.03-.48.38-.04.81.16.93.52.13.38-.12.8-.45 1-.33.2-.75.26-1.14.3-.27.03-.55.05-.8-.05-.97-.38.05-1 .44-1.3l-.01.01Zm7.53-4.14c.31-.23.65-.44 1.03-.48.38-.04.81.16.93.52.13.38-.12.8-.45 1-.33.2-.75.26-1.14.3-.27.03-.55.05-.8-.05-.97-.38.05-1 .44-1.3l-.01.01Zm-6.09 1.54c.23-.02.47-.01.68.11.21.12.36.41.31.67-.06.27-.31.43-.55.42-.24-.01-.46-.14-.67-.26-.15-.09-.3-.18-.39-.34-.37-.6.35-.58.64-.61l-.02.01Zm-29.94 10.6c.25-.1.52-.16.8-.04s.57.47.62.87c.05.41-.16.71-.43.78-.27.07-.57-.05-.86-.17-.2-.08-.41-.17-.58-.36-.67-.75.14-.94.45-1.06v-.02Zm.28-2.57c.21-.08.45-.14.68-.08.23.06.46.29.48.56.02.28-.18.5-.41.56-.23.06-.48 0-.72-.07-.16-.04-.34-.09-.47-.22-.52-.48.17-.65.45-.76l-.01.01Zm-8.57 3.33c.2.12.38.27.47.5.09.23.04.54-.16.72-.21.18-.51.16-.7 0-.19-.16-.29-.39-.38-.62-.06-.16-.13-.32-.11-.51.06-.7.63-.26.88-.1v.01Zm15.35-3.02c.2.12.38.27.47.5.09.23.04.54-.16.72-.21.18-.51.16-.7 0-.19-.16-.29-.39-.38-.62-.06-.16-.13-.32-.11-.51.06-.7.63-.26.88-.1v.01Z" fill="#fff"/><path d="M137.79 232.26c7.59.22 15.22-2.77 20.63-8.1" stroke="#FFE600" stroke-linecap="round" stroke-linejoin="round"/><path d="M122.57 236.4c7.56.79 15.25 1.56 22.74.21 7.49-1.35 14.88-5.1 18.91-11.55" stroke="#FFE600" stroke-linecap="round" stroke-linejoin="round"/><path d="M107.37 227.49c4.42-.9 9.2-.19 13.1 1.94 1.98 1.08 3.78 2.57 4.69 4.52.91 1.95.77 4.4-.75 6-1.49 1.56-3.9 2.01-6.14 2.2-3.64.31-7.32.19-10.93-.37-2.12-.33-4.26-.82-6.07-1.89-1.81-1.07-3.28-2.79-3.5-4.77-.49-4.31 5.92-6.89 9.6-7.64v.01Z" fill="#fff" stroke="#231815" stroke-width=".75" stroke-linecap="round" stroke-linejoin="round"/><path d="M148.28 243.04c6.51-3.68 15.04-3.32 21.22.88 5.4 3.67 8.73 10.09 8.81 16.59 2.19-.63 4.15-2.06 5.35-3.99a2.163 2.163 0 0 1 2.99-.7c1.02.63 1.34 1.97.7 2.99-2.38 3.84-6.83 6.35-11.35 6.4-.11 0-.21 0-.32-.02-.51-.07-.99-.32-1.34-.72-.42-.47-.61-1.11-.52-1.73.8-5.81-1.92-11.92-6.77-15.22-4.85-3.3-11.54-3.57-16.64-.69" fill="#FFE177"/><path d="M148.28 243.04c6.51-3.68 15.04-3.32 21.22.88 5.4 3.67 8.73 10.09 8.81 16.59 2.19-.63 4.15-2.06 5.35-3.99a2.163 2.163 0 0 1 2.99-.7c1.02.63 1.34 1.97.7 2.99-2.38 3.84-6.83 6.35-11.35 6.4-.11 0-.21 0-.32-.02-.51-.07-.99-.32-1.34-.72-.42-.47-.61-1.11-.52-1.73.8-5.81-1.92-11.92-6.77-15.22-4.85-3.3-11.54-3.57-16.64-.69" stroke="#231815" stroke-width=".75" stroke-linecap="round" stroke-linejoin="round"/><path d="M175.55 229.79c7.2-2.02 15.4.35 20.41 5.9 4.37 4.85 6.08 11.88 4.61 18.21 2.27-.09 4.53-1.02 6.15-2.61.86-.84 2.23-.83 3.07.03.84.86.83 2.23-.03 3.07-3.22 3.17-8.15 4.55-12.55 3.52-.1-.02-.21-.06-.3-.09-.48-.19-.88-.55-1.13-1.01-.29-.56-.33-1.22-.09-1.81 2.16-5.45.97-12.04-2.96-16.39-3.93-4.35-10.36-6.21-16-4.63" fill="#FFE177"/><path d="M175.55 229.79c7.2-2.02 15.4.35 20.41 5.9 4.37 4.85 6.08 11.88 4.61 18.21 2.27-.09 4.53-1.02 6.15-2.61.86-.84 2.23-.83 3.07.03.84.86.83 2.23-.03 3.07-3.22 3.17-8.15 4.55-12.55 3.52-.1-.02-.21-.06-.3-.09-.48-.19-.88-.55-1.13-1.01-.29-.56-.33-1.22-.09-1.81 2.16-5.45.97-12.04-2.96-16.39-3.93-4.35-10.36-6.21-16-4.63" stroke="#231815" stroke-width=".75" stroke-linecap="round" stroke-linejoin="round"/><path d="M166.54 224.28c1.45-1.75 3.36-2.79 5.31-3.4 4.11-1.3 8.57-.84 12.44 1.3 1.32.73 2.61 1.67 3.48 3.1.87 1.43 1.28 3.41.72 5.07-.79 2.34-3.04 3.22-5.03 3.71-2.87.71-5.78 1.19-8.71 1.43-1.96.16-3.96.22-5.85-.45-4.48-1.6-5.86-6.53-2.38-10.75l.02-.01Zm-25.36 7.6c4.91-1.28 10.47-.38 14.65 2.15 2.75 1.67 5.06 4.44 4.29 7.23-.44 1.61-1.86 2.94-3.54 3.78-1.68.84-3.61 1.26-5.54 1.57-3.78.6-7.65.82-11.5.63-2.2-.1-4.47-.37-6.31-1.39-7.4-4.14 2.65-12.58 7.94-13.97h.01Zm-4.2-101.45c7.14 3.36 11.5 11.47 10.19 19.01 4.4-1.64 9.41.55 12.92 3.59 4.2 3.65 7.07 8.71 8.24 14.14.58 2.69.75 5.47.47 8.2-.22 2.14-.6 5.75-2.09 7.37-1.07-3.09-1.72-6.04-3.53-8.88-1.65-2.6-3.77-4.9-6.22-6.75-6.29-4.76-12.82-4.69-20.39-4.13-4.12.3-8.34.51-12.3-.61-5.94-1.68-10.81-6.45-12.44-12.19-4.03-14.19 11.6-26.12 25.16-19.75h-.01Z" fill="#fff" stroke="#231815" stroke-width=".75" stroke-linecap="round" stroke-linejoin="round"/><path d="M130.82 201.92c-6.27 0-11.4-4.61-11.94-10.72-.28-3.17.72-6.24 2.82-8.66 2.14-2.47 5.27-3.99 8.59-4.17.22-.01.44-.02.66-.02 6.17 0 11.42 4.71 11.95 10.72.56 6.35-4.07 11.95-10.55 12.75-.51.06-1.02.09-1.53.09v.01Z" fill="#53A022"/><path d="M130.94 178.73c6.03 0 11.06 4.53 11.58 10.38.53 6.05-3.94 11.57-10.22 12.34-.5.06-1 .09-1.49.09-5.92 0-11.04-4.38-11.57-10.38-.57-6.5 4.48-12.07 11.05-12.42.22-.01.43-.02.64-.02m0-.75c-.23 0-.46 0-.68.02-3.41.18-6.64 1.75-8.85 4.3-2.16 2.49-3.2 5.67-2.91 8.94.56 6.31 5.85 11.06 12.31 11.06.52 0 1.06-.03 1.58-.1 6.68-.83 11.45-6.6 10.87-13.15-.55-6.2-5.96-11.06-12.33-11.06l.01-.01Z" fill="#231815"/><path d="M132.67 199.51c-5.55.66-10.61-3.27-11.1-8.79-.49-5.52 3.8-10.27 9.39-10.6 5.59-.33 10.02 3.66 10.48 8.84.46 5.18-3.4 9.9-8.76 10.54l-.01.01Z" fill="#C9E2A3" stroke="#231815" stroke-width=".75" stroke-miterlimit="10"/><path d="M129.32 188.2c-.19-.23-.36-.48-.44-.77-.08-.29-.05-.61.15-.84.36-.42 1.11-.27 1.47.15.36.42.42 1 .44 1.54.02.47.11.97.12 1.41-.68-.29-1.28-.94-1.74-1.5v.01Zm2.89-1.79c.09-.28.21-.55.41-.77.2-.22.49-.36.78-.33.54.07.83.75.67 1.26-.16.51-.61.88-1.06 1.19-.39.27-.76.62-1.13.87-.12-.71.1-1.55.33-2.22Zm2.15 2.09c.29-.05.59-.08.87-.01s.55.25.66.51c.2.5-.27 1.06-.8 1.17-.53.11-1.08-.11-1.57-.35-.42-.21-.92-.36-1.31-.56.58-.44 1.44-.65 2.14-.76h.01Zm-3.21 4.6c-.03.29-.08.59-.23.85-.15.26-.4.48-.7.51-.56.07-1-.53-.96-1.08.04-.55.41-1.02.79-1.43.32-.35.61-.78.92-1.1.28.67.25 1.54.18 2.25Zm-3.27-2.31c-.3.05-.61.09-.91.03-.3-.06-.59-.24-.7-.52-.22-.51.27-1.1.83-1.21.56-.11 1.12.1 1.63.34.44.2.94.36 1.34.55-.59.45-1.46.67-2.19.81Zm6.15 1.08c.24.16.48.35.63.59.15.24.22.56.1.83-.21.5-.95.59-1.41.29-.46-.3-.69-.82-.87-1.34-.15-.44-.39-.89-.53-1.3.73.09 1.49.52 2.07.92l.01.01Z" fill="#E1EFD1"/><path d="M155.63 192.01c-5.69 0-10.31-4.53-10.31-10.1 0-5.57 4.63-10.1 10.31-10.1.23 0 .46 0 .69.02 5.41.35 9.65 4.78 9.65 10.08s-4.24 9.73-9.65 10.08c-.23.02-.46.02-.69.02Z" fill="#53A022"/><path d="M155.63 172.18c.22 0 .44 0 .67.02 5.28.34 9.3 4.67 9.3 9.7 0 5.03-4.02 9.36-9.3 9.7-.22.01-.45.02-.67.02-5.39 0-9.94-4.21-9.94-9.72 0-5.51 4.55-9.72 9.94-9.72Zm0-.75c-5.89 0-10.69 4.7-10.69 10.47 0 5.77 4.79 10.47 10.69 10.47.24 0 .48 0 .72-.02 5.61-.36 10-4.95 10-10.45 0-5.5-4.39-10.09-10-10.45-.24-.02-.48-.02-.72-.02Z" fill="#231815"/><path d="M156.5 189.99c-4.82.27-8.99-3.44-8.99-8.29s4.16-8.56 8.99-8.29c4.53.26 8.01 3.97 8.01 8.29 0 4.32-3.48 8.04-8.01 8.29Z" fill="#C9E2A3" stroke="#231815" stroke-width=".75" stroke-miterlimit="10"/><path d="M154.76 180.14c-.14-.21-.27-.44-.32-.69-.05-.25 0-.52.19-.7.34-.32.97-.14 1.24.25s.28.88.26 1.34c-.02.4.02.83 0 1.2-.55-.3-1.02-.9-1.36-1.41l-.01.01Zm2.58-1.28c.1-.22.22-.45.4-.61.18-.16.44-.27.68-.21.45.1.64.7.47 1.11-.17.41-.57.69-.97.92-.34.2-.68.46-1.01.64-.05-.61.2-1.3.44-1.85h-.01Zm1.64 1.93c.24-.02.49-.02.72.06.23.08.44.25.51.48.13.43-.3.87-.75.92-.45.05-.89-.17-1.28-.41-.34-.2-.74-.37-1.06-.57.52-.32 1.25-.43 1.85-.48h.01Zm-3.03 3.65c-.05.25-.11.5-.26.71-.15.21-.38.38-.63.39-.48.02-.81-.52-.73-.99.08-.47.43-.84.78-1.16.3-.28.58-.62.86-.87.18.59.1 1.33-.02 1.92Zm-2.62-2.2c-.26.02-.54.03-.79-.05s-.49-.25-.57-.5c-.15-.46.32-.92.81-.97.49-.05.96.18 1.38.42.36.21.78.38 1.11.57-.53.34-1.3.46-1.94.52v.01Zm5.13 1.36c.19.16.37.33.48.54.11.21.14.49.03.7-.21.41-.84.43-1.2.15s-.52-.74-.63-1.19c-.1-.38-.27-.78-.35-1.14.61.12 1.21.55 1.67.93v.01Z" fill="#E1EFD1"/><path d="M161.93 164.16c-1.25-2.59-3.96-4.19-6.72-5-2.76-.81-5.66-.99-8.48-1.61-7.68-1.67-14.56-6.73-18.44-13.56" stroke="#231815" stroke-width=".75" stroke-linecap="round" stroke-linejoin="round"/><path d="M96.37 155.23c-7.72.54-8.88-8.88-5.75-13.77 3.84-5.99 9.53-10.79 16.12-13.49 6.3-2.58 19.28-6.1 24.46.36 2.25 2.81 2.11 6.76 2.65 10.32.59 3.91 2.12 7.64 2.55 11.57.73 6.73-4.47 13.39-9.24 17.71-4.06 3.67-7.99 5.9-13.42 6.98-4.56.91-9.27 1.29-13.58 3.02-5.17 2.07-9.47 6.03-12.38 10.78-2.9 4.75-4.45 10.26-4.93 15.8-1.5-2.92-2.8-6.16-4.59-8.91-1.21-1.86-3.07-2.87-4.51-4.63-2.93-3.56-4.68-8.48-4.02-13.11.65-4.52 3.23-8.4 6.9-10.99 1.5-1.06 3.05-2.31 3.52-4.09.36-1.38 0-2.84-.24-4.25-.83-4.92 3.86-10.29 8.98-9.83" fill="#fff"/><path d="M96.37 155.23c-7.72.54-8.88-8.88-5.75-13.77 3.84-5.99 9.53-10.79 16.12-13.49 6.3-2.58 19.28-6.1 24.46.36 2.25 2.81 2.11 6.76 2.65 10.32.59 3.91 2.12 7.64 2.55 11.57.73 6.73-4.47 13.39-9.24 17.71-4.06 3.67-7.99 5.9-13.42 6.98-4.56.91-9.27 1.29-13.58 3.02-5.17 2.07-9.47 6.03-12.38 10.78-2.9 4.75-4.45 10.26-4.93 15.8-1.5-2.92-2.8-6.16-4.59-8.91-1.21-1.86-3.07-2.87-4.51-4.63-2.93-3.56-4.68-8.48-4.02-13.11.65-4.52 3.23-8.4 6.9-10.99 1.5-1.06 3.05-2.31 3.52-4.09.36-1.38 0-2.84-.24-4.25-.83-4.92 3.86-10.29 8.98-9.83" stroke="#231815" stroke-width=".75" stroke-linecap="round" stroke-linejoin="round"/><path d="M80.67 168.85c4.23-1.24 8.72-1.14 13.13-1.13 4.41 0 8.93-.11 13.03-1.74s7.75-5.06 8.41-9.42c.12-.77.11-1.64-.41-2.21-.52-.57-1.69-.52-1.89.23" stroke="#231815" stroke-width=".75" stroke-linecap="round" stroke-linejoin="round"/></g><path d="M26.547 344.522h-5.824v.644h5.824v-.644Zm-5.824 2.38h5.824v-.644h-5.824v.644Zm0 1.778h5.824v-.672h-5.824v.672Zm-1.61 1.68v-7.014h9.1v6.944h-1.666v-.406h-5.824v.476h-1.61Zm7.672-10.584v1.092H20.47v-1.092h6.314Zm-.014 2.842h-6.286v-1.106h6.286v1.106Zm-8.596-4.662h10.892v5.012h-1.68v-3.836h-7.602v3.85h-1.61v-5.026Zm21.28 2.492h2.996a14.213 14.213 0 0 1-1.652-1.26c-.42.448-.868.868-1.344 1.26Zm-.588 1.246v-.812c-.434.308-.91.602-1.386.854-.21-.294-.686-.798-1.022-1.092-.154.518-.28 1.022-.42 1.456.714 1.078.854 2.086.854 2.884 0 .924-.154 1.526-.56 1.848-.196.168-.448.266-.742.308-.224.042-.532.042-.812.042-.014-.406-.126-1.022-.336-1.442.21.028.364.028.518.014a.454.454 0 0 0 .322-.112c.154-.126.21-.434.21-.854 0-.644-.112-1.568-.784-2.534.224-.84.476-1.988.672-2.912h-1.022v11.004h-1.386v-12.488h2.842l.224-.056 1.036.602c-.182.658-.392 1.4-.588 2.128 1.596-.826 3.066-2.128 3.85-3.402l1.596.56c-.084.14-.168.294-.266.434 1.036.84 2.562 1.666 3.934 2.114a7.609 7.609 0 0 0-.63 1.582 16.88 16.88 0 0 1-1.988-1.036v.91h-4.116Zm3.57 1.82v1.288h.98v-1.288h-.98Zm-1.204 2.394v-3.514h3.472v3.514h-3.472Zm-2.814-2.394v1.288h.938v-1.288h-.938Zm-1.19 2.394v-3.514h3.374v3.514h-3.374Zm1.092.154 1.456.308c-.084.28-.196.56-.308.826.49.322 1.036.714 1.33 1.008l-.84 1.106c-.238-.28-.672-.644-1.106-.966a7.132 7.132 0 0 1-2.002 2.086c-.224-.28-.756-.826-1.078-1.05 1.232-.728 2.128-1.904 2.548-3.318Zm3.864-.014 1.498.21a7.54 7.54 0 0 1-.322 1.134c.784.546 1.694 1.204 2.17 1.68l-.98 1.12c-.392-.42-1.078-.994-1.778-1.512-.42.7-.938 1.288-1.554 1.736-.21-.28-.742-.84-1.064-1.05 1.092-.714 1.764-1.89 2.03-3.318Zm12.39-5.824h5.67s-.014.574-.042.798c-.28 5.572-.56 7.672-1.176 8.4-.42.546-.826.7-1.428.784-.518.07-1.386.07-2.24.028-.028-.504-.252-1.246-.574-1.722.882.07 1.708.07 2.072.07.294 0 .462-.042.658-.224.42-.434.7-2.268.924-6.426h-3.92c-.224 2.898-1.204 6.3-5.138 8.526-.266-.42-.896-1.05-1.302-1.358 3.472-1.89 4.41-4.718 4.648-7.168h-4.214v-1.708h4.284v-2.884h1.778v2.884Z" fill="#231815"/><g clip-path="url(#clip2_799_36249)"><path d="M72.784 335.49c.85 0 2.2 2.79 2.91 3.15.49.25 2.39-.54 2.78-.16.39.38-.17 2.53.08 3.05.35.7 3.14 1.8 3.14 2.64 0 .87-2.86 2.13-3.23 2.85-.26.5.42 2.5.02 2.89-.4.39-2.52-.26-3.05-.01-.68.32-1.77 2.94-2.57 2.94-.8 0-2.04-2.63-2.73-2.96-.52-.25-2.53.46-2.93.07-.4-.39.31-2.39.05-2.9-.36-.71-3.11-1.95-3.11-2.8 0-.85 2.65-1.98 2.98-2.66.26-.53-.42-2.61-.01-3.02.41-.41 2.36.3 2.86.04.71-.36 1.675-3.11 2.525-3.11l.285-.01Z" fill="#00698A" stroke="#231815" stroke-miterlimit="10"/></g><g clip-path="url(#clip3_799_36249)"><path d="M93.345 335.49c.85 0 2.2 2.79 2.91 3.15.49.25 2.39-.54 2.78-.16.39.38-.17 2.53.08 3.05.35.7 3.14 1.8 3.14 2.64 0 .87-2.86 2.13-3.23 2.85-.26.5.42 2.5.02 2.89-.4.39-2.52-.26-3.05-.01-.68.32-1.77 2.94-2.57 2.94-.8 0-2.04-2.63-2.73-2.96-.52-.25-2.53.46-2.93.07-.4-.39.31-2.39.05-2.9-.36-.71-3.11-1.95-3.11-2.8 0-.85 2.65-1.98 2.98-2.66.26-.53-.42-2.61-.01-3.02.41-.41 2.36.3 2.86.04.71-.36 1.97-3.11 2.82-3.11l-.01-.01Z" fill="#00698A" stroke="#231815" stroke-miterlimit="10"/><path d="M96.695 338.64c-.71-.36-2.06-3.15-2.91-3.15v17.35h.08c.8 0 1.89-2.62 2.57-2.94.53-.25 2.65.4 3.05.01.4-.39-.28-2.39-.02-2.89.37-.72 3.23-1.98 3.23-2.85 0-.84-2.79-1.94-3.14-2.64-.25-.52.31-2.67-.08-3.05-.39-.38-2.29.41-2.78.16Z" fill="#fff"/><path d="M93.785 335.49c.85 0 2.2 2.79 2.91 3.15.49.25 2.39-.54 2.78-.16.39.38-.17 2.53.08 3.05.35.7 3.14 1.8 3.14 2.64 0 .87-2.86 2.13-3.23 2.85-.26.5.42 2.5.02 2.89-.4.39-2.52-.26-3.05-.01-.68.32-1.77 2.94-2.57 2.94h-.08v-17.35Zm0 0 .01.01" stroke="#231815" stroke-miterlimit="10"/></g><path d="m165.733 346.322 1.484.504c-.574.784-1.4 1.764-2.058 2.338-.28-.266-.896-.714-1.26-.938a9.44 9.44 0 0 0 1.834-1.904Zm4.676.672 1.204-.7c.63.644 1.526 1.554 1.988 2.128l-1.288.784c-.42-.56-1.26-1.526-1.904-2.212Zm.392-3.206v-.518h-3.598v.518h3.598Zm0 1.456v-.532h-3.598v.532h3.598Zm-6.552-6.342v3.108c0 .378-.014.784-.028 1.204a7.623 7.623 0 0 0 1.204-.728c-.266-.224-.56-.462-.826-.644l.84-.742c.266.168.588.392.868.602.21-.21.406-.434.574-.672h-2.142v-1.246h2.884c.112-.294.224-.588.308-.882h-3.682Zm5.292 2.128h-.938c-.266.434-.56.854-.91 1.26h2.702a7.67 7.67 0 0 1-.854-1.26Zm3.08 0h-1.568c.21.28.462.546.742.798.294-.266.616-.574.826-.798Zm.07 0 .91.672c-.294.28-.63.56-.952.798.42.266.868.504 1.33.658a4.81 4.81 0 0 0-.966 1.176 6.639 6.639 0 0 1-.756-.406v2.296h-2.45v1.792c0 .686-.126 1.022-.644 1.246-.476.21-1.106.21-1.946.21-.098-.42-.336-.966-.518-1.33.518.014 1.092.014 1.274.014.168 0 .224-.056.224-.196v-1.736h-2.38v-2.31c-.266.182-.546.35-.84.504a3.555 3.555 0 0 0-.77-.91c-.14 2.03-.63 4.396-2.044 5.95-.21-.308-.84-.91-1.148-1.106.924-1.022 1.344-2.324 1.54-3.626-.504.308-.994.602-1.484.868l-.462-1.498c.546-.224 1.302-.602 2.1-1.008.014-.364.014-.728.014-1.078v-.476l-1.232.56c-.14-.714-.476-1.918-.77-2.814l1.232-.49c.266.784.588 1.792.77 2.478v-3.766h4.648l-.28-.84 1.694-.336c.14.364.28.784.406 1.176h4.578v1.4h-5.264l.98.126c-.084.266-.182.504-.28.756h4.438v1.246h-.952Zm7.728 8.162-1.26-.7c.49-.504.952-1.316 1.204-2.002l1.246.546c-.294.714-.686 1.596-1.19 2.156Zm4.368-4.522v-2.716h1.176v2.716h-1.176Zm3.346-2.856v3.136c0 .588-.084.854-.49 1.036-.392.182-.91.182-1.638.182-.056-.336-.238-.77-.406-1.078.448.014.882.014 1.036 0 .14-.014.182-.042.182-.168v-3.108h1.316Zm-4.746 4.606 1.05-.658c.434.364 1.05.924 1.344 1.288l-1.078.728c-.28-.392-.854-.952-1.316-1.358Zm-1.764-2.24h1.4v-.392h-1.386c0 .126 0 .266-.014.392Zm1.4-1.442h-1.386v.35h1.386v-.35Zm1.19-.812v3.234c0 .476-.084.658-.406.798-.28.14-.728.14-1.316.14-.028-.266-.168-.574-.28-.812.28.014.574.014.672.014.098 0 .14-.028.14-.14v-.28h-1.484c-.112.504-.322.966-.742 1.33-.196-.224-.714-.63-.98-.784.602-.462.644-1.078.644-1.68v-1.82h3.752Zm-.476 6.272h1.54c.364 0 .448-.112.49-.84.266.182.798.336 1.148.406-.14 1.19-.49 1.498-1.498 1.498h-1.862c-1.414 0-1.75-.322-1.75-1.4v-1.33h1.358v1.316c0 .322.084.35.574.35Zm2.674-1.26 1.19-.532c.518.658 1.134 1.554 1.414 2.156l-1.26.588c-.238-.574-.826-1.526-1.344-2.212Zm-3.024-6.272h2.142a18.048 18.048 0 0 1-1.148-.588c-.322.21-.644.406-.994.588Zm-3.64-1.708v1.694c1.47-.364 3.108-.938 4.158-1.694h-4.158Zm5.698.28-.14.14a17.324 17.324 0 0 0 3.962 1.19c-.308.28-.686.742-.868 1.134a20.442 20.442 0 0 1-2.212-.742v.602h-3.668v-.476c-.686.28-1.4.546-2.086.742a4.917 4.917 0 0 0-.686-.924v1.162c0 2.226-.294 5.488-2.086 7.434-.21-.308-.84-.896-1.148-1.092.924-1.022 1.344-2.338 1.54-3.654-.504.308-.994.616-1.484.896l-.462-1.498c.546-.238 1.302-.616 2.1-1.008.014-.378.014-.742.014-1.078v-.49l-1.232.574c-.07-.742-.392-1.918-.756-2.814l1.19-.504c.35.784.672 1.764.798 2.45v-3.724h4.83a11.057 11.057 0 0 0-.294-.952l1.68-.322c.154.392.322.854.448 1.274h4.242v1.4h-4.256l.574.28Zm12.81.056h5.67s-.014.574-.042.798c-.28 5.572-.56 7.672-1.176 8.4-.42.546-.826.7-1.428.784-.518.07-1.386.07-2.24.028-.028-.504-.252-1.246-.574-1.722.882.07 1.708.07 2.072.07.294 0 .462-.042.658-.224.42-.434.7-2.268.924-6.426h-3.92c-.224 2.898-1.204 6.3-5.138 8.526-.266-.42-.896-1.05-1.302-1.358 3.472-1.89 4.41-4.718 4.648-7.168h-4.214v-1.708h4.284v-2.884h1.778v2.884Z" fill="#231815"/><g clip-path="url(#clip4_799_36249)"><path d="M219.405 335.49c-1.34 0-2.54.55-3.41 1.44a4.741 4.741 0 0 0-3.41-1.44c-2.64 0-4.77 2.13-4.77 4.77 0 4.79 8.18 10.62 8.18 10.62s8.18-5.83 8.18-10.62a4.77 4.77 0 0 0-4.77-4.77Z" fill="#FF002A" stroke="#231815" stroke-miterlimit="10"/></g><g clip-path="url(#clip5_799_36249)"><path d="M238.755 335.49c-1.34 0-2.54.55-3.41 1.44a4.741 4.741 0 0 0-3.41-1.44c-2.64 0-4.77 2.13-4.77 4.77 0 4.79 8.18 10.62 8.18 10.62s8.18-5.83 8.18-10.62a4.77 4.77 0 0 0-4.77-4.77Z" fill="#FF002A" stroke="#231815" stroke-miterlimit="10"/></g><path d="M15.5 368.35a4.5 4.5 0 0 1 4.5-4.5h44.5v33H20a4.5 4.5 0 0 1-4.5-4.5v-24Z" fill="#00698A"/><path d="M33.778 377.916v-.798H31.86v.798h1.918Zm0 2.212v-.868H31.86v.868h1.918Zm0 2.226v-.882H31.86v.882h1.918Zm-3.528 1.988v-5.81c-.238.28-.476.518-.714.756-.154-.336-.616-1.162-.896-1.526 1.12-1.008 2.128-2.604 2.688-4.242l1.512.42c-.21.602-.476 1.19-.756 1.778h2.086a13.32 13.32 0 0 0-.658-1.512l1.568-.448c.35.602.714 1.372.896 1.96h2.212v1.4H35.36v.798h2.254v1.344H35.36v.868h2.198v1.344H35.36v.882h2.982v1.4H31.86v.588h-1.61Zm-1.68-8.526-1.526.532c-.154-.63-.518-1.652-.756-2.408l1.47-.448c.266.756.616 1.694.812 2.324Zm.126 3.962.714.252c-.252 1.274-.63 2.59-1.106 3.64.224.14.49.336.868.56.952.574 2.268.658 3.906.658 1.61 0 4.116-.14 5.656-.364-.182.448-.462 1.26-.476 1.708-1.162.07-3.626.168-5.264.168-1.862 0-3.038-.154-4.046-.742-.588-.322-1.078-.784-1.372-.784-.322 0-.812.952-1.162 1.75l-1.106-1.582c.476-.588.994-1.05 1.47-1.33.308-.7.588-1.582.798-2.436h-1.764c.322-.826.7-1.946 1.008-3.038h-1.26v-1.484h3.276c-.294.98-.63 2.1-.952 3.08h.56l.252-.056Zm15.652-6.23 1.554.518a21.66 21.66 0 0 1-1.358 2.66v9.842h-1.582v-7.546c-.448.56-.882 1.05-1.344 1.484-.154-.406-.616-1.316-.882-1.736 1.428-1.232 2.814-3.22 3.612-5.222Zm5.026 11.228h2.044c.714 0 .826-.588.952-2.898.378.294 1.036.616 1.47.7-.182 2.702-.602 3.668-2.296 3.668h-2.338c-1.722 0-2.212-.56-2.212-2.464v-10.024h1.61v3.556h4.872v1.596h-4.872v4.9c0 .826.098.966.77.966Z" fill="#fff"/><path d="M15.5 368.35a4.5 4.5 0 0 1 4.5-4.5h44.5v33H20a4.5 4.5 0 0 1-4.5-4.5v-24Z" stroke="#231815"/><path d="M64.5 363.85H260a4.5 4.5 0 0 1 4.5 4.5v24a4.5 4.5 0 0 1-4.5 4.5H64.5v-33Z" fill="#fff"/><path d="m79.768 375.592.854-.308c-.798.042-1.582.098-2.38.126.28.35.532.756.63 1.064l-.588.252h2.044c-.112-.35-.336-.784-.56-1.134Zm1.176 1.134H83.1c.308-.504.714-1.204.966-1.778-.91.112-1.89.21-2.884.294.28.378.532.84.602 1.176l-.84.308ZM76.604 378v1.288h-1.582v-2.562h2.31a5.052 5.052 0 0 0-.588-.98l.714-.308-1.722.042a4.371 4.371 0 0 0-.322-1.204c3.43-.07 7.504-.336 9.8-.798l1.106 1.106c-.546.112-1.148.224-1.778.294l1.246.406c-.35.504-.714 1.008-1.05 1.442h2.254v2.758h-1.33c.378.35.686.7.882 1.008l-1.19.896c-.406-.658-1.33-1.596-2.142-2.24l1.12-.798c.322.238.672.532 1.008.826V378h-3.794c.378.196.7.42.938.616l-.826.924c-.434-.378-1.288-.896-2.002-1.204l.308-.336h-3.36Zm.476.476 1.26.546c-.308.798-.756 1.652-1.498 2.226l-1.162-.896c.63-.42 1.134-1.162 1.4-1.876Zm1.918 4.452-.028.014c.658.406 1.4.728 2.226 1.022.686-.294 1.274-.63 1.764-1.036h-3.962Zm5.432-1.246 1.05.686c-.588.868-1.358 1.568-2.296 2.142 1.302.252 2.744.434 4.298.518-.336.378-.742 1.078-.938 1.54-2.072-.168-3.92-.518-5.53-1.064-1.666.574-3.57.91-5.544 1.106-.14-.378-.532-1.05-.84-1.386 1.568-.084 3.08-.28 4.424-.588a9.76 9.76 0 0 1-1.414-.91c-.504.266-1.008.49-1.484.686-.266-.294-.812-.854-1.148-1.092.518-.154 1.036-.35 1.512-.574a10.509 10.509 0 0 1-.854-1.036l1.316-.532c.238.322.518.63.826.91.546-.336 1.05-.714 1.442-1.12-.616-.182-.784-.574-.784-1.386v-.966h1.526v.966c0 .322.098.35.574.35h1.47c.336 0 .434-.084.476-.644.308.182.882.35 1.274.42-.154 1.078-.532 1.372-1.582 1.372h-1.288l.084.028c-.168.21-.336.42-.532.616h3.682l.28-.042Zm8.54-.238v-5.138h-1.106v5.138h1.106Zm4.69 3.276h3.122c.532 0 .728-.224.784-1.96.462.252.994.448 1.498.546-.182 2.534-.826 3.038-2.38 3.038h-2.968c-1.862 0-2.702-.742-2.702-1.876 0-.77.182-1.582 3.598-4.494h-2.66v-1.484a6.851 6.851 0 0 1-.406.49c-.238-.224-.7-.63-1.078-.91v4.998h-2.604v1.12h-1.526v-9.478h4.13v2.898c.98-1.05 1.764-2.576 2.226-4.13l1.652.406c-.168.532-.378 1.05-.602 1.568h4.928v1.554H96.96c-.294.532-.63.994-.966 1.428h4.76l.378-.042 1.12.63c-.056.084-.14.182-.238.28-4.914 3.794-5.278 4.48-5.278 4.928 0 .35.35.49.924.49Zm20.692-8.428-1.386.532c-.126-.63-.546-1.666-.98-2.422l1.302-.476c.462.742.91 1.708 1.064 2.366Zm-7.182-.728v-.84h-.77v.84h.77Zm1.246-1.792v2.716h-3.178v-2.716h3.178Zm-5.11 5.656v.602h1.036v-.602h-1.036Zm0-1.512v.588h1.036v-.588h-1.036Zm3.458.588v-.588h-1.078v.588h1.078Zm0 1.526v-.602h-1.078v.602h1.078Zm-4.928.98v-4.074h6.454v4.074h-6.454Zm1.75-5.446v-.84h-.714v.84h.714Zm1.19-1.792v2.716h-3.066v-2.716h3.066Zm4.116 7.644v1.176h-7.63v-1.176h7.63Zm-5.292 3.486h2.94v-.77h-2.94v.77Zm10.668-6.132h-2.198c.364 2.688 1.05 5.152 2.45 6.454-.378.294-.91.924-1.162 1.372-.994-1.05-1.624-2.548-2.058-4.34-.42 1.54-1.148 3.066-2.352 4.312a7.367 7.367 0 0 0-.812-.812v.616h-1.596v-.322h-2.94v.504h-1.512v-3.542h6.048v1.96c1.61-1.82 2.002-4.214 2.1-6.202H112.5v-1.54h1.764v-3.724h1.624v3.724h2.38v1.54Z" fill="#231815"/><path d="M64.5 363.85H260a4.5 4.5 0 0 1 4.5 4.5v24a4.5 4.5 0 0 1-4.5 4.5H64.5v-33Z" stroke="#231815"/><path d="M15.5 412.35a4.5 4.5 0 0 1 4.5-4.5h44.5v33H20a4.5 4.5 0 0 1-4.5-4.5v-24Z" fill="#00698A"/><path d="M33.918 420.978v2.002h-1.526v-2.002h1.526Zm1.512 7.644h-.462c.21.252.406.504.546.77h.308c.14 0 .238-.028.322-.154.154-.196.266-.896.35-2.772h-3.472v.392h2.408v1.764Zm-2.408.406.896-.042a3.952 3.952 0 0 0-.196-.252l.28-.112h-.98v.406Zm1.148-1.064v-.448h-1.148v.448h1.148Zm-3.724 0h1.176v-.448h-1.176v.448Zm1.176-1.498h-1.134c-.14.14-.28.266-.434.392h1.568v-.392Zm-3.374-5.684v1.372c0 1.302-.056 2.954-.308 4.564.868-.476 1.54-1.036 2.002-1.596h-1.148v-1.96h.28l-.238-.826c.588-.098 1.386-.224 2.24-.392a15.106 15.106 0 0 0-1.96-.406l.238-.728c.84.098 1.792.266 2.38.462l-.238.602.532-.098.014.826c-.896.21-1.82.42-2.59.56h7.266c-.658-.196-1.568-.378-2.408-.49l.238-.714.294.014-.322-.658c.504-.084 1.246-.336 1.806-.532h-8.078Zm7.896-1.722h-7.896v.658h7.896v-.658Zm-.042 5.39v-.616h-1.19v.616h1.19Zm-2.45 0v-.616H32.49v.616h1.162Zm-2.422 0v-.616h-1.134v.616h1.134Zm.112 1.092h6.678s0 .35-.014.518c-.112 2.604-.252 3.598-.56 3.976-.224.294-.504.392-.812.434-.294.056-.77.056-1.26.042a2.693 2.693 0 0 0-.098-.532l-.602.252a3.58 3.58 0 0 0-.154-.336c-2.156.154-4.382.294-5.992.392l-.098-1.078c.868-.028 1.974-.084 3.192-.14v-.448h-2.366v-1.176a12.67 12.67 0 0 1-.56.364c-.182-.252-.518-.56-.798-.77-.224 1.274-.546 2.492-1.078 3.486-.308-.252-1.022-.658-1.442-.812 1.162-2.156 1.26-5.334 1.26-7.56v-4.144h11.13v2.772h-.966l.364.644c-.686.266-1.624.448-2.282.56.854.098 1.778.28 2.324.448l-.266.728h.532v1.96H31.65c-.098.14-.196.28-.308.42Zm19.222 2.996h3.304v1.582H45.16v-1.582h3.738v-2.8h-2.702v-1.554h2.702v-2.296h-1.54c-.21.728-.49 1.4-.784 1.932a14.722 14.722 0 0 0-1.484-.756c.14-.252.28-.518.42-.812l-.798.364c-.084-.42-.294-1.036-.532-1.61v9.562h-1.666v-10.01c-.084 1.176-.308 2.716-.63 3.71l-1.232-.448c.336-.924.588-2.492.686-3.64l1.176.168v-2.856h1.666v2.646l.812-.336c.28.546.574 1.218.77 1.764.35-1.022.602-2.226.742-3.416l1.624.224c-.098.658-.21 1.316-.35 1.946h1.12v-2.744h1.666v2.744h2.856v1.568h-2.856v2.296h2.562v1.554h-2.562v2.8Z" fill="#fff"/><path d="M15.5 412.35a4.5 4.5 0 0 1 4.5-4.5h44.5v33H20a4.5 4.5 0 0 1-4.5-4.5v-24Z" stroke="#231815"/><path d="M64.5 407.85H260a4.5 4.5 0 0 1 4.5 4.5v24a4.5 4.5 0 0 1-4.5 4.5H64.5v-33Z" fill="#fff"/><path d="M84.864 424.1v-2.492h-2.1v2.492h2.1Zm-2.1 4.13h2.1v-2.562h-2.1v2.562Zm-4.214-.098v-1.918h-2.142v1.918h2.142Zm8.988-8.134v1.61h-.98v8.904h-1.694v-.7h-2.1v.756h-1.652v-8.96h-.742v1.372h-2.072v1.75h1.82v5.334H78.55v-.448h-2.142v.784h-1.484v-5.67h1.68v-1.75h-2.156v-1.554h2.156v-2.1H74.7v-1.554h5.362v1.554h-1.764v2.1h1.75v-1.428h1.064v-2.45h1.652v2.45h2.1v-2.45h1.694v2.45h.98Zm12.376 3.92v.588l.896-.014a9.752 9.752 0 0 0-.336-.392l.392-.182h-.952Zm-2.548-.896H98.5v-.56h-1.134v.56Zm0-1.96v.546H98.5v-.546h-1.134Zm3.738 0h-1.19v.546h1.19v-.546Zm0 1.96v-.56h-1.19v.56h1.19Zm-5.32 2.744-.084-1.19c.77 0 1.736-.014 2.8-.042v-.616h-2.436v-3.752H98.5v-.518h-2.674v-1.218H98.5v-.924h1.414v.924h2.814v1.218h-2.814v.518h2.562v3.752h-.588c.462.532.882 1.148 1.12 1.61l-1.162.574c-.07-.14-.154-.308-.266-.49-2.1.07-4.256.126-5.796.154Zm4.032 3.318v-1.54h-2.1c.434.434.826.966 1.022 1.358l-.574.364c.56.028 1.204.028 1.386.028.196-.014.266-.056.266-.21Zm-8.33-4.998v.826h.798v-.826h-.798Zm0-1.918v.826h.798v-.826h-.798Zm2.73.826v-.826h-.854v.826h.854Zm0 1.918v-.826h-.854v.826h.854Zm7.112.868v.546h1.596v1.218h-1.596v1.582c0 .714-.112 1.064-.644 1.274-.518.196-1.19.21-2.17.21-.042-.406-.238-.924-.406-1.302l-.56.35c-.224-.49-.7-1.204-1.204-1.708l.686-.406h-1.316v.812h-2.156v2.212h-1.47v-2.212h-2.254V426.9h2.254v-.84h-1.792v-5.054h1.792v-.728H90.03v-1.442h2.058v-1.33h1.47v1.33h1.988v1.442h-1.988v.728h1.862v5.054h-1.862v.84h2.156v-.574h4.102v-.546h1.512Zm13.986-1.862v.588l.896-.014a9.752 9.752 0 0 0-.336-.392l.392-.182h-.952Zm-2.548-.896h1.134v-.56h-1.134v.56Zm0-1.96v.546h1.134v-.546h-1.134Zm3.738 0h-1.19v.546h1.19v-.546Zm0 1.96v-.56h-1.19v.56h1.19Zm-5.32 2.744-.084-1.19c.77 0 1.736-.014 2.8-.042v-.616h-2.436v-3.752h2.436v-.518h-2.674v-1.218h2.674v-.924h1.414v.924h2.814v1.218h-2.814v.518h2.562v3.752h-.588c.462.532.882 1.148 1.12 1.61l-1.162.574a6.108 6.108 0 0 0-.266-.49c-2.1.07-4.256.126-5.796.154Zm4.032 3.318v-1.54h-2.1c.434.434.826.966 1.022 1.358l-.574.364c.56.028 1.204.028 1.386.028.196-.014.266-.056.266-.21Zm-8.33-4.998v.826h.798v-.826h-.798Zm0-1.918v.826h.798v-.826h-.798Zm2.73.826v-.826h-.854v.826h.854Zm0 1.918v-.826h-.854v.826h.854Zm7.112.868v.546h1.596v1.218h-1.596v1.582c0 .714-.112 1.064-.644 1.274-.518.196-1.19.21-2.17.21-.042-.406-.238-.924-.406-1.302l-.56.35c-.224-.49-.7-1.204-1.204-1.708l.686-.406h-1.316v.812h-2.156v2.212h-1.47v-2.212h-2.254V426.9h2.254v-.84h-1.792v-5.054h1.792v-.728h-2.058v-1.442h2.058v-1.33h1.47v1.33h1.988v1.442h-1.988v.728h1.862v5.054h-1.862v.84h2.156v-.574h4.102v-.546h1.512Z" fill="#231815"/><path d="M64.5 407.85H260a4.5 4.5 0 0 1 4.5 4.5v24a4.5 4.5 0 0 1-4.5 4.5H64.5v-33Z" stroke="#231815"/><path d="M15.5 456.35a4.5 4.5 0 0 1 4.5-4.5h44.5v33H20a4.5 4.5 0 0 1-4.5-4.5v-24Z" fill="#00698A"/><path d="m30.138 467.442.21 1.526c-.49.14-.994.28-1.498.406v3.346c0 .812-.154 1.204-.63 1.47-.462.252-1.134.294-2.114.294a7.24 7.24 0 0 0-.476-1.512c.546.014 1.12.014 1.302.014.21 0 .266-.07.266-.28v-2.884l-1.358.336-.434-1.582c.518-.098 1.12-.238 1.792-.406v-2.478h-1.61v-1.54h1.61v-2.66h1.652v2.66h1.372v1.54H28.85v2.072l1.288-.322Zm5.852.756h-3.402a8.001 8.001 0 0 0 1.652 2.478 7.802 7.802 0 0 0 1.75-2.478Zm1.05-1.568 1.064.448c-.532 1.946-1.428 3.472-2.604 4.648.91.644 1.988 1.106 3.234 1.414-.35.336-.826 1.008-1.064 1.442-1.358-.406-2.52-.98-3.486-1.764-1.092.756-2.324 1.316-3.682 1.722-.182-.448-.588-1.148-.896-1.512 1.232-.294 2.366-.742 3.346-1.372-.826-.938-1.484-2.044-1.988-3.332l.42-.126h-.728V466.7h2.758v-1.68h-3.01v-1.54h3.01v-2.002h1.652v2.002h3.136v1.54h-3.136v1.68h1.68l.294-.07Zm15.274 1.036h-2.128c-1.68 0-2.128-.616-2.128-2.17v-3.976h1.652v1.652h3.444v1.428H49.71v.924c0 .518.084.714.532.714h2.044c.392 0 .98-.042 1.288-.112.028.434.098 1.036.154 1.414-.294.098-.882.126-1.414.126Zm-9.044 1.498v.504c0 .532-.028 1.162-.098 1.792.63-.28 1.456-.7 2.296-1.148v-.462l-.672.658c-.35-.364-.994-.91-1.526-1.344Zm2.198-1.26H43.27v.994l.7-.602c.476.336 1.078.826 1.498 1.19v-1.582Zm1.568-1.4v6.524c0 .686-.126 1.036-.588 1.26-.448.21-1.078.238-1.932.238-.07-.392-.294-.938-.504-1.302.504.028 1.05.028 1.218.028.182 0 .238-.056.238-.238v-1.428c-.7.504-1.4.98-2.03 1.386l-.35-.98c-.154.952-.462 1.904-.994 2.632-.238-.322-.868-.924-1.162-1.12.742-1.092.798-2.632.798-3.85v-3.15h5.306Zm-2.128-3.486 1.344-.49c.588 1.008 1.33 2.38 1.666 3.22l-1.456.588c-.084-.252-.21-.546-.35-.882-3.542.35-4.116.434-4.522.602a17.634 17.634 0 0 0-.518-1.498c.252-.056.49-.252.77-.56.28-.308 1.134-1.386 1.652-2.492l1.68.476c-.476.812-1.106 1.624-1.722 2.324l2.044-.154c-.21-.406-.406-.798-.588-1.134Zm5.446 9.996h1.596c.476 0 .574-.238.644-1.526.336.252 1.008.504 1.442.602-.168 1.834-.602 2.38-1.932 2.38h-1.988c-1.652 0-2.058-.49-2.058-2.016v-4.396h1.652v1.4h3.542v1.47H49.71v1.526c0 .49.098.56.644.56Z" fill="#fff"/><path d="M15.5 456.35a4.5 4.5 0 0 1 4.5-4.5h44.5v33H20a4.5 4.5 0 0 1-4.5-4.5v-24Z" stroke="#231815"/><path d="M64.5 451.85H260a4.5 4.5 0 0 1 4.5 4.5v24a4.5 4.5 0 0 1-4.5 4.5H64.5v-33Z" fill="#fff"/><path d="M84.864 468.1v-2.492h-2.1v2.492h2.1Zm-2.1 4.13h2.1v-2.562h-2.1v2.562Zm-4.214-.098v-1.918h-2.142v1.918h2.142Zm8.988-8.134v1.61h-.98v8.904h-1.694v-.7h-2.1v.756h-1.652v-8.96h-.742v1.372h-2.072v1.75h1.82v5.334H78.55v-.448h-2.142v.784h-1.484v-5.67h1.68v-1.75h-2.156v-1.554h2.156v-2.1H74.7v-1.554h5.362v1.554h-1.764v2.1h1.75v-1.428h1.064v-2.45h1.652v2.45h2.1v-2.45h1.694v2.45h.98Zm12.712-.252v-.658h-3.752v.658h3.752Zm0 1.778v-.686h-3.752v.686h3.752Zm1.638-3.612v4.774H94.93v-4.774h6.958Zm-7.98.98-.966 1.372c-.504-.476-1.554-1.106-2.394-1.47l.938-1.26c.812.336 1.89.896 2.422 1.358Zm-.756 3.682-.966 1.386c-.49-.462-1.526-1.05-2.352-1.414l.896-1.246c.826.294 1.89.826 2.422 1.274Zm9.772 2.002h-5.992a8.345 8.345 0 0 1-.392.672h6.104s-.014.392-.042.574c-.168 2.66-.35 3.794-.714 4.214a1.377 1.377 0 0 1-.896.49c-.308.056-.826.056-1.386.042-.014-.462-.154-1.064-.378-1.442.406.042.728.042.91.042.182 0 .294-.028.406-.154.182-.21.322-.868.434-2.492h-.574c-.63 1.652-1.624 3.122-2.716 4.06a8.838 8.838 0 0 0-1.204-.868c.994-.756 1.834-1.904 2.366-3.192h-.798c-.826 1.484-2.058 2.856-3.262 3.738a9.838 9.838 0 0 0-1.12-1.008 9.226 9.226 0 0 0 2.73-2.73h-.798c-.462.518-.938.98-1.428 1.344a8.659 8.659 0 0 0-1.036-.868 65.068 65.068 0 0 1-1.61 3.402l-1.498-.98c.644-1.078 1.54-2.842 2.24-4.48l1.316.994-.336.798a7.653 7.653 0 0 0 2.03-2.156h-1.568v-1.33h9.212v1.33Zm10.122-3.206v-.49H110.4v.49h2.646Zm1.428-1.246v2.002h-5.418v-2.002h5.418Zm-4.606 5.488v.434h3.71v-.434h-3.71Zm0-1.176v.42h3.71v-.42h-3.71Zm0-1.162v.42h3.71v-.42h-3.71Zm5.166 3.542h-1.442c.756.322 1.582.7 2.072 1.022l-1.372.56c-.462-.35-1.33-.84-2.114-1.19l.672-.392h-2.268l.756.252c-.644.518-1.694 1.036-2.59 1.33a8.343 8.343 0 0 0-.952-.896c.728-.182 1.512-.42 2.058-.686h-1.372v-4.312h6.552v4.312Zm-7.63 1.722h8.708v-8.96h-8.708v8.96Zm-1.582-10.458h11.942v12.53h-1.652v-.588h-8.708v.588h-1.582v-12.53Zm24.738 8.75h-2.744c.588.308 1.232.63 1.862.98.336-.294.63-.616.882-.98Zm.994-1.148.91.322c-.35 1.022-.868 1.834-1.54 2.492.63.35 1.204.7 1.624.98l-.84 1.106a29.84 29.84 0 0 0-1.904-1.218c-.882.546-1.96.938-3.122 1.204-.14-.364-.434-.896-.7-1.204.91-.154 1.764-.42 2.492-.784-.686-.378-1.344-.756-1.946-1.078l.56-.672h-.336v-1.106h4.55l.252-.042Zm.728-6.72 1.204.854c-.532.476-1.134.924-1.652 1.288.616.322 1.288.588 2.002.784-.35.322-.77.91-.994 1.316a9.576 9.576 0 0 1-1.596-.672v1.204c0 .336.028.448.21.448h.686c.196 0 .532-.014.714-.07.028.336.056.812.112 1.134-.196.07-.518.084-.812.084h-.868c-1.176 0-1.4-.476-1.4-1.61v-.812H128.6c-.042.98-.378 2.03-1.54 2.772-.154-.238-.56-.644-.84-.896v.42h-2.772c-.056.322-.098.658-.14.966h2.912s-.014.378-.028.574c-.154 1.89-.322 2.8-.686 3.164-.294.322-.63.434-1.12.462-.378.042-1.106.042-1.848.014a3.155 3.155 0 0 0-.476-1.386c.7.056 1.386.07 1.694.07.224 0 .378-.014.504-.14.168-.154.294-.602.392-1.554h-2.94c.196-.91.42-2.296.546-3.402h2.478v-.98h-2.03v-.224c-.42.21-.84.392-1.274.546a6.351 6.351 0 0 0-.896-1.218 9.173 9.173 0 0 0 2.352-1.078c-.378-.28-.882-.602-1.302-.84l.952-.882c.476.238 1.064.574 1.47.882.294-.28.574-.574.812-.896h-2.758v-1.302h3.654l.28-.07 1.022.504c-.56 1.372-1.498 2.464-2.632 3.318h1.834v2.786c.868-.574.994-1.246.994-1.876v-.994h2.674c-1.218-.966-2.156-2.212-2.828-3.71l1.33-.392c.21.476.476.924.798 1.316.462-.392.98-.896 1.316-1.288l1.19.854c-.574.476-1.176.98-1.708 1.358.238.224.49.434.742.63.532-.42 1.176-1.008 1.554-1.456Zm6.384 5.124v.728c.644-.07 1.344-.126 2.03-.182v-.546h-2.03Zm2.03-3.038v-.742h-2.03v.742h2.03Zm0 1.876v-.7h-2.03v.7h2.03Zm1.526-3.878v5.04l1.148.574c-.35.42-.728.84-1.148 1.232v3.066c0 .728-.14 1.12-.602 1.358-.462.238-1.12.266-2.058.266a5.745 5.745 0 0 0-.49-1.4c.56.028 1.162.028 1.358.014.196 0 .266-.07.266-.266v-1.722a22.705 22.705 0 0 1-4.06 2.548c-.126-.336-.462-1.092-.7-1.428a19.124 19.124 0 0 0 4.214-2.436c-1.428.154-2.828.308-3.948.42l-.154-1.274 1.134-.098v-5.894h1.33c.168-.504.35-1.092.42-1.554l1.694.168c-.21.504-.42.98-.588 1.386h2.184Zm3.794 7.168-1.386.602c-.224-.91-.854-2.31-1.512-3.332l1.302-.532c.686 1.008 1.316 2.352 1.596 3.262Zm3.052-5.726v1.624h-1.358v6.552c0 .896-.182 1.316-.728 1.568-.518.252-1.358.308-2.548.308-.07-.448-.308-1.134-.518-1.582.798.042 1.624.042 1.876.028.252-.014.35-.07.35-.322v-6.552h-3.402v-1.624h3.402v-2.898h1.568v2.898h1.358Zm13.566-.378v-.952h-.924v.952h.924Zm1.358-2.072v3.178h-3.556v-3.178h3.556Zm-5.432 2.072v-.952h-.854v.952h.854Zm1.358-2.072v3.178h-3.486v-3.178h3.486Zm-6.65 6.258h2.576s-.014.42-.014.63c-.154 3.08-.308 4.382-.7 4.858-.28.364-.574.49-1.022.546-.364.056-.994.07-1.638.056a3.913 3.913 0 0 0-.49-1.624c.588.056 1.148.07 1.414.07.21 0 .336-.042.476-.182.21-.224.35-1.022.448-2.926h-2.52c.098-1.204.168-3.094.168-4.592h2.338v-1.554h-2.534v-1.47h4.06v4.508h-2.506c-.014.574-.042 1.148-.056 1.68Zm4.844 1.19h1.33v-.714h-1.33v.714Zm0-2.548v.7h1.33v-.7h-1.33Zm4.228.7v-.7h-1.386v.7h1.386Zm0 1.848v-.714h-1.386v.714h1.386Zm2.212 1.862v1.372h-3.598v1.862h-1.512v-1.862h-3.416v-1.372h3.416v-.644h-2.772v-4.97h7.182v4.97h-2.898v.644h3.598Z" fill="#231815"/><path d="M64.5 451.85H260a4.5 4.5 0 0 1 4.5 4.5v24a4.5 4.5 0 0 1-4.5 4.5H64.5v-33Z" stroke="#231815"/><rect x=".5" y=".5" width="279" height="504.35" rx="4.5" stroke="#231815"/><defs><clipPath id="clip0_799_36249"><path fill="#fff" transform="translate(79.27)" d="M0 0h121.46v30.99H0z"/></clipPath><clipPath id="clip1_799_36249"><path d="M25 89.99h230v225a5 5 0 0 1-5 5H30a5 5 0 0 1-5-5v-225Z" fill="#fff"/></clipPath><clipPath id="clip2_799_36249"><path fill="#fff" transform="translate(63.635 334.99)" d="M0 0h18.56v18.36H0z"/></clipPath><clipPath id="clip3_799_36249"><path fill="#fff" transform="translate(84.195 334.99)" d="M0 0h18.56v18.36H0z"/></clipPath><clipPath id="clip4_799_36249"><path fill="#fff" transform="translate(207.315 334.99)" d="M0 0h17.35v16.5H0z"/></clipPath><clipPath id="clip5_799_36249"><path fill="#fff" transform="translate(226.665 334.99)" d="M0 0h17.35v16.5H0z"/></clipPath></defs></svg>