<svg fill="none" xmlns="http://www.w3.org/2000/svg" viewBox="0 0 280 506"><rect x=".5" y=".5" width="279" height="504.35" rx="4.5" fill="#FFE177"/><g clip-path="url(#clip0_799_40177)" stroke="#231815" stroke-miterlimit="10"><path d="M84.32 27.21c.34 1.64 1.95 2.83 3.83 2.84l103.68.44c1.88 0 3.5-1.17 3.85-2.81l4.41-20.48c.67-3.11-1.07-6.21-3.48-6.22L83.06.5C80.7.49 79.29 2.97 79.92 6l4.4 21.2v.01Z" fill="#00698A"/><path d="M116.48 17.4c.14 1.03.82 1.78 1.61 1.79l43.77.23c.79 0 1.48-.74 1.63-1.77l1.87-12.91c.28-1.96-.45-3.91-1.47-3.92L115.95.57c-.99 0-1.59 1.56-1.33 3.47l1.85 13.36h.01Zm69.19-7.19c0-1.42 1.16-2.56 2.58-2.55 1.42 0 2.56 1.16 2.55 2.58 0 1.42-1.16 2.56-2.57 2.55-1.42 0-2.56-1.16-2.55-2.58h-.01Zm-10.74-.02c0-1.42 1.16-2.56 2.58-2.55 1.42 0 2.56 1.16 2.55 2.58 0 1.42-1.16 2.56-2.58 2.55-1.42 0-2.56-1.16-2.55-2.58Zm-80.59-.28c0-1.42-1.15-2.57-2.56-2.57-1.42 0-2.57 1.15-2.57 2.56 0 1.42 1.15 2.57 2.56 2.57 1.42 0 2.57-1.15 2.57-2.56Zm10.73.02c0-1.42-1.15-2.57-2.56-2.57-1.42 0-2.57 1.15-2.57 2.56 0 1.42 1.15 2.57 2.56 2.57 1.42 0 2.57-1.15 2.57-2.56Z" fill="#FFE177"/></g><path d="M119.912 52.702V49.03h-2.904v3.672h2.904Zm-2.904 6.984h2.904V55.99h-2.904v3.696Zm-10.992-.096h2.952v-2.568h-2.952v2.568Zm19.008-13.92v3.36h-1.56v15.144h-3.552v-1.2h-2.904v1.296h-3.48V49.03h-.96v2.448h-3.336v2.448h3v9.456h-3.264v-.696h-2.952v1.296h-3.096V53.926h2.76v-2.448h-3.504v-3.24h3.504v-3.12h-3.072v-3.24h9.408v3.24h-2.784v3.12h2.712V45.67h1.584v-4.08h3.48v4.08h2.904v-4.08h3.552v4.08h1.56Zm21.336 7.032v.744l.984-.024c-.12-.168-.24-.336-.36-.48l.552-.24h-1.176Zm-4.368-1.8h1.416v-.648h-1.416v.648Zm0-2.976v.624h1.416v-.624h-1.416Zm5.784 0h-1.416v.624h1.416v-.624Zm0 2.976v-.648h-1.416v.648h1.416Zm-8.832 5.088-.192-2.424c1.296 0 2.904-.024 4.656-.072v-.792h-4.104v-6.576h4.104v-.624h-4.416v-2.52h4.416V41.47h2.952v1.512h4.632v2.52h-4.632v.624h4.248v6.576h-.696c.648.888 1.248 1.896 1.584 2.64l-2.424 1.176c-.096-.24-.216-.528-.36-.816-3.528.144-7.128.216-9.768.288Zm6.6 5.28v-2.04h-2.688c.552.648 1.032 1.368 1.296 1.944l-.696.432c.696.024 1.416.024 1.632.024.336-.024.456-.096.456-.36Zm-13.824-8.112v.984h.912v-.984h-.912Zm0-3.192v.96h.912v-.96h-.912Zm4.104.96v-.96h-.984v.96h.984Zm0 3.216v-.984h-.984v.984h.984Zm12.912 1.8v.768h2.616v2.52h-2.616v2.136c0 1.416-.264 2.136-1.272 2.568-1.008.408-2.28.432-3.96.432-.096-.72-.408-1.608-.696-2.352l-1.128.696c-.336-.84-1.128-2.088-1.944-2.952l.912-.528H138.8v1.44h-3.528v3.576H132.2V60.67h-3.672v-3.024h3.672v-1.128h-2.88V47.59h2.88v-1.008h-3.312v-2.976h3.312v-2.112h3.072v2.112h3.24v2.976h-3.24v1.008h3.048v8.928h-3.048v1.128h3.528v-.936h6.744v-.768h3.192Zm24.024-3.24v.744l.984-.024c-.12-.168-.24-.336-.36-.48l.552-.24h-1.176Zm-4.368-1.8h1.416v-.648h-1.416v.648Zm0-2.976v.624h1.416v-.624h-1.416Zm5.784 0h-1.416v.624h1.416v-.624Zm0 2.976v-.648h-1.416v.648h1.416Zm-8.832 5.088-.192-2.424c1.296 0 2.904-.024 4.656-.072v-.792h-4.104v-6.576h4.104v-.624h-4.416v-2.52h4.416V41.47h2.952v1.512h4.632v2.52h-4.632v.624h4.248v6.576h-.696c.648.888 1.248 1.896 1.584 2.64l-2.424 1.176c-.096-.24-.216-.528-.36-.816-3.528.144-7.128.216-9.768.288Zm6.6 5.28v-2.04h-2.688c.552.648 1.032 1.368 1.296 1.944l-.696.432c.696.024 1.416.024 1.632.024.336-.024.456-.096.456-.36Zm-13.824-8.112v.984h.912v-.984h-.912Zm0-3.192v.96h.912v-.96h-.912Zm4.104.96v-.96h-.984v.96h.984Zm0 3.216v-.984h-.984v.984h.984Zm12.912 1.8v.768h2.616v2.52h-2.616v2.136c0 1.416-.264 2.136-1.272 2.568-1.008.408-2.28.432-3.96.432-.096-.72-.408-1.608-.696-2.352l-1.128.696c-.336-.84-1.128-2.088-1.944-2.952l.912-.528H165.2v1.44h-3.528v3.576H158.6V60.67h-3.672v-3.024h3.672v-1.128h-2.88V47.59h2.88v-1.008h-3.312v-2.976h3.312v-2.112h3.072v2.112h3.24v2.976h-3.24v1.008h3.048v8.928h-3.048v1.128h3.528v-.936h6.744v-.768h3.192Z" fill="#231815"/><path d="M15.5 199.99c0-68.759 55.74-124.5 124.5-124.5 68.759 0 124.5 55.741 124.5 124.5v120a4.5 4.5 0 0 1-4.5 4.5H20a4.5 4.5 0 0 1-4.5-4.5v-120Z" fill="#fff" stroke="#231815"/><g clip-path="url(#clip1_799_40177)"><path d="M137.053 179.11c-8.875 10.998-24.484 15.738-37.978 11.529-.698-.214-1.388-.456-2.058-.689-2.077-.717-4.042-1.397-5.923-1.351-1.732.047-3.818 1.248-3.818 2.683a2.595 2.595 0 0 1-2.58 2.598 2.588 2.588 0 0 1-2.59-2.58c0-2.235 1.072-4.293 3.028-5.811a10.19 10.19 0 0 1 5.82-2.068c2.822-.074 5.337.792 7.758 1.63.661.233 1.285.447 1.909.643 5.523 1.723 11.79 1.695 17.667-.093 5.876-1.779 11.101-5.243 14.733-9.742" fill="#FFE600"/><path d="M137.053 179.11c-8.875 10.998-24.484 15.738-37.978 11.529-.698-.214-1.388-.456-2.058-.689-2.077-.717-4.042-1.397-5.923-1.351-1.732.047-3.818 1.248-3.818 2.683a2.595 2.595 0 0 1-2.58 2.598 2.588 2.588 0 0 1-2.59-2.58c0-2.235 1.072-4.293 3.028-5.811a10.19 10.19 0 0 1 5.82-2.068c2.822-.074 5.337.792 7.758 1.63.661.233 1.285.447 1.909.643 5.523 1.723 11.79 1.695 17.667-.093 5.876-1.779 11.101-5.243 14.733-9.742" stroke="#231815" stroke-miterlimit="10"/><path d="M236.087 175.384a.481.481 0 0 1-.308-.195c-.186-.252-1.844-1.909-2.179-2.17a.382.382 0 0 1-.14-.093.479.479 0 0 1 0-.662c1.965-1.955 3.325-4.162 4.908-6.714.419-.671.848-1.369 1.313-2.096a.474.474 0 0 1 .392-.214c.074 0 .158.019.232.065 1.742.997 4.256 3.539 5.253 5.057a.47.47 0 0 1-.112.634 130.05 130.05 0 0 1-3.977 2.831c-.502.344-1.015.698-1.527 1.043-1.266.857-2.468 1.676-3.492 2.449a.441.441 0 0 1-.28.093h-.074l-.009-.028Z" fill="#333434"/><path d="M240.073 163.697c1.685.959 4.144 3.464 5.094 4.908a129.054 129.054 0 0 1-3.958 2.822c-1.751 1.201-3.576 2.402-5.038 3.501-.187-.288-2.254-2.337-2.375-2.337 2.514-2.505 4.014-5.337 6.286-8.894m0-.931a.92.92 0 0 0-.782.428c-.466.726-.894 1.425-1.313 2.095-1.565 2.534-2.915 4.722-4.843 6.641l.661.661v.931a.817.817 0 0 1-.493-.149c.279.214 1.881 1.797 2.114 2.095a.914.914 0 0 0 .614.392c.047 0 .093.009.14.009a.973.973 0 0 0 .568-.196c1.025-.773 2.217-1.583 3.483-2.44.503-.344 1.015-.689 1.518-1.033a145.031 145.031 0 0 0 3.986-2.841.926.926 0 0 0 .224-1.257c-1.025-1.565-3.614-4.182-5.411-5.206a.94.94 0 0 0-.466-.121v-.009Z" fill="#231815"/><path d="M188.609 193.619c-5.792 0-10.495-4.712-10.495-10.495 0-5.784 4.712-10.496 10.495-10.496 5.784 0 10.496 4.712 10.496 10.496 0 5.783-4.712 10.495-10.496 10.495Z" fill="#333434"/><path d="M188.609 173.084c5.541 0 10.03 4.489 10.03 10.03 0 5.541-4.489 10.03-10.03 10.03a10.028 10.028 0 0 1-10.03-10.03c0-5.541 4.489-10.03 10.03-10.03Zm0-.931c-6.044 0-10.961 4.917-10.961 10.961 0 6.044 4.917 10.961 10.961 10.961 6.044 0 10.962-4.917 10.962-10.961 0-6.044-4.918-10.961-10.962-10.961Z" fill="#231815"/><path d="M203.193 196.274c-4.377 0-7.934-3.558-7.934-7.935s3.557-7.935 7.934-7.935c4.377 0 7.935 3.558 7.935 7.935s-3.558 7.935-7.935 7.935Z" fill="#333434"/><path d="M203.194 180.87a7.469 7.469 0 1 1 0 14.938 7.469 7.469 0 0 1 0-14.938Zm0-.932c-4.629 0-8.401 3.772-8.401 8.401 0 4.628 3.772 8.4 8.401 8.4 4.628 0 8.4-3.772 8.4-8.4 0-4.629-3.772-8.401-8.4-8.401Z" fill="#231815"/><path d="M216.492 194.96c-4.377 0-7.934-3.558-7.934-7.935s3.557-7.934 7.934-7.934c4.377 0 7.935 3.557 7.935 7.934 0 4.377-3.558 7.935-7.935 7.935Z" fill="#333434"/><path d="M216.493 179.548a7.467 7.467 0 0 1 7.468 7.468 7.468 7.468 0 0 1-7.468 7.469 7.468 7.468 0 0 1-7.469-7.469 7.468 7.468 0 0 1 7.469-7.468Zm0-.932c-4.629 0-8.401 3.772-8.401 8.4 0 4.629 3.772 8.401 8.401 8.401 4.628 0 8.4-3.772 8.4-8.401 0-4.628-3.772-8.4-8.4-8.4Z" fill="#231815"/><path d="M225.88 188.655a6.342 6.342 0 1 0 0-12.684 6.342 6.342 0 0 0 0 12.684Z" fill="#333434"/><path d="M225.88 176.437a5.876 5.876 0 0 1 5.876 5.876 5.87 5.87 0 0 1-5.876 5.877 5.87 5.87 0 0 1-5.876-5.877 5.87 5.87 0 0 1 5.876-5.876Zm0-.932a6.817 6.817 0 0 0-6.808 6.808 6.817 6.817 0 0 0 6.808 6.808 6.817 6.817 0 0 0 6.808-6.808 6.817 6.817 0 0 0-6.808-6.808Z" fill="#231815"/><path d="M232.203 181.531a5.218 5.218 0 0 1-5.215-5.215 5.218 5.218 0 0 1 5.215-5.215 5.218 5.218 0 0 1 5.215 5.215 5.218 5.218 0 0 1-5.215 5.215Z" fill="#333434"/><path d="M232.203 171.557a4.75 4.75 0 0 1 4.75 4.749 4.758 4.758 0 0 1-4.75 4.75 4.757 4.757 0 0 1-4.749-4.75 4.756 4.756 0 0 1 4.749-4.749Zm0-.932a5.686 5.686 0 0 0-5.681 5.681 5.692 5.692 0 0 0 5.681 5.681 5.692 5.692 0 0 0 5.681-5.681 5.692 5.692 0 0 0-5.681-5.681Z" fill="#231815"/><path d="M54.373 159.282a.44.44 0 0 1-.28-.093c-1.024-.773-2.225-1.592-3.492-2.449-.512-.345-1.024-.689-1.527-1.043a165.828 165.828 0 0 1-3.976-2.831.47.47 0 0 1-.112-.634c.996-1.518 3.51-4.06 5.252-5.056a.507.507 0 0 1 .233-.066c.158 0 .307.075.391.215.466.726.894 1.424 1.304 2.095 1.583 2.561 2.952 4.768 4.917 6.724a.46.46 0 0 1-.14.754c-.335.261-2.002 1.919-2.179 2.17a.48.48 0 0 1-.307.196h-.075l-.009.018Z" fill="#333434"/><path d="M50.47 147.586c2.264 3.557 3.773 6.388 6.287 8.893-.121 0-2.18 2.059-2.375 2.338-1.453-1.099-3.287-2.3-5.038-3.502a125.817 125.817 0 0 1-3.958-2.822c.95-1.443 3.409-3.948 5.094-4.907m0-.932a.948.948 0 0 0-.465.121c-1.798 1.025-4.387 3.642-5.411 5.206a.936.936 0 0 0 .223 1.258c1.295.959 2.636 1.918 3.986 2.84.503.345 1.015.689 1.518 1.034 1.267.856 2.468 1.676 3.492 2.44a.937.937 0 0 0 .56.186c.055 0 .102 0 .158-.009a.931.931 0 0 0 .614-.401c.215-.279 1.807-1.862 2.096-2.077a.82.82 0 0 1-.494.149v-.922l.661-.661c-1.928-1.918-3.278-4.107-4.842-6.64-.42-.67-.848-1.369-1.313-2.095a.919.919 0 0 0-.783-.429Z" fill="#231815"/><path d="M101.934 177.508c-5.793 0-10.495-4.712-10.495-10.496 0-5.783 4.712-10.495 10.495-10.495 5.783 0 10.496 4.712 10.496 10.495 0 5.784-4.713 10.496-10.496 10.496Z" fill="#333434"/><path d="M101.934 156.973c5.541 0 10.03 4.489 10.03 10.03 0 5.541-4.489 10.03-10.03 10.03a10.028 10.028 0 0 1-10.03-10.03c0-5.541 4.489-10.03 10.03-10.03Zm0-.931c-6.044 0-10.961 4.917-10.961 10.961 0 6.044 4.917 10.961 10.961 10.961 6.044 0 10.961-4.917 10.961-10.961 0-6.044-4.917-10.961-10.961-10.961Z" fill="#231815"/><path d="M87.34 180.171c-4.376 0-7.934-3.557-7.934-7.934 0-4.377 3.558-7.935 7.935-7.935s7.934 3.558 7.934 7.935-3.557 7.934-7.934 7.934Z" fill="#333434"/><path d="M87.34 164.768a7.468 7.468 0 0 1 7.47 7.469 7.469 7.469 0 1 1-14.938 0 7.468 7.468 0 0 1 7.469-7.469Zm0-.932c-4.628 0-8.4 3.772-8.4 8.401 0 4.628 3.772 8.4 8.4 8.4 4.63 0 8.4-3.772 8.4-8.4 0-4.629-3.77-8.401-8.4-8.401Z" fill="#231815"/><path d="M74.042 178.849c-4.377 0-7.935-3.558-7.935-7.935s3.558-7.935 7.935-7.935 7.935 3.558 7.935 7.935-3.558 7.935-7.935 7.935Z" fill="#333434"/><path d="M74.042 163.445a7.469 7.469 0 0 1 7.469 7.469 7.468 7.468 0 0 1-7.47 7.469 7.468 7.468 0 0 1-7.468-7.469 7.469 7.469 0 0 1 7.469-7.469Zm0-.931c-4.629 0-8.4 3.772-8.4 8.4 0 4.629 3.771 8.401 8.4 8.401 4.628 0 8.4-3.772 8.4-8.401 0-4.628-3.772-8.4-8.4-8.4Z" fill="#231815"/><path d="M64.664 172.553a6.342 6.342 0 1 0 0-12.684 6.342 6.342 0 0 0 0 12.684Z" fill="#333434"/><path d="M64.664 160.335a5.876 5.876 0 0 1 5.876 5.876 5.871 5.871 0 0 1-5.876 5.877 5.871 5.871 0 0 1-5.877-5.877 5.87 5.87 0 0 1 5.877-5.876Zm0-.932a6.817 6.817 0 0 0-6.808 6.808 6.817 6.817 0 0 0 6.808 6.808 6.817 6.817 0 0 0 6.807-6.808 6.817 6.817 0 0 0-6.807-6.808Z" fill="#231815"/><path d="M58.34 165.429a5.219 5.219 0 0 1-5.215-5.215 5.218 5.218 0 0 1 5.215-5.215 5.218 5.218 0 0 1 5.215 5.215 5.219 5.219 0 0 1-5.215 5.215Z" fill="#333434"/><path d="M58.34 155.455a4.751 4.751 0 0 1 4.75 4.749 4.758 4.758 0 0 1-4.75 4.75 4.758 4.758 0 0 1-4.749-4.75 4.757 4.757 0 0 1 4.75-4.749Zm0-.932a5.686 5.686 0 0 0-5.68 5.681 5.692 5.692 0 0 0 5.68 5.681 5.691 5.691 0 0 0 5.681-5.681 5.692 5.692 0 0 0-5.68-5.681Z" fill="#231815"/><path d="M171.548 203.481c4.573 0 9.146.019 13.718.028a107.595 107.595 0 0 1-2.03-15.701c0-.354-3.697.037-4.219.531-.894.847-1.099 3.511-1.527 4.628-1.453 3.772-3.716 7.171-5.932 10.514h-.01Z" fill="#00698A" stroke="#231815" stroke-miterlimit="10"/><path d="M181.578 201.228c-.186 1.9-.549 3.809-1.201 5.755a484.244 484.244 0 0 0 8.726-2.468c1.071-.316 8.968-3.371 9.537-2.803-6.249-6.156-10.775-14.044-12.917-22.546-.103-.41-3.623 1.704-3.921 2.291-.755 1.48-.289 4.218-.298 5.839-.028 4.805.531 9.341.074 13.941v-.009Z" fill="#00698A" stroke="#231815" stroke-miterlimit="10"/><path d="M144.168 208.11c23.506 0 42.56-19.055 42.56-42.56 0-23.505-19.054-42.56-42.56-42.56-23.505 0-42.56 19.055-42.56 42.56 0 23.505 19.055 42.56 42.56 42.56Z" fill="#FFE600" stroke="#231815" stroke-miterlimit="10"/><path d="m120.681 168.055-.624 2.692a2.684 2.684 0 0 1-3.213 2.002 2.684 2.684 0 0 1-2.002-3.213l.624-2.691" stroke="#231815" stroke-linecap="round" stroke-linejoin="round"/><path d="M127.685 202.68c4.656-2.607 11.324-1.601 14.304 2.832 1.714 2.551 2.058 5.746 2.394 8.791 2.039 18.766 4.954 37.661 9.909 55.85-.177-.652-13.169.009-14.501.027-4.405.075-8.865.392-13.252.075.326-3.66-.549-7.171-.829-10.84-.279-3.67-.382-7.655-.922-11.455a687.108 687.108 0 0 0-2.756-17.974c-.764-4.582-2.561-9.807-1.928-14.463.68-5.057 2.971-10.263 7.59-12.852l-.009.009Z" fill="#00698A" stroke="#231815" stroke-miterlimit="10"/><mask id="mask0_799_40177" style="mask-type:luminance" maskUnits="userSpaceOnUse" x="119" y="201" width="36" height="70"><path d="M127.685 202.68c4.656-2.607 11.324-1.601 14.304 2.832 1.714 2.551 2.058 5.746 2.394 8.791 2.039 18.766 4.954 37.661 9.909 55.85-.177-.652-13.169.009-14.501.027-4.405.075-8.865.392-13.252.075.326-3.66-.549-7.171-.829-10.84-.279-3.67-.382-7.655-.922-11.455a687.108 687.108 0 0 0-2.756-17.974c-.764-4.582-2.561-9.807-1.928-14.463.68-5.057 2.971-10.263 7.59-12.852l-.009.009Z" fill="#fff"/></mask><g mask="url(#mask0_799_40177)"><path d="m120.011 251.843 6.035 10.561c1.844-6.212 3.678-12.414 5.522-18.626l5.085 19.092c1.518-2.906 3.027-5.811 4.545-8.717 2.449 3.39 4.889 6.78 7.338 10.17.848-1.658 1.705-3.306 2.552-4.964a66.008 66.008 0 0 1 6.342 16.828 322.353 322.353 0 0 1-38.667 9.416c-1.052-6.24-.661-12.238-.885-18.487-.084-2.439-.307-4.563.065-7.059.215-1.425 2.561-7.348 2.058-8.214h.01Z" fill="#fff" stroke="#231815" stroke-linecap="round" stroke-linejoin="round"/></g><path d="M127.685 202.68c4.656-2.607 11.324-1.601 14.304 2.832 1.714 2.551 2.058 5.746 2.394 8.791 2.039 18.766 4.954 37.661 9.909 55.85-.177-.652-13.169.009-14.501.027-4.405.075-8.865.392-13.252.075.326-3.66-.549-7.171-.829-10.84-.279-3.67-.382-7.655-.922-11.455a687.108 687.108 0 0 0-2.756-17.974c-.764-4.582-2.561-9.807-1.928-14.463.68-5.057 2.971-10.263 7.59-12.852l-.009.009Z" stroke="#231815" stroke-linecap="round" stroke-linejoin="round"/><mask id="mask1_799_40177" style="mask-type:luminance" maskUnits="userSpaceOnUse" x="98" y="198" width="71" height="60"><path d="M141.132 210.913c-5.476-3.399-11.101-6.863-17.415-8.158-6.314-1.294-13.56 0-17.778 4.889-3.092 3.586-4.117 8.512-4.321 13.243-.494 11.763-2.254 24.205-3.027 35.958 8.95 1.322 23.729.819 32.744.083-2.161-7.524-4.33-15.049-6.491-22.574-.875-3.045-1.751-6.1-2.319-9.211-.14-.745-1.267-7.282.075-6.994.195.047.54.988.651 1.165.736 1.201 1.714 2.318 2.599 3.408 1.788 2.217 3.716 4.331 5.858 6.212 3.799 3.315 8.381 5.886 13.373 6.631 4.992.745 10.393-.503 14.09-3.93 3.977-3.698 5.523-9.313 6.193-14.706.671-5.392 1.835-10.821 3.493-15.99-17.052-1.332-35.324-2.272-52.423-2.617-.009 1.434-.121 2.794.131 4.2" fill="#fff"/></mask><g mask="url(#mask1_799_40177)"><path d="m100.127 234.205 6.035 10.561c1.844-6.212 3.679-12.414 5.523-18.626l5.085 19.092c1.518-2.906 3.026-5.812 4.544-8.717 2.45 3.39 4.89 6.78 7.339 10.169.847-1.657 1.704-3.306 2.552-4.963a65.994 65.994 0 0 1 6.342 16.828 322.147 322.147 0 0 1-38.667 9.415c-1.053-6.239-.662-12.237-.885-18.486-.084-2.44-.308-4.563.065-7.059.214-1.425 2.561-7.348 2.058-8.214h.009Z" fill="#fff" stroke="#231815" stroke-linecap="round" stroke-linejoin="round"/></g><path d="M141.132 210.913c-5.476-3.399-11.101-6.863-17.415-8.158-6.314-1.294-13.56 0-17.778 4.889-3.092 3.586-4.117 8.512-4.321 13.243-.494 11.763-2.254 24.205-3.027 35.958 8.95 1.322 23.729.819 32.744.083-2.161-7.524-4.33-15.049-6.491-22.574-.875-3.045-1.751-6.1-2.319-9.211-.14-.745-1.267-7.282.075-6.994.195.047.54.988.651 1.165.736 1.201 1.714 2.318 2.599 3.408 1.788 2.217 3.716 4.331 5.858 6.212 3.799 3.315 8.381 5.886 13.373 6.631 4.992.745 10.393-.503 14.09-3.93 3.977-3.698 5.523-9.313 6.193-14.706.671-5.392 1.835-10.821 3.493-15.99-17.052-1.332-35.324-2.272-52.423-2.617-.009 1.434-.121 2.794.131 4.2" stroke="#231815" stroke-linecap="round" stroke-linejoin="round"/><path d="M141.132 210.913c-5.476-3.399-11.101-6.863-17.415-8.158-6.314-1.294-13.56 0-17.778 4.889-3.092 3.586-4.117 8.512-4.321 13.243-.494 11.763-2.254 24.205-3.027 35.958 8.95 1.322 23.729.819 32.744.083-2.161-7.524-4.33-15.049-6.491-22.574-.875-3.045-1.751-6.1-2.319-9.211-.14-.745-1.267-7.282.075-6.994.195.047.54.988.651 1.165.736 1.201 1.714 2.318 2.599 3.408 1.788 2.217 3.716 4.331 5.858 6.212 3.799 3.315 8.381 5.886 13.373 6.631 4.992.745 10.393-.503 14.09-3.93 3.977-3.698 5.523-9.313 6.193-14.706.671-5.392 1.835-10.821 3.493-15.99-17.052-1.332-35.324-2.272-52.423-2.617-.009 1.434-.121 2.794.131 4.2" fill="#00698A"/><path d="M141.132 210.913c-5.476-3.399-11.101-6.863-17.415-8.158-6.314-1.294-13.56 0-17.778 4.889-3.092 3.586-4.117 8.512-4.321 13.243-.494 11.763-2.254 24.205-3.027 35.958 8.95 1.322 23.729.819 32.744.083-2.161-7.524-4.33-15.049-6.491-22.574-.875-3.045-1.751-6.1-2.319-9.211-.14-.745-1.267-7.282.075-6.994.195.047.54.988.651 1.165.736 1.201 1.714 2.318 2.599 3.408 1.788 2.217 3.716 4.331 5.858 6.212 3.799 3.315 8.381 5.886 13.373 6.631 4.992.745 10.393-.503 14.09-3.93 3.977-3.698 5.523-9.313 6.193-14.706.671-5.392 1.835-10.821 3.493-15.99-17.052-1.332-35.324-2.272-52.423-2.617-.009 1.434-.121 2.794.131 4.2" stroke="#231815" stroke-miterlimit="10"/><path d="M155.232 214.285c-1.276 2.859-2.44 5.867-2.375 8.996.065 3.129 1.63 6.407 4.498 7.655 2.207.959 3.521-.279 4.685-2.067a20.785 20.785 0 0 0 2.7-6.072c.131-.485 1.081-5.271.671-5.309a16.477 16.477 0 0 1-4.042-.94c-2.049-.755-4.088-1.509-6.137-2.263ZM54.494 243.192v5.681s24.884 7.674 27.287 33.154l12.945-.047s-7.841-6.705-9.937-13.913c-2.095-7.209-4.163-16.941-11.371-20.908-7.199-3.967-18.924-3.958-18.924-3.958v-.009Z" fill="#FFE600" stroke="#231815" stroke-miterlimit="10"/><path d="M54.69 255.699h-.196a.466.466 0 0 0-.466.466v30.872c0 .257.209.466.466.466h.196a.466.466 0 0 0 .465-.466v-30.872a.466.466 0 0 0-.465-.466Z" fill="#333434"/><path d="M54.7 256.165v30.872h-.196v-30.872h.195Zm0-.932h-.196a.934.934 0 0 0-.932.932v30.872c0 .512.42.931.932.931h.195a.934.934 0 0 0 .931-.931v-30.872a.934.934 0 0 0-.93-.932Z" fill="#231815"/><path d="M58.638 255.699h-.195a.466.466 0 0 0-.466.466v30.872c0 .257.209.466.466.466h.195a.466.466 0 0 0 .466-.466v-30.872a.466.466 0 0 0-.466-.466Z" fill="#333434"/><path d="M58.639 256.165v30.872h-.196v-30.872h.196Zm0-.932h-.196a.934.934 0 0 0-.931.932v30.872c0 .512.419.931.931.931h.196a.934.934 0 0 0 .93-.931v-30.872a.934.934 0 0 0-.93-.932Z" fill="#231815"/><path d="M72.012 269.063H41.139a.465.465 0 0 0-.465.466v.195c0 .257.208.466.465.466h30.873a.466.466 0 0 0 .465-.466v-.195a.465.465 0 0 0-.465-.466Z" fill="#333434"/><path d="M72.002 269.529v.196H41.14v-.196h30.873m0-.931H41.139a.934.934 0 0 0-.931.931v.196c0 .512.42.931.931.931h30.873a.934.934 0 0 0 .93-.931v-.196a.934.934 0 0 0-.93-.931Z" fill="#231815"/><path d="M72.012 273.002H41.139a.466.466 0 0 0-.465.466v.196c0 .257.208.465.465.465h30.873a.465.465 0 0 0 .465-.465v-.196a.466.466 0 0 0-.465-.466Z" fill="#333434"/><path d="M72.002 273.468v.195H41.14v-.195h30.873m0-.931H41.139a.934.934 0 0 0-.931.931v.195c0 .513.42.932.931.932h30.873a.934.934 0 0 0 .93-.932v-.195a.934.934 0 0 0-.93-.931Z" fill="#231815"/><path d="M53.014 287.233a.467.467 0 0 1-.42-.503l2.887-30.733a.482.482 0 0 1 .168-.316.477.477 0 0 1 .298-.103c.019 0 .242.019.242.019a.473.473 0 0 1 .42.503l-2.888 30.732a.486.486 0 0 1-.167.317.482.482 0 0 1-.298.102c-.019 0-.242-.018-.242-.018Z" fill="#333434"/><path d="m55.947 256.034.196.019-2.887 30.733-.196-.019 2.887-30.733Zm0-.931a.94.94 0 0 0-.596.214.97.97 0 0 0-.335.634l-2.887 30.732a.93.93 0 0 0 .838 1.015l.196.019h.084a.94.94 0 0 0 .596-.214.97.97 0 0 0 .335-.634l2.887-30.732a.93.93 0 0 0-.838-1.015l-.196-.019h-.093.01Z" fill="#231815"/><path d="M56.944 287.605a.466.466 0 0 1-.42-.503l2.888-30.732a.486.486 0 0 1 .167-.317.482.482 0 0 1 .298-.102c.019 0 .242.018.242.018a.467.467 0 0 1 .42.503l-2.888 30.733a.482.482 0 0 1-.167.316.477.477 0 0 1-.298.103c-.019 0-.242-.019-.242-.019Z" fill="#333434"/><path d="m59.877 256.407.196.018-2.887 30.733-.196-.019 2.887-30.732Zm0-.931a.923.923 0 0 0-.922.847l-2.887 30.733a.95.95 0 0 0 .214.68.968.968 0 0 0 .634.335l.195.018h.084a.923.923 0 0 0 .922-.847l2.887-30.733a.95.95 0 0 0-.214-.68.968.968 0 0 0-.633-.335l-.196-.018h-.084Z" fill="#231815"/><path d="M41.335 268.756a.467.467 0 0 1-.42-.503l.02-.196a.482.482 0 0 1 .465-.428c.019 0 30.78 2.887 30.78 2.887a.466.466 0 0 1 .418.503l-.018.195a.486.486 0 0 1-.168.317.437.437 0 0 1-.298.112c-.019 0-30.78-2.887-30.78-2.887Z" fill="#333434"/><path d="m41.4 268.094 30.733 2.887-.019.196-30.732-2.887.018-.196Zm0-.931a.923.923 0 0 0-.922.848l-.018.195a.948.948 0 0 0 .214.68.968.968 0 0 0 .633.335l30.733 2.887h.084a.923.923 0 0 0 .922-.847l.018-.196a.949.949 0 0 0-.214-.68.968.968 0 0 0-.633-.335l-30.733-2.887H41.4Z" fill="#231815"/><path d="M40.963 272.686a.485.485 0 0 1-.317-.168.449.449 0 0 1-.102-.344l.018-.196a.459.459 0 0 1 .466-.419c.019 0 30.78 2.887 30.78 2.887a.484.484 0 0 1 .316.168.49.49 0 0 1 .102.344l-.018.196a.459.459 0 0 1-.466.419c-.019 0-30.78-2.887-30.78-2.887Z" fill="#333434"/><path d="m41.028 272.025 30.732 2.887-.018.195-30.733-2.887.019-.195Zm0-.932a.94.94 0 0 0-.596.214.969.969 0 0 0-.336.634l-.018.195a.93.93 0 0 0 .838 1.015l30.732 2.887h.084a.923.923 0 0 0 .922-.847l.019-.196a.945.945 0 0 0-.214-.679.965.965 0 0 0-.634-.336l-30.732-2.887h-.084.019Z" fill="#231815"/><path d="M44.334 281.654a.437.437 0 0 1-.326-.139l-.14-.14a.475.475 0 0 1-.14-.326c0-.121.047-.242.14-.326l21.83-21.829a.449.449 0 0 1 .652 0l.14.139a.478.478 0 0 1 .139.326.437.437 0 0 1-.14.326l-21.83 21.83a.467.467 0 0 1-.325.139Z" fill="#333434"/><path d="m66.014 259.219.14.14-21.83 21.83-.14-.14 21.83-21.83Zm0-.931a.953.953 0 0 0-.661.27l-21.83 21.83a.927.927 0 0 0 0 1.313l.14.139c.177.177.41.271.661.271a.961.961 0 0 0 .662-.271l21.829-21.829a.922.922 0 0 0 .27-.661.96.96 0 0 0-.27-.661l-.14-.14a.954.954 0 0 0-.66-.27v.009Z" fill="#231815"/><path d="M47.118 284.448a.438.438 0 0 1-.325-.14l-.14-.14a.471.471 0 0 1-.14-.326c0-.121.047-.242.14-.325l21.83-21.83a.469.469 0 0 1 .325-.14c.112 0 .242.047.326.14l.14.14c.084.084.14.205.14.326a.437.437 0 0 1-.14.326l-21.83 21.829a.469.469 0 0 1-.326.14Z" fill="#333434"/><path d="m68.808 262.013.14.14-21.83 21.829-.14-.139 21.83-21.83Zm0-.931a.954.954 0 0 0-.661.27l-21.83 21.83a.92.92 0 0 0-.27.661c0 .251.103.484.27.661l.14.14c.186.186.42.27.661.27a.954.954 0 0 0 .662-.27l21.829-21.83a.922.922 0 0 0 .27-.661.962.962 0 0 0-.27-.661l-.14-.14a.953.953 0 0 0-.66-.27Z" fill="#231815"/><path d="M43.086 279.912a.487.487 0 0 1-.307-.177l-.121-.158a.464.464 0 0 1 .093-.652l24.567-18.691a.44.44 0 0 1 .28-.093h.065a.496.496 0 0 1 .307.177l.121.158a.464.464 0 0 1-.093.652l-24.567 18.691a.44.44 0 0 1-.28.093h-.065Z" fill="#333434"/><path d="m67.597 260.607.121.158-24.567 18.691-.121-.158 24.567-18.691Zm0-.931a.958.958 0 0 0-.558.186L42.47 278.553a.96.96 0 0 0-.363.615.883.883 0 0 0 .186.689l.121.158a.922.922 0 0 0 .745.363.958.958 0 0 0 .559-.186l24.568-18.691a.959.959 0 0 0 .363-.615.884.884 0 0 0-.187-.689l-.12-.158a.922.922 0 0 0-.746-.363Z" fill="#231815"/><path d="M45.48 283.051a.496.496 0 0 1-.308-.177l-.121-.158a.463.463 0 0 1 .093-.652l24.567-18.691a.44.44 0 0 1 .28-.093h.065a.492.492 0 0 1 .307.177l.121.158a.464.464 0 0 1-.093.652l-24.567 18.691a.44.44 0 0 1-.28.093h-.065Z" fill="#333434"/><path d="m69.99 263.745.122.159-24.567 18.691-.122-.159 24.568-18.691Zm0-.931a.958.958 0 0 0-.558.186l-24.567 18.691a.961.961 0 0 0-.364.615.884.884 0 0 0 .187.689l.12.158a.92.92 0 0 0 .746.364.96.96 0 0 0 .559-.187l24.567-18.691a.958.958 0 0 0 .363-.614.885.885 0 0 0-.186-.69l-.121-.158a.922.922 0 0 0-.745-.363Z" fill="#231815"/><path d="M68.808 281.654a.437.437 0 0 1-.326-.139l-21.83-21.83a.475.475 0 0 1-.139-.326c0-.121.047-.242.14-.326l.14-.139a.449.449 0 0 1 .652 0l21.829 21.829c.084.084.14.205.14.326a.437.437 0 0 1-.14.326l-.14.14a.468.468 0 0 1-.326.139Z" fill="#333434"/><path d="m47.118 259.219 21.83 21.83-.14.14-21.83-21.83.14-.14Zm0-.931a.954.954 0 0 0-.66.27l-.14.14a.922.922 0 0 0-.27.661.96.96 0 0 0 .27.661l21.829 21.83c.177.177.41.27.661.27a.964.964 0 0 0 .661-.27l.14-.14a.927.927 0 0 0 0-1.313l-21.83-21.83a.916.916 0 0 0-.66-.27v-.009Z" fill="#231815"/><path d="M66.014 284.448a.438.438 0 0 1-.326-.14l-21.83-21.829a.462.462 0 0 1 0-.662l.14-.139a.474.474 0 0 1 .327-.14c.12 0 .242.047.325.14l21.83 21.829c.084.084.14.205.14.326a.437.437 0 0 1-.14.326l-.14.14a.469.469 0 0 1-.326.14v.009Z" fill="#333434"/><path d="m44.334 262.013 21.83 21.83-.14.139-21.83-21.829.14-.14Zm0-.931a.953.953 0 0 0-.662.27l-.14.14a.922.922 0 0 0-.27.661c0 .251.103.484.27.661l21.83 21.83c.177.177.41.27.662.27a.965.965 0 0 0 .66-.27l.14-.14a.927.927 0 0 0 0-1.313l-21.83-21.83a.916.916 0 0 0-.66-.27v-.009Z" fill="#231815"/><path d="M70.103 279.727a.436.436 0 0 1-.28-.094l-24.837-18.327a.472.472 0 0 1-.103-.652l.121-.159a.47.47 0 0 1 .308-.186h.065a.44.44 0 0 1 .28.093l24.837 18.328a.472.472 0 0 1 .102.652l-.12.158a.467.467 0 0 1-.308.187h-.065Z" fill="#333434"/><path d="m45.386 260.765 24.838 18.328-.121.158-24.838-18.327.121-.159Zm0-.931a.916.916 0 0 0-.745.373l-.12.158a.955.955 0 0 0-.178.689.935.935 0 0 0 .373.615l24.837 18.327a.905.905 0 0 0 .55.187c.047 0 .093 0 .14-.01a.932.932 0 0 0 .614-.372l.121-.158a.936.936 0 0 0-.195-1.304l-24.838-18.328a.952.952 0 0 0-.55-.186l-.009.009Z" fill="#231815"/><path d="M67.756 282.902a.46.46 0 0 1-.28-.093L42.64 264.481a.472.472 0 0 1-.103-.652l.122-.158a.466.466 0 0 1 .307-.186h.065a.44.44 0 0 1 .28.093l24.837 18.328a.466.466 0 0 1 .186.307.451.451 0 0 1-.084.345l-.12.158a.472.472 0 0 1-.373.186Z" fill="#333434"/><path d="m43.04 263.941 24.837 18.328-.121.158-24.838-18.328.121-.158Zm0-.931a.93.93 0 0 0-.755.382l-.121.158a.936.936 0 0 0 .205 1.304l24.837 18.328a.918.918 0 0 0 1.294-.187l.122-.158a.957.957 0 0 0 .177-.689.9.9 0 0 0-.373-.615L43.59 263.205a.952.952 0 0 0-.55-.186v-.009Z" fill="#231815"/><path d="M56.571 294.525c-12.74 0-23.105-10.366-23.105-23.106 0-12.74 10.365-23.105 23.105-23.105s23.106 10.365 23.106 23.105-10.366 23.106-23.106 23.106Zm0-40.456c-9.564 0-17.35 7.786-17.35 17.35 0 9.565 7.786 17.35 17.35 17.35 9.564 0 17.35-7.785 17.35-17.35 0-9.564-7.786-17.35-17.35-17.35Z" fill="#333434"/><path d="M56.571 248.779c12.507 0 22.64 10.133 22.64 22.64 0 12.507-10.133 22.64-22.64 22.64-12.507 0-22.64-10.142-22.64-22.64 0-12.498 10.133-22.64 22.64-22.64Zm0 40.456c9.834 0 17.816-7.972 17.816-17.816 0-9.844-7.972-17.815-17.816-17.815-9.844 0-17.816 7.971-17.816 17.815 0 9.844 7.972 17.816 17.816 17.816Zm0-41.387c-13 0-23.571 10.57-23.571 23.571 0 13.001 10.57 23.571 23.571 23.571 13 0 23.571-10.57 23.571-23.571 0-13.001-10.57-23.571-23.571-23.571Zm0 40.455c-9.313 0-16.884-7.571-16.884-16.884s7.571-16.884 16.884-16.884 16.884 7.571 16.884 16.884-7.571 16.884-16.884 16.884Z" fill="#231815"/><path d="M56.57 291.125c-10.867 0-19.705-8.838-19.705-19.706s8.838-19.706 19.706-19.706 19.706 8.838 19.706 19.706-8.838 19.706-19.706 19.706Zm0-34.495c-8.288 0-15.02 6.743-15.02 15.022s6.742 15.022 15.02 15.022c8.28 0 15.023-6.743 15.023-15.022S64.85 256.63 56.57 256.63Z" fill="#333434"/><path d="M56.571 252.179c10.626 0 19.24 8.614 19.24 19.24 0 10.626-8.614 19.241-19.24 19.241-10.626 0-19.24-8.615-19.24-19.241s8.614-19.24 19.24-19.24Zm0 34.961c8.559 0 15.488-6.939 15.488-15.488s-6.939-15.487-15.488-15.487c-8.55 0-15.487 6.938-15.487 15.487s6.938 15.488 15.487 15.488Zm0-35.892c-11.12 0-20.172 9.042-20.172 20.171s9.043 20.172 20.172 20.172c11.13 0 20.172-9.043 20.172-20.172 0-11.129-9.043-20.171-20.172-20.171Zm0 34.96c-8.027 0-14.556-6.528-14.556-14.556 0-8.028 6.529-14.556 14.556-14.556 8.028 0 14.556 6.528 14.556 14.556 0 8.028-6.528 14.556-14.556 14.556Z" fill="#231815"/><path d="M56.571 276.29a4.698 4.698 0 0 1-4.694-4.694 4.698 4.698 0 0 1 4.694-4.694 4.698 4.698 0 0 1 4.694 4.694 4.698 4.698 0 0 1-4.694 4.694Z" fill="#333434"/><path d="M56.571 267.368a4.225 4.225 0 0 1 4.228 4.228 4.225 4.225 0 0 1-4.228 4.228 4.225 4.225 0 0 1-4.228-4.228 4.225 4.225 0 0 1 4.228-4.228Zm0-.931c-2.84 0-5.16 2.31-5.16 5.159a5.16 5.16 0 1 0 5.16-5.159Z" fill="#231815"/><path d="M58.527 271.596a1.965 1.965 0 1 1-3.93 0 1.965 1.965 0 0 1 3.93 0Z" fill="#FFE600" stroke="#231815" stroke-miterlimit="10"/><path d="M65.27 247.122c-19.856-6.649-29.337 10.375-29.337 10.375-2.617 3.538 3.865 4.488 3.865 4.488s29.457 3.316 32.335 4.629c3.064 1.406 4.619 4.573 5.383 7.683.344 1.388.596 2.775.67 4.209.093 1.816-.13 3.968 2.375 3.921 2.393-.046 2.18-3.176 2.18-3.176 2.57-27.584-17.463-32.129-17.463-32.129h-.009Z" fill="#00698A" stroke="#231815" stroke-miterlimit="10"/><path d="M171.688 255.699h-.195a.466.466 0 0 0-.466.466v30.872c0 .257.208.466.466.466h.195a.466.466 0 0 0 .466-.466v-30.872a.466.466 0 0 0-.466-.466Z" fill="#333434"/><path d="M171.697 256.165v30.872h-.195v-30.872h.195Zm0-.932h-.195a.934.934 0 0 0-.932.932v30.872c0 .512.419.931.932.931h.195a.934.934 0 0 0 .931-.931v-30.872a.934.934 0 0 0-.931-.932Z" fill="#231815"/><path d="M175.637 255.699h-.196a.466.466 0 0 0-.465.466v30.872c0 .257.208.466.465.466h.196a.466.466 0 0 0 .465-.466v-30.872a.466.466 0 0 0-.465-.466Z" fill="#333434"/><path d="M175.637 256.165v30.872h-.196v-30.872h.196Zm0-.932h-.196a.934.934 0 0 0-.931.932v30.872c0 .512.419.931.931.931h.196a.934.934 0 0 0 .931-.931v-30.872a.934.934 0 0 0-.931-.932Z" fill="#231815"/><path d="M189.01 269.063h-30.872a.465.465 0 0 0-.466.466v.195c0 .257.208.466.466.466h30.872a.466.466 0 0 0 .465-.466v-.195a.465.465 0 0 0-.465-.466Z" fill="#333434"/><path d="M189 269.529v.196h-30.872v-.196H189Zm0-.931h-30.872a.934.934 0 0 0-.931.931v.196c0 .512.419.931.931.931H189a.934.934 0 0 0 .932-.931v-.196a.934.934 0 0 0-.932-.931Z" fill="#231815"/><path d="M189.01 273.002h-30.872a.466.466 0 0 0-.466.466v.196c0 .257.208.465.466.465h30.872a.465.465 0 0 0 .465-.465v-.196a.466.466 0 0 0-.465-.466Z" fill="#333434"/><path d="M189 273.468v.195h-30.872v-.195H189Zm0-.931h-30.872a.934.934 0 0 0-.931.931v.195c0 .513.419.932.931.932H189a.934.934 0 0 0 .932-.932v-.195a.934.934 0 0 0-.932-.931Z" fill="#231815"/><path d="M170.012 287.233a.466.466 0 0 1-.419-.503l2.887-30.733a.48.48 0 0 1 .167-.316.477.477 0 0 1 .298-.103c.019 0 .242.019.242.019a.472.472 0 0 1 .419.503l-2.887 30.732a.484.484 0 0 1-.167.317.484.484 0 0 1-.298.102c-.019 0-.242-.018-.242-.018Z" fill="#333434"/><path d="m172.945 256.034.196.019-2.887 30.733-.196-.019 2.887-30.733Zm0-.931a.94.94 0 0 0-.596.214.97.97 0 0 0-.335.634l-2.887 30.732a.93.93 0 0 0 .838 1.015l.196.019h.084a.94.94 0 0 0 .596-.214.97.97 0 0 0 .335-.634l2.887-30.732a.93.93 0 0 0-.838-1.015l-.196-.019h-.093.009Z" fill="#231815"/><path d="M173.942 287.605a.466.466 0 0 1-.419-.503l2.887-30.732a.484.484 0 0 1 .167-.317.484.484 0 0 1 .298-.102c.019 0 .242.018.242.018a.468.468 0 0 1 .42.503l-2.887 30.733a.486.486 0 0 1-.168.316.477.477 0 0 1-.298.103c-.019 0-.242-.019-.242-.019Z" fill="#333434"/><path d="m176.875 256.407.196.018-2.887 30.733-.196-.019 2.887-30.732Zm0-.931a.924.924 0 0 0-.922.847l-2.887 30.733a.953.953 0 0 0 .214.68.97.97 0 0 0 .634.335l.195.018h.084a.923.923 0 0 0 .922-.847l2.887-30.733a.949.949 0 0 0-.214-.68.968.968 0 0 0-.633-.335l-.196-.018h-.084Z" fill="#231815"/><path d="M158.333 268.756a.488.488 0 0 1-.316-.168.45.45 0 0 1-.103-.344l.019-.196a.459.459 0 0 1 .466-.419c.018 0 30.779 2.887 30.779 2.887a.466.466 0 0 1 .419.503l-.019.195a.484.484 0 0 1-.167.317.439.439 0 0 1-.298.112c-.019 0-30.78-2.887-30.78-2.887Z" fill="#333434"/><path d="m158.398 268.094 30.733 2.887-.019.196-30.732-2.887.018-.196Zm0-.931a.923.923 0 0 0-.921.848l-.019.195a.947.947 0 0 0 .214.68.968.968 0 0 0 .633.335l30.733 2.887h.084a.923.923 0 0 0 .922-.847l.018-.196a.944.944 0 0 0-.214-.68.968.968 0 0 0-.633-.335l-30.733-2.887h-.084Z" fill="#231815"/><path d="M157.961 272.686a.466.466 0 0 1-.419-.503l.018-.196a.488.488 0 0 1 .168-.316.437.437 0 0 1 .298-.112c.019 0 30.779 2.887 30.779 2.887a.486.486 0 0 1 .317.168.488.488 0 0 1 .102.344l-.018.196a.46.46 0 0 1-.466.419c-.019 0-30.779-2.887-30.779-2.887Z" fill="#333434"/><path d="m158.026 272.025 30.732 2.887-.018.195-30.733-2.887.019-.195Zm0-.932a.937.937 0 0 0-.596.214.967.967 0 0 0-.336.634l-.018.195a.93.93 0 0 0 .838 1.015l30.732 2.887h.084a.923.923 0 0 0 .922-.847l.019-.196a.945.945 0 0 0-.214-.679.967.967 0 0 0-.634-.336l-30.732-2.887h-.084.019Z" fill="#231815"/><path d="M161.332 281.654a.437.437 0 0 1-.326-.139l-.14-.14a.473.473 0 0 1-.139-.326c0-.121.046-.242.139-.326l21.83-21.829a.45.45 0 0 1 .652 0l.139.139c.084.084.14.205.14.326a.438.438 0 0 1-.14.326l-21.829 21.83a.467.467 0 0 1-.326.139Z" fill="#333434"/><path d="m183.013 259.219.139.14-21.829 21.83-.14-.14 21.83-21.83Zm0-.931a.955.955 0 0 0-.662.27l-21.829 21.83a.928.928 0 0 0 0 1.313l.14.139a.921.921 0 0 0 .661.271.961.961 0 0 0 .661-.271l21.83-21.829a.926.926 0 0 0 .27-.661.963.963 0 0 0-.27-.661l-.14-.14a.915.915 0 0 0-.661-.27v.009Z" fill="#231815"/><path d="M164.117 284.448a.435.435 0 0 1-.326-.14l-.14-.14a.47.47 0 0 1-.14-.326c0-.121.047-.242.14-.325l21.829-21.83a.472.472 0 0 1 .326-.14c.112 0 .242.047.326.14l.14.14c.084.084.14.205.14.326a.438.438 0 0 1-.14.326l-21.829 21.829a.472.472 0 0 1-.326.14Z" fill="#333434"/><path d="m185.806 262.013.14.14-21.83 21.83-.139-.14 21.829-21.83Zm0-.931a.953.953 0 0 0-.661.27l-21.83 21.83a.928.928 0 0 0 0 1.313l.14.139c.177.177.41.27.661.27a.961.961 0 0 0 .662-.27l21.829-21.829a.922.922 0 0 0 .27-.661.957.957 0 0 0-.27-.661l-.14-.14a.953.953 0 0 0-.661-.27v.009Z" fill="#231815"/><path d="M160.084 279.912a.485.485 0 0 1-.307-.177l-.121-.158a.463.463 0 0 1 .093-.652l24.567-18.691a.441.441 0 0 1 .28-.093h.065a.494.494 0 0 1 .307.177l.121.158a.463.463 0 0 1-.093.652l-24.567 18.691a.441.441 0 0 1-.28.093h-.065Z" fill="#333434"/><path d="m184.595 260.607.121.158-24.567 18.691-.121-.158 24.567-18.691Zm0-.931c-.204 0-.4.065-.568.186l-24.567 18.691a.957.957 0 0 0-.363.615.881.881 0 0 0 .186.689l.121.158a.92.92 0 0 0 .745.363.959.959 0 0 0 .559-.186l24.567-18.691a.932.932 0 0 0 .177-1.304l-.121-.158a.955.955 0 0 0-.615-.363h-.13.009Z" fill="#231815"/><path d="M162.478 283.051a.5.5 0 0 1-.308-.177l-.121-.158a.464.464 0 0 1 .093-.652l24.568-18.691a.44.44 0 0 1 .279-.093h.065a.495.495 0 0 1 .308.177l.121.158a.464.464 0 0 1-.093.652l-24.568 18.691a.44.44 0 0 1-.279.093h-.065Z" fill="#333434"/><path d="m186.989 263.745.121.159-24.567 18.691-.122-.159 24.568-18.691Zm0-.931a.959.959 0 0 0-.559.186l-24.567 18.691a.963.963 0 0 0-.364.615.882.882 0 0 0 .187.689l.121.158a.919.919 0 0 0 .745.364.962.962 0 0 0 .559-.187l24.567-18.691a.955.955 0 0 0 .363-.614.884.884 0 0 0-.186-.69l-.121-.158a.92.92 0 0 0-.745-.363Z" fill="#231815"/><path d="M185.806 281.654a.437.437 0 0 1-.326-.139l-21.829-21.83a.474.474 0 0 1-.14-.326c0-.121.047-.242.14-.326l.14-.139a.45.45 0 0 1 .652 0l21.829 21.829c.084.084.14.205.14.326a.438.438 0 0 1-.14.326l-.14.14a.467.467 0 0 1-.326.139Z" fill="#333434"/><path d="m164.116 259.219 21.83 21.83-.14.14-21.829-21.83.139-.14Zm0-.931a.953.953 0 0 0-.661.27l-.14.14a.926.926 0 0 0-.27.661c0 .252.103.484.27.661l21.83 21.83c.177.177.41.27.661.27a.963.963 0 0 0 .661-.27l.14-.14a.928.928 0 0 0 0-1.313l-21.829-21.83a.917.917 0 0 0-.662-.27v-.009Z" fill="#231815"/><path d="M183.012 284.448a.438.438 0 0 1-.326-.14l-21.829-21.829a.474.474 0 0 1-.14-.326c0-.121.047-.242.14-.326l.14-.14a.468.468 0 0 1 .326-.14c.111 0 .242.047.326.14l21.829 21.83a.47.47 0 0 1 .14.325.435.435 0 0 1-.14.326l-.14.14a.468.468 0 0 1-.326.14Z" fill="#333434"/><path d="m161.332 262.013 21.829 21.83-.139.139-21.83-21.829.14-.14Zm0-.931a.953.953 0 0 0-.661.27l-.14.14a.922.922 0 0 0-.27.661.96.96 0 0 0 .27.661l21.829 21.83c.177.177.41.27.662.27a.965.965 0 0 0 .661-.27l.139-.14a.926.926 0 0 0 0-1.313l-21.829-21.83a.915.915 0 0 0-.661-.27v-.009Z" fill="#231815"/><path d="M187.101 279.727a.437.437 0 0 1-.28-.094l-24.837-18.327a.472.472 0 0 1-.103-.652l.121-.159a.473.473 0 0 1 .308-.186h.065a.44.44 0 0 1 .279.093l24.838 18.328a.472.472 0 0 1 .102.652l-.121.158a.466.466 0 0 1-.307.187h-.065Z" fill="#333434"/><path d="m162.384 260.765 24.838 18.328-.121.158-24.838-18.327.121-.159Zm0-.931a.917.917 0 0 0-.745.373l-.121.158a.955.955 0 0 0-.177.689.901.901 0 0 0 .373.615l24.837 18.327a.95.95 0 0 0 .55.187.931.931 0 0 0 .754-.382l.121-.158a.912.912 0 0 0 .168-.69.933.933 0 0 0-.373-.614l-24.837-18.328a.953.953 0 0 0-.55-.186v.009Z" fill="#231815"/><path d="M184.754 282.902a.457.457 0 0 1-.279-.093l-24.838-18.328a.472.472 0 0 1-.102-.652l.121-.158a.464.464 0 0 1 .307-.186h.065c.103 0 .196.028.28.093l24.837 18.328a.46.46 0 0 1 .186.307.461.461 0 0 1-.083.345l-.122.158a.47.47 0 0 1-.372.186Z" fill="#333434"/><path d="m160.038 263.941 24.837 18.328-.121.158-24.837-18.328.121-.158Zm0-.931a.931.931 0 0 0-.755.382l-.121.158a.905.905 0 0 0-.167.689.933.933 0 0 0 .372.615l24.838 18.328a.918.918 0 0 0 1.294-.187l.121-.158a.957.957 0 0 0 .177-.689.933.933 0 0 0-.372-.615l-24.838-18.328a.952.952 0 0 0-.549-.186v-.009Z" fill="#231815"/><path d="M173.569 294.525c-12.74 0-23.105-10.366-23.105-23.106 0-12.74 10.365-23.105 23.105-23.105s23.106 10.365 23.106 23.105-10.366 23.106-23.106 23.106Zm0-40.456c-9.564 0-17.35 7.786-17.35 17.35 0 9.565 7.786 17.35 17.35 17.35 9.565 0 17.35-7.785 17.35-17.35 0-9.564-7.785-17.35-17.35-17.35Z" fill="#333434"/><path d="M173.569 248.779c12.507 0 22.64 10.133 22.64 22.64 0 12.507-10.133 22.64-22.64 22.64-12.507 0-22.64-10.133-22.64-22.64 0-12.507 10.133-22.64 22.64-22.64Zm0 40.456c9.834 0 17.816-7.972 17.816-17.816 0-9.844-7.972-17.815-17.816-17.815-9.844 0-17.816 7.971-17.816 17.815 0 9.844 7.972 17.816 17.816 17.816Zm0-41.387c-13.001 0-23.571 10.57-23.571 23.571 0 13.001 10.57 23.571 23.571 23.571 13.001 0 23.571-10.57 23.571-23.571 0-13.001-10.57-23.571-23.571-23.571Zm0 40.455c-9.313 0-16.884-7.571-16.884-16.884s7.571-16.884 16.884-16.884 16.884 7.571 16.884 16.884-7.571 16.884-16.884 16.884Z" fill="#231815"/><path d="M173.569 291.125c-10.868 0-19.706-8.838-19.706-19.706s8.838-19.706 19.706-19.706 19.706 8.838 19.706 19.706-8.838 19.706-19.706 19.706Zm0-34.495c-8.289 0-15.022 6.743-15.022 15.022s6.743 15.022 15.022 15.022 15.022-6.743 15.022-15.022-6.743-15.022-15.022-15.022Z" fill="#333434"/><path d="M173.569 252.179c10.626 0 19.241 8.614 19.241 19.24 0 10.626-8.615 19.241-19.241 19.241s-19.24-8.615-19.24-19.241 8.614-19.24 19.24-19.24Zm0 34.961c8.559 0 15.488-6.939 15.488-15.488s-6.939-15.487-15.488-15.487-15.487 6.938-15.487 15.487 6.938 15.488 15.487 15.488Zm0-35.892c-11.119 0-20.172 9.042-20.172 20.171s9.043 20.172 20.172 20.172c11.129 0 20.172-9.043 20.172-20.172 0-11.129-9.043-20.171-20.172-20.171Zm0 34.96c-8.027 0-14.556-6.528-14.556-14.556 0-8.028 6.529-14.556 14.556-14.556 8.028 0 14.556 6.528 14.556 14.556 0 8.028-6.528 14.556-14.556 14.556Z" fill="#231815"/><path d="M173.569 276.29a4.695 4.695 0 1 0-.001-9.39 4.695 4.695 0 0 0 .001 9.39Z" fill="#333434"/><path d="M173.569 267.368a4.225 4.225 0 0 1 4.228 4.228 4.224 4.224 0 0 1-4.228 4.228 4.224 4.224 0 0 1-4.228-4.228 4.225 4.225 0 0 1 4.228-4.228Zm0-.931a5.159 5.159 0 1 0 0 10.32 5.159 5.159 0 0 0 0-10.32Z" fill="#231815"/><path d="M173.569 274.027a2.43 2.43 0 1 0 .001-4.861 2.43 2.43 0 0 0-.001 4.861Z" fill="#333434"/><path d="M173.569 269.64a1.966 1.966 0 1 1-.002 3.932 1.966 1.966 0 0 1 .002-3.932Zm0-.931a2.9 2.9 0 0 0-2.896 2.896 2.894 2.894 0 0 0 2.896 2.897 2.894 2.894 0 0 0 2.896-2.897 2.893 2.893 0 0 0-2.896-2.896Zm.857-2.095a2.079 2.079 0 0 1-2.077 2.077h-44.497a2.08 2.08 0 0 1-2.077-2.077c0-1.146.932-2.077 2.077-2.077h44.497c1.146 0 2.077.931 2.077 2.077Z" fill="#231815"/><path d="M168.307 282.865c-.726 0-1.518-.056-2.467-.168l-37.159-1.266c-.205 0-4.871-.243-8.074-3.744-2.077-2.273-3.046-5.374-2.859-9.229 0-.084.633-4.685 5.82-4.685.335 0 .689.019 1.062.056l44.516-2.272a10.8 10.8 0 0 1 .791-.028c5.523 0 10.17 4.312 10.58 9.825.437 5.839-3.958 10.943-9.797 11.38l-.457.038c-.68.055-1.266.102-1.956.102v-.009Z" fill="#888"/><path d="M169.937 261.995c5.262 0 9.713 4.06 10.114 9.397.419 5.587-3.772 10.458-9.369 10.877-.885.065-1.564.13-2.384.13-.652 0-1.397-.046-2.412-.167l-37.196-1.276s-11.054-.456-10.486-12.489c0 0 .521-4.237 5.355-4.237.316 0 .652.019 1.006.056l44.59-2.273c.261-.018.512-.028.763-.028m0-.931c-.279 0-.558.01-.838.028l-44.497 2.272a9.935 9.935 0 0 0-1.034-.055c-4.479 0-6.062 3.306-6.286 5.057v.065c-.186 3.986.81 7.199 2.98 9.564 3.334 3.641 8.196 3.884 8.401 3.893l37.158 1.276c.95.112 1.742.167 2.487.167.745 0 1.303-.046 1.993-.102l.465-.037a11.006 11.006 0 0 0 7.572-3.819 11.055 11.055 0 0 0 2.654-8.055c-.429-5.746-5.281-10.254-11.045-10.254h-.01Z" fill="#231815"/><path d="M122.041 272.49c-.736 0-1.435-.177-1.975-.493-.614-.364-.95-.867-.94-1.425 0-1.071 1.285-1.9 2.915-1.9l36.683.084c.736 0 1.434.177 1.975.493.614.363.949.866.94 1.425 0 1.071-1.285 1.9-2.915 1.9l-36.683-.084Z" fill="#888"/><path d="m122.041 269.137 36.674.084c1.35 0 2.449.652 2.449 1.453 0 .792-1.099 1.434-2.449 1.434h-.009l-36.675-.084c-1.359 0-2.449-.652-2.449-1.452 0-.792 1.099-1.435 2.449-1.435m0-.931c-1.927 0-3.38 1.015-3.38 2.366 0 1.35 1.453 2.374 3.38 2.384l36.675.083c1.937 0 3.39-1.015 3.39-2.365 0-.717-.429-1.388-1.174-1.825-.605-.354-1.387-.559-2.207-.559l-36.674-.084h-.01Z" fill="#231815"/><path d="M162.403 271.848c.307 4.163 3.939 7.282 8.102 6.975 4.163-.307 7.283-3.939 6.975-8.102-.307-4.163-3.939-7.283-8.102-6.976-4.163.308-7.283 3.94-6.975 8.103Z" fill="#FFE600" stroke="#231815" stroke-miterlimit="10"/><path d="m73.222 203.556-6.016 24.642s-1.369 4.191 0 4.936l8.186 3.241 6.566-22.481s4.032-6.566 6.472-11.344c0 0 3.027-6.826 2.59-6.826-4.62 0-12.024-7.022-12.024-7.022s-4.74.41-4.796 1.611c-.047 1.202-.978 13.234-.978 13.234v.009Z" fill="#00698A" stroke="#231815" stroke-miterlimit="10"/><path d="M83.103 197.279c-.065 4.731-6.677 9.35-16.018 8.577-1.788-.149-3.25-3.837-3.25-8.577s1.49-8.298 3.25-8.577c7.87-1.229 16.065 4.61 16.018 8.577Z" fill="#00698A" stroke="#231815" stroke-miterlimit="10"/><path d="M67.197 188.692s-.075 0-.103.01c-1.76.279-3.25 3.837-3.25 8.577s1.462 8.428 3.25 8.577h.103v-17.173.009Z" fill="#FFE600" stroke="#231815" stroke-miterlimit="10"/><path d="M65.372 190.164c-.913 1.509-1.537 4.07-1.537 7.124 0 3.055.615 5.691 1.537 7.199v-14.323Z" fill="#fff" stroke="#231815" stroke-linecap="round" stroke-linejoin="round"/><path d="M88.617 190.937c-3.921-1.257-5.486-1.369-6.976-1.928-1.527-.475-2.933-1.015-4.368-.959-1.573.065-3.8 0-4.479.885.112 4.479-.084 15.375 0 17.005 7.739 2.114 10.859 1.313 12.61.838 1.266-.512 3.371-2.458 4.973-5.969 0 0 2.645-8.457-1.751-9.872h-.01Z" fill="#00698A" stroke="#231815" stroke-miterlimit="10"/><path d="M78.01 200.809c0 .856-.69 1.546-1.546 1.546h-4.256c-.857 0-1.546-.69-1.546-1.546 0-.857.689-1.546 1.546-1.546h4.256c.856 0 1.546.689 1.546 1.546Z" fill="#FFE600" stroke="#231815" stroke-miterlimit="10"/><path d="M94.158 171.892c-1.528 0-2.84-3.595-3.409-6.938-.316-1.872-.419-3.679-.28-5.076.16-1.629.625-2.523 1.37-2.645.028 0 .14-.009.168-.009 1.527 0 2.84 3.595 3.408 6.938.317 1.872.42 3.67.28 5.066-.159 1.63-.625 2.524-1.37 2.645-.028 0-.14.01-.167.01v.009Z" fill="#888"/><path d="M91.997 157.69c1.025 0 2.32 2.868 2.952 6.556.643 3.791.326 7.004-.707 7.181h-.094c-1.024 0-2.318-2.869-2.952-6.557-.642-3.79-.326-7.003.708-7.18h.093Zm0-.931c-.084 0-.167 0-.242.018-.978.168-1.564 1.202-1.75 3.064-.14 1.435-.038 3.279.288 5.197.205 1.22 1.369 7.329 3.865 7.329.084 0 .168 0 .242-.018 2.71-.466 1.602-7.46 1.462-8.261-.205-1.22-1.369-7.329-3.865-7.329Z" fill="#231815"/><path d="M94.158 171.892a1.17 1.17 0 0 1-.512-.13.444.444 0 0 1-.252-.391c0-.168.075-.326.215-.42.521-.335.922-2.877.288-6.63-.577-3.372-1.667-5.765-2.393-6.138a.46.46 0 0 1-.252-.391c0-.167.075-.326.215-.419a.994.994 0 0 1 .372-.149c.028 0 .14-.018.168-.018 1.527 0 2.84 3.594 3.408 6.938.317 1.872.42 3.669.28 5.066-.159 1.63-.624 2.524-1.37 2.645-.027 0-.139.009-.167.009v.028Z" fill="#888"/><path d="M91.997 157.69c1.025 0 2.329 2.868 2.953 6.556.642 3.791.325 7.004-.708 7.181h-.084a.636.636 0 0 1-.308-.084c.867-.55 1.1-3.576.494-7.097-.568-3.324-1.685-5.988-2.645-6.472.066-.037.13-.075.205-.084h.093Zm0-.931c-.084 0-.167 0-.242.018a1.436 1.436 0 0 0-.55.215.922.922 0 0 0-.428.828.931.931 0 0 0 .513.783c.428.214 1.536 2.198 2.15 5.802.615 3.595.224 5.83-.111 6.184a.918.918 0 0 0-.42.819.927.927 0 0 0 .522.773c.233.121.485.177.727.177.084 0 .168 0 .242-.019 2.71-.465 1.602-7.459 1.462-8.26-.205-1.22-1.369-7.329-3.865-7.329v.009Z" fill="#231815"/><path d="M88.97 196.199c-1.043 0-2.002-1.099-2.225-2.552-.112-.727-.028-1.444.233-2.021.288-.633.782-1.043 1.35-1.136.074-.009.158-.019.233-.019 1.052 0 2.002 1.099 2.225 2.552.14.922-.037 1.844-.484 2.449-.289.391-.67.643-1.099.708a2.029 2.029 0 0 1-.233.019Z" fill="#333434"/><path d="M88.56 190.946c.811 0 1.584.922 1.77 2.161.205 1.313-.335 2.496-1.201 2.626-.056 0-.112.01-.158.01-.81 0-1.584-.922-1.77-2.161-.205-1.313.335-2.496 1.202-2.626.055 0 .111-.01.158-.01Zm0-.931c-.102 0-.204 0-.297.019-.727.112-1.35.624-1.704 1.397-.298.661-.4 1.471-.27 2.281.26 1.705 1.397 2.943 2.69 2.943.103 0 .206 0 .299-.018.726-.112 1.35-.624 1.704-1.397.298-.662.4-1.472.27-2.282-.26-1.704-1.397-2.943-2.691-2.943Z" fill="#231815"/><path d="M89.436 195.863c-.735 0-1.415-.661-1.695-1.061-.41-.568-.754-1.49-.493-2.366.195-.67.8-1.443 1.546-1.574l5.997-1.033s.103-.01.13-.01c.81 0 1.314 1.239 1.5 2.291.13.783.14 1.807-.233 2.338a.808.808 0 0 1-.53.354s-5.905 1.015-5.998 1.033a1.42 1.42 0 0 1-.205.019l-.019.009Z" fill="#333434"/><path d="M94.903 190.295c.4 0 .847.828 1.034 1.909.195 1.117.018 2.086-.391 2.151l-5.998 1.034c-.037 0-.084.009-.121.009-.512 0-1.062-.503-1.323-.866-.39-.54-.623-1.304-.428-1.956.15-.484.633-1.145 1.174-1.238l5.997-1.034h.047m0-.931c-.066 0-.14 0-.205.018l-5.998 1.034c-1.043.177-1.713 1.229-1.909 1.9-.307 1.033.093 2.114.568 2.775.42.577 1.21 1.248 2.077 1.248.093 0 .186 0 .28-.028l5.997-1.034c.354-.065.978-.326 1.173-1.434.093-.512.084-1.145-.028-1.797-.223-1.295-.856-2.682-1.955-2.682Z" fill="#231815"/><path d="M95.322 195.286c-1.043 0-1.993-1.052-2.254-2.496-.13-.726-.065-1.443.187-2.03.27-.643.754-1.071 1.322-1.173.093-.019.177-.028.27-.028 1.043 0 1.993 1.052 2.254 2.495.13.727.065 1.444-.186 2.021-.27.643-.755 1.071-1.323 1.174a1.377 1.377 0 0 1-.27.028v.009Z" fill="#333434"/><path d="M94.838 190.034c.8 0 1.583.894 1.797 2.114.233 1.313-.27 2.496-1.127 2.654-.065.009-.12.019-.186.019-.801 0-1.574-.894-1.797-2.114-.233-1.313.27-2.496 1.126-2.655.066-.009.121-.018.187-.018Zm0-.931c-.121 0-.233.009-.354.027-.727.131-1.332.662-1.667 1.444-.28.671-.363 1.481-.214 2.291.298 1.667 1.443 2.878 2.71 2.878.12 0 .242-.01.353-.028 1.388-.252 2.217-1.891 1.882-3.735-.298-1.667-1.444-2.877-2.71-2.877Z" fill="#231815"/><path d="M72.03 196.72s-5.42 1.174-4.423 4.75c.521 1.862 6.323 3.585 8.242 2.524.82-.457.95-5.095.204-6.743-.39-.857-2.477-.903-4.013-.531h-.01Z" fill="#FFE600" stroke="#231815" stroke-miterlimit="10"/><path d="M85.255 193.945a.99.99 0 0 1-.661-.27.536.536 0 0 1-.103-.14l-1.564-3.306c-1.397-2.486.689-6.323.782-6.491l7.674-19.65a.476.476 0 0 1 .437-.298h.084a.862.862 0 0 1 .643.447c.298.55-.028 1.36-.093 1.518l-7.786 20.088c-.717 1.909-.363 3.371-.354 3.381.559 1.154 1.537 3.185 1.64 3.371.195.354.148.717.055.931a.387.387 0 0 1-.102.14.958.958 0 0 1-.643.261l-.01.018Z" fill="#888"/><path d="M91.811 164.265c.717.121.205 1.322.205 1.322l-7.786 20.107c-.782 2.095-.372 3.669-.372 3.669s1.536 3.222 1.685 3.483c.15.261.038.494.038.494a.476.476 0 0 1-.326.139c-.196 0-.345-.139-.345-.139l-1.564-3.306c-1.295-2.319.763-6.063.763-6.063l7.702-19.706Zm0-.932a.926.926 0 0 0-.866.597l-7.683 19.65c-.345.633-2.17 4.284-.755 6.882l1.556 3.278a.98.98 0 0 0 .204.28c.094.093.457.391.988.391.354 0 .68-.131.95-.382a.98.98 0 0 0 .204-.28 1.476 1.476 0 0 0-.065-1.359c-.102-.186-.894-1.835-1.61-3.325-.057-.289-.215-1.499.362-3.036l7.786-20.097c.102-.233.447-1.164.056-1.891a1.338 1.338 0 0 0-.978-.689c-.056 0-.102-.009-.158-.009l.009-.01Z" fill="#231815"/><path d="M86.056 275.079c2.142 5.001 5.215 9.965 9.033 10.328h41.526s14.156 1.09 17.173-10.328H86.056Z" fill="#FFE600" stroke="#231815" stroke-miterlimit="10"/><path d="M141.98 281.831H98.237c-1.89 0-3.427.186-5.196-.726-1.77-.913-3.055-2.385-4.06-4.024-2.078-3.352-3.037-7.347-3.894-11.129-3.036-13.298-4.638-12.442-8.549-18.942-3.911-6.5.913-15.068 3.763-24.651 1.275-4.294 1.583-7.05 1.536-8.792-.335-1.052-.978-2.086-1.797-2.682-.373-.27-.755-.549-1.174-.736-1.033-.456-3.203-1.182-4.33-1.266-2.021-.149-3.12.298-7.246 3.669-7.832 6.389-14.1 18.738-14.658 29.271 0 0-.699 3.613 2.896 3.008 3.595-.596 23.627 1.546 27.436 21.243 0 0 4.284 18.588 12.125 19.342h41.527s7.58.578 12.824-3.585h-7.46Z" fill="#00698A" stroke="#231815" stroke-miterlimit="10"/><path d="M210.299 269.435c-3.911-.996-3.361-4.991-3.361-4.991-.271-16.95-11.865-26.542-11.865-26.542-16.94-12.964-37.969-3.623-37.969-3.623-5.299 2.207-3.399-7.385-3.399-7.385h-7.795l-.559 3.735c-.084.53-.158 1.071-.233 1.601l-19.352-.791v.894h-6.165s-.801 5.196 1.295 6.193c2.095.996 10.812 3.092 11.101 10.281.288 7.19-16.838 6.119-16.363 24.372 0 0 93.175-1.341 95.094-2.077 2.85-1.098-.41-1.676-.41-1.676l-.019.009Z" fill="#00698A" stroke="#231815" stroke-miterlimit="10"/><path d="M196.749 233.441c-.298 0-.531-.018-.661-.037h-23.906a1.663 1.663 0 0 1-1.667-1.658c0-.912.745-1.667 1.667-1.667h24.036c.075 0 .159 0 .233.019.056 0 .158.019.289.019.484 0 .903-.093 1.108-.252.047-.037.149-.112.177-.41.279-2.356 0-8.782-.009-8.847-.019-.447.13-.866.437-1.201a1.63 1.63 0 0 1 1.155-.54c.969 0 1.695.698 1.732 1.583.028.689.298 6.798-.009 9.387-.13 1.099-.633 2.021-1.462 2.654-1.015.783-2.254.941-3.12.941v.009Z" fill="#333434"/><path d="M199.673 219.332c.634 0 1.174.503 1.202 1.146.009.27.298 6.705 0 9.313-.112.977-.559 1.788-1.276 2.337-.932.717-2.096.848-2.841.848-.27 0-.493-.019-.614-.028h-23.962c-.662 0-1.202-.54-1.202-1.202 0-.661.54-1.201 1.202-1.201h24.036c.056 0 .112 0 .168.009.074.01.205.019.354.019.419 0 1.024-.065 1.387-.354.14-.112.308-.289.354-.717.289-2.421 0-8.857 0-8.922a1.198 1.198 0 0 1 1.146-1.248h.056m0-.931h-.094a2.133 2.133 0 0 0-1.48.689 2.165 2.165 0 0 0-.559 1.537c0 .065.289 6.435.009 8.772-.009.094-.028.122-.028.122-.056.027-.344.121-.801.121-.102 0-.186 0-.242-.01a2.743 2.743 0 0 0-.288-.018h-24.037a2.138 2.138 0 0 0-2.133 2.132c0 1.174.959 2.133 2.133 2.133h23.906c.159.019.382.028.661.028.941 0 2.291-.177 3.409-1.043.922-.708 1.49-1.742 1.639-2.971.307-2.626.047-8.773.009-9.462a2.13 2.13 0 0 0-2.132-2.03h.028Z" fill="#231815"/><path d="M179.296 232.808a1.665 1.665 0 0 1-1.667-1.667v-7.786a1.666 1.666 0 1 1 3.334 0v7.786c0 .922-.745 1.667-1.667 1.667Z" fill="#333434"/><path d="M179.297 222.163c.661 0 1.201.54 1.201 1.202v7.785c0 .661-.54 1.202-1.201 1.202a1.205 1.205 0 0 1-1.202-1.202v-7.785c0-.662.54-1.202 1.202-1.202Zm0-.931a2.138 2.138 0 0 0-2.133 2.133v7.785c0 1.174.959 2.133 2.133 2.133a2.138 2.138 0 0 0 2.132-2.133v-7.785a2.138 2.138 0 0 0-2.132-2.133Z" fill="#231815"/><path d="M193.34 237.632s8.727 7.394 11.418 17.499c0 0 .67 2.244 1.201 7.636.522 5.393.894 6.901 3.893 7.19 0 0-3.893.754-4.396-2.989-.577-4.34-.922-17.797-12.116-29.345v.009Z" fill="#FFE600" stroke="#231815" stroke-miterlimit="10"/><path d="M210.299 269.435c-3.911-.996-3.361-4.991-3.361-4.991-.271-16.95-11.865-26.542-11.865-26.542-16.94-12.964-37.969-3.623-37.969-3.623-5.299 2.207-3.399-7.385-3.399-7.385h-7.795l-.559 3.735c-.084.53-.158 1.071-.233 1.601l-19.352-.791v.894h-6.165s-.801 5.196 1.295 6.193c2.095.996 10.812 3.092 11.101 10.281.288 7.19-16.838 6.119-16.363 24.372 0 0 10.132-.149 23.776-.372 1.313-10.999 6.798-29.271 28.618-32.093 23.469-3.036 33.238 14.407 36.786 30.733 3.483-.121 5.635-.242 5.905-.345 2.849-1.098-.41-1.676-.41-1.676l-.01.009Z" fill="#00698A" stroke="#231815" stroke-miterlimit="10"/><path d="M168.018 240.733c-21.82 2.831-27.305 21.094-28.618 32.092 4.219-.065 64.725-1.341 65.404-1.359-3.548-16.326-13.317-33.769-36.786-30.733Z" fill="#00698A" stroke="#231815" stroke-miterlimit="10"/><path d="M169.043 243.434c-20.777 2.691-21.736 24.102-21.671 29.159 18.29-.317 38.714-.708 49.74-1.062-2.049-13.513-9.024-30.565-28.069-28.097Z" fill="#00698A" stroke="#231815" stroke-miterlimit="10"/><path d="M186.654 239.178c0 .857-.69 1.546-1.546 1.546h-4.256a1.542 1.542 0 0 1-1.546-1.546c0-.857.689-1.546 1.546-1.546h4.256c.856 0 1.546.689 1.546 1.546Z" fill="#FFE600" stroke="#231815" stroke-miterlimit="10"/><path d="M191.04 238.536c-.018-.066-.046-.122-.065-.177a.069.069 0 0 0-.019-.038l-.083-.167c0-.01-.01-.019-.019-.028a3.34 3.34 0 0 0-.503-.689c-.046-.056-.102-.103-.149-.149l-.009-.01a6.013 6.013 0 0 0-.876-.67c-.065-.037-.121-.075-.186-.112a8.882 8.882 0 0 0-.931-.466h-.009c-.056-.028-.112-.046-.177-.074a14.556 14.556 0 0 0-.634-.233h-.028c-.037-.009-.074-.028-.111-.037-.01 0-.019 0-.028-.01a1.484 1.484 0 0 1-.103-.027h-.018c-.103-.028-.187-.056-.261-.075h-.028c-.019 0-.028 0-.047-.009h-.111a8.364 8.364 0 0 0-1.397-.205c-.215-.009-.438-.019-.643-.009h-.251a4.031 4.031 0 0 0-.503.065c-.038 0-.065.009-.103.018-.037 0-.074.019-.111.028-.047.01-.094.028-.14.038-.037.009-.075.018-.103.037a8.07 8.07 0 0 0-.139.056c-.019.009-.047.018-.065.028a.49.49 0 0 0-.122.065c-.018 0-.028.018-.046.028-.047.028-.093.065-.14.102-.009 0-.018.019-.028.028a.455.455 0 0 0-.093.093c-.009.01-.019.028-.028.038-.028.046-.065.083-.084.13-.028.065-.056.14-.083.205 0 .018-.01.037-.019.056-.019.065-.047.13-.065.195 0 .019 0 .028-.01.047-.028.084-.046.177-.065.261v.037l-.056.251c0 .019 0 .037-.009.056-.037.205-.065.419-.093.643v.037l-.028.335c-.158 1.947.084 4.284.643 4.591.065.038.139.066.214.103.028.009.046.019.074.028.056.018.103.037.168.056.028 0 .056.018.093.028.056.018.112.028.177.037.028 0 .065.009.093.019l.196.028c.028 0 .056 0 .083.009.084 0 .168.018.252.018h.046c.326.019.68 0 1.044-.027 2.412-.233 5.448-1.481 5.82-2.813.177-.643.149-1.211-.019-1.704l-.065-.065Z" fill="#FFE600" stroke="#231815" stroke-miterlimit="10"/><path d="M169.397 235.788c-.363 0-.578-.028-.578-.028h-37.922c-.484-.056-1.108-.102-1.844-.158-3.65-.252-9.154-.643-10.244-3.372-.512-1.294.047-2.84 1.723-4.712a.46.46 0 0 1 .112-.307 6.897 6.897 0 0 1 1.918-1.528c2.151-1.182 4.768-1.397 7.274-1.462.353 0 .717-.009 1.071-.009 1.955 0 3.911.121 5.811.242 1.881.112 3.818.233 5.727.233 1.192 0 2.282-.047 3.316-.14 6.034-.549 12.013-2.049 17.787-3.492l.559-.14c2.477-.624 5.159-1.22 7.944-1.415.196-.01.643-.038.643-.038h.093c2.887.568 3.073 2.329 3.064 2.832.158.512.81 3.129 0 8.186-.792 4.907-5.132 5.289-6.445 5.289l-.009.019Z" fill="#333434"/><path d="M172.694 219.938c2.961.586 2.691 2.43 2.691 2.43s.894 2.543 0 8.056c-.726 4.479-4.563 4.899-5.979 4.899-.326 0-.521-.019-.521-.019h-37.978c-3.12-.419-16.792-.102-9.863-7.627.037-.038-.018-.093-.037-.14.475-.549 1.071-1.024 1.788-1.425 2.114-1.155 4.703-1.341 7.059-1.406.354 0 .708-.009 1.062-.009 3.865 0 7.683.474 11.539.474 1.117 0 2.235-.037 3.361-.139 6.259-.578 12.34-2.124 18.421-3.642 2.58-.642 5.206-1.22 7.87-1.406.186-.009.4-.028.614-.037m0-.931h-.046c-.224.009-.438.028-.633.037-2.822.195-5.523.801-8.028 1.434l-.559.14c-5.765 1.443-11.725 2.933-17.722 3.483-1.025.093-2.096.14-3.269.14-1.9 0-3.828-.122-5.7-.233-1.899-.121-3.874-.242-5.839-.242-.363 0-.717 0-1.08.009-2.561.065-5.243.289-7.478 1.518a7.675 7.675 0 0 0-2.049 1.63.891.891 0 0 0-.205.409c-1.723 1.965-2.282 3.632-1.704 5.085 1.192 2.999 6.882 3.399 10.644 3.66.727.047 1.351.093 1.751.149h38.053c.093 0 .298.019.568.019 1.406 0 6.053-.41 6.901-5.681.791-4.871.223-7.571.018-8.307.019-.997-.652-2.692-3.446-3.241a1.168 1.168 0 0 0-.177-.019v.01Z" fill="#231815"/><path d="M54.494 239.215c2.682-.875 4.592-17.415 18.263-26.672 0 0 3.436-3.343-.931-2.831-1.23.54-2.794 1.406-4.536 2.831-6.938 5.662-12.647 15.99-14.249 25.601.243.829.69 1.323 1.453 1.071Z" fill="#FFE600" stroke="#231815" stroke-miterlimit="10"/><path d="M76.538 247.485a.473.473 0 0 1-.336-.14c-6.602-6.751-2.83-16.446.205-24.232.932-2.393 1.816-4.656 2.282-6.565.913-3.707.168-4.638-1.062-6.175a.5.5 0 0 1-.056-.531.468.468 0 0 1 .4-.251h.057c.12.018 2.905.4 3.948 3.893.503 1.685.13 4.377-1.238 9.015-.643 2.179-1.397 4.302-2.114 6.351-2.468 7.022-4.61 13.085-1.695 17.927a.462.462 0 0 1-.112.606.466.466 0 0 1-.289.093l.01.009Z" fill="#333434"/><path d="M77.981 210.056s2.59.326 3.558 3.558c.503 1.667.037 4.451-1.239 8.745-2.85 9.583-7.674 18.151-3.762 24.651-8.4-8.596.614-22.258 2.607-30.36.969-3.949.121-4.983-1.173-6.603m0-.931a.928.928 0 0 0-.726 1.508l.018.019c1.22 1.527 1.835 2.291.978 5.774-.466 1.881-1.341 4.126-2.263 6.51-3.083 7.906-6.92 17.76-.102 24.726a.915.915 0 0 0 .67.279.938.938 0 0 0 .8-1.416c-2.802-4.656-.697-10.626 1.733-17.536.727-2.058 1.472-4.191 2.124-6.379 1.424-4.787 1.778-7.478 1.238-9.276-1.136-3.772-4.21-4.2-4.34-4.219h-.111l-.019.01Z" fill="#231815"/><path d="M98.88 276.653c-2.3 0-4.247-.186-5.951-.568-1.565-.354-2.86-1.378-3.642-2.896-.968-1.872-1.061-4.247-.242-6.194.876-2.086 2.766-3.734 4.955-4.302a9.287 9.287 0 0 1 1.387-.242c.624-.065 1.248-.084 1.863-.103.968-.028 1.881-.056 2.775-.251 1.909-.419 3.604-1.602 5.243-2.747.438-.308.876-.615 1.313-.904 2.654-1.76 4.936-1.844 7.581-1.956.708-.027 1.444-.055 2.216-.121 1.22-.102 2.524-.195 3.809-.195 1.286 0 2.319.084 3.335.261 5.122.875 7.701 4.824 7.087 10.83-.717 6.929-8.345 7.432-13.923 7.805-.801.056-1.565.102-2.263.167-1.397.131-2.897.317-4.461.503-3.492.429-7.441.904-11.083.904v.009Z" fill="#333434"/><path d="M120.188 256.64c1.089 0 2.188.065 3.259.251 5.411.922 7.236 5.178 6.705 10.328-.773 7.488-10.197 7.032-15.766 7.562-4.582.429-10.3 1.407-15.497 1.407-2.067 0-4.051-.159-5.849-.559-3.64-.82-4.88-5.299-3.566-8.456.82-1.956 2.589-3.502 4.647-4.033a9.17 9.17 0 0 1 1.322-.233c1.556-.158 3.148-.018 4.685-.354 2.514-.549 4.563-2.29 6.714-3.715 3.25-2.152 5.979-1.705 9.583-2.003 1.248-.102 2.515-.195 3.772-.195m0-.932c-1.313 0-2.626.094-3.846.196-.764.065-1.49.093-2.198.121-2.598.103-5.057.205-7.823 2.03-.447.298-.885.606-1.332.913-1.667 1.173-3.25 2.272-5.066 2.673-.847.186-1.742.214-2.682.233-.615.018-1.257.037-1.9.102-.54.056-1.015.14-1.462.261-2.319.605-4.34 2.365-5.271 4.582-.866 2.077-.764 4.6.26 6.584.848 1.639 2.254 2.747 3.959 3.129 1.741.391 3.715.578 6.053.578 3.66 0 7.627-.485 11.129-.904 1.574-.195 3.064-.372 4.451-.503.69-.065 1.453-.111 2.254-.167 5.737-.382 13.597-.904 14.351-8.224.652-6.286-2.076-10.421-7.469-11.343-1.043-.177-2.16-.261-3.417-.261h.009Z" fill="#231815"/><path d="M141.132 210.913c-5.476-3.399-11.101-6.863-17.415-8.158-6.314-1.294-13.56 0-17.778 4.889-3.092 3.586-4.117 8.512-4.321 13.243-.494 11.763-2.254 24.205-3.027 35.958 8.95 1.322 23.729.819 32.744.083-2.161-7.524-4.33-15.049-6.491-22.574-.875-3.045-1.751-6.1-2.319-9.211-.14-.745-1.267-7.282.075-6.994.195.047.54.988.651 1.165.736 1.201 1.714 2.318 2.599 3.408 1.788 2.217 3.716 4.331 5.858 6.212 3.799 3.315 8.381 5.886 13.373 6.631 4.992.745 10.393-.503 14.09-3.93 3.977-3.698 5.523-9.313 6.193-14.706.671-5.392 1.835-10.821 3.493-15.99-17.052-1.332-35.324-2.272-52.423-2.617-.009 1.434-.121 2.794.131 4.2" fill="#00698A"/><path d="M141.132 210.913c-5.476-3.399-11.101-6.863-17.415-8.158-6.314-1.294-13.56 0-17.778 4.889-3.092 3.586-4.117 8.512-4.321 13.243-.494 11.763-2.254 24.205-3.027 35.958 8.95 1.322 23.729.819 32.744.083-2.161-7.524-4.33-15.049-6.491-22.574-.875-3.045-1.751-6.1-2.319-9.211-.14-.745-1.267-7.282.075-6.994.195.047.54.988.651 1.165.736 1.201 1.714 2.318 2.599 3.408 1.788 2.217 3.716 4.331 5.858 6.212 3.799 3.315 8.381 5.886 13.373 6.631 4.992.745 10.393-.503 14.09-3.93 3.977-3.698 5.523-9.313 6.193-14.706.671-5.392 1.835-10.821 3.493-15.99-17.052-1.332-35.324-2.272-52.423-2.617-.009 1.434-.121 2.794.131 4.2" stroke="#231815" stroke-miterlimit="10"/><path d="M155.232 214.285c-1.276 2.859-2.44 5.867-2.375 8.996.065 3.129 1.63 6.407 4.498 7.655 2.207.959 3.521-.279 4.685-2.067a20.785 20.785 0 0 0 2.7-6.072c.131-.485 1.081-5.271.671-5.309a16.477 16.477 0 0 1-4.042-.94c-2.049-.755-4.088-1.509-6.137-2.263Z" fill="#FFE600" stroke="#231815" stroke-miterlimit="10"/><path d="M172.023 181.047a.462.462 0 0 1-.419-.447l-.68-22.174c-1.22-1.053-13.774-4.536-17.936-5.69-1.183-.326-2.04-.568-2.394-.671a214.48 214.48 0 0 0-23.822-5.793c-1.211-.223-2.431-.437-3.642-.651-5.261-.941-10.7-1.91-15.981-3.269a.62.62 0 0 1-.344-.289c-.382-.81 1.9-6.594 1.918-6.64.699-1.518 1.714-2.962 2.701-4.359l.447-.633c2.366-3.38 5.495-6.342 9.052-8.577 6.314-3.958 14.044-6.035 23.646-6.351a66.617 66.617 0 0 1 2.365-.038c5.988 0 11.176.773 15.869 2.366 8.131 2.756 15.562 8.102 20.926 15.04a37.146 37.146 0 0 1 4.312 7.115c2.571 5.56 3.8 11.8 3.67 18.542-.093 4.834-1.034 13.867-6.249 20.042a.461.461 0 0 1-.354.167.547.547 0 0 1-.214-.046.477.477 0 0 1-.243-.531c.308-1.248 1.109-5.42-1.667-6.789a4.707 4.707 0 0 0-2.104-.475c-1.714 0-3.53.838-4.871 2.244-1.602 1.686-2.719 4.089-3.502 7.553a.467.467 0 0 1-.456.363h-.046l.018-.009Z" fill="#333434"/><path d="M146.943 115.922c5.318 0 10.654.624 15.711 2.337 7.963 2.701 15.329 7.925 20.712 14.882a36.904 36.904 0 0 1 4.266 7.031c2.589 5.607 3.753 11.828 3.622 18.338-.139 6.872-1.723 14.518-6.137 19.752.708-2.84.578-6.1-1.909-7.32a5.17 5.17 0 0 0-2.31-.521c-1.89 0-3.827.94-5.206 2.393-1.955 2.049-2.97 4.917-3.613 7.776-.233-7.431-.456-14.863-.689-22.295-.037-1.136-18.645-6.062-20.665-6.677a229.37 229.37 0 0 0-4.499-1.313 215.544 215.544 0 0 0-19.38-4.498c-6.547-1.192-13.131-2.254-19.585-3.912-.419-.111 1.658-5.783 1.891-6.286.782-1.713 2.021-3.371 3.11-4.917 2.366-3.381 5.43-6.258 8.922-8.447 7.022-4.405 15.282-6.007 23.413-6.277a65.74 65.74 0 0 1 2.356-.037m0-.931c-.773 0-1.583.009-2.384.037-9.686.317-17.49 2.412-23.869 6.416-3.604 2.264-6.789 5.272-9.192 8.708l-.447.633c-.997 1.416-2.03 2.869-2.738 4.433-.028.056-2.44 5.951-1.919 7.041.131.27.364.465.643.531 5.29 1.369 10.747 2.337 16.018 3.278 1.211.214 2.422.428 3.642.652a213.547 213.547 0 0 1 19.287 4.47c1.49.419 2.998.857 4.479 1.304.354.111 1.229.354 2.421.68 3.949 1.098 15.646 4.349 17.593 5.494v.419l.679 21.513a.925.925 0 0 0 .839.894h.093c.428 0 .81-.298.903-.726.764-3.39 1.835-5.718 3.381-7.339 1.257-1.313 2.952-2.105 4.535-2.105.68 0 1.313.149 1.9.429 2.468 1.211 1.713 5.094 1.415 6.258a.934.934 0 0 0 .475 1.052c.131.066.28.103.429.103.27 0 .531-.112.708-.335 5.308-6.287 6.258-15.441 6.36-20.33.14-6.808-1.108-13.113-3.706-18.747a37.845 37.845 0 0 0-4.368-7.209c-5.42-7.012-12.926-12.414-21.15-15.198-4.74-1.611-9.974-2.384-16.018-2.384l-.009.028Z" fill="#231815"/><path d="M116.174 161.331a3.38 3.38 0 1 0 0-6.761 3.381 3.381 0 0 0 0 6.761Z" fill="#333434"/><path d="M116.174 155.036a2.914 2.914 0 0 1 2.915 2.915 2.914 2.914 0 0 1-2.915 2.915 2.914 2.914 0 0 1-2.915-2.915 2.914 2.914 0 0 1 2.915-2.915Zm0-.932a3.848 3.848 0 0 0 0 7.693 3.847 3.847 0 0 0 0-7.693Z" fill="#231815"/><path d="M124.592 162.942a3.38 3.38 0 1 0 .002-6.76 3.38 3.38 0 0 0-.002 6.76Z" fill="#333434"/><path d="M124.592 156.656a2.914 2.914 0 0 1 2.915 2.915 2.914 2.914 0 0 1-2.915 2.915 2.914 2.914 0 0 1-2.915-2.915 2.914 2.914 0 0 1 2.915-2.915Zm0-.931a3.847 3.847 0 0 0 0 7.693 3.848 3.848 0 0 0 0-7.693Z" fill="#231815"/><path d="M141.942 181.577c-8.875 10.999-24.483 15.739-37.978 11.53-.698-.214-1.387-.457-2.058-.689-2.077-.718-4.042-1.397-5.923-1.351-1.732.047-3.818 1.248-3.818 2.682a2.596 2.596 0 0 1-2.58 2.599 2.588 2.588 0 0 1-2.589-2.58c0-2.235 1.071-4.293 3.027-5.811 1.63-1.258 3.753-2.012 5.82-2.068 2.822-.074 5.337.792 7.758 1.63.661.233 1.285.447 1.909.643 5.523 1.722 11.79 1.695 17.667-.094 5.876-1.778 11.101-5.243 14.733-9.741" fill="#FFE600"/><path d="M141.942 181.577c-8.875 10.999-24.483 15.739-37.978 11.53-.698-.214-1.387-.457-2.058-.689-2.077-.718-4.042-1.397-5.923-1.351-1.732.047-3.818 1.248-3.818 2.682a2.596 2.596 0 0 1-2.58 2.599 2.588 2.588 0 0 1-2.589-2.58c0-2.235 1.071-4.293 3.027-5.811 1.63-1.258 3.753-2.012 5.82-2.068 2.822-.074 5.337.792 7.758 1.63.661.233 1.285.447 1.909.643 5.523 1.722 11.79 1.695 17.667-.094 5.876-1.778 11.101-5.243 14.733-9.741" stroke="#231815" stroke-miterlimit="10"/><path d="M110.511 132.862c7.842-8.093 14.901-10.561 25.732-9.714 12.358.969 24.418 5.83 32.558 13.597 8.111 7.748 14.5 22.314 12.647 33.797-2.347-.578-6.296 2.328-7.227 4.721 1.397-8.763-1.09-19.026-5.998-26.197-4.889-7.143-15.021-13.709-22.947-16.204-25.619-8.093-34.774 0-34.774 0h.009Z" fill="#00698A" stroke="#231815" stroke-miterlimit="10"/><path d="m127.191 166.491-.084 1.164m1.351-1.174.065 1.165m1.154-1.37.233 1.062m-22.127-5.224-.978.642m1.751.345-.885.754m1.788.093-.698.829" stroke="#231815" stroke-linecap="round" stroke-linejoin="round"/></g><path d="M26.547 344.522h-5.824v.644h5.824v-.644Zm-5.824 2.38h5.824v-.644h-5.824v.644Zm0 1.778h5.824v-.672h-5.824v.672Zm-1.61 1.68v-7.014h9.1v6.944h-1.666v-.406h-5.824v.476h-1.61Zm7.672-10.584v1.092H20.47v-1.092h6.314Zm-.014 2.842h-6.286v-1.106h6.286v1.106Zm-8.596-4.662h10.892v5.012h-1.68v-3.836h-7.602v3.85h-1.61v-5.026Zm21.28 2.492h2.996a14.213 14.213 0 0 1-1.652-1.26c-.42.448-.868.868-1.344 1.26Zm-.588 1.246v-.812c-.434.308-.91.602-1.386.854-.21-.294-.686-.798-1.022-1.092-.154.518-.28 1.022-.42 1.456.714 1.078.854 2.086.854 2.884 0 .924-.154 1.526-.56 1.848-.196.168-.448.266-.742.308-.224.042-.532.042-.812.042-.014-.406-.126-1.022-.336-1.442.21.028.364.028.518.014a.454.454 0 0 0 .322-.112c.154-.126.21-.434.21-.854 0-.644-.112-1.568-.784-2.534.224-.84.476-1.988.672-2.912h-1.022v11.004h-1.386v-12.488h2.842l.224-.056 1.036.602c-.182.658-.392 1.4-.588 2.128 1.596-.826 3.066-2.128 3.85-3.402l1.596.56c-.084.14-.168.294-.266.434 1.036.84 2.562 1.666 3.934 2.114a7.609 7.609 0 0 0-.63 1.582 16.88 16.88 0 0 1-1.988-1.036v.91h-4.116Zm3.57 1.82v1.288h.98v-1.288h-.98Zm-1.204 2.394v-3.514h3.472v3.514h-3.472Zm-2.814-2.394v1.288h.938v-1.288h-.938Zm-1.19 2.394v-3.514h3.374v3.514h-3.374Zm1.092.154 1.456.308c-.084.28-.196.56-.308.826.49.322 1.036.714 1.33 1.008l-.84 1.106c-.238-.28-.672-.644-1.106-.966a7.132 7.132 0 0 1-2.002 2.086c-.224-.28-.756-.826-1.078-1.05 1.232-.728 2.128-1.904 2.548-3.318Zm3.864-.014 1.498.21a7.54 7.54 0 0 1-.322 1.134c.784.546 1.694 1.204 2.17 1.68l-.98 1.12c-.392-.42-1.078-.994-1.778-1.512-.42.7-.938 1.288-1.554 1.736-.21-.28-.742-.84-1.064-1.05 1.092-.714 1.764-1.89 2.03-3.318Zm12.39-5.824h5.67s-.014.574-.042.798c-.28 5.572-.56 7.672-1.176 8.4-.42.546-.826.7-1.428.784-.518.07-1.386.07-2.24.028-.028-.504-.252-1.246-.574-1.722.882.07 1.708.07 2.072.07.294 0 .462-.042.658-.224.42-.434.7-2.268.924-6.426h-3.92c-.224 2.898-1.204 6.3-5.138 8.526-.266-.42-.896-1.05-1.302-1.358 3.472-1.89 4.41-4.718 4.648-7.168h-4.214v-1.708h4.284v-2.884h1.778v2.884Z" fill="#231815"/><g clip-path="url(#clip2_799_40177)"><path d="M72.784 335.49c.85 0 2.2 2.79 2.91 3.15.49.25 2.39-.54 2.78-.16.39.38-.17 2.53.08 3.05.35.7 3.14 1.8 3.14 2.64 0 .87-2.86 2.13-3.23 2.85-.26.5.42 2.5.02 2.89-.4.39-2.52-.26-3.05-.01-.68.32-1.77 2.94-2.57 2.94-.8 0-2.04-2.63-2.73-2.96-.52-.25-2.53.46-2.93.07-.4-.39.31-2.39.05-2.9-.36-.71-3.11-1.95-3.11-2.8 0-.85 2.65-1.98 2.98-2.66.26-.53-.42-2.61-.01-3.02.41-.41 2.36.3 2.86.04.71-.36 1.675-3.11 2.525-3.11l.285-.01Z" fill="#00698A" stroke="#231815" stroke-miterlimit="10"/></g><g clip-path="url(#clip3_799_40177)"><path d="M93.345 335.49c.85 0 2.2 2.79 2.91 3.15.49.25 2.39-.54 2.78-.16.39.38-.17 2.53.08 3.05.35.7 3.14 1.8 3.14 2.64 0 .87-2.86 2.13-3.23 2.85-.26.5.42 2.5.02 2.89-.4.39-2.52-.26-3.05-.01-.68.32-1.77 2.94-2.57 2.94-.8 0-2.04-2.63-2.73-2.96-.52-.25-2.53.46-2.93.07-.4-.39.31-2.39.05-2.9-.36-.71-3.11-1.95-3.11-2.8 0-.85 2.65-1.98 2.98-2.66.26-.53-.42-2.61-.01-3.02.41-.41 2.36.3 2.86.04.71-.36 1.97-3.11 2.82-3.11l-.01-.01Z" fill="#00698A" stroke="#231815" stroke-miterlimit="10"/></g><path d="m165.733 346.322 1.484.504c-.574.784-1.4 1.764-2.058 2.338-.28-.266-.896-.714-1.26-.938a9.44 9.44 0 0 0 1.834-1.904Zm4.676.672 1.204-.7c.63.644 1.526 1.554 1.988 2.128l-1.288.784c-.42-.56-1.26-1.526-1.904-2.212Zm.392-3.206v-.518h-3.598v.518h3.598Zm0 1.456v-.532h-3.598v.532h3.598Zm-6.552-6.342v3.108c0 .378-.014.784-.028 1.204a7.623 7.623 0 0 0 1.204-.728c-.266-.224-.56-.462-.826-.644l.84-.742c.266.168.588.392.868.602.21-.21.406-.434.574-.672h-2.142v-1.246h2.884c.112-.294.224-.588.308-.882h-3.682Zm5.292 2.128h-.938c-.266.434-.56.854-.91 1.26h2.702a7.67 7.67 0 0 1-.854-1.26Zm3.08 0h-1.568c.21.28.462.546.742.798.294-.266.616-.574.826-.798Zm.07 0 .91.672c-.294.28-.63.56-.952.798.42.266.868.504 1.33.658a4.81 4.81 0 0 0-.966 1.176 6.639 6.639 0 0 1-.756-.406v2.296h-2.45v1.792c0 .686-.126 1.022-.644 1.246-.476.21-1.106.21-1.946.21-.098-.42-.336-.966-.518-1.33.518.014 1.092.014 1.274.014.168 0 .224-.056.224-.196v-1.736h-2.38v-2.31c-.266.182-.546.35-.84.504a3.555 3.555 0 0 0-.77-.91c-.14 2.03-.63 4.396-2.044 5.95-.21-.308-.84-.91-1.148-1.106.924-1.022 1.344-2.324 1.54-3.626-.504.308-.994.602-1.484.868l-.462-1.498c.546-.224 1.302-.602 2.1-1.008.014-.364.014-.728.014-1.078v-.476l-1.232.56c-.14-.714-.476-1.918-.77-2.814l1.232-.49c.266.784.588 1.792.77 2.478v-3.766h4.648l-.28-.84 1.694-.336c.14.364.28.784.406 1.176h4.578v1.4h-5.264l.98.126c-.084.266-.182.504-.28.756h4.438v1.246h-.952Zm7.728 8.162-1.26-.7c.49-.504.952-1.316 1.204-2.002l1.246.546c-.294.714-.686 1.596-1.19 2.156Zm4.368-4.522v-2.716h1.176v2.716h-1.176Zm3.346-2.856v3.136c0 .588-.084.854-.49 1.036-.392.182-.91.182-1.638.182-.056-.336-.238-.77-.406-1.078.448.014.882.014 1.036 0 .14-.014.182-.042.182-.168v-3.108h1.316Zm-4.746 4.606 1.05-.658c.434.364 1.05.924 1.344 1.288l-1.078.728c-.28-.392-.854-.952-1.316-1.358Zm-1.764-2.24h1.4v-.392h-1.386c0 .126 0 .266-.014.392Zm1.4-1.442h-1.386v.35h1.386v-.35Zm1.19-.812v3.234c0 .476-.084.658-.406.798-.28.14-.728.14-1.316.14-.028-.266-.168-.574-.28-.812.28.014.574.014.672.014.098 0 .14-.028.14-.14v-.28h-1.484c-.112.504-.322.966-.742 1.33-.196-.224-.714-.63-.98-.784.602-.462.644-1.078.644-1.68v-1.82h3.752Zm-.476 6.272h1.54c.364 0 .448-.112.49-.84.266.182.798.336 1.148.406-.14 1.19-.49 1.498-1.498 1.498h-1.862c-1.414 0-1.75-.322-1.75-1.4v-1.33h1.358v1.316c0 .322.084.35.574.35Zm2.674-1.26 1.19-.532c.518.658 1.134 1.554 1.414 2.156l-1.26.588c-.238-.574-.826-1.526-1.344-2.212Zm-3.024-6.272h2.142a18.048 18.048 0 0 1-1.148-.588c-.322.21-.644.406-.994.588Zm-3.64-1.708v1.694c1.47-.364 3.108-.938 4.158-1.694h-4.158Zm5.698.28-.14.14a17.324 17.324 0 0 0 3.962 1.19c-.308.28-.686.742-.868 1.134a20.442 20.442 0 0 1-2.212-.742v.602h-3.668v-.476c-.686.28-1.4.546-2.086.742a4.917 4.917 0 0 0-.686-.924v1.162c0 2.226-.294 5.488-2.086 7.434-.21-.308-.84-.896-1.148-1.092.924-1.022 1.344-2.338 1.54-3.654-.504.308-.994.616-1.484.896l-.462-1.498c.546-.238 1.302-.616 2.1-1.008.014-.378.014-.742.014-1.078v-.49l-1.232.574c-.07-.742-.392-1.918-.756-2.814l1.19-.504c.35.784.672 1.764.798 2.45v-3.724h4.83a11.057 11.057 0 0 0-.294-.952l1.68-.322c.154.392.322.854.448 1.274h4.242v1.4h-4.256l.574.28Zm12.81.056h5.67s-.014.574-.042.798c-.28 5.572-.56 7.672-1.176 8.4-.42.546-.826.7-1.428.784-.518.07-1.386.07-2.24.028-.028-.504-.252-1.246-.574-1.722.882.07 1.708.07 2.072.07.294 0 .462-.042.658-.224.42-.434.7-2.268.924-6.426h-3.92c-.224 2.898-1.204 6.3-5.138 8.526-.266-.42-.896-1.05-1.302-1.358 3.472-1.89 4.41-4.718 4.648-7.168h-4.214v-1.708h4.284v-2.884h1.778v2.884Z" fill="#231815"/><g clip-path="url(#clip4_799_40177)"><path d="M219.405 335.49c-1.34 0-2.54.55-3.41 1.44a4.741 4.741 0 0 0-3.41-1.44c-2.64 0-4.77 2.13-4.77 4.77 0 4.79 8.18 10.62 8.18 10.62s8.18-5.83 8.18-10.62a4.77 4.77 0 0 0-4.77-4.77Z" fill="#FF002A" stroke="#231815" stroke-miterlimit="10"/></g><g clip-path="url(#clip5_799_40177)"><path d="M238.755 335.49c-1.34 0-2.54.55-3.41 1.44a4.741 4.741 0 0 0-3.41-1.44c-2.64 0-4.77 2.13-4.77 4.77 0 4.79 8.18 10.62 8.18 10.62s8.18-5.83 8.18-10.62a4.77 4.77 0 0 0-4.77-4.77Z" fill="#FF002A" stroke="#231815" stroke-miterlimit="10"/></g><g clip-path="url(#clip6_799_40177)"><path d="M258.105 335.49c-1.34 0-2.54.55-3.41 1.44a4.741 4.741 0 0 0-3.41-1.44c-2.64 0-4.77 2.13-4.77 4.77 0 4.79 8.18 10.62 8.18 10.62s8.18-5.83 8.18-10.62a4.77 4.77 0 0 0-4.77-4.77Z" fill="#FF002A" stroke="#231815" stroke-miterlimit="10"/></g><path d="M15.5 368.35a4.5 4.5 0 0 1 4.5-4.5h44.5v33H20a4.5 4.5 0 0 1-4.5-4.5v-24Z" fill="#00698A"/><path d="M33.778 377.916v-.798H31.86v.798h1.918Zm0 2.212v-.868H31.86v.868h1.918Zm0 2.226v-.882H31.86v.882h1.918Zm-3.528 1.988v-5.81c-.238.28-.476.518-.714.756-.154-.336-.616-1.162-.896-1.526 1.12-1.008 2.128-2.604 2.688-4.242l1.512.42c-.21.602-.476 1.19-.756 1.778h2.086a13.32 13.32 0 0 0-.658-1.512l1.568-.448c.35.602.714 1.372.896 1.96h2.212v1.4H35.36v.798h2.254v1.344H35.36v.868h2.198v1.344H35.36v.882h2.982v1.4H31.86v.588h-1.61Zm-1.68-8.526-1.526.532c-.154-.63-.518-1.652-.756-2.408l1.47-.448c.266.756.616 1.694.812 2.324Zm.126 3.962.714.252c-.252 1.274-.63 2.59-1.106 3.64.224.14.49.336.868.56.952.574 2.268.658 3.906.658 1.61 0 4.116-.14 5.656-.364-.182.448-.462 1.26-.476 1.708-1.162.07-3.626.168-5.264.168-1.862 0-3.038-.154-4.046-.742-.588-.322-1.078-.784-1.372-.784-.322 0-.812.952-1.162 1.75l-1.106-1.582c.476-.588.994-1.05 1.47-1.33.308-.7.588-1.582.798-2.436h-1.764c.322-.826.7-1.946 1.008-3.038h-1.26v-1.484h3.276c-.294.98-.63 2.1-.952 3.08h.56l.252-.056Zm15.652-6.23 1.554.518a21.66 21.66 0 0 1-1.358 2.66v9.842h-1.582v-7.546c-.448.56-.882 1.05-1.344 1.484-.154-.406-.616-1.316-.882-1.736 1.428-1.232 2.814-3.22 3.612-5.222Zm5.026 11.228h2.044c.714 0 .826-.588.952-2.898.378.294 1.036.616 1.47.7-.182 2.702-.602 3.668-2.296 3.668h-2.338c-1.722 0-2.212-.56-2.212-2.464v-10.024h1.61v3.556h4.872v1.596h-4.872v4.9c0 .826.098.966.77.966Z" fill="#fff"/><path d="M15.5 368.35a4.5 4.5 0 0 1 4.5-4.5h44.5v33H20a4.5 4.5 0 0 1-4.5-4.5v-24Z" stroke="#231815"/><path d="M64.5 363.85H260a4.5 4.5 0 0 1 4.5 4.5v24a4.5 4.5 0 0 1-4.5 4.5H64.5v-33Z" fill="#fff"/><path d="m77.304 373.52 1.568.644c-.91 1.288-2.324 2.66-3.626 3.5a9.764 9.764 0 0 0-.826-1.414c1.106-.658 2.31-1.806 2.884-2.73Zm.35 3.052 1.442.616a16.164 16.164 0 0 1-1.162 1.722v7.644h-1.596v-5.81a15.45 15.45 0 0 1-1.274 1.148c-.112-.378-.532-1.316-.77-1.722 1.218-.868 2.576-2.24 3.36-3.598Zm1.61 6.244 1.372-.714c.588.686 1.386 1.666 1.764 2.282l-1.47.826c-.336-.644-1.092-1.666-1.666-2.394Zm6.482-3.178v.798h1.708v1.512h-1.708v2.884c0 .826-.154 1.232-.742 1.47-.574.238-1.386.266-2.464.252-.07-.462-.308-1.106-.518-1.554.7.042 1.498.042 1.722.028.238 0 .294-.056.294-.238v-2.842h-5.586v-1.512h5.586v-.798h1.708Zm-1.974-4.536h3.738v1.526h-3.738v1.134h3.122v1.512h-7.882v-1.512h3.052v-1.134h-3.528v-1.526h3.528v-1.54h1.708v1.54Zm16.142 4.816v.588l.896-.014a9.752 9.752 0 0 0-.336-.392l.392-.182h-.952Zm-2.548-.896H98.5v-.56h-1.134v.56Zm0-1.96v.546H98.5v-.546h-1.134Zm3.738 0h-1.19v.546h1.19v-.546Zm0 1.96v-.56h-1.19v.56h1.19Zm-5.32 2.744-.084-1.19c.77 0 1.736-.014 2.8-.042v-.616h-2.436v-3.752H98.5v-.518h-2.674v-1.218H98.5v-.924h1.414v.924h2.814v1.218h-2.814v.518h2.562v3.752h-.588c.462.532.882 1.148 1.12 1.61l-1.162.574c-.07-.14-.154-.308-.266-.49-2.1.07-4.256.126-5.796.154Zm4.032 3.318v-1.54h-2.1c.434.434.826.966 1.022 1.358l-.574.364c.56.028 1.204.028 1.386.028.196-.014.266-.056.266-.21Zm-8.33-4.998v.826h.798v-.826h-.798Zm0-1.918v.826h.798v-.826h-.798Zm2.73.826v-.826h-.854v.826h.854Zm0 1.918v-.826h-.854v.826h.854Zm7.112.868v.546h1.596v1.218h-1.596v1.582c0 .714-.112 1.064-.644 1.274-.518.196-1.19.21-2.17.21-.042-.406-.238-.924-.406-1.302l-.56.35c-.224-.49-.7-1.204-1.204-1.708l.686-.406h-1.316v.812h-2.156v2.212h-1.47v-2.212h-2.254V382.9h2.254v-.84h-1.792v-5.054h1.792v-.728H90.03v-1.442h2.058v-1.33h1.47v1.33h1.988v1.442h-1.988v.728h1.862v5.054h-1.862v.84h2.156v-.574h4.102v-.546h1.512Zm17.024-5.488-1.386.532c-.126-.63-.546-1.666-.98-2.422l1.302-.476c.462.742.91 1.708 1.064 2.366Zm-7.182-.728v-.84h-.77v.84h.77Zm1.246-1.792v2.716h-3.178v-2.716h3.178Zm-5.11 5.656v.602h1.036v-.602h-1.036Zm0-1.512v.588h1.036v-.588h-1.036Zm3.458.588v-.588h-1.078v.588h1.078Zm0 1.526v-.602h-1.078v.602h1.078Zm-4.928.98v-4.074h6.454v4.074h-6.454Zm1.75-5.446v-.84h-.714v.84h.714Zm1.19-1.792v2.716h-3.066v-2.716h3.066Zm4.116 7.644v1.176h-7.63v-1.176h7.63Zm-5.292 3.486h2.94v-.77h-2.94v.77Zm10.668-6.132h-2.198c.364 2.688 1.05 5.152 2.45 6.454-.378.294-.91.924-1.162 1.372-.994-1.05-1.624-2.548-2.058-4.34-.42 1.54-1.148 3.066-2.352 4.312a7.367 7.367 0 0 0-.812-.812v.616h-1.596v-.322h-2.94v.504h-1.512v-3.542h6.048v1.96c1.61-1.82 2.002-4.214 2.1-6.202H112.5v-1.54h1.764v-3.724h1.624v3.724h2.38v1.54Z" fill="#231815"/><path d="M64.5 363.85H260a4.5 4.5 0 0 1 4.5 4.5v24a4.5 4.5 0 0 1-4.5 4.5H64.5v-33Z" stroke="#231815"/><path d="M15.5 412.35a4.5 4.5 0 0 1 4.5-4.5h44.5v33H20a4.5 4.5 0 0 1-4.5-4.5v-24Z" fill="#00698A"/><path d="M33.918 420.978v2.002h-1.526v-2.002h1.526Zm1.512 7.644h-.462c.21.252.406.504.546.77h.308c.14 0 .238-.028.322-.154.154-.196.266-.896.35-2.772h-3.472v.392h2.408v1.764Zm-2.408.406.896-.042a3.952 3.952 0 0 0-.196-.252l.28-.112h-.98v.406Zm1.148-1.064v-.448h-1.148v.448h1.148Zm-3.724 0h1.176v-.448h-1.176v.448Zm1.176-1.498h-1.134c-.14.14-.28.266-.434.392h1.568v-.392Zm-3.374-5.684v1.372c0 1.302-.056 2.954-.308 4.564.868-.476 1.54-1.036 2.002-1.596h-1.148v-1.96h.28l-.238-.826c.588-.098 1.386-.224 2.24-.392a15.106 15.106 0 0 0-1.96-.406l.238-.728c.84.098 1.792.266 2.38.462l-.238.602.532-.098.014.826c-.896.21-1.82.42-2.59.56h7.266c-.658-.196-1.568-.378-2.408-.49l.238-.714.294.014-.322-.658c.504-.084 1.246-.336 1.806-.532h-8.078Zm7.896-1.722h-7.896v.658h7.896v-.658Zm-.042 5.39v-.616h-1.19v.616h1.19Zm-2.45 0v-.616H32.49v.616h1.162Zm-2.422 0v-.616h-1.134v.616h1.134Zm.112 1.092h6.678s0 .35-.014.518c-.112 2.604-.252 3.598-.56 3.976-.224.294-.504.392-.812.434-.294.056-.77.056-1.26.042a2.693 2.693 0 0 0-.098-.532l-.602.252a3.58 3.58 0 0 0-.154-.336c-2.156.154-4.382.294-5.992.392l-.098-1.078c.868-.028 1.974-.084 3.192-.14v-.448h-2.366v-1.176a12.67 12.67 0 0 1-.56.364c-.182-.252-.518-.56-.798-.77-.224 1.274-.546 2.492-1.078 3.486-.308-.252-1.022-.658-1.442-.812 1.162-2.156 1.26-5.334 1.26-7.56v-4.144h11.13v2.772h-.966l.364.644c-.686.266-1.624.448-2.282.56.854.098 1.778.28 2.324.448l-.266.728h.532v1.96H31.65c-.098.14-.196.28-.308.42Zm19.222 2.996h3.304v1.582H45.16v-1.582h3.738v-2.8h-2.702v-1.554h2.702v-2.296h-1.54c-.21.728-.49 1.4-.784 1.932a14.722 14.722 0 0 0-1.484-.756c.14-.252.28-.518.42-.812l-.798.364c-.084-.42-.294-1.036-.532-1.61v9.562h-1.666v-10.01c-.084 1.176-.308 2.716-.63 3.71l-1.232-.448c.336-.924.588-2.492.686-3.64l1.176.168v-2.856h1.666v2.646l.812-.336c.28.546.574 1.218.77 1.764.35-1.022.602-2.226.742-3.416l1.624.224c-.098.658-.21 1.316-.35 1.946h1.12v-2.744h1.666v2.744h2.856v1.568h-2.856v2.296h2.562v1.554h-2.562v2.8Z" fill="#fff"/><path d="M15.5 412.35a4.5 4.5 0 0 1 4.5-4.5h44.5v33H20a4.5 4.5 0 0 1-4.5-4.5v-24Z" stroke="#231815"/><path d="M64.5 407.85H260a4.5 4.5 0 0 1 4.5 4.5v24a4.5 4.5 0 0 1-4.5 4.5H64.5v-33Z" fill="#fff"/><path d="M84.864 424.1v-2.492h-2.1v2.492h2.1Zm-2.1 4.13h2.1v-2.562h-2.1v2.562Zm-4.214-.098v-1.918h-2.142v1.918h2.142Zm8.988-8.134v1.61h-.98v8.904h-1.694v-.7h-2.1v.756h-1.652v-8.96h-.742v1.372h-2.072v1.75h1.82v5.334H78.55v-.448h-2.142v.784h-1.484v-5.67h1.68v-1.75h-2.156v-1.554h2.156v-2.1H74.7v-1.554h5.362v1.554h-1.764v2.1h1.75v-1.428h1.064v-2.45h1.652v2.45h2.1v-2.45h1.694v2.45h.98Zm12.376 3.92v.588l.896-.014a9.752 9.752 0 0 0-.336-.392l.392-.182h-.952Zm-2.548-.896H98.5v-.56h-1.134v.56Zm0-1.96v.546H98.5v-.546h-1.134Zm3.738 0h-1.19v.546h1.19v-.546Zm0 1.96v-.56h-1.19v.56h1.19Zm-5.32 2.744-.084-1.19c.77 0 1.736-.014 2.8-.042v-.616h-2.436v-3.752H98.5v-.518h-2.674v-1.218H98.5v-.924h1.414v.924h2.814v1.218h-2.814v.518h2.562v3.752h-.588c.462.532.882 1.148 1.12 1.61l-1.162.574c-.07-.14-.154-.308-.266-.49-2.1.07-4.256.126-5.796.154Zm4.032 3.318v-1.54h-2.1c.434.434.826.966 1.022 1.358l-.574.364c.56.028 1.204.028 1.386.028.196-.014.266-.056.266-.21Zm-8.33-4.998v.826h.798v-.826h-.798Zm0-1.918v.826h.798v-.826h-.798Zm2.73.826v-.826h-.854v.826h.854Zm0 1.918v-.826h-.854v.826h.854Zm7.112.868v.546h1.596v1.218h-1.596v1.582c0 .714-.112 1.064-.644 1.274-.518.196-1.19.21-2.17.21-.042-.406-.238-.924-.406-1.302l-.56.35c-.224-.49-.7-1.204-1.204-1.708l.686-.406h-1.316v.812h-2.156v2.212h-1.47v-2.212h-2.254V426.9h2.254v-.84h-1.792v-5.054h1.792v-.728H90.03v-1.442h2.058v-1.33h1.47v1.33h1.988v1.442h-1.988v.728h1.862v5.054h-1.862v.84h2.156v-.574h4.102v-.546h1.512Zm13.986-1.862v.588l.896-.014a9.752 9.752 0 0 0-.336-.392l.392-.182h-.952Zm-2.548-.896h1.134v-.56h-1.134v.56Zm0-1.96v.546h1.134v-.546h-1.134Zm3.738 0h-1.19v.546h1.19v-.546Zm0 1.96v-.56h-1.19v.56h1.19Zm-5.32 2.744-.084-1.19c.77 0 1.736-.014 2.8-.042v-.616h-2.436v-3.752h2.436v-.518h-2.674v-1.218h2.674v-.924h1.414v.924h2.814v1.218h-2.814v.518h2.562v3.752h-.588c.462.532.882 1.148 1.12 1.61l-1.162.574a6.108 6.108 0 0 0-.266-.49c-2.1.07-4.256.126-5.796.154Zm4.032 3.318v-1.54h-2.1c.434.434.826.966 1.022 1.358l-.574.364c.56.028 1.204.028 1.386.028.196-.014.266-.056.266-.21Zm-8.33-4.998v.826h.798v-.826h-.798Zm0-1.918v.826h.798v-.826h-.798Zm2.73.826v-.826h-.854v.826h.854Zm0 1.918v-.826h-.854v.826h.854Zm7.112.868v.546h1.596v1.218h-1.596v1.582c0 .714-.112 1.064-.644 1.274-.518.196-1.19.21-2.17.21-.042-.406-.238-.924-.406-1.302l-.56.35c-.224-.49-.7-1.204-1.204-1.708l.686-.406h-1.316v.812h-2.156v2.212h-1.47v-2.212h-2.254V426.9h2.254v-.84h-1.792v-5.054h1.792v-.728h-2.058v-1.442h2.058v-1.33h1.47v1.33h1.988v1.442h-1.988v.728h1.862v5.054h-1.862v.84h2.156v-.574h4.102v-.546h1.512Z" fill="#231815"/><path d="M64.5 407.85H260a4.5 4.5 0 0 1 4.5 4.5v24a4.5 4.5 0 0 1-4.5 4.5H64.5v-33Z" stroke="#231815"/><path d="M15.5 456.35a4.5 4.5 0 0 1 4.5-4.5h44.5v33H20a4.5 4.5 0 0 1-4.5-4.5v-24Z" fill="#00698A"/><path d="m30.138 467.442.21 1.526c-.49.14-.994.28-1.498.406v3.346c0 .812-.154 1.204-.63 1.47-.462.252-1.134.294-2.114.294a7.24 7.24 0 0 0-.476-1.512c.546.014 1.12.014 1.302.014.21 0 .266-.07.266-.28v-2.884l-1.358.336-.434-1.582c.518-.098 1.12-.238 1.792-.406v-2.478h-1.61v-1.54h1.61v-2.66h1.652v2.66h1.372v1.54H28.85v2.072l1.288-.322Zm5.852.756h-3.402a8.001 8.001 0 0 0 1.652 2.478 7.802 7.802 0 0 0 1.75-2.478Zm1.05-1.568 1.064.448c-.532 1.946-1.428 3.472-2.604 4.648.91.644 1.988 1.106 3.234 1.414-.35.336-.826 1.008-1.064 1.442-1.358-.406-2.52-.98-3.486-1.764-1.092.756-2.324 1.316-3.682 1.722-.182-.448-.588-1.148-.896-1.512 1.232-.294 2.366-.742 3.346-1.372-.826-.938-1.484-2.044-1.988-3.332l.42-.126h-.728V466.7h2.758v-1.68h-3.01v-1.54h3.01v-2.002h1.652v2.002h3.136v1.54h-3.136v1.68h1.68l.294-.07Zm15.274 1.036h-2.128c-1.68 0-2.128-.616-2.128-2.17v-3.976h1.652v1.652h3.444v1.428H49.71v.924c0 .518.084.714.532.714h2.044c.392 0 .98-.042 1.288-.112.028.434.098 1.036.154 1.414-.294.098-.882.126-1.414.126Zm-9.044 1.498v.504c0 .532-.028 1.162-.098 1.792.63-.28 1.456-.7 2.296-1.148v-.462l-.672.658c-.35-.364-.994-.91-1.526-1.344Zm2.198-1.26H43.27v.994l.7-.602c.476.336 1.078.826 1.498 1.19v-1.582Zm1.568-1.4v6.524c0 .686-.126 1.036-.588 1.26-.448.21-1.078.238-1.932.238-.07-.392-.294-.938-.504-1.302.504.028 1.05.028 1.218.028.182 0 .238-.056.238-.238v-1.428c-.7.504-1.4.98-2.03 1.386l-.35-.98c-.154.952-.462 1.904-.994 2.632-.238-.322-.868-.924-1.162-1.12.742-1.092.798-2.632.798-3.85v-3.15h5.306Zm-2.128-3.486 1.344-.49c.588 1.008 1.33 2.38 1.666 3.22l-1.456.588c-.084-.252-.21-.546-.35-.882-3.542.35-4.116.434-4.522.602a17.634 17.634 0 0 0-.518-1.498c.252-.056.49-.252.77-.56.28-.308 1.134-1.386 1.652-2.492l1.68.476c-.476.812-1.106 1.624-1.722 2.324l2.044-.154c-.21-.406-.406-.798-.588-1.134Zm5.446 9.996h1.596c.476 0 .574-.238.644-1.526.336.252 1.008.504 1.442.602-.168 1.834-.602 2.38-1.932 2.38h-1.988c-1.652 0-2.058-.49-2.058-2.016v-4.396h1.652v1.4h3.542v1.47H49.71v1.526c0 .49.098.56.644.56Z" fill="#fff"/><path d="M15.5 456.35a4.5 4.5 0 0 1 4.5-4.5h44.5v33H20a4.5 4.5 0 0 1-4.5-4.5v-24Z" stroke="#231815"/><path d="M64.5 451.85H260a4.5 4.5 0 0 1 4.5 4.5v24a4.5 4.5 0 0 1-4.5 4.5H64.5v-33Z" fill="#fff"/><path d="M84.864 468.1v-2.492h-2.1v2.492h2.1Zm-2.1 4.13h2.1v-2.562h-2.1v2.562Zm-4.214-.098v-1.918h-2.142v1.918h2.142Zm8.988-8.134v1.61h-.98v8.904h-1.694v-.7h-2.1v.756h-1.652v-8.96h-.742v1.372h-2.072v1.75h1.82v5.334H78.55v-.448h-2.142v.784h-1.484v-5.67h1.68v-1.75h-2.156v-1.554h2.156v-2.1H74.7v-1.554h5.362v1.554h-1.764v2.1h1.75v-1.428h1.064v-2.45h1.652v2.45h2.1v-2.45h1.694v2.45h.98Zm4.144 3.066-1.12-.826c.504-.336.98-.938 1.302-1.456h-1.47v-2.352h5.236a8.105 8.105 0 0 0-.322-.7l1.582-.322c.182.308.392.7.532 1.022h4.97v2.352h-1.554v-1.05h-4.606c.42.238.84.49 1.106.714l-.896.868c-.406-.378-1.204-.882-1.834-1.176l.476-.406h-3.192v1.008l.07-.112 1.162.588c-.378.63-.854 1.358-1.442 1.848Zm7.406-1.694 1.148-.672c.812.532 1.764 1.344 2.226 1.96l-1.218.728c-.42-.588-1.344-1.442-2.156-2.016Zm-.826 2.436H95.63c-.588 0-1.036-.042-1.358-.14a25.71 25.71 0 0 1-3.066.91 6.602 6.602 0 0 0-.868-1.162 22.772 22.772 0 0 0 3.136-.756c-.014-.126-.014-.266-.014-.406v-1.722h1.414v1.61c1.526-.602 2.856-1.414 3.724-2.394l1.232.574c-.826.938-1.96 1.708-3.206 2.352h1.484c.532 0 .644-.112.7-.728.28.168.84.336 1.232.406-.168 1.162-.588 1.456-1.778 1.456Zm-1.064 4.872 1.946-.07c-.182-.154-.378-.294-.56-.434l.602-.35h-1.988v.854Zm-3.878-2.058h2.226v-.826H93.32v.826Zm6.272-.826h-2.394v.826h2.394v-.826Zm1.736 2.03h-.952c.84.644 1.75 1.442 2.254 1.96l-1.302.854c-.196-.21-.448-.476-.728-.742-3.598.154-7.392.28-9.912.364l-.14-1.414c1.344-.028 3.094-.07 4.998-.126v-.896h-3.864v-3.248h3.864v-.588h1.652v.588h4.13v3.248Zm5.754-4.76-1.12-.826c.504-.336.98-.938 1.302-1.456h-1.47v-2.352h5.236a8.105 8.105 0 0 0-.322-.7l1.582-.322c.182.308.392.7.532 1.022h4.97v2.352h-1.554v-1.05h-4.606c.42.238.84.49 1.106.714l-.896.868c-.406-.378-1.204-.882-1.834-1.176l.476-.406h-3.192v1.008l.07-.112 1.162.588c-.378.63-.854 1.358-1.442 1.848Zm7.406-1.694 1.148-.672c.812.532 1.764 1.344 2.226 1.96l-1.218.728c-.42-.588-1.344-1.442-2.156-2.016Zm-.826 2.436h-2.632c-.588 0-1.036-.042-1.358-.14a25.71 25.71 0 0 1-3.066.91 6.602 6.602 0 0 0-.868-1.162 22.772 22.772 0 0 0 3.136-.756c-.014-.126-.014-.266-.014-.406v-1.722h1.414v1.61c1.526-.602 2.856-1.414 3.724-2.394l1.232.574c-.826.938-1.96 1.708-3.206 2.352h1.484c.532 0 .644-.112.7-.728.28.168.84.336 1.232.406-.168 1.162-.588 1.456-1.778 1.456Zm-1.064 4.872 1.946-.07c-.182-.154-.378-.294-.56-.434l.602-.35h-1.988v.854Zm-3.878-2.058h2.226v-.826h-2.226v.826Zm6.272-.826h-2.394v.826h2.394v-.826Zm1.736 2.03h-.952c.84.644 1.75 1.442 2.254 1.96l-1.302.854c-.196-.21-.448-.476-.728-.742-3.598.154-7.392.28-9.912.364l-.14-1.414c1.344-.028 3.094-.07 4.998-.126v-.896h-3.864v-3.248h3.864v-.588h1.652v.588h4.13v3.248Zm7.434-8.666-1.05 1.232c-.406-.434-1.316-1.078-1.974-1.526l.98-1.106c.658.406 1.596.98 2.044 1.4Zm-.476 3.64-.994 1.274c-.448-.434-1.428-1.064-2.142-1.498l.938-1.134c.714.378 1.708.966 2.198 1.358Zm-1.022 2.044 1.288.868a68.737 68.737 0 0 1-1.652 4.354l-1.428-.84a39.442 39.442 0 0 0 1.792-4.382Zm8.974 1.582v2.506c.224.042.462.056.7.056.266 0 1.204 0 1.582-.014-.182.322-.336.98-.392 1.358h-1.288c-1.232 0-2.24-.336-2.968-1.708-.182.77-.476 1.442-.882 2.002-.21-.364-.644-.882-.98-1.106.882-1.176 1.022-3.164 1.064-5.334h1.274a37.847 37.847 0 0 1-.112 2.268c.168.7.392 1.218.658 1.596v-4.914h-1.708v-.77a9.053 9.053 0 0 0-.966-.616c.112-.154.21-.336.308-.518h-1.89l-.042 1.414h1.876s-.014.406-.028.602c-.126 4.424-.238 6.118-.602 6.58-.224.35-.434.476-.77.546-.252.056-.644.056-1.064.056-.014-.434-.126-1.008-.322-1.386.294.042.518.042.686.042.154 0 .252-.042.364-.224.182-.28.28-1.498.392-4.858h-.616c-.196 2.478-.644 4.872-1.75 6.566-.238-.35-.686-.77-1.078-.966 1.358-2.016 1.526-5.404 1.582-8.372h-.882v-1.386h1.792c-.168-.546-.504-1.274-.826-1.82l1.302-.434c.392.588.784 1.386.938 1.904l-.882.35h2.002v1.022c.448-.966.742-2.17.924-3.374l1.498.252a14.364 14.364 0 0 1-.336 1.54h3.402v1.358h-3.808c-.154.434-.322.84-.49 1.204h3.29l.21-.042.924.182c-.112.882-.28 1.904-.448 2.576l-1.12-.252c.042-.322.098-.728.14-1.176h-.658v2.016h1.89v1.274h-1.89Zm8.498-7.532-.994 1.372c-.49-.476-1.554-1.12-2.394-1.47l.924-1.26c.826.322 1.918.896 2.464 1.358Zm-.756 3.668-.952 1.4c-.518-.462-1.568-1.05-2.394-1.4l.896-1.26c.826.294 1.918.826 2.45 1.26Zm-1.512 7.84-1.498-.98c.658-1.078 1.582-2.856 2.31-4.494l1.302.994a55.149 55.149 0 0 1-2.114 4.48Zm7.14-4.27h-1.33v1.036h1.33v-1.036Zm1.316 2.226h-2.646v.63h-1.302v-4.06h3.948v3.43Zm-3.626-8.96v3.458h.882v-2.52h2.492v-.938h-3.374Zm3.374 3.458v-1.302h-1.176v1.302h1.176Zm2.604 0v6.034c0 .784-.154 1.19-.686 1.414-.532.238-1.288.266-2.352.266a4.667 4.667 0 0 0-.49-1.47c.672.028 1.442.014 1.652.014.21 0 .294-.056.294-.238v-4.634h-5.446v6.328h-1.568v-7.714h1.134v-4.844h6.412v4.844h1.05Z" fill="#231815"/><path d="M64.5 451.85H260a4.5 4.5 0 0 1 4.5 4.5v24a4.5 4.5 0 0 1-4.5 4.5H64.5v-33Z" stroke="#231815"/><rect x=".5" y=".5" width="279" height="504.35" rx="4.5" stroke="#231815"/><defs><clipPath id="clip0_799_40177"><path fill="#fff" transform="translate(79.27)" d="M0 0h121.46v30.99H0z"/></clipPath><clipPath id="clip1_799_40177"><path fill="#fff" transform="translate(33 114.99)" d="M0 0h213.089v180H0z"/></clipPath><clipPath id="clip2_799_40177"><path fill="#fff" transform="translate(63.635 334.99)" d="M0 0h18.56v18.36H0z"/></clipPath><clipPath id="clip3_799_40177"><path fill="#fff" transform="translate(84.195 334.99)" d="M0 0h18.56v18.36H0z"/></clipPath><clipPath id="clip4_799_40177"><path fill="#fff" transform="translate(207.315 334.99)" d="M0 0h17.35v16.5H0z"/></clipPath><clipPath id="clip5_799_40177"><path fill="#fff" transform="translate(226.665 334.99)" d="M0 0h17.35v16.5H0z"/></clipPath><clipPath id="clip6_799_40177"><path fill="#fff" transform="translate(246.015 334.99)" d="M0 0h17.35v16.5H0z"/></clipPath></defs></svg>