<svg fill="none" xmlns="http://www.w3.org/2000/svg" viewBox="0 0 280 506"><rect x=".5" y=".5" width="279" height="504.35" rx="4.5" fill="#E68169"/><g clip-path="url(#clip0_799_41928)" stroke="#231815" stroke-miterlimit="10"><path d="M84.32 27.21c.34 1.64 1.95 2.83 3.83 2.84l103.68.44c1.88 0 3.5-1.17 3.85-2.81l4.41-20.48c.67-3.11-1.07-6.21-3.48-6.22L83.06.5C80.7.49 79.29 2.97 79.92 6l4.4 21.2v.01Z" fill="#00698A"/><path d="M116.479 17.4c.14 1.03.82 1.78 1.61 1.79l43.77.23c.79 0 1.48-.74 1.63-1.77l1.87-12.91c.28-1.96-.45-3.91-1.47-3.92l-47.94-.25c-.99 0-1.59 1.56-1.33 3.47l1.85 13.36h.01Zm69.191-7.19c0-1.42 1.16-2.56 2.58-2.55 1.42 0 2.56 1.16 2.55 2.58 0 1.42-1.16 2.56-2.57 2.55-1.42 0-2.56-1.16-2.55-2.58h-.01Zm-10.74-.02c0-1.42 1.16-2.56 2.58-2.55 1.42 0 2.56 1.16 2.55 2.58 0 1.42-1.16 2.56-2.58 2.55-1.42 0-2.56-1.16-2.55-2.58Zm-80.59-.28c0-1.42-1.15-2.57-2.56-2.57-1.42 0-2.57 1.15-2.57 2.56 0 1.42 1.15 2.57 2.56 2.57 1.42 0 2.57-1.15 2.57-2.56Zm10.729.02c0-1.42-1.15-2.57-2.56-2.57-1.42 0-2.57 1.15-2.57 2.56 0 1.42 1.15 2.57 2.56 2.57 1.42 0 2.57-1.15 2.57-2.56Z" fill="#FFE177"/></g><path d="M117.584 57.454v-2.568h-.456v2.568h.456Zm4.032-11.784h1.32c-.24-.816-.768-1.992-1.344-2.832 0 .936.024 1.896.024 2.832Zm-13.368 14.4h1.824v-2.184l-1.104.96c-.312-.6-.768-1.296-1.296-2.04-.648.984-1.344 1.896-2.04 2.64a14.511 14.511 0 0 0-.576-.552v1.176h2.328a10.52 10.52 0 0 0-.888-1.392l1.2-1.056c.48.576.984 1.32 1.248 1.824l-.696.624Zm-3.192-3.6v.816a14.61 14.61 0 0 0 1.488-2.016 37.05 37.05 0 0 0-1.488-1.8v.672c.408.432.792.936 1.032 1.272l-1.032 1.056Zm1.536-6.216h-1.536v2.112l.696-.576a32.267 32.267 0 0 1 1.704 1.872c.48-.888.888-1.848 1.224-2.784l1.392.384v-1.008h-2.856c.432.408.84.864 1.08 1.2l-1.128 1.344c-.264-.456-.84-1.152-1.344-1.632l.768-.912Zm3.48 3.552V52.27a28.983 28.983 0 0 1-1.392 2.88 39.65 39.65 0 0 1 1.392 2.016v-1.2c-.288-.384-.648-.84-.96-1.176l.96-.984Zm12.696-4.056 2.52.36c-.6 3.384-1.512 6.336-2.808 8.784.192 1.248.408 1.968.624 1.968.24 0 .408-.96.504-2.592.408.624 1.44 1.416 1.848 1.704-.6 3.552-1.728 4.272-2.472 4.272-.984 0-1.728-.936-2.28-2.64a14.077 14.077 0 0 1-2.616 2.592c-.384-.456-1.44-1.368-2.016-1.752a12.107 12.107 0 0 0 3-2.856h-1.944v1.296h-1.512v-8.112h3.504v6.768c.288-.408.576-.816.84-1.248-.432-2.592-.672-5.928-.792-9.72h-3.744v4.656c0 3.264-.216 7.944-1.608 10.944-.288-.264-.84-.6-1.344-.888v.24h-2.4v-.792h-5.016v1.44h-2.304V47.59h3.264v-6.144h2.976v1.92h3.552v2.664h-3.552v1.56h3.48v12.792c.504-2.352.552-5.04.552-7.152v-7.56h6.048L119 41.446h2.592v1.32l2.088-1.032c.672.864 1.272 2.064 1.512 2.904l-1.968 1.032h1.752v2.904h-3.264c.048 1.776.144 3.456.24 4.968.336-1.176.6-2.448.816-3.792Zm-3.816-.24v2.208h-3.144V49.51h3.144Zm27.408 3.192v.744l.984-.024c-.12-.168-.24-.336-.36-.48l.552-.24h-1.176Zm-4.368-1.8h1.416v-.648h-1.416v.648Zm0-2.976v.624h1.416v-.624h-1.416Zm5.784 0h-1.416v.624h1.416v-.624Zm0 2.976v-.648h-1.416v.648h1.416Zm-8.832 5.088-.192-2.424c1.296 0 2.904-.024 4.656-.072v-.792h-4.104v-6.576h4.104v-.624h-4.416v-2.52h4.416V41.47h2.952v1.512h4.632v2.52h-4.632v.624h4.248v6.576h-.696c.648.888 1.248 1.896 1.584 2.64l-2.424 1.176c-.096-.24-.216-.528-.36-.816-3.528.144-7.128.216-9.768.288Zm6.6 5.28v-2.04h-2.688c.552.648 1.032 1.368 1.296 1.944l-.696.432c.696.024 1.416.024 1.632.024.336-.024.456-.096.456-.36Zm-13.824-8.112v.984h.912v-.984h-.912Zm0-3.192v.96h.912v-.96h-.912Zm4.104.96v-.96h-.984v.96h.984Zm0 3.216v-.984h-.984v.984h.984Zm12.912 1.8v.768h2.616v2.52h-2.616v2.136c0 1.416-.264 2.136-1.272 2.568-1.008.408-2.28.432-3.96.432-.096-.72-.408-1.608-.696-2.352l-1.128.696c-.336-.84-1.128-2.088-1.944-2.952l.912-.528H138.8v1.44h-3.528v3.576H132.2V60.67h-3.672v-3.024h3.672v-1.128h-2.88V47.59h2.88v-1.008h-3.312v-2.976h3.312v-2.112h3.072v2.112h3.24v2.976h-3.24v1.008h3.048v8.928h-3.048v1.128h3.528v-.936h6.744v-.768h3.192Zm24.024-3.24v.744l.984-.024c-.12-.168-.24-.336-.36-.48l.552-.24h-1.176Zm-4.368-1.8h1.416v-.648h-1.416v.648Zm0-2.976v.624h1.416v-.624h-1.416Zm5.784 0h-1.416v.624h1.416v-.624Zm0 2.976v-.648h-1.416v.648h1.416Zm-8.832 5.088-.192-2.424c1.296 0 2.904-.024 4.656-.072v-.792h-4.104v-6.576h4.104v-.624h-4.416v-2.52h4.416V41.47h2.952v1.512h4.632v2.52h-4.632v.624h4.248v6.576h-.696c.648.888 1.248 1.896 1.584 2.64l-2.424 1.176c-.096-.24-.216-.528-.36-.816-3.528.144-7.128.216-9.768.288Zm6.6 5.28v-2.04h-2.688c.552.648 1.032 1.368 1.296 1.944l-.696.432c.696.024 1.416.024 1.632.024.336-.024.456-.096.456-.36Zm-13.824-8.112v.984h.912v-.984h-.912Zm0-3.192v.96h.912v-.96h-.912Zm4.104.96v-.96h-.984v.96h.984Zm0 3.216v-.984h-.984v.984h.984Zm12.912 1.8v.768h2.616v2.52h-2.616v2.136c0 1.416-.264 2.136-1.272 2.568-1.008.408-2.28.432-3.96.432-.096-.72-.408-1.608-.696-2.352l-1.128.696c-.336-.84-1.128-2.088-1.944-2.952l.912-.528H165.2v1.44h-3.528v3.576H158.6V60.67h-3.672v-3.024h3.672v-1.128h-2.88V47.59h2.88v-1.008h-3.312v-2.976h3.312v-2.112h3.072v2.112h3.24v2.976h-3.24v1.008h3.048v8.928h-3.048v1.128h3.528v-.936h6.744v-.768h3.192Z" fill="#231815"/><path d="M15.5 199.99c0-68.759 55.74-124.5 124.5-124.5 68.759 0 124.5 55.741 124.5 124.5v120a4.5 4.5 0 0 1-4.5 4.5H20a4.5 4.5 0 0 1-4.5-4.5v-120Z" fill="#fff" stroke="#231815"/><g clip-path="url(#clip1_799_41928)"><path d="M159.625 215.577c21.488 0 38.907-17.419 38.907-38.907 0-21.487-17.419-38.906-38.907-38.906-21.487 0-38.906 17.419-38.906 38.906 0 21.488 17.419 38.907 38.906 38.907Z" fill="#E86546" stroke="#231815" stroke-miterlimit="10"/><path d="M153.121 189.066c-8.113 10.054-22.382 14.388-34.718 10.54-.638-.196-1.268-.418-1.881-.63-1.899-.656-3.695-1.277-5.415-1.235-1.583.043-3.49 1.141-3.49 2.452a2.373 2.373 0 0 1-2.359 2.375 2.365 2.365 0 0 1-2.366-2.358c0-2.043.979-3.925 2.766-5.312a9.307 9.307 0 0 1 5.321-1.89c2.58-.068 4.879.723 7.092 1.49.605.212 1.175.408 1.745.587 5.049 1.575 10.778 1.549 16.15-.085 5.372-1.626 10.148-4.793 13.469-8.905" fill="#E86546"/><path d="M153.121 189.066c-8.113 10.054-22.382 14.388-34.718 10.54-.638-.196-1.268-.418-1.881-.63-1.899-.656-3.695-1.277-5.415-1.235-1.583.043-3.49 1.141-3.49 2.452a2.373 2.373 0 0 1-2.359 2.375 2.365 2.365 0 0 1-2.366-2.358c0-2.043.979-3.925 2.766-5.312a9.307 9.307 0 0 1 5.321-1.89c2.58-.068 4.879.723 7.092 1.49.605.212 1.175.408 1.745.587 5.049 1.575 10.778 1.549 16.15-.085 5.372-1.626 10.148-4.793 13.469-8.905" stroke="#231815" stroke-miterlimit="10"/><path d="m138.154 178.952-.571 2.46a2.454 2.454 0 0 1-2.937 1.831 2.453 2.453 0 0 1-1.83-2.937l.57-2.461" stroke="#231815" stroke-linecap="round" stroke-linejoin="round"/><path d="M144.556 210.605c4.257-2.384 10.353-1.464 13.077 2.588 1.566 2.333 1.881 5.253 2.188 8.037 1.864 17.154 4.529 34.428 9.058 51.055-.162-.596-12.038.008-13.255.025-4.027.069-8.105.358-12.115.069.298-3.346-.502-6.556-.758-9.91-.255-3.354-.349-6.998-.843-10.472a626.136 626.136 0 0 0-2.52-16.431c-.698-4.188-2.341-8.964-1.762-13.221.622-4.623 2.716-9.382 6.939-11.749l-.009.009Z" fill="#00698A" stroke="#231815" stroke-miterlimit="10"/><mask id="mask0_799_41928" style="mask-type:luminance" maskUnits="userSpaceOnUse" x="137" y="209" width="32" height="64"><path d="M144.556 210.605c4.257-2.384 10.353-1.464 13.077 2.588 1.566 2.333 1.881 5.253 2.188 8.037 1.864 17.154 4.529 34.428 9.058 51.055-.162-.596-12.038.008-13.255.025-4.027.069-8.105.358-12.115.069.298-3.346-.502-6.556-.758-9.91-.255-3.354-.349-6.998-.843-10.472a626.136 626.136 0 0 0-2.52-16.431c-.698-4.188-2.341-8.964-1.762-13.221.622-4.623 2.716-9.382 6.939-11.749l-.009.009Z" fill="#fff"/></mask><g mask="url(#mask0_799_41928)"><path d="m137.541 255.547 5.517 9.655c1.686-5.679 3.363-11.349 5.049-17.027l4.648 17.452c1.388-2.656 2.767-5.312 4.155-7.968 2.239 3.099 4.469 6.198 6.708 9.296.775-1.515 1.558-3.022 2.333-4.537a60.33 60.33 0 0 1 5.798 15.384 294.768 294.768 0 0 1-35.348 8.607c-.962-5.704-.605-11.187-.809-16.899-.077-2.231-.281-4.172.06-6.454.195-1.302 2.341-6.717 1.881-7.509h.008Z" fill="#fff" stroke="#231815" stroke-linecap="round" stroke-linejoin="round"/></g><path d="M144.556 210.605c4.257-2.384 10.353-1.464 13.077 2.588 1.566 2.333 1.881 5.253 2.188 8.037 1.864 17.154 4.529 34.428 9.058 51.055-.162-.596-12.038.008-13.255.025-4.027.069-8.105.358-12.115.069.298-3.346-.502-6.556-.758-9.91-.255-3.354-.349-6.998-.843-10.472a626.136 626.136 0 0 0-2.52-16.431c-.698-4.188-2.341-8.964-1.762-13.221.622-4.623 2.716-9.382 6.939-11.749l-.009.009Z" stroke="#231815" stroke-linecap="round" stroke-linejoin="round"/><mask id="mask1_799_41928" style="mask-type:luminance" maskUnits="userSpaceOnUse" x="117" y="206" width="66" height="55"><path d="M156.849 218.131c-5.005-3.108-10.148-6.275-15.92-7.458-5.772-1.183-12.395 0-16.252 4.47-2.826 3.277-3.763 7.781-3.95 12.106-.451 10.752-2.06 22.126-2.767 32.87 8.181 1.209 21.692.749 29.933.077-1.975-6.879-3.958-13.758-5.934-20.637-.8-2.784-1.6-5.576-2.119-8.42-.128-.681-1.158-6.657.068-6.393.178.042.493.902.596 1.064.672 1.098 1.566 2.12 2.375 3.116 1.634 2.026 3.397 3.959 5.355 5.678 3.473 3.031 7.662 5.381 12.225 6.062s9.501-.46 12.881-3.593c3.635-3.38 5.048-8.513 5.661-13.443.613-4.929 1.678-9.892 3.193-14.617-15.588-1.218-32.292-2.077-47.922-2.392-.009 1.311-.111 2.554.119 3.839" fill="#fff"/></mask><g mask="url(#mask1_799_41928)"><path d="m119.365 239.423 5.516 9.654c1.686-5.678 3.363-11.348 5.049-17.027l4.648 17.453c1.388-2.656 2.767-5.313 4.155-7.969 2.239 3.099 4.469 6.198 6.708 9.297.775-1.515 1.558-3.022 2.333-4.538a60.358 60.358 0 0 1 5.798 15.384 294.577 294.577 0 0 1-35.348 8.607c-.962-5.704-.605-11.186-.809-16.899-.076-2.231-.281-4.172.06-6.453.196-1.303 2.341-6.717 1.881-7.509h.009Z" fill="#fff" stroke="#231815" stroke-linecap="round" stroke-linejoin="round"/></g><path d="M156.849 218.131c-5.005-3.108-10.148-6.275-15.92-7.458-5.772-1.183-12.395 0-16.252 4.47-2.826 3.277-3.763 7.781-3.95 12.106-.451 10.752-2.06 22.126-2.767 32.87 8.181 1.209 21.692.749 29.933.077-1.975-6.879-3.958-13.758-5.934-20.637-.8-2.784-1.6-5.576-2.119-8.42-.128-.681-1.158-6.657.068-6.393.178.042.493.902.596 1.064.672 1.098 1.566 2.12 2.375 3.116 1.634 2.026 3.397 3.959 5.355 5.678 3.473 3.031 7.662 5.381 12.225 6.062s9.501-.46 12.881-3.593c3.635-3.38 5.048-8.513 5.661-13.443.613-4.929 1.678-9.892 3.193-14.617-15.588-1.218-32.292-2.077-47.922-2.392-.009 1.311-.111 2.554.119 3.839" stroke="#231815" stroke-linecap="round" stroke-linejoin="round"/><path d="M156.849 218.131c-5.005-3.108-10.148-6.275-15.92-7.458-5.772-1.183-12.395 0-16.252 4.47-2.826 3.277-3.763 7.781-3.95 12.106-.451 10.752-2.06 22.126-2.767 32.87 8.181 1.209 21.692.749 29.933.077-1.975-6.879-3.958-13.758-5.934-20.637-.8-2.784-1.6-5.576-2.119-8.42-.128-.681-1.158-6.657.068-6.393.178.042.493.902.596 1.064.672 1.098 1.566 2.12 2.375 3.116 1.634 2.026 3.397 3.959 5.355 5.678 3.473 3.031 7.662 5.381 12.225 6.062s9.501-.46 12.881-3.593c3.635-3.38 5.048-8.513 5.661-13.443.613-4.929 1.678-9.892 3.193-14.617-15.588-1.218-32.292-2.077-47.922-2.392-.009 1.311-.111 2.554.119 3.839" fill="#00698A"/><path d="M156.849 218.131c-5.005-3.108-10.148-6.275-15.92-7.458-5.772-1.183-12.395 0-16.252 4.47-2.826 3.277-3.763 7.781-3.95 12.106-.451 10.752-2.06 22.126-2.767 32.87 8.181 1.209 21.692.749 29.933.077-1.975-6.879-3.958-13.758-5.934-20.637-.8-2.784-1.6-5.576-2.119-8.42-.128-.681-1.158-6.657.068-6.393.178.042.493.902.596 1.064.672 1.098 1.566 2.12 2.375 3.116 1.634 2.026 3.397 3.959 5.355 5.678 3.473 3.031 7.662 5.381 12.225 6.062s9.501-.46 12.881-3.593c3.635-3.38 5.048-8.513 5.661-13.443.613-4.929 1.678-9.892 3.193-14.617-15.588-1.218-32.292-2.077-47.922-2.392-.009 1.311-.111 2.554.119 3.839" stroke="#231815" stroke-miterlimit="10"/><path d="M169.739 221.212c-1.167 2.614-2.231 5.364-2.171 8.224.059 2.861 1.49 5.858 4.112 6.998 2.018.877 3.218-.255 4.282-1.89a18.99 18.99 0 0 0 2.469-5.55c.119-.443.988-4.819.613-4.853a15.034 15.034 0 0 1-3.695-.86c-1.873-.689-3.737-1.379-5.61-2.069ZM77.65 247.647v5.193s22.747 7.015 24.944 30.308l11.834-.042s-7.169-6.13-9.084-12.72c-1.916-6.589-3.806-15.486-10.395-19.112-6.581-3.627-17.3-3.619-17.3-3.619v-.008Z" fill="#E86546" stroke="#231815" stroke-miterlimit="10"/><path d="M77.828 259.072h-.179a.425.425 0 0 0-.425.425v28.223c0 .235.19.425.425.425h.18c.234 0 .425-.19.425-.425v-28.223a.425.425 0 0 0-.426-.425Z" fill="#333434"/><path d="M77.837 259.498v28.222h-.179v-28.222h.179Zm0-.852h-.179a.855.855 0 0 0-.851.852v28.222c0 .468.383.851.851.851h.179a.854.854 0 0 0 .851-.851v-28.222a.855.855 0 0 0-.851-.852Z" fill="#231815"/><path d="M81.438 259.072h-.18a.425.425 0 0 0-.425.425v28.223c0 .235.19.425.426.425h.178c.236 0 .426-.19.426-.425v-28.223a.425.425 0 0 0-.425-.425Z" fill="#333434"/><path d="M81.437 259.498v28.222h-.178v-28.222h.178Zm0-.852h-.178a.855.855 0 0 0-.852.852v28.222c0 .468.383.851.852.851h.178a.854.854 0 0 0 .852-.851v-28.222a.855.855 0 0 0-.852-.852Z" fill="#231815"/><path d="M93.662 271.289H65.44a.425.425 0 0 0-.425.425v.179c0 .235.19.426.425.426h28.222a.426.426 0 0 0 .426-.426v-.179a.425.425 0 0 0-.426-.425Z" fill="#333434"/><path d="M93.655 271.715v.178H65.44v-.178h28.222m0-.852H65.441a.854.854 0 0 0-.851.852v.178c0 .469.383.852.851.852h28.222a.854.854 0 0 0 .852-.852v-.178a.854.854 0 0 0-.852-.852Z" fill="#231815"/><path d="M93.662 274.898H65.44a.426.426 0 0 0-.425.426v.179c0 .235.19.426.425.426h28.222a.426.426 0 0 0 .426-.426v-.179a.426.426 0 0 0-.426-.426Z" fill="#333434"/><path d="M93.655 275.324v.179H65.44v-.179h28.222m0-.851H65.441a.854.854 0 0 0-.851.851v.179c0 .468.383.851.851.851h28.222a.854.854 0 0 0 .852-.851v-.179a.854.854 0 0 0-.852-.851Z" fill="#231815"/><path d="M76.303 287.907a.427.427 0 0 1-.383-.46l2.64-28.094a.444.444 0 0 1 .153-.29.443.443 0 0 1 .272-.093c.017 0 .222.017.222.017.23.025.408.23.383.459l-2.64 28.095a.44.44 0 0 1-.153.289.438.438 0 0 1-.272.094c-.017 0-.222-.017-.222-.017Z" fill="#333434"/><path d="m78.978 259.387.178.017-2.639 28.094-.179-.017 2.64-28.094Zm0-.851a.859.859 0 0 0-.545.195.887.887 0 0 0-.307.579l-2.639 28.095a.851.851 0 0 0 .766.928l.179.017h.077a.854.854 0 0 0 .851-.775L80 259.481a.85.85 0 0 0-.767-.928l-.179-.017h-.085.009Z" fill="#231815"/><path d="M79.888 288.239a.427.427 0 0 1-.383-.46l2.64-28.094a.42.42 0 0 1 .425-.383c.017 0 .222.017.222.017.11.008.212.068.289.153a.411.411 0 0 1 .094.315l-2.64 28.094a.444.444 0 0 1-.153.29.444.444 0 0 1-.272.094c-.017 0-.222-.017-.222-.017v-.009Z" fill="#333434"/><path d="m82.57 259.719.18.017-2.64 28.094-.179-.017 2.64-28.094Zm0-.851a.859.859 0 0 0-.545.195.887.887 0 0 0-.306.579l-2.64 28.095a.851.851 0 0 0 .767.928l.179.017h.076a.854.854 0 0 0 .852-.775l2.639-28.094a.85.85 0 0 0-.766-.928l-.18-.017h-.076Z" fill="#231815"/><path d="M65.62 271.008a.427.427 0 0 1-.383-.46l.017-.179a.44.44 0 0 1 .425-.391c.017 0 28.138 2.639 28.138 2.639a.44.44 0 0 1 .289.153.448.448 0 0 1 .094.315l-.017.179a.426.426 0 0 1-.426.383c-.017 0-28.137-2.639-28.137-2.639Z" fill="#333434"/><path d="m65.679 270.404 28.094 2.639-.017.179-28.094-2.64.017-.178Zm0-.852a.844.844 0 0 0-.843.775l-.017.179a.864.864 0 0 0 .196.621c.144.17.349.281.579.307l28.094 2.639h.077a.844.844 0 0 0 .843-.775l.017-.179a.865.865 0 0 0-.196-.621.888.888 0 0 0-.58-.307l-28.094-2.639h-.076Z" fill="#231815"/><path d="M65.279 274.6a.44.44 0 0 1-.29-.153.448.448 0 0 1-.093-.315l.017-.179a.426.426 0 0 1 .425-.383c.018 0 28.138 2.639 28.138 2.639.11.009.212.069.289.154a.448.448 0 0 1 .094.315l-.017.179a.426.426 0 0 1-.426.383c-.017 0-28.137-2.64-28.137-2.64Z" fill="#333434"/><path d="m65.339 273.996 28.094 2.639-.017.179-28.094-2.639.017-.179Zm0-.851a.859.859 0 0 0-.545.195.885.885 0 0 0-.307.579l-.017.179a.851.851 0 0 0 .767.928l28.094 2.639h.077a.844.844 0 0 0 .843-.775l.016-.178a.866.866 0 0 0-.195-.622.883.883 0 0 0-.58-.306l-28.094-2.639h-.076.017Z" fill="#231815"/><path d="M68.36 282.799a.396.396 0 0 1-.297-.128l-.128-.127a.438.438 0 0 1 0-.605l19.955-19.955a.429.429 0 0 1 .298-.128c.102 0 .222.043.298.128l.128.127c.17.171.17.435 0 .605l-19.956 19.955a.432.432 0 0 1-.297.128Z" fill="#333434"/><path d="m88.18 262.29.128.128-19.956 19.955-.127-.127L88.18 262.29Zm0-.851a.87.87 0 0 0-.604.247L67.62 281.641a.849.849 0 0 0 0 1.201l.128.127a.842.842 0 0 0 .604.247.88.88 0 0 0 .605-.247l19.955-19.955a.844.844 0 0 0 .247-.605.879.879 0 0 0-.247-.604l-.127-.128a.871.871 0 0 0-.605-.247v.009Z" fill="#231815"/><path d="M70.906 285.353a.4.4 0 0 1-.298-.128l-.128-.128a.421.421 0 0 1 0-.604l19.956-19.956a.427.427 0 0 1 .298-.127c.102 0 .213.042.298.127l.127.128a.434.434 0 0 1 .128.298.4.4 0 0 1-.128.298l-19.955 19.956a.436.436 0 0 1-.298.127v.009Z" fill="#333434"/><path d="m90.735 264.844.127.128-19.955 19.955-.128-.127 19.956-19.956Zm0-.851a.87.87 0 0 0-.605.247l-19.955 19.955a.844.844 0 0 0-.247.605.88.88 0 0 0 .247.604l.127.128c.17.17.383.247.605.247a.875.875 0 0 0 .604-.247l19.956-19.956a.842.842 0 0 0 .247-.604.88.88 0 0 0-.247-.605l-.128-.127a.871.871 0 0 0-.604-.247Z" fill="#231815"/><path d="M67.22 281.207a.452.452 0 0 1-.28-.162l-.111-.145a.424.424 0 0 1 .085-.596l22.458-17.086a.43.43 0 0 1 .596.085l.11.145a.425.425 0 0 1 .086.315.453.453 0 0 1-.162.281L67.544 281.13a.4.4 0 0 1-.256.085h-.06l-.008-.008Z" fill="#333434"/><path d="m89.627 263.558.11.145L67.28 280.79l-.11-.145 22.458-17.087Zm0-.851a.88.88 0 0 0-.51.17l-22.46 17.087a.875.875 0 0 0-.331.562.808.808 0 0 0 .17.63l.11.144a.84.84 0 0 0 .682.332.873.873 0 0 0 .51-.17l22.46-17.086a.88.88 0 0 0 .331-.562.807.807 0 0 0-.17-.63l-.11-.145a.843.843 0 0 0-.682-.332Z" fill="#231815"/><path d="M69.408 284.084a.45.45 0 0 1-.281-.161l-.11-.145a.424.424 0 0 1 .084-.596l22.459-17.087a.405.405 0 0 1 .255-.085h.06c.11.017.213.077.28.162l.111.145a.424.424 0 0 1-.085.596l-22.458 17.086a.4.4 0 0 1-.256.085h-.06Z" fill="#333434"/><path d="m91.816 266.428.11.144-22.458 17.087-.11-.145 22.458-17.086Zm0-.852a.88.88 0 0 0-.511.17l-22.459 17.087a.876.876 0 0 0-.332.562.808.808 0 0 0 .17.63l.111.145c.17.221.417.332.681.332.179 0 .358-.06.511-.171l22.459-17.086a.878.878 0 0 0 .332-.562.808.808 0 0 0-.17-.63l-.111-.145a.843.843 0 0 0-.681-.332Z" fill="#231815"/><path d="M90.734 282.799a.4.4 0 0 1-.298-.128L70.48 262.716a.436.436 0 0 1-.127-.298c0-.111.042-.222.127-.298l.128-.128a.414.414 0 0 1 .596 0l19.955 19.955c.17.171.17.435 0 .605l-.127.128a.436.436 0 0 1-.298.127v-.008Z" fill="#333434"/><path d="m70.907 262.29 19.955 19.955-.127.128-19.956-19.955.128-.128Zm0-.852a.876.876 0 0 0-.605.247l-.127.128a.844.844 0 0 0-.247.605.88.88 0 0 0 .247.604l19.955 19.956a.845.845 0 0 0 .605.246.88.88 0 0 0 .604-.246l.128-.128a.849.849 0 0 0 0-1.201L71.51 261.694a.837.837 0 0 0-.604-.247v-.009Z" fill="#231815"/><path d="M88.18 285.353a.4.4 0 0 1-.298-.128L67.926 265.27a.422.422 0 0 1 0-.605l.128-.128a.413.413 0 0 1 .596 0l19.956 19.956a.42.42 0 0 1 0 .604l-.128.128a.432.432 0 0 1-.298.128Z" fill="#333434"/><path d="M68.36 264.844 88.317 284.8l-.127.127-19.956-19.955.128-.128Zm0-.851a.871.871 0 0 0-.604.247l-.127.127a.844.844 0 0 0-.247.605c0 .23.093.442.247.604l19.955 19.956a.846.846 0 0 0 .605.247.88.88 0 0 0 .604-.247l.128-.128a.847.847 0 0 0 0-1.2l-19.956-19.956a.837.837 0 0 0-.604-.247v-.008Z" fill="#231815"/><path d="M91.917 281.037a.422.422 0 0 1-.255-.085l-22.705-16.755a.426.426 0 0 1-.094-.596l.11-.145a.433.433 0 0 1 .341-.17c.085 0 .179.026.256.085l22.705 16.755a.427.427 0 0 1 .094.596l-.111.144a.431.431 0 0 1-.34.171Z" fill="#333434"/><path d="m69.323 263.703 22.706 16.755-.111.144-22.706-16.754.111-.145Zm0-.851a.84.84 0 0 0-.68.34l-.112.145a.875.875 0 0 0-.161.63.824.824 0 0 0 .34.562l22.706 16.754a.83.83 0 0 0 .502.171c.042 0 .085 0 .127-.009a.854.854 0 0 0 .562-.34l.111-.145a.855.855 0 0 0-.179-1.192l-22.705-16.754a.869.869 0 0 0-.502-.171l-.009.009Z" fill="#231815"/><path d="M89.772 283.94a.422.422 0 0 1-.256-.085L66.811 267.1a.426.426 0 0 1-.094-.596l.111-.144a.431.431 0 0 1 .34-.171c.086 0 .18.026.256.086l22.705 16.754a.426.426 0 0 1 .094.596l-.11.145a.433.433 0 0 1-.341.17Z" fill="#333434"/><path d="m67.177 266.606 22.706 16.755-.11.144-22.706-16.754.11-.145Zm0-.851s-.085 0-.127.008a.856.856 0 0 0-.562.341l-.11.145a.856.856 0 0 0 .178 1.192l22.705 16.754a.84.84 0 0 0 1.183-.17l.111-.145a.875.875 0 0 0 .162-.63.823.823 0 0 0-.34-.562L67.67 265.934a.83.83 0 0 0-.502-.171l.008-.008Z" fill="#231815"/><path d="M79.548 294.565c-11.647 0-21.122-9.476-21.122-21.122 0-11.647 9.475-21.122 21.122-21.122 11.646 0 21.122 9.475 21.122 21.122 0 11.646-9.476 21.122-21.122 21.122Zm0-36.983c-8.744 0-15.86 7.117-15.86 15.861 0 8.743 7.116 15.86 15.86 15.86 8.743 0 15.86-7.117 15.86-15.86 0-8.744-7.117-15.861-15.86-15.861Z" fill="#333434"/><path d="M79.548 252.746c11.433 0 20.696 9.263 20.696 20.697 0 11.433-9.263 20.696-20.696 20.696-11.434 0-20.697-9.263-20.697-20.696 0-11.434 9.263-20.697 20.697-20.697Zm0 36.983c8.99 0 16.286-7.288 16.286-16.286 0-8.999-7.288-16.287-16.286-16.287-9 0-16.287 7.288-16.287 16.287 0 8.998 7.288 16.286 16.287 16.286Zm0-37.834c-11.885 0-21.548 9.663-21.548 21.548 0 11.884 9.663 21.547 21.548 21.547 11.884 0 21.547-9.663 21.547-21.547 0-11.885-9.663-21.548-21.547-21.548Zm0 36.982c-8.514 0-15.435-6.921-15.435-15.434 0-8.514 6.921-15.435 15.435-15.435 8.513 0 15.434 6.921 15.434 15.435 0 8.513-6.921 15.434-15.434 15.434Z" fill="#231815"/><path d="M79.548 291.457c-9.936 0-18.015-8.079-18.015-18.014 0-9.936 8.08-18.015 18.015-18.015s18.014 8.079 18.014 18.015c0 9.935-8.08 18.014-18.014 18.014Zm0-31.534c-7.577 0-13.733 6.164-13.733 13.733 0 7.568 6.164 13.732 13.733 13.732 7.568 0 13.732-6.164 13.732-13.732 0-7.569-6.164-13.733-13.732-13.733Z" fill="#333434"/><path d="M79.548 255.863c9.713 0 17.588 7.875 17.588 17.588 0 9.714-7.875 17.589-17.588 17.589-9.714 0-17.59-7.875-17.59-17.589 0-9.713 7.876-17.588 17.59-17.588Zm0 31.959c7.823 0 14.157-6.342 14.157-14.158 0-7.815-6.342-14.158-14.157-14.158-7.816 0-14.158 6.343-14.158 14.158 0 7.816 6.342 14.158 14.158 14.158Zm0-32.811c-10.166 0-18.44 8.267-18.44 18.44 0 10.174 8.266 18.441 18.44 18.441 10.173 0 18.44-8.267 18.44-18.441 0-10.173-8.267-18.44-18.44-18.44Zm0 31.96c-7.339 0-13.307-5.968-13.307-13.307 0-7.338 5.968-13.306 13.307-13.306 7.338 0 13.306 5.968 13.306 13.306 0 7.339-5.968 13.307-13.306 13.307Z" fill="#231815"/><path d="M79.548 277.895a4.295 4.295 0 0 1-4.291-4.291 4.295 4.295 0 0 1 4.29-4.291 4.295 4.295 0 0 1 4.291 4.291 4.295 4.295 0 0 1-4.29 4.291Z" fill="#333434"/><path d="M79.547 269.748a3.862 3.862 0 0 1 3.866 3.865 3.862 3.862 0 0 1-3.865 3.865 3.862 3.862 0 0 1-3.866-3.865 3.862 3.862 0 0 1 3.865-3.865Zm0-.852a4.716 4.716 0 1 0 0 9.433 4.716 4.716 0 1 0 0-9.433Z" fill="#231815"/><path d="M81.336 273.613a1.797 1.797 0 1 1-3.594-.001 1.797 1.797 0 0 1 3.594.001Z" fill="#E86546" stroke="#231815" stroke-miterlimit="10"/><path d="M87.499 251.24c-18.151-6.079-26.818 9.484-26.818 9.484-2.392 3.235 3.533 4.103 3.533 4.103s26.928 3.031 29.56 4.231c2.8 1.286 4.222 4.18 4.92 7.024.315 1.268.545 2.537.613 3.848.085 1.66-.12 3.627 2.171 3.584 2.188-.042 1.992-2.903 1.992-2.903 2.35-25.217-15.963-29.371-15.963-29.371H87.5Z" fill="#00698A" stroke="#231815" stroke-miterlimit="10"/><path d="M184.782 259.072h-.179a.425.425 0 0 0-.425.425v28.223c0 .235.19.425.425.425h.179c.235 0 .426-.19.426-.425v-28.223a.425.425 0 0 0-.426-.425Z" fill="#333434"/><path d="M184.791 259.498v28.222h-.179v-28.222h.179Zm0-.852h-.179a.854.854 0 0 0-.851.852v28.222c0 .468.383.851.851.851h.179a.854.854 0 0 0 .851-.851v-28.222a.854.854 0 0 0-.851-.852Z" fill="#231815"/><path d="M188.393 259.072h-.179a.425.425 0 0 0-.426.425v28.223c0 .235.191.425.426.425h.179c.235 0 .425-.19.425-.425v-28.223a.425.425 0 0 0-.425-.425Z" fill="#333434"/><path d="M188.392 259.498v28.222h-.178v-28.222h.178Zm0-.852h-.178a.855.855 0 0 0-.852.852v28.222c0 .468.383.851.852.851h.178a.854.854 0 0 0 .852-.851v-28.222a.855.855 0 0 0-.852-.852Z" fill="#231815"/><path d="M200.618 271.289h-28.223a.425.425 0 0 0-.425.425v.179c0 .235.19.426.425.426h28.223a.425.425 0 0 0 .425-.426v-.179a.425.425 0 0 0-.425-.425Z" fill="#333434"/><path d="M200.609 271.715v.178h-28.222v-.178h28.222Zm0-.852h-28.222a.854.854 0 0 0-.852.852v.178c0 .469.383.852.852.852h28.222a.854.854 0 0 0 .851-.852v-.178a.854.854 0 0 0-.851-.852Z" fill="#231815"/><path d="M200.618 274.898h-28.223a.425.425 0 0 0-.425.426v.179c0 .235.19.426.425.426h28.223a.425.425 0 0 0 .425-.426v-.179a.425.425 0 0 0-.425-.426Z" fill="#333434"/><path d="M200.609 275.324v.179h-28.222v-.179h28.222Zm0-.851h-28.222a.854.854 0 0 0-.852.851v.179c0 .468.383.851.852.851h28.222a.854.854 0 0 0 .851-.851v-.179a.854.854 0 0 0-.851-.851Z" fill="#231815"/><path d="M183.25 287.907a.426.426 0 0 1-.383-.46l2.639-28.094a.442.442 0 0 1 .153-.29.444.444 0 0 1 .273-.093c.017 0 .221.017.221.017.23.025.409.23.383.459l-2.639 28.095a.442.442 0 0 1-.153.289.44.44 0 0 1-.273.094c-.017 0-.221-.017-.221-.017Z" fill="#333434"/><path d="m185.932 259.387.178.017-2.639 28.094-.179-.017 2.64-28.094Zm0-.851a.858.858 0 0 0-.545.195.886.886 0 0 0-.307.579l-2.639 28.095a.851.851 0 0 0 .766.928l.179.017h.077a.856.856 0 0 0 .545-.196.883.883 0 0 0 .306-.579l2.639-28.094a.85.85 0 0 0-.766-.928l-.179-.017h-.085.009Z" fill="#231815"/><path d="M186.843 288.239a.428.428 0 0 1-.384-.46l2.64-28.094a.42.42 0 0 1 .425-.383c.017 0 .222.017.222.017.11.008.212.068.289.153a.412.412 0 0 1 .094.315l-2.639 28.094a.448.448 0 0 1-.154.29.442.442 0 0 1-.272.094c-.017 0-.221-.017-.221-.017v-.009Z" fill="#333434"/><path d="m189.524 259.719.179.017-2.639 28.094-.179-.017 2.639-28.094Zm0-.851a.858.858 0 0 0-.544.195.886.886 0 0 0-.307.579l-2.639 28.095a.85.85 0 0 0 .766.928l.179.017h.076a.854.854 0 0 0 .852-.775l2.639-28.094a.85.85 0 0 0-.766-.928l-.179-.017h-.077Z" fill="#231815"/><path d="M172.574 271.008a.444.444 0 0 1-.29-.154.445.445 0 0 1-.093-.315l.017-.178a.424.424 0 0 1 .425-.383c.017 0 28.137 2.639 28.137 2.639a.442.442 0 0 1 .29.153.452.452 0 0 1 .094.315l-.018.179a.425.425 0 0 1-.425.383c-.017 0-28.137-2.639-28.137-2.639Z" fill="#333434"/><path d="m172.634 270.404 28.094 2.639-.017.179-28.094-2.64.017-.178Zm0-.852a.844.844 0 0 0-.843.775l-.017.179a.864.864 0 0 0 .196.621c.145.17.349.281.579.307l28.094 2.639h.077a.844.844 0 0 0 .843-.775l.017-.179a.864.864 0 0 0-.196-.621.888.888 0 0 0-.579-.307l-28.094-2.639h-.077Z" fill="#231815"/><path d="M172.234 274.6a.438.438 0 0 1-.289-.153.442.442 0 0 1-.094-.315l.017-.179a.425.425 0 0 1 .426-.383c.017 0 28.137 2.639 28.137 2.639.11.009.212.069.289.154a.452.452 0 0 1 .094.315l-.017.179a.426.426 0 0 1-.426.383c-.017 0-28.137-2.64-28.137-2.64Z" fill="#333434"/><path d="m172.293 273.996 28.094 2.639-.017.179-28.094-2.639.017-.179Zm0-.851a.858.858 0 0 0-.545.195.883.883 0 0 0-.306.579l-.018.179a.852.852 0 0 0 .767.928l28.094 2.639h.077a.844.844 0 0 0 .843-.775l.017-.178a.865.865 0 0 0-.196-.622.883.883 0 0 0-.579-.306l-28.095-2.639h-.076.017Z" fill="#231815"/><path d="M175.316 282.799a.395.395 0 0 1-.298-.128l-.128-.127a.437.437 0 0 1 0-.605l19.955-19.955a.412.412 0 0 1 .596 0l.128.127c.17.171.17.435 0 .605l-19.955 19.955a.434.434 0 0 1-.298.128Z" fill="#333434"/><path d="m195.135 262.29.128.128-19.956 19.955-.127-.128 19.955-19.955Zm0-.852a.878.878 0 0 0-.604.247l-19.956 19.956a.847.847 0 0 0 0 1.2l.128.128a.84.84 0 0 0 .604.247c.23 0 .443-.094.605-.247l19.955-19.956a.847.847 0 0 0 0-1.2l-.127-.128a.847.847 0 0 0-.605-.247Z" fill="#231815"/><path d="M177.86 285.353a.398.398 0 0 1-.297-.128l-.128-.128a.436.436 0 0 1 0-.604l19.955-19.956a.412.412 0 0 1 .596 0l.128.128c.17.17.17.434 0 .605l-19.956 19.955a.43.43 0 0 1-.298.128Z" fill="#333434"/><path d="m197.689 264.844.128.128-19.956 19.955-.128-.127 19.956-19.956Zm0-.851a.874.874 0 0 0-.605.247l-19.955 19.955a.849.849 0 0 0 0 1.201l.128.127a.84.84 0 0 0 .604.247c.23 0 .443-.093.605-.247l19.955-19.955a.843.843 0 0 0 .247-.605.881.881 0 0 0-.247-.604l-.128-.128a.875.875 0 0 0-.604-.247v.009Z" fill="#231815"/><path d="M174.174 281.207a.457.457 0 0 1-.281-.162l-.11-.145a.424.424 0 0 1 .085-.596l22.458-17.086a.401.401 0 0 1 .256-.085h.059a.447.447 0 0 1 .281.162l.111.144a.424.424 0 0 1-.085.596l-22.459 17.087a.402.402 0 0 1-.255.085h-.06Z" fill="#333434"/><path d="m196.582 263.558.111.145-22.459 17.087-.111-.145 22.459-17.087Zm0-.851a.885.885 0 0 0-.519.17l-22.459 17.087a.874.874 0 0 0-.332.562.81.81 0 0 0 .17.63l.111.144a.84.84 0 0 0 .681.332.873.873 0 0 0 .511-.17l22.458-17.086a.852.852 0 0 0 .162-1.192l-.111-.145a.874.874 0 0 0-.561-.332h-.12.009Z" fill="#231815"/><path d="M176.363 284.084a.45.45 0 0 1-.281-.161l-.111-.145a.425.425 0 0 1 .085-.596l22.459-17.087a.406.406 0 0 1 .255-.085h.06a.451.451 0 0 1 .281.162l.111.145a.424.424 0 0 1-.086.596l-22.458 17.086a.401.401 0 0 1-.256.085h-.059Z" fill="#333434"/><path d="m198.77 266.428.11.144-22.458 17.087-.111-.145 22.459-17.086Zm0-.852a.88.88 0 0 0-.511.17L175.8 282.833a.878.878 0 0 0-.332.562.807.807 0 0 0 .171.63l.11.145a.844.844 0 0 0 .681.332c.179 0 .358-.06.511-.171l22.459-17.086a.88.88 0 0 0 .332-.562.807.807 0 0 0-.171-.63l-.11-.145a.844.844 0 0 0-.681-.332Z" fill="#231815"/><path d="M197.689 282.799a.395.395 0 0 1-.298-.128l-19.956-19.955a.423.423 0 0 1 0-.605l.128-.127a.429.429 0 0 1 .298-.128c.102 0 .221.043.298.128l19.956 19.955c.17.162.17.434 0 .605l-.128.127a.432.432 0 0 1-.298.128Z" fill="#333434"/><path d="m177.861 262.29 19.955 19.955-.127.128-19.956-19.955.128-.128Zm0-.852a.879.879 0 0 0-.605.247l-.127.128a.843.843 0 0 0-.247.605c0 .229.093.442.247.604l19.955 19.956a.846.846 0 0 0 .605.246c.23 0 .442-.093.604-.246l.128-.128a.849.849 0 0 0 0-1.201l-19.956-19.955a.836.836 0 0 0-.604-.247v-.009Z" fill="#231815"/><path d="M195.135 285.353a.4.4 0 0 1-.298-.128l-19.955-19.955a.42.42 0 0 1 0-.605l.127-.128a.412.412 0 0 1 .596 0l19.956 19.956c.17.162.17.434 0 .604l-.128.128a.432.432 0 0 1-.298.128Z" fill="#333434"/><path d="m175.315 264.844 19.956 19.956-.128.127-19.956-19.955.128-.128Zm0-.851a.87.87 0 0 0-.604.247l-.128.127a.843.843 0 0 0-.247.605c0 .23.094.442.247.604l19.955 19.956a.847.847 0 0 0 .605.247c.23 0 .443-.094.604-.247l.128-.128a.847.847 0 0 0 0-1.2l-19.956-19.956a.836.836 0 0 0-.604-.247v-.008Z" fill="#231815"/><path d="M198.872 281.037a.406.406 0 0 1-.255-.085l-22.705-16.755a.426.426 0 0 1-.094-.596l.111-.145a.425.425 0 0 1 .596-.085l22.705 16.755c.187.136.23.408.094.596l-.111.144a.426.426 0 0 1-.281.171h-.068.008Z" fill="#333434"/><path d="m176.277 263.703 22.706 16.755-.111.144-22.705-16.754.11-.145Zm0-.851a.84.84 0 0 0-.681.34l-.111.145a.874.874 0 0 0-.161.63.855.855 0 0 0 .34.562l22.706 16.754a.828.828 0 0 0 .502.171c.043 0 .085 0 .128-.009a.857.857 0 0 0 .562-.34l.11-.145a.855.855 0 0 0-.179-1.192l-22.705-16.754a.868.868 0 0 0-.502-.171l-.009.009Z" fill="#231815"/><path d="M196.727 283.94a.42.42 0 0 1-.255-.085L173.766 267.1a.428.428 0 0 1-.093-.596l.11-.144a.431.431 0 0 1 .341-.171c.085 0 .179.026.255.086l22.706 16.754a.428.428 0 0 1 .093.596l-.11.145a.435.435 0 0 1-.341.17Z" fill="#333434"/><path d="m174.132 266.606 22.705 16.755-.111.144-22.705-16.754.111-.145Zm0-.851s-.086 0-.128.008a.856.856 0 0 0-.562.341l-.111.145a.856.856 0 0 0 .179 1.192l22.706 16.754a.84.84 0 0 0 1.183-.17l.111-.145a.874.874 0 0 0 .161-.63.855.855 0 0 0-.34-.562l-22.706-16.754a.828.828 0 0 0-.502-.171l.009-.008Z" fill="#231815"/><path d="M186.502 294.565c-11.647 0-21.122-9.476-21.122-21.122 0-11.647 9.475-21.122 21.122-21.122 11.646 0 21.122 9.475 21.122 21.122 0 11.646-9.476 21.122-21.122 21.122Zm0-36.983c-8.744 0-15.861 7.117-15.861 15.861 0 8.743 7.117 15.86 15.861 15.86 8.743 0 15.86-7.117 15.86-15.86 0-8.744-7.117-15.861-15.86-15.861Z" fill="#333434"/><path d="M186.502 252.746c11.433 0 20.696 9.263 20.696 20.697 0 11.433-9.263 20.696-20.696 20.696-11.434 0-20.697-9.263-20.697-20.696 0-11.434 9.263-20.697 20.697-20.697Zm0 36.983c8.99 0 16.286-7.288 16.286-16.286 0-8.999-7.288-16.287-16.286-16.287-8.999 0-16.287 7.288-16.287 16.287 0 8.998 7.288 16.286 16.287 16.286Zm0-37.834c-11.885 0-21.548 9.663-21.548 21.548 0 11.884 9.663 21.547 21.548 21.547 11.884 0 21.547-9.663 21.547-21.547 0-11.885-9.663-21.548-21.547-21.548Zm0 36.982c-8.514 0-15.435-6.921-15.435-15.434 0-8.514 6.921-15.435 15.435-15.435 8.513 0 15.435 6.921 15.435 15.435 0 8.513-6.922 15.434-15.435 15.434Z" fill="#231815"/><path d="M186.502 291.457c-9.935 0-18.015-8.079-18.015-18.014 0-9.936 8.08-18.015 18.015-18.015s18.014 8.079 18.014 18.015c0 9.935-8.079 18.014-18.014 18.014Zm0-31.534c-7.577 0-13.732 6.164-13.732 13.733 0 7.568 6.163 13.732 13.732 13.732 7.568 0 13.732-6.164 13.732-13.732 0-7.569-6.164-13.733-13.732-13.733Z" fill="#333434"/><path d="M186.502 255.863c9.714 0 17.588 7.875 17.588 17.588 0 9.714-7.874 17.589-17.588 17.589-9.714 0-17.589-7.875-17.589-17.589 0-9.713 7.875-17.588 17.589-17.588Zm0 31.959c7.824 0 14.158-6.342 14.158-14.158 0-7.815-6.343-14.158-14.158-14.158-7.816 0-14.158 6.343-14.158 14.158 0 7.816 6.342 14.158 14.158 14.158Zm0-32.811c-10.165 0-18.44 8.267-18.44 18.44 0 10.174 8.266 18.441 18.44 18.441 10.173 0 18.44-8.267 18.44-18.441 0-10.173-8.267-18.44-18.44-18.44Zm0 31.96c-7.339 0-13.307-5.968-13.307-13.307 0-7.338 5.968-13.306 13.307-13.306 7.338 0 13.306 5.968 13.306 13.306 0 7.339-5.968 13.307-13.306 13.307Z" fill="#231815"/><path d="M186.502 277.895a4.295 4.295 0 0 1-4.291-4.291 4.295 4.295 0 0 1 4.291-4.291 4.296 4.296 0 0 1 4.291 4.291 4.295 4.295 0 0 1-4.291 4.291Z" fill="#333434"/><path d="M186.502 269.748a3.863 3.863 0 0 1 3.865 3.865 3.863 3.863 0 0 1-3.865 3.865 3.862 3.862 0 0 1-3.865-3.865 3.862 3.862 0 0 1 3.865-3.865Zm0-.852a4.716 4.716 0 1 0-.001 9.433 4.716 4.716 0 0 0 .001-9.433Z" fill="#231815"/><path d="M186.502 275.826a2.224 2.224 0 0 1-2.222-2.222c0-1.226.996-2.222 2.222-2.222s2.222.996 2.222 2.222a2.224 2.224 0 0 1-2.222 2.222Z" fill="#333434"/><path d="M186.502 271.817a1.797 1.797 0 1 1 0 3.593 1.797 1.797 0 0 1 0-3.593Zm0-.852a2.651 2.651 0 0 0-2.648 2.648 2.646 2.646 0 0 0 2.648 2.648 2.646 2.646 0 0 0 2.648-2.648 2.646 2.646 0 0 0-2.648-2.648Zm.784-1.907a1.901 1.901 0 0 1-1.899 1.899H144.71a1.9 1.9 0 0 1 0-3.797h40.677a1.9 1.9 0 0 1 1.899 1.898Z" fill="#231815"/><path d="M181.684 283.906c-.664 0-1.379-.051-2.256-.154l-33.969-1.157c-.187 0-4.453-.222-7.381-3.423-1.899-2.077-2.776-4.912-2.614-8.437 0-.076.579-4.282 5.321-4.282.307 0 .63.017.971.051l40.694-2.077c.238-.017.477-.026.724-.026 5.048 0 9.296 3.942 9.671 8.982.4 5.338-3.618 10.003-8.956 10.404l-.426.034a20.78 20.78 0 0 1-1.779.093v-.008Z" fill="#888"/><path d="M183.182 264.827c4.81 0 8.88 3.712 9.246 8.59.383 5.108-3.448 9.561-8.565 9.944-.809.06-1.43.119-2.179.119a18.33 18.33 0 0 1-2.205-.153l-34.003-1.166s-10.106-.418-9.586-11.417c0 0 .476-3.874 4.895-3.874.289 0 .596.017.919.051l40.763-2.077c.238-.017.468-.025.698-.025m0-.852c-.255 0-.511.009-.766.026l-40.678 2.077a9.027 9.027 0 0 0-.945-.051c-4.095 0-5.542 3.022-5.746 4.623v.059c-.17 3.644.741 6.581 2.724 8.744 3.048 3.329 7.492 3.55 7.679 3.558l33.969 1.167a19.33 19.33 0 0 0 2.273.153c.681 0 1.192-.043 1.822-.094l.426-.034c5.567-.417 9.765-5.287 9.347-10.854-.391-5.253-4.827-9.374-10.097-9.374h-.008Z" fill="#231815"/><path d="M139.397 274.43c-1.498 0-2.665-.774-2.665-1.753 0-.979 1.167-1.737 2.657-1.737l33.534.077c1.498 0 2.665.774 2.665 1.753 0 .979-1.175 1.737-2.665 1.737l-33.534-.077h.008Z" fill="#888"/><path d="m139.397 271.366 33.526.076c1.234 0 2.239.596 2.239 1.328 0 .724-1.005 1.311-2.239 1.311h-.009l-33.526-.076c-1.243 0-2.239-.596-2.239-1.328 0-.724 1.005-1.311 2.239-1.311m0-.852c-1.762 0-3.09.928-3.09 2.163 0 1.234 1.328 2.171 3.09 2.179l33.526.077c1.771 0 3.099-.928 3.099-2.163 0-.655-.391-1.268-1.073-1.668-.553-.324-1.268-.511-2.017-.511l-33.526-.077h-.009Z" fill="#231815"/><path d="M176.294 273.843c.281 3.805 3.602 6.657 7.407 6.376 3.806-.281 6.658-3.601 6.377-7.406-.281-3.806-3.601-6.658-7.407-6.377-3.805.281-6.657 3.601-6.377 7.407Z" fill="#E86546" stroke="#231815" stroke-miterlimit="10"/><path d="m94.77 211.413-5.5 22.527s-1.251 3.831 0 4.512l7.483 2.963 6.002-20.552s3.687-6.002 5.917-10.369c0 0 2.767-6.24 2.367-6.24-4.223 0-10.991-6.42-10.991-6.42s-4.333.375-4.384 1.473c-.043 1.099-.894 12.098-.894 12.098v.008Z" fill="#00698A" stroke="#231815" stroke-miterlimit="10"/><path d="M103.803 205.675c-.06 4.325-6.104 8.548-14.643 7.841-1.635-.136-2.971-3.507-2.971-7.841 0-4.333 1.362-7.585 2.97-7.84 7.194-1.124 14.686 4.214 14.644 7.84Z" fill="#00698A" stroke="#231815" stroke-miterlimit="10"/><path d="M89.261 197.826s-.068 0-.093.009c-1.61.255-2.972 3.507-2.972 7.841 0 4.333 1.337 7.704 2.972 7.841h.093v-15.699.008Z" fill="#E86546" stroke="#231815" stroke-miterlimit="10"/><path d="M87.593 199.163c-.834 1.379-1.404 3.72-1.404 6.512 0 2.793.561 5.202 1.404 6.581v-13.093Z" fill="#fff" stroke="#231815" stroke-linecap="round" stroke-linejoin="round"/><path d="M108.842 199.869c-3.584-1.149-5.014-1.251-6.376-1.762-1.396-.434-2.682-.928-3.993-.877-1.439.06-3.473 0-4.095.809.102 4.095-.076 14.056 0 15.546 7.075 1.932 9.927 1.2 11.527.766 1.158-.468 3.082-2.248 4.547-5.457 0 0 2.417-7.731-1.601-9.025h-.009Z" fill="#00698A" stroke="#231815" stroke-miterlimit="10"/><path d="M99.146 208.894a1.41 1.41 0 0 1-1.413 1.413h-3.891a1.41 1.41 0 0 1-1.413-1.413c0-.784.63-1.414 1.413-1.414h3.89c.784 0 1.414.63 1.414 1.414Z" fill="#E86546" stroke="#231815" stroke-miterlimit="10"/><path d="M113.908 182.468c-1.397 0-2.597-3.286-3.116-6.342-.29-1.712-.383-3.355-.256-4.632.145-1.49.571-2.307 1.252-2.418.025 0 .128-.008.153-.008 1.396 0 2.597 3.286 3.116 6.342.545 3.227.468 6.811-.988 7.058-.025 0-.127.009-.153.009l-.008-.009Z" fill="#888"/><path d="M111.933 169.476c.937 0 2.12 2.622 2.699 5.994.587 3.465.298 6.402-.647 6.564h-.085c-.937 0-2.12-2.622-2.699-5.994-.587-3.465-.298-6.402.647-6.564h.085Zm0-.851c-.076 0-.153 0-.221.017-.894.153-1.43 1.098-1.601 2.801-.127 1.311-.034 2.997.264 4.75.188 1.116 1.252 6.701 3.533 6.701.077 0 .154 0 .222-.017 2.477-.426 1.464-6.82 1.336-7.552-.187-1.115-1.251-6.7-3.533-6.7Z" fill="#231815"/><path d="M113.908 182.468c-.162 0-.315-.043-.477-.119a.425.425 0 0 1-.23-.358c0-.153.068-.298.196-.383.477-.298.843-2.631.264-6.062-.528-3.082-1.524-5.27-2.188-5.61a.422.422 0 0 1-.23-.358c0-.153.068-.298.196-.383a.881.881 0 0 1 .349-.136c.026 0 .128-.017.153-.017 1.396 0 2.597 3.286 3.116 6.343.545 3.226.468 6.81-.987 7.057-.026 0-.128.009-.154.009l-.008.017Z" fill="#888"/><path d="M111.933 169.477c.936 0 2.128 2.622 2.699 5.993.587 3.465.298 6.402-.647 6.564h-.077a.584.584 0 0 1-.281-.077c.792-.502 1.005-3.269.451-6.487-.519-3.039-1.541-5.474-2.417-5.917a.5.5 0 0 1 .187-.076h.085Zm0-.852c-.077 0-.153 0-.221.017a1.324 1.324 0 0 0-.503.196.845.845 0 0 0-.391.758.852.852 0 0 0 .468.715c.392.196 1.405 2.009 1.967 5.304.561 3.286.204 5.329-.103 5.653a.841.841 0 0 0-.383.749c.017.306.205.57.477.706.213.111.443.162.664.162.077 0 .153 0 .221-.017 2.478-.425 1.465-6.819 1.337-7.551-.187-1.115-1.251-6.7-3.533-6.7v.008Z" fill="#231815"/><path d="M109.166 204.688c-.953 0-1.83-1.005-2.034-2.333-.128-.843.034-1.685.442-2.239.264-.366.613-.587 1.005-.647a1.91 1.91 0 0 1 .213-.017c.953 0 1.83 1.005 2.034 2.333.128.843-.034 1.686-.442 2.239-.264.366-.613.587-1.005.647a1.91 1.91 0 0 1-.213.017Z" fill="#333434"/><path d="M108.791 199.878c.741 0 1.447.843 1.618 1.975.187 1.201-.307 2.282-1.098 2.401-.052 0-.103.008-.145.008-.741 0-1.447-.842-1.618-1.966-.187-1.201.307-2.282 1.098-2.401.052 0 .103-.008.145-.008m0-.852c-.093 0-.187 0-.272.017-.664.102-1.235.571-1.558 1.277-.273.605-.366 1.345-.247 2.086.238 1.558 1.277 2.69 2.46 2.69.094 0 .188 0 .273-.017.664-.102 1.234-.57 1.558-1.277.272-.604.366-1.345.247-2.086-.239-1.558-1.277-2.69-2.461-2.69Z" fill="#231815"/><path d="M109.583 204.373c-.672 0-1.294-.605-1.549-.971-.375-.519-.69-1.362-.451-2.162.179-.613.741-1.32 1.413-1.439l5.483-.945s.093-.008.119-.008c.741 0 1.2 1.132 1.371 2.094.195 1.132.051 2.333-.699 2.46 0 0-5.406.928-5.482.945-.06.009-.128.017-.187.017l-.018.009Z" fill="#333434"/><path d="M114.589 199.282c.366 0 .774.758.945 1.745.178 1.022.017 1.907-.358 1.967l-5.483.945c-.034 0-.076.008-.11.008-.469 0-.971-.459-1.209-.791-.358-.494-.571-1.192-.392-1.788.136-.443.579-1.047 1.073-1.141l5.483-.945h.042m0-.851c-.059 0-.128 0-.187.017l-5.483.945c-.953.161-1.566 1.123-1.745 1.736-.281.945.085 1.933.519 2.537.383.528 1.107 1.141 1.899 1.141.085 0 .17 0 .255-.025l5.483-.945c.323-.06.894-.298 1.072-1.311.086-.469.077-1.048-.025-1.643-.204-1.184-.783-2.452-1.788-2.452Z" fill="#231815"/><path d="M114.972 203.845c-.954 0-1.822-.962-2.061-2.281-.264-1.456.341-2.733 1.38-2.92a1.21 1.21 0 0 1 .246-.026c.962 0 1.822.962 2.061 2.282.264 1.456-.341 2.733-1.379 2.92a1.225 1.225 0 0 1-.247.025Z" fill="#333434"/><path d="M114.529 199.044c.732 0 1.447.817 1.643 1.932.213 1.201-.247 2.282-1.03 2.427-.059.008-.111.017-.17.017-.732 0-1.439-.818-1.643-1.933-.213-1.2.247-2.282 1.03-2.426.059-.009.111-.017.17-.017Zm0-.852c-.111 0-.213.009-.323.026-1.269.23-2.027 1.728-1.72 3.414.272 1.524 1.32 2.63 2.477 2.63.111 0 .222-.008.324-.025 1.268-.23 2.026-1.728 1.72-3.414-.273-1.524-1.32-2.631-2.478-2.631Z" fill="#231815"/><path d="M93.68 205.156s-4.955 1.073-4.044 4.342c.477 1.703 5.78 3.278 7.535 2.307.749-.417.868-4.657.187-6.163-.358-.784-2.265-.826-3.67-.486h-.008Z" fill="#E86546" stroke="#231815" stroke-miterlimit="10"/><path d="M105.769 202.619c-.333 0-.562-.204-.605-.238a.358.358 0 0 1-.094-.128l-1.43-3.022c-1.277-2.273.63-5.781.715-5.934l7.015-17.964a.437.437 0 0 1 .4-.272h.077a.789.789 0 0 1 .588.409c.272.502-.026 1.243-.086 1.387l-7.117 18.364c-.655 1.745-.332 3.082-.323 3.09.51 1.056 1.404 2.912 1.498 3.082a.983.983 0 0 1 .051.852.461.461 0 0 1-.094.127.877.877 0 0 1-.587.239l-.008.008Z" fill="#888"/><path d="M111.763 175.487c.655.111.187 1.209.187 1.209l-7.117 18.381c-.715 1.915-.341 3.354-.341 3.354s1.405 2.946 1.541 3.184c.136.238.034.451.034.451a.433.433 0 0 1-.298.128c-.179 0-.315-.128-.315-.128l-1.43-3.022c-1.183-2.12.698-5.542.698-5.542l7.041-18.015Zm0-.851a.847.847 0 0 0-.792.545l-7.024 17.963c-.315.579-1.983 3.916-.689 6.291l1.421 2.997a.904.904 0 0 0 .188.256c.085.085.417.357.902.357.324 0 .622-.119.869-.349a.93.93 0 0 0 .187-.255 1.35 1.35 0 0 0-.06-1.243c-.093-.171-.817-1.677-1.473-3.04-.051-.263-.195-1.37.332-2.775l7.118-18.372c.093-.213.408-1.064.051-1.728a1.22 1.22 0 0 0-.894-.63c-.051 0-.094-.009-.145-.009l.009-.008Z" fill="#231815"/><path d="M106.501 276.797c1.958 4.572 4.768 9.109 8.258 9.441h37.962s12.94.996 15.698-9.441h-61.918Z" fill="#E86546" stroke="#231815" stroke-miterlimit="10"/><path d="M157.625 282.961h-39.988c-1.728 0-3.133.17-4.751-.664-1.617-.835-2.792-2.18-3.711-3.678-1.899-3.065-2.776-6.717-3.559-10.174-2.776-12.157-4.24-11.374-7.816-17.316-3.575-5.942.835-13.775 3.44-22.535 1.166-3.925 1.447-6.445 1.405-8.037-.307-.962-.894-1.907-1.643-2.452-.341-.247-.69-.502-1.073-.672-.945-.417-2.929-1.082-3.959-1.158-1.847-.136-2.852.272-6.623 3.354-7.16 5.84-12.89 17.129-13.4 26.758 0 0-.639 3.303 2.647 2.75 3.286-.545 21.599 1.413 25.081 19.419 0 0 3.916 16.993 11.084 17.682h37.962s6.93.528 11.723-3.277h-6.819Z" fill="#00698A" stroke="#231815" stroke-miterlimit="10"/><path d="M220.079 271.629c-3.575-.911-3.073-4.563-3.073-4.563-.247-15.494-10.846-24.263-10.846-24.263-15.486-11.851-34.709-3.312-34.709-3.312-4.845 2.018-3.108-6.751-3.108-6.751h-7.126l-.51 3.414c-.077.485-.145.979-.213 1.464l-17.691-.724v.818h-5.636s-.732 4.75 1.183 5.661c1.916.911 9.884 2.827 10.148 9.399.264 6.572-15.392 5.593-14.958 22.28 0 0 85.177-1.226 86.931-1.899 2.605-1.004-.375-1.532-.375-1.532l-.017.008Z" fill="#00698A" stroke="#231815" stroke-miterlimit="10"/><path d="M207.692 238.733c-.272 0-.485-.017-.604-.034h-21.854a1.52 1.52 0 0 1-1.524-1.515c0-.835.681-1.524 1.524-1.524h21.973c.068 0 .145 0 .213.017.051 0 .145.017.264.017.443 0 .826-.085 1.013-.23.051-.034.136-.102.162-.375.247-2.077.017-7.474-.009-8.079a1.535 1.535 0 0 1 1.447-1.6c.886 0 1.55.638 1.584 1.447.043 1.047.255 6.317-.009 8.582-.119 1.004-.578 1.847-1.328 2.426-.928.715-2.06.86-2.852.86v.008Z" fill="#333434"/><path d="M210.365 225.835c.579 0 1.073.46 1.098 1.047.009.247.273 6.13 0 8.514-.102.894-.511 1.634-1.166 2.137-.852.655-1.916.774-2.597.774-.247 0-.451-.017-.562-.025h-21.905a1.101 1.101 0 0 1-1.098-1.098c0-.605.494-1.099 1.098-1.099h21.973c.052 0 .103 0 .154.009.068.008.187.017.323.017.383 0 .937-.06 1.269-.324.127-.102.281-.263.323-.655.264-2.214 0-8.096 0-8.156a1.096 1.096 0 0 1 1.047-1.141h.051m0-.851h-.085a1.948 1.948 0 0 0-1.864 2.035c0 .059.264 5.891.008 8.019-.008.085-.025.111-.025.111-.051.025-.315.111-.732.111-.094 0-.171 0-.222-.009a2.548 2.548 0 0 0-.264-.017h-21.973a1.954 1.954 0 0 0-1.949 1.95c0 1.072.876 1.949 1.949 1.949h21.854c.145.017.349.026.605.026.86 0 2.094-.162 3.116-.954.842-.647 1.362-1.592 1.498-2.716.281-2.4.043-8.019.008-8.649a1.947 1.947 0 0 0-1.949-1.856h.025Z" fill="#231815"/><path d="M191.738 238.154a1.522 1.522 0 0 1-1.524-1.524v-7.117c0-.843.681-1.524 1.524-1.524s1.524.681 1.524 1.524v7.117c0 .843-.681 1.524-1.524 1.524Z" fill="#333434"/><path d="M191.738 228.415c.604 0 1.098.494 1.098 1.098v7.117c0 .605-.494 1.099-1.098 1.099a1.102 1.102 0 0 1-1.099-1.099v-7.117c0-.604.494-1.098 1.099-1.098Zm0-.852c-1.073 0-1.95.877-1.95 1.95v7.117c0 1.073.877 1.95 1.95 1.95a1.955 1.955 0 0 0 1.949-1.95v-7.117c0-1.073-.877-1.95-1.949-1.95Z" fill="#231815"/><path d="M204.576 242.556s7.977 6.76 10.438 15.997c0 0 .613 2.051 1.098 6.981.477 4.929.817 6.308 3.559 6.572 0 0-3.559.69-4.019-2.733-.528-3.967-.843-16.269-11.076-26.826v.009Z" fill="#E86546" stroke="#231815" stroke-miterlimit="10"/><path d="M220.079 271.629c-3.575-.911-3.073-4.563-3.073-4.563-.247-15.494-10.846-24.263-10.846-24.263-15.486-11.851-34.709-3.312-34.709-3.312-4.845 2.018-3.108-6.751-3.108-6.751h-7.126l-.51 3.414c-.077.485-.145.979-.213 1.464l-17.691-.724v.818h-5.636s-.732 4.75 1.183 5.661c1.916.911 9.884 2.827 10.148 9.399.264 6.572-15.392 5.593-14.958 22.28 0 0 9.263-.137 21.735-.341 1.2-10.054 6.215-26.758 26.162-29.337 21.454-2.776 30.384 13.17 33.628 28.094 3.184-.111 5.151-.221 5.397-.315 2.606-1.004-.374-1.532-.374-1.532l-.009.008Z" fill="#00698A" stroke="#231815" stroke-miterlimit="10"/><path d="M181.428 245.391c-19.947 2.588-24.961 19.283-26.161 29.337 3.856-.059 59.168-1.226 59.79-1.243-3.244-14.924-12.175-30.87-33.629-28.094Z" fill="#00698A" stroke="#231815" stroke-miterlimit="10"/><path d="M182.365 247.868c-18.993 2.46-19.87 22.033-19.811 26.656 16.721-.29 35.391-.647 45.471-.971-1.873-12.353-8.25-27.941-25.66-25.685Z" fill="#00698A" stroke="#231815" stroke-miterlimit="10"/><path d="M198.463 243.978a1.41 1.41 0 0 1-1.413 1.413h-3.891a1.41 1.41 0 0 1-1.413-1.413c0-.784.63-1.414 1.413-1.414h3.891c.783 0 1.413.63 1.413 1.414Z" fill="#E86546" stroke="#231815" stroke-miterlimit="10"/><path d="M202.473 243.39c-.017-.059-.043-.11-.06-.162a.064.064 0 0 0-.017-.034l-.076-.153c0-.008-.009-.017-.017-.025a3.06 3.06 0 0 0-.46-.63c-.043-.051-.094-.094-.136-.137l-.009-.008a5.547 5.547 0 0 0-.8-.613c-.06-.034-.111-.068-.17-.102a7.957 7.957 0 0 0-.852-.426h-.008c-.051-.025-.102-.042-.162-.068-.213-.085-.409-.153-.579-.213h-.025c-.034-.008-.068-.025-.103-.034-.008 0-.017 0-.025-.008-.034-.009-.068-.017-.094-.026h-.017c-.093-.025-.17-.051-.238-.068h-.026c-.017 0-.025 0-.042-.009h-.102a7.824 7.824 0 0 0-1.277-.187c-.196-.008-.401-.017-.588-.008h-.23a3.753 3.753 0 0 0-.459.059c-.034 0-.06.009-.094.017-.034 0-.068.017-.102.026-.043.008-.085.025-.128.034a.3.3 0 0 0-.094.034l-.127.051c-.017.008-.043.017-.06.026a.489.489 0 0 0-.111.059c-.017 0-.025.017-.042.026-.043.025-.085.059-.128.093-.008 0-.017.017-.025.026a.408.408 0 0 0-.086.085c-.008.008-.017.026-.025.034-.026.043-.06.077-.077.119l-.076.188c0 .017-.009.034-.017.051-.017.059-.043.119-.06.178 0 .017 0 .026-.008.043-.026.077-.043.162-.06.238v.034l-.051.23c0 .017 0 .034-.009.051-.034.188-.059.383-.085.588v.034l-.025.306c-.145 1.78.076 3.916.587 4.197.06.034.128.06.196.094l.068.026c.051.017.094.034.153.051.026 0 .051.017.085.025a.893.893 0 0 0 .162.034c.026 0 .06.009.085.017l.179.026c.026 0 .051 0 .077.008.076 0 .153.017.23.017h.042c.298.017.622 0 .954-.025 2.205-.213 4.98-1.354 5.321-2.571.161-.588.136-1.107-.017-1.558l-.06-.06Z" fill="#E86546" stroke="#231815" stroke-miterlimit="10"/><path d="M182.688 240.87c-.332 0-.528-.025-.528-.025h-34.667c-.442-.051-1.013-.094-1.685-.145-3.338-.23-8.369-.587-9.365-3.082-.468-1.183.042-2.596 1.575-4.308 0-.102.034-.204.102-.281a6.523 6.523 0 0 1 1.754-1.396c1.966-1.081 4.359-1.277 6.64-1.336.324 0 .656-.009.979-.009 1.78 0 3.576.111 5.313.222 1.711.11 3.49.212 5.235.212 1.09 0 2.086-.042 3.031-.127 5.508-.503 10.966-1.873 16.252-3.193l.528-.128c2.265-.57 4.717-1.115 7.262-1.294.179-.008.588-.034.588-.034h.085c2.639.52 2.809 2.129 2.801 2.58.144.468.74 2.86 0 7.483-.724 4.487-4.691 4.836-5.892 4.836l-.008.025Z" fill="#333434"/><path d="M185.701 226.38c2.708.537 2.461 2.222 2.461 2.222s.817 2.324 0 7.364c-.664 4.095-4.172 4.478-5.466 4.478-.298 0-.477-.017-.477-.017h-34.717c-2.852-.383-15.35-.093-9.016-6.972.034-.034-.017-.085-.034-.128a6.001 6.001 0 0 1 1.634-1.302c1.933-1.056 4.3-1.226 6.454-1.286.323 0 .647-.008.97-.008 3.533 0 7.024.434 10.548.434 1.022 0 2.043-.034 3.074-.128 5.721-.528 11.28-1.941 16.839-3.329 2.358-.587 4.759-1.115 7.194-1.285.17-.009.366-.026.562-.034m0-.852h-.043c-.204.009-.4.026-.579.034-2.571.179-5.048.733-7.338 1.311l-.511.128c-5.27 1.32-10.718 2.682-16.201 3.184-.937.085-1.916.128-2.997.128-1.737 0-3.499-.111-5.21-.213-1.737-.111-3.542-.221-5.338-.221-.332 0-.655 0-.988.008-2.341.06-4.793.264-6.836 1.388-.723.4-1.353.902-1.873 1.49a.818.818 0 0 0-.187.374c-1.575 1.797-2.086 3.321-1.558 4.649 1.09 2.741 6.291 3.107 9.731 3.345.664.043 1.234.086 1.6.137h34.786c.085 0 .273.017.52.017 1.285 0 5.533-.375 6.308-5.193.724-4.453.204-6.922.017-7.594.017-.911-.596-2.461-3.15-2.963a.978.978 0 0 0-.162-.017l.009.008Z" fill="#231815"/><path d="M77.65 244.012c2.451-.801 4.197-15.921 16.694-24.383 0 0 3.142-3.056-.851-2.588-1.124.494-2.554 1.286-4.146 2.588-6.343 5.176-11.561 14.618-13.026 23.404.222.757.63 1.208 1.328.979Z" fill="#E86546" stroke="#231815" stroke-miterlimit="10"/><path d="M97.8 251.563a.429.429 0 0 1-.306-.128c-6.036-6.172-2.588-15.034.187-22.152.852-2.188 1.66-4.256 2.086-6.002.834-3.388.153-4.239-.97-5.644a.44.44 0 0 1-.051-.485.429.429 0 0 1 .366-.23h.05c.111.017 2.657.366 3.61 3.558.46 1.541.128 4.002-1.132 8.242-.587 1.992-1.277 3.933-1.932 5.806-2.257 6.419-4.215 11.961-1.55 16.388a.42.42 0 0 1-.366.639l.008.008Z" fill="#333434"/><path d="M99.12 217.347s2.367.298 3.252 3.253c.46 1.523.034 4.069-1.132 7.994-2.605 8.76-7.015 16.592-3.44 22.535-7.679-7.858.562-20.347 2.384-27.754.886-3.61.111-4.555-1.072-6.036m0-.851a.85.85 0 0 0-.664 1.379l.017.017c1.115 1.396 1.677 2.094.893 5.278-.425 1.72-1.226 3.772-2.068 5.951-2.818 7.228-6.326 16.235-.094 22.603a.855.855 0 0 0 1.132.077.857.857 0 0 0 .213-1.115c-2.562-4.257-.638-9.714 1.584-16.031.664-1.882 1.345-3.831 1.941-5.832 1.302-4.376 1.626-6.836 1.132-8.479-1.039-3.448-3.848-3.84-3.967-3.857h-.102l-.017.009Z" fill="#231815"/><path d="M118.224 278.227c-2.102 0-3.882-.17-5.44-.519-1.43-.324-2.613-1.26-3.328-2.648-.886-1.711-.971-3.882-.222-5.661.801-1.907 2.529-3.414 4.529-3.933a8.417 8.417 0 0 1 1.269-.222c.57-.059 1.149-.076 1.703-.093.885-.026 1.711-.052 2.528-.222 1.745-.383 3.295-1.464 4.785-2.511.4-.281.8-.562 1.209-.826 2.426-1.609 4.512-1.686 6.93-1.788a43.322 43.322 0 0 0 2.026-.111c1.106-.093 2.298-.178 3.482-.178 1.183 0 2.128.076 3.048.238 4.682.8 7.04 4.41 6.478 9.901-.655 6.334-7.628 6.794-12.727 7.134-.732.052-1.431.094-2.069.154-1.277.119-2.656.289-4.087.459-3.184.384-6.802.826-10.122.826h.008Z" fill="#333434"/><path d="M137.703 259.94c.996 0 2.001.06 2.98.23 4.946.843 6.615 4.734 6.13 9.441-.707 6.845-9.323 6.428-14.414 6.913-4.188.392-9.416 1.286-14.166 1.286-1.89 0-3.704-.145-5.347-.511-3.328-.749-4.461-4.844-3.26-7.73.749-1.788 2.366-3.201 4.248-3.686.4-.103.8-.171 1.209-.213 1.422-.145 2.877-.017 4.282-.324 2.299-.502 4.172-2.094 6.138-3.397 2.972-1.966 5.466-1.558 8.761-1.83 1.14-.094 2.298-.179 3.448-.179m0-.851c-1.201 0-2.401.085-3.516.179a43.41 43.41 0 0 1-2.01.11c-2.375.094-4.622.188-7.151 1.856-.409.273-.809.554-1.217.835-1.524 1.072-2.972 2.077-4.632 2.443-.774.17-1.592.196-2.452.213-.561.017-1.149.034-1.736.093a8.419 8.419 0 0 0-1.337.239c-2.12.553-3.967 2.162-4.819 4.188-.791 1.899-.698 4.206.239 6.019.775 1.499 2.06 2.512 3.618 2.861 1.592.358 3.397.528 5.534.528 3.346 0 6.972-.443 10.173-.826 1.439-.179 2.801-.341 4.07-.46.63-.059 1.328-.102 2.06-.153 5.244-.349 12.43-.826 13.119-7.517.596-5.747-1.898-9.527-6.827-10.37-.954-.162-1.976-.238-3.125-.238h.009Z" fill="#231815"/><path d="M156.849 218.131c-5.005-3.108-10.148-6.275-15.92-7.458-5.772-1.183-12.395 0-16.252 4.47-2.826 3.277-3.763 7.781-3.95 12.106-.451 10.752-2.06 22.126-2.767 32.87 8.181 1.209 21.692.749 29.933.077-1.975-6.879-3.958-13.758-5.934-20.637-.8-2.784-1.6-5.576-2.119-8.42-.128-.681-1.158-6.657.068-6.393.178.042.493.902.596 1.064.672 1.098 1.566 2.12 2.375 3.116 1.634 2.026 3.397 3.959 5.355 5.678 3.473 3.031 7.662 5.381 12.225 6.062s9.501-.46 12.881-3.593c3.635-3.38 5.048-8.513 5.661-13.443.613-4.929 1.678-9.892 3.193-14.617-15.588-1.218-32.292-2.077-47.922-2.392-.009 1.311-.111 2.554.119 3.839" fill="#00698A"/><path d="M156.849 218.131c-5.005-3.108-10.148-6.275-15.92-7.458-5.772-1.183-12.395 0-16.252 4.47-2.826 3.277-3.763 7.781-3.95 12.106-.451 10.752-2.06 22.126-2.767 32.87 8.181 1.209 21.692.749 29.933.077-1.975-6.879-3.958-13.758-5.934-20.637-.8-2.784-1.6-5.576-2.119-8.42-.128-.681-1.158-6.657.068-6.393.178.042.493.902.596 1.064.672 1.098 1.566 2.12 2.375 3.116 1.634 2.026 3.397 3.959 5.355 5.678 3.473 3.031 7.662 5.381 12.225 6.062s9.501-.46 12.881-3.593c3.635-3.38 5.048-8.513 5.661-13.443.613-4.929 1.678-9.892 3.193-14.617-15.588-1.218-32.292-2.077-47.922-2.392-.009 1.311-.111 2.554.119 3.839" stroke="#231815" stroke-miterlimit="10"/><path d="M169.739 221.212c-1.167 2.614-2.231 5.364-2.171 8.224.059 2.861 1.49 5.858 4.112 6.998 2.018.877 3.218-.255 4.282-1.89a18.99 18.99 0 0 0 2.469-5.55c.119-.443.988-4.819.613-4.853a15.034 15.034 0 0 1-3.695-.86c-1.873-.689-3.737-1.379-5.61-2.069Z" fill="#E86546" stroke="#231815" stroke-miterlimit="10"/><path d="M157.591 191.322c-8.114 10.054-22.382 14.388-34.718 10.539-.639-.195-1.269-.417-1.882-.63-1.898-.655-3.694-1.277-5.414-1.234-1.584.043-3.491 1.141-3.491 2.452a2.372 2.372 0 0 1-2.358 2.375 2.366 2.366 0 0 1-2.367-2.358c0-2.043.979-3.925 2.767-5.312a9.307 9.307 0 0 1 5.321-1.89c2.58-.069 4.878.723 7.092 1.489.604.213 1.175.409 1.745.588 5.049 1.575 10.778 1.549 16.15-.085 5.372-1.626 10.148-4.793 13.468-8.905" fill="#E86546"/><path d="M157.591 191.322c-8.114 10.054-22.382 14.388-34.718 10.539-.639-.195-1.269-.417-1.882-.63-1.898-.655-3.694-1.277-5.414-1.234-1.584.043-3.491 1.141-3.491 2.452a2.372 2.372 0 0 1-2.358 2.375 2.366 2.366 0 0 1-2.367-2.358c0-2.043.979-3.925 2.767-5.312a9.307 9.307 0 0 1 5.321-1.89c2.58-.069 4.878.723 7.092 1.489.604.213 1.175.409 1.745.588 5.049 1.575 10.778 1.549 16.15-.085 5.372-1.626 10.148-4.793 13.468-8.905" stroke="#231815" stroke-miterlimit="10"/><path d="M197.22 188.674c-1.328 0-2.767-.672-3.831-1.796-1.268-1.337-2.06-3.091-2.835-4.785-1.03-2.273-2.009-4.427-4.018-5.627a.417.417 0 0 1-.205-.383.42.42 0 0 1 .247-.366c2.12-1.005 3.048-3.568 3.201-5.636.103-1.354-.085-2.393-.57-3.167-.673-1.064-2.009-1.703-3.584-1.703a5.6 5.6 0 0 0-.92.077c-3.703.63-6.044 3.226-6.964 7.704-.323 1.575-.442 3.21-.561 4.802-.052.707-.103 1.405-.171 2.111-.119 1.218-.298 2.614-.979 3.84-.766 1.379-2.06 2.239-3.397 2.247-2.043 0-3.49-1.881-3.831-3.652-.332-1.728.102-3.448.52-5.108l.042-.153c.511-2.035.69-3.78.545-5.321-.068-.766-.238-1.507-.409-2.29-.221-.996-.442-2.018-.468-3.099-.025-1.558.239-3.099.494-4.597.221-1.32.46-2.682.485-4.019.068-4.018-3.184-7.773-7.407-8.539a5.504 5.504 0 0 0-.987-.085c-1.865 0-3.652.885-5.542 1.822-1.916.945-3.891 1.924-5.985 1.924-.273 0-.545-.017-.818-.051-1.617-.204-3.09-1.022-4.512-1.813-1.541-.86-2.996-1.669-4.52-1.669-.29 0-.588.034-.869.094-1.745.374-2.911 1.804-4.163 3.328-.638.784-1.302 1.592-2.06 2.256a9.068 9.068 0 0 1-2.486 1.558c-1.269.537-2.707.818-4.163.818-1.252 0-2.486-.196-3.669-.596-3.133-1.047-6.045-3.44-8.19-6.734-4.547-6.964-4.734-16.44-.469-23.574 3.099-5.176 8.59-9.041 14.703-10.344 1.558-.332 3.371-.511 5.117-.511 2.792 0 7.645.477 9.909 3.567 1.507-2.111 3.951-3.533 6.547-3.746.239-.017.468-.034.707-.034 2.477 0 4.904 1.056 6.572 2.852 2.095-1.302 4.58-1.983 7.22-1.983 4.495 0 8.837 2.043 11.391 5.338 7.262.289 14.141 5.67 16.184 12.634 1.498.229 2.954.74 4.325 1.524.536.195 1.132.604 1.804 1.251a12.547 12.547 0 0 1 2.904 3.346c2.222 3.039 3.788 6.802 4.495 10.846.996 5.661.51 11.919-1.516 19.683-.4 1.541-.928 3.073-1.43 4.546-.289.843-.579 1.694-.851 2.546-.077.247-.171.511-.256.766-.264.775-.545 1.583-.604 2.316-.043.502-.017.996.017 1.515.042.758.085 1.541-.102 2.367-.383 1.677-1.414 2.979-2.733 3.482a3.708 3.708 0 0 1-1.337.247l-.017-.026Z" fill="#333434"/><path d="M151.154 115.842c2.452 0 4.904 1.106 6.496 2.979 2.154-1.43 4.716-2.111 7.296-2.111 4.282 0 8.598 1.881 11.169 5.329 7.288.188 14.141 5.568 16.065 12.6 1.567.205 3.082.724 4.453 1.507.621.23 1.183.664 1.72 1.184a12.443 12.443 0 0 1 2.834 3.252c2.299 3.141 3.772 6.879 4.436 10.701 1.132 6.47.145 13.145-1.515 19.504-.63 2.401-1.533 4.708-2.273 7.075-.315 1.005-.792 2.128-.886 3.176-.111 1.285.221 2.511-.077 3.814-.315 1.362-1.166 2.681-2.477 3.184a3.355 3.355 0 0 1-1.183.213c-1.294 0-2.605-.699-3.516-1.661-2.852-3.013-3.244-8.283-6.939-10.488 2.18-1.03 3.261-3.584 3.448-5.985.094-1.175 0-2.426-.638-3.423-.818-1.294-2.393-1.907-3.942-1.907-.332 0-.664.026-.988.086-4.307.732-6.478 3.984-7.304 8.045-.468 2.281-.511 4.631-.732 6.955-.12 1.269-.315 2.563-.928 3.678-.622 1.115-1.754 2.018-3.023 2.026h-.017c-1.711 0-3.073-1.626-3.388-3.311-.324-1.686.136-3.414.553-5.083.443-1.754.724-3.652.554-5.466-.171-1.813-.843-3.507-.869-5.355-.051-2.886.92-5.712.971-8.598.077-4.41-3.474-8.19-7.756-8.965a5.684 5.684 0 0 0-1.064-.093c-3.942 0-7.543 3.745-11.527 3.745-.256 0-.511-.017-.766-.051-3.244-.408-5.977-3.49-9.093-3.49a4.69 4.69 0 0 0-.962.102c-2.843.613-4.231 3.754-6.41 5.687a8.625 8.625 0 0 1-2.376 1.481c-1.251.528-2.622.784-4.001.784-1.2 0-2.401-.196-3.533-.571-3.329-1.107-6.053-3.627-7.969-6.564-4.444-6.802-4.623-16.15-.459-23.122 3.107-5.202 8.522-8.888 14.421-10.148 1.388-.298 3.167-.503 5.023-.503 3.925 0 8.199.928 9.91 3.917 1.379-2.299 3.908-3.883 6.581-4.104.221-.017.451-.025.672-.025m0-.852c-.246 0-.502.009-.74.034-2.529.213-4.93 1.516-6.522 3.482-2.486-2.843-7.159-3.303-9.901-3.303-1.771 0-3.618.187-5.201.519-6.224 1.32-11.826 5.262-14.976 10.54-4.35 7.271-4.154 16.933.477 24.025 2.205 3.38 5.193 5.832 8.411 6.904 1.226.409 2.503.613 3.806.613 1.515 0 3.014-.298 4.333-.851a9.382 9.382 0 0 0 2.605-1.626c.784-.69 1.456-1.515 2.103-2.307 1.192-1.456 2.324-2.835 3.916-3.176a4.03 4.03 0 0 1 .784-.085c1.413 0 2.826.783 4.316 1.618 1.456.809 2.971 1.651 4.665 1.864.281.034.579.051.869.051 2.196 0 4.222-1.004 6.18-1.966 1.848-.911 3.585-1.78 5.355-1.78.307 0 .613.026.911.085 4.019.733 7.118 4.3 7.05 8.114-.026 1.302-.239 2.588-.477 3.95-.256 1.515-.528 3.082-.503 4.674.018 1.124.256 2.171.477 3.184.171.766.332 1.49.4 2.23.145 1.49-.034 3.185-.527 5.177l-.043.153c-.426 1.711-.868 3.473-.528 5.295.366 1.941 1.975 4.002 4.231 4.002 1.507-.009 2.946-.954 3.789-2.461.715-1.294.911-2.75 1.03-4.001a88.98 88.98 0 0 0 .17-2.12c.119-1.575.239-3.201.554-4.742.876-4.291 3.098-6.777 6.615-7.373.272-.051.561-.068.842-.068 1.422 0 2.631.562 3.218 1.507.435.69.605 1.643.503 2.903-.153 1.95-1.005 4.359-2.963 5.279a.866.866 0 0 0-.485.732.848.848 0 0 0 .417.774c1.89 1.133 2.843 3.227 3.848 5.441.783 1.728 1.592 3.516 2.912 4.903 1.14 1.209 2.69 1.933 4.137 1.933.519 0 1.022-.094 1.49-.273 1.456-.561 2.58-1.975 2.997-3.788.204-.885.153-1.703.11-2.486-.025-.502-.059-.979-.017-1.447.06-.69.324-1.465.588-2.214.094-.264.179-.528.264-.774.264-.852.562-1.712.851-2.546.511-1.481 1.03-3.014 1.439-4.572 2.043-7.832 2.528-14.141 1.524-19.87-.715-4.095-2.299-7.901-4.563-11.025a13.113 13.113 0 0 0-2.98-3.422c-.681-.656-1.294-1.073-1.916-1.32a13.104 13.104 0 0 0-4.146-1.498c-2.162-6.947-9.024-12.294-16.294-12.677-2.674-3.354-6.973-5.346-11.604-5.346-2.597 0-5.057.647-7.152 1.873a9.484 9.484 0 0 0-6.64-2.742h-.009Z" fill="#231815"/><path d="M125.691 122.533a21.036 21.036 0 0 0-1.66 13.46c.953 4.504 3.456 8.667 6.981 11.629m2.885-25.745c-2.137 7.697.886 16.568 7.288 21.352m.911-17.358c-.409 4.427 1.481 8.998 4.895 11.842m-12.251 29.175a11.07 11.07 0 0 0 3.355.085" stroke="#231815" stroke-linecap="round" stroke-linejoin="round"/><path d="M137.694 170.881c-.885-2.452-.391-5.414 1.72-7.168 2.648-2.197 7.534-1.95 10.795-1.166 2.247.536 4.401 1.839 5.253 3.788 1.37 3.15.894 8.079-1.873 10.506-5.73 5.006-13.903-.443-15.886-5.951l-.009-.009Z" fill="#00698A" stroke="#231815" stroke-miterlimit="10"/><path d="M148.43 177.675c-4.24 0-8.42-3.712-9.672-7.177-.655-1.831-.485-4.368 1.379-5.917 1.158-.962 3.031-1.464 5.415-1.464 1.413 0 2.98.187 4.393.528 2.145.51 3.857 1.711 4.478 3.132 1.166 2.682.8 7.118-1.583 9.204-1.286 1.123-2.767 1.694-4.41 1.694Z" fill="#333434"/><path d="M145.552 163.543c1.379 0 2.903.187 4.299.519 2.018.485 3.619 1.592 4.189 2.894 1.107 2.546.775 6.752-1.473 8.71-1.209 1.055-2.596 1.592-4.129 1.592-4.061 0-8.071-3.567-9.271-6.896-.604-1.686-.46-4.027 1.252-5.44 1.081-.894 2.86-1.371 5.142-1.371m0-.851c-2.486 0-4.444.545-5.687 1.566-2.026 1.677-2.214 4.419-1.507 6.385 1.294 3.584 5.508 7.458 10.071 7.458 1.746 0 3.32-.604 4.691-1.796 2.563-2.239 2.937-6.82 1.694-9.689-.681-1.566-2.46-2.826-4.767-3.379a19.837 19.837 0 0 0-4.495-.537v-.008Z" fill="#231815"/><path d="M134.272 170.66c1.226-2.145 1.388-4.998-.042-7.015-1.575-2.214-5.483-3.397-8.054-3.729-1.966-.255-4.103.119-5.568 1.456-1.098 1.004-1.719 2.452-1.983 3.916-.46 2.537-.358 5.934 1.132 8.147 3.831 5.696 11.766 2.026 14.515-2.775Z" fill="#00698A" stroke="#231815" stroke-miterlimit="10"/><path d="M125.086 175.206c-1.847 0-3.32-.809-4.392-2.393-1.32-1.966-1.337-5.167-.954-7.313.179-.979.604-2.341 1.626-3.277.877-.801 2.171-1.235 3.661-1.235.332 0 .672.026.996.068 2.716.358 6.027 1.499 7.279 3.261 1.073 1.507 1.064 3.891-.017 5.798-1.635 2.86-5.236 5.099-8.207 5.099l.008-.008Z" fill="#333434"/><path d="M125.027 161.405c.315 0 .63.018.945.06 2.545.332 5.814 1.439 6.989 3.09.979 1.38.962 3.576-.042 5.338-1.567 2.742-5.006 4.887-7.841 4.887-1.694 0-3.048-.741-4.036-2.205-1.251-1.856-1.26-4.938-.885-7.006.162-.911.562-2.188 1.498-3.04.801-.723 1.993-1.124 3.372-1.124Zm0-.851c-1.592 0-2.988.477-3.942 1.345-1.115 1.013-1.575 2.478-1.762 3.516-.417 2.333-.375 5.56 1.021 7.628 1.133 1.686 2.776 2.58 4.742 2.58 3.159 0 6.845-2.29 8.573-5.321 1.167-2.043 1.167-4.614 0-6.257-1.328-1.865-4.767-3.074-7.577-3.44a8.896 8.896 0 0 0-1.055-.068v.017Z" fill="#231815"/><mask id="mask2_799_41928" style="mask-type:luminance" maskUnits="userSpaceOnUse" x="119" y="161" width="15" height="14"><path d="M125.086 174.78c-1.695 0-3.048-.74-4.036-2.205-1.251-1.856-1.26-4.937-.885-7.006.162-.911.562-2.188 1.498-3.039.801-.724 1.992-1.124 3.372-1.124.315 0 .63.017.945.059 2.545.332 5.814 1.439 6.989 3.091.979 1.379.962 3.575-.042 5.338-1.567 2.741-5.006 4.886-7.841 4.886Z" fill="#fff"/></mask><g mask="url(#mask2_799_41928)" fill="#fff" stroke="#fff" stroke-linecap="round" stroke-linejoin="round"><path d="M118.326 169.894c.825-.537 1.796-.818 2.724-1.15.928-.332 1.873-.74 2.537-1.473 1.039-1.132 1.217-2.775 1.779-4.197a8.082 8.082 0 0 1 2.716-3.516c.332-.238.698-.468 1.107-.519.408-.051.868.102 1.064.46-1.098.408-1.882 1.413-2.358 2.494-.477 1.081-.707 2.239-1.082 3.354-.374 1.116-.927 2.222-1.881 2.912-.673.485-1.49.732-2.282.97-.791.239-1.6.52-2.239 1.048-.638.527-1.072 1.387-.868 2.196-.102-.383-2.265-.042-2.571-.613-.358-.655.885-1.669 1.354-1.966Z"/><path d="M121.765 171.971c.826-.537 1.796-.818 2.724-1.15.928-.332 1.873-.74 2.537-1.472 1.039-1.133 1.218-2.776 1.78-4.198a8.08 8.08 0 0 1 2.715-3.516c.332-.238.699-.468 1.107-.519.409-.051.869.102 1.064.46-1.098.408-1.881 1.413-2.358 2.494-.477 1.081-.706 2.239-1.081 3.354-.375 1.116-.928 2.223-1.882 2.912-.672.485-1.489.732-2.281.971-.792.238-1.601.519-2.239 1.047-.639.528-1.073 1.387-.869 2.196-.102-.383-2.264-.042-2.571-.613-.357-.655.886-1.668 1.354-1.966Z"/></g><mask id="mask3_799_41928" style="mask-type:luminance" maskUnits="userSpaceOnUse" x="138" y="163" width="17" height="15"><path d="M148.43 177.249c-4.061 0-8.071-3.567-9.271-6.896-.605-1.685-.46-4.027 1.251-5.44 1.081-.894 2.861-1.371 5.142-1.371 1.379 0 2.903.188 4.299.52 2.018.485 3.619 1.592 4.189 2.894 1.107 2.546.775 6.752-1.473 8.71-1.209 1.055-2.596 1.592-4.129 1.592l-.008-.009Z" fill="#fff"/></mask><g mask="url(#mask3_799_41928)" fill="#fff" stroke="#fff" stroke-linecap="round" stroke-linejoin="round"><path d="M139.823 172.711c.825-.536 1.796-.817 2.724-1.149.928-.332 1.873-.741 2.537-1.473 1.039-1.132 1.217-2.775 1.779-4.197a8.076 8.076 0 0 1 2.716-3.516c.332-.238.698-.468 1.107-.519.408-.051.868.102 1.064.459-1.098.409-1.881 1.414-2.358 2.495-.477 1.081-.707 2.239-1.081 3.354-.375 1.115-.928 2.222-1.882 2.912-.672.485-1.49.732-2.282.97-.791.239-1.6.52-2.239 1.048-.638.527-1.072 1.387-.868 2.196-.102-.383-2.265-.043-2.571-.613-.358-.656.885-1.669 1.354-1.967Z"/><path d="M143.271 174.78c.826-.536 1.796-.817 2.724-1.149.928-.332 1.873-.741 2.537-1.473 1.039-1.132 1.218-2.775 1.78-4.197a8.066 8.066 0 0 1 2.715-3.516c.332-.238.698-.468 1.107-.519.409-.051.868.102 1.064.459-1.098.409-1.881 1.414-2.358 2.495-.477 1.081-.707 2.239-1.081 3.354-.375 1.115-.928 2.222-1.882 2.912-.672.485-1.49.732-2.281.97-.792.239-1.601.52-2.239 1.047-.639.528-1.073 1.388-.869 2.197-.102-.383-2.264-.043-2.571-.613-.357-.656.886-1.669 1.354-1.967Z"/></g></g><path d="M26.547 344.522h-5.824v.644h5.824v-.644Zm-5.824 2.38h5.824v-.644h-5.824v.644Zm0 1.778h5.824v-.672h-5.824v.672Zm-1.61 1.68v-7.014h9.1v6.944h-1.666v-.406h-5.824v.476h-1.61Zm7.672-10.584v1.092H20.47v-1.092h6.314Zm-.014 2.842h-6.286v-1.106h6.286v1.106Zm-8.596-4.662h10.892v5.012h-1.68v-3.836h-7.602v3.85h-1.61v-5.026Zm21.28 2.492h2.996a14.213 14.213 0 0 1-1.652-1.26c-.42.448-.868.868-1.344 1.26Zm-.588 1.246v-.812c-.434.308-.91.602-1.386.854-.21-.294-.686-.798-1.022-1.092-.154.518-.28 1.022-.42 1.456.714 1.078.854 2.086.854 2.884 0 .924-.154 1.526-.56 1.848-.196.168-.448.266-.742.308-.224.042-.532.042-.812.042-.014-.406-.126-1.022-.336-1.442.21.028.364.028.518.014a.454.454 0 0 0 .322-.112c.154-.126.21-.434.21-.854 0-.644-.112-1.568-.784-2.534.224-.84.476-1.988.672-2.912h-1.022v11.004h-1.386v-12.488h2.842l.224-.056 1.036.602c-.182.658-.392 1.4-.588 2.128 1.596-.826 3.066-2.128 3.85-3.402l1.596.56c-.084.14-.168.294-.266.434 1.036.84 2.562 1.666 3.934 2.114a7.609 7.609 0 0 0-.63 1.582 16.88 16.88 0 0 1-1.988-1.036v.91h-4.116Zm3.57 1.82v1.288h.98v-1.288h-.98Zm-1.204 2.394v-3.514h3.472v3.514h-3.472Zm-2.814-2.394v1.288h.938v-1.288h-.938Zm-1.19 2.394v-3.514h3.374v3.514h-3.374Zm1.092.154 1.456.308c-.084.28-.196.56-.308.826.49.322 1.036.714 1.33 1.008l-.84 1.106c-.238-.28-.672-.644-1.106-.966a7.132 7.132 0 0 1-2.002 2.086c-.224-.28-.756-.826-1.078-1.05 1.232-.728 2.128-1.904 2.548-3.318Zm3.864-.014 1.498.21a7.54 7.54 0 0 1-.322 1.134c.784.546 1.694 1.204 2.17 1.68l-.98 1.12c-.392-.42-1.078-.994-1.778-1.512-.42.7-.938 1.288-1.554 1.736-.21-.28-.742-.84-1.064-1.05 1.092-.714 1.764-1.89 2.03-3.318Zm12.39-5.824h5.67s-.014.574-.042.798c-.28 5.572-.56 7.672-1.176 8.4-.42.546-.826.7-1.428.784-.518.07-1.386.07-2.24.028-.028-.504-.252-1.246-.574-1.722.882.07 1.708.07 2.072.07.294 0 .462-.042.658-.224.42-.434.7-2.268.924-6.426h-3.92c-.224 2.898-1.204 6.3-5.138 8.526-.266-.42-.896-1.05-1.302-1.358 3.472-1.89 4.41-4.718 4.648-7.168h-4.214v-1.708h4.284v-2.884h1.778v2.884Z" fill="#231815"/><g clip-path="url(#clip2_799_41928)"><path d="M72.784 335.49c.85 0 2.2 2.79 2.91 3.15.49.25 2.39-.54 2.78-.16.39.38-.17 2.53.08 3.05.35.7 3.14 1.8 3.14 2.64 0 .87-2.86 2.13-3.23 2.85-.26.5.42 2.5.02 2.89-.4.39-2.52-.26-3.05-.01-.68.32-1.77 2.94-2.57 2.94-.8 0-2.04-2.63-2.73-2.96-.52-.25-2.53.46-2.93.07-.4-.39.31-2.39.05-2.9-.36-.71-3.11-1.95-3.11-2.8 0-.85 2.65-1.98 2.98-2.66.26-.53-.42-2.61-.01-3.02.41-.41 2.36.3 2.86.04.71-.36 1.675-3.11 2.525-3.11l.285-.01Z" fill="#00698A" stroke="#231815" stroke-miterlimit="10"/></g><g clip-path="url(#clip3_799_41928)"><path d="M93.344 335.49c.85 0 2.2 2.79 2.91 3.15.49.25 2.39-.54 2.78-.16.39.38-.17 2.53.08 3.05.35.7 3.14 1.8 3.14 2.64 0 .87-2.86 2.13-3.23 2.85-.26.5.42 2.5.02 2.89-.4.39-2.52-.26-3.05-.01-.68.32-1.77 2.94-2.57 2.94-.8 0-2.04-2.63-2.73-2.96-.52-.25-2.53.46-2.93.07-.4-.39.31-2.39.05-2.9-.36-.71-3.11-1.95-3.11-2.8 0-.85 2.65-1.98 2.98-2.66.26-.53-.42-2.61-.01-3.02.41-.41 2.36.3 2.86.04.71-.36 1.97-3.11 2.82-3.11l-.01-.01Z" fill="#00698A" stroke="#231815" stroke-miterlimit="10"/></g><g clip-path="url(#clip4_799_41928)"><path d="M113.905 335.49c.85 0 2.2 2.79 2.91 3.15.49.25 2.39-.54 2.78-.16.39.38-.17 2.53.08 3.05.35.7 3.14 1.8 3.14 2.64 0 .87-2.86 2.13-3.23 2.85-.26.5.42 2.5.02 2.89-.4.39-2.52-.26-3.05-.01-.68.32-1.77 2.94-2.57 2.94-.8 0-2.04-2.63-2.73-2.96-.52-.25-2.53.46-2.93.07-.4-.39.31-2.39.05-2.9-.36-.71-3.11-1.95-3.11-2.8 0-.85 2.65-1.98 2.98-2.66.26-.53-.42-2.61-.01-3.02.41-.41 2.36.3 2.86.04.71-.36 1.97-3.11 2.82-3.11l-.01-.01Z" fill="#00698A" stroke="#231815" stroke-miterlimit="10"/></g><path d="m165.732 346.322 1.484.504c-.574.784-1.4 1.764-2.058 2.338-.28-.266-.896-.714-1.26-.938a9.44 9.44 0 0 0 1.834-1.904Zm4.676.672 1.204-.7c.63.644 1.526 1.554 1.988 2.128l-1.288.784c-.42-.56-1.26-1.526-1.904-2.212Zm.392-3.206v-.518h-3.598v.518h3.598Zm0 1.456v-.532h-3.598v.532h3.598Zm-6.552-6.342v3.108c0 .378-.014.784-.028 1.204a7.623 7.623 0 0 0 1.204-.728c-.266-.224-.56-.462-.826-.644l.84-.742c.266.168.588.392.868.602.21-.21.406-.434.574-.672h-2.142v-1.246h2.884c.112-.294.224-.588.308-.882h-3.682Zm5.292 2.128h-.938c-.266.434-.56.854-.91 1.26h2.702a7.67 7.67 0 0 1-.854-1.26Zm3.08 0h-1.568c.21.28.462.546.742.798.294-.266.616-.574.826-.798Zm.07 0 .91.672c-.294.28-.63.56-.952.798.42.266.868.504 1.33.658a4.81 4.81 0 0 0-.966 1.176 6.639 6.639 0 0 1-.756-.406v2.296h-2.45v1.792c0 .686-.126 1.022-.644 1.246-.476.21-1.106.21-1.946.21-.098-.42-.336-.966-.518-1.33.518.014 1.092.014 1.274.014.168 0 .224-.056.224-.196v-1.736h-2.38v-2.31c-.266.182-.546.35-.84.504a3.555 3.555 0 0 0-.77-.91c-.14 2.03-.63 4.396-2.044 5.95-.21-.308-.84-.91-1.148-1.106.924-1.022 1.344-2.324 1.54-3.626-.504.308-.994.602-1.484.868l-.462-1.498c.546-.224 1.302-.602 2.1-1.008.014-.364.014-.728.014-1.078v-.476l-1.232.56c-.14-.714-.476-1.918-.77-2.814l1.232-.49c.266.784.588 1.792.77 2.478v-3.766h4.648l-.28-.84 1.694-.336c.14.364.28.784.406 1.176h4.578v1.4h-5.264l.98.126c-.084.266-.182.504-.28.756h4.438v1.246h-.952Zm7.728 8.162-1.26-.7c.49-.504.952-1.316 1.204-2.002l1.246.546c-.294.714-.686 1.596-1.19 2.156Zm4.368-4.522v-2.716h1.176v2.716h-1.176Zm3.346-2.856v3.136c0 .588-.084.854-.49 1.036-.392.182-.91.182-1.638.182-.056-.336-.238-.77-.406-1.078.448.014.882.014 1.036 0 .14-.014.182-.042.182-.168v-3.108h1.316Zm-4.746 4.606 1.05-.658c.434.364 1.05.924 1.344 1.288l-1.078.728c-.28-.392-.854-.952-1.316-1.358Zm-1.764-2.24h1.4v-.392h-1.386c0 .126 0 .266-.014.392Zm1.4-1.442h-1.386v.35h1.386v-.35Zm1.19-.812v3.234c0 .476-.084.658-.406.798-.28.14-.728.14-1.316.14-.028-.266-.168-.574-.28-.812.28.014.574.014.672.014.098 0 .14-.028.14-.14v-.28h-1.484c-.112.504-.322.966-.742 1.33-.196-.224-.714-.63-.98-.784.602-.462.644-1.078.644-1.68v-1.82h3.752Zm-.476 6.272h1.54c.364 0 .448-.112.49-.84.266.182.798.336 1.148.406-.14 1.19-.49 1.498-1.498 1.498h-1.862c-1.414 0-1.75-.322-1.75-1.4v-1.33h1.358v1.316c0 .322.084.35.574.35Zm2.674-1.26 1.19-.532c.518.658 1.134 1.554 1.414 2.156l-1.26.588c-.238-.574-.826-1.526-1.344-2.212Zm-3.024-6.272h2.142a18.048 18.048 0 0 1-1.148-.588c-.322.21-.644.406-.994.588Zm-3.64-1.708v1.694c1.47-.364 3.108-.938 4.158-1.694h-4.158Zm5.698.28-.14.14a17.324 17.324 0 0 0 3.962 1.19c-.308.28-.686.742-.868 1.134a20.442 20.442 0 0 1-2.212-.742v.602h-3.668v-.476c-.686.28-1.4.546-2.086.742a4.917 4.917 0 0 0-.686-.924v1.162c0 2.226-.294 5.488-2.086 7.434-.21-.308-.84-.896-1.148-1.092.924-1.022 1.344-2.338 1.54-3.654-.504.308-.994.616-1.484.896l-.462-1.498c.546-.238 1.302-.616 2.1-1.008.014-.378.014-.742.014-1.078v-.49l-1.232.574c-.07-.742-.392-1.918-.756-2.814l1.19-.504c.35.784.672 1.764.798 2.45v-3.724h4.83a11.057 11.057 0 0 0-.294-.952l1.68-.322c.154.392.322.854.448 1.274h4.242v1.4h-4.256l.574.28Zm12.81.056h5.67s-.014.574-.042.798c-.28 5.572-.56 7.672-1.176 8.4-.42.546-.826.7-1.428.784-.518.07-1.386.07-2.24.028-.028-.504-.252-1.246-.574-1.722.882.07 1.708.07 2.072.07.294 0 .462-.042.658-.224.42-.434.7-2.268.924-6.426h-3.92c-.224 2.898-1.204 6.3-5.138 8.526-.266-.42-.896-1.05-1.302-1.358 3.472-1.89 4.41-4.718 4.648-7.168h-4.214v-1.708h4.284v-2.884h1.778v2.884Z" fill="#231815"/><g clip-path="url(#clip5_799_41928)"><path d="M219.404 335.49c-1.34 0-2.54.55-3.41 1.44a4.741 4.741 0 0 0-3.41-1.44c-2.64 0-4.77 2.13-4.77 4.77 0 4.79 8.18 10.62 8.18 10.62s8.18-5.83 8.18-10.62a4.77 4.77 0 0 0-4.77-4.77Z" fill="#FF002A" stroke="#231815" stroke-miterlimit="10"/></g><g clip-path="url(#clip6_799_41928)"><path d="M238.754 335.49c-1.34 0-2.54.55-3.41 1.44a4.741 4.741 0 0 0-3.41-1.44c-2.64 0-4.77 2.13-4.77 4.77 0 4.79 8.18 10.62 8.18 10.62s8.18-5.83 8.18-10.62a4.77 4.77 0 0 0-4.77-4.77Z" fill="#FF002A" stroke="#231815" stroke-miterlimit="10"/></g><path d="M15.5 368.35a4.5 4.5 0 0 1 4.5-4.5h44.5v33H20a4.5 4.5 0 0 1-4.5-4.5v-24Z" fill="#00698A"/><path d="M33.778 377.916v-.798H31.86v.798h1.918Zm0 2.212v-.868H31.86v.868h1.918Zm0 2.226v-.882H31.86v.882h1.918Zm-3.528 1.988v-5.81c-.238.28-.476.518-.714.756-.154-.336-.616-1.162-.896-1.526 1.12-1.008 2.128-2.604 2.688-4.242l1.512.42c-.21.602-.476 1.19-.756 1.778h2.086a13.32 13.32 0 0 0-.658-1.512l1.568-.448c.35.602.714 1.372.896 1.96h2.212v1.4H35.36v.798h2.254v1.344H35.36v.868h2.198v1.344H35.36v.882h2.982v1.4H31.86v.588h-1.61Zm-1.68-8.526-1.526.532c-.154-.63-.518-1.652-.756-2.408l1.47-.448c.266.756.616 1.694.812 2.324Zm.126 3.962.714.252c-.252 1.274-.63 2.59-1.106 3.64.224.14.49.336.868.56.952.574 2.268.658 3.906.658 1.61 0 4.116-.14 5.656-.364-.182.448-.462 1.26-.476 1.708-1.162.07-3.626.168-5.264.168-1.862 0-3.038-.154-4.046-.742-.588-.322-1.078-.784-1.372-.784-.322 0-.812.952-1.162 1.75l-1.106-1.582c.476-.588.994-1.05 1.47-1.33.308-.7.588-1.582.798-2.436h-1.764c.322-.826.7-1.946 1.008-3.038h-1.26v-1.484h3.276c-.294.98-.63 2.1-.952 3.08h.56l.252-.056Zm15.652-6.23 1.554.518a21.66 21.66 0 0 1-1.358 2.66v9.842h-1.582v-7.546c-.448.56-.882 1.05-1.344 1.484-.154-.406-.616-1.316-.882-1.736 1.428-1.232 2.814-3.22 3.612-5.222Zm5.026 11.228h2.044c.714 0 .826-.588.952-2.898.378.294 1.036.616 1.47.7-.182 2.702-.602 3.668-2.296 3.668h-2.338c-1.722 0-2.212-.56-2.212-2.464v-10.024h1.61v3.556h4.872v1.596h-4.872v4.9c0 .826.098.966.77.966Z" fill="#fff"/><path d="M15.5 368.35a4.5 4.5 0 0 1 4.5-4.5h44.5v33H20a4.5 4.5 0 0 1-4.5-4.5v-24Z" stroke="#231815"/><path d="M64.5 363.85H260a4.5 4.5 0 0 1 4.5 4.5v24a4.5 4.5 0 0 1-4.5 4.5H64.5v-33Z" fill="#fff"/><path d="m77.304 373.52 1.568.644c-.91 1.288-2.324 2.66-3.626 3.5a9.764 9.764 0 0 0-.826-1.414c1.106-.658 2.31-1.806 2.884-2.73Zm.35 3.052 1.442.616a16.164 16.164 0 0 1-1.162 1.722v7.644h-1.596v-5.81a15.45 15.45 0 0 1-1.274 1.148c-.112-.378-.532-1.316-.77-1.722 1.218-.868 2.576-2.24 3.36-3.598Zm1.61 6.244 1.372-.714c.588.686 1.386 1.666 1.764 2.282l-1.47.826c-.336-.644-1.092-1.666-1.666-2.394Zm6.482-3.178v.798h1.708v1.512h-1.708v2.884c0 .826-.154 1.232-.742 1.47-.574.238-1.386.266-2.464.252-.07-.462-.308-1.106-.518-1.554.7.042 1.498.042 1.722.028.238 0 .294-.056.294-.238v-2.842h-5.586v-1.512h5.586v-.798h1.708Zm-1.974-4.536h3.738v1.526h-3.738v1.134h3.122v1.512h-7.882v-1.512h3.052v-1.134h-3.528v-1.526h3.528v-1.54h1.708v1.54Zm16.142 4.816v.588l.896-.014a9.752 9.752 0 0 0-.336-.392l.392-.182h-.952Zm-2.548-.896H98.5v-.56h-1.134v.56Zm0-1.96v.546H98.5v-.546h-1.134Zm3.738 0h-1.19v.546h1.19v-.546Zm0 1.96v-.56h-1.19v.56h1.19Zm-5.32 2.744-.084-1.19c.77 0 1.736-.014 2.8-.042v-.616h-2.436v-3.752H98.5v-.518h-2.674v-1.218H98.5v-.924h1.414v.924h2.814v1.218h-2.814v.518h2.562v3.752h-.588c.462.532.882 1.148 1.12 1.61l-1.162.574c-.07-.14-.154-.308-.266-.49-2.1.07-4.256.126-5.796.154Zm4.032 3.318v-1.54h-2.1c.434.434.826.966 1.022 1.358l-.574.364c.56.028 1.204.028 1.386.028.196-.014.266-.056.266-.21Zm-8.33-4.998v.826h.798v-.826h-.798Zm0-1.918v.826h.798v-.826h-.798Zm2.73.826v-.826h-.854v.826h.854Zm0 1.918v-.826h-.854v.826h.854Zm7.112.868v.546h1.596v1.218h-1.596v1.582c0 .714-.112 1.064-.644 1.274-.518.196-1.19.21-2.17.21-.042-.406-.238-.924-.406-1.302l-.56.35c-.224-.49-.7-1.204-1.204-1.708l.686-.406h-1.316v.812h-2.156v2.212h-1.47v-2.212h-2.254V382.9h2.254v-.84h-1.792v-5.054h1.792v-.728H90.03v-1.442h2.058v-1.33h1.47v1.33h1.988v1.442h-1.988v.728h1.862v5.054h-1.862v.84h2.156v-.574h4.102v-.546h1.512Zm17.024-5.488-1.386.532c-.126-.63-.546-1.666-.98-2.422l1.302-.476c.462.742.91 1.708 1.064 2.366Zm-7.182-.728v-.84h-.77v.84h.77Zm1.246-1.792v2.716h-3.178v-2.716h3.178Zm-5.11 5.656v.602h1.036v-.602h-1.036Zm0-1.512v.588h1.036v-.588h-1.036Zm3.458.588v-.588h-1.078v.588h1.078Zm0 1.526v-.602h-1.078v.602h1.078Zm-4.928.98v-4.074h6.454v4.074h-6.454Zm1.75-5.446v-.84h-.714v.84h.714Zm1.19-1.792v2.716h-3.066v-2.716h3.066Zm4.116 7.644v1.176h-7.63v-1.176h7.63Zm-5.292 3.486h2.94v-.77h-2.94v.77Zm10.668-6.132h-2.198c.364 2.688 1.05 5.152 2.45 6.454-.378.294-.91.924-1.162 1.372-.994-1.05-1.624-2.548-2.058-4.34-.42 1.54-1.148 3.066-2.352 4.312a7.367 7.367 0 0 0-.812-.812v.616h-1.596v-.322h-2.94v.504h-1.512v-3.542h6.048v1.96c1.61-1.82 2.002-4.214 2.1-6.202H112.5v-1.54h1.764v-3.724h1.624v3.724h2.38v1.54Z" fill="#231815"/><path d="M64.5 363.85H260a4.5 4.5 0 0 1 4.5 4.5v24a4.5 4.5 0 0 1-4.5 4.5H64.5v-33Z" stroke="#231815"/><path d="M15.5 412.35a4.5 4.5 0 0 1 4.5-4.5h44.5v33H20a4.5 4.5 0 0 1-4.5-4.5v-24Z" fill="#00698A"/><path d="M33.918 420.978v2.002h-1.526v-2.002h1.526Zm1.512 7.644h-.462c.21.252.406.504.546.77h.308c.14 0 .238-.028.322-.154.154-.196.266-.896.35-2.772h-3.472v.392h2.408v1.764Zm-2.408.406.896-.042a3.952 3.952 0 0 0-.196-.252l.28-.112h-.98v.406Zm1.148-1.064v-.448h-1.148v.448h1.148Zm-3.724 0h1.176v-.448h-1.176v.448Zm1.176-1.498h-1.134c-.14.14-.28.266-.434.392h1.568v-.392Zm-3.374-5.684v1.372c0 1.302-.056 2.954-.308 4.564.868-.476 1.54-1.036 2.002-1.596h-1.148v-1.96h.28l-.238-.826c.588-.098 1.386-.224 2.24-.392a15.106 15.106 0 0 0-1.96-.406l.238-.728c.84.098 1.792.266 2.38.462l-.238.602.532-.098.014.826c-.896.21-1.82.42-2.59.56h7.266c-.658-.196-1.568-.378-2.408-.49l.238-.714.294.014-.322-.658c.504-.084 1.246-.336 1.806-.532h-8.078Zm7.896-1.722h-7.896v.658h7.896v-.658Zm-.042 5.39v-.616h-1.19v.616h1.19Zm-2.45 0v-.616H32.49v.616h1.162Zm-2.422 0v-.616h-1.134v.616h1.134Zm.112 1.092h6.678s0 .35-.014.518c-.112 2.604-.252 3.598-.56 3.976-.224.294-.504.392-.812.434-.294.056-.77.056-1.26.042a2.693 2.693 0 0 0-.098-.532l-.602.252a3.58 3.58 0 0 0-.154-.336c-2.156.154-4.382.294-5.992.392l-.098-1.078c.868-.028 1.974-.084 3.192-.14v-.448h-2.366v-1.176a12.67 12.67 0 0 1-.56.364c-.182-.252-.518-.56-.798-.77-.224 1.274-.546 2.492-1.078 3.486-.308-.252-1.022-.658-1.442-.812 1.162-2.156 1.26-5.334 1.26-7.56v-4.144h11.13v2.772h-.966l.364.644c-.686.266-1.624.448-2.282.56.854.098 1.778.28 2.324.448l-.266.728h.532v1.96H31.65c-.098.14-.196.28-.308.42Zm19.222 2.996h3.304v1.582H45.16v-1.582h3.738v-2.8h-2.702v-1.554h2.702v-2.296h-1.54c-.21.728-.49 1.4-.784 1.932a14.722 14.722 0 0 0-1.484-.756c.14-.252.28-.518.42-.812l-.798.364c-.084-.42-.294-1.036-.532-1.61v9.562h-1.666v-10.01c-.084 1.176-.308 2.716-.63 3.71l-1.232-.448c.336-.924.588-2.492.686-3.64l1.176.168v-2.856h1.666v2.646l.812-.336c.28.546.574 1.218.77 1.764.35-1.022.602-2.226.742-3.416l1.624.224c-.098.658-.21 1.316-.35 1.946h1.12v-2.744h1.666v2.744h2.856v1.568h-2.856v2.296h2.562v1.554h-2.562v2.8Z" fill="#fff"/><path d="M15.5 412.35a4.5 4.5 0 0 1 4.5-4.5h44.5v33H20a4.5 4.5 0 0 1-4.5-4.5v-24Z" stroke="#231815"/><path d="M64.5 407.85H260a4.5 4.5 0 0 1 4.5 4.5v24a4.5 4.5 0 0 1-4.5 4.5H64.5v-33Z" fill="#fff"/><path d="m87.636 419.284-1.078.602c-.154-.49-.574-1.204-.994-1.708l1.008-.546c.462.49.882 1.176 1.064 1.652Zm-4.242 5.712h-.518v1.82h.518v-1.82Zm-1.288 3.598v-4.634h2.086v3.906h-1.316v.728h-.77Zm2.058-6.468v1.078h-2.03v-1.078h2.03Zm-6.314 6.188h1.19v-1.4l-.644.532c-.196-.378-.49-.84-.84-1.316-.392.616-.812 1.19-1.246 1.652-.084-.084-.224-.21-.364-.336v.868h1.638a5.932 5.932 0 0 0-.686-1.022l.616-.504c.294.35.63.798.798 1.12l-.462.406Zm-1.904-2.478v.966c.364-.434.728-.924 1.05-1.456-.35-.448-.7-.882-1.05-1.274v.574c.28.266.546.63.714.854l-.574.56a5.21 5.21 0 0 0-.14-.224Zm1.022-3.5h-1.022v1.386l.448-.378c.35.364.714.77 1.05 1.176.294-.546.532-1.134.742-1.722l.854.224v-.686h-1.904c.308.266.588.602.77.826l-.574.672c-.168-.28-.518-.7-.826-.98l.462-.518Zm2.072 4.438v-.952a6.312 6.312 0 0 0-.672-.84l.518-.518.154.154v-1.512c-.28.756-.616 1.484-.994 2.184.406.532.756 1.05.994 1.484Zm7.322-4.508 1.218.182c-.336 1.862-.84 3.5-1.554 4.886.154.994.322 1.582.504 1.582.168 0 .28-.63.35-1.708.21.28.7.658.91.798-.322 2.072-.882 2.548-1.316 2.548-.574 0-1.008-.658-1.33-1.778a9.645 9.645 0 0 1-1.652 1.722c-.196-.224-.7-.658-.98-.854.924-.658 1.68-1.512 2.268-2.548-.252-1.54-.392-3.514-.49-5.712h-2.422v2.926c0 1.862-.126 4.494-.98 6.216-.14-.14-.406-.308-.658-.448v.028h-1.19v-.504h-3.094v.854h-1.148v-9.422h1.96v-3.542h1.428v1.204h2.226v1.288h-2.226v1.05h2.044v7.868c.434-1.47.476-3.22.476-4.578v-4.34h3.542c-.028-.812-.042-1.652-.056-2.506h1.26c0 .84.014 1.68.042 2.506h2.03v1.4h-1.988c.056 1.246.126 2.436.21 3.486.266-.812.462-1.68.616-2.604Zm13.552 1.652v.588l.896-.014a9.752 9.752 0 0 0-.336-.392l.392-.182h-.952Zm-2.548-.896H98.5v-.56h-1.134v.56Zm0-1.96v.546H98.5v-.546h-1.134Zm3.738 0h-1.19v.546h1.19v-.546Zm0 1.96v-.56h-1.19v.56h1.19Zm-5.32 2.744-.084-1.19c.77 0 1.736-.014 2.8-.042v-.616h-2.436v-3.752H98.5v-.518h-2.674v-1.218H98.5v-.924h1.414v.924h2.814v1.218h-2.814v.518h2.562v3.752h-.588c.462.532.882 1.148 1.12 1.61l-1.162.574c-.07-.14-.154-.308-.266-.49-2.1.07-4.256.126-5.796.154Zm4.032 3.318v-1.54h-2.1c.434.434.826.966 1.022 1.358l-.574.364c.56.028 1.204.028 1.386.028.196-.014.266-.056.266-.21Zm-8.33-4.998v.826h.798v-.826h-.798Zm0-1.918v.826h.798v-.826h-.798Zm2.73.826v-.826h-.854v.826h.854Zm0 1.918v-.826h-.854v.826h.854Zm7.112.868v.546h1.596v1.218h-1.596v1.582c0 .714-.112 1.064-.644 1.274-.518.196-1.19.21-2.17.21-.042-.406-.238-.924-.406-1.302l-.56.35c-.224-.49-.7-1.204-1.204-1.708l.686-.406h-1.316v.812h-2.156v2.212h-1.47v-2.212h-2.254V426.9h2.254v-.84h-1.792v-5.054h1.792v-.728H90.03v-1.442h2.058v-1.33h1.47v1.33h1.988v1.442h-1.988v.728h1.862v5.054h-1.862v.84h2.156v-.574h4.102v-.546h1.512Zm13.986-1.862v.588l.896-.014a9.752 9.752 0 0 0-.336-.392l.392-.182h-.952Zm-2.548-.896h1.134v-.56h-1.134v.56Zm0-1.96v.546h1.134v-.546h-1.134Zm3.738 0h-1.19v.546h1.19v-.546Zm0 1.96v-.56h-1.19v.56h1.19Zm-5.32 2.744-.084-1.19c.77 0 1.736-.014 2.8-.042v-.616h-2.436v-3.752h2.436v-.518h-2.674v-1.218h2.674v-.924h1.414v.924h2.814v1.218h-2.814v.518h2.562v3.752h-.588c.462.532.882 1.148 1.12 1.61l-1.162.574a6.108 6.108 0 0 0-.266-.49c-2.1.07-4.256.126-5.796.154Zm4.032 3.318v-1.54h-2.1c.434.434.826.966 1.022 1.358l-.574.364c.56.028 1.204.028 1.386.028.196-.014.266-.056.266-.21Zm-8.33-4.998v.826h.798v-.826h-.798Zm0-1.918v.826h.798v-.826h-.798Zm2.73.826v-.826h-.854v.826h.854Zm0 1.918v-.826h-.854v.826h.854Zm7.112.868v.546h1.596v1.218h-1.596v1.582c0 .714-.112 1.064-.644 1.274-.518.196-1.19.21-2.17.21-.042-.406-.238-.924-.406-1.302l-.56.35c-.224-.49-.7-1.204-1.204-1.708l.686-.406h-1.316v.812h-2.156v2.212h-1.47v-2.212h-2.254V426.9h2.254v-.84h-1.792v-5.054h1.792v-.728h-2.058v-1.442h2.058v-1.33h1.47v1.33h1.988v1.442h-1.988v.728h1.862v5.054h-1.862v.84h2.156v-.574h4.102v-.546h1.512Z" fill="#231815"/><path d="M64.5 407.85H260a4.5 4.5 0 0 1 4.5 4.5v24a4.5 4.5 0 0 1-4.5 4.5H64.5v-33Z" stroke="#231815"/><path d="M15.5 456.35a4.5 4.5 0 0 1 4.5-4.5h44.5v33H20a4.5 4.5 0 0 1-4.5-4.5v-24Z" fill="#00698A"/><path d="m30.138 467.442.21 1.526c-.49.14-.994.28-1.498.406v3.346c0 .812-.154 1.204-.63 1.47-.462.252-1.134.294-2.114.294a7.24 7.24 0 0 0-.476-1.512c.546.014 1.12.014 1.302.014.21 0 .266-.07.266-.28v-2.884l-1.358.336-.434-1.582c.518-.098 1.12-.238 1.792-.406v-2.478h-1.61v-1.54h1.61v-2.66h1.652v2.66h1.372v1.54H28.85v2.072l1.288-.322Zm5.852.756h-3.402a8.001 8.001 0 0 0 1.652 2.478 7.802 7.802 0 0 0 1.75-2.478Zm1.05-1.568 1.064.448c-.532 1.946-1.428 3.472-2.604 4.648.91.644 1.988 1.106 3.234 1.414-.35.336-.826 1.008-1.064 1.442-1.358-.406-2.52-.98-3.486-1.764-1.092.756-2.324 1.316-3.682 1.722-.182-.448-.588-1.148-.896-1.512 1.232-.294 2.366-.742 3.346-1.372-.826-.938-1.484-2.044-1.988-3.332l.42-.126h-.728V466.7h2.758v-1.68h-3.01v-1.54h3.01v-2.002h1.652v2.002h3.136v1.54h-3.136v1.68h1.68l.294-.07Zm15.274 1.036h-2.128c-1.68 0-2.128-.616-2.128-2.17v-3.976h1.652v1.652h3.444v1.428H49.71v.924c0 .518.084.714.532.714h2.044c.392 0 .98-.042 1.288-.112.028.434.098 1.036.154 1.414-.294.098-.882.126-1.414.126Zm-9.044 1.498v.504c0 .532-.028 1.162-.098 1.792.63-.28 1.456-.7 2.296-1.148v-.462l-.672.658c-.35-.364-.994-.91-1.526-1.344Zm2.198-1.26H43.27v.994l.7-.602c.476.336 1.078.826 1.498 1.19v-1.582Zm1.568-1.4v6.524c0 .686-.126 1.036-.588 1.26-.448.21-1.078.238-1.932.238-.07-.392-.294-.938-.504-1.302.504.028 1.05.028 1.218.028.182 0 .238-.056.238-.238v-1.428c-.7.504-1.4.98-2.03 1.386l-.35-.98c-.154.952-.462 1.904-.994 2.632-.238-.322-.868-.924-1.162-1.12.742-1.092.798-2.632.798-3.85v-3.15h5.306Zm-2.128-3.486 1.344-.49c.588 1.008 1.33 2.38 1.666 3.22l-1.456.588c-.084-.252-.21-.546-.35-.882-3.542.35-4.116.434-4.522.602a17.634 17.634 0 0 0-.518-1.498c.252-.056.49-.252.77-.56.28-.308 1.134-1.386 1.652-2.492l1.68.476c-.476.812-1.106 1.624-1.722 2.324l2.044-.154c-.21-.406-.406-.798-.588-1.134Zm5.446 9.996h1.596c.476 0 .574-.238.644-1.526.336.252 1.008.504 1.442.602-.168 1.834-.602 2.38-1.932 2.38h-1.988c-1.652 0-2.058-.49-2.058-2.016v-4.396h1.652v1.4h3.542v1.47H49.71v1.526c0 .49.098.56.644.56Z" fill="#fff"/><path d="M15.5 456.35a4.5 4.5 0 0 1 4.5-4.5h44.5v33H20a4.5 4.5 0 0 1-4.5-4.5v-24Z" stroke="#231815"/><path d="M64.5 451.85H260a4.5 4.5 0 0 1 4.5 4.5v24a4.5 4.5 0 0 1-4.5 4.5H64.5v-33Z" fill="#fff"/><path d="m78.536 462.892-.994 1.372c-.49-.476-1.554-1.12-2.394-1.47l.924-1.26c.826.322 1.918.896 2.464 1.358Zm-.756 3.668-.952 1.4c-.518-.462-1.554-1.05-2.394-1.4l.896-1.26c.826.294 1.918.826 2.45 1.26Zm-1.512 7.84-1.498-.98c.658-1.078 1.582-2.856 2.31-4.494l1.302.994a55.149 55.149 0 0 1-2.114 4.48Zm7.686-7.56 1.162.35c-.378.77-.854 1.526-1.372 2.24.644.588 1.204 1.176 1.568 1.68l-.938.798c-.322-.462-.798-.994-1.358-1.554a13.898 13.898 0 0 1-2.016 1.96c-.21-.224-.686-.644-.98-.826a10.992 10.992 0 0 0 2.128-1.932 22.96 22.96 0 0 0-1.904-1.54l.854-.714c.574.392 1.19.868 1.764 1.344.42-.574.798-1.19 1.092-1.806Zm-.714 5.726h2.338v-2.548l-.28.308c-.21-.336-.644-.812-1.036-1.148l.714-.7c.21.154.42.336.602.518v-2.478H82.54c.35.266.672.588.854.826l-.812.77c-.196-.322-.644-.812-1.022-1.106l.56-.49h-2.142v2.576l.392-.364c.392.308.798.742 1.008 1.064l-.798.756a4.953 4.953 0 0 0-.602-.798v2.814h2.87c-.196-.322-.49-.742-.784-1.036l.84-.546c.364.336.742.826.924 1.162l-.588.42Zm.252-7.476h3.612v9.352h-1.526v-.448h-5.6v.546h-1.456v-9.45h3.318v-3.598h1.652v1.148h3.416v1.456h-3.416v.994Zm16.912-1.708h-3.206v.714h2.898c.098-.224.21-.462.308-.714Zm-7.84.21 1.526.392a7.78 7.78 0 0 1-.35.854c.434.518 1.05.784 1.806.924v-2.38h-4.704v-1.344h10.206l.266-.056 1.232.308c-.336.896-.784 1.89-1.176 2.52l-1.064-.266v.672h-3.108v.7c.28.014.56.014.868.014.812 0 3.878 0 4.914-.042-.238.336-.476 1.022-.546 1.47h-4.382c-2.31 0-3.864-.224-4.9-1.4-.686 1.078-1.568 2.002-2.604 2.66-.14-.378-.532-1.232-.784-1.596a6.223 6.223 0 0 0 2.8-3.43Zm4.662 9.058 2.058-.028c-.238-.182-.476-.364-.7-.518l.518-.448h-1.876v.994Zm-4.27-2.212h2.632v-.882h-2.632v.882Zm6.762-.882h-2.492v.882h2.492v-.882Zm1.694 2.1h-1.12c.966.7 2.03 1.526 2.66 2.044l-1.064 1.05a33.88 33.88 0 0 0-1.078-.924c-3.752.182-7.742.336-10.444.42l-.098-1.54c1.358 0 3.234-.014 5.32-.028v-1.022h-4.2v-3.318h4.2v-.728h1.638v.728h4.186v3.318Zm12.138-7v-.938h-1.386v-1.456h1.386v-.756h1.624v.756h2.828v1.456h-2.828v.938h-1.624Zm-5.166 0v-.924h-2.786v-1.456h2.786v-.77h1.624v.77h1.442v1.456h-1.442v.924h-1.624Zm-2.254.882.952-1.134c.714.406 1.834 1.008 2.408 1.358l-.98 1.246c-.546-.35-1.652-1.022-2.38-1.47Zm2.492 3.024-1.008 1.246c-.518-.392-1.596-1.078-2.366-1.54l.98-1.12c.728.406 1.834 1.022 2.394 1.414Zm-1.932 5.992-1.19-1.288c.77-.742 1.876-1.988 2.814-3.164l.966 1.204a51.596 51.596 0 0 1-2.59 3.248Zm4.242-4.368h5.768c-1.05-.28-2.072-.644-2.996-1.12-.882.462-1.82.812-2.772 1.12Zm.658 2.534h3.724v-1.274h-3.724v1.274Zm3.458-6.244h-2.898c.392.364.896.7 1.47 1.008a8.615 8.615 0 0 0 1.428-1.008Zm1.428-1.274 1.064.644c-.588.896-1.4 1.666-2.352 2.338 1.036.378 2.198.658 3.374.84-.336.336-.77.952-.966 1.372-.21-.042-.434-.084-.644-.14v4.298h-1.638v-.56h-3.724v.56h-1.568v-4.102c-.182.056-.378.098-.56.14-.154-.392-.518-1.022-.812-1.33a17.651 17.651 0 0 0 3.556-1.078 9.26 9.26 0 0 1-1.078-.882c-.406.406-.854.798-1.33 1.162-.266-.308-.784-.784-1.148-.994a11.083 11.083 0 0 0 3.094-3.15l1.596.322c-.14.21-.294.42-.448.63h3.318l.266-.07Zm14.308 6.916v-3.36h-5.6v3.36h5.6Zm2.576-8.036h-6.706a24.54 24.54 0 0 1-1.442 3.08h7.364v7.35h-1.792v-.784h-5.6v.84h-1.694v-4.984a10.626 10.626 0 0 1-1.89 1.75c-.266-.378-.826-.98-1.176-1.288 2.03-1.386 3.5-3.738 4.298-5.964h-3.654v-1.638h12.292v1.638Z" fill="#231815"/><path d="M64.5 451.85H260a4.5 4.5 0 0 1 4.5 4.5v24a4.5 4.5 0 0 1-4.5 4.5H64.5v-33Z" stroke="#231815"/><rect x=".5" y=".5" width="279" height="504.35" rx="4.5" stroke="#231815"/><defs><clipPath id="clip0_799_41928"><path fill="#fff" transform="translate(79.27)" d="M0 0h121.46v30.99H0z"/></clipPath><clipPath id="clip1_799_41928"><path fill="#fff" transform="translate(58 114.99)" d="M0 0h164.625v180H0z"/></clipPath><clipPath id="clip2_799_41928"><path fill="#fff" transform="translate(63.635 334.99)" d="M0 0h18.56v18.36H0z"/></clipPath><clipPath id="clip3_799_41928"><path fill="#fff" transform="translate(84.194 334.99)" d="M0 0h18.56v18.36H0z"/></clipPath><clipPath id="clip4_799_41928"><path fill="#fff" transform="translate(104.755 334.99)" d="M0 0h18.56v18.36H0z"/></clipPath><clipPath id="clip5_799_41928"><path fill="#fff" transform="translate(207.314 334.99)" d="M0 0h17.35v16.5H0z"/></clipPath><clipPath id="clip6_799_41928"><path fill="#fff" transform="translate(226.664 334.99)" d="M0 0h17.35v16.5H0z"/></clipPath></defs></svg>