<svg fill="none" xmlns="http://www.w3.org/2000/svg" viewBox="0 0 22 22"><path d="M5.562 2.785C10.137-.238 16.318.987 19.366 5.525c.115.172.223.347.325.522L14.21 11l6.29 3.188a9.845 9.845 0 0 1-3.897 5.026C12.03 22.238 5.851 21.013 2.8 16.475-.248 11.938.987 5.808 5.562 2.785Z" fill="#FFE177" stroke="#231815" stroke-linecap="round" stroke-linejoin="round"/><path d="M12.426 7.728c.89 0 1.611-.715 1.611-1.598 0-.882-.721-1.597-1.611-1.597s-1.611.715-1.611 1.597c0 .883.721 1.598 1.611 1.598Z" fill="#231815" stroke="#231815" stroke-width=".25" stroke-linecap="round" stroke-linejoin="round"/></svg>