<svg fill="none" xmlns="http://www.w3.org/2000/svg" viewBox="0 0 336 37"><rect x=".5" y=".5" width="335" height="17" rx="8.5" fill="#fff"/><path d="M3.5 9A5.5 5.5 0 0 1 9 3.5h75.25v11H9A5.5 5.5 0 0 1 3.5 9Zm82.75-5.5H167v11H86.25v-11Zm82.75 0h80.75v11H169v-11ZM332.5 9a5.5 5.5 0 0 1-5.5 5.5h-75.25v-11H327a5.5 5.5 0 0 1 5.5 5.5Z" fill="#E68169" stroke="#231815"/><rect x=".5" y=".5" width="335" height="17" rx="8.5" stroke="#231815"/><path d="M29.842 26.222h2.968s-.014.546-.014.728c-.056 5.684-.112 7.686-.504 8.288-.28.462-.602.616-1.036.7-.42.084-1.036.07-1.694.056a4.11 4.11 0 0 0-.462-1.568c.56.042 1.064.042 1.33.042.182.014.308-.042.434-.238.252-.364.294-1.988.35-6.468H29.8c-.154 3.878-.7 6.72-2.8 8.554-.238-.392-.798-.994-1.148-1.246.252-.21.462-.434.658-.686l-.91.42c-.028-.168-.056-.364-.112-.546-3.528.588-4.158.756-4.564.966a10.957 10.957 0 0 0-.574-1.568c.406-.126.728-.532 1.274-1.232.35-.406 1.078-1.554 1.848-2.954-1.848.182-2.282.28-2.576.392v-.028c-.014.028-.014.042-.014.07-.084-.35-.35-1.176-.546-1.61.28-.098.518-.406.812-.938.28-.476 1.148-2.436 1.568-4.242l1.722.644a23.78 23.78 0 0 1-1.932 4.284l1.75-.112c.238-.504.462-1.008.644-1.512l1.61.714a33.362 33.362 0 0 1-3.528 5.95l2.044-.308a14.909 14.909 0 0 0-.658-1.582l1.316-.574c.518.98 1.036 2.212 1.274 3.164.91-1.498 1.176-3.472 1.246-6.02h-1.666v-1.54h1.694v-3.08h1.624c0 1.078 0 2.114-.014 3.08ZM39.6 31.64h2.422v-2.128H39.6v2.128Zm8.932 0v1.596h-4.788v2.996h-1.722v-2.996h-6.3V31.64h2.212v-3.668h4.088v-1.68h-2.996c-.574.994-1.246 1.89-1.904 2.548-.322-.28-1.036-.84-1.442-1.078 1.26-1.064 2.338-2.856 2.94-4.662l1.694.434c-.126.392-.28.77-.462 1.148h7.91v1.61h-4.018v1.68h3.696v1.54h-3.696v2.128h4.788Zm5.208-1.148v.952h1.736v-.952H53.74Zm1.736-4.242H53.74v.812h1.736v-.812Zm-1.736 2.086v.882h1.736v-.882H53.74Zm4.116 3.108V32.9h-6.874v-1.456h1.26V26.25H51.15v-1.456h1.092V23.31h1.498v1.484h1.736V23.31h1.526v1.484h.952v1.456h-.952v5.194h.854Zm-5.138 1.554 1.554.462c-.49 1.022-1.316 2.114-2.072 2.8a9.398 9.398 0 0 0-1.33-.994c.728-.546 1.456-1.428 1.848-2.268ZM59.97 30.1H62v-1.722h-2.016v.518c0 .364 0 .77-.014 1.204ZM62 25.27h-2.016v1.638H62V25.27Zm1.61-1.512V34.37c0 .826-.154 1.26-.644 1.526s-1.204.308-2.24.294c-.056-.434-.266-1.162-.476-1.582.602.042 1.274.028 1.47.028.21 0 .28-.07.28-.294v-2.758h-2.128c-.154 1.652-.504 3.402-1.26 4.662-.266-.294-.952-.798-1.316-.938.042-.084.098-.154.14-.238l-1.162.658c-.28-.546-.952-1.47-1.498-2.114l1.26-.686c.504.56 1.162 1.33 1.512 1.904.812-1.75.882-4.116.882-5.936v-5.138h5.18Zm46.1 3.85 1.666.406c-.574 1.82-1.4 3.444-2.408 4.802.406 1.008.854 1.596 1.302 1.596.336 0 .504-.7.574-2.45.378.392.966.756 1.414.938-.266 2.59-.826 3.206-2.128 3.206-.98 0-1.75-.7-2.366-1.848a11.866 11.866 0 0 1-2.366 1.904 10.974 10.974 0 0 0-1.204-1.372 10.695 10.695 0 0 0 2.856-2.268c-.476-1.582-.784-3.542-.966-5.642h-4.06v1.498h3.458s-.014.434-.014.63c-.042 2.94-.126 4.186-.448 4.592-.266.364-.546.49-.966.56-.364.056-.966.056-1.61.042-.028-.49-.21-1.134-.462-1.554.504.042.98.056 1.204.056.196 0 .308-.028.42-.168.14-.196.196-.868.238-2.632h-1.82c-.056 2.044-.35 4.774-1.498 6.482-.294-.322-1.036-.938-1.414-1.134 1.064-1.68 1.162-4.116 1.162-5.936v-4.088h5.712a50.487 50.487 0 0 1-.056-2.072h1.75c-.014.7 0 1.386.028 2.072h2.142c-.518-.42-1.218-.868-1.792-1.218l1.008-.994c.77.392 1.792 1.036 2.282 1.498l-.672.714h1.456v1.652h-4.326c.126 1.4.322 2.716.56 3.836a14.171 14.171 0 0 0 1.344-3.108Zm15.736 3.668h-3.192c.308.532.686.994 1.134 1.414.714-.434 1.498-.952 2.058-1.414Zm.49 0 1.078.742a21.82 21.82 0 0 1-2.464 1.54c.882.532 1.932.91 3.192 1.148-.364.336-.826 1.036-1.05 1.484-3.122-.714-4.998-2.338-6.188-4.914h-2.002v2.968l3.066-.616a9.937 9.937 0 0 0-.14 1.484c-3.346.742-4.116.924-4.494 1.092l-.084.07c-.112-.392-.434-1.26-.7-1.652.308-.168.714-.504.714-1.078v-2.268h-2.044v-1.47h2.324v-6.188h8.834v1.358h-7.126v.77h6.734v1.288h-6.734v.728h6.734v1.288h-6.734v.756h8.596v1.47h-1.512Zm6.804-.784v.952h1.736v-.952h-1.736Zm1.736-4.242h-1.736v.812h1.736v-.812Zm-1.736 2.086v.882h1.736v-.882h-1.736Zm4.116 3.108V32.9h-6.874v-1.456h1.26V26.25h-1.092v-1.456h1.092V23.31h1.498v1.484h1.736V23.31h1.526v1.484h.952v1.456h-.952v5.194h.854Zm-5.138 1.554 1.554.462c-.49 1.022-1.316 2.114-2.072 2.8a9.398 9.398 0 0 0-1.33-.994c.728-.546 1.456-1.428 1.848-2.268Zm7.252-2.898H141v-1.722h-2.016v.518c0 .364 0 .77-.014 1.204Zm2.03-4.83h-2.016v1.638H141V25.27Zm1.61-1.512V34.37c0 .826-.154 1.26-.644 1.526s-1.204.308-2.24.294c-.056-.434-.266-1.162-.476-1.582.602.042 1.274.028 1.47.028.21 0 .28-.07.28-.294v-2.758h-2.128c-.154 1.652-.504 3.402-1.26 4.662-.266-.294-.952-.798-1.316-.938.042-.084.098-.154.14-.238l-1.162.658c-.28-.546-.952-1.47-1.498-2.114l1.26-.686c.504.56 1.162 1.33 1.512 1.904.812-1.75.882-4.116.882-5.936v-5.138h5.18Zm46.1 3.85 1.666.406c-.574 1.82-1.4 3.444-2.408 4.802.406 1.008.854 1.596 1.302 1.596.336 0 .504-.7.574-2.45.378.392.966.756 1.414.938-.266 2.59-.826 3.206-2.128 3.206-.98 0-1.75-.7-2.366-1.848a11.866 11.866 0 0 1-2.366 1.904 10.974 10.974 0 0 0-1.204-1.372 10.695 10.695 0 0 0 2.856-2.268c-.476-1.582-.784-3.542-.966-5.642h-4.06v1.498h3.458s-.014.434-.014.63c-.042 2.94-.126 4.186-.448 4.592-.266.364-.546.49-.966.56-.364.056-.966.056-1.61.042-.028-.49-.21-1.134-.462-1.554.504.042.98.056 1.204.056.196 0 .308-.028.42-.168.14-.196.196-.868.238-2.632h-1.82c-.056 2.044-.35 4.774-1.498 6.482-.294-.322-1.036-.938-1.414-1.134 1.064-1.68 1.162-4.116 1.162-5.936v-4.088h5.712c-.028-.686-.056-1.372-.056-2.072h1.75c-.014.7 0 1.386.028 2.072h2.142c-.518-.42-1.218-.868-1.792-1.218l1.008-.994c.77.392 1.792 1.036 2.282 1.498l-.672.714h1.456v1.652h-4.326c.126 1.4.322 2.716.56 3.836a14.171 14.171 0 0 0 1.344-3.108Zm11.55-3.528v1.092h-6.482V24.08h2.632a4.743 4.743 0 0 0-.364-.756l1.512-.35c.21.336.434.756.574 1.106h2.128Zm-4.326 2.38v.658h2.282v-.658h-2.282Zm3.71 1.512h-5.068v-2.38h5.068v2.38Zm-4.242 8.176-1.568-.602c.56-.56 1.148-1.512 1.456-2.408l1.596.392c-.322.91-.882 1.96-1.484 2.618Zm2.464-4.858v.574c0 .644-.126.91-.574 1.078-.448.182-1.05.182-1.862.182-.084-.378-.28-.812-.448-1.134.49.028 1.008.028 1.162.028.168-.014.21-.042.21-.196v-.448c-.91.056-1.778.098-2.492.14l-.098-1.134c.714-.028 1.624-.07 2.59-.112v-.588h.042c.224-.084.476-.196.714-.308h-2.87v-.98h4.48l.28-.07.812.686c-.574.392-1.26.77-1.946 1.078v.098l2.17-.112-.014 1.078-2.156.14Zm-.154 2.338 1.554-.154c.182.784.322 1.806.336 2.422l-1.666.21c0-.63-.084-1.68-.224-2.478Zm2.87-.014 1.582-.252c.322.756.644 1.764.756 2.408l-1.68.322c-.084-.644-.364-1.694-.658-2.478Zm3.206-7h-.798c0 .784-.042 1.554-.196 2.338.42.322.798.658 1.078.952-.056-.882-.07-1.988-.084-3.29Zm-.798-1.4h2.31c-.042 4.214-.098 6.314.364 6.314.168 0 .224-.798.238-1.722.266.336.616.77.91.98-.112 1.512-.378 2.17-1.26 2.17-1.064 0-1.484-.882-1.652-2.688l-.7 1.12a7.493 7.493 0 0 0-.882-.896c-.406.966-1.092 1.89-2.142 2.702-.238-.322-.728-.728-1.078-.98 1.078-.84 1.68-1.778 2.016-2.744-.42-.336-.84-.63-1.246-.896l.77-1.148c.266.168.546.35.826.532.056-.462.07-.896.07-1.344h-1.176v-1.4h1.176v-2.086h1.456v2.086Zm.448 8.358 1.554-.392c.504.77 1.092 1.862 1.358 2.562l-1.68.462c-.182-.7-.742-1.806-1.232-2.632Zm8.302-3.08v.952h1.736v-.952h-1.736Zm1.736-4.242h-1.736v.812h1.736v-.812Zm-1.736 2.086v.882h1.736v-.882h-1.736Zm4.116 3.108V32.9h-6.874v-1.456h1.26V26.25h-1.092v-1.456h1.092V23.31h1.498v1.484h1.736V23.31h1.526v1.484h.952v1.456h-.952v5.194h.854Zm-5.138 1.554 1.554.462c-.49 1.022-1.316 2.114-2.072 2.8a9.398 9.398 0 0 0-1.33-.994c.728-.546 1.456-1.428 1.848-2.268Zm7.252-2.898H220v-1.722h-2.016v.518c0 .364 0 .77-.014 1.204Zm2.03-4.83h-2.016v1.638H220V25.27Zm1.61-1.512V34.37c0 .826-.154 1.26-.644 1.526s-1.204.308-2.24.294c-.056-.434-.266-1.162-.476-1.582.602.042 1.274.028 1.47.028.21 0 .28-.07.28-.294v-2.758h-2.128c-.154 1.652-.504 3.402-1.26 4.662-.266-.294-.952-.798-1.316-.938.042-.084.098-.154.14-.238l-1.162.658c-.28-.546-.952-1.47-1.498-2.114l1.26-.686c.504.56 1.162 1.33 1.512 1.904.812-1.75.882-4.116.882-5.936v-5.138h5.18Z" fill="#231815"/><g clip-path="url(#clip0_0_1)"><path d="M228.077 25.598c-.205-.495-.248-.973-.048-1.462a1.78 1.78 0 0 1 .726-.861c.55-.342 1.449-.478 2.247.273.748-.73 1.717-.66 2.351-.203a1.8 1.8 0 0 1 .57 2.236c.025.038.065.023.098.023l.748-.003 1.341.002c.33 0 .616.117.855.338.219.202.356.451.394.75.011.083.018.167.018.25.001.542.007 1.083-.002 1.624-.008.503-.236.885-.674 1.136-.014.008-.028.019-.044.021-.08.014-.097.063-.097.14.003 1.475.003 2.948.004 4.423 0 .422-.01.842 0 1.264a1.433 1.433 0 0 1-1.427 1.45h-8.292a1.427 1.427 0 0 1-1.406-1.388l-.005-1.818v-3.898c0-.082-.014-.156-.114-.174-.429-.252-.685-.617-.693-1.125a49.128 49.128 0 0 1 .001-1.76c.009-.447.215-.799.593-1.042a1.147 1.147 0 0 1 .671-.193l2.061.002c.034 0 .069-.003.123-.005h.001Zm3.43 10.386c.026.003.042.006.058.006h3.576c.215 0 .37-.13.401-.343.01-.07.01-.143.01-.213V30c0-.022 0-.045-.002-.068-.001-.045-.02-.071-.07-.072-.091-.001-.182-.01-.272-.01-.305-.003-.609-.003-.914-.003-.894 0-1.788 0-2.682.002-.106 0-.11.006-.109.11v.067l.002 5.85v.106l.002.001Zm-5.052-6.131c-.003.04-.007.065-.007.09v5.354c0 .114.001.227.004.34a.32.32 0 0 0 .064.18c.09.123.212.174.36.174h3.612c.003-.04.007-.072.007-.103l-.001-.214v-5.588l-.001-.136c-.003-.076-.01-.085-.083-.087-.188-.006-.376-.014-.563-.014-.875-.002-1.75-.001-2.625 0-.252 0-.504.002-.769.004h.002Zm4.028-.997c.004-.042.011-.073.011-.104 0-.661.001-1.321-.001-1.982 0-.148.03-.153-.154-.153l-4.315-.002c-.052 0-.105-.004-.155.005a.414.414 0 0 0-.143.05c-.075.048-.094.125-.094.212.002.553.001 1.108.001 1.662l.001.067a.23.23 0 0 0 .136.198.535.535 0 0 0 .245.044l4.247.003h.221Zm1.026-2.223v2.205c.025.006.046.014.067.015.091.003.181.003.272.003h4.015c.065 0 .13.002.195-.003.223-.017.311-.113.311-.337v-1.564a.631.631 0 0 0-.007-.107c-.021-.125-.123-.237-.269-.228-.074.005-.15-.002-.224-.002h-2.993c-.405 0-.81.003-1.215.005-.048 0-.096.008-.15.013h-.002Zm.01-1.038c.047.001.095.005.141.004.243-.002.485.006.727-.01a.79.79 0 0 0 .647-1.106c-.184-.435-.818-.652-1.252-.288a.7.7 0 0 0-.275.574c.005.255.002.51.002.766 0 .016.006.032.01.059Zm-1.504 0v.007h.388c.08-.001.088-.01.089-.092 0-.227.002-.454-.002-.68a1.063 1.063 0 0 0-.029-.259.702.702 0 0 0-.205-.325.783.783 0 0 0-.665-.228.823.823 0 0 0-.693.812.799.799 0 0 0 .719.763c.132.013.265.002.398.002Z" fill="#231815"/></g><path d="M274.154 26.18v1.876h-1.652v-3.472h5.11c-.14-.378-.308-.756-.476-1.092l1.708-.504c.28.49.574 1.078.756 1.596h4.83v3.472h-1.75V26.18h-8.526Zm7.882 2.548h-7.238v-1.54h7.238v1.54Zm-.49 5.768h1.344c.448 0 .518-.238.588-1.68.336.252 1.036.518 1.498.63-.182 2.03-.616 2.576-1.932 2.576h-1.75c-1.624 0-2.016-.504-2.016-2.016v-2.688h-1.876c-.182 2.674-.84 4.172-4.536 4.9-.126-.42-.56-1.078-.882-1.414 3.164-.518 3.584-1.47 3.71-3.486h-3.458V29.75h12.474v1.568h-3.738v2.674c0 .448.084.504.574.504Zm8.876-6.314h6.804a18.26 18.26 0 0 1-3.36-3.066c-.924 1.078-2.17 2.17-3.444 3.066Zm4.284 4.508v1.694h5.18v1.484h-11.914v-1.484h4.998V32.69h-3.626v-1.442h3.626v-1.596h-2.94v-1.204a17.29 17.29 0 0 1-1.778 1.05c-.238-.406-.644-.98-1.022-1.344 1.554-.63 3.29-1.792 4.606-3.038h-1.862v-1.54h4.788c1.204 1.764 3.444 3.528 5.824 4.396-.35.364-.868 1.05-1.12 1.526-.602-.28-1.19-.616-1.764-.994v1.148h-2.996v1.596h3.668v1.442h-3.668Zm10.794-2.198v.952h1.736v-.952H305.5Zm1.736-4.242H305.5v.812h1.736v-.812Zm-1.736 2.086v.882h1.736v-.882H305.5Zm4.116 3.108V32.9h-6.874v-1.456h1.26V26.25h-1.092v-1.456h1.092V23.31h1.498v1.484h1.736V23.31h1.526v1.484h.952v1.456h-.952v5.194h.854Zm-5.138 1.554 1.554.462c-.49 1.022-1.316 2.114-2.072 2.8a9.398 9.398 0 0 0-1.33-.994c.728-.546 1.456-1.428 1.848-2.268Zm7.252-2.898h2.03v-1.722h-2.016v.518c0 .364 0 .77-.014 1.204Zm2.03-4.83h-2.016v1.638h2.016V25.27Zm1.61-1.512V34.37c0 .826-.154 1.26-.644 1.526s-1.204.308-2.24.294c-.056-.434-.266-1.162-.476-1.582.602.042 1.274.028 1.47.028.21 0 .28-.07.28-.294v-2.758h-2.128c-.154 1.652-.504 3.402-1.26 4.662-.266-.294-.952-.798-1.316-.938.042-.084.098-.154.14-.238l-1.162.658c-.28-.546-.952-1.47-1.498-2.114l1.26-.686c.504.56 1.162 1.33 1.512 1.904.812-1.75.882-4.116.882-5.936v-5.138h5.18Z" fill="#231815"/><defs><clipPath id="clip0_0_1"><path fill="#fff" transform="translate(224.62 23)" d="M0 0h12.759v14H0z"/></clipPath></defs></svg>