<svg fill="none" xmlns="http://www.w3.org/2000/svg" viewBox="0 0 108 101"><g clip-path="url(#clip0_1047_30497)" fill-rule="evenodd" clip-rule="evenodd" stroke="#231815" stroke-width="2" stroke-miterlimit="10"><path d="M25.675 12.21c-.21 5.317 2.665 9.867 8.68 13.3h16.4c-7.913-5.038-13.775-9.825-14.222-14.096-.46-4.424 2.875-6.699 7.258-3.405 5.373 4.033 7.55 11.877 9.337 17.516v-5.5C46.205-5.32 26.163-.308 25.675 12.21Zm29.183 7.802v5.499c1.787-5.639 3.964-13.483 9.337-17.516C68.578 4.7 71.913 6.99 71.453 11.4c-.433 4.285-6.309 9.058-14.222 14.097H73.63c6.015-3.434 8.89-7.97 8.681-13.301-.488-12.52-20.53-17.53-27.467 7.802l.014.014Z" fill="#fff"/><path d="M4.935 25.51h98.116a3.425 3.425 0 0 1 3.419 3.42v8.248a3.425 3.425 0 0 1-3.419 3.42H4.935a3.425 3.425 0 0 1-3.42-3.42V28.93a3.425 3.425 0 0 1 3.42-3.42Z" fill="#E2CCAF"/><path d="M6.945 40.347h94.11V94.4a4.464 4.464 0 0 1-4.452 4.452h-85.22A4.464 4.464 0 0 1 6.931 94.4V40.347h.014Z" fill="#E2CCAF"/><path d="M53.993 40.347h47.048V94.4a4.464 4.464 0 0 1-4.452 4.452H58.43a4.464 4.464 0 0 1-4.452-4.452V40.347h.014Z" fill="#E2CCAF"/><path d="M53.993 25.51h49.058a3.425 3.425 0 0 1 3.419 3.42v8.248a3.425 3.425 0 0 1-3.419 3.42H53.993a3.425 3.425 0 0 1-3.42-3.42V28.93a3.425 3.425 0 0 1 3.42-3.42Z" fill="#E2CCAF"/><path d="M25.773 40.598h9.392v54.054a4.464 4.464 0 0 0 4.453 4.452h-9.393a4.464 4.464 0 0 1-4.453-4.452V40.598Zm56.454 0h-9.392v54.054a4.464 4.464 0 0 1-4.453 4.452h9.393a4.464 4.464 0 0 0 4.452-4.452V40.598ZM25.772 25.51h9.393a3.425 3.425 0 0 0-3.42 3.42v8.248a3.425 3.425 0 0 0 3.42 3.42h-9.393a3.425 3.425 0 0 1-3.419-3.42V28.93a3.425 3.425 0 0 1 3.42-3.42Zm56.455 0h-9.392a3.425 3.425 0 0 1 3.419 3.42v8.248a3.425 3.425 0 0 1-3.42 3.42h9.393a3.425 3.425 0 0 0 3.42-3.42V28.93a3.425 3.425 0 0 0-3.42-3.42Zm-35.212 0h13.97v-4.843a3.33 3.33 0 0 0-3.321-3.321h-7.328a3.33 3.33 0 0 0-3.321 3.321v4.843Z" fill="#fff"/></g><defs><clipPath id="clip0_1047_30497"><path fill="#fff" transform="translate(.12 .5)" d="M0 0h107.76v100H0z"/></clipPath></defs></svg>