<svg fill="none" xmlns="http://www.w3.org/2000/svg" viewBox="0 0 37 31"><path d="m21.14 4.44 2.372-1.545c.035-.023.017-.075-.024-.074l-1.39.054L25.012.07c.033-.031-.003-.084-.043-.064l-3.863 1.767.57-1.245c.017-.037-.025-.073-.058-.05l-2.759 1.866 1.263-.03-.129.877 1.409-.122-.262 1.374.002-.001Z" fill="url(#paint0_linear_799_31783)"/><path d="m33.336 19.969 1.918-1.322c.043-.03.02-.098-.032-.095l-1.12.056 2.067-1.853c.042-.037.001-.108-.053-.088l-2.6.926.586-.9a.052.052 0 0 0-.056-.079l-1.842.546.847.403-.585 1.038 1.052.25-.18 1.118h-.002Z" fill="url(#paint1_linear_799_31783)"/><path d="m32.057 9.338 2.066-1.829c.042-.037.01-.108-.046-.099l-1.23.202 2.6-2.312c.048-.042 0-.118-.058-.096l-3.52 1.35.86-1.308c.03-.046-.016-.105-.069-.084l-2.927 1.205 1.638.446-.569 1.21h1.417l-.162 1.313v.002Z" fill="url(#paint2_linear_799_31783)"/><path d="m13.579 7.024 5.748-2.066a.72.72 0 0 1 .884.345c.229.444.58 1.02.942 1.245.622.385 4.059-1.365 4.842-.771.783.594-.159 1.654.24 2.152.4.496 3.453-.418 4.188.496.735.916-.575 2.746-.304 3.355.273.61 2.67.723 2.83 1.573.159.85-.191 1.524-2.653 4.944-.752 1.123 1.23.964 1.262 1.798.032.835-6.205 8.158-14.456 9.538-8.25 1.38-13.016-2.367-15.177-6.609-2.16-4.24-.384-10.022 7.43-14.542a260.138 260.138 0 0 1 2.793-6.058.197.197 0 0 1 .37.042l1.06 4.558Z" fill="#FFE600"/><path d="M8.462 10.532c.286-.674.588-1.366.892-2.05a259.393 259.393 0 0 1 2.795-6.058.197.197 0 0 1 .37.042l1.06 4.558.723 3.11" stroke="#333434" stroke-miterlimit="10"/><path d="M9.354 8.482c-7.813 4.52-9.59 10.302-7.429 14.543 2.161 4.241 6.926 7.989 15.177 6.608 8.25-1.38 14.488-8.703 14.456-9.538-.031-.834-2.014-.675-1.262-1.798 2.462-3.42 2.812-4.093 2.653-4.944-.16-.85-2.557-.963-2.83-1.573-.27-.609 1.04-2.439.304-3.355-.735-.914-3.788 0-4.188-.496-.398-.498.543-1.558-.24-2.152-.783-.594-4.22 1.157-4.843.772-.362-.226-.712-.802-.941-1.245a.72.72 0 0 0-.884-.346l-5.749 2.066" stroke="#333434" stroke-miterlimit="10"/><path d="M14.5 18.073a1.26 1.26 0 0 1-1.255-1.26c0-.695.563-1.26 1.255-1.26.691 0 1.253.565 1.253 1.26 0 .695-.563 1.26-1.254 1.26Z" fill="#333434"/><path d="M14.5 15.63a1.183 1.183 0 0 1-.001 2.366c-.65 0-1.178-.53-1.178-1.183s.528-1.184 1.178-1.184Zm0-.151a1.334 1.334 0 0 0 0 2.668c.731 0 1.327-.599 1.327-1.334 0-.735-.596-1.334-1.328-1.334Zm-7.922 2.594a1.258 1.258 0 0 1-1.253-1.26c0-.695.563-1.26 1.253-1.26a1.26 1.26 0 0 1 0 2.52Z" fill="#333434"/><path d="M6.578 15.63c.651 0 1.178.53 1.178 1.183 0 .652-.528 1.183-1.178 1.183a1.183 1.183 0 0 1 0-2.367Zm0-.151c-.733 0-1.328.599-1.328 1.334 0 .735.595 1.334 1.328 1.334.732 0 1.328-.599 1.328-1.334 0-.735-.596-1.334-1.328-1.334Z" fill="#333434"/><defs><linearGradient id="paint0_linear_799_31783" x1="19.303" y1="3.372" x2="24.482" y2=".055" gradientUnits="userSpaceOnUse"><stop stop-color="#00C7FF" stop-opacity=".1"/><stop offset=".36" stop-color="#FFD600" stop-opacity=".43"/><stop offset=".67" stop-color="#FFD600" stop-opacity=".69"/><stop offset=".89" stop-color="#FFD600" stop-opacity=".84"/><stop offset="1" stop-color="#FFD600" stop-opacity=".9"/></linearGradient><linearGradient id="paint1_linear_799_31783" x1="32.491" y1="19.16" x2="36.12" y2="17.173" gradientUnits="userSpaceOnUse"><stop stop-color="#00C7FF" stop-opacity=".1"/><stop offset=".36" stop-color="#FFD600" stop-opacity=".43"/><stop offset=".67" stop-color="#FFD600" stop-opacity=".69"/><stop offset=".89" stop-color="#FFD600" stop-opacity=".84"/><stop offset="1" stop-color="#FFD600" stop-opacity=".9"/></linearGradient><linearGradient id="paint2_linear_799_31783" x1="30.146" y1="8.33" x2="34.996" y2="5.262" gradientUnits="userSpaceOnUse"><stop stop-color="#00C7FF" stop-opacity=".1"/><stop offset=".36" stop-color="#FFD600" stop-opacity=".43"/><stop offset=".67" stop-color="#FFD600" stop-opacity=".69"/><stop offset=".89" stop-color="#FFD600" stop-opacity=".84"/><stop offset="1" stop-color="#FFD600" stop-opacity=".9"/></linearGradient></defs></svg>