<svg fill="none" xmlns="http://www.w3.org/2000/svg" viewBox="0 0 301 301"><path d="m300.194 143.445-1.809-17.196-132.962 21.026 130.045-34.88-5.344-16.447-125.684 48.207 119.948-61.157-8.649-14.976-112.914 73.286L267.437 56.55l-11.574-12.848-95.212 95.16 84.703-104.658-13.988-10.162-73.345 112.877L219.132 16.93l-15.797-7.033-48.272 125.661 34.81-130.064L172.959 1.9l-21.095 132.957L158.879.39h-17.292l7.01 134.434-21.1-132.98-16.913 3.595 34.806 130.04L97.108 9.786 81.311 16.82l61.084 119.962L69.03 23.876 55.044 34.038l84.689 104.639-95.235-95.183-11.57 12.852 104.594 84.745L24.584 67.787 15.94 82.762l119.929 61.144L10.153 95.689l-5.344 16.448 130.022 34.875L1.837 125.977l-1.81 17.2 134.43 7.079L0 157.336l1.81 17.2 132.965-21.026-130.05 34.884 5.345 16.448 125.688-48.212-119.956 61.157 8.648 14.976 112.919-73.291-104.617 84.763 11.57 12.853 95.211-95.165-84.707 104.663 13.988 10.162 73.345-112.882L81.062 283.85l15.797 7.033 48.272-125.66-34.815 130.063 16.914 3.595 21.09-132.952-7.01 134.461h17.292l-7.01-134.438 21.095 132.984 16.914-3.595-34.811-130.04 48.287 125.688 15.797-7.033L157.79 164l73.359 112.905 13.988-10.167-84.689-104.635 95.23 95.179 11.57-12.853-104.594-84.744 112.937 73.304 8.649-14.976-119.924-61.143 125.711 48.217 5.344-16.443-130.017-34.876 132.989 21.031 1.805-17.2-134.429-7.08 134.456-7.084.019.01Z" fill="url(#paint0_radial_1038_29687)"/><defs><radialGradient id="paint0_radial_1038_29687" cx="0" cy="0" r="1" gradientUnits="userSpaceOnUse" gradientTransform="translate(150.097 150.39) scale(150.051)"><stop stop-color="#FFE600"/><stop offset="1" stop-color="#FFE600" stop-opacity="0"/></radialGradient></defs></svg>