<svg fill="none" xmlns="http://www.w3.org/2000/svg" viewBox="0 0 200 200"><g clip-path="url(#clip0_1032_28535)"><path d="M192.68 91.21c0-4.87-1.99-9.67-2.68-14.46-.29-2.05-.12-4.35-.16-6.58-47.34 29.64-62.78 37.74-94.43 59.31-10.85 7.39-20.04 14.18-27.94 19.75-6.95 4.9-12.73 8.86-16.57 11.22-3.96 2.44-5.83 3.19-8.24 4.46-1.15.6-2.42 1.35-3.86 2.26-.36.23-.74.47-1.13.73l2.77 2.59c.44-.23.88-.44 1.29-.64 1.61-.76 3.05-1.36 4.37-1.8 2.78-.94 5.02-1.35 9.45-3.35 4.3-1.94 10.64-5.4 18.2-9.75 8.6-4.94 18.49-11.1 30.42-17.55 30.51-16.51 47.98-23.12 87.65-41.2.54-1.61.87-3.27.87-4.98l-.01-.01Z" fill="#368AA5"/><path d="M188.97 65.11c-2.34-5.42-9.64-8.39-13.35-12.96-.72-.88-1.32-1.79-1.87-2.72-44.7 37.04-57.68 47.15-87.07 72.15-9.79 8.33-18.27 15.74-25.47 21.94-6.33 5.45-11.56 9.91-14.94 12.69-3.48 2.86-4.99 3.96-7.04 5.56-.97.76-2.08 1.66-3.36 2.73-.31.26-.64.53-.97.81l2.77 2.59c.39-.26.77-.5 1.13-.73 1.45-.91 2.72-1.66 3.86-2.26 2.41-1.27 4.29-2.02 8.24-4.46 3.84-2.36 9.62-6.32 16.57-11.22 7.9-5.57 17.08-12.36 27.94-19.75 31.66-21.57 47.1-29.66 94.43-59.31-.03-1.78-.21-3.51-.87-5.05v-.01Z" fill="#FFE600"/><path d="M170.21 37.56c-.53-5.51.45-10.45-5.2-13.04a305.9 305.9 0 0 1-3.73-1.73c-30.6 33.6-50.5 56.15-66.3 73.5-14.51 15.92-26.3 28.23-35.44 37.28-5.11 5.05-9.58 9.29-13.42 13.25-4.82 4.97-8.46 9.33-11.63 13.02-.83.97-1.65 1.91-2.45 2.81l2.84 2.66c.34-.28.66-.56.97-.81 1.28-1.06 2.39-1.96 3.36-2.73 2.05-1.61 3.56-2.7 7.04-5.56 3.38-2.78 8.61-7.24 14.94-12.69 7.2-6.19 15.68-13.6 25.47-21.94 29.39-25.01 42.37-35.11 87.07-72.15-2.13-3.59-3.12-7.55-3.53-11.86l.01-.01Z" fill="#368AA5"/><path d="M150.38 15.13c-2.21-2.37-4.25-4.55-7.47-5.46-2.13-.6-4.28-.68-6.44-.53C101.01 60 93.05 74.35 69.3 105.84c-7.7 10.21-14.77 18.85-20.58 26.29-5.11 6.55-9.25 12-11.71 15.62-2.54 3.73-3.32 5.49-4.64 7.76-.63 1.08-1.41 2.28-2.36 3.65-.21.31-.44.63-.68.96l2.71 2.53c.8-.9 1.62-1.85 2.45-2.81 3.17-3.69 6.81-8.06 11.63-13.02 3.84-3.96 8.31-8.19 13.42-13.25 9.14-9.04 20.93-21.36 35.44-37.28 15.81-17.34 35.71-39.89 66.3-73.5-4.06-1.95-7.44-3.95-10.9-7.66Z" fill="#FFE600"/><path d="M128.79 10.24c-7.74 1.17-14.58.14-21.94-1.67-21.59 42.56-28.01 59-46.2 89.44-6.66 11.14-13.03 20.39-18.15 28.44-4.51 7.09-8.09 13.04-10.1 17.07-2.07 4.15-2.48 6.26-3.44 8.86-.46 1.24-1.08 2.59-1.86 4.1-.17.33-.36.67-.55 1.02l2.78 2.6c.24-.33.47-.65.68-.96.95-1.37 1.73-2.56 2.36-3.65 1.32-2.27 2.1-4.04 4.64-7.76 2.46-3.62 6.6-9.07 11.71-15.62 5.81-7.43 12.88-16.07 20.58-26.29 23.75-31.49 31.71-45.84 67.17-96.7-2.57.19-5.15.71-7.69 1.1l.01.02Z" fill="#368AA5"/><path d="M104.55 7.99c-8.51-2.22-17.17-.31-23.44 4.73-11.2 32.43-16.23 49.87-29.1 77.49-5.62 12.06-11.29 21.93-15.72 30.59-3.9 7.63-6.94 14.07-8.49 18.52-1.6 4.59-1.65 7.03-2.25 9.96-.29 1.4-.74 2.89-1.36 4.56-.13.35-.27.71-.43 1.07l2.79 2.6c.19-.35.38-.69.55-1.02.79-1.52 1.4-2.86 1.86-4.1.96-2.6 1.38-4.71 3.44-8.86 2.01-4.03 5.59-9.98 10.1-17.07 5.12-8.05 11.49-17.3 18.15-28.44 18.19-30.45 24.61-46.89 46.2-89.44-.76-.19-1.52-.38-2.3-.58v-.01Z" fill="#FFE600"/><path d="m42.61 142.02 4.45-2.89c.06-.04.03-.14-.04-.14l-2.61.1 5.46-5.24c.06-.06 0-.16-.08-.12l-7.25 3.3 1.07-2.33c.03-.07-.05-.14-.11-.09l-5.17 3.48 2.37-.06-.24 1.64 2.64-.23-.49 2.57v.01Z" fill="url(#paint0_linear_1032_28535)"/><path d="m65.48 171.02 3.6-2.47c.08-.06.04-.18-.06-.18l-2.1.1 3.87-3.46c.08-.07 0-.2-.1-.17l-4.88 1.73 1.1-1.68c.05-.08-.02-.17-.11-.15l-3.45 1.02 1.59.75-1.1 1.94 1.97.47-.34 2.09.01.01Z" fill="url(#paint1_linear_1032_28535)"/><path d="m63.09 151.16 3.88-3.42c.08-.07.02-.2-.09-.18l-2.31.38 4.88-4.32c.09-.08 0-.22-.11-.18l-6.6 2.52 1.61-2.44c.06-.09-.03-.2-.13-.16l-5.49 2.25 3.07.83-1.07 2.26h2.66l-.3 2.45v.01Z" fill="url(#paint2_linear_1032_28535)"/><path d="m28.43 146.84 10.78-3.86c.64-.23 1.35.04 1.66.65.43.83 1.08 1.9 1.77 2.32 1.17.72 7.61-2.55 9.08-1.44 1.47 1.11-.3 3.09.45 4.02.75.93 6.48-.78 7.85.93 1.38 1.71-1.08 5.13-.57 6.27.51 1.14 5.01 1.35 5.3 2.94.3 1.59-.36 2.85-4.98 9.23-1.41 2.1 2.31 1.8 2.37 3.36.06 1.56-11.64 15.23-27.11 17.82-15.47 2.58-24.41-4.42-28.46-12.34-4.05-7.92-.72-18.72 13.93-27.16 2.13-4.79 4.32-9.39 5.24-11.31.15-.32.62-.26.7.08l1.99 8.51v-.02Z" fill="#FFE600"/><path d="M18.84 153.39c.54-1.26 1.1-2.55 1.67-3.83 2.13-4.79 4.32-9.39 5.24-11.31.15-.32.62-.26.7.08l1.99 8.51 1.36 5.81" stroke="#231815" stroke-miterlimit="10"/><path d="M20.51 149.57c-14.65 8.44-17.98 19.24-13.93 27.16 4.05 7.92 12.99 14.92 28.46 12.34s27.17-16.26 27.11-17.82c-.06-1.56-3.78-1.26-2.37-3.36 4.62-6.39 5.28-7.64 4.98-9.23-.3-1.59-4.8-1.8-5.3-2.94-.51-1.14 1.95-4.55.57-6.27-1.38-1.71-7.1 0-7.85-.93s1.02-2.91-.45-4.02c-1.47-1.11-7.91 2.16-9.08 1.44-.68-.42-1.34-1.5-1.77-2.32-.31-.6-1.02-.87-1.66-.65l-10.78 3.86" stroke="#231815" stroke-miterlimit="10"/><path d="M30.16 167.84c-1.5 0-2.71-1.22-2.71-2.71s1.22-2.71 2.71-2.71 2.71 1.22 2.71 2.71-1.22 2.71-2.71 2.71Z" fill="#231815"/><path d="M30.16 162.91a2.21 2.21 0 1 1-.001 4.421 2.21 2.21 0 0 1 .001-4.421Zm0-1c-1.77 0-3.21 1.44-3.21 3.21s1.44 3.21 3.21 3.21 3.21-1.44 3.21-3.21-1.44-3.21-3.21-3.21Zm-14.86 5.93c-1.5 0-2.71-1.22-2.71-2.71s1.22-2.71 2.71-2.71 2.71 1.22 2.71 2.71-1.22 2.71-2.71 2.71Z" fill="#231815"/><path d="M15.3 162.91a2.21 2.21 0 1 1-.002 4.421 2.21 2.21 0 0 1 .002-4.421Zm0-1c-1.77 0-3.21 1.44-3.21 3.21s1.44 3.21 3.21 3.21 3.21-1.44 3.21-3.21-1.44-3.21-3.21-3.21Z" fill="#231815"/><path d="m62.09 58.61 4.45-2.89c.06-.04.03-.14-.04-.14l-2.61.1 5.46-5.24c.06-.06 0-.16-.08-.12l-7.25 3.3 1.07-2.33c.03-.07-.05-.14-.11-.09l-5.17 3.48 2.37-.06-.24 1.64 2.64-.23-.49 2.57v.01Z" fill="url(#paint3_linear_1032_28535)"/><path d="m84.96 87.61 3.6-2.47c.08-.06.04-.18-.06-.18l-2.1.1 3.87-3.46c.08-.07 0-.2-.1-.17l-4.88 1.73 1.1-1.68c.05-.08-.02-.17-.11-.15l-3.45 1.02 1.59.75-1.1 1.94 1.97.47-.34 2.09.01.01Z" fill="url(#paint4_linear_1032_28535)"/><path d="m82.57 67.76 3.88-3.42c.08-.07.02-.2-.09-.18l-2.31.38 4.88-4.32c.09-.08 0-.22-.11-.18l-6.6 2.52 1.61-2.44c.06-.09-.03-.2-.13-.16l-5.49 2.25 3.07.83-1.07 2.26h2.66l-.3 2.45v.01Z" fill="url(#paint5_linear_1032_28535)"/><path d="m47.91 63.44 10.78-3.86c.63-.23 1.35.04 1.66.65.43.83 1.09 1.9 1.77 2.32 1.17.72 7.62-2.55 9.08-1.44 1.46 1.11-.3 3.09.45 4.02.75.93 6.47-.78 7.85.93s-1.08 5.13-.57 6.27c.51 1.14 5.01 1.35 5.31 2.94.3 1.59-.36 2.85-4.98 9.23-1.41 2.1 2.31 1.8 2.37 3.36.06 1.56-11.64 15.24-27.11 17.82-15.47 2.58-24.41-4.42-28.46-12.34-4.05-7.92-.72-18.72 13.93-27.16 2.13-4.79 4.32-9.39 5.24-11.31.15-.32.62-.26.69.08l1.99 8.51v-.02Z" fill="#E68169"/><path d="M38.31 69.99c.54-1.26 1.1-2.55 1.67-3.83 2.13-4.79 4.32-9.39 5.24-11.31.15-.32.62-.26.69.08l1.99 8.51 1.36 5.81" stroke="#231815" stroke-miterlimit="10"/><path d="M39.99 66.16C25.34 74.6 22.01 85.4 26.06 93.32c4.05 7.92 12.99 14.92 28.46 12.34s27.17-16.25 27.11-17.82c-.06-1.56-3.78-1.26-2.37-3.36 4.62-6.39 5.28-7.64 4.98-9.23-.3-1.59-4.8-1.8-5.31-2.94-.51-1.14 1.95-4.55.57-6.27-1.38-1.71-7.1 0-7.85-.93s1.02-2.91-.45-4.02c-1.47-1.11-7.91 2.16-9.08 1.44-.68-.42-1.34-1.49-1.77-2.32-.31-.6-1.02-.87-1.66-.65l-10.78 3.86" stroke="#231815" stroke-miterlimit="10"/><path d="M49.64 84.43c-1.5 0-2.71-1.22-2.71-2.71s1.22-2.71 2.71-2.71 2.71 1.22 2.71 2.71-1.22 2.71-2.71 2.71Z" fill="#231815"/><path d="M49.64 79.51a2.21 2.21 0 1 1-.001 4.421 2.21 2.21 0 0 1 .001-4.421Zm0-1c-1.77 0-3.21 1.44-3.21 3.21s1.44 3.21 3.21 3.21 3.21-1.44 3.21-3.21-1.44-3.21-3.21-3.21Zm-14.86 5.92c-1.5 0-2.71-1.22-2.71-2.71s1.22-2.71 2.71-2.71 2.71 1.22 2.71 2.71-1.22 2.71-2.71 2.71Z" fill="#231815"/><path d="M34.78 79.51a2.21 2.21 0 1 1-.002 4.421 2.21 2.21 0 0 1 .002-4.421Zm0-1c-1.77 0-3.21 1.44-3.21 3.21s1.44 3.21 3.21 3.21 3.21-1.44 3.21-3.21-1.44-3.21-3.21-3.21Z" fill="#231815"/><path d="m145.86 37.19 4.45-2.89c.06-.04.03-.14-.04-.14l-2.61.1 5.46-5.24c.06-.06 0-.16-.08-.12l-7.25 3.3 1.07-2.33c.03-.07-.05-.14-.11-.09l-5.17 3.48 2.37-.06-.24 1.64 2.64-.23-.49 2.57v.01Z" fill="url(#paint6_linear_1032_28535)"/><path d="m168.73 66.19 3.6-2.47c.08-.06.04-.18-.06-.18l-2.1.1 3.87-3.46c.08-.07 0-.2-.1-.17l-4.88 1.73 1.1-1.68c.05-.08-.02-.17-.11-.15l-3.45 1.02 1.59.75-1.1 1.94 1.97.47-.34 2.09.01.01Z" fill="url(#paint7_linear_1032_28535)"/><path d="m166.33 46.33 3.88-3.42c.08-.07.02-.2-.09-.18l-2.31.38 4.88-4.32c.09-.08 0-.22-.11-.18l-6.6 2.52 1.61-2.44c.06-.09-.03-.2-.13-.16l-5.49 2.25 3.07.83-1.07 2.26h2.66l-.3 2.45v.01Z" fill="url(#paint8_linear_1032_28535)"/><path d="m131.67 42.02 10.78-3.86c.64-.23 1.35.04 1.66.64.43.83 1.08 1.91 1.77 2.33 1.17.72 7.61-2.55 9.08-1.44 1.47 1.11-.3 3.09.45 4.02.75.93 6.48-.78 7.85.93 1.38 1.71-1.08 5.13-.57 6.27.51 1.14 5.01 1.35 5.3 2.94.3 1.59-.36 2.85-4.98 9.23-1.41 2.1 2.31 1.8 2.37 3.36.06 1.56-11.64 15.23-27.11 17.81-15.47 2.58-24.41-4.42-28.46-12.34-4.05-7.92-.72-18.71 13.93-27.16 2.13-4.79 4.32-9.39 5.24-11.31.15-.31.62-.26.7.08l1.99 8.51v-.01Z" fill="#74D194"/><path d="M122.08 48.57c.54-1.26 1.1-2.55 1.67-3.83 2.13-4.79 4.32-9.39 5.24-11.31.15-.31.62-.26.7.08l1.99 8.51 1.36 5.81" stroke="#231815" stroke-miterlimit="10"/><path d="M123.75 44.74c-14.65 8.44-17.98 19.24-13.93 27.16 4.05 7.92 12.99 14.92 28.46 12.34s27.17-16.25 27.11-17.81c-.06-1.56-3.78-1.26-2.37-3.36 4.62-6.38 5.28-7.64 4.98-9.23-.3-1.59-4.79-1.8-5.3-2.94-.51-1.14 1.95-4.56.57-6.27s-7.1 0-7.85-.93 1.02-2.91-.45-4.02c-1.47-1.11-7.91 2.16-9.08 1.44-.68-.42-1.34-1.5-1.77-2.33-.31-.6-1.02-.87-1.66-.64l-10.78 3.86" stroke="#231815" stroke-miterlimit="10"/><path d="M133.4 63.01c-1.5 0-2.71-1.22-2.71-2.71s1.22-2.71 2.71-2.71 2.71 1.22 2.71 2.71-1.22 2.71-2.71 2.71Z" fill="#231815"/><path d="M133.4 58.09a2.21 2.21 0 1 1-.001 4.422 2.21 2.21 0 0 1 .001-4.422Zm0-1c-1.77 0-3.21 1.44-3.21 3.21s1.44 3.21 3.21 3.21 3.21-1.44 3.21-3.21-1.44-3.21-3.21-3.21Zm-14.86 5.92c-1.5 0-2.71-1.22-2.71-2.71s1.22-2.71 2.71-2.71 2.71 1.22 2.71 2.71-1.22 2.71-2.71 2.71Z" fill="#231815"/><path d="M118.54 58.09a2.21 2.21 0 1 1-.001 4.422 2.21 2.21 0 0 1 .001-4.422Zm0-1c-1.77 0-3.21 1.44-3.21 3.21s1.44 3.21 3.21 3.21 3.21-1.44 3.21-3.21-1.44-3.21-3.21-3.21Z" fill="#231815"/><path d="m137.86 107.19 4.45-2.89c.06-.04.03-.14-.04-.14l-2.61.1 5.46-5.24c.06-.06 0-.16-.08-.12l-7.25 3.3 1.07-2.33c.03-.07-.05-.14-.11-.09l-5.17 3.48 2.37-.06-.24 1.64 2.64-.23-.49 2.57v.01Z" fill="url(#paint9_linear_1032_28535)"/><path d="m160.73 136.19 3.6-2.47c.08-.06.04-.18-.06-.18l-2.1.1 3.87-3.46c.08-.07 0-.2-.1-.17l-4.88 1.73 1.1-1.68c.05-.08-.02-.17-.11-.15l-3.45 1.02 1.59.75-1.1 1.94 1.97.47-.34 2.09.01.01Z" fill="url(#paint10_linear_1032_28535)"/><path d="m158.33 116.33 3.88-3.42c.08-.07.02-.2-.09-.18l-2.31.38 4.88-4.32c.09-.08 0-.22-.11-.18l-6.6 2.52 1.61-2.44c.06-.09-.03-.2-.13-.16l-5.49 2.25 3.07.83-1.07 2.26h2.66l-.3 2.45v.01Z" fill="url(#paint11_linear_1032_28535)"/><path d="m123.67 112.02 10.78-3.86c.63-.23 1.35.04 1.66.65.43.83 1.09 1.9 1.77 2.32 1.17.72 7.61-2.55 9.08-1.44 1.47 1.11-.3 3.09.45 4.02.75.93 6.47-.78 7.85.93s-1.08 5.13-.57 6.27c.51 1.14 5.01 1.35 5.31 2.94.3 1.59-.36 2.85-4.98 9.23-1.41 2.1 2.31 1.8 2.37 3.36.06 1.56-11.64 15.24-27.11 17.82-15.47 2.58-24.41-4.42-28.46-12.34-4.05-7.92-.72-18.72 13.93-27.16 2.13-4.78 4.32-9.39 5.24-11.31.15-.32.62-.26.69.08l1.99 8.51v-.02Z" fill="#F590A8"/><path d="M115.75 114.74c2.13-4.78 4.32-9.39 5.24-11.31.15-.32.62-.26.69.08l1.99 8.51 1.36 5.81m-10.95.74c.54-1.26 1.1-2.55 1.67-3.83" stroke="#231815" stroke-miterlimit="10"/><path d="M115.75 114.74c-14.65 8.44-17.98 19.24-13.93 27.16 4.05 7.92 12.99 14.92 28.46 12.34s27.17-16.26 27.11-17.82c-.06-1.56-3.78-1.26-2.37-3.36 4.62-6.39 5.27-7.64 4.98-9.23-.3-1.59-4.8-1.8-5.31-2.94-.51-1.14 1.95-4.55.57-6.27-1.38-1.71-7.1 0-7.85-.93s1.02-2.91-.45-4.02c-1.47-1.11-7.91 2.16-9.08 1.44-.68-.42-1.34-1.5-1.77-2.32-.31-.6-1.02-.87-1.66-.65L123.67 112" stroke="#231815" stroke-miterlimit="10"/><path d="M125.4 133.01c-1.5 0-2.71-1.22-2.71-2.71s1.22-2.71 2.71-2.71 2.71 1.22 2.71 2.71-1.22 2.71-2.71 2.71Z" fill="#231815"/><path d="M125.4 128.09a2.21 2.21 0 1 1-.001 4.421 2.21 2.21 0 0 1 .001-4.421Zm0-1c-1.77 0-3.21 1.44-3.21 3.21s1.44 3.21 3.21 3.21 3.21-1.44 3.21-3.21-1.44-3.21-3.21-3.21Zm-14.86 5.92c-1.5 0-2.71-1.22-2.71-2.71s1.22-2.71 2.71-2.71 2.71 1.22 2.71 2.71-1.22 2.71-2.71 2.71Z" fill="#231815"/><path d="M110.54 128.09a2.21 2.21 0 1 1-.001 4.421 2.21 2.21 0 0 1 .001-4.421Zm0-1c-1.77 0-3.21 1.44-3.21 3.21s1.44 3.21 3.21 3.21 3.21-1.44 3.21-3.21-1.44-3.21-3.21-3.21Z" fill="#231815"/></g><defs><linearGradient id="paint0_linear_1032_28535" x1="39.5" y1="140.75" x2="49.1" y2="134.31" gradientUnits="userSpaceOnUse"><stop stop-color="#FFE600" stop-opacity=".1"/><stop offset=".36" stop-color="#FFE600" stop-opacity=".43"/><stop offset=".67" stop-color="#FFE600" stop-opacity=".69"/><stop offset=".89" stop-color="#FFE600" stop-opacity=".84"/><stop offset="1" stop-color="#FFE600" stop-opacity=".9"/></linearGradient><linearGradient id="paint1_linear_1032_28535" x1="63.97" y1="168.6" x2="70.44" y2="165.68" gradientUnits="userSpaceOnUse"><stop stop-color="#FFE600" stop-opacity=".1"/><stop offset=".36" stop-color="#FFE600" stop-opacity=".43"/><stop offset=".67" stop-color="#FFE600" stop-opacity=".69"/><stop offset=".89" stop-color="#FFE600" stop-opacity=".84"/><stop offset="1" stop-color="#FFE600" stop-opacity=".9"/></linearGradient><linearGradient id="paint2_linear_1032_28535" x1="59.5" y1="149.28" x2="68.58" y2="143.52" gradientUnits="userSpaceOnUse"><stop stop-color="#FFE600" stop-opacity=".1"/><stop offset=".36" stop-color="#FFE600" stop-opacity=".43"/><stop offset=".67" stop-color="#FFE600" stop-opacity=".69"/><stop offset=".89" stop-color="#FFE600" stop-opacity=".84"/><stop offset="1" stop-color="#FFE600" stop-opacity=".9"/></linearGradient><linearGradient id="paint3_linear_1032_28535" x1="58.98" y1="57.35" x2="68.58" y2="50.91" gradientUnits="userSpaceOnUse"><stop stop-color="#FFE600" stop-opacity=".1"/><stop offset=".36" stop-color="#FFE600" stop-opacity=".43"/><stop offset=".67" stop-color="#FFE600" stop-opacity=".69"/><stop offset=".89" stop-color="#FFE600" stop-opacity=".84"/><stop offset="1" stop-color="#FFE600" stop-opacity=".9"/></linearGradient><linearGradient id="paint4_linear_1032_28535" x1="83.45" y1="85.19" x2="89.92" y2="82.28" gradientUnits="userSpaceOnUse"><stop stop-color="#FFE600" stop-opacity=".1"/><stop offset=".36" stop-color="#FFE600" stop-opacity=".43"/><stop offset=".67" stop-color="#FFE600" stop-opacity=".69"/><stop offset=".89" stop-color="#FFE600" stop-opacity=".84"/><stop offset="1" stop-color="#FFE600" stop-opacity=".9"/></linearGradient><linearGradient id="paint5_linear_1032_28535" x1="78.98" y1="65.88" x2="88.06" y2="60.11" gradientUnits="userSpaceOnUse"><stop stop-color="#FFE600" stop-opacity=".1"/><stop offset=".36" stop-color="#FFE600" stop-opacity=".43"/><stop offset=".67" stop-color="#FFE600" stop-opacity=".69"/><stop offset=".89" stop-color="#FFE600" stop-opacity=".84"/><stop offset="1" stop-color="#FFE600" stop-opacity=".9"/></linearGradient><linearGradient id="paint6_linear_1032_28535" x1="142.74" y1="35.93" x2="152.34" y2="29.48" gradientUnits="userSpaceOnUse"><stop stop-color="#FFE600" stop-opacity=".1"/><stop offset=".36" stop-color="#FFE600" stop-opacity=".43"/><stop offset=".67" stop-color="#FFE600" stop-opacity=".69"/><stop offset=".89" stop-color="#FFE600" stop-opacity=".84"/><stop offset="1" stop-color="#FFE600" stop-opacity=".9"/></linearGradient><linearGradient id="paint7_linear_1032_28535" x1="167.21" y1="63.77" x2="173.69" y2="60.86" gradientUnits="userSpaceOnUse"><stop stop-color="#FFE600" stop-opacity=".1"/><stop offset=".36" stop-color="#FFE600" stop-opacity=".43"/><stop offset=".67" stop-color="#FFE600" stop-opacity=".69"/><stop offset=".89" stop-color="#FFE600" stop-opacity=".84"/><stop offset="1" stop-color="#FFE600" stop-opacity=".9"/></linearGradient><linearGradient id="paint8_linear_1032_28535" x1="162.74" y1="44.45" x2="171.82" y2="38.69" gradientUnits="userSpaceOnUse"><stop stop-color="#FFE600" stop-opacity=".1"/><stop offset=".36" stop-color="#FFE600" stop-opacity=".43"/><stop offset=".67" stop-color="#FFE600" stop-opacity=".69"/><stop offset=".89" stop-color="#FFE600" stop-opacity=".84"/><stop offset="1" stop-color="#FFE600" stop-opacity=".9"/></linearGradient><linearGradient id="paint9_linear_1032_28535" x1="134.74" y1="105.93" x2="144.34" y2="99.48" gradientUnits="userSpaceOnUse"><stop stop-color="#FFE600" stop-opacity=".1"/><stop offset=".36" stop-color="#FFE600" stop-opacity=".43"/><stop offset=".67" stop-color="#FFE600" stop-opacity=".69"/><stop offset=".89" stop-color="#FFE600" stop-opacity=".84"/><stop offset="1" stop-color="#FFE600" stop-opacity=".9"/></linearGradient><linearGradient id="paint10_linear_1032_28535" x1="159.21" y1="133.77" x2="165.69" y2="130.86" gradientUnits="userSpaceOnUse"><stop stop-color="#FFE600" stop-opacity=".1"/><stop offset=".36" stop-color="#FFE600" stop-opacity=".43"/><stop offset=".67" stop-color="#FFE600" stop-opacity=".69"/><stop offset=".89" stop-color="#FFE600" stop-opacity=".84"/><stop offset="1" stop-color="#FFE600" stop-opacity=".9"/></linearGradient><linearGradient id="paint11_linear_1032_28535" x1="154.74" y1="114.45" x2="163.82" y2="108.69" gradientUnits="userSpaceOnUse"><stop stop-color="#FFE600" stop-opacity=".1"/><stop offset=".36" stop-color="#FFE600" stop-opacity=".43"/><stop offset=".67" stop-color="#FFE600" stop-opacity=".69"/><stop offset=".89" stop-color="#FFE600" stop-opacity=".84"/><stop offset="1" stop-color="#FFE600" stop-opacity=".9"/></linearGradient><clipPath id="clip0_1032_28535"><path fill="#fff" d="M0 0h200v200H0z"/></clipPath></defs></svg>